<svg width="33" height="29" viewBox="0 0 33 29" fill="none" xmlns="http://www.w3.org/2000/svg">
<path d="M14.6081 18.3298C13.4704 17.1937 13.4704 15.3518 14.6081 14.2157L24.393 4.44476C25.2462 3.59271 26.6297 3.59271 27.4829 4.44476L29.0279 5.98754C29.5968 6.55558 29.5968 7.47655 29.0279 8.04458L18.728 18.3298C17.5903 19.4658 15.7458 19.4658 14.6081 18.3298Z" fill="#FFC72C"/>
<path d="M23.1993 8.45356C23.9226 9.05669 25.0454 9.0317 25.608 8.27678L27.297 6.01046C27.7272 5.43325 27.6746 4.62294 27.129 4.15296C24.322 1.73491 20.666 0.272731 16.6681 0.27273C11.6871 0.272729 7.23694 2.54231 4.29817 6.10235C3.83279 6.66611 3.92901 7.4875 4.46953 7.97991L6.56452 9.8884C7.24697 10.5101 8.32796 10.342 8.92983 9.64221C10.7998 7.46806 13.5729 6.09091 16.668 6.09091C19.1529 6.09091 21.4302 6.97852 23.1993 8.45356Z" fill="#FFC72C"/>
<path d="M18.7843 14.1535C17.6482 13.0158 15.8063 13.0158 14.6702 14.1535L4.8993 23.9384C4.04725 24.7917 4.04725 26.1751 4.8993 27.0284L6.44208 28.5734C7.01011 29.1422 7.93108 29.1422 8.49912 28.5734L18.7843 18.2735C19.9204 17.1358 19.9204 15.2912 18.7843 14.1535Z" fill="#FFC72C"/>
<path d="M8.90809 22.7447C9.51123 23.4681 9.48623 24.5909 8.73132 25.1535L6.46499 26.8425C5.88778 27.2726 5.07748 27.22 4.6075 26.6745C2.18945 23.8675 0.727267 20.2115 0.727266 16.2135C0.727265 11.2325 2.99684 6.7824 6.55688 3.84363C7.12065 3.37825 7.94204 3.47447 8.43444 4.01499L10.3429 6.10998C10.9646 6.79243 10.7965 7.87341 10.0967 8.47529C7.92259 10.3453 6.54545 13.1183 6.54545 16.2135C6.54545 18.6984 7.43306 20.9757 8.90809 22.7447Z" fill="#FFC72C"/>
<path d="M23.2452 8.49537C22.551 7.93532 22.3489 6.90904 22.9155 6.22164L24.6953 4.06233C25.16 3.49856 25.9819 3.36695 26.5625 3.81218C30.3121 6.68762 32.7273 11.1974 32.7273 16.2676C32.7273 21.3443 30.3059 25.8591 26.5481 28.7341C25.973 29.1741 25.1602 29.0494 24.6927 28.4978L22.8871 26.3673C22.3028 25.678 22.5051 24.6318 23.2117 24.0668C25.505 22.2327 26.9725 19.4204 26.9725 16.2676C26.9725 13.1302 25.5193 10.33 23.2452 8.49537Z" fill="#FFC72C"/>
</svg>
