<svg width="112" height="218" viewBox="0 0 112 218" fill="none" xmlns="http://www.w3.org/2000/svg">
<rect y="100" width="112" height="94" fill="#F9FAFA"/>
<path d="M0 4C0 1.79086 1.79086 0 4 0H108C110.209 0 112 1.79086 112 4V100H0V4Z" fill="#286289"/>
<path d="M13.9105 109.267V115.022L10.0998 109.267H8.83325V117H10.0998V111.234L13.9105 117H15.1771V109.267H13.9105ZM22.0509 117H23.3841L20.6177 109.267H19.1511L16.3848 117H17.7068L18.2623 115.422H21.4954L22.0509 117ZM21.1398 114.389H18.6179L19.8844 110.801L21.1398 114.389ZM24.5869 117H25.8534V111.712L28.2199 117H29.0975L31.4529 111.712V117H32.7194V109.279H31.364L28.6643 115.333L25.9534 109.279H24.5869V117ZM38.6503 109.267H34.3841V117H38.6503V115.967H35.6506V113.6H38.317V112.567H35.6506V110.301H38.6503V109.267Z" fill="#C2C8CF"/>
<path d="M15.0649 134.467C15.0649 131.028 10.0528 132.521 10.0528 130.122C10.0528 129.122 10.8393 128.602 11.839 128.629C12.9721 128.642 13.5586 129.349 13.6386 129.975H14.9716C14.825 128.562 13.6653 127.589 11.8924 127.589C10.0528 127.589 8.81313 128.629 8.81313 130.162C8.81313 133.614 13.8385 132.015 13.8385 134.521C13.8385 135.4 13.1454 136.067 11.9723 136.067C10.6793 136.067 10.1328 135.294 10.0528 134.521H8.75981C8.78647 136.054 10.1061 137.093 11.9723 137.093C13.9852 137.093 15.0649 135.787 15.0649 134.467ZM17.1166 135C17.1166 136.467 17.8497 137 19.1427 137H20.2358V135.974H19.3427C18.5962 135.974 18.3296 135.72 18.3296 135V130.695H20.2358V129.695H18.3296V127.856H17.1166V129.695H16.1701V130.695H17.1166V135ZM24.6861 128.695H27.2322V137H28.4452V128.695H30.9779V127.709H24.6861V128.695ZM33.6841 133.028C33.6841 131.335 34.5639 130.815 35.7236 130.815H36.0435V129.562C34.8838 129.562 34.0973 130.068 33.6841 130.882V129.695H32.4711V137H33.6841V133.028ZM44.3754 133.334C44.3754 131.028 42.7625 129.575 40.683 129.575C38.6168 129.575 36.9906 131.028 36.9906 133.334C36.9906 135.654 38.5635 137.12 40.6297 137.12C42.7091 137.12 44.3754 135.654 44.3754 133.334ZM38.2303 133.334C38.2303 131.495 39.39 130.628 40.6696 130.628C41.9227 130.628 43.1357 131.495 43.1357 133.334C43.1357 135.187 41.896 136.054 40.6297 136.054C39.3633 136.054 38.2303 135.187 38.2303 133.334ZM47.1833 131.041V129.695H45.9703V140.466H47.1833V135.654C47.6365 136.4 48.583 137.12 49.916 137.12C51.8755 137.12 53.3818 135.587 53.3818 133.321C53.3818 131.041 51.8755 129.575 49.916 129.575C48.583 129.575 47.6232 130.268 47.1833 131.041ZM52.1421 133.321C52.1421 135.04 51.009 136.054 49.6627 136.054C48.343 136.054 47.1833 135.054 47.1833 133.334C47.1833 131.641 48.343 130.628 49.6627 130.628C51.009 130.628 52.1421 131.601 52.1421 133.321ZM54.5252 133.321C54.5252 135.587 56.0315 137.12 57.9777 137.12C59.324 137.12 60.2705 136.427 60.7104 135.64V137H61.9367V129.695H60.7104V131.028C60.2838 130.268 59.3507 129.575 57.991 129.575C56.0315 129.575 54.5252 131.041 54.5252 133.321ZM60.7104 133.334C60.7104 135.054 59.564 136.054 58.231 136.054C56.898 136.054 55.7649 135.04 55.7649 133.321C55.7649 131.601 56.898 130.628 58.231 130.628C59.564 130.628 60.7104 131.641 60.7104 133.334ZM68.4522 129.695H63.5334V130.682H67.0525L63.5067 136V137H68.4788V136H64.8931L68.4522 130.682V129.695Z" fill="#5D6B7E"/>
<path d="M13.7328 160H14.9993V152.279H13.7328V155.589H10.0998V152.279H8.83325V160H10.0998V156.623H13.7328V160ZM20.9329 152.267H16.6667V160H20.9329V158.967H17.9332V156.6H20.5996V155.567H17.9332V153.301H20.9329V152.267ZM27.0147 160H28.4368L26.037 156.145L28.4479 152.279H27.0369L25.3926 155.1L23.6372 152.279H22.2152L24.626 156.145L22.2263 160H23.6372L25.2704 157.2L27.0147 160Z" fill="#C2C8CF"/>
<path d="M8.67983 179.893H15.0916V178.88H10.506C12.2256 177.481 14.8116 175.441 14.8116 173.042C14.8116 171.256 13.6386 170.189 11.8257 170.189C10.0928 170.189 8.7998 171.256 8.71982 173.308H9.89286C9.94618 172.095 10.586 171.229 11.839 171.229C13.1454 171.229 13.6119 172.029 13.6119 173.095C13.6119 175.068 11.2125 176.987 8.67983 179.027V179.893ZM18.2534 174.988C17.1736 175.308 16.4672 176.188 16.4672 177.401C16.4672 179.147 17.8401 180.267 19.8663 180.267C21.9058 180.267 23.2921 179.147 23.2921 177.401C23.2921 176.201 22.5856 175.321 21.4926 174.988C22.439 174.615 23.0388 173.815 23.0388 172.775C23.0388 171.375 21.9591 170.216 19.8663 170.216C17.7735 170.216 16.7071 171.362 16.7071 172.775C16.7071 173.855 17.267 174.601 18.2534 174.988ZM19.8663 174.588C18.6933 174.588 17.8801 173.935 17.8801 172.935C17.8801 171.802 18.6799 171.229 19.8663 171.229C21.0793 171.229 21.8658 171.815 21.8658 172.922C21.8658 173.922 21.0527 174.588 19.8663 174.588ZM19.8663 175.521C21.1327 175.521 22.0924 176.121 22.0924 177.361C22.0924 178.48 21.2393 179.254 19.8663 179.254C18.4933 179.254 17.6269 178.494 17.6269 177.361C17.6269 176.081 18.6266 175.521 19.8663 175.521ZM31.3949 172.655C31.2349 171.309 30.3018 170.162 28.4623 170.162C26.0229 170.162 25.0498 172.029 25.0498 175.055C25.0498 177.974 25.7296 180.027 28.5823 180.027C30.6884 180.027 31.7281 178.587 31.7281 176.827C31.7281 174.801 30.5151 173.615 28.7155 173.615C27.5692 173.615 26.5161 174.148 26.1029 175.095C26.0895 172.229 26.916 171.176 28.4489 171.176C29.542 171.176 30.0885 171.722 30.2752 172.655H31.3949ZM28.4623 174.641C29.8486 174.641 30.5551 175.508 30.5551 176.867C30.5551 178.174 29.7686 179.014 28.5156 179.014C26.996 179.014 26.2495 178.014 26.2495 176.734C26.2495 175.295 27.3559 174.641 28.4623 174.641ZM33.218 179.893H39.6297V178.88H35.0442C36.7637 177.481 39.3498 175.441 39.3498 173.042C39.3498 171.256 38.1767 170.189 36.3638 170.189C34.6309 170.189 33.3379 171.256 33.258 173.308H34.431C34.4843 172.095 35.1242 171.229 36.3772 171.229C37.6835 171.229 38.1501 172.029 38.1501 173.095C38.1501 175.068 35.7507 176.987 33.218 179.027V179.893ZM42.7915 174.988C41.7118 175.308 41.0053 176.188 41.0053 177.401C41.0053 179.147 42.3783 180.267 44.4044 180.267C46.4439 180.267 47.8303 179.147 47.8303 177.401C47.8303 176.201 47.1238 175.321 46.0307 174.988C46.9771 174.615 47.577 173.815 47.577 172.775C47.577 171.375 46.4973 170.216 44.4044 170.216C42.3116 170.216 41.2452 171.362 41.2452 172.775C41.2452 173.855 41.8051 174.601 42.7915 174.988ZM44.4044 174.588C43.2314 174.588 42.4183 173.935 42.4183 172.935C42.4183 171.802 43.2181 171.229 44.4044 171.229C45.6175 171.229 46.4039 171.815 46.4039 172.922C46.4039 173.922 45.5908 174.588 44.4044 174.588ZM44.4044 175.521C45.6708 175.521 46.6306 176.121 46.6306 177.361C46.6306 178.48 45.7774 179.254 44.4044 179.254C43.0315 179.254 42.165 178.494 42.165 177.361C42.165 176.081 43.1648 175.521 44.4044 175.521ZM49.8812 177.414C50.0145 178.827 50.9476 180.013 52.8671 180.013C55.3998 180.013 56.133 178.214 56.133 175.001C56.133 172.015 55.3732 170.176 52.7605 170.176C50.681 170.176 49.5879 171.509 49.5879 173.348C49.5879 175.388 50.9076 176.494 52.6805 176.494C53.7202 176.494 54.68 176.028 55.0666 175.215C55.1066 178.04 54.3467 179 52.9338 179C51.814 179 51.1742 178.414 51.0009 177.414H49.8812ZM52.8804 175.468C51.4408 175.468 50.7476 174.561 50.7476 173.322C50.7476 172.042 51.5341 171.189 52.7871 171.189C54.1735 171.189 54.9199 172.109 54.9199 173.415C54.9199 174.708 54.0402 175.468 52.8804 175.468Z" fill="#5D6B7E"/>
<path d="M0 194H112V214C112 216.209 110.209 218 108 218H4C1.79086 218 0 216.209 0 214V194Z" fill="#EDEFF1"/>
<path d="M13.1884 207.789C13.1884 208.533 12.6662 208.967 11.8107 208.967H10.0998V206.556H11.7663C12.6107 206.556 13.1884 207.023 13.1884 207.789ZM12.9884 204.423C12.9884 205.134 12.4884 205.523 11.6663 205.523H10.0998V203.312H11.6663C12.4884 203.312 12.9884 203.723 12.9884 204.423ZM14.4549 207.922C14.4549 207 13.7883 206.178 12.9662 206.034C13.7105 205.767 14.2771 205.2 14.2771 204.267C14.2771 203.178 13.4106 202.279 11.7774 202.279H8.83325V210H11.9218C13.4995 210 14.4549 209.1 14.4549 207.922ZM15.8201 207.178C15.8201 209.145 17.1978 210.078 18.8198 210.078C20.4308 210.078 21.8529 209.145 21.8529 207.178V202.279H20.5863V207.2C20.5863 208.4 19.9086 208.967 18.8309 208.967C17.7644 208.967 17.0867 208.4 17.0867 207.2V202.279H15.8201V207.178ZM23.5019 210H24.7685V202.279H23.5019V210ZM26.4313 202.279V210H30.3087V208.978H27.6979V202.279H26.4313ZM33.8899 202.279H31.3679V210H33.8899C36.3674 210 37.9894 208.545 37.9894 206.167C37.9894 203.778 36.3674 202.279 33.8899 202.279ZM32.6344 208.967V203.312H33.8899C35.7119 203.312 36.6896 204.401 36.6896 206.167C36.6896 207.922 35.7119 208.967 33.8899 208.967H32.6344ZM43.5109 202.267H39.2447V210H43.5109V208.967H40.5112V206.6H43.1776V205.567H40.5112V203.301H43.5109V202.267ZM49.1705 204.589C49.1705 205.356 48.7261 205.9 47.7373 205.9H46.3375V203.312H47.7373C48.7261 203.312 49.1705 203.812 49.1705 204.589ZM45.0709 202.279V210H46.3375V206.911H47.3041L49.0817 210H50.5926L48.6817 206.8C49.9816 206.478 50.4704 205.5 50.4704 204.589C50.4704 203.334 49.5705 202.279 47.7373 202.279H45.0709ZM57.4457 203.778C57.3123 202.701 56.5235 201.701 54.9459 201.701C52.9239 201.701 52.0795 203.234 52.0795 205.767C52.0795 208.345 52.6906 210 55.0459 210C56.7791 210 57.7012 208.833 57.7012 207.3C57.7012 205.612 56.668 204.634 55.2126 204.634C54.3682 204.634 53.5683 204.989 53.1683 205.656C53.2016 203.534 53.7905 202.756 54.9348 202.756C55.7347 202.756 56.1236 203.123 56.2791 203.778H57.4457ZM54.9348 205.7C56.0014 205.7 56.4902 206.389 56.4902 207.356C56.4902 208.311 55.9125 208.945 54.9792 208.945C53.9016 208.945 53.3127 208.278 53.3127 207.278C53.3127 206.2 54.1016 205.7 54.9348 205.7ZM59.0522 205.845C59.0522 208.2 59.6743 209.978 61.9408 209.978C64.2072 209.978 64.8294 208.2 64.8294 205.845C64.8294 203.534 64.2072 201.756 61.9408 201.756C59.6743 201.756 59.0522 203.534 59.0522 205.845ZM63.5851 205.845C63.5851 207.434 63.4184 208.822 61.9408 208.822C60.4632 208.822 60.2965 207.434 60.2965 205.845C60.2965 204.334 60.4632 202.912 61.9408 202.912C63.4184 202.912 63.5851 204.334 63.5851 205.845ZM66.1695 205.845C66.1695 208.2 66.7917 209.978 69.0581 209.978C71.3246 209.978 71.9467 208.2 71.9467 205.845C71.9467 203.534 71.3246 201.756 69.0581 201.756C66.7917 201.756 66.1695 203.534 66.1695 205.845ZM70.7024 205.845C70.7024 207.434 70.5358 208.822 69.0581 208.822C67.5805 208.822 67.4138 207.434 67.4138 205.845C67.4138 204.334 67.5805 202.912 69.0581 202.912C70.5358 202.912 70.7024 204.334 70.7024 205.845Z" fill="#9AA3AF"/>
</svg>
