<svg width="112" height="218" viewBox="0 0 112 218" fill="none" xmlns="http://www.w3.org/2000/svg">
<rect y="100" width="112" height="94" fill="#F9FAFA"/>
<path d="M0 4C0 1.79086 1.79086 0 4 0H108C110.209 0 112 1.79086 112 4V100H0V4Z" fill="#68B6E9"/>
<path d="M13.9105 109.267V115.022L10.0998 109.267H8.83325V117H10.0998V111.234L13.9105 117H15.1771V109.267H13.9105ZM22.0509 117H23.3841L20.6177 109.267H19.1511L16.3848 117H17.7068L18.2623 115.422H21.4954L22.0509 117ZM21.1398 114.389H18.6179L19.8844 110.801L21.1398 114.389ZM24.5869 117H25.8534V111.712L28.2199 117H29.0975L31.4529 111.712V117H32.7194V109.279H31.364L28.6643 115.333L25.9534 109.279H24.5869V117ZM38.6503 109.267H34.3841V117H38.6503V115.967H35.6506V113.6H38.317V112.567H35.6506V110.301H38.6503V109.267Z" fill="#C2C8CF"/>
<path d="M14.3051 134.387C14.3051 135.4 13.5853 136 12.3856 136H10.2394V132.721H12.3456C13.532 132.721 14.3051 133.361 14.3051 134.387ZM14.0652 130.215C14.0652 131.161 13.412 131.721 12.2789 131.721H10.2394V128.709H12.2523C13.4386 128.709 14.0652 129.295 14.0652 130.215ZM15.5181 134.507C15.5181 133.361 14.6917 132.388 13.6786 132.215C14.5717 131.921 15.3048 131.241 15.3048 130.068C15.3048 128.775 14.3184 127.709 12.3589 127.709H9.02641V137H12.4922C14.4117 137 15.5181 135.907 15.5181 134.507ZM17.2014 137H18.4145V127.136H17.2014V137ZM26.9603 129.695H25.7472V133.707C25.7472 135.28 24.9074 136.054 23.6544 136.054C22.4281 136.054 21.6149 135.294 21.6149 133.814V129.695H20.4152V133.974C20.4152 136.067 21.7349 137.107 23.4145 137.107C24.3876 137.107 25.2807 136.68 25.7472 135.92V137H26.9603V129.695ZM32.1143 130.602C33.3673 130.602 34.4337 131.388 34.4204 132.814H29.8082C29.9415 131.388 30.9279 130.602 32.1143 130.602ZM35.5268 134.747H34.2204C33.9538 135.534 33.2607 136.094 32.1676 136.094C30.9279 136.094 29.8882 135.28 29.7949 133.801H35.6334C35.6601 133.548 35.6734 133.334 35.6734 133.068C35.6734 131.068 34.2871 129.575 32.1676 129.575C30.0348 129.575 28.5552 131.028 28.5552 133.334C28.5552 135.654 30.0881 137.12 32.1676 137.12C33.9805 137.12 35.1535 136.08 35.5268 134.747ZM44.2808 134.574C44.2808 135.347 43.8943 136.014 42.9345 136.014C41.9747 136.014 41.5748 135.334 41.5615 134.481H40.3485C40.3485 136.107 41.3882 137.093 42.9345 137.093C44.4674 137.093 45.5072 136.12 45.5072 134.574V127.709H44.2808V134.574ZM51.0028 130.602C52.2558 130.602 53.3222 131.388 53.3089 132.814H48.6967C48.83 131.388 49.8164 130.602 51.0028 130.602ZM54.4153 134.747H53.1089C52.8423 135.534 52.1492 136.094 51.0561 136.094C49.8164 136.094 48.7767 135.28 48.6834 133.801H54.5219C54.5486 133.548 54.5619 133.334 54.5619 133.068C54.5619 131.068 53.1756 129.575 51.0561 129.575C48.9233 129.575 47.4437 131.028 47.4437 133.334C47.4437 135.654 48.9766 137.12 51.0561 137.12C52.869 137.12 54.042 136.08 54.4153 134.747ZM55.7098 133.321C55.7098 135.587 57.2161 137.12 59.1623 137.12C60.5086 137.12 61.4551 136.427 61.895 135.64V137H63.1213V129.695H61.895V131.028C61.4684 130.268 60.5353 129.575 59.1756 129.575C57.2161 129.575 55.7098 131.041 55.7098 133.321ZM61.895 133.334C61.895 135.054 60.7486 136.054 59.4156 136.054C58.0826 136.054 56.9495 135.04 56.9495 133.321C56.9495 131.601 58.0826 130.628 59.4156 130.628C60.7486 130.628 61.895 131.641 61.895 133.334ZM70.5166 137H71.7163V132.694C71.7163 130.602 70.4232 129.562 68.7303 129.562C67.7439 129.562 66.8641 129.975 66.3843 130.735V129.695H65.1712V137H66.3843V132.961C66.3843 131.388 67.2374 130.615 68.4771 130.615C69.7034 130.615 70.5166 131.375 70.5166 132.868V137ZM78.9498 135.014C78.8964 132.401 74.6575 133.348 74.6575 131.615C74.6575 131.028 75.1907 130.602 76.0838 130.602C77.0569 130.602 77.6168 131.135 77.6701 131.868H78.8831C78.8031 130.442 77.7367 129.575 76.1238 129.575C74.4975 129.575 73.4445 130.495 73.4445 131.615C73.4445 134.334 77.7634 133.388 77.7634 135.014C77.7634 135.614 77.2302 136.094 76.2704 136.094C75.244 136.094 74.6175 135.56 74.5509 134.854H73.2978C73.3778 136.187 74.5775 137.12 76.2838 137.12C77.8967 137.12 78.9498 136.214 78.9498 135.014Z" fill="#5D6B7E"/>
<path d="M13.7328 160H14.9993V152.279H13.7328V155.589H10.0998V152.279H8.83325V160H10.0998V156.623H13.7328V160ZM20.9329 152.267H16.6667V160H20.9329V158.967H17.9332V156.6H20.5996V155.567H17.9332V153.301H20.9329V152.267ZM27.0147 160H28.4368L26.037 156.145L28.4479 152.279H27.0369L25.3926 155.1L23.6372 152.279H22.2152L24.626 156.145L22.2263 160H23.6372L25.2704 157.2L27.0147 160Z" fill="#C2C8CF"/>
<path d="M15.3182 172.655C15.1582 171.309 14.2251 170.162 12.3856 170.162C9.94618 170.162 8.97309 172.029 8.97309 175.055C8.97309 177.974 9.65292 180.027 12.5055 180.027C14.6117 180.027 15.6514 178.587 15.6514 176.827C15.6514 174.801 14.4384 173.615 12.6388 173.615C11.4925 173.615 10.4394 174.148 10.0262 175.095C10.0128 172.229 10.8393 171.176 12.3722 171.176C13.4653 171.176 14.0118 171.722 14.1985 172.655H15.3182ZM12.3856 174.641C13.7719 174.641 14.4784 175.508 14.4784 176.867C14.4784 178.174 13.6919 179.014 12.4389 179.014C10.9193 179.014 10.1728 178.014 10.1728 176.734C10.1728 175.295 11.2792 174.641 12.3856 174.641ZM19.0474 174.988C17.9677 175.308 17.2612 176.188 17.2612 177.401C17.2612 179.147 18.6342 180.267 20.6604 180.267C22.6999 180.267 24.0862 179.147 24.0862 177.401C24.0862 176.201 23.3797 175.321 22.2866 174.988C23.2331 174.615 23.8329 173.815 23.8329 172.775C23.8329 171.375 22.7532 170.216 20.6604 170.216C18.5676 170.216 17.5012 171.362 17.5012 172.775C17.5012 173.855 18.061 174.601 19.0474 174.988ZM20.6604 174.588C19.4873 174.588 18.6742 173.935 18.6742 172.935C18.6742 171.802 19.474 171.229 20.6604 171.229C21.8734 171.229 22.6599 171.815 22.6599 172.922C22.6599 173.922 21.8467 174.588 20.6604 174.588ZM20.6604 175.521C21.9267 175.521 22.8865 176.121 22.8865 177.361C22.8865 178.48 22.0334 179.254 20.6604 179.254C19.2874 179.254 18.4209 178.494 18.4209 177.361C18.4209 176.081 19.4207 175.521 20.6604 175.521ZM31.1759 177.387C31.1759 178.4 30.4561 179 29.2564 179H27.1102V175.721H29.2164C30.4027 175.721 31.1759 176.361 31.1759 177.387ZM30.9359 173.215C30.9359 174.161 30.2828 174.721 29.1497 174.721H27.1102V171.709H29.1231C30.3094 171.709 30.9359 172.295 30.9359 173.215ZM32.3889 177.507C32.3889 176.361 31.5624 175.388 30.5494 175.215C31.4425 174.921 32.1756 174.241 32.1756 173.068C32.1756 171.775 31.1892 170.709 29.2297 170.709H25.8972V180H29.363C31.2825 180 32.3889 178.907 32.3889 177.507ZM40.364 172.655C40.204 171.309 39.2709 170.162 37.4314 170.162C34.992 170.162 34.0189 172.029 34.0189 175.055C34.0189 177.974 34.6987 180.027 37.5514 180.027C39.6575 180.027 40.6972 178.587 40.6972 176.827C40.6972 174.801 39.4842 173.615 37.6847 173.615C36.5383 173.615 35.4852 174.148 35.072 175.095C35.0587 172.229 35.8851 171.176 37.4181 171.176C38.5111 171.176 39.0577 171.722 39.2443 172.655H40.364ZM37.4314 174.641C38.8177 174.641 39.5242 175.508 39.5242 176.867C39.5242 178.174 38.7377 179.014 37.4847 179.014C35.9651 179.014 35.2186 178.014 35.2186 176.734C35.2186 175.295 36.325 174.641 37.4314 174.641ZM47.5324 170.696H42.5337V180H47.5324V179H43.7467V175.801H47.1325V174.801H43.7467V171.695H47.5324V170.696ZM49.6078 177.414C49.7411 178.827 50.6742 180.013 52.5937 180.013C55.1264 180.013 55.8596 178.214 55.8596 175.001C55.8596 172.015 55.0998 170.176 52.4871 170.176C50.4076 170.176 49.3146 171.509 49.3146 173.348C49.3146 175.388 50.6342 176.494 52.4071 176.494C53.4469 176.494 54.4066 176.028 54.7932 175.215C54.8332 178.04 54.0734 179 52.6604 179C51.5407 179 50.9008 178.414 50.7275 177.414H49.6078ZM52.6071 175.468C51.1674 175.468 50.4743 174.561 50.4743 173.322C50.4743 172.042 51.2607 171.189 52.5138 171.189C53.9001 171.189 54.6466 172.109 54.6466 173.415C54.6466 174.708 53.7668 175.468 52.6071 175.468Z" fill="#5D6B7E"/>
<path d="M0 194H112V214C112 216.209 110.209 218 108 218H4C1.79086 218 0 216.209 0 214V194Z" fill="#EDEFF1"/>
<path d="M13.1884 207.789C13.1884 208.533 12.6662 208.967 11.8107 208.967H10.0998V206.556H11.7663C12.6107 206.556 13.1884 207.023 13.1884 207.789ZM12.9884 204.423C12.9884 205.134 12.4884 205.523 11.6663 205.523H10.0998V203.312H11.6663C12.4884 203.312 12.9884 203.723 12.9884 204.423ZM14.4549 207.922C14.4549 207 13.7883 206.178 12.9662 206.034C13.7105 205.767 14.2771 205.2 14.2771 204.267C14.2771 203.178 13.4106 202.279 11.7774 202.279H8.83325V210H11.9218C13.4995 210 14.4549 209.1 14.4549 207.922ZM15.8201 207.178C15.8201 209.145 17.1978 210.078 18.8198 210.078C20.4308 210.078 21.8529 209.145 21.8529 207.178V202.279H20.5863V207.2C20.5863 208.4 19.9086 208.967 18.8309 208.967C17.7644 208.967 17.0867 208.4 17.0867 207.2V202.279H15.8201V207.178ZM23.5019 210H24.7685V202.279H23.5019V210ZM26.4313 202.279V210H30.3087V208.978H27.6979V202.279H26.4313ZM33.8899 202.279H31.3679V210H33.8899C36.3674 210 37.9894 208.545 37.9894 206.167C37.9894 203.778 36.3674 202.279 33.8899 202.279ZM32.6344 208.967V203.312H33.8899C35.7119 203.312 36.6896 204.401 36.6896 206.167C36.6896 207.922 35.7119 208.967 33.8899 208.967H32.6344ZM43.5109 202.267H39.2447V210H43.5109V208.967H40.5112V206.6H43.1776V205.567H40.5112V203.301H43.5109V202.267ZM49.1705 204.589C49.1705 205.356 48.7261 205.9 47.7373 205.9H46.3375V203.312H47.7373C48.7261 203.312 49.1705 203.812 49.1705 204.589ZM45.0709 202.279V210H46.3375V206.911H47.3041L49.0817 210H50.5926L48.6817 206.8C49.9816 206.478 50.4704 205.5 50.4704 204.589C50.4704 203.334 49.5705 202.279 47.7373 202.279H45.0709ZM51.9018 203.901H53.135C53.2128 203.334 53.6238 202.801 54.5126 202.801C55.3792 202.801 55.8347 203.267 55.8347 203.967C55.8347 204.834 55.1348 205.167 53.9905 205.178H53.6905V206.223H53.9793C55.3014 206.223 55.9903 206.589 55.9903 207.656C55.9903 208.411 55.5236 208.989 54.5793 208.989C53.6238 208.989 53.0683 208.411 53.0128 207.656H51.7907C51.8684 209.245 53.0572 210.044 54.5904 210.044C56.2791 210.044 57.1901 209.067 57.1901 207.778C57.1901 206.656 56.6457 205.956 55.8014 205.7V205.656C56.4347 205.445 57.0457 204.789 57.0457 203.823C57.0457 202.645 56.168 201.712 54.5571 201.712C53.0794 201.712 51.9907 202.501 51.9018 203.901ZM58.5206 205.845C58.5206 208.2 59.1427 209.978 61.4092 209.978C63.6756 209.978 64.2978 208.2 64.2978 205.845C64.2978 203.534 63.6756 201.756 61.4092 201.756C59.1427 201.756 58.5206 203.534 58.5206 205.845ZM63.0534 205.845C63.0534 207.434 62.8868 208.822 61.4092 208.822C59.9315 208.822 59.7649 207.434 59.7649 205.845C59.7649 204.334 59.9315 202.912 61.4092 202.912C62.8868 202.912 63.0534 204.334 63.0534 205.845ZM65.6379 205.845C65.6379 208.2 66.2601 209.978 68.5265 209.978C70.7929 209.978 71.4151 208.2 71.4151 205.845C71.4151 203.534 70.7929 201.756 68.5265 201.756C66.2601 201.756 65.6379 203.534 65.6379 205.845ZM70.1708 205.845C70.1708 207.434 70.0041 208.822 68.5265 208.822C67.0489 208.822 66.8822 207.434 66.8822 205.845C66.8822 204.334 67.0489 202.912 68.5265 202.912C70.0041 202.912 70.1708 204.334 70.1708 205.845Z" fill="#9AA3AF"/>
</svg>
