<svg width="112" height="218" viewBox="0 0 112 218" fill="none" xmlns="http://www.w3.org/2000/svg">
<rect y="100" width="112" height="94" fill="#F9FAFA"/>
<path d="M0 4C0 1.79086 1.79086 0 4 0H108C110.209 0 112 1.79086 112 4V100H0V4Z" fill="#8EC8EF"/>
<path d="M13.9105 109.267V115.022L10.0998 109.267H8.83325V117H10.0998V111.234L13.9105 117H15.1771V109.267H13.9105ZM22.0509 117H23.3841L20.6177 109.267H19.1511L16.3848 117H17.7068L18.2623 115.422H21.4954L22.0509 117ZM21.1398 114.389H18.6179L19.8844 110.801L21.1398 114.389ZM24.5869 117H25.8534V111.712L28.2199 117H29.0975L31.4529 111.712V117H32.7194V109.279H31.364L28.6643 115.333L25.9534 109.279H24.5869V117ZM38.6503 109.267H34.3841V117H38.6503V115.967H35.6506V113.6H38.317V112.567H35.6506V110.301H38.6503V109.267Z" fill="#C2C8CF"/>
<path d="M14.3051 134.387C14.3051 135.4 13.5853 136 12.3856 136H10.2394V132.721H12.3456C13.532 132.721 14.3051 133.361 14.3051 134.387ZM14.0652 130.215C14.0652 131.161 13.412 131.721 12.2789 131.721H10.2394V128.709H12.2523C13.4386 128.709 14.0652 129.295 14.0652 130.215ZM15.5181 134.507C15.5181 133.361 14.6917 132.388 13.6786 132.215C14.5717 131.921 15.3048 131.241 15.3048 130.068C15.3048 128.775 14.3184 127.709 12.3589 127.709H9.02641V137H12.4922C14.4117 137 15.5181 135.907 15.5181 134.507ZM16.7482 133.321C16.7482 135.587 18.2545 137.12 20.2007 137.12C21.547 137.12 22.4935 136.427 22.9333 135.64V137H24.1597V129.695H22.9333V131.028C22.5068 130.268 21.5737 129.575 20.214 129.575C18.2545 129.575 16.7482 131.041 16.7482 133.321ZM22.9333 133.334C22.9333 135.054 21.787 136.054 20.454 136.054C19.121 136.054 17.9879 135.04 17.9879 133.321C17.9879 131.601 19.121 130.628 20.454 130.628C21.787 130.628 22.9333 131.641 22.9333 133.334ZM27.4226 131.055V127.136H26.2096V137H27.4226V135.654C27.8759 136.453 28.8223 137.12 30.1553 137.12C32.1148 137.12 33.6211 135.587 33.6211 133.321C33.6211 131.041 32.1281 129.575 30.1553 129.575C28.8623 129.575 27.8892 130.242 27.4226 131.055ZM32.3814 133.321C32.3814 135.04 31.2484 136.054 29.902 136.054C28.5824 136.054 27.4226 135.054 27.4226 133.334C27.4226 131.641 28.5824 130.628 29.902 130.628C31.2484 130.628 32.3814 131.601 32.3814 133.321ZM37.9904 135.614L35.6977 129.695H34.3513L37.2973 136.92L35.8576 140.439H37.1106L41.5095 129.695H40.2565L37.9904 135.614ZM51.5614 134.387C51.5614 135.4 50.8416 136 49.6419 136H47.4957V132.721H49.6019C50.7883 132.721 51.5614 133.361 51.5614 134.387ZM51.3215 130.215C51.3215 131.161 50.6683 131.721 49.5352 131.721H47.4957V128.709H49.5086C50.6949 128.709 51.3215 129.295 51.3215 130.215ZM52.7744 134.507C52.7744 133.361 51.948 132.388 50.9349 132.215C51.828 131.921 52.5611 131.241 52.5611 130.068C52.5611 128.775 51.5747 127.709 49.6152 127.709H46.2827V137H49.7485C51.668 137 52.7744 135.907 52.7744 134.507ZM54.4578 137H55.6708V127.136H54.4578V137ZM64.2166 129.695H63.0035V133.707C63.0035 135.28 62.1637 136.054 60.9107 136.054C59.6844 136.054 58.8712 135.294 58.8712 133.814V129.695H57.6715V133.974C57.6715 136.067 58.9912 137.107 60.6708 137.107C61.6439 137.107 62.537 136.68 63.0035 135.92V137H64.2166V129.695ZM69.3706 130.602C70.6236 130.602 71.69 131.388 71.6767 132.814H67.0645C67.1978 131.388 68.1842 130.602 69.3706 130.602ZM72.7831 134.747H71.4767C71.2101 135.534 70.517 136.094 69.4239 136.094C68.1842 136.094 67.1445 135.28 67.0512 133.801H72.8897C72.9164 133.548 72.9297 133.334 72.9297 133.068C72.9297 131.068 71.5434 129.575 69.4239 129.575C67.2911 129.575 65.8115 131.028 65.8115 133.334C65.8115 135.654 67.3444 137.12 69.4239 137.12C71.2368 137.12 72.4098 136.08 72.7831 134.747Z" fill="#5D6B7E"/>
<path d="M13.7328 160H14.9993V152.279H13.7328V155.589H10.0998V152.279H8.83325V160H10.0998V156.623H13.7328V160ZM20.9329 152.267H16.6667V160H20.9329V158.967H17.9332V156.6H20.5996V155.567H17.9332V153.301H20.9329V152.267ZM27.0147 160H28.4368L26.037 156.145L28.4479 152.279H27.0369L25.3926 155.1L23.6372 152.279H22.2152L24.626 156.145L22.2263 160H23.6372L25.2704 157.2L27.0147 160Z" fill="#C2C8CF"/>
<path d="M10.586 174.988C9.50629 175.308 8.7998 176.188 8.7998 177.401C8.7998 179.147 10.1728 180.267 12.199 180.267C14.2384 180.267 15.6248 179.147 15.6248 177.401C15.6248 176.201 14.9183 175.321 13.8252 174.988C14.7716 174.615 15.3715 173.815 15.3715 172.775C15.3715 171.375 14.2918 170.216 12.199 170.216C10.1061 170.216 9.03974 171.362 9.03974 172.775C9.03974 173.855 9.5996 174.601 10.586 174.988ZM12.199 174.588C11.0259 174.588 10.2128 173.935 10.2128 172.935C10.2128 171.802 11.0126 171.229 12.199 171.229C13.412 171.229 14.1985 171.815 14.1985 172.922C14.1985 173.922 13.3853 174.588 12.199 174.588ZM12.199 175.521C13.4653 175.521 14.4251 176.121 14.4251 177.361C14.4251 178.48 13.5719 179.254 12.199 179.254C10.826 179.254 9.95951 178.494 9.95951 177.361C9.95951 176.081 10.9593 175.521 12.199 175.521ZM22.4345 170.696H17.4358V180H22.4345V179H18.6488V175.801H22.0346V174.801H18.6488V171.695H22.4345V170.696ZM23.8168 175.348C23.8168 178.134 25.8563 180.08 28.4556 180.08C30.4684 180.08 32.068 179.08 32.7612 177.294H31.3082C30.8017 178.4 29.8153 179.027 28.4556 179.027C26.5094 179.027 25.0565 177.614 25.0565 175.348C25.0565 173.068 26.5094 171.655 28.4556 171.655C29.8153 171.655 30.8017 172.282 31.3082 173.402H32.7612C32.068 171.602 30.4684 170.589 28.4556 170.589C25.8563 170.589 23.8168 172.562 23.8168 175.348ZM36.1265 174.988C35.0468 175.308 34.3403 176.188 34.3403 177.401C34.3403 179.147 35.7133 180.267 37.7394 180.267C39.7789 180.267 41.1652 179.147 41.1652 177.401C41.1652 176.201 40.4588 175.321 39.3657 174.988C40.3121 174.615 40.912 173.815 40.912 172.775C40.912 171.375 39.8322 170.216 37.7394 170.216C35.6466 170.216 34.5802 171.362 34.5802 172.775C34.5802 173.855 35.1401 174.601 36.1265 174.988ZM37.7394 174.588C36.5664 174.588 35.7533 173.935 35.7533 172.935C35.7533 171.802 36.5531 171.229 37.7394 171.229C38.9525 171.229 39.7389 171.815 39.7389 172.922C39.7389 173.922 38.9258 174.588 37.7394 174.588ZM37.7394 175.521C39.0058 175.521 39.9655 176.121 39.9655 177.361C39.9655 178.48 39.1124 179.254 37.7394 179.254C36.3664 179.254 35.5 178.494 35.5 177.361C35.5 176.081 36.4997 175.521 37.7394 175.521ZM47.975 170.696H42.9763V180H47.975V179H44.1893V175.801H47.5751V174.801H44.1893V171.695H47.975V170.696ZM49.8105 180H51.0235V175.814H54.3027V174.828H51.0235V171.695H55.0625V170.709H49.8105V180Z" fill="#5D6B7E"/>
<path d="M0 194H112V214C112 216.209 110.209 218 108 218H4C1.79086 218 0 216.209 0 214V194Z" fill="#EDEFF1"/>
<path d="M13.1884 207.789C13.1884 208.533 12.6662 208.967 11.8107 208.967H10.0998V206.556H11.7663C12.6107 206.556 13.1884 207.023 13.1884 207.789ZM12.9884 204.423C12.9884 205.134 12.4884 205.523 11.6663 205.523H10.0998V203.312H11.6663C12.4884 203.312 12.9884 203.723 12.9884 204.423ZM14.4549 207.922C14.4549 207 13.7883 206.178 12.9662 206.034C13.7105 205.767 14.2771 205.2 14.2771 204.267C14.2771 203.178 13.4106 202.279 11.7774 202.279H8.83325V210H11.9218C13.4995 210 14.4549 209.1 14.4549 207.922ZM15.8201 207.178C15.8201 209.145 17.1978 210.078 18.8198 210.078C20.4308 210.078 21.8529 209.145 21.8529 207.178V202.279H20.5863V207.2C20.5863 208.4 19.9086 208.967 18.8309 208.967C17.7644 208.967 17.0867 208.4 17.0867 207.2V202.279H15.8201V207.178ZM23.5019 210H24.7685V202.279H23.5019V210ZM26.4313 202.279V210H30.3087V208.978H27.6979V202.279H26.4313ZM33.8899 202.279H31.3679V210H33.8899C36.3674 210 37.9894 208.545 37.9894 206.167C37.9894 203.778 36.3674 202.279 33.8899 202.279ZM32.6344 208.967V203.312H33.8899C35.7119 203.312 36.6896 204.401 36.6896 206.167C36.6896 207.922 35.7119 208.967 33.8899 208.967H32.6344ZM43.5109 202.267H39.2447V210H43.5109V208.967H40.5112V206.6H43.1776V205.567H40.5112V203.301H43.5109V202.267ZM49.1705 204.589C49.1705 205.356 48.7261 205.9 47.7373 205.9H46.3375V203.312H47.7373C48.7261 203.312 49.1705 203.812 49.1705 204.589ZM45.0709 202.279V210H46.3375V206.911H47.3041L49.0817 210H50.5926L48.6817 206.8C49.9816 206.478 50.4704 205.5 50.4704 204.589C50.4704 203.334 49.5705 202.279 47.7373 202.279H45.0709ZM51.824 209.889H57.2235V208.833H53.7016C55.0015 207.645 57.0013 206.145 57.0013 204.178C57.0013 202.723 56.068 201.734 54.4237 201.734C52.9906 201.734 51.8573 202.59 51.8129 204.345H53.035C53.0683 203.434 53.5461 202.812 54.4349 202.812C55.3792 202.812 55.7458 203.39 55.7458 204.234C55.7458 205.823 53.7349 207.289 51.824 208.967V209.889ZM58.3361 205.845C58.3361 208.2 58.9583 209.978 61.2247 209.978C63.4912 209.978 64.1133 208.2 64.1133 205.845C64.1133 203.534 63.4912 201.756 61.2247 201.756C58.9583 201.756 58.3361 203.534 58.3361 205.845ZM62.869 205.845C62.869 207.434 62.7023 208.822 61.2247 208.822C59.7471 208.822 59.5804 207.434 59.5804 205.845C59.5804 204.334 59.7471 202.912 61.2247 202.912C62.7023 202.912 62.869 204.334 62.869 205.845ZM65.4535 205.845C65.4535 208.2 66.0756 209.978 68.3421 209.978C70.6085 209.978 71.2307 208.2 71.2307 205.845C71.2307 203.534 70.6085 201.756 68.3421 201.756C66.0756 201.756 65.4535 203.534 65.4535 205.845ZM69.9863 205.845C69.9863 207.434 69.8197 208.822 68.3421 208.822C66.8644 208.822 66.6978 207.434 66.6978 205.845C66.6978 204.334 66.8644 202.912 68.3421 202.912C69.8197 202.912 69.9863 204.334 69.9863 205.845Z" fill="#9AA3AF"/>
</svg>
