<svg width="112" height="218" viewBox="0 0 112 218" fill="none" xmlns="http://www.w3.org/2000/svg">
<rect y="100" width="112" height="94" fill="#F9FAFA"/>
<path d="M0 4C0 1.79086 1.79086 0 4 0H108C110.209 0 112 1.79086 112 4V100H0V4Z" fill="#3583B6"/>
<path d="M13.9105 109.267V115.022L10.0998 109.267H8.83325V117H10.0998V111.234L13.9105 117H15.1771V109.267H13.9105ZM22.0509 117H23.3841L20.6177 109.267H19.1511L16.3848 117H17.7068L18.2623 115.422H21.4954L22.0509 117ZM21.1398 114.389H18.6179L19.8844 110.801L21.1398 114.389ZM24.5869 117H25.8534V111.712L28.2199 117H29.0975L31.4529 111.712V117H32.7194V109.279H31.364L28.6643 115.333L25.9534 109.279H24.5869V117ZM38.6503 109.267H34.3841V117H38.6503V115.967H35.6506V113.6H38.317V112.567H35.6506V110.301H38.6503V109.267Z" fill="#C2C8CF"/>
<path d="M15.0649 134.467C15.0649 131.028 10.0528 132.521 10.0528 130.122C10.0528 129.122 10.8393 128.602 11.839 128.629C12.9721 128.642 13.5586 129.349 13.6386 129.975H14.9716C14.825 128.562 13.6653 127.589 11.8924 127.589C10.0528 127.589 8.81313 128.629 8.81313 130.162C8.81313 133.614 13.8385 132.015 13.8385 134.521C13.8385 135.4 13.1454 136.067 11.9723 136.067C10.6793 136.067 10.1328 135.294 10.0528 134.521H8.75981C8.78647 136.054 10.1061 137.093 11.9723 137.093C13.9852 137.093 15.0649 135.787 15.0649 134.467ZM17.1166 135C17.1166 136.467 17.8497 137 19.1427 137H20.2358V135.974H19.3427C18.5962 135.974 18.3296 135.72 18.3296 135V130.695H20.2358V129.695H18.3296V127.856H17.1166V129.695H16.1701V130.695H17.1166V135ZM24.8114 130.602C26.0644 130.602 27.1308 131.388 27.1175 132.814H22.5053C22.6386 131.388 23.6251 130.602 24.8114 130.602ZM28.2239 134.747H26.9176C26.651 135.534 25.9578 136.094 24.8647 136.094C23.6251 136.094 22.5853 135.28 22.492 133.801H28.3305C28.3572 133.548 28.3705 133.334 28.3705 133.068C28.3705 131.068 26.9842 129.575 24.8647 129.575C22.7319 129.575 21.2523 131.028 21.2523 133.334C21.2523 135.654 22.7853 137.12 24.8647 137.12C26.6776 137.12 27.8507 136.08 28.2239 134.747ZM33.0776 130.602C34.3306 130.602 35.397 131.388 35.3837 132.814H30.7715C30.9048 131.388 31.8912 130.602 33.0776 130.602ZM36.4901 134.747H35.1837C34.9171 135.534 34.224 136.094 33.1309 136.094C31.8912 136.094 30.8515 135.28 30.7582 133.801H36.5967C36.6234 133.548 36.6367 133.334 36.6367 133.068C36.6367 131.068 35.2504 129.575 33.1309 129.575C30.9981 129.575 29.5185 131.028 29.5185 133.334C29.5185 135.654 31.0514 137.12 33.1309 137.12C34.9438 137.12 36.1168 136.08 36.4901 134.747ZM38.2379 137H39.4509V127.136H38.2379V137ZM50.3508 134.387C50.3508 135.4 49.6309 136 48.4312 136H46.2851V132.721H48.3913C49.5776 132.721 50.3508 133.361 50.3508 134.387ZM50.1108 130.215C50.1108 131.161 49.4577 131.721 48.3246 131.721H46.2851V128.709H48.2979C49.4843 128.709 50.1108 129.295 50.1108 130.215ZM51.5638 134.507C51.5638 133.361 50.7373 132.388 49.7243 132.215C50.6174 131.921 51.3505 131.241 51.3505 130.068C51.3505 128.775 50.3641 127.709 48.4046 127.709H45.0721V137H48.5379C50.4574 137 51.5638 135.907 51.5638 134.507ZM53.2471 137H54.4602V127.136H53.2471V137ZM63.0059 129.695H61.7929V133.707C61.7929 135.28 60.9531 136.054 59.7001 136.054C58.4737 136.054 57.6606 135.294 57.6606 133.814V129.695H56.4609V133.974C56.4609 136.067 57.7806 137.107 59.4602 137.107C60.4332 137.107 61.3264 136.68 61.7929 135.92V137H63.0059V129.695ZM68.16 130.602C69.413 130.602 70.4794 131.388 70.466 132.814H65.8539C65.9872 131.388 66.9736 130.602 68.16 130.602ZM71.5724 134.747H70.2661C69.9995 135.534 69.3063 136.094 68.2133 136.094C66.9736 136.094 65.9338 135.28 65.8405 133.801H71.6791C71.7057 133.548 71.7191 133.334 71.7191 133.068C71.7191 131.068 70.3327 129.575 68.2133 129.575C66.0805 129.575 64.6008 131.028 64.6008 133.334C64.6008 135.654 66.1338 137.12 68.2133 137.12C70.0262 137.12 71.1992 136.08 71.5724 134.747Z" fill="#5D6B7E"/>
<path d="M13.7328 160H14.9993V152.279H13.7328V155.589H10.0998V152.279H8.83325V160H10.0998V156.623H13.7328V160ZM20.9329 152.267H16.6667V160H20.9329V158.967H17.9332V156.6H20.5996V155.567H17.9332V153.301H20.9329V152.267ZM27.0147 160H28.4368L26.037 156.145L28.4479 152.279H27.0369L25.3926 155.1L23.6372 152.279H22.2152L24.626 156.145L22.2263 160H23.6372L25.2704 157.2L27.0147 160Z" fill="#C2C8CF"/>
<path d="M8.7998 172.788H9.98617C10.1061 171.855 10.786 171.216 11.919 171.216C13.0787 171.216 13.6919 171.855 13.6919 172.775C13.6919 173.895 12.8255 174.388 11.2125 174.401H10.8926V175.414H11.1992C12.9321 175.414 13.8785 175.934 13.8785 177.294C13.8785 178.28 13.2654 179.04 11.9723 179.04C10.6927 179.04 9.94618 178.254 9.82621 177.227H8.65317C8.7998 179.094 10.1595 180.067 11.9857 180.067C13.9985 180.067 15.0382 178.894 15.0382 177.401C15.0382 176.014 14.2784 175.188 13.1587 174.921V174.855C14.1718 174.628 14.865 173.762 14.865 172.655C14.865 171.269 13.8385 170.176 11.959 170.176C10.1728 170.176 8.91977 171.136 8.7998 172.788ZM17.0226 170.349V175.788H18.169C18.4889 175.028 19.1954 174.521 20.1685 174.521C21.5682 174.521 22.2747 175.321 22.2747 176.694C22.2747 178.014 21.6215 179 20.1552 179C19.0221 179 18.2357 178.4 18.0091 177.387H16.8227C17.0626 178.947 18.2223 180.027 20.1419 180.027C22.3946 180.027 23.4344 178.534 23.4344 176.668C23.4344 175.175 22.6879 173.482 20.3418 173.482C19.3954 173.482 18.5423 173.908 18.1424 174.455V171.415H22.8212V170.349H17.0226ZM26.8059 174.988C25.7262 175.308 25.0197 176.188 25.0197 177.401C25.0197 179.147 26.3927 180.267 28.4189 180.267C30.4583 180.267 31.8447 179.147 31.8447 177.401C31.8447 176.201 31.1382 175.321 30.0451 174.988C30.9915 174.615 31.5914 173.815 31.5914 172.775C31.5914 171.375 30.5117 170.216 28.4189 170.216C26.326 170.216 25.2596 171.362 25.2596 172.775C25.2596 173.855 25.8195 174.601 26.8059 174.988ZM28.4189 174.588C27.2458 174.588 26.4327 173.935 26.4327 172.935C26.4327 171.802 27.2325 171.229 28.4189 171.229C29.6319 171.229 30.4184 171.815 30.4184 172.922C30.4184 173.922 29.6052 174.588 28.4189 174.588ZM28.4189 175.521C29.6852 175.521 30.645 176.121 30.645 177.361C30.645 178.48 29.7918 179.254 28.4189 179.254C27.0459 179.254 26.1794 178.494 26.1794 177.361C26.1794 176.081 27.1792 175.521 28.4189 175.521ZM33.4291 172.788H34.6154C34.7354 171.855 35.4152 171.216 36.5483 171.216C37.708 171.216 38.3212 171.855 38.3212 172.775C38.3212 173.895 37.4547 174.388 35.8418 174.401H35.5219V175.414H35.8285C37.5614 175.414 38.5078 175.934 38.5078 177.294C38.5078 178.28 37.8946 179.04 36.6016 179.04C35.3219 179.04 34.5754 178.254 34.4555 177.227H33.2824C33.4291 179.094 34.7887 180.067 36.6149 180.067C38.6278 180.067 39.6675 178.894 39.6675 177.401C39.6675 176.014 38.9077 175.188 37.788 174.921V174.855C38.801 174.628 39.4942 173.762 39.4942 172.655C39.4942 171.269 38.4678 170.176 36.5883 170.176C34.802 170.176 33.549 171.136 33.4291 172.788ZM46.7839 177.387C46.7839 178.4 46.0641 179 44.8644 179H42.7183V175.721H44.8244C46.0108 175.721 46.7839 176.361 46.7839 177.387ZM46.544 173.215C46.544 174.161 45.8908 174.721 44.7578 174.721H42.7183V171.709H44.7311C45.9175 171.709 46.544 172.295 46.544 173.215ZM47.997 177.507C47.997 176.361 47.1705 175.388 46.1574 175.215C47.0505 174.921 47.7837 174.241 47.7837 173.068C47.7837 171.775 46.7973 170.709 44.8378 170.709H41.5053V180H44.9711C46.8906 180 47.997 178.907 47.997 177.507ZM55.9721 172.655C55.8121 171.309 54.879 170.162 53.0395 170.162C50.6001 170.162 49.627 172.029 49.627 175.055C49.627 177.974 50.3068 180.027 53.1594 180.027C55.2656 180.027 56.3053 178.587 56.3053 176.827C56.3053 174.801 55.0923 173.615 53.2927 173.615C52.1464 173.615 51.0933 174.148 50.6801 175.095C50.6667 172.229 51.4932 171.176 53.0261 171.176C54.1192 171.176 54.6657 171.722 54.8523 172.655H55.9721ZM53.0395 174.641C54.4258 174.641 55.1323 175.508 55.1323 176.867C55.1323 178.174 54.3458 179.014 53.0928 179.014C51.5732 179.014 50.8267 178.014 50.8267 176.734C50.8267 175.295 51.9331 174.641 53.0395 174.641Z" fill="#5D6B7E"/>
<path d="M0 194H112V214C112 216.209 110.209 218 108 218H4C1.79086 218 0 216.209 0 214V194Z" fill="#EDEFF1"/>
<path d="M13.1884 207.789C13.1884 208.533 12.6662 208.967 11.8107 208.967H10.0998V206.556H11.7663C12.6107 206.556 13.1884 207.023 13.1884 207.789ZM12.9884 204.423C12.9884 205.134 12.4884 205.523 11.6663 205.523H10.0998V203.312H11.6663C12.4884 203.312 12.9884 203.723 12.9884 204.423ZM14.4549 207.922C14.4549 207 13.7883 206.178 12.9662 206.034C13.7105 205.767 14.2771 205.2 14.2771 204.267C14.2771 203.178 13.4106 202.279 11.7774 202.279H8.83325V210H11.9218C13.4995 210 14.4549 209.1 14.4549 207.922ZM15.8201 207.178C15.8201 209.145 17.1978 210.078 18.8198 210.078C20.4308 210.078 21.8529 209.145 21.8529 207.178V202.279H20.5863V207.2C20.5863 208.4 19.9086 208.967 18.8309 208.967C17.7644 208.967 17.0867 208.4 17.0867 207.2V202.279H15.8201V207.178ZM23.5019 210H24.7685V202.279H23.5019V210ZM26.4313 202.279V210H30.3087V208.978H27.6979V202.279H26.4313ZM33.8899 202.279H31.3679V210H33.8899C36.3674 210 37.9894 208.545 37.9894 206.167C37.9894 203.778 36.3674 202.279 33.8899 202.279ZM32.6344 208.967V203.312H33.8899C35.7119 203.312 36.6896 204.401 36.6896 206.167C36.6896 207.922 35.7119 208.967 33.8899 208.967H32.6344ZM43.5109 202.267H39.2447V210H43.5109V208.967H40.5112V206.6H43.1776V205.567H40.5112V203.301H43.5109V202.267ZM49.1705 204.589C49.1705 205.356 48.7261 205.9 47.7373 205.9H46.3375V203.312H47.7373C48.7261 203.312 49.1705 203.812 49.1705 204.589ZM45.0709 202.279V210H46.3375V206.911H47.3041L49.0817 210H50.5926L48.6817 206.8C49.9816 206.478 50.4704 205.5 50.4704 204.589C50.4704 203.334 49.5705 202.279 47.7373 202.279H45.0709ZM52.2573 201.879V206.556H53.4572C53.6683 205.956 54.1682 205.545 54.9126 205.545C55.968 205.545 56.4902 206.145 56.4902 207.2C56.4902 208.2 56.0014 208.945 54.9126 208.945C54.0571 208.945 53.4794 208.5 53.3127 207.811H52.0795C52.2684 209.078 53.235 210 54.9015 210C56.7791 210 57.7012 208.778 57.7012 207.167C57.7012 205.945 57.0901 204.467 55.1015 204.467C54.3793 204.467 53.7238 204.801 53.4238 205.2V202.99H57.1457V201.879H52.2573ZM59.0196 205.845C59.0196 208.2 59.6418 209.978 61.9082 209.978C64.1747 209.978 64.7968 208.2 64.7968 205.845C64.7968 203.534 64.1747 201.756 61.9082 201.756C59.6418 201.756 59.0196 203.534 59.0196 205.845ZM63.5525 205.845C63.5525 207.434 63.3859 208.822 61.9082 208.822C60.4306 208.822 60.264 207.434 60.264 205.845C60.264 204.334 60.4306 202.912 61.9082 202.912C63.3859 202.912 63.5525 204.334 63.5525 205.845ZM66.137 205.845C66.137 208.2 66.7591 209.978 69.0256 209.978C71.292 209.978 71.9142 208.2 71.9142 205.845C71.9142 203.534 71.292 201.756 69.0256 201.756C66.7591 201.756 66.137 203.534 66.137 205.845ZM70.6699 205.845C70.6699 207.434 70.5032 208.822 69.0256 208.822C67.5479 208.822 67.3813 207.434 67.3813 205.845C67.3813 204.334 67.5479 202.912 69.0256 202.912C70.5032 202.912 70.6699 204.334 70.6699 205.845Z" fill="#9AA3AF"/>
</svg>
