<svg width="176" height="218" viewBox="0 0 176 218" fill="none" xmlns="http://www.w3.org/2000/svg">
<rect y="100" width="176" height="94" fill="#F9FAFA"/>
<path d="M0 194H176V214C176 216.209 174.209 218 172 218H4C1.79086 218 0 216.209 0 214V194Z" fill="#EDEFF1"/>
<path d="M0 4C0 1.79086 1.79086 0 4 0H172C174.209 0 176 1.79086 176 4V100H0V4Z" fill="#42A4E4"/>
<path d="M13.9105 109.267V115.022L10.0998 109.267H8.83325V117H10.0998V111.234L13.9105 117H15.1771V109.267H13.9105ZM22.0509 117H23.3841L20.6177 109.267H19.1511L16.3848 117H17.7068L18.2623 115.422H21.4954L22.0509 117ZM21.1398 114.389H18.6179L19.8844 110.801L21.1398 114.389ZM24.5869 117H25.8534V111.712L28.2199 117H29.0975L31.4529 111.712V117H32.7194V109.279H31.364L28.6643 115.333L25.9534 109.279H24.5869V117ZM38.6503 109.267H34.3841V117H38.6503V115.967H35.6506V113.6H38.317V112.567H35.6506V110.301H38.6503V109.267Z" fill="#C2C8CF"/>
<path d="M15.2649 137H16.5445L13.1987 127.762H11.7991L8.43989 137H9.71957L10.4661 134.934H14.5184L15.2649 137ZM14.1718 133.947H10.8126L12.4922 129.255L14.1718 133.947ZM19.2216 131.041V129.695H18.0085V140.466H19.2216V135.654C19.6748 136.4 20.6212 137.12 21.9542 137.12C23.9137 137.12 25.42 135.587 25.42 133.321C25.42 131.041 23.9137 129.575 21.9542 129.575C20.6212 129.575 19.6615 130.268 19.2216 131.041ZM24.1803 133.321C24.1803 135.04 23.0473 136.054 21.7009 136.054C20.3813 136.054 19.2216 135.054 19.2216 133.334C19.2216 131.641 20.3813 130.628 21.7009 130.628C23.0473 130.628 24.1803 131.601 24.1803 133.321ZM28.2297 133.028C28.2297 131.335 29.1095 130.815 30.2692 130.815H30.5891V129.562C29.4294 129.562 28.643 130.068 28.2297 130.882V129.695H27.0167V137H28.2297V133.028ZM31.9894 137H33.2024V129.695H31.9894V137ZM32.6159 128.509C33.0558 128.509 33.4157 128.149 33.4157 127.682C33.4157 127.216 33.0558 126.856 32.6159 126.856C32.1494 126.856 31.7895 127.216 31.7895 127.682C31.7895 128.149 32.1494 128.509 32.6159 128.509ZM35.2698 137H36.4829V127.136H35.2698V137ZM48.1426 134.467C48.1426 131.028 43.1305 132.521 43.1305 130.122C43.1305 129.122 43.917 128.602 44.9167 128.629C46.0498 128.642 46.6363 129.349 46.7163 129.975H48.0493C47.9026 128.562 46.7429 127.589 44.97 127.589C43.1305 127.589 41.8908 128.629 41.8908 130.162C41.8908 133.614 46.9162 132.015 46.9162 134.521C46.9162 135.4 46.223 136.067 45.05 136.067C43.757 136.067 43.2105 135.294 43.1305 134.521H41.8375C41.8641 136.054 43.1838 137.093 45.05 137.093C47.0628 137.093 48.1426 135.787 48.1426 134.467ZM49.9276 137H51.1407V133.774L54.0066 137H55.6595L52.2071 133.334L55.6462 129.695H53.9533L51.1407 132.934V127.136H49.9276V137ZM59.5605 135.614L57.2678 129.695H55.9215L58.8674 136.92L57.4277 140.439H58.6808L63.0797 129.695H61.8266L59.5605 135.614Z" fill="#5D6B7E"/>
<path d="M13.1884 207.789C13.1884 208.533 12.6662 208.967 11.8107 208.967H10.0998V206.556H11.7663C12.6107 206.556 13.1884 207.023 13.1884 207.789ZM12.9884 204.423C12.9884 205.134 12.4884 205.523 11.6663 205.523H10.0998V203.312H11.6663C12.4884 203.312 12.9884 203.723 12.9884 204.423ZM14.4549 207.922C14.4549 207 13.7883 206.178 12.9662 206.034C13.7105 205.767 14.2771 205.2 14.2771 204.267C14.2771 203.178 13.4106 202.279 11.7774 202.279H8.83325V210H11.9218C13.4995 210 14.4549 209.1 14.4549 207.922ZM15.8201 207.178C15.8201 209.145 17.1978 210.078 18.8198 210.078C20.4308 210.078 21.8529 209.145 21.8529 207.178V202.279H20.5863V207.2C20.5863 208.4 19.9086 208.967 18.8309 208.967C17.7644 208.967 17.0867 208.4 17.0867 207.2V202.279H15.8201V207.178ZM23.5019 210H24.7685V202.279H23.5019V210ZM26.4313 202.279V210H30.3087V208.978H27.6979V202.279H26.4313ZM33.8899 202.279H31.3679V210H33.8899C36.3674 210 37.9894 208.545 37.9894 206.167C37.9894 203.778 36.3674 202.279 33.8899 202.279ZM32.6344 208.967V203.312H33.8899C35.7119 203.312 36.6896 204.401 36.6896 206.167C36.6896 207.922 35.7119 208.967 33.8899 208.967H32.6344ZM43.5109 202.267H39.2447V210H43.5109V208.967H40.5112V206.6H43.1776V205.567H40.5112V203.301H43.5109V202.267ZM49.1705 204.589C49.1705 205.356 48.7261 205.9 47.7373 205.9H46.3375V203.312H47.7373C48.7261 203.312 49.1705 203.812 49.1705 204.589ZM45.0709 202.279V210H46.3375V206.911H47.3041L49.0817 210H50.5926L48.6817 206.8C49.9816 206.478 50.4704 205.5 50.4704 204.589C50.4704 203.334 49.5705 202.279 47.7373 202.279H45.0709ZM55.7903 210H57.0346V208.311H58.0678V207.211H57.0346V202.001H55.5014L51.7685 207.356V208.311H55.7903V210ZM53.2239 207.211L55.8458 203.29V207.211H53.2239ZM59.1173 205.845C59.1173 208.2 59.7394 209.978 62.0059 209.978C64.2723 209.978 64.8945 208.2 64.8945 205.845C64.8945 203.534 64.2723 201.756 62.0059 201.756C59.7394 201.756 59.1173 203.534 59.1173 205.845ZM63.6502 205.845C63.6502 207.434 63.4835 208.822 62.0059 208.822C60.5283 208.822 60.3616 207.434 60.3616 205.845C60.3616 204.334 60.5283 202.912 62.0059 202.912C63.4835 202.912 63.6502 204.334 63.6502 205.845ZM66.2346 205.845C66.2346 208.2 66.8568 209.978 69.1232 209.978C71.3897 209.978 72.0118 208.2 72.0118 205.845C72.0118 203.534 71.3897 201.756 69.1232 201.756C66.8568 201.756 66.2346 203.534 66.2346 205.845ZM70.7675 205.845C70.7675 207.434 70.6009 208.822 69.1232 208.822C67.6456 208.822 67.4789 207.434 67.4789 205.845C67.4789 204.334 67.6456 202.912 69.1232 202.912C70.6009 202.912 70.7675 204.334 70.7675 205.845Z" fill="#9AA3AF"/>
<path d="M117.733 160H118.999V152.279H117.733V155.589H114.1V152.279H112.833V160H114.1V156.623H117.733V160ZM124.933 152.267H120.667V160H124.933V158.967H121.933V156.6H124.6V155.567H121.933V153.301H124.933V152.267ZM131.015 160H132.437L130.037 156.145L132.448 152.279H131.037L129.393 155.1L127.637 152.279H126.215L128.626 156.145L126.226 160H127.637L129.27 157.2L131.015 160Z" fill="#C2C8CF"/>
<path d="M117.465 180H118.665V177.854H119.998V176.801H118.665V170.456H117.212L112.533 176.934V177.854H117.465V180ZM113.933 176.801L117.519 171.722V176.801H113.933ZM121.063 179.893H127.475V178.88H122.889C124.609 177.481 127.195 175.441 127.195 173.042C127.195 171.256 126.022 170.189 124.209 170.189C122.476 170.189 121.183 171.256 121.103 173.308H122.276C122.33 172.095 122.969 171.229 124.222 171.229C125.529 171.229 125.995 172.029 125.995 173.095C125.995 175.068 123.596 176.987 121.063 179.027V179.893ZM135.316 180H136.595L133.249 170.762H131.85L128.491 180H129.77L130.517 177.934H134.569L135.316 180ZM134.222 176.947H130.863L132.543 172.255L134.222 176.947ZM142.498 180H143.698V177.854H145.031V176.801H143.698V170.456H142.245L137.566 176.934V177.854H142.498V180ZM138.966 176.801L142.551 171.722V176.801H138.966ZM151.441 170.696H146.443V180H151.441V179H147.656V175.801H151.041V174.801H147.656V171.695H151.441V170.696ZM157.716 180H158.915V177.854H160.248V176.801H158.915V170.456H157.462L152.784 176.934V177.854H157.716V180ZM154.183 176.801L157.769 171.722V176.801H154.183Z" fill="#5D6B7E"/>
<path d="M12.9328 154.589C12.9328 155.356 12.4884 155.9 11.4997 155.9H10.0998V153.312H11.4997C12.4884 153.312 12.9328 153.812 12.9328 154.589ZM8.83325 152.279V160H10.0998V156.911H11.0664L12.844 160H14.3549L12.444 156.8C13.7439 156.478 14.2327 155.5 14.2327 154.589C14.2327 153.334 13.3328 152.279 11.4997 152.279H8.83325ZM19.3748 152.179C17.1973 152.179 15.4308 153.812 15.4308 156.123C15.4308 158.445 17.1973 160.067 19.3748 160.067C21.4524 160.067 22.9633 158.545 23.1967 156.756V155.767H18.9415V156.778H21.8412C21.6524 158.078 20.7747 158.922 19.3748 158.922C17.8416 158.922 16.7306 157.822 16.7306 156.123C16.7306 154.423 17.8416 153.334 19.3748 153.334C20.2969 153.334 21.0302 153.723 21.4413 154.501H22.9633C22.3745 152.99 20.9858 152.179 19.3748 152.179ZM28.801 157.789C28.801 158.533 28.2788 158.967 27.4233 158.967H25.7124V156.556H27.3789C28.2232 156.556 28.801 157.023 28.801 157.789ZM28.601 154.423C28.601 155.134 28.101 155.523 27.2789 155.523H25.7124V153.312H27.2789C28.101 153.312 28.601 153.723 28.601 154.423ZM30.0675 157.922C30.0675 157 29.4009 156.178 28.5788 156.034C29.3231 155.767 29.8897 155.2 29.8897 154.267C29.8897 153.178 29.0232 152.279 27.39 152.279H24.4458V160H27.5344C29.112 160 30.0675 159.1 30.0675 157.922Z" fill="#C2C8CF"/>
<path d="M15.3182 172.655C15.1582 171.309 14.2251 170.162 12.3856 170.162C9.94618 170.162 8.97309 172.029 8.97309 175.055C8.97309 177.974 9.65292 180.027 12.5055 180.027C14.6117 180.027 15.6514 178.587 15.6514 176.827C15.6514 174.801 14.4384 173.615 12.6388 173.615C11.4925 173.615 10.4394 174.148 10.0262 175.095C10.0128 172.229 10.8393 171.176 12.3722 171.176C13.4653 171.176 14.0118 171.722 14.1985 172.655H15.3182ZM12.3856 174.641C13.7719 174.641 14.4784 175.508 14.4784 176.867C14.4784 178.174 13.6919 179.014 12.4389 179.014C10.9193 179.014 10.1728 178.014 10.1728 176.734C10.1728 175.295 11.2792 174.641 12.3856 174.641ZM23.7796 172.655C23.6196 171.309 22.6865 170.162 20.847 170.162C18.4076 170.162 17.4345 172.029 17.4345 175.055C17.4345 177.974 18.1143 180.027 20.967 180.027C23.0731 180.027 24.1128 178.587 24.1128 176.827C24.1128 174.801 22.8998 173.615 21.1003 173.615C19.9539 173.615 18.9008 174.148 18.4876 175.095C18.4743 172.229 19.3007 171.176 20.8337 171.176C21.9267 171.176 22.4733 171.722 22.6599 172.655H23.7796ZM20.847 174.641C22.2333 174.641 22.9398 175.508 22.9398 176.867C22.9398 178.174 22.1533 179.014 20.9003 179.014C19.3807 179.014 18.6342 178.014 18.6342 176.734C18.6342 175.295 19.7406 174.641 20.847 174.641ZM24.8962 181.906H25.7093L27.2023 178.32H25.8693L24.8962 181.906ZM32.9054 180H34.1318V170.362H31.6258V171.469H32.9054V180ZM42.7072 172.655C42.5472 171.309 41.6141 170.162 39.7746 170.162C37.3352 170.162 36.3621 172.029 36.3621 175.055C36.3621 177.974 37.0419 180.027 39.8945 180.027C42.0007 180.027 43.0404 178.587 43.0404 176.827C43.0404 174.801 41.8274 173.615 40.0278 173.615C38.8814 173.615 37.8284 174.148 37.4151 175.095C37.4018 172.229 38.2283 171.176 39.7612 171.176C40.8543 171.176 41.4008 171.722 41.5874 172.655H42.7072ZM39.7746 174.641C41.1609 174.641 41.8674 175.508 41.8674 176.867C41.8674 178.174 41.0809 179.014 39.8279 179.014C38.3083 179.014 37.5618 178.014 37.5618 176.734C37.5618 175.295 38.6682 174.641 39.7746 174.641ZM49.3157 180H50.5154V177.854H51.8484V176.801H50.5154V170.456H49.0624L44.3836 176.934V177.854H49.3157V180ZM45.7833 176.801L49.369 171.722V176.801H45.7833ZM52.2071 181.906H53.0202L54.5132 178.32H53.1802L52.2071 181.906ZM59.1099 179.893H65.5217V178.88H60.9361C62.6557 177.481 65.2417 175.441 65.2417 173.042C65.2417 171.256 64.0687 170.189 62.2558 170.189C60.5229 170.189 59.2299 171.256 59.1499 173.308H60.323C60.3763 172.095 61.0161 171.229 62.2691 171.229C63.5755 171.229 64.042 172.029 64.042 173.095C64.042 175.068 61.6426 176.987 59.1099 179.027V179.893ZM66.7773 179.893H73.189V178.88H68.6035C70.3231 177.481 72.9091 175.441 72.9091 173.042C72.9091 171.256 71.736 170.189 69.9232 170.189C68.1903 170.189 66.8973 171.256 66.8173 173.308H67.9903C68.0436 172.095 68.6835 171.229 69.9365 171.229C71.2428 171.229 71.7094 172.029 71.7094 173.095C71.7094 175.068 69.31 176.987 66.7773 179.027V179.893ZM76.3508 174.988C75.2711 175.308 74.5646 176.188 74.5646 177.401C74.5646 179.147 75.9376 180.267 77.9638 180.267C80.0032 180.267 81.3896 179.147 81.3896 177.401C81.3896 176.201 80.6831 175.321 79.59 174.988C80.5364 174.615 81.1363 173.815 81.1363 172.775C81.1363 171.375 80.0566 170.216 77.9638 170.216C75.8709 170.216 74.8045 171.362 74.8045 172.775C74.8045 173.855 75.3644 174.601 76.3508 174.988ZM77.9638 174.588C76.7907 174.588 75.9776 173.935 75.9776 172.935C75.9776 171.802 76.7774 171.229 77.9638 171.229C79.1768 171.229 79.9633 171.815 79.9633 172.922C79.9633 173.922 79.1501 174.588 77.9638 174.588ZM77.9638 175.521C79.2301 175.521 80.1899 176.121 80.1899 177.361C80.1899 178.48 79.3367 179.254 77.9638 179.254C76.5908 179.254 75.7243 178.494 75.7243 177.361C75.7243 176.081 76.7241 175.521 77.9638 175.521Z" fill="#5D6B7E"/>
</svg>
