<svg width="112" height="218" viewBox="0 0 112 218" fill="none" xmlns="http://www.w3.org/2000/svg">
<rect y="100" width="112" height="94" fill="#F9FAFA"/>
<path d="M0 4C0 1.79086 1.79086 0 4 0H108C110.209 0 112 1.79086 112 4V100H0V4Z" fill="#B3DBF4"/>
<path d="M13.9105 109.267V115.022L10.0998 109.267H8.83325V117H10.0998V111.234L13.9105 117H15.1771V109.267H13.9105ZM22.0509 117H23.3841L20.6177 109.267H19.1511L16.3848 117H17.7068L18.2623 115.422H21.4954L22.0509 117ZM21.1398 114.389H18.6179L19.8844 110.801L21.1398 114.389ZM24.5869 117H25.8534V111.712L28.2199 117H29.0975L31.4529 111.712V117H32.7194V109.279H31.364L28.6643 115.333L25.9534 109.279H24.5869V117ZM38.6503 109.267H34.3841V117H38.6503V115.967H35.6506V113.6H38.317V112.567H35.6506V110.301H38.6503V109.267Z" fill="#C2C8CF"/>
<path d="M10.2394 132.121V128.709H12.0257C13.412 128.709 13.9985 129.349 13.9985 130.428C13.9985 131.468 13.412 132.121 12.0257 132.121H10.2394ZM15.2382 130.428C15.2382 128.909 14.2118 127.709 12.0257 127.709H9.02641V137H10.2394V133.121H12.0257C14.3318 133.121 15.2382 131.841 15.2382 130.428ZM23.6774 133.334C23.6774 131.028 22.0645 129.575 19.985 129.575C17.9189 129.575 16.2926 131.028 16.2926 133.334C16.2926 135.654 17.8656 137.12 19.9317 137.12C22.0112 137.12 23.6774 135.654 23.6774 133.334ZM17.5323 133.334C17.5323 131.495 18.692 130.628 19.9717 130.628C21.2247 130.628 22.4377 131.495 22.4377 133.334C22.4377 135.187 21.1981 136.054 19.9317 136.054C18.6654 136.054 17.5323 135.187 17.5323 133.334ZM26.6987 137H27.9517L29.7112 131.201L31.4708 137H32.7238L35.0032 129.695H33.8035L32.1506 135.84L30.3777 129.695H29.138L27.3252 135.827L25.6456 129.695H24.4059L26.6987 137ZM35.7539 133.321C35.7539 135.587 37.2602 137.12 39.2197 137.12C40.5527 137.12 41.4991 136.44 41.939 135.627V137H43.1654V127.136H41.939V131.001C41.4325 130.162 40.3794 129.575 39.233 129.575C37.2602 129.575 35.7539 131.041 35.7539 133.321ZM41.939 133.334C41.939 135.054 40.7926 136.054 39.4596 136.054C38.1266 136.054 36.9936 135.04 36.9936 133.321C36.9936 131.601 38.1266 130.628 39.4596 130.628C40.7926 130.628 41.939 131.641 41.939 133.334ZM48.3212 130.602C49.5742 130.602 50.6406 131.388 50.6273 132.814H46.0151C46.1484 131.388 47.1348 130.602 48.3212 130.602ZM51.7337 134.747H50.4273C50.1607 135.534 49.4675 136.094 48.3745 136.094C47.1348 136.094 46.0951 135.28 46.0017 133.801H51.8403C51.8669 133.548 51.8803 133.334 51.8803 133.068C51.8803 131.068 50.494 129.575 48.3745 129.575C46.2417 129.575 44.7621 131.028 44.7621 133.334C44.7621 135.654 46.295 137.12 48.3745 137.12C50.1874 137.12 51.3604 136.08 51.7337 134.747ZM54.6945 133.028C54.6945 131.335 55.5742 130.815 56.734 130.815H57.0539V129.562C55.8942 129.562 55.1077 130.068 54.6945 130.882V129.695H53.4814V137H54.6945V133.028ZM67.2866 134.387C67.2866 135.4 66.5668 136 65.3671 136H63.221V132.721H65.3271C66.5135 132.721 67.2866 133.361 67.2866 134.387ZM67.0467 130.215C67.0467 131.161 66.3935 131.721 65.2605 131.721H63.221V128.709H65.2338C66.4202 128.709 67.0467 129.295 67.0467 130.215ZM68.4997 134.507C68.4997 133.361 67.6732 132.388 66.6601 132.215C67.5532 131.921 68.2864 131.241 68.2864 130.068C68.2864 128.775 67.3 127.709 65.3405 127.709H62.008V137H65.4738C67.3933 137 68.4997 135.907 68.4997 134.507ZM70.183 137H71.396V127.136H70.183V137ZM79.9418 129.695H78.7288V133.707C78.7288 135.28 77.889 136.054 76.636 136.054C75.4096 136.054 74.5965 135.294 74.5965 133.814V129.695H73.3968V133.974C73.3968 136.067 74.7164 137.107 76.396 137.107C77.3691 137.107 78.2622 136.68 78.7288 135.92V137H79.9418V129.695ZM85.0958 130.602C86.3488 130.602 87.4152 131.388 87.4019 132.814H82.7897C82.923 131.388 83.9095 130.602 85.0958 130.602ZM88.5083 134.747H87.202C86.9354 135.534 86.2422 136.094 85.1491 136.094C83.9095 136.094 82.8697 135.28 82.7764 133.801H88.6149C88.6416 133.548 88.6549 133.334 88.6549 133.068C88.6549 131.068 87.2686 129.575 85.1491 129.575C83.0163 129.575 81.5367 131.028 81.5367 133.334C81.5367 135.654 83.0697 137.12 85.1491 137.12C86.962 137.12 88.1351 136.08 88.5083 134.747Z" fill="#5D6B7E"/>
<path d="M13.7328 160H14.9993V152.279H13.7328V155.589H10.0998V152.279H8.83325V160H10.0998V156.623H13.7328V160ZM20.9329 152.267H16.6667V160H20.9329V158.967H17.9332V156.6H20.5996V155.567H17.9332V153.301H20.9329V152.267ZM27.0147 160H28.4368L26.037 156.145L28.4479 152.279H27.0369L25.3926 155.1L23.6372 152.279H22.2152L24.626 156.145L22.2263 160H23.6372L25.2704 157.2L27.0147 160Z" fill="#C2C8CF"/>
<path d="M14.3051 177.387C14.3051 178.4 13.5853 179 12.3856 179H10.2394V175.721H12.3456C13.532 175.721 14.3051 176.361 14.3051 177.387ZM14.0652 173.215C14.0652 174.161 13.412 174.721 12.2789 174.721H10.2394V171.709H12.2523C13.4386 171.709 14.0652 172.295 14.0652 173.215ZM15.5181 177.507C15.5181 176.361 14.6917 175.388 13.6786 175.215C14.5717 174.921 15.3048 174.241 15.3048 173.068C15.3048 171.775 14.3184 170.709 12.3589 170.709H9.02641V180H12.4922C14.4117 180 15.5181 178.907 15.5181 177.507ZM16.9748 172.788H18.1612C18.2812 171.855 18.961 171.216 20.0941 171.216C21.2538 171.216 21.8669 171.855 21.8669 172.775C21.8669 173.895 21.0005 174.388 19.3876 174.401H19.0676V175.414H19.3742C21.1071 175.414 22.0536 175.934 22.0536 177.294C22.0536 178.28 21.4404 179.04 20.1474 179.04C18.8677 179.04 18.1212 178.254 18.0012 177.227H16.8282C16.9748 179.094 18.3345 180.067 20.1607 180.067C22.1735 180.067 23.2133 178.894 23.2133 177.401C23.2133 176.014 22.4535 175.188 21.3337 174.921V174.855C22.3468 174.628 23.04 173.762 23.04 172.655C23.04 171.269 22.0136 170.176 20.134 170.176C18.3478 170.176 17.0948 171.136 16.9748 172.788ZM27.9437 170.709H25.051V180H27.9437C30.9962 180 32.8758 178.254 32.8758 175.374C32.8758 172.495 30.9962 170.709 27.9437 170.709ZM26.2641 179V171.695H27.9437C30.3697 171.695 31.6361 173.108 31.6361 175.374C31.6361 177.641 30.3697 179 27.9437 179H26.2641ZM39.7545 177.387C39.7545 178.4 39.0346 179 37.8349 179H35.6888V175.721H37.7949C38.9813 175.721 39.7545 176.361 39.7545 177.387ZM39.5145 173.215C39.5145 174.161 38.8613 174.721 37.7283 174.721H35.6888V171.709H37.7016C38.888 171.709 39.5145 172.295 39.5145 173.215ZM40.9675 177.507C40.9675 176.361 40.141 175.388 39.1279 175.215C40.0211 174.921 40.7542 174.241 40.7542 173.068C40.7542 171.775 39.7678 170.709 37.8083 170.709H34.4758V180H37.9416C39.8611 180 40.9675 178.907 40.9675 177.507ZM42.6508 180H43.8638V175.814H47.143V174.828H43.8638V171.695H47.9028V170.709H42.6508V180ZM53.8068 180H55.0065V177.854H56.3395V176.801H55.0065V170.456H53.5535L48.8747 176.934V177.854H53.8068V180ZM50.2743 176.801L53.8601 171.722V176.801H50.2743Z" fill="#5D6B7E"/>
<path d="M0 194H112V214C112 216.209 110.209 218 108 218H4C1.79086 218 0 216.209 0 214V194Z" fill="#EDEFF1"/>
<path d="M13.1884 207.789C13.1884 208.533 12.6662 208.967 11.8107 208.967H10.0998V206.556H11.7663C12.6107 206.556 13.1884 207.023 13.1884 207.789ZM12.9884 204.423C12.9884 205.134 12.4884 205.523 11.6663 205.523H10.0998V203.312H11.6663C12.4884 203.312 12.9884 203.723 12.9884 204.423ZM14.4549 207.922C14.4549 207 13.7883 206.178 12.9662 206.034C13.7105 205.767 14.2771 205.2 14.2771 204.267C14.2771 203.178 13.4106 202.279 11.7774 202.279H8.83325V210H11.9218C13.4995 210 14.4549 209.1 14.4549 207.922ZM15.8201 207.178C15.8201 209.145 17.1978 210.078 18.8198 210.078C20.4308 210.078 21.8529 209.145 21.8529 207.178V202.279H20.5863V207.2C20.5863 208.4 19.9086 208.967 18.8309 208.967C17.7644 208.967 17.0867 208.4 17.0867 207.2V202.279H15.8201V207.178ZM23.5019 210H24.7685V202.279H23.5019V210ZM26.4313 202.279V210H30.3087V208.978H27.6979V202.279H26.4313ZM33.8899 202.279H31.3679V210H33.8899C36.3674 210 37.9894 208.545 37.9894 206.167C37.9894 203.778 36.3674 202.279 33.8899 202.279ZM32.6344 208.967V203.312H33.8899C35.7119 203.312 36.6896 204.401 36.6896 206.167C36.6896 207.922 35.7119 208.967 33.8899 208.967H32.6344ZM43.5109 202.267H39.2447V210H43.5109V208.967H40.5112V206.6H43.1776V205.567H40.5112V203.301H43.5109V202.267ZM49.1705 204.589C49.1705 205.356 48.7261 205.9 47.7373 205.9H46.3375V203.312H47.7373C48.7261 203.312 49.1705 203.812 49.1705 204.589ZM45.0709 202.279V210H46.3375V206.911H47.3041L49.0817 210H50.5926L48.6817 206.8C49.9816 206.478 50.4704 205.5 50.4704 204.589C50.4704 203.334 49.5705 202.279 47.7373 202.279H45.0709ZM52.7906 210H54.0682V201.901H51.7573V203.056H52.7906V210ZM55.8082 205.845C55.8082 208.2 56.4303 209.978 58.6968 209.978C60.9632 209.978 61.5854 208.2 61.5854 205.845C61.5854 203.534 60.9632 201.756 58.6968 201.756C56.4303 201.756 55.8082 203.534 55.8082 205.845ZM60.341 205.845C60.341 207.434 60.1744 208.822 58.6968 208.822C57.2191 208.822 57.0525 207.434 57.0525 205.845C57.0525 204.334 57.2191 202.912 58.6968 202.912C60.1744 202.912 60.341 204.334 60.341 205.845ZM62.9255 205.845C62.9255 208.2 63.5477 209.978 65.8141 209.978C68.0805 209.978 68.7027 208.2 68.7027 205.845C68.7027 203.534 68.0805 201.756 65.8141 201.756C63.5477 201.756 62.9255 203.534 62.9255 205.845ZM67.4584 205.845C67.4584 207.434 67.2917 208.822 65.8141 208.822C64.3365 208.822 64.1698 207.434 64.1698 205.845C64.1698 204.334 64.3365 202.912 65.8141 202.912C67.2917 202.912 67.4584 204.334 67.4584 205.845Z" fill="#9AA3AF"/>
</svg>
