<svg width="112" height="218" viewBox="0 0 112 218" fill="none" xmlns="http://www.w3.org/2000/svg">
<rect y="100" width="112" height="94" fill="#F9FAFA"/>
<path d="M0 4C0 1.79086 1.79086 0 4 0H108C110.209 0 112 1.79086 112 4V100H0V4Z" fill="#42A4E4"/>
<path d="M13.9105 109.267V115.022L10.0998 109.267H8.83325V117H10.0998V111.234L13.9105 117H15.1771V109.267H13.9105ZM22.0509 117H23.3841L20.6177 109.267H19.1511L16.3848 117H17.7068L18.2623 115.422H21.4954L22.0509 117ZM21.1398 114.389H18.6179L19.8844 110.801L21.1398 114.389ZM24.5869 117H25.8534V111.712L28.2199 117H29.0975L31.4529 111.712V117H32.7194V109.279H31.364L28.6643 115.333L25.9534 109.279H24.5869V117ZM38.6503 109.267H34.3841V117H38.6503V115.967H35.6506V113.6H38.317V112.567H35.6506V110.301H38.6503V109.267Z" fill="#C2C8CF"/>
<path d="M15.2649 137H16.5445L13.1987 127.762H11.7991L8.43989 137H9.71957L10.4661 134.934H14.5184L15.2649 137ZM14.1718 133.947H10.8126L12.4922 129.255L14.1718 133.947ZM19.2216 131.041V129.695H18.0085V140.466H19.2216V135.654C19.6748 136.4 20.6212 137.12 21.9542 137.12C23.9137 137.12 25.42 135.587 25.42 133.321C25.42 131.041 23.9137 129.575 21.9542 129.575C20.6212 129.575 19.6615 130.268 19.2216 131.041ZM24.1803 133.321C24.1803 135.04 23.0473 136.054 21.7009 136.054C20.3813 136.054 19.2216 135.054 19.2216 133.334C19.2216 131.641 20.3813 130.628 21.7009 130.628C23.0473 130.628 24.1803 131.601 24.1803 133.321ZM28.2297 133.028C28.2297 131.335 29.1095 130.815 30.2692 130.815H30.5891V129.562C29.4294 129.562 28.643 130.068 28.2297 130.882V129.695H27.0167V137H28.2297V133.028ZM31.9894 137H33.2024V129.695H31.9894V137ZM32.6159 128.509C33.0558 128.509 33.4157 128.149 33.4157 127.682C33.4157 127.216 33.0558 126.856 32.6159 126.856C32.1494 126.856 31.7895 127.216 31.7895 127.682C31.7895 128.149 32.1494 128.509 32.6159 128.509ZM35.2698 137H36.4829V127.136H35.2698V137ZM48.1426 134.467C48.1426 131.028 43.1305 132.521 43.1305 130.122C43.1305 129.122 43.917 128.602 44.9167 128.629C46.0498 128.642 46.6363 129.349 46.7163 129.975H48.0493C47.9026 128.562 46.7429 127.589 44.97 127.589C43.1305 127.589 41.8908 128.629 41.8908 130.162C41.8908 133.614 46.9162 132.015 46.9162 134.521C46.9162 135.4 46.223 136.067 45.05 136.067C43.757 136.067 43.2105 135.294 43.1305 134.521H41.8375C41.8641 136.054 43.1838 137.093 45.05 137.093C47.0628 137.093 48.1426 135.787 48.1426 134.467ZM49.9276 137H51.1407V133.774L54.0066 137H55.6595L52.2071 133.334L55.6462 129.695H53.9533L51.1407 132.934V127.136H49.9276V137ZM59.5605 135.614L57.2678 129.695H55.9215L58.8674 136.92L57.4277 140.439H58.6808L63.0797 129.695H61.8266L59.5605 135.614Z" fill="#5D6B7E"/>
<path d="M13.7328 160H14.9993V152.279H13.7328V155.589H10.0998V152.279H8.83325V160H10.0998V156.623H13.7328V160ZM20.9329 152.267H16.6667V160H20.9329V158.967H17.9332V156.6H20.5996V155.567H17.9332V153.301H20.9329V152.267ZM27.0147 160H28.4368L26.037 156.145L28.4479 152.279H27.0369L25.3926 155.1L23.6372 152.279H22.2152L24.626 156.145L22.2263 160H23.6372L25.2704 157.2L27.0147 160Z" fill="#C2C8CF"/>
<path d="M13.4653 180H14.665V177.854H15.998V176.801H14.665V170.456H13.212L8.5332 176.934V177.854H13.4653V180ZM9.93285 176.801L13.5186 171.722V176.801H9.93285ZM17.0631 179.893H23.4749V178.88H18.8894C20.6089 177.481 23.195 175.441 23.195 173.042C23.195 171.256 22.0219 170.189 20.209 170.189C18.4761 170.189 17.1831 171.256 17.1031 173.308H18.2762C18.3295 172.095 18.9693 171.229 20.2224 171.229C21.5287 171.229 21.9953 172.029 21.9953 173.095C21.9953 175.068 19.5958 176.987 17.0631 179.027V179.893ZM31.3155 180H32.5952L29.2494 170.762H27.8497L24.4906 180H25.7702L26.5167 177.934H30.569L31.3155 180ZM30.2225 176.947H26.8633L28.5429 172.255L30.2225 176.947ZM38.4981 180H39.6978V177.854H41.0308V176.801H39.6978V170.456H38.2448L33.566 176.934V177.854H38.4981V180ZM34.9657 176.801L38.5514 171.722V176.801H34.9657ZM47.4413 170.696H42.4425V180H47.4413V179H43.6556V175.801H47.0414V174.801H43.6556V171.695H47.4413V170.696ZM53.7157 180H54.9154V177.854H56.2484V176.801H54.9154V170.456H53.4624L48.7836 176.934V177.854H53.7157V180ZM50.1832 176.801L53.769 171.722V176.801H50.1832Z" fill="#5D6B7E"/>
<path d="M0 194H112V214C112 216.209 110.209 218 108 218H4C1.79086 218 0 216.209 0 214V194Z" fill="#EDEFF1"/>
<path d="M13.1884 207.789C13.1884 208.533 12.6662 208.967 11.8107 208.967H10.0998V206.556H11.7663C12.6107 206.556 13.1884 207.023 13.1884 207.789ZM12.9884 204.423C12.9884 205.134 12.4884 205.523 11.6663 205.523H10.0998V203.312H11.6663C12.4884 203.312 12.9884 203.723 12.9884 204.423ZM14.4549 207.922C14.4549 207 13.7883 206.178 12.9662 206.034C13.7105 205.767 14.2771 205.2 14.2771 204.267C14.2771 203.178 13.4106 202.279 11.7774 202.279H8.83325V210H11.9218C13.4995 210 14.4549 209.1 14.4549 207.922ZM15.8201 207.178C15.8201 209.145 17.1978 210.078 18.8198 210.078C20.4308 210.078 21.8529 209.145 21.8529 207.178V202.279H20.5863V207.2C20.5863 208.4 19.9086 208.967 18.8309 208.967C17.7644 208.967 17.0867 208.4 17.0867 207.2V202.279H15.8201V207.178ZM23.5019 210H24.7685V202.279H23.5019V210ZM26.4313 202.279V210H30.3087V208.978H27.6979V202.279H26.4313ZM33.8899 202.279H31.3679V210H33.8899C36.3674 210 37.9894 208.545 37.9894 206.167C37.9894 203.778 36.3674 202.279 33.8899 202.279ZM32.6344 208.967V203.312H33.8899C35.7119 203.312 36.6896 204.401 36.6896 206.167C36.6896 207.922 35.7119 208.967 33.8899 208.967H32.6344ZM43.5109 202.267H39.2447V210H43.5109V208.967H40.5112V206.6H43.1776V205.567H40.5112V203.301H43.5109V202.267ZM49.1705 204.589C49.1705 205.356 48.7261 205.9 47.7373 205.9H46.3375V203.312H47.7373C48.7261 203.312 49.1705 203.812 49.1705 204.589ZM45.0709 202.279V210H46.3375V206.911H47.3041L49.0817 210H50.5926L48.6817 206.8C49.9816 206.478 50.4704 205.5 50.4704 204.589C50.4704 203.334 49.5705 202.279 47.7373 202.279H45.0709ZM55.7903 210H57.0346V208.311H58.0678V207.211H57.0346V202.001H55.5014L51.7685 207.356V208.311H55.7903V210ZM53.2239 207.211L55.8458 203.29V207.211H53.2239ZM59.1173 205.845C59.1173 208.2 59.7394 209.978 62.0059 209.978C64.2723 209.978 64.8945 208.2 64.8945 205.845C64.8945 203.534 64.2723 201.756 62.0059 201.756C59.7394 201.756 59.1173 203.534 59.1173 205.845ZM63.6502 205.845C63.6502 207.434 63.4835 208.822 62.0059 208.822C60.5283 208.822 60.3616 207.434 60.3616 205.845C60.3616 204.334 60.5283 202.912 62.0059 202.912C63.4835 202.912 63.6502 204.334 63.6502 205.845ZM66.2346 205.845C66.2346 208.2 66.8568 209.978 69.1232 209.978C71.3897 209.978 72.0118 208.2 72.0118 205.845C72.0118 203.534 71.3897 201.756 69.1232 201.756C66.8568 201.756 66.2346 203.534 66.2346 205.845ZM70.7675 205.845C70.7675 207.434 70.6009 208.822 69.1232 208.822C67.6456 208.822 67.4789 207.434 67.4789 205.845C67.4789 204.334 67.6456 202.912 69.1232 202.912C70.6009 202.912 70.7675 204.334 70.7675 205.845Z" fill="#9AA3AF"/>
</svg>
