<svg width="176" height="218" viewBox="0 0 176 218" fill="none" xmlns="http://www.w3.org/2000/svg">
<rect y="100" width="176" height="94" fill="#F9FAFA"/>
<path d="M0 194H176V214C176 216.209 174.209 218 172 218H4C1.79086 218 0 216.209 0 214V194Z" fill="#EDEFF1"/>
<path d="M0 4C0 1.79086 1.79086 0 4 0H172C174.209 0 176 1.79086 176 4V100H0V4Z" fill="#A2C66C"/>
<path d="M13.9105 109.267V115.022L10.0998 109.267H8.83325V117H10.0998V111.234L13.9105 117H15.1771V109.267H13.9105ZM22.0509 117H23.3841L20.6177 109.267H19.1511L16.3848 117H17.7068L18.2623 115.422H21.4954L22.0509 117ZM21.1398 114.389H18.6179L19.8844 110.801L21.1398 114.389ZM24.5869 117H25.8534V111.712L28.2199 117H29.0975L31.4529 111.712V117H32.7194V109.279H31.364L28.6643 115.333L25.9534 109.279H24.5869V117ZM38.6503 109.267H34.3841V117H38.6503V115.967H35.6506V113.6H38.317V112.567H35.6506V110.301H38.6503V109.267Z" fill="#C2C8CF"/>
<path d="M14.3051 134.387C14.3051 135.4 13.5853 136 12.3856 136H10.2394V132.721H12.3456C13.532 132.721 14.3051 133.361 14.3051 134.387ZM14.0652 130.215C14.0652 131.161 13.412 131.721 12.2789 131.721H10.2394V128.709H12.2523C13.4386 128.709 14.0652 129.295 14.0652 130.215ZM15.5181 134.507C15.5181 133.361 14.6917 132.388 13.6786 132.215C14.5717 131.921 15.3048 131.241 15.3048 130.068C15.3048 128.775 14.3184 127.709 12.3589 127.709H9.02641V137H12.4922C14.4117 137 15.5181 135.907 15.5181 134.507ZM18.4145 133.028C18.4145 131.335 19.2943 130.815 20.454 130.815H20.7739V129.562C19.6142 129.562 18.8277 130.068 18.4145 130.882V129.695H17.2014V137H18.4145V133.028ZM22.1742 137H23.3872V129.695H22.1742V137ZM22.8007 128.509C23.2406 128.509 23.6005 128.149 23.6005 127.682C23.6005 127.216 23.2406 126.856 22.8007 126.856C22.3341 126.856 21.9742 127.216 21.9742 127.682C21.9742 128.149 22.3341 128.509 22.8007 128.509ZM25.0014 133.321C25.0014 135.587 26.5077 137.12 28.4672 137.12C29.8002 137.12 30.7466 136.413 31.1865 135.627V137.16C31.1865 138.72 30.2134 139.546 28.9204 139.546C27.7207 139.546 26.8542 138.946 26.5876 138.066H25.3879C25.6279 139.626 27.0009 140.599 28.9204 140.599C31.0665 140.599 32.4129 139.173 32.4129 137.16V129.695H31.1865V131.028C30.7599 130.242 29.8002 129.575 28.4672 129.575C26.5077 129.575 25.0014 131.041 25.0014 133.321ZM31.1865 133.334C31.1865 135.054 30.0401 136.054 28.7071 136.054C27.3741 136.054 26.2411 135.04 26.2411 133.321C26.2411 131.601 27.3741 130.628 28.7071 130.628C30.0401 130.628 31.1865 131.641 31.1865 133.334ZM34.4628 137H35.6758V132.961C35.6758 131.388 36.5289 130.615 37.7686 130.615C38.995 130.615 39.8081 131.375 39.8081 132.868V137H41.0078V132.694C41.0078 130.602 39.7148 129.562 38.0885 129.562C37.0621 129.562 36.1557 129.975 35.6758 130.748V127.136H34.4628V137ZM43.2559 135C43.2559 136.467 43.989 137 45.282 137H46.3751V135.974H45.482C44.7355 135.974 44.4689 135.72 44.4689 135V130.695H46.3751V129.695H44.4689V127.856H43.2559V129.695H42.3094V130.695H43.2559V135ZM51.3986 127.709V137H55.8642V136.014H52.6117V127.709H51.3986ZM57.1524 137H58.3654V129.695H57.1524V137ZM57.7789 128.509C58.2188 128.509 58.5787 128.149 58.5787 127.682C58.5787 127.216 58.2188 126.856 57.7789 126.856C57.3124 126.856 56.9524 127.216 56.9524 127.682C56.9524 128.149 57.3124 128.509 57.7789 128.509ZM70.9769 137H72.1766V132.694C72.1766 130.602 70.8835 129.562 69.2173 129.562C68.0976 129.562 67.0578 130.135 66.6313 131.188C66.1514 130.095 65.1516 129.562 63.9519 129.562C62.9922 129.562 62.1257 129.975 61.6459 130.748V129.695H60.4328V137H61.6459V132.974C61.6459 131.401 62.4856 130.615 63.712 130.615C64.9117 130.615 65.7115 131.375 65.7115 132.868V137H66.9112V132.974C66.9112 131.401 67.751 130.615 68.9774 130.615C70.1771 130.615 70.9769 131.375 70.9769 132.868V137ZM77.2723 130.602C78.5253 130.602 79.5917 131.388 79.5784 132.814H74.9662C75.0995 131.388 76.0859 130.602 77.2723 130.602ZM80.6847 134.747H79.3784C79.1118 135.534 78.4186 136.094 77.3256 136.094C76.0859 136.094 75.0462 135.28 74.9528 133.801H80.7914C80.818 133.548 80.8314 133.334 80.8314 133.068C80.8314 131.068 79.4451 129.575 77.3256 129.575C75.1928 129.575 73.7132 131.028 73.7132 133.334C73.7132 135.654 75.2461 137.12 77.3256 137.12C79.1385 137.12 80.3115 136.08 80.6847 134.747ZM90.1986 127.602C87.5859 127.602 85.5331 129.562 85.5331 132.348C85.5331 135.134 87.5859 137.08 90.1986 137.08C92.718 137.08 94.5442 135.227 94.7575 132.921V131.988H89.7587V132.974H93.4645C93.2778 134.814 92.0248 135.987 90.1986 135.987C88.2391 135.987 86.7728 134.574 86.7728 132.348C86.7728 130.108 88.2391 128.695 90.1986 128.695C91.505 128.695 92.518 129.322 93.0246 130.402H94.4775C93.7844 128.615 92.1581 127.602 90.1986 127.602ZM97.5744 133.028C97.5744 131.335 98.4542 130.815 99.6139 130.815H99.9338V129.562C98.7741 129.562 97.9876 130.068 97.5744 130.882V129.695H96.3613V137H97.5744V133.028ZM104.44 130.602C105.693 130.602 106.759 131.388 106.746 132.814H102.134C102.267 131.388 103.254 130.602 104.44 130.602ZM107.852 134.747H106.546C106.279 135.534 105.586 136.094 104.493 136.094C103.254 136.094 102.214 135.28 102.121 133.801H107.959C107.986 133.548 107.999 133.334 107.999 133.068C107.999 131.068 106.613 129.575 104.493 129.575C102.36 129.575 100.881 131.028 100.881 133.334C100.881 135.654 102.414 137.12 104.493 137.12C106.306 137.12 107.479 136.08 107.852 134.747ZM112.706 130.602C113.959 130.602 115.026 131.388 115.012 132.814H110.4C110.533 131.388 111.52 130.602 112.706 130.602ZM116.119 134.747H114.812C114.546 135.534 113.852 136.094 112.759 136.094C111.52 136.094 110.48 135.28 110.387 133.801H116.225C116.252 133.548 116.265 133.334 116.265 133.068C116.265 131.068 114.879 129.575 112.759 129.575C110.627 129.575 109.147 131.028 109.147 133.334C109.147 135.654 110.68 137.12 112.759 137.12C114.572 137.12 115.745 136.08 116.119 134.747ZM123.212 137H124.411V132.694C124.411 130.602 123.118 129.562 121.425 129.562C120.439 129.562 119.559 129.975 119.079 130.735V129.695H117.866V137H119.079V132.961C119.079 131.388 119.933 130.615 121.172 130.615C122.399 130.615 123.212 131.375 123.212 132.868V137Z" fill="#5D6B7E"/>
<path d="M8.96657 206.511H13.5328V205.445H8.96657V206.511ZM15.4655 206.511H20.0317V205.445H15.4655V206.511ZM21.9644 206.511H26.5306V205.445H21.9644V206.511Z" fill="#9AA3AF"/>
<path d="M117.733 160H118.999V152.279H117.733V155.589H114.1V152.279H112.833V160H114.1V156.623H117.733V160ZM124.933 152.267H120.667V160H124.933V158.967H121.933V156.6H124.6V155.567H121.933V153.301H124.933V152.267ZM131.015 160H132.437L130.037 156.145L132.448 152.279H131.037L129.393 155.1L127.637 152.279H126.215L128.626 156.145L126.226 160H127.637L129.27 157.2L131.015 160Z" fill="#C2C8CF"/>
<path d="M119.265 180H120.545L117.199 170.762H115.799L112.44 180H113.72L114.466 177.934H118.518L119.265 180ZM118.172 176.947H114.813L116.492 172.255L118.172 176.947ZM121.662 179.893H128.074V178.88H123.488C125.208 177.481 127.794 175.441 127.794 173.042C127.794 171.256 126.621 170.189 124.808 170.189C123.075 170.189 121.782 171.256 121.702 173.308H122.875C122.928 172.095 123.568 171.229 124.821 171.229C126.128 171.229 126.594 172.029 126.594 173.095C126.594 175.068 124.195 176.987 121.662 179.027V179.893ZM129.223 175.348C129.223 178.134 131.262 180.08 133.862 180.08C135.874 180.08 137.474 179.08 138.167 177.294H136.714C136.208 178.4 135.221 179.027 133.862 179.027C131.915 179.027 130.462 177.614 130.462 175.348C130.462 173.068 131.915 171.655 133.862 171.655C135.221 171.655 136.208 172.282 136.714 173.402H138.167C137.474 171.602 135.874 170.589 133.862 170.589C131.262 170.589 129.223 172.562 129.223 175.348ZM146.265 172.655C146.105 171.309 145.171 170.162 143.332 170.162C140.893 170.162 139.919 172.029 139.919 175.055C139.919 177.974 140.599 180.027 143.452 180.027C145.558 180.027 146.598 178.587 146.598 176.827C146.598 174.801 145.385 173.615 143.585 173.615C142.439 173.615 141.386 174.148 140.973 175.095C140.959 172.229 141.786 171.176 143.319 171.176C144.412 171.176 144.958 171.722 145.145 172.655H146.265ZM143.332 174.641C144.718 174.641 145.425 175.508 145.425 176.867C145.425 178.174 144.638 179.014 143.385 179.014C141.866 179.014 141.119 178.014 141.119 176.734C141.119 175.295 142.226 174.641 143.332 174.641ZM154.726 172.655C154.566 171.309 153.633 170.162 151.793 170.162C149.354 170.162 148.381 172.029 148.381 175.055C148.381 177.974 149.061 180.027 151.913 180.027C154.019 180.027 155.059 178.587 155.059 176.827C155.059 174.801 153.846 173.615 152.047 173.615C150.9 173.615 149.847 174.148 149.434 175.095C149.421 172.229 150.247 171.176 151.78 171.176C152.873 171.176 153.42 171.722 153.606 172.655H154.726ZM151.793 174.641C153.18 174.641 153.886 175.508 153.886 176.867C153.886 178.174 153.1 179.014 151.847 179.014C150.327 179.014 149.581 178.014 149.581 176.734C149.581 175.295 150.687 174.641 151.793 174.641ZM156.442 175.348C156.442 178.134 158.482 180.08 161.081 180.08C163.094 180.08 164.694 179.08 165.387 177.294H163.934C163.427 178.4 162.441 179.027 161.081 179.027C159.135 179.027 157.682 177.614 157.682 175.348C157.682 173.068 159.135 171.655 161.081 171.655C162.441 171.655 163.427 172.282 163.934 173.402H165.387C164.694 171.602 163.094 170.589 161.081 170.589C158.482 170.589 156.442 172.562 156.442 175.348Z" fill="#5D6B7E"/>
<path d="M12.9328 154.589C12.9328 155.356 12.4884 155.9 11.4997 155.9H10.0998V153.312H11.4997C12.4884 153.312 12.9328 153.812 12.9328 154.589ZM8.83325 152.279V160H10.0998V156.911H11.0664L12.844 160H14.3549L12.444 156.8C13.7439 156.478 14.2327 155.5 14.2327 154.589C14.2327 153.334 13.3328 152.279 11.4997 152.279H8.83325ZM19.3748 152.179C17.1973 152.179 15.4308 153.812 15.4308 156.123C15.4308 158.445 17.1973 160.067 19.3748 160.067C21.4524 160.067 22.9633 158.545 23.1967 156.756V155.767H18.9415V156.778H21.8412C21.6524 158.078 20.7747 158.922 19.3748 158.922C17.8416 158.922 16.7306 157.822 16.7306 156.123C16.7306 154.423 17.8416 153.334 19.3748 153.334C20.2969 153.334 21.0302 153.723 21.4413 154.501H22.9633C22.3745 152.99 20.9858 152.179 19.3748 152.179ZM28.801 157.789C28.801 158.533 28.2788 158.967 27.4233 158.967H25.7124V156.556H27.3789C28.2232 156.556 28.801 157.023 28.801 157.789ZM28.601 154.423C28.601 155.134 28.101 155.523 27.2789 155.523H25.7124V153.312H27.2789C28.101 153.312 28.601 153.723 28.601 154.423ZM30.0675 157.922C30.0675 157 29.4009 156.178 28.5788 156.034C29.3231 155.767 29.8897 155.2 29.8897 154.267C29.8897 153.178 29.0232 152.279 27.39 152.279H24.4458V160H27.5344C29.112 160 30.0675 159.1 30.0675 157.922Z" fill="#C2C8CF"/>
<path d="M9.78622 180H11.0126V170.362H8.50654V171.469H9.78622V180ZM19.5879 172.655C19.428 171.309 18.4949 170.162 16.6553 170.162C14.2159 170.162 13.2429 172.029 13.2429 175.055C13.2429 177.974 13.9227 180.027 16.7753 180.027C18.8814 180.027 19.9212 178.587 19.9212 176.827C19.9212 174.801 18.7082 173.615 16.9086 173.615C15.7622 173.615 14.7092 174.148 14.2959 175.095C14.2826 172.229 15.1091 171.176 16.642 171.176C17.7351 171.176 18.2816 171.722 18.4682 172.655H19.5879ZM16.6553 174.641C18.0417 174.641 18.7481 175.508 18.7481 176.867C18.7481 178.174 17.9617 179.014 16.7087 179.014C15.189 179.014 14.4426 178.014 14.4426 176.734C14.4426 175.295 15.5489 174.641 16.6553 174.641ZM21.411 179.893H27.8228V178.88H23.2372C24.9568 177.481 27.5428 175.441 27.5428 173.042C27.5428 171.256 26.3698 170.189 24.5569 170.189C22.824 170.189 21.531 171.256 21.451 173.308H22.6241C22.6774 172.095 23.3172 171.229 24.5702 171.229C25.8766 171.229 26.3431 172.029 26.3431 173.095C26.3431 175.068 23.9437 176.987 21.411 179.027V179.893ZM28.3719 181.906H29.185L30.678 178.32H29.345L28.3719 181.906ZM36.3811 180H37.6075V170.362H35.1015V171.469H36.3811V180ZM40.131 177.414C40.2643 178.827 41.1974 180.013 43.1169 180.013C45.6496 180.013 46.3828 178.214 46.3828 175.001C46.3828 172.015 45.623 170.176 43.0103 170.176C40.9308 170.176 39.8378 171.509 39.8378 173.348C39.8378 175.388 41.1574 176.494 42.9303 176.494C43.9701 176.494 44.9298 176.028 45.3164 175.215C45.3564 178.04 44.5966 179 43.1836 179C42.0639 179 41.424 178.414 41.2507 177.414H40.131ZM43.1303 175.468C41.6906 175.468 40.9975 174.561 40.9975 173.322C40.9975 172.042 41.7839 171.189 43.037 171.189C44.4233 171.189 45.1698 172.109 45.1698 173.415C45.1698 174.708 44.29 175.468 43.1303 175.468ZM49.847 174.988C48.7673 175.308 48.0608 176.188 48.0608 177.401C48.0608 179.147 49.4338 180.267 51.46 180.267C53.4995 180.267 54.8858 179.147 54.8858 177.401C54.8858 176.201 54.1793 175.321 53.0862 174.988C54.0327 174.615 54.6325 173.815 54.6325 172.775C54.6325 171.375 53.5528 170.216 51.46 170.216C49.3672 170.216 48.3008 171.362 48.3008 172.775C48.3008 173.855 48.8606 174.601 49.847 174.988ZM51.46 174.588C50.2869 174.588 49.4738 173.935 49.4738 172.935C49.4738 171.802 50.2736 171.229 51.46 171.229C52.673 171.229 53.4595 171.815 53.4595 172.922C53.4595 173.922 52.6463 174.588 51.46 174.588ZM51.46 175.521C52.7263 175.521 53.6861 176.121 53.6861 177.361C53.6861 178.48 52.833 179.254 51.46 179.254C50.087 179.254 49.2205 178.494 49.2205 177.361C49.2205 176.081 50.2203 175.521 51.46 175.521ZM55.6437 181.906H56.4568L57.9498 178.32H56.6168L55.6437 181.906ZM63.653 180H64.8793V170.362H62.3733V171.469H63.653V180ZM66.963 175.081C66.963 177.881 67.6561 180 70.3221 180C72.9748 180 73.668 177.881 73.668 175.081C73.668 172.322 72.9748 170.216 70.3221 170.216C67.6561 170.216 66.963 172.322 66.963 175.081ZM72.4683 175.081C72.4683 177.161 72.215 178.894 70.3221 178.894C68.4159 178.894 68.1627 177.161 68.1627 175.081C68.1627 173.082 68.4159 171.322 70.3221 171.322C72.215 171.322 72.4683 173.082 72.4683 175.081ZM77.0928 174.988C76.0131 175.308 75.3066 176.188 75.3066 177.401C75.3066 179.147 76.6796 180.267 78.7058 180.267C80.7452 180.267 82.1316 179.147 82.1316 177.401C82.1316 176.201 81.4251 175.321 80.332 174.988C81.2784 174.615 81.8783 173.815 81.8783 172.775C81.8783 171.375 80.7986 170.216 78.7058 170.216C76.6129 170.216 75.5465 171.362 75.5465 172.775C75.5465 173.855 76.1064 174.601 77.0928 174.988ZM78.7058 174.588C77.5327 174.588 76.7196 173.935 76.7196 172.935C76.7196 171.802 77.5194 171.229 78.7058 171.229C79.9188 171.229 80.7053 171.815 80.7053 172.922C80.7053 173.922 79.8921 174.588 78.7058 174.588ZM78.7058 175.521C79.9721 175.521 80.9319 176.121 80.9319 177.361C80.9319 178.48 80.0787 179.254 78.7058 179.254C77.3328 179.254 76.4663 178.494 76.4663 177.361C76.4663 176.081 77.4661 175.521 78.7058 175.521Z" fill="#5D6B7E"/>
</svg>
