<svg width="112" height="218" viewBox="0 0 112 218" fill="none" xmlns="http://www.w3.org/2000/svg">
<rect y="100" width="112" height="94" fill="#F9FAFA"/>
<path d="M0 4C0 1.79086 1.79086 0 4 0H108C110.209 0 112 1.79086 112 4V100H0V4Z" fill="#67C5EB"/>
<path d="M13.9105 109.267V115.022L10.0998 109.267H8.83325V117H10.0998V111.234L13.9105 117H15.1771V109.267H13.9105ZM22.0509 117H23.3841L20.6177 109.267H19.1511L16.3848 117H17.7068L18.2623 115.422H21.4954L22.0509 117ZM21.1398 114.389H18.6179L19.8844 110.801L21.1398 114.389ZM24.5869 117H25.8534V111.712L28.2199 117H29.0975L31.4529 111.712V117H32.7194V109.279H31.364L28.6643 115.333L25.9534 109.279H24.5869V117ZM38.6503 109.267H34.3841V117H38.6503V115.967H35.6506V113.6H38.317V112.567H35.6506V110.301H38.6503V109.267Z" fill="#C2C8CF"/>
<path d="M15.0649 134.467C15.0649 131.028 10.0528 132.521 10.0528 130.122C10.0528 129.122 10.8393 128.602 11.839 128.629C12.9721 128.642 13.5586 129.349 13.6386 129.975H14.9716C14.825 128.562 13.6653 127.589 11.8924 127.589C10.0528 127.589 8.81313 128.629 8.81313 130.162C8.81313 133.614 13.8385 132.015 13.8385 134.521C13.8385 135.4 13.1454 136.067 11.9723 136.067C10.6793 136.067 10.1328 135.294 10.0528 134.521H8.75981C8.78647 136.054 10.1061 137.093 11.9723 137.093C13.9852 137.093 15.0649 135.787 15.0649 134.467ZM16.85 137H18.063V133.774L20.929 137H22.5819L19.1294 133.334L22.5685 129.695H20.8756L18.063 132.934V127.136H16.85V137ZM26.4829 135.614L24.1901 129.695H22.8438L25.7897 136.92L24.3501 140.439H25.6031L30.002 129.695H28.749L26.4829 135.614ZM40.0539 134.387C40.0539 135.4 39.334 136 38.1343 136H35.9882V132.721H38.0943C39.2807 132.721 40.0539 133.361 40.0539 134.387ZM39.8139 130.215C39.8139 131.161 39.1607 131.721 38.0277 131.721H35.9882V128.709H38.001C39.1874 128.709 39.8139 129.295 39.8139 130.215ZM41.2669 134.507C41.2669 133.361 40.4404 132.388 39.4274 132.215C40.3205 131.921 41.0536 131.241 41.0536 130.068C41.0536 128.775 40.0672 127.709 38.1077 127.709H34.7752V137H38.241C40.1605 137 41.2669 135.907 41.2669 134.507ZM42.9502 137H44.1632V127.136H42.9502V137ZM52.709 129.695H51.496V133.707C51.496 135.28 50.6562 136.054 49.4032 136.054C48.1768 136.054 47.3637 135.294 47.3637 133.814V129.695H46.164V133.974C46.164 136.067 47.4837 137.107 49.1632 137.107C50.1363 137.107 51.0294 136.68 51.496 135.92V137H52.709V129.695ZM57.8631 130.602C59.1161 130.602 60.1825 131.388 60.1691 132.814H55.557C55.6903 131.388 56.6767 130.602 57.8631 130.602ZM61.2755 134.747H59.9692C59.7026 135.534 59.0094 136.094 57.9164 136.094C56.6767 136.094 55.6369 135.28 55.5436 133.801H61.3822C61.4088 133.548 61.4222 133.334 61.4222 133.068C61.4222 131.068 60.0358 129.575 57.9164 129.575C55.7836 129.575 54.3039 131.028 54.3039 133.334C54.3039 135.654 55.8369 137.12 57.9164 137.12C59.7293 137.12 60.9023 136.08 61.2755 134.747Z" fill="#5D6B7E"/>
<path d="M13.7328 160H14.9993V152.279H13.7328V155.589H10.0998V152.279H8.83325V160H10.0998V156.623H13.7328V160ZM20.9329 152.267H16.6667V160H20.9329V158.967H17.9332V156.6H20.5996V155.567H17.9332V153.301H20.9329V152.267ZM27.0147 160H28.4368L26.037 156.145L28.4479 152.279H27.0369L25.3926 155.1L23.6372 152.279H22.2152L24.626 156.145L22.2263 160H23.6372L25.2704 157.2L27.0147 160Z" fill="#C2C8CF"/>
<path d="M15.3182 172.655C15.1582 171.309 14.2251 170.162 12.3856 170.162C9.94618 170.162 8.97309 172.029 8.97309 175.055C8.97309 177.974 9.65292 180.027 12.5055 180.027C14.6117 180.027 15.6514 178.587 15.6514 176.827C15.6514 174.801 14.4384 173.615 12.6388 173.615C11.4925 173.615 10.4394 174.148 10.0262 175.095C10.0128 172.229 10.8393 171.176 12.3722 171.176C13.4653 171.176 14.0118 171.722 14.1985 172.655H15.3182ZM12.3856 174.641C13.7719 174.641 14.4784 175.508 14.4784 176.867C14.4784 178.174 13.6919 179.014 12.4389 179.014C10.9193 179.014 10.1728 178.014 10.1728 176.734C10.1728 175.295 11.2792 174.641 12.3856 174.641ZM16.9013 170.389V171.429H22.0467L18.2876 180H19.514L23.2197 171.309V170.389H16.9013ZM24.3114 175.348C24.3114 178.134 26.3509 180.08 28.9503 180.08C30.9631 180.08 32.5627 179.08 33.2559 177.294H31.8029C31.2964 178.4 30.3099 179.027 28.9503 179.027C27.0041 179.027 25.5511 177.614 25.5511 175.348C25.5511 173.068 27.0041 171.655 28.9503 171.655C30.3099 171.655 31.2964 172.282 31.8029 173.402H33.2559C32.5627 171.602 30.9631 170.589 28.9503 170.589C26.3509 170.589 24.3114 172.562 24.3114 175.348ZM35.2082 170.349V175.788H36.3546C36.6745 175.028 37.381 174.521 38.3541 174.521C39.7537 174.521 40.4602 175.321 40.4602 176.694C40.4602 178.014 39.807 179 38.3407 179C37.2077 179 36.4212 178.4 36.1946 177.387H35.0082C35.2482 178.947 36.4079 180.027 38.3274 180.027C40.5802 180.027 41.6199 178.534 41.6199 176.668C41.6199 175.175 40.8734 173.482 38.5274 173.482C37.5809 173.482 36.7278 173.908 36.3279 174.455V171.415H41.0067V170.349H35.2082ZM48.4306 170.696H43.4319V180H48.4306V179H44.6449V175.801H48.0307V174.801H44.6449V171.695H48.4306V170.696ZM55.5448 177.387C55.5448 178.4 54.825 179 53.6253 179H51.4791V175.721H53.5853C54.7716 175.721 55.5448 176.361 55.5448 177.387ZM55.3048 173.215C55.3048 174.161 54.6517 174.721 53.5186 174.721H51.4791V171.709H53.492C54.6783 171.709 55.3048 172.295 55.3048 173.215ZM56.7578 177.507C56.7578 176.361 55.9313 175.388 54.9183 175.215C55.8114 174.921 56.5445 174.241 56.5445 173.068C56.5445 171.775 55.5581 170.709 53.5986 170.709H50.2661V180H53.7319C55.6514 180 56.7578 178.907 56.7578 177.507Z" fill="#5D6B7E"/>
<path d="M0 194H112V214C112 216.209 110.209 218 108 218H4C1.79086 218 0 216.209 0 214V194Z" fill="#EDEFF1"/>
<path d="M8.41107 206.123C8.41107 208.445 10.1776 210.067 12.3551 210.067C13.9661 210.067 15.3548 209.267 15.9437 207.756H14.4216C14.0105 208.578 13.2773 208.967 12.3551 208.967C10.8219 208.967 9.71094 207.867 9.71094 206.123C9.71094 204.378 10.8219 203.29 12.3551 203.29C13.2773 203.29 14.0105 203.678 14.4216 204.501H15.9437C15.3548 202.99 13.9661 202.179 12.3551 202.179C10.1776 202.179 8.41107 203.812 8.41107 206.123ZM17.4261 202.279V210H21.3035V208.978H18.6927V202.279H17.4261ZM29.8286 206.123C29.8286 203.812 28.0844 202.179 25.8846 202.179C23.707 202.179 21.9405 203.812 21.9405 206.123C21.9405 208.445 23.707 210.078 25.8846 210.078C28.0844 210.078 29.8286 208.445 29.8286 206.123ZM23.2404 206.123C23.2404 204.378 24.3514 203.29 25.8846 203.29C27.4178 203.29 28.5288 204.378 28.5288 206.123C28.5288 207.867 27.4178 208.978 25.8846 208.978C24.3514 208.978 23.2404 207.867 23.2404 206.123ZM31.0638 207.178C31.0638 209.145 32.4415 210.078 34.0635 210.078C35.6745 210.078 37.0966 209.145 37.0966 207.178V202.279H35.83V207.2C35.83 208.4 35.1523 208.967 34.0746 208.967C33.0081 208.967 32.3304 208.4 32.3304 207.2V202.279H31.0638V207.178ZM41.2676 202.279H38.7456V210H41.2676C43.7451 210 45.3672 208.545 45.3672 206.167C45.3672 203.778 43.7451 202.279 41.2676 202.279ZM40.0122 208.967V203.312H41.2676C43.0896 203.312 44.0673 204.401 44.0673 206.167C44.0673 207.922 43.0896 208.967 41.2676 208.967H40.0122ZM46.4336 203.901H47.6668C47.7445 203.334 48.1556 202.801 49.0444 202.801C49.911 202.801 50.3665 203.267 50.3665 203.967C50.3665 204.834 49.6666 205.167 48.5222 205.178H48.2223V206.223H48.5111C49.8332 206.223 50.522 206.589 50.522 207.656C50.522 208.411 50.0554 208.989 49.1111 208.989C48.1556 208.989 47.6001 208.411 47.5446 207.656H46.3225C46.4002 209.245 47.589 210.044 49.1222 210.044C50.8109 210.044 51.7219 209.067 51.7219 207.778C51.7219 206.656 51.1775 205.956 50.3332 205.7V205.656C50.9664 205.445 51.5775 204.789 51.5775 203.823C51.5775 202.645 50.6998 201.712 49.0889 201.712C47.6112 201.712 46.5224 202.501 46.4336 203.901ZM53.0523 205.845C53.0523 208.2 53.6745 209.978 55.9409 209.978C58.2074 209.978 58.8296 208.2 58.8296 205.845C58.8296 203.534 58.2074 201.756 55.9409 201.756C53.6745 201.756 53.0523 203.534 53.0523 205.845ZM57.5852 205.845C57.5852 207.434 57.4186 208.822 55.9409 208.822C54.4633 208.822 54.2967 207.434 54.2967 205.845C54.2967 204.334 54.4633 202.912 55.9409 202.912C57.4186 202.912 57.5852 204.334 57.5852 205.845ZM60.1697 205.845C60.1697 208.2 60.7919 209.978 63.0583 209.978C65.3247 209.978 65.9469 208.2 65.9469 205.845C65.9469 203.534 65.3247 201.756 63.0583 201.756C60.7919 201.756 60.1697 203.534 60.1697 205.845ZM64.7026 205.845C64.7026 207.434 64.5359 208.822 63.0583 208.822C61.5807 208.822 61.414 207.434 61.414 205.845C61.414 204.334 61.5807 202.912 63.0583 202.912C64.5359 202.912 64.7026 204.334 64.7026 205.845Z" fill="#9AA3AF"/>
</svg>
