<svg width="112" height="218" viewBox="0 0 112 218" fill="none" xmlns="http://www.w3.org/2000/svg">
<rect y="100" width="112" height="94" fill="#F9FAFA"/>
<path d="M0 4C0 1.79086 1.79086 0 4 0H108C110.209 0 112 1.79086 112 4V100H0V4Z" fill="#41B6E6"/>
<path d="M13.9105 109.267V115.022L10.0998 109.267H8.83325V117H10.0998V111.234L13.9105 117H15.1771V109.267H13.9105ZM22.0509 117H23.3841L20.6177 109.267H19.1511L16.3848 117H17.7068L18.2623 115.422H21.4954L22.0509 117ZM21.1398 114.389H18.6179L19.8844 110.801L21.1398 114.389ZM24.5869 117H25.8534V111.712L28.2199 117H29.0975L31.4529 111.712V117H32.7194V109.279H31.364L28.6643 115.333L25.9534 109.279H24.5869V117ZM38.6503 109.267H34.3841V117H38.6503V115.967H35.6506V113.6H38.317V112.567H35.6506V110.301H38.6503V109.267Z" fill="#C2C8CF"/>
<path d="M10.2394 132.121V128.709H12.0257C13.412 128.709 13.9985 129.349 13.9985 130.428C13.9985 131.468 13.412 132.121 12.0257 132.121H10.2394ZM15.2382 130.428C15.2382 128.909 14.2118 127.709 12.0257 127.709H9.02641V137H10.2394V133.121H12.0257C14.3318 133.121 15.2382 131.841 15.2382 130.428ZM16.7458 137H17.9589V129.695H16.7458V137ZM17.3723 128.509C17.8122 128.509 18.1721 128.149 18.1721 127.682C18.1721 127.216 17.8122 126.856 17.3723 126.856C16.9058 126.856 16.5459 127.216 16.5459 127.682C16.5459 128.149 16.9058 128.509 17.3723 128.509ZM19.573 133.334C19.573 135.654 21.0527 137.12 23.1322 137.12C24.945 137.12 26.1314 136.107 26.5046 134.654H25.1983C24.9317 135.574 24.2119 136.094 23.1322 136.094C21.7992 136.094 20.8127 135.147 20.8127 133.334C20.8127 131.548 21.7992 130.602 23.1322 130.602C24.2119 130.602 24.945 131.161 25.1983 132.041H26.5046C26.1314 130.508 24.945 129.575 23.1322 129.575C21.0527 129.575 19.573 131.041 19.573 133.334ZM28.3898 135C28.3898 136.467 29.1229 137 30.416 137H31.509V135.974H30.6159C29.8694 135.974 29.6028 135.72 29.6028 135V130.695H31.509V129.695H29.6028V127.856H28.3898V129.695H27.4434V130.695H28.3898V135ZM39.9104 133.334C39.9104 131.028 38.2974 129.575 36.2179 129.575C34.1518 129.575 32.5255 131.028 32.5255 133.334C32.5255 135.654 34.0985 137.12 36.1646 137.12C38.2441 137.12 39.9104 135.654 39.9104 133.334ZM33.7652 133.334C33.7652 131.495 34.9249 130.628 36.2046 130.628C37.4576 130.628 38.6707 131.495 38.6707 133.334C38.6707 135.187 37.431 136.054 36.1646 136.054C34.8983 136.054 33.7652 135.187 33.7652 133.334ZM46.8506 137H48.0503V132.694C48.0503 130.602 46.7573 129.562 45.0644 129.562C44.078 129.562 43.1982 129.975 42.7183 130.735V129.695H41.5053V137H42.7183V132.961C42.7183 131.388 43.5714 130.615 44.8111 130.615C46.0375 130.615 46.8506 131.375 46.8506 132.868V137Z" fill="#5D6B7E"/>
<path d="M13.7328 160H14.9993V152.279H13.7328V155.589H10.0998V152.279H8.83325V160H10.0998V156.623H13.7328V160ZM20.9329 152.267H16.6667V160H20.9329V158.967H17.9332V156.6H20.5996V155.567H17.9332V153.301H20.9329V152.267ZM27.0147 160H28.4368L26.037 156.145L28.4479 152.279H27.0369L25.3926 155.1L23.6372 152.279H22.2152L24.626 156.145L22.2263 160H23.6372L25.2704 157.2L27.0147 160Z" fill="#C2C8CF"/>
<path d="M13.4653 180H14.665V177.854H15.998V176.801H14.665V170.456H13.212L8.5332 176.934V177.854H13.4653V180ZM9.93285 176.801L13.5186 171.722V176.801H9.93285ZM18.1695 180H19.3959V170.362H16.8899V171.469H18.1695V180ZM26.9582 177.387C26.9582 178.4 26.2384 179 25.0387 179H22.8925V175.721H24.9987C26.185 175.721 26.9582 176.361 26.9582 177.387ZM26.7182 173.215C26.7182 174.161 26.0651 174.721 24.932 174.721H22.8925V171.709H24.9054C26.0917 171.709 26.7182 172.295 26.7182 173.215ZM28.1712 177.507C28.1712 176.361 27.3447 175.388 26.3317 175.215C27.2248 174.921 27.9579 174.241 27.9579 173.068C27.9579 171.775 26.9715 170.709 25.012 170.709H21.6795V180H25.1453C27.0648 180 28.1712 178.907 28.1712 177.507ZM36.1463 172.655C35.9863 171.309 35.0532 170.162 33.2137 170.162C30.7743 170.162 29.8012 172.029 29.8012 175.055C29.8012 177.974 30.481 180.027 33.3337 180.027C35.4398 180.027 36.4795 178.587 36.4795 176.827C36.4795 174.801 35.2665 173.615 33.467 173.615C32.3206 173.615 31.2675 174.148 30.8543 175.095C30.841 172.229 31.6674 171.176 33.2004 171.176C34.2934 171.176 34.84 171.722 35.0266 172.655H36.1463ZM33.2137 174.641C34.6 174.641 35.3065 175.508 35.3065 176.867C35.3065 178.174 34.52 179.014 33.267 179.014C31.7474 179.014 31.0009 178.014 31.0009 176.734C31.0009 175.295 32.1073 174.641 33.2137 174.641ZM43.3147 170.696H38.316V180H43.3147V179H39.529V175.801H42.9148V174.801H39.529V171.695H43.3147V170.696ZM51.4419 172.655C51.282 171.309 50.3489 170.162 48.5093 170.162C46.07 170.162 45.0969 172.029 45.0969 175.055C45.0969 177.974 45.7767 180.027 48.6293 180.027C50.7355 180.027 51.7752 178.587 51.7752 176.827C51.7752 174.801 50.5622 173.615 48.7626 173.615C47.6162 173.615 46.5632 174.148 46.1499 175.095C46.1366 172.229 46.9631 171.176 48.496 171.176C49.5891 171.176 50.1356 171.722 50.3222 172.655H51.4419ZM48.5093 174.641C49.8957 174.641 50.6022 175.508 50.6022 176.867C50.6022 178.174 49.8157 179.014 48.5627 179.014C47.043 179.014 46.2966 178.014 46.2966 176.734C46.2966 175.295 47.403 174.641 48.5093 174.641Z" fill="#5D6B7E"/>
<path d="M0 194H112V214C112 216.209 110.209 218 108 218H4C1.79086 218 0 216.209 0 214V194Z" fill="#EDEFF1"/>
<path d="M8.41107 206.123C8.41107 208.445 10.1776 210.067 12.3551 210.067C13.9661 210.067 15.3548 209.267 15.9437 207.756H14.4216C14.0105 208.578 13.2773 208.967 12.3551 208.967C10.8219 208.967 9.71094 207.867 9.71094 206.123C9.71094 204.378 10.8219 203.29 12.3551 203.29C13.2773 203.29 14.0105 203.678 14.4216 204.501H15.9437C15.3548 202.99 13.9661 202.179 12.3551 202.179C10.1776 202.179 8.41107 203.812 8.41107 206.123ZM17.4261 202.279V210H21.3035V208.978H18.6927V202.279H17.4261ZM29.8286 206.123C29.8286 203.812 28.0844 202.179 25.8846 202.179C23.707 202.179 21.9405 203.812 21.9405 206.123C21.9405 208.445 23.707 210.078 25.8846 210.078C28.0844 210.078 29.8286 208.445 29.8286 206.123ZM23.2404 206.123C23.2404 204.378 24.3514 203.29 25.8846 203.29C27.4178 203.29 28.5288 204.378 28.5288 206.123C28.5288 207.867 27.4178 208.978 25.8846 208.978C24.3514 208.978 23.2404 207.867 23.2404 206.123ZM31.0638 207.178C31.0638 209.145 32.4415 210.078 34.0635 210.078C35.6745 210.078 37.0966 209.145 37.0966 207.178V202.279H35.83V207.2C35.83 208.4 35.1523 208.967 34.0746 208.967C33.0081 208.967 32.3304 208.4 32.3304 207.2V202.279H31.0638V207.178ZM41.2676 202.279H38.7456V210H41.2676C43.7451 210 45.3672 208.545 45.3672 206.167C45.3672 203.778 43.7451 202.279 41.2676 202.279ZM40.0122 208.967V203.312H41.2676C43.0896 203.312 44.0673 204.401 44.0673 206.167C44.0673 207.922 43.0896 208.967 41.2676 208.967H40.0122ZM50.3221 210H51.5664V208.311H52.5996V207.211H51.5664V202.001H50.0332L46.3002 207.356V208.311H50.3221V210ZM47.7557 207.211L50.3776 203.29V207.211H47.7557ZM53.6491 205.845C53.6491 208.2 54.2712 209.978 56.5377 209.978C58.8041 209.978 59.4263 208.2 59.4263 205.845C59.4263 203.534 58.8041 201.756 56.5377 201.756C54.2712 201.756 53.6491 203.534 53.6491 205.845ZM58.182 205.845C58.182 207.434 58.0153 208.822 56.5377 208.822C55.06 208.822 54.8934 207.434 54.8934 205.845C54.8934 204.334 55.06 202.912 56.5377 202.912C58.0153 202.912 58.182 204.334 58.182 205.845ZM60.7664 205.845C60.7664 208.2 61.3886 209.978 63.655 209.978C65.9215 209.978 66.5436 208.2 66.5436 205.845C66.5436 203.534 65.9215 201.756 63.655 201.756C61.3886 201.756 60.7664 203.534 60.7664 205.845ZM65.2993 205.845C65.2993 207.434 65.1327 208.822 63.655 208.822C62.1774 208.822 62.0107 207.434 62.0107 205.845C62.0107 204.334 62.1774 202.912 63.655 202.912C65.1327 202.912 65.2993 204.334 65.2993 205.845Z" fill="#9AA3AF"/>
</svg>
