<svg width="112" height="218" viewBox="0 0 112 218" fill="none" xmlns="http://www.w3.org/2000/svg">
<rect y="100" width="112" height="94" fill="#F9FAFA"/>
<path d="M0 4C0 1.79086 1.79086 0 4 0H108C110.209 0 112 1.79086 112 4V100H0V4Z" fill="#8DD3F0"/>
<path d="M13.9105 109.267V115.022L10.0998 109.267H8.83325V117H10.0998V111.234L13.9105 117H15.1771V109.267H13.9105ZM22.0509 117H23.3841L20.6177 109.267H19.1511L16.3848 117H17.7068L18.2623 115.422H21.4954L22.0509 117ZM21.1398 114.389H18.6179L19.8844 110.801L21.1398 114.389ZM24.5869 117H25.8534V111.712L28.2199 117H29.0975L31.4529 111.712V117H32.7194V109.279H31.364L28.6643 115.333L25.9534 109.279H24.5869V117ZM38.6503 109.267H34.3841V117H38.6503V115.967H35.6506V113.6H38.317V112.567H35.6506V110.301H38.6503V109.267Z" fill="#C2C8CF"/>
<path d="M15.0649 134.467C15.0649 131.028 10.0528 132.521 10.0528 130.122C10.0528 129.122 10.8393 128.602 11.839 128.629C12.9721 128.642 13.5586 129.349 13.6386 129.975H14.9716C14.825 128.562 13.6653 127.589 11.8924 127.589C10.0528 127.589 8.81313 128.629 8.81313 130.162C8.81313 133.614 13.8385 132.015 13.8385 134.521C13.8385 135.4 13.1454 136.067 11.9723 136.067C10.6793 136.067 10.1328 135.294 10.0528 134.521H8.75981C8.78647 136.054 10.1061 137.093 11.9723 137.093C13.9852 137.093 15.0649 135.787 15.0649 134.467ZM19.9559 130.602C21.2089 130.602 22.2753 131.388 22.262 132.814H17.6498C17.7831 131.388 18.7695 130.602 19.9559 130.602ZM23.3683 134.747H22.062C21.7954 135.534 21.1022 136.094 20.0092 136.094C18.7695 136.094 17.7298 135.28 17.6364 133.801H23.475C23.5016 133.548 23.515 133.334 23.515 133.068C23.515 131.068 22.1287 129.575 20.0092 129.575C17.8764 129.575 16.3968 131.028 16.3968 133.334C16.3968 135.654 17.9297 137.12 20.0092 137.12C21.8221 137.12 22.9951 136.08 23.3683 134.747ZM24.6629 133.321C24.6629 135.587 26.1692 137.12 28.1154 137.12C29.4617 137.12 30.4081 136.427 30.848 135.64V137H32.0744V129.695H30.848V131.028C30.4215 130.268 29.4884 129.575 28.1287 129.575C26.1692 129.575 24.6629 131.041 24.6629 133.321ZM30.848 133.334C30.848 135.054 29.7017 136.054 28.3687 136.054C27.0357 136.054 25.9026 135.04 25.9026 133.321C25.9026 131.601 27.0357 130.628 28.3687 130.628C29.7017 130.628 30.848 131.641 30.848 133.334ZM33.6711 133.321C33.6711 135.587 35.1774 137.12 37.1369 137.12C38.4699 137.12 39.4163 136.413 39.8562 135.627V137.16C39.8562 138.72 38.8831 139.546 37.5901 139.546C36.3904 139.546 35.524 138.946 35.2574 138.066H34.0577C34.2976 139.626 35.6706 140.599 37.5901 140.599C39.7362 140.599 41.0826 139.173 41.0826 137.16V129.695H39.8562V131.028C39.4296 130.242 38.4699 129.575 37.1369 129.575C35.1774 129.575 33.6711 131.041 33.6711 133.321ZM39.8562 133.334C39.8562 135.054 38.7098 136.054 37.3768 136.054C36.0438 136.054 34.9108 135.04 34.9108 133.321C34.9108 131.601 36.0438 130.628 37.3768 130.628C38.7098 130.628 39.8562 131.641 39.8562 133.334ZM49.6108 129.695H48.3978V133.707C48.3978 135.28 47.558 136.054 46.305 136.054C45.0786 136.054 44.2655 135.294 44.2655 133.814V129.695H43.0658V133.974C43.0658 136.067 44.3855 137.107 46.0651 137.107C47.0382 137.107 47.9313 136.68 48.3978 135.92V137H49.6108V129.695ZM51.659 137H52.872V127.136H51.659V137ZM54.9394 137H56.1524V127.136H54.9394V137Z" fill="#5D6B7E"/>
<path d="M13.7328 160H14.9993V152.279H13.7328V155.589H10.0998V152.279H8.83325V160H10.0998V156.623H13.7328V160ZM20.9329 152.267H16.6667V160H20.9329V158.967H17.9332V156.6H20.5996V155.567H17.9332V153.301H20.9329V152.267ZM27.0147 160H28.4368L26.037 156.145L28.4479 152.279H27.0369L25.3926 155.1L23.6372 152.279H22.2152L24.626 156.145L22.2263 160H23.6372L25.2704 157.2L27.0147 160Z" fill="#C2C8CF"/>
<path d="M10.586 174.988C9.50629 175.308 8.7998 176.188 8.7998 177.401C8.7998 179.147 10.1728 180.267 12.199 180.267C14.2384 180.267 15.6248 179.147 15.6248 177.401C15.6248 176.201 14.9183 175.321 13.8252 174.988C14.7716 174.615 15.3715 173.815 15.3715 172.775C15.3715 171.375 14.2918 170.216 12.199 170.216C10.1061 170.216 9.03974 171.362 9.03974 172.775C9.03974 173.855 9.5996 174.601 10.586 174.988ZM12.199 174.588C11.0259 174.588 10.2128 173.935 10.2128 172.935C10.2128 171.802 11.0126 171.229 12.199 171.229C13.412 171.229 14.1985 171.815 14.1985 172.922C14.1985 173.922 13.3853 174.588 12.199 174.588ZM12.199 175.521C13.4653 175.521 14.4251 176.121 14.4251 177.361C14.4251 178.48 13.5719 179.254 12.199 179.254C10.826 179.254 9.95951 178.494 9.95951 177.361C9.95951 176.081 10.9593 175.521 12.199 175.521ZM20.3284 170.709H17.4358V180H20.3284C23.3809 180 25.2605 178.254 25.2605 175.374C25.2605 172.495 23.3809 170.709 20.3284 170.709ZM18.6488 179V171.695H20.3284C22.7544 171.695 24.0208 173.108 24.0208 175.374C24.0208 177.641 22.7544 179 20.3284 179H18.6488ZM29.7531 170.709H26.8605V180H29.7531C32.8057 180 34.6852 178.254 34.6852 175.374C34.6852 172.495 32.8057 170.709 29.7531 170.709ZM28.0735 179V171.695H29.7531C32.1792 171.695 33.4455 173.108 33.4455 175.374C33.4455 177.641 32.1792 179 29.7531 179H28.0735ZM36.0586 172.788H37.245C37.3649 171.855 38.0448 171.216 39.1778 171.216C40.3375 171.216 40.9507 171.855 40.9507 172.775C40.9507 173.895 40.0843 174.388 38.4713 174.401H38.1514V175.414H38.458C40.1909 175.414 41.1373 175.934 41.1373 177.294C41.1373 178.28 40.5242 179.04 39.2311 179.04C37.9515 179.04 37.205 178.254 37.085 177.227H35.912C36.0586 179.094 37.4183 180.067 39.2445 180.067C41.2573 180.067 42.297 178.894 42.297 177.401C42.297 176.014 41.5372 175.188 40.4175 174.921V174.855C41.4306 174.628 42.1238 173.762 42.1238 172.655C42.1238 171.269 41.0973 170.176 39.2178 170.176C37.4316 170.176 36.1786 171.136 36.0586 172.788ZM44.1348 180H45.3478V175.814H48.627V174.828H45.3478V171.695H49.3868V170.709H44.1348V180ZM50.6519 175.081C50.6519 177.881 51.3451 180 54.0111 180C56.6638 180 57.3569 177.881 57.3569 175.081C57.3569 172.322 56.6638 170.216 54.0111 170.216C51.3451 170.216 50.6519 172.322 50.6519 175.081ZM56.1572 175.081C56.1572 177.161 55.904 178.894 54.0111 178.894C52.1049 178.894 51.8516 177.161 51.8516 175.081C51.8516 173.082 52.1049 171.322 54.0111 171.322C55.904 171.322 56.1572 173.082 56.1572 175.081Z" fill="#5D6B7E"/>
<path d="M0 194H112V214C112 216.209 110.209 218 108 218H4C1.79086 218 0 216.209 0 214V194Z" fill="#EDEFF1"/>
<path d="M8.41107 206.123C8.41107 208.445 10.1776 210.067 12.3551 210.067C13.9661 210.067 15.3548 209.267 15.9437 207.756H14.4216C14.0105 208.578 13.2773 208.967 12.3551 208.967C10.8219 208.967 9.71094 207.867 9.71094 206.123C9.71094 204.378 10.8219 203.29 12.3551 203.29C13.2773 203.29 14.0105 203.678 14.4216 204.501H15.9437C15.3548 202.99 13.9661 202.179 12.3551 202.179C10.1776 202.179 8.41107 203.812 8.41107 206.123ZM17.4261 202.279V210H21.3035V208.978H18.6927V202.279H17.4261ZM29.8286 206.123C29.8286 203.812 28.0844 202.179 25.8846 202.179C23.707 202.179 21.9405 203.812 21.9405 206.123C21.9405 208.445 23.707 210.078 25.8846 210.078C28.0844 210.078 29.8286 208.445 29.8286 206.123ZM23.2404 206.123C23.2404 204.378 24.3514 203.29 25.8846 203.29C27.4178 203.29 28.5288 204.378 28.5288 206.123C28.5288 207.867 27.4178 208.978 25.8846 208.978C24.3514 208.978 23.2404 207.867 23.2404 206.123ZM31.0638 207.178C31.0638 209.145 32.4415 210.078 34.0635 210.078C35.6745 210.078 37.0966 209.145 37.0966 207.178V202.279H35.83V207.2C35.83 208.4 35.1523 208.967 34.0746 208.967C33.0081 208.967 32.3304 208.4 32.3304 207.2V202.279H31.0638V207.178ZM41.2676 202.279H38.7456V210H41.2676C43.7451 210 45.3672 208.545 45.3672 206.167C45.3672 203.778 43.7451 202.279 41.2676 202.279ZM40.0122 208.967V203.312H41.2676C43.0896 203.312 44.0673 204.401 44.0673 206.167C44.0673 207.922 43.0896 208.967 41.2676 208.967H40.0122ZM46.3558 209.889H51.7553V208.833H48.2334C49.5333 207.645 51.5331 206.145 51.5331 204.178C51.5331 202.723 50.5998 201.734 48.9555 201.734C47.5223 201.734 46.3891 202.59 46.3447 204.345H47.5668C47.6001 203.434 48.0778 202.812 48.9666 202.812C49.911 202.812 50.2776 203.39 50.2776 204.234C50.2776 205.823 48.2667 207.289 46.3558 208.967V209.889ZM52.8679 205.845C52.8679 208.2 53.4901 209.978 55.7565 209.978C58.0229 209.978 58.6451 208.2 58.6451 205.845C58.6451 203.534 58.0229 201.756 55.7565 201.756C53.4901 201.756 52.8679 203.534 52.8679 205.845ZM57.4008 205.845C57.4008 207.434 57.2341 208.822 55.7565 208.822C54.2789 208.822 54.1122 207.434 54.1122 205.845C54.1122 204.334 54.2789 202.912 55.7565 202.912C57.2341 202.912 57.4008 204.334 57.4008 205.845ZM59.9852 205.845C59.9852 208.2 60.6074 209.978 62.8738 209.978C65.1403 209.978 65.7624 208.2 65.7624 205.845C65.7624 203.534 65.1403 201.756 62.8738 201.756C60.6074 201.756 59.9852 203.534 59.9852 205.845ZM64.5181 205.845C64.5181 207.434 64.3515 208.822 62.8738 208.822C61.3962 208.822 61.2296 207.434 61.2296 205.845C61.2296 204.334 61.3962 202.912 62.8738 202.912C64.3515 202.912 64.5181 204.334 64.5181 205.845Z" fill="#9AA3AF"/>
</svg>
