<svg width="112" height="218" viewBox="0 0 112 218" fill="none" xmlns="http://www.w3.org/2000/svg">
<rect y="100" width="112" height="94" fill="#F9FAFA"/>
<path d="M0 4C0 1.79086 1.79086 0 4 0H108C110.209 0 112 1.79086 112 4V100H0V4Z" fill="#B3E2F5"/>
<path d="M13.9105 109.267V115.022L10.0998 109.267H8.83325V117H10.0998V111.234L13.9105 117H15.1771V109.267H13.9105ZM22.0509 117H23.3841L20.6177 109.267H19.1511L16.3848 117H17.7068L18.2623 115.422H21.4954L22.0509 117ZM21.1398 114.389H18.6179L19.8844 110.801L21.1398 114.389ZM24.5869 117H25.8534V111.712L28.2199 117H29.0975L31.4529 111.712V117H32.7194V109.279H31.364L28.6643 115.333L25.9534 109.279H24.5869V117ZM38.6503 109.267H34.3841V117H38.6503V115.967H35.6506V113.6H38.317V112.567H35.6506V110.301H38.6503V109.267Z" fill="#C2C8CF"/>
<path d="M15.0649 134.467C15.0649 131.028 10.0528 132.521 10.0528 130.122C10.0528 129.122 10.8393 128.602 11.839 128.629C12.9721 128.642 13.5586 129.349 13.6386 129.975H14.9716C14.825 128.562 13.6653 127.589 11.8924 127.589C10.0528 127.589 8.81313 128.629 8.81313 130.162C8.81313 133.614 13.8385 132.015 13.8385 134.521C13.8385 135.4 13.1454 136.067 11.9723 136.067C10.6793 136.067 10.1328 135.294 10.0528 134.521H8.75981C8.78647 136.054 10.1061 137.093 11.9723 137.093C13.9852 137.093 15.0649 135.787 15.0649 134.467ZM16.3968 133.321C16.3968 135.587 17.903 137.12 19.8492 137.12C21.1956 137.12 22.142 136.427 22.5819 135.64V137H23.8082V129.695H22.5819V131.028C22.1553 130.268 21.2222 129.575 19.8626 129.575C17.903 129.575 16.3968 131.041 16.3968 133.321ZM22.5819 133.334C22.5819 135.054 21.4355 136.054 20.1025 136.054C18.7695 136.054 17.6364 135.04 17.6364 133.321C17.6364 131.601 18.7695 130.628 20.1025 130.628C21.4355 130.628 22.5819 131.641 22.5819 133.334ZM25.8581 137H27.0712V129.695H25.8581V137ZM26.4846 128.509C26.9245 128.509 27.2845 128.149 27.2845 127.682C27.2845 127.216 26.9245 126.856 26.4846 126.856C26.0181 126.856 25.6582 127.216 25.6582 127.682C25.6582 128.149 26.0181 128.509 26.4846 128.509ZM29.1386 137H30.3516V127.136H29.1386V137Z" fill="#5D6B7E"/>
<path d="M13.7328 160H14.9993V152.279H13.7328V155.589H10.0998V152.279H8.83325V160H10.0998V156.623H13.7328V160ZM20.9329 152.267H16.6667V160H20.9329V158.967H17.9332V156.6H20.5996V155.567H17.9332V153.301H20.9329V152.267ZM27.0147 160H28.4368L26.037 156.145L28.4479 152.279H27.0369L25.3926 155.1L23.6372 152.279H22.2152L24.626 156.145L22.2263 160H23.6372L25.2704 157.2L27.0147 160Z" fill="#C2C8CF"/>
<path d="M14.3051 177.387C14.3051 178.4 13.5853 179 12.3856 179H10.2394V175.721H12.3456C13.532 175.721 14.3051 176.361 14.3051 177.387ZM14.0652 173.215C14.0652 174.161 13.412 174.721 12.2789 174.721H10.2394V171.709H12.2523C13.4386 171.709 14.0652 172.295 14.0652 173.215ZM15.5181 177.507C15.5181 176.361 14.6917 175.388 13.6786 175.215C14.5717 174.921 15.3048 174.241 15.3048 173.068C15.3048 171.775 14.3184 170.709 12.3589 170.709H9.02641V180H12.4922C14.4117 180 15.5181 178.907 15.5181 177.507ZM16.9748 172.788H18.1612C18.2812 171.855 18.961 171.216 20.0941 171.216C21.2538 171.216 21.8669 171.855 21.8669 172.775C21.8669 173.895 21.0005 174.388 19.3876 174.401H19.0676V175.414H19.3742C21.1071 175.414 22.0536 175.934 22.0536 177.294C22.0536 178.28 21.4404 179.04 20.1474 179.04C18.8677 179.04 18.1212 178.254 18.0012 177.227H16.8282C16.9748 179.094 18.3345 180.067 20.1607 180.067C22.1735 180.067 23.2133 178.894 23.2133 177.401C23.2133 176.014 22.4535 175.188 21.3337 174.921V174.855C22.3468 174.628 23.04 173.762 23.04 172.655C23.04 171.269 22.0136 170.176 20.134 170.176C18.3478 170.176 17.0948 171.136 16.9748 172.788ZM30.0498 170.696H25.051V180H30.0498V179H26.2641V175.801H29.6499V174.801H26.2641V171.695H30.0498V170.696ZM31.5387 179.893H37.9504V178.88H33.3649C35.0845 177.481 37.6705 175.441 37.6705 173.042C37.6705 171.256 36.4975 170.189 34.6846 170.189C32.9517 170.189 31.6587 171.256 31.5787 173.308H32.7517C32.805 172.095 33.4449 171.229 34.6979 171.229C36.0042 171.229 36.4708 172.029 36.4708 173.095C36.4708 175.068 34.0714 176.987 31.5387 179.027V179.893ZM39.5526 180H40.7657V175.814H44.0448V174.828H40.7657V171.695H44.8047V170.709H39.5526V180ZM46.4163 170.349V175.788H47.5627C47.8826 175.028 48.5891 174.521 49.5622 174.521C50.9619 174.521 51.6684 175.321 51.6684 176.694C51.6684 178.014 51.0152 179 49.5489 179C48.4158 179 47.6294 178.4 47.4027 177.387H46.2164C46.4563 178.947 47.616 180.027 49.5356 180.027C51.7883 180.027 52.8281 178.534 52.8281 176.668C52.8281 175.175 52.0816 173.482 49.7355 173.482C48.7891 173.482 47.936 173.908 47.5361 174.455V171.415H52.2149V170.349H46.4163Z" fill="#5D6B7E"/>
<path d="M0 194H112V214C112 216.209 110.209 218 108 218H4C1.79086 218 0 216.209 0 214V194Z" fill="#EDEFF1"/>
<path d="M8.41107 206.123C8.41107 208.445 10.1776 210.067 12.3551 210.067C13.9661 210.067 15.3548 209.267 15.9437 207.756H14.4216C14.0105 208.578 13.2773 208.967 12.3551 208.967C10.8219 208.967 9.71094 207.867 9.71094 206.123C9.71094 204.378 10.8219 203.29 12.3551 203.29C13.2773 203.29 14.0105 203.678 14.4216 204.501H15.9437C15.3548 202.99 13.9661 202.179 12.3551 202.179C10.1776 202.179 8.41107 203.812 8.41107 206.123ZM17.4261 202.279V210H21.3035V208.978H18.6927V202.279H17.4261ZM29.8286 206.123C29.8286 203.812 28.0844 202.179 25.8846 202.179C23.707 202.179 21.9405 203.812 21.9405 206.123C21.9405 208.445 23.707 210.078 25.8846 210.078C28.0844 210.078 29.8286 208.445 29.8286 206.123ZM23.2404 206.123C23.2404 204.378 24.3514 203.29 25.8846 203.29C27.4178 203.29 28.5288 204.378 28.5288 206.123C28.5288 207.867 27.4178 208.978 25.8846 208.978C24.3514 208.978 23.2404 207.867 23.2404 206.123ZM31.0638 207.178C31.0638 209.145 32.4415 210.078 34.0635 210.078C35.6745 210.078 37.0966 209.145 37.0966 207.178V202.279H35.83V207.2C35.83 208.4 35.1523 208.967 34.0746 208.967C33.0081 208.967 32.3304 208.4 32.3304 207.2V202.279H31.0638V207.178ZM41.2676 202.279H38.7456V210H41.2676C43.7451 210 45.3672 208.545 45.3672 206.167C45.3672 203.778 43.7451 202.279 41.2676 202.279ZM40.0122 208.967V203.312H41.2676C43.0896 203.312 44.0673 204.401 44.0673 206.167C44.0673 207.922 43.0896 208.967 41.2676 208.967H40.0122ZM47.3224 210H48.6V201.901H46.2891V203.056H47.3224V210ZM50.3399 205.845C50.3399 208.2 50.9621 209.978 53.2285 209.978C55.495 209.978 56.1171 208.2 56.1171 205.845C56.1171 203.534 55.495 201.756 53.2285 201.756C50.9621 201.756 50.3399 203.534 50.3399 205.845ZM54.8728 205.845C54.8728 207.434 54.7062 208.822 53.2285 208.822C51.7509 208.822 51.5843 207.434 51.5843 205.845C51.5843 204.334 51.7509 202.912 53.2285 202.912C54.7062 202.912 54.8728 204.334 54.8728 205.845ZM57.4573 205.845C57.4573 208.2 58.0795 209.978 60.3459 209.978C62.6123 209.978 63.2345 208.2 63.2345 205.845C63.2345 203.534 62.6123 201.756 60.3459 201.756C58.0795 201.756 57.4573 203.534 57.4573 205.845ZM61.9902 205.845C61.9902 207.434 61.8235 208.822 60.3459 208.822C58.8683 208.822 58.7016 207.434 58.7016 205.845C58.7016 204.334 58.8683 202.912 60.3459 202.912C61.8235 202.912 61.9902 204.334 61.9902 205.845Z" fill="#9AA3AF"/>
</svg>
