<svg width="112" height="218" viewBox="0 0 112 218" fill="none" xmlns="http://www.w3.org/2000/svg">
<rect y="100" width="112" height="94" fill="#F9FAFA"/>
<path d="M0 4C0 1.79086 1.79086 0 4 0H108C110.209 0 112 1.79086 112 4V100H0V4Z" fill="#3492B8"/>
<path d="M13.9105 109.267V115.022L10.0998 109.267H8.83325V117H10.0998V111.234L13.9105 117H15.1771V109.267H13.9105ZM22.0509 117H23.3841L20.6177 109.267H19.1511L16.3848 117H17.7068L18.2623 115.422H21.4954L22.0509 117ZM21.1398 114.389H18.6179L19.8844 110.801L21.1398 114.389ZM24.5869 117H25.8534V111.712L28.2199 117H29.0975L31.4529 111.712V117H32.7194V109.279H31.364L28.6643 115.333L25.9534 109.279H24.5869V117ZM38.6503 109.267H34.3841V117H38.6503V115.967H35.6506V113.6H38.317V112.567H35.6506V110.301H38.6503V109.267Z" fill="#C2C8CF"/>
<path d="M14.3051 134.387C14.3051 135.4 13.5853 136 12.3856 136H10.2394V132.721H12.3456C13.532 132.721 14.3051 133.361 14.3051 134.387ZM14.0652 130.215C14.0652 131.161 13.412 131.721 12.2789 131.721H10.2394V128.709H12.2523C13.4386 128.709 14.0652 129.295 14.0652 130.215ZM15.5181 134.507C15.5181 133.361 14.6917 132.388 13.6786 132.215C14.5717 131.921 15.3048 131.241 15.3048 130.068C15.3048 128.775 14.3184 127.709 12.3589 127.709H9.02641V137H12.4922C14.4117 137 15.5181 135.907 15.5181 134.507ZM24.133 133.334C24.133 131.028 22.5201 129.575 20.4406 129.575C18.3745 129.575 16.7482 131.028 16.7482 133.334C16.7482 135.654 18.3212 137.12 20.3873 137.12C22.4668 137.12 24.133 135.654 24.133 133.334ZM17.9879 133.334C17.9879 131.495 19.1476 130.628 20.4273 130.628C21.6803 130.628 22.8934 131.495 22.8934 133.334C22.8934 135.187 21.6537 136.054 20.3873 136.054C19.121 136.054 17.9879 135.187 17.9879 133.334ZM30.98 135.014C30.9267 132.401 26.6877 133.348 26.6877 131.615C26.6877 131.028 27.2209 130.602 28.114 130.602C29.0871 130.602 29.647 131.135 29.7003 131.868H30.9133C30.8334 130.442 29.767 129.575 28.154 129.575C26.5278 129.575 25.4747 130.495 25.4747 131.615C25.4747 134.334 29.7936 133.388 29.7936 135.014C29.7936 135.614 29.2604 136.094 28.3007 136.094C27.2742 136.094 26.6477 135.56 26.5811 134.854H25.3281C25.408 136.187 26.6077 137.12 28.314 137.12C29.9269 137.12 30.98 136.214 30.98 135.014ZM32.959 135C32.959 136.467 33.6921 137 34.9851 137H36.0782V135.974H35.1851C34.4386 135.974 34.172 135.72 34.172 135V130.695H36.0782V129.695H34.172V127.856H32.959V129.695H32.0125V130.695H32.959V135ZM44.4795 133.334C44.4795 131.028 42.8666 129.575 40.7871 129.575C38.721 129.575 37.0947 131.028 37.0947 133.334C37.0947 135.654 38.6676 137.12 40.7338 137.12C42.8133 137.12 44.4795 135.654 44.4795 133.334ZM38.3344 133.334C38.3344 131.495 39.4941 130.628 40.7738 130.628C42.0268 130.628 43.2398 131.495 43.2398 133.334C43.2398 135.187 42.0001 136.054 40.7338 136.054C39.4674 136.054 38.3344 135.187 38.3344 133.334ZM51.4198 137H52.6195V132.694C52.6195 130.602 51.3265 129.562 49.6335 129.562C48.6471 129.562 47.7673 129.975 47.2875 130.735V129.695H46.0744V137H47.2875V132.961C47.2875 131.388 48.1406 130.615 49.3803 130.615C50.6066 130.615 51.4198 131.375 51.4198 132.868V137ZM63.4334 134.387C63.4334 135.4 62.7136 136 61.5139 136H59.3678V132.721H61.4739C62.6603 132.721 63.4334 133.361 63.4334 134.387ZM63.1935 130.215C63.1935 131.161 62.5403 131.721 61.4073 131.721H59.3678V128.709H61.3806C62.567 128.709 63.1935 129.295 63.1935 130.215ZM64.6465 134.507C64.6465 133.361 63.82 132.388 62.8069 132.215C63.7 131.921 64.4332 131.241 64.4332 130.068C64.4332 128.775 63.4468 127.709 61.4873 127.709H58.1548V137H61.6206C63.5401 137 64.6465 135.907 64.6465 134.507ZM66.3298 137H67.5428V127.136H66.3298V137ZM76.0886 129.695H74.8756V133.707C74.8756 135.28 74.0358 136.054 72.7828 136.054C71.5564 136.054 70.7433 135.294 70.7433 133.814V129.695H69.5436V133.974C69.5436 136.067 70.8632 137.107 72.5428 137.107C73.5159 137.107 74.409 136.68 74.8756 135.92V137H76.0886V129.695ZM81.2426 130.602C82.4956 130.602 83.562 131.388 83.5487 132.814H78.9365C79.0698 131.388 80.0563 130.602 81.2426 130.602ZM84.6551 134.747H83.3488C83.0822 135.534 82.389 136.094 81.2959 136.094C80.0563 136.094 79.0165 135.28 78.9232 133.801H84.7617C84.7884 133.548 84.8017 133.334 84.8017 133.068C84.8017 131.068 83.4154 129.575 81.2959 129.575C79.1631 129.575 77.6835 131.028 77.6835 133.334C77.6835 135.654 79.2165 137.12 81.2959 137.12C83.1088 137.12 84.2819 136.08 84.6551 134.747Z" fill="#5D6B7E"/>
<path d="M13.7328 160H14.9993V152.279H13.7328V155.589H10.0998V152.279H8.83325V160H10.0998V156.623H13.7328V160ZM20.9329 152.267H16.6667V160H20.9329V158.967H17.9332V156.6H20.5996V155.567H17.9332V153.301H20.9329V152.267ZM27.0147 160H28.4368L26.037 156.145L28.4479 152.279H27.0369L25.3926 155.1L23.6372 152.279H22.2152L24.626 156.145L22.2263 160H23.6372L25.2704 157.2L27.0147 160Z" fill="#C2C8CF"/>
<path d="M8.7998 172.788H9.98617C10.1061 171.855 10.786 171.216 11.919 171.216C13.0787 171.216 13.6919 171.855 13.6919 172.775C13.6919 173.895 12.8255 174.388 11.2125 174.401H10.8926V175.414H11.1992C12.9321 175.414 13.8785 175.934 13.8785 177.294C13.8785 178.28 13.2654 179.04 11.9723 179.04C10.6927 179.04 9.94618 178.254 9.82621 177.227H8.65317C8.7998 179.094 10.1595 180.067 11.9857 180.067C13.9985 180.067 15.0382 178.894 15.0382 177.401C15.0382 176.014 14.2784 175.188 13.1587 174.921V174.855C14.1718 174.628 14.865 173.762 14.865 172.655C14.865 171.269 13.8385 170.176 11.959 170.176C10.1728 170.176 8.91977 171.136 8.7998 172.788ZM21.3149 180H22.5146V177.854H23.8476V176.801H22.5146V170.456H21.0616L16.3828 176.934V177.854H21.3149V180ZM17.7824 176.801L21.3682 171.722V176.801H17.7824ZM25.4993 177.414C25.6326 178.827 26.5657 180.013 28.4852 180.013C31.0179 180.013 31.751 178.214 31.751 175.001C31.751 172.015 30.9912 170.176 28.3785 170.176C26.2991 170.176 25.206 171.509 25.206 173.348C25.206 175.388 26.5257 176.494 28.2986 176.494C29.3383 176.494 30.2981 176.028 30.6846 175.215C30.7246 178.04 29.9648 179 28.5518 179C27.4321 179 26.7923 178.414 26.619 177.414H25.4993ZM28.4985 175.468C27.0589 175.468 26.3657 174.561 26.3657 173.322C26.3657 172.042 27.1522 171.189 28.4052 171.189C29.7915 171.189 30.538 172.109 30.538 173.415C30.538 174.708 29.6582 175.468 28.4985 175.468ZM33.3091 179.893H39.7208V178.88H35.1353C36.8549 177.481 39.4409 175.441 39.4409 173.042C39.4409 171.256 38.2678 170.189 36.455 170.189C34.7221 170.189 33.4291 171.256 33.3491 173.308H34.5221C34.5754 172.095 35.2153 171.229 36.4683 171.229C37.7746 171.229 38.2412 172.029 38.2412 173.095C38.2412 175.068 35.8418 176.987 33.3091 179.027V179.893ZM46.6017 177.387C46.6017 178.4 45.8819 179 44.6822 179H42.5361V175.721H44.6422C45.8286 175.721 46.6017 176.361 46.6017 177.387ZM46.3618 173.215C46.3618 174.161 45.7086 174.721 44.5755 174.721H42.5361V171.709H44.5489C45.7353 171.709 46.3618 172.295 46.3618 173.215ZM47.8147 177.507C47.8147 176.361 46.9883 175.388 45.9752 175.215C46.8683 174.921 47.6015 174.241 47.6015 173.068C47.6015 171.775 46.615 170.709 44.6555 170.709H41.323V180H44.7888C46.7083 180 47.8147 178.907 47.8147 177.507ZM51.0577 174.988C49.9779 175.308 49.2714 176.188 49.2714 177.401C49.2714 179.147 50.6444 180.267 52.6706 180.267C54.7101 180.267 56.0964 179.147 56.0964 177.401C56.0964 176.201 55.3899 175.321 54.2969 174.988C55.2433 174.615 55.8431 173.815 55.8431 172.775C55.8431 171.375 54.7634 170.216 52.6706 170.216C50.5778 170.216 49.5114 171.362 49.5114 172.775C49.5114 173.855 50.0712 174.601 51.0577 174.988ZM52.6706 174.588C51.4976 174.588 50.6844 173.935 50.6844 172.935C50.6844 171.802 51.4842 171.229 52.6706 171.229C53.8836 171.229 54.6701 171.815 54.6701 172.922C54.6701 173.922 53.857 174.588 52.6706 174.588ZM52.6706 175.521C53.9369 175.521 54.8967 176.121 54.8967 177.361C54.8967 178.48 54.0436 179.254 52.6706 179.254C51.2976 179.254 50.4312 178.494 50.4312 177.361C50.4312 176.081 51.4309 175.521 52.6706 175.521Z" fill="#5D6B7E"/>
<path d="M0 194H112V214C112 216.209 110.209 218 108 218H4C1.79086 218 0 216.209 0 214V194Z" fill="#EDEFF1"/>
<path d="M8.41107 206.123C8.41107 208.445 10.1776 210.067 12.3551 210.067C13.9661 210.067 15.3548 209.267 15.9437 207.756H14.4216C14.0105 208.578 13.2773 208.967 12.3551 208.967C10.8219 208.967 9.71094 207.867 9.71094 206.123C9.71094 204.378 10.8219 203.29 12.3551 203.29C13.2773 203.29 14.0105 203.678 14.4216 204.501H15.9437C15.3548 202.99 13.9661 202.179 12.3551 202.179C10.1776 202.179 8.41107 203.812 8.41107 206.123ZM17.4261 202.279V210H21.3035V208.978H18.6927V202.279H17.4261ZM29.8286 206.123C29.8286 203.812 28.0844 202.179 25.8846 202.179C23.707 202.179 21.9405 203.812 21.9405 206.123C21.9405 208.445 23.707 210.078 25.8846 210.078C28.0844 210.078 29.8286 208.445 29.8286 206.123ZM23.2404 206.123C23.2404 204.378 24.3514 203.29 25.8846 203.29C27.4178 203.29 28.5288 204.378 28.5288 206.123C28.5288 207.867 27.4178 208.978 25.8846 208.978C24.3514 208.978 23.2404 207.867 23.2404 206.123ZM31.0638 207.178C31.0638 209.145 32.4415 210.078 34.0635 210.078C35.6745 210.078 37.0966 209.145 37.0966 207.178V202.279H35.83V207.2C35.83 208.4 35.1523 208.967 34.0746 208.967C33.0081 208.967 32.3304 208.4 32.3304 207.2V202.279H31.0638V207.178ZM41.2676 202.279H38.7456V210H41.2676C43.7451 210 45.3672 208.545 45.3672 206.167C45.3672 203.778 43.7451 202.279 41.2676 202.279ZM40.0122 208.967V203.312H41.2676C43.0896 203.312 44.0673 204.401 44.0673 206.167C44.0673 207.922 43.0896 208.967 41.2676 208.967H40.0122ZM46.7891 201.879V206.556H47.989C48.2001 205.956 48.7 205.545 49.4444 205.545C50.4998 205.545 51.022 206.145 51.022 207.2C51.022 208.2 50.5332 208.945 49.4444 208.945C48.5889 208.945 48.0112 208.5 47.8445 207.811H46.6113C46.8002 209.078 47.7668 210 49.4333 210C51.3109 210 52.233 208.778 52.233 207.167C52.233 205.945 51.6219 204.467 49.6332 204.467C48.9111 204.467 48.2556 204.801 47.9556 205.2V202.99H51.6775V201.879H46.7891ZM53.5514 205.845C53.5514 208.2 54.1736 209.978 56.44 209.978C58.7065 209.978 59.3286 208.2 59.3286 205.845C59.3286 203.534 58.7065 201.756 56.44 201.756C54.1736 201.756 53.5514 203.534 53.5514 205.845ZM58.0843 205.845C58.0843 207.434 57.9177 208.822 56.44 208.822C54.9624 208.822 54.7958 207.434 54.7958 205.845C54.7958 204.334 54.9624 202.912 56.44 202.912C57.9177 202.912 58.0843 204.334 58.0843 205.845ZM60.6688 205.845C60.6688 208.2 61.2909 209.978 63.5574 209.978C65.8238 209.978 66.446 208.2 66.446 205.845C66.446 203.534 65.8238 201.756 63.5574 201.756C61.2909 201.756 60.6688 203.534 60.6688 205.845ZM65.2017 205.845C65.2017 207.434 65.035 208.822 63.5574 208.822C62.0797 208.822 61.9131 207.434 61.9131 205.845C61.9131 204.334 62.0797 202.912 63.5574 202.912C65.035 202.912 65.2017 204.334 65.2017 205.845Z" fill="#9AA3AF"/>
</svg>
