<svg width="112" height="218" viewBox="0 0 112 218" fill="none" xmlns="http://www.w3.org/2000/svg">
<rect y="100" width="112" height="94" fill="#F9FAFA"/>
<path d="M0 4C0 1.79086 1.79086 0 4 0H108C110.209 0 112 1.79086 112 4V100H0V4Z" fill="#276D8A"/>
<path d="M13.9105 109.267V115.022L10.0998 109.267H8.83325V117H10.0998V111.234L13.9105 117H15.1771V109.267H13.9105ZM22.0509 117H23.3841L20.6177 109.267H19.1511L16.3848 117H17.7068L18.2623 115.422H21.4954L22.0509 117ZM21.1398 114.389H18.6179L19.8844 110.801L21.1398 114.389ZM24.5869 117H25.8534V111.712L28.2199 117H29.0975L31.4529 111.712V117H32.7194V109.279H31.364L28.6643 115.333L25.9534 109.279H24.5869V117ZM38.6503 109.267H34.3841V117H38.6503V115.967H35.6506V113.6H38.317V112.567H35.6506V110.301H38.6503V109.267Z" fill="#C2C8CF"/>
<path d="M12.4789 134.574C12.4789 135.347 12.0923 136.014 11.1326 136.014C10.1728 136.014 9.77289 135.334 9.75956 134.481H8.54653C8.54653 136.107 9.58627 137.093 11.1326 137.093C12.6655 137.093 13.7052 136.12 13.7052 134.574V127.709H12.4789V134.574ZM19.2008 130.602C20.4539 130.602 21.5203 131.388 21.5069 132.814H16.8948C17.0281 131.388 18.0145 130.602 19.2008 130.602ZM22.6133 134.747H21.307C21.0404 135.534 20.3472 136.094 19.2542 136.094C18.0145 136.094 16.9747 135.28 16.8814 133.801H22.72C22.7466 133.548 22.76 133.334 22.76 133.068C22.76 131.068 21.3736 129.575 19.2542 129.575C17.1214 129.575 15.6417 131.028 15.6417 133.334C15.6417 135.654 17.1747 137.12 19.2542 137.12C21.067 137.12 22.2401 136.08 22.6133 134.747ZM24.3611 137H25.5741V127.136H24.3611V137ZM27.6415 137H28.8546V127.136H27.6415V137ZM33.6946 135.614L31.4019 129.695H30.0555L33.0015 136.92L31.5618 140.439H32.8148L37.2137 129.695H35.9607L33.6946 135.614ZM47.2656 134.387C47.2656 135.4 46.5458 136 45.3461 136H43.1999V132.721H45.3061C46.4925 132.721 47.2656 133.361 47.2656 134.387ZM47.0257 130.215C47.0257 131.161 46.3725 131.721 45.2394 131.721H43.1999V128.709H45.2128C46.3991 128.709 47.0257 129.295 47.0257 130.215ZM48.4786 134.507C48.4786 133.361 47.6522 132.388 46.6391 132.215C47.5322 131.921 48.2653 131.241 48.2653 130.068C48.2653 128.775 47.2789 127.709 45.3194 127.709H41.9869V137H45.4527C47.3722 137 48.4786 135.907 48.4786 134.507ZM53.2678 130.602C54.5209 130.602 55.5873 131.388 55.5739 132.814H50.9618C51.0951 131.388 52.0815 130.602 53.2678 130.602ZM56.6803 134.747H55.374C55.1074 135.534 54.4142 136.094 53.3212 136.094C52.0815 136.094 51.0417 135.28 50.9484 133.801H56.787C56.8136 133.548 56.827 133.334 56.827 133.068C56.827 131.068 55.4406 129.575 53.3212 129.575C51.1884 129.575 49.7087 131.028 49.7087 133.334C49.7087 135.654 51.2417 137.12 53.3212 137.12C55.134 137.12 56.3071 136.08 56.6803 134.747ZM57.9749 133.321C57.9749 135.587 59.4812 137.12 61.4274 137.12C62.7737 137.12 63.7201 136.427 64.16 135.64V137H65.3864V129.695H64.16V131.028C63.7335 130.268 62.8004 129.575 61.4407 129.575C59.4812 129.575 57.9749 131.041 57.9749 133.321ZM64.16 133.334C64.16 135.054 63.0136 136.054 61.6806 136.054C60.3476 136.054 59.2146 135.04 59.2146 133.321C59.2146 131.601 60.3476 130.628 61.6806 130.628C63.0136 130.628 64.16 131.641 64.16 133.334ZM72.7816 137H73.9813V132.694C73.9813 130.602 72.6883 129.562 70.9954 129.562C70.009 129.562 69.1292 129.975 68.6493 130.735V129.695H67.4363V137H68.6493V132.961C68.6493 131.388 69.5024 130.615 70.7421 130.615C71.9685 130.615 72.7816 131.375 72.7816 132.868V137Z" fill="#5D6B7E"/>
<path d="M13.7328 160H14.9993V152.279H13.7328V155.589H10.0998V152.279H8.83325V160H10.0998V156.623H13.7328V160ZM20.9329 152.267H16.6667V160H20.9329V158.967H17.9332V156.6H20.5996V155.567H17.9332V153.301H20.9329V152.267ZM27.0147 160H28.4368L26.037 156.145L28.4479 152.279H27.0369L25.3926 155.1L23.6372 152.279H22.2152L24.626 156.145L22.2263 160H23.6372L25.2704 157.2L27.0147 160Z" fill="#C2C8CF"/>
<path d="M8.67983 179.893H15.0916V178.88H10.506C12.2256 177.481 14.8116 175.441 14.8116 173.042C14.8116 171.256 13.6386 170.189 11.8257 170.189C10.0928 170.189 8.7998 171.256 8.71982 173.308H9.89286C9.94618 172.095 10.586 171.229 11.839 171.229C13.1454 171.229 13.6119 172.029 13.6119 173.095C13.6119 175.068 11.2125 176.987 8.67983 179.027V179.893ZM16.1072 170.389V171.429H21.2526L17.4936 180H18.7199L22.4257 171.309V170.389H16.1072ZM30.2623 172.655C30.1024 171.309 29.1693 170.162 27.3297 170.162C24.8904 170.162 23.9173 172.029 23.9173 175.055C23.9173 177.974 24.5971 180.027 27.4497 180.027C29.5559 180.027 30.5956 178.587 30.5956 176.827C30.5956 174.801 29.3826 173.615 27.583 173.615C26.4366 173.615 25.3836 174.148 24.9703 175.095C24.957 172.229 25.7835 171.176 27.3164 171.176C28.4095 171.176 28.956 171.722 29.1426 172.655H30.2623ZM27.3297 174.641C28.7161 174.641 29.4226 175.508 29.4226 176.867C29.4226 178.174 28.6361 179.014 27.3831 179.014C25.8634 179.014 25.117 178.014 25.117 176.734C25.117 175.295 26.2234 174.641 27.3297 174.641ZM35.3246 170.709H32.432V180H35.3246C38.3772 180 40.2567 178.254 40.2567 175.374C40.2567 172.495 38.3772 170.709 35.3246 170.709ZM33.645 179V171.695H35.3246C37.7507 171.695 39.017 173.108 39.017 175.374C39.017 177.641 37.7507 179 35.3246 179H33.645ZM43.4163 174.988C42.3366 175.308 41.6301 176.188 41.6301 177.401C41.6301 179.147 43.0031 180.267 45.0293 180.267C47.0688 180.267 48.4551 179.147 48.4551 177.401C48.4551 176.201 47.7486 175.321 46.6555 174.988C47.602 174.615 48.2018 173.815 48.2018 172.775C48.2018 171.375 47.1221 170.216 45.0293 170.216C42.9365 170.216 41.8701 171.362 41.8701 172.775C41.8701 173.855 42.4299 174.601 43.4163 174.988ZM45.0293 174.588C43.8562 174.588 43.0431 173.935 43.0431 172.935C43.0431 171.802 43.8429 171.229 45.0293 171.229C46.2423 171.229 47.0288 171.815 47.0288 172.922C47.0288 173.922 46.2157 174.588 45.0293 174.588ZM45.0293 175.521C46.2956 175.521 47.2554 176.121 47.2554 177.361C47.2554 178.48 46.4023 179.254 45.0293 179.254C43.6563 179.254 42.7898 178.494 42.7898 177.361C42.7898 176.081 43.7896 175.521 45.0293 175.521ZM56.5045 180H57.7842L54.4384 170.762H53.0387L49.6796 180H50.9593L51.7057 177.934H55.7581L56.5045 180ZM55.4115 176.947H52.0523L53.7319 172.255L55.4115 176.947Z" fill="#5D6B7E"/>
<path d="M0 194H112V214C112 216.209 110.209 218 108 218H4C1.79086 218 0 216.209 0 214V194Z" fill="#EDEFF1"/>
<path d="M8.41107 206.123C8.41107 208.445 10.1776 210.067 12.3551 210.067C13.9661 210.067 15.3548 209.267 15.9437 207.756H14.4216C14.0105 208.578 13.2773 208.967 12.3551 208.967C10.8219 208.967 9.71094 207.867 9.71094 206.123C9.71094 204.378 10.8219 203.29 12.3551 203.29C13.2773 203.29 14.0105 203.678 14.4216 204.501H15.9437C15.3548 202.99 13.9661 202.179 12.3551 202.179C10.1776 202.179 8.41107 203.812 8.41107 206.123ZM17.4261 202.279V210H21.3035V208.978H18.6927V202.279H17.4261ZM29.8286 206.123C29.8286 203.812 28.0844 202.179 25.8846 202.179C23.707 202.179 21.9405 203.812 21.9405 206.123C21.9405 208.445 23.707 210.078 25.8846 210.078C28.0844 210.078 29.8286 208.445 29.8286 206.123ZM23.2404 206.123C23.2404 204.378 24.3514 203.29 25.8846 203.29C27.4178 203.29 28.5288 204.378 28.5288 206.123C28.5288 207.867 27.4178 208.978 25.8846 208.978C24.3514 208.978 23.2404 207.867 23.2404 206.123ZM31.0638 207.178C31.0638 209.145 32.4415 210.078 34.0635 210.078C35.6745 210.078 37.0966 209.145 37.0966 207.178V202.279H35.83V207.2C35.83 208.4 35.1523 208.967 34.0746 208.967C33.0081 208.967 32.3304 208.4 32.3304 207.2V202.279H31.0638V207.178ZM41.2676 202.279H38.7456V210H41.2676C43.7451 210 45.3672 208.545 45.3672 206.167C45.3672 203.778 43.7451 202.279 41.2676 202.279ZM40.0122 208.967V203.312H41.2676C43.0896 203.312 44.0673 204.401 44.0673 206.167C44.0673 207.922 43.0896 208.967 41.2676 208.967H40.0122ZM51.9775 203.778C51.8441 202.701 51.0553 201.701 49.4777 201.701C47.4557 201.701 46.6113 203.234 46.6113 205.767C46.6113 208.345 47.2224 210 49.5777 210C51.3109 210 52.233 208.833 52.233 207.3C52.233 205.612 51.1998 204.634 49.7443 204.634C48.9 204.634 48.1001 204.989 47.7001 205.656C47.7334 203.534 48.3223 202.756 49.4666 202.756C50.2665 202.756 50.6554 203.123 50.8109 203.778H51.9775ZM49.4666 205.7C50.5332 205.7 51.022 206.389 51.022 207.356C51.022 208.311 50.4443 208.945 49.511 208.945C48.4334 208.945 47.8445 208.278 47.8445 207.278C47.8445 206.2 48.6333 205.7 49.4666 205.7ZM53.584 205.845C53.584 208.2 54.2061 209.978 56.4726 209.978C58.739 209.978 59.3612 208.2 59.3612 205.845C59.3612 203.534 58.739 201.756 56.4726 201.756C54.2061 201.756 53.584 203.534 53.584 205.845ZM58.1169 205.845C58.1169 207.434 57.9502 208.822 56.4726 208.822C54.995 208.822 54.8283 207.434 54.8283 205.845C54.8283 204.334 54.995 202.912 56.4726 202.912C57.9502 202.912 58.1169 204.334 58.1169 205.845ZM60.7013 205.845C60.7013 208.2 61.3235 209.978 63.5899 209.978C65.8564 209.978 66.4785 208.2 66.4785 205.845C66.4785 203.534 65.8564 201.756 63.5899 201.756C61.3235 201.756 60.7013 203.534 60.7013 205.845ZM65.2342 205.845C65.2342 207.434 65.0676 208.822 63.5899 208.822C62.1123 208.822 61.9456 207.434 61.9456 205.845C61.9456 204.334 62.1123 202.912 63.5899 202.912C65.0676 202.912 65.2342 204.334 65.2342 205.845Z" fill="#9AA3AF"/>
</svg>
