<svg width="176" height="218" viewBox="0 0 176 218" fill="none" xmlns="http://www.w3.org/2000/svg">
<rect y="100" width="176" height="94" fill="#F9FAFA"/>
<path d="M0 194H176V214C176 216.209 174.209 218 172 218H4C1.79086 218 0 216.209 0 214V194Z" fill="#EDEFF1"/>
<path d="M0 4C0 1.79086 1.79086 0 4 0H172C174.209 0 176 1.79086 176 4V100H0V4Z" fill="#41B6E6"/>
<path d="M13.9105 109.267V115.022L10.0998 109.267H8.83325V117H10.0998V111.234L13.9105 117H15.1771V109.267H13.9105ZM22.0509 117H23.3841L20.6177 109.267H19.1511L16.3848 117H17.7068L18.2623 115.422H21.4954L22.0509 117ZM21.1398 114.389H18.6179L19.8844 110.801L21.1398 114.389ZM24.5869 117H25.8534V111.712L28.2199 117H29.0975L31.4529 111.712V117H32.7194V109.279H31.364L28.6643 115.333L25.9534 109.279H24.5869V117ZM38.6503 109.267H34.3841V117H38.6503V115.967H35.6506V113.6H38.317V112.567H35.6506V110.301H38.6503V109.267Z" fill="#C2C8CF"/>
<path d="M10.2394 132.121V128.709H12.0257C13.412 128.709 13.9985 129.349 13.9985 130.428C13.9985 131.468 13.412 132.121 12.0257 132.121H10.2394ZM15.2382 130.428C15.2382 128.909 14.2118 127.709 12.0257 127.709H9.02641V137H10.2394V133.121H12.0257C14.3318 133.121 15.2382 131.841 15.2382 130.428ZM16.7458 137H17.9589V129.695H16.7458V137ZM17.3723 128.509C17.8122 128.509 18.1721 128.149 18.1721 127.682C18.1721 127.216 17.8122 126.856 17.3723 126.856C16.9058 126.856 16.5459 127.216 16.5459 127.682C16.5459 128.149 16.9058 128.509 17.3723 128.509ZM19.573 133.334C19.573 135.654 21.0527 137.12 23.1322 137.12C24.945 137.12 26.1314 136.107 26.5046 134.654H25.1983C24.9317 135.574 24.2119 136.094 23.1322 136.094C21.7992 136.094 20.8127 135.147 20.8127 133.334C20.8127 131.548 21.7992 130.602 23.1322 130.602C24.2119 130.602 24.945 131.161 25.1983 132.041H26.5046C26.1314 130.508 24.945 129.575 23.1322 129.575C21.0527 129.575 19.573 131.041 19.573 133.334ZM28.3898 135C28.3898 136.467 29.1229 137 30.416 137H31.509V135.974H30.6159C29.8694 135.974 29.6028 135.72 29.6028 135V130.695H31.509V129.695H29.6028V127.856H28.3898V129.695H27.4434V130.695H28.3898V135ZM39.9104 133.334C39.9104 131.028 38.2974 129.575 36.2179 129.575C34.1518 129.575 32.5255 131.028 32.5255 133.334C32.5255 135.654 34.0985 137.12 36.1646 137.12C38.2441 137.12 39.9104 135.654 39.9104 133.334ZM33.7652 133.334C33.7652 131.495 34.9249 130.628 36.2046 130.628C37.4576 130.628 38.6707 131.495 38.6707 133.334C38.6707 135.187 37.431 136.054 36.1646 136.054C34.8983 136.054 33.7652 135.187 33.7652 133.334ZM46.8506 137H48.0503V132.694C48.0503 130.602 46.7573 129.562 45.0644 129.562C44.078 129.562 43.1982 129.975 42.7183 130.735V129.695H41.5053V137H42.7183V132.961C42.7183 131.388 43.5714 130.615 44.8111 130.615C46.0375 130.615 46.8506 131.375 46.8506 132.868V137Z" fill="#5D6B7E"/>
<path d="M8.41107 206.123C8.41107 208.445 10.1776 210.067 12.3551 210.067C13.9661 210.067 15.3548 209.267 15.9437 207.756H14.4216C14.0105 208.578 13.2773 208.967 12.3551 208.967C10.8219 208.967 9.71094 207.867 9.71094 206.123C9.71094 204.378 10.8219 203.29 12.3551 203.29C13.2773 203.29 14.0105 203.678 14.4216 204.501H15.9437C15.3548 202.99 13.9661 202.179 12.3551 202.179C10.1776 202.179 8.41107 203.812 8.41107 206.123ZM17.4261 202.279V210H21.3035V208.978H18.6927V202.279H17.4261ZM29.8286 206.123C29.8286 203.812 28.0844 202.179 25.8846 202.179C23.707 202.179 21.9405 203.812 21.9405 206.123C21.9405 208.445 23.707 210.078 25.8846 210.078C28.0844 210.078 29.8286 208.445 29.8286 206.123ZM23.2404 206.123C23.2404 204.378 24.3514 203.29 25.8846 203.29C27.4178 203.29 28.5288 204.378 28.5288 206.123C28.5288 207.867 27.4178 208.978 25.8846 208.978C24.3514 208.978 23.2404 207.867 23.2404 206.123ZM31.0638 207.178C31.0638 209.145 32.4415 210.078 34.0635 210.078C35.6745 210.078 37.0966 209.145 37.0966 207.178V202.279H35.83V207.2C35.83 208.4 35.1523 208.967 34.0746 208.967C33.0081 208.967 32.3304 208.4 32.3304 207.2V202.279H31.0638V207.178ZM41.2676 202.279H38.7456V210H41.2676C43.7451 210 45.3672 208.545 45.3672 206.167C45.3672 203.778 43.7451 202.279 41.2676 202.279ZM40.0122 208.967V203.312H41.2676C43.0896 203.312 44.0673 204.401 44.0673 206.167C44.0673 207.922 43.0896 208.967 41.2676 208.967H40.0122ZM50.3221 210H51.5664V208.311H52.5996V207.211H51.5664V202.001H50.0332L46.3002 207.356V208.311H50.3221V210ZM47.7557 207.211L50.3776 203.29V207.211H47.7557ZM53.6491 205.845C53.6491 208.2 54.2712 209.978 56.5377 209.978C58.8041 209.978 59.4263 208.2 59.4263 205.845C59.4263 203.534 58.8041 201.756 56.5377 201.756C54.2712 201.756 53.6491 203.534 53.6491 205.845ZM58.182 205.845C58.182 207.434 58.0153 208.822 56.5377 208.822C55.06 208.822 54.8934 207.434 54.8934 205.845C54.8934 204.334 55.06 202.912 56.5377 202.912C58.0153 202.912 58.182 204.334 58.182 205.845ZM60.7664 205.845C60.7664 208.2 61.3886 209.978 63.655 209.978C65.9215 209.978 66.5436 208.2 66.5436 205.845C66.5436 203.534 65.9215 201.756 63.655 201.756C61.3886 201.756 60.7664 203.534 60.7664 205.845ZM65.2993 205.845C65.2993 207.434 65.1327 208.822 63.655 208.822C62.1774 208.822 62.0107 207.434 62.0107 205.845C62.0107 204.334 62.1774 202.912 63.655 202.912C65.1327 202.912 65.2993 204.334 65.2993 205.845Z" fill="#9AA3AF"/>
<path d="M117.733 160H118.999V152.279H117.733V155.589H114.1V152.279H112.833V160H114.1V156.623H117.733V160ZM124.933 152.267H120.667V160H124.933V158.967H121.933V156.6H124.6V155.567H121.933V153.301H124.933V152.267ZM131.015 160H132.437L130.037 156.145L132.448 152.279H131.037L129.393 155.1L127.637 152.279H126.215L128.626 156.145L126.226 160H127.637L129.27 157.2L131.015 160Z" fill="#C2C8CF"/>
<path d="M117.465 180H118.665V177.854H119.998V176.801H118.665V170.456H117.212L112.533 176.934V177.854H117.465V180ZM113.933 176.801L117.519 171.722V176.801H113.933ZM122.17 180H123.396V170.362H120.89V171.469H122.17V180ZM130.958 177.387C130.958 178.4 130.238 179 129.039 179H126.893V175.721H128.999C130.185 175.721 130.958 176.361 130.958 177.387ZM130.718 173.215C130.718 174.161 130.065 174.721 128.932 174.721H126.893V171.709H128.905C130.092 171.709 130.718 172.295 130.718 173.215ZM132.171 177.507C132.171 176.361 131.345 175.388 130.332 175.215C131.225 174.921 131.958 174.241 131.958 173.068C131.958 171.775 130.972 170.709 129.012 170.709H125.679V180H129.145C131.065 180 132.171 178.907 132.171 177.507ZM140.146 172.655C139.986 171.309 139.053 170.162 137.214 170.162C134.774 170.162 133.801 172.029 133.801 175.055C133.801 177.974 134.481 180.027 137.334 180.027C139.44 180.027 140.48 178.587 140.48 176.827C140.48 174.801 139.267 173.615 137.467 173.615C136.321 173.615 135.268 174.148 134.854 175.095C134.841 172.229 135.667 171.176 137.2 171.176C138.293 171.176 138.84 171.722 139.027 172.655H140.146ZM137.214 174.641C138.6 174.641 139.307 175.508 139.307 176.867C139.307 178.174 138.52 179.014 137.267 179.014C135.747 179.014 135.001 178.014 135.001 176.734C135.001 175.295 136.107 174.641 137.214 174.641ZM147.315 170.696H142.316V180H147.315V179H143.529V175.801H146.915V174.801H143.529V171.695H147.315V170.696ZM155.442 172.655C155.282 171.309 154.349 170.162 152.509 170.162C150.07 170.162 149.097 172.029 149.097 175.055C149.097 177.974 149.777 180.027 152.629 180.027C154.735 180.027 155.775 178.587 155.775 176.827C155.775 174.801 154.562 173.615 152.763 173.615C151.616 173.615 150.563 174.148 150.15 175.095C150.137 172.229 150.963 171.176 152.496 171.176C153.589 171.176 154.136 171.722 154.322 172.655H155.442ZM152.509 174.641C153.896 174.641 154.602 175.508 154.602 176.867C154.602 178.174 153.816 179.014 152.563 179.014C151.043 179.014 150.297 178.014 150.297 176.734C150.297 175.295 151.403 174.641 152.509 174.641Z" fill="#5D6B7E"/>
<path d="M12.9328 154.589C12.9328 155.356 12.4884 155.9 11.4997 155.9H10.0998V153.312H11.4997C12.4884 153.312 12.9328 153.812 12.9328 154.589ZM8.83325 152.279V160H10.0998V156.911H11.0664L12.844 160H14.3549L12.444 156.8C13.7439 156.478 14.2327 155.5 14.2327 154.589C14.2327 153.334 13.3328 152.279 11.4997 152.279H8.83325ZM19.3748 152.179C17.1973 152.179 15.4308 153.812 15.4308 156.123C15.4308 158.445 17.1973 160.067 19.3748 160.067C21.4524 160.067 22.9633 158.545 23.1967 156.756V155.767H18.9415V156.778H21.8412C21.6524 158.078 20.7747 158.922 19.3748 158.922C17.8416 158.922 16.7306 157.822 16.7306 156.123C16.7306 154.423 17.8416 153.334 19.3748 153.334C20.2969 153.334 21.0302 153.723 21.4413 154.501H22.9633C22.3745 152.99 20.9858 152.179 19.3748 152.179ZM28.801 157.789C28.801 158.533 28.2788 158.967 27.4233 158.967H25.7124V156.556H27.3789C28.2232 156.556 28.801 157.023 28.801 157.789ZM28.601 154.423C28.601 155.134 28.101 155.523 27.2789 155.523H25.7124V153.312H27.2789C28.101 153.312 28.601 153.723 28.601 154.423ZM30.0675 157.922C30.0675 157 29.4009 156.178 28.5788 156.034C29.3231 155.767 29.8897 155.2 29.8897 154.267C29.8897 153.178 29.0232 152.279 27.39 152.279H24.4458V160H27.5344C29.112 160 30.0675 159.1 30.0675 157.922Z" fill="#C2C8CF"/>
<path d="M15.3182 172.655C15.1582 171.309 14.2251 170.162 12.3856 170.162C9.94618 170.162 8.97309 172.029 8.97309 175.055C8.97309 177.974 9.65292 180.027 12.5055 180.027C14.6117 180.027 15.6514 178.587 15.6514 176.827C15.6514 174.801 14.4384 173.615 12.6388 173.615C11.4925 173.615 10.4394 174.148 10.0262 175.095C10.0128 172.229 10.8393 171.176 12.3722 171.176C13.4653 171.176 14.0118 171.722 14.1985 172.655H15.3182ZM12.3856 174.641C13.7719 174.641 14.4784 175.508 14.4784 176.867C14.4784 178.174 13.6919 179.014 12.4389 179.014C10.9193 179.014 10.1728 178.014 10.1728 176.734C10.1728 175.295 11.2792 174.641 12.3856 174.641ZM17.6345 170.349V175.788H18.7808C19.1008 175.028 19.8073 174.521 20.7803 174.521C22.18 174.521 22.8865 175.321 22.8865 176.694C22.8865 178.014 22.2333 179 20.767 179C19.634 179 18.8475 178.4 18.6209 177.387H17.4345C17.6745 178.947 18.8342 180.027 20.7537 180.027C23.0065 180.027 24.0462 178.534 24.0462 176.668C24.0462 175.175 23.2997 173.482 20.9536 173.482C20.0072 173.482 19.1541 173.908 18.7542 174.455V171.415H23.433V170.349H17.6345ZM24.8051 181.906H25.6182L27.1112 178.32H25.7782L24.8051 181.906ZM32.8143 180H34.0407V170.362H31.5346V171.469H32.8143V180ZM37.8839 174.988C36.8042 175.308 36.0977 176.188 36.0977 177.401C36.0977 179.147 37.4707 180.267 39.4968 180.267C41.5363 180.267 42.9226 179.147 42.9226 177.401C42.9226 176.201 42.2161 175.321 41.1231 174.988C42.0695 174.615 42.6694 173.815 42.6694 172.775C42.6694 171.375 41.5896 170.216 39.4968 170.216C37.404 170.216 36.3376 171.362 36.3376 172.775C36.3376 173.855 36.8975 174.601 37.8839 174.988ZM39.4968 174.588C38.3238 174.588 37.5106 173.935 37.5106 172.935C37.5106 171.802 38.3104 171.229 39.4968 171.229C40.7098 171.229 41.4963 171.815 41.4963 172.922C41.4963 173.922 40.6832 174.588 39.4968 174.588ZM39.4968 175.521C40.7632 175.521 41.7229 176.121 41.7229 177.361C41.7229 178.48 40.8698 179.254 39.4968 179.254C38.1238 179.254 37.2574 178.494 37.2574 177.361C37.2574 176.081 38.2571 175.521 39.4968 175.521ZM44.387 179.893H50.7988V178.88H46.2133C47.9328 177.481 50.5188 175.441 50.5188 173.042C50.5188 171.256 49.3458 170.189 47.5329 170.189C45.8 170.189 44.507 171.256 44.427 173.308H45.6001C45.6534 172.095 46.2932 171.229 47.5463 171.229C48.8526 171.229 49.3191 172.029 49.3191 173.095C49.3191 175.068 46.9197 176.987 44.387 179.027V179.893ZM51.3479 181.906H52.161L53.654 178.32H52.321L51.3479 181.906ZM58.2508 179.893H64.6625V178.88H60.077C61.7965 177.481 64.3826 175.441 64.3826 173.042C64.3826 171.256 63.2095 170.189 61.3966 170.189C59.6637 170.189 58.3707 171.256 58.2908 173.308H59.4638C59.5171 172.095 60.157 171.229 61.41 171.229C62.7163 171.229 63.1829 172.029 63.1829 173.095C63.1829 175.068 60.7835 176.987 58.2508 179.027V179.893ZM66.0648 175.081C66.0648 177.881 66.7579 180 69.4239 180C72.0766 180 72.7697 177.881 72.7697 175.081C72.7697 172.322 72.0766 170.216 69.4239 170.216C66.7579 170.216 66.0648 172.322 66.0648 175.081ZM71.57 175.081C71.57 177.161 71.3168 178.894 69.4239 178.894C67.5177 178.894 67.2645 177.161 67.2645 175.081C67.2645 173.082 67.5177 171.322 69.4239 171.322C71.3168 171.322 71.57 173.082 71.57 175.081ZM74.4084 172.788H75.5948C75.7147 171.855 76.3946 171.216 77.5276 171.216C78.6873 171.216 79.3005 171.855 79.3005 172.775C79.3005 173.895 78.4341 174.388 76.8211 174.401H76.5012V175.414H76.8078C78.5407 175.414 79.4871 175.934 79.4871 177.294C79.4871 178.28 78.8739 179.04 77.5809 179.04C76.3013 179.04 75.5548 178.254 75.4348 177.227H74.2618C74.4084 179.094 75.7681 180.067 77.5943 180.067C79.6071 180.067 80.6468 178.894 80.6468 177.401C80.6468 176.014 79.887 175.188 78.7673 174.921V174.855C79.7804 174.628 80.4735 173.762 80.4735 172.655C80.4735 171.269 79.4471 170.176 77.5676 170.176C75.7814 170.176 74.5284 171.136 74.4084 172.788Z" fill="#5D6B7E"/>
</svg>
