<svg width="112" height="218" viewBox="0 0 112 218" fill="none" xmlns="http://www.w3.org/2000/svg">
<rect y="100" width="112" height="94" fill="#F9FAFA"/>
<path d="M0 4C0 1.79086 1.79086 0 4 0H108C110.209 0 112 1.79086 112 4V100H0V4Z" fill="#66CAD3"/>
<path d="M13.9105 109.267V115.022L10.0998 109.267H8.83325V117H10.0998V111.234L13.9105 117H15.1771V109.267H13.9105ZM22.0509 117H23.3841L20.6177 109.267H19.1511L16.3848 117H17.7068L18.2623 115.422H21.4954L22.0509 117ZM21.1398 114.389H18.6179L19.8844 110.801L21.1398 114.389ZM24.5869 117H25.8534V111.712L28.2199 117H29.0975L31.4529 111.712V117H32.7194V109.279H31.364L28.6643 115.333L25.9534 109.279H24.5869V117ZM38.6503 109.267H34.3841V117H38.6503V115.967H35.6506V113.6H38.317V112.567H35.6506V110.301H38.6503V109.267Z" fill="#C2C8CF"/>
<path d="M12.5055 135.72L9.58627 127.709H8.29326L11.7991 137H13.1987L16.7045 127.709H15.4248L12.5055 135.72ZM18.0346 137H19.2476V129.695H18.0346V137ZM18.6611 128.509C19.101 128.509 19.4609 128.149 19.4609 127.682C19.4609 127.216 19.101 126.856 18.6611 126.856C18.1945 126.856 17.8346 127.216 17.8346 127.682C17.8346 128.149 18.1945 128.509 18.6611 128.509ZM21.315 137H22.528V133.774L25.394 137H27.0469L23.5944 133.334L27.0336 129.695H25.3407L22.528 132.934V127.136H21.315V137ZM28.1753 137H29.3883V129.695H28.1753V137ZM28.8018 128.509C29.2417 128.509 29.6016 128.149 29.6016 127.682C29.6016 127.216 29.2417 126.856 28.8018 126.856C28.3352 126.856 27.9753 127.216 27.9753 127.682C27.9753 128.149 28.3352 128.509 28.8018 128.509ZM36.801 137H38.0007V132.694C38.0007 130.602 36.7077 129.562 35.0148 129.562C34.0284 129.562 33.1486 129.975 32.6687 130.735V129.695H31.4557V137H32.6687V132.961C32.6687 131.388 33.5218 130.615 34.7615 130.615C35.9879 130.615 36.801 131.375 36.801 132.868V137ZM39.529 133.321C39.529 135.587 41.0353 137.12 42.9948 137.12C44.3278 137.12 45.2742 136.413 45.7141 135.627V137.16C45.7141 138.72 44.741 139.546 43.448 139.546C42.2483 139.546 41.3819 138.946 41.1153 138.066H39.9156C40.1555 139.626 41.5285 140.599 43.448 140.599C45.5941 140.599 46.9405 139.173 46.9405 137.16V129.695H45.7141V131.028C45.2876 130.242 44.3278 129.575 42.9948 129.575C41.0353 129.575 39.529 131.041 39.529 133.321ZM45.7141 133.334C45.7141 135.054 44.5677 136.054 43.2347 136.054C41.9017 136.054 40.7687 135.04 40.7687 133.321C40.7687 131.601 41.9017 130.628 43.2347 130.628C44.5677 130.628 45.7141 131.641 45.7141 133.334Z" fill="#5D6B7E"/>
<path d="M13.7328 160H14.9993V152.279H13.7328V155.589H10.0998V152.279H8.83325V160H10.0998V156.623H13.7328V160ZM20.9329 152.267H16.6667V160H20.9329V158.967H17.9332V156.6H20.5996V155.567H17.9332V153.301H20.9329V152.267ZM27.0147 160H28.4368L26.037 156.145L28.4479 152.279H27.0369L25.3926 155.1L23.6372 152.279H22.2152L24.626 156.145L22.2263 160H23.6372L25.2704 157.2L27.0147 160Z" fill="#C2C8CF"/>
<path d="M15.3182 172.655C15.1582 171.309 14.2251 170.162 12.3856 170.162C9.94618 170.162 8.97309 172.029 8.97309 175.055C8.97309 177.974 9.65292 180.027 12.5055 180.027C14.6117 180.027 15.6514 178.587 15.6514 176.827C15.6514 174.801 14.4384 173.615 12.6388 173.615C11.4925 173.615 10.4394 174.148 10.0262 175.095C10.0128 172.229 10.8393 171.176 12.3722 171.176C13.4653 171.176 14.0118 171.722 14.1985 172.655H15.3182ZM12.3856 174.641C13.7719 174.641 14.4784 175.508 14.4784 176.867C14.4784 178.174 13.6919 179.014 12.4389 179.014C10.9193 179.014 10.1728 178.014 10.1728 176.734C10.1728 175.295 11.2792 174.641 12.3856 174.641ZM23.7796 172.655C23.6196 171.309 22.6865 170.162 20.847 170.162C18.4076 170.162 17.4345 172.029 17.4345 175.055C17.4345 177.974 18.1143 180.027 20.967 180.027C23.0731 180.027 24.1128 178.587 24.1128 176.827C24.1128 174.801 22.8998 173.615 21.1003 173.615C19.9539 173.615 18.9008 174.148 18.4876 175.095C18.4743 172.229 19.3007 171.176 20.8337 171.176C21.9267 171.176 22.4733 171.722 22.6599 172.655H23.7796ZM20.847 174.641C22.2333 174.641 22.9398 175.508 22.9398 176.867C22.9398 178.174 22.1533 179.014 20.9003 179.014C19.3807 179.014 18.6342 178.014 18.6342 176.734C18.6342 175.295 19.7406 174.641 20.847 174.641ZM25.496 175.348C25.496 178.134 27.5355 180.08 30.1349 180.08C32.1477 180.08 33.7473 179.08 34.4405 177.294H32.9875C32.481 178.4 31.4945 179.027 30.1349 179.027C28.1887 179.027 26.7357 177.614 26.7357 175.348C26.7357 173.068 28.1887 171.655 30.1349 171.655C31.4945 171.655 32.481 172.282 32.9875 173.402H34.4405C33.7473 171.602 32.1477 170.589 30.1349 170.589C27.5355 170.589 25.496 172.562 25.496 175.348ZM42.4846 180H43.7643L40.4185 170.762H39.0188L35.6596 180H36.9393L37.6858 177.934H41.7381L42.4846 180ZM41.3915 176.947H38.0324L39.712 172.255L41.3915 176.947ZM48.1209 170.709H45.2283V180H48.1209C51.1735 180 53.053 178.254 53.053 175.374C53.053 172.495 51.1735 170.709 48.1209 170.709ZM46.4413 179V171.695H48.1209C50.547 171.695 51.8133 173.108 51.8133 175.374C51.8133 177.641 50.547 179 48.1209 179H46.4413ZM54.4264 172.788H55.6128C55.7327 171.855 56.4126 171.216 57.5456 171.216C58.7053 171.216 59.3185 171.855 59.3185 172.775C59.3185 173.895 58.4521 174.388 56.8391 174.401H56.5192V175.414H56.8258C58.5587 175.414 59.5051 175.934 59.5051 177.294C59.5051 178.28 58.892 179.04 57.5989 179.04C56.3193 179.04 55.5728 178.254 55.4528 177.227H54.2798C54.4264 179.094 55.7861 180.067 57.6123 180.067C59.6251 180.067 60.6648 178.894 60.6648 177.401C60.6648 176.014 59.905 175.188 58.7853 174.921V174.855C59.7984 174.628 60.4916 173.762 60.4916 172.655C60.4916 171.269 59.4652 170.176 57.5856 170.176C55.7994 170.176 54.5464 171.136 54.4264 172.788Z" fill="#5D6B7E"/>
<path d="M0 194H112V214C112 216.209 110.209 218 108 218H4C1.79086 218 0 216.209 0 214V194Z" fill="#EDEFF1"/>
<path d="M8.41107 206.123C8.41107 208.445 10.1776 210.067 12.3551 210.067C13.9661 210.067 15.3548 209.267 15.9437 207.756H14.4216C14.0105 208.578 13.2773 208.967 12.3551 208.967C10.8219 208.967 9.71094 207.867 9.71094 206.123C9.71094 204.378 10.8219 203.29 12.3551 203.29C13.2773 203.29 14.0105 203.678 14.4216 204.501H15.9437C15.3548 202.99 13.9661 202.179 12.3551 202.179C10.1776 202.179 8.41107 203.812 8.41107 206.123ZM24.8921 206.123C24.8921 203.812 23.1478 202.179 20.948 202.179C18.7705 202.179 17.004 203.812 17.004 206.123C17.004 208.445 18.7705 210.078 20.948 210.078C23.1478 210.078 24.8921 208.445 24.8921 206.123ZM18.3038 206.123C18.3038 204.378 19.4148 203.29 20.948 203.29C22.4812 203.29 23.5922 204.378 23.5922 206.123C23.5922 207.867 22.4812 208.978 20.948 208.978C19.4148 208.978 18.3038 207.867 18.3038 206.123ZM31.2156 202.267V208.022L27.4049 202.267H26.1384V210H27.4049V204.234L31.2156 210H32.4822V202.267H31.2156ZM33.7454 203.312H35.8119V210H37.0784V203.312H39.1338V202.279H33.7454V203.312ZM45.6271 210H46.9603L44.1939 202.267H42.7273L39.961 210H41.283L41.8385 208.422H45.0716L45.6271 210ZM44.716 207.389H42.1941L43.4606 203.801L44.716 207.389ZM47.7409 206.123C47.7409 208.445 49.5074 210.067 51.685 210.067C53.2959 210.067 54.6847 209.267 55.2735 207.756H53.7514C53.3403 208.578 52.6071 208.967 51.685 208.967C50.1518 208.967 49.0408 207.867 49.0408 206.123C49.0408 204.378 50.1518 203.29 51.685 203.29C52.6071 203.29 53.3403 203.678 53.7514 204.501H55.2735C54.6847 202.99 53.2959 202.179 51.685 202.179C49.5074 202.179 47.7409 203.812 47.7409 206.123ZM56.356 203.312H58.4225V210H59.689V203.312H61.7444V202.279H56.356V203.312ZM62.7604 209.889H68.1599V208.833H64.638C65.9379 207.645 67.9377 206.145 67.9377 204.178C67.9377 202.723 67.0044 201.734 65.3601 201.734C63.927 201.734 62.7937 202.59 62.7493 204.345H63.9714C64.0047 203.434 64.4825 202.812 65.3713 202.812C66.3156 202.812 66.6822 203.39 66.6822 204.234C66.6822 205.823 64.6713 207.289 62.7604 208.967V209.889ZM69.2725 205.845C69.2725 208.2 69.8947 209.978 72.1611 209.978C74.4276 209.978 75.0497 208.2 75.0497 205.845C75.0497 203.534 74.4276 201.756 72.1611 201.756C69.8947 201.756 69.2725 203.534 69.2725 205.845ZM73.8054 205.845C73.8054 207.434 73.6387 208.822 72.1611 208.822C70.6835 208.822 70.5168 207.434 70.5168 205.845C70.5168 204.334 70.6835 202.912 72.1611 202.912C73.6387 202.912 73.8054 204.334 73.8054 205.845ZM76.3899 205.845C76.3899 208.2 77.012 209.978 79.2785 209.978C81.5449 209.978 82.1671 208.2 82.1671 205.845C82.1671 203.534 81.5449 201.756 79.2785 201.756C77.012 201.756 76.3899 203.534 76.3899 205.845ZM80.9227 205.845C80.9227 207.434 80.7561 208.822 79.2785 208.822C77.8008 208.822 77.6342 207.434 77.6342 205.845C77.6342 204.334 77.8008 202.912 79.2785 202.912C80.7561 202.912 80.9227 204.334 80.9227 205.845Z" fill="#9AA3AF"/>
</svg>
