<svg width="112" height="218" viewBox="0 0 112 218" fill="none" xmlns="http://www.w3.org/2000/svg">
<rect y="100" width="112" height="94" fill="#F9FAFA"/>
<path d="M0 4C0 1.79086 1.79086 0 4 0H108C110.209 0 112 1.79086 112 4V100H0V4Z" fill="#00A7B5"/>
<path d="M13.9105 109.267V115.022L10.0998 109.267H8.83325V117H10.0998V111.234L13.9105 117H15.1771V109.267H13.9105ZM22.0509 117H23.3841L20.6177 109.267H19.1511L16.3848 117H17.7068L18.2623 115.422H21.4954L22.0509 117ZM21.1398 114.389H18.6179L19.8844 110.801L21.1398 114.389ZM24.5869 117H25.8534V111.712L28.2199 117H29.0975L31.4529 111.712V117H32.7194V109.279H31.364L28.6643 115.333L25.9534 109.279H24.5869V117ZM38.6503 109.267H34.3841V117H38.6503V115.967H35.6506V113.6H38.317V112.567H35.6506V110.301H38.6503V109.267Z" fill="#C2C8CF"/>
<path d="M14.3051 134.387C14.3051 135.4 13.5853 136 12.3856 136H10.2394V132.721H12.3456C13.532 132.721 14.3051 133.361 14.3051 134.387ZM14.0652 130.215C14.0652 131.161 13.412 131.721 12.2789 131.721H10.2394V128.709H12.2523C13.4386 128.709 14.0652 129.295 14.0652 130.215ZM15.5181 134.507C15.5181 133.361 14.6917 132.388 13.6786 132.215C14.5717 131.921 15.3048 131.241 15.3048 130.068C15.3048 128.775 14.3184 127.709 12.3589 127.709H9.02641V137H12.4922C14.4117 137 15.5181 135.907 15.5181 134.507ZM24.133 133.334C24.133 131.028 22.5201 129.575 20.4406 129.575C18.3745 129.575 16.7482 131.028 16.7482 133.334C16.7482 135.654 18.3212 137.12 20.3873 137.12C22.4668 137.12 24.133 135.654 24.133 133.334ZM17.9879 133.334C17.9879 131.495 19.1476 130.628 20.4273 130.628C21.6803 130.628 22.8934 131.495 22.8934 133.334C22.8934 135.187 21.6537 136.054 20.3873 136.054C19.121 136.054 17.9879 135.187 17.9879 133.334ZM31.0733 137H32.273V132.694C32.273 130.602 30.98 129.562 29.2871 129.562C28.3007 129.562 27.4209 129.975 26.941 130.735V129.695H25.728V137H26.941V132.961C26.941 131.388 27.7941 130.615 29.0338 130.615C30.2602 130.615 31.0733 131.375 31.0733 132.868V137ZM33.8013 133.321C33.8013 135.587 35.3075 137.12 37.2671 137.12C38.6001 137.12 39.5465 136.44 39.9864 135.627V137H41.2127V127.136H39.9864V131.001C39.4798 130.162 38.4268 129.575 37.2804 129.575C35.3075 129.575 33.8013 131.041 33.8013 133.321ZM39.9864 133.334C39.9864 135.054 38.84 136.054 37.507 136.054C36.174 136.054 35.0409 135.04 35.0409 133.321C35.0409 131.601 36.174 130.628 37.507 130.628C38.84 130.628 39.9864 131.641 39.9864 133.334ZM43.2626 137H44.4757V129.695H43.2626V137ZM43.8892 128.509C44.329 128.509 44.689 128.149 44.689 127.682C44.689 127.216 44.329 126.856 43.8892 126.856C43.4226 126.856 43.0627 127.216 43.0627 127.682C43.0627 128.149 43.4226 128.509 43.8892 128.509ZM55.3756 134.387C55.3756 135.4 54.6557 136 53.456 136H51.3099V132.721H53.416C54.6024 132.721 55.3756 133.361 55.3756 134.387ZM55.1356 130.215C55.1356 131.161 54.4824 131.721 53.3494 131.721H51.3099V128.709H53.3227C54.5091 128.709 55.1356 129.295 55.1356 130.215ZM56.5886 134.507C56.5886 133.361 55.7621 132.388 54.749 132.215C55.6422 131.921 56.3753 131.241 56.3753 130.068C56.3753 128.775 55.3889 127.709 53.4294 127.709H50.0969V137H53.5627C55.4822 137 56.5886 135.907 56.5886 134.507ZM58.2719 137H59.4849V127.136H58.2719V137ZM68.0307 129.695H66.8177V133.707C66.8177 135.28 65.9779 136.054 64.7249 136.054C63.4985 136.054 62.6854 135.294 62.6854 133.814V129.695H61.4857V133.974C61.4857 136.067 62.8054 137.107 64.4849 137.107C65.458 137.107 66.3511 136.68 66.8177 135.92V137H68.0307V129.695ZM73.1847 130.602C74.4378 130.602 75.5042 131.388 75.4908 132.814H70.8787C71.012 131.388 71.9984 130.602 73.1847 130.602ZM76.5972 134.747H75.2909C75.0243 135.534 74.3311 136.094 73.2381 136.094C71.9984 136.094 70.9586 135.28 70.8653 133.801H76.7039C76.7305 133.548 76.7439 133.334 76.7439 133.068C76.7439 131.068 75.3575 129.575 73.2381 129.575C71.1053 129.575 69.6256 131.028 69.6256 133.334C69.6256 135.654 71.1586 137.12 73.2381 137.12C75.0509 137.12 76.224 136.08 76.5972 134.747Z" fill="#5D6B7E"/>
<path d="M13.7328 160H14.9993V152.279H13.7328V155.589H10.0998V152.279H8.83325V160H10.0998V156.623H13.7328V160ZM20.9329 152.267H16.6667V160H20.9329V158.967H17.9332V156.6H20.5996V155.567H17.9332V153.301H20.9329V152.267ZM27.0147 160H28.4368L26.037 156.145L28.4479 152.279H27.0369L25.3926 155.1L23.6372 152.279H22.2152L24.626 156.145L22.2263 160H23.6372L25.2704 157.2L27.0147 160Z" fill="#C2C8CF"/>
<path d="M8.82646 175.081C8.82646 177.881 9.51962 180 12.1856 180C14.8383 180 15.5314 177.881 15.5314 175.081C15.5314 172.322 14.8383 170.216 12.1856 170.216C9.51962 170.216 8.82646 172.322 8.82646 175.081ZM14.3318 175.081C14.3318 177.161 14.0785 178.894 12.1856 178.894C10.2794 178.894 10.0262 177.161 10.0262 175.081C10.0262 173.082 10.2794 171.322 12.1856 171.322C14.0785 171.322 14.3318 173.082 14.3318 175.081ZM17.1968 175.081C17.1968 177.881 17.8899 180 20.5559 180C23.2086 180 23.9018 177.881 23.9018 175.081C23.9018 172.322 23.2086 170.216 20.5559 170.216C17.8899 170.216 17.1968 172.322 17.1968 175.081ZM22.7021 175.081C22.7021 177.161 22.4488 178.894 20.5559 178.894C18.6497 178.894 18.3965 177.161 18.3965 175.081C18.3965 173.082 18.6497 171.322 20.5559 171.322C22.4488 171.322 22.7021 173.082 22.7021 175.081ZM32.0055 180H33.2851L29.9393 170.762H28.5397L25.1805 180H26.4602L27.2067 177.934H31.259L32.0055 180ZM30.9124 176.947H27.5532L29.2328 172.255L30.9124 176.947ZM34.1626 170.389V171.429H39.308L35.5489 180H36.7753L40.481 171.309V170.389H34.1626ZM47.3047 177.387C47.3047 178.4 46.5848 179 45.3851 179H43.239V175.721H45.3451C46.5315 175.721 47.3047 176.361 47.3047 177.387ZM47.0647 173.215C47.0647 174.161 46.4115 174.721 45.2785 174.721H43.239V171.709H45.2518C46.4382 171.709 47.0647 172.295 47.0647 173.215ZM48.5177 177.507C48.5177 176.361 47.6912 175.388 46.6781 175.215C47.5713 174.921 48.3044 174.241 48.3044 173.068C48.3044 171.775 47.318 170.709 45.3585 170.709H42.026V180H45.4918C47.4113 180 48.5177 178.907 48.5177 177.507ZM50.3476 170.349V175.788H51.494C51.8139 175.028 52.5204 174.521 53.4935 174.521C54.8932 174.521 55.5997 175.321 55.5997 176.694C55.5997 178.014 54.9465 179 53.4802 179C52.3471 179 51.5607 178.4 51.3341 177.387H50.1477C50.3876 178.947 51.5473 180.027 53.4669 180.027C55.7196 180.027 56.7594 178.534 56.7594 176.668C56.7594 175.175 56.0129 173.482 53.6668 173.482C52.7204 173.482 51.8673 173.908 51.4674 174.455V171.415H56.1462V170.349H50.3476Z" fill="#5D6B7E"/>
<path d="M0 194H112V214C112 216.209 110.209 218 108 218H4C1.79086 218 0 216.209 0 214V194Z" fill="#EDEFF1"/>
<path d="M8.41107 206.123C8.41107 208.445 10.1776 210.067 12.3551 210.067C13.9661 210.067 15.3548 209.267 15.9437 207.756H14.4216C14.0105 208.578 13.2773 208.967 12.3551 208.967C10.8219 208.967 9.71094 207.867 9.71094 206.123C9.71094 204.378 10.8219 203.29 12.3551 203.29C13.2773 203.29 14.0105 203.678 14.4216 204.501H15.9437C15.3548 202.99 13.9661 202.179 12.3551 202.179C10.1776 202.179 8.41107 203.812 8.41107 206.123ZM24.8921 206.123C24.8921 203.812 23.1478 202.179 20.948 202.179C18.7705 202.179 17.004 203.812 17.004 206.123C17.004 208.445 18.7705 210.078 20.948 210.078C23.1478 210.078 24.8921 208.445 24.8921 206.123ZM18.3038 206.123C18.3038 204.378 19.4148 203.29 20.948 203.29C22.4812 203.29 23.5922 204.378 23.5922 206.123C23.5922 207.867 22.4812 208.978 20.948 208.978C19.4148 208.978 18.3038 207.867 18.3038 206.123ZM31.2156 202.267V208.022L27.4049 202.267H26.1384V210H27.4049V204.234L31.2156 210H32.4822V202.267H31.2156ZM33.7454 203.312H35.8119V210H37.0784V203.312H39.1338V202.279H33.7454V203.312ZM45.6271 210H46.9603L44.1939 202.267H42.7273L39.961 210H41.283L41.8385 208.422H45.0716L45.6271 210ZM44.716 207.389H42.1941L43.4606 203.801L44.716 207.389ZM47.7409 206.123C47.7409 208.445 49.5074 210.067 51.685 210.067C53.2959 210.067 54.6847 209.267 55.2735 207.756H53.7514C53.3403 208.578 52.6071 208.967 51.685 208.967C50.1518 208.967 49.0408 207.867 49.0408 206.123C49.0408 204.378 50.1518 203.29 51.685 203.29C52.6071 203.29 53.3403 203.678 53.7514 204.501H55.2735C54.6847 202.99 53.2959 202.179 51.685 202.179C49.5074 202.179 47.7409 203.812 47.7409 206.123ZM56.356 203.312H58.4225V210H59.689V203.312H61.7444V202.279H56.356V203.312ZM66.7267 210H67.971V208.311H69.0042V207.211H67.971V202.001H66.4378L62.7049 207.356V208.311H66.7267V210ZM64.1603 207.211L66.7822 203.29V207.211H64.1603ZM70.0537 205.845C70.0537 208.2 70.6758 209.978 72.9423 209.978C75.2087 209.978 75.8309 208.2 75.8309 205.845C75.8309 203.534 75.2087 201.756 72.9423 201.756C70.6758 201.756 70.0537 203.534 70.0537 205.845ZM74.5866 205.845C74.5866 207.434 74.4199 208.822 72.9423 208.822C71.4647 208.822 71.298 207.434 71.298 205.845C71.298 204.334 71.4647 202.912 72.9423 202.912C74.4199 202.912 74.5866 204.334 74.5866 205.845ZM77.171 205.845C77.171 208.2 77.7932 209.978 80.0596 209.978C82.3261 209.978 82.9482 208.2 82.9482 205.845C82.9482 203.534 82.3261 201.756 80.0596 201.756C77.7932 201.756 77.171 203.534 77.171 205.845ZM81.7039 205.845C81.7039 207.434 81.5373 208.822 80.0596 208.822C78.582 208.822 78.4154 207.434 78.4154 205.845C78.4154 204.334 78.582 202.912 80.0596 202.912C81.5373 202.912 81.7039 204.334 81.7039 205.845Z" fill="#9AA3AF"/>
</svg>
