<svg width="112" height="218" viewBox="0 0 112 218" fill="none" xmlns="http://www.w3.org/2000/svg">
<rect y="100" width="112" height="94" fill="#F9FAFA"/>
<path d="M0 4C0 1.79086 1.79086 0 4 0H108C110.209 0 112 1.79086 112 4V100H0V4Z" fill="#33B9C4"/>
<path d="M13.9105 109.267V115.022L10.0998 109.267H8.83325V117H10.0998V111.234L13.9105 117H15.1771V109.267H13.9105ZM22.0509 117H23.3841L20.6177 109.267H19.1511L16.3848 117H17.7068L18.2623 115.422H21.4954L22.0509 117ZM21.1398 114.389H18.6179L19.8844 110.801L21.1398 114.389ZM24.5869 117H25.8534V111.712L28.2199 117H29.0975L31.4529 111.712V117H32.7194V109.279H31.364L28.6643 115.333L25.9534 109.279H24.5869V117ZM38.6503 109.267H34.3841V117H38.6503V115.967H35.6506V113.6H38.317V112.567H35.6506V110.301H38.6503V109.267Z" fill="#C2C8CF"/>
<path d="M15.0649 134.467C15.0649 131.028 10.0528 132.521 10.0528 130.122C10.0528 129.122 10.8393 128.602 11.839 128.629C12.9721 128.642 13.5586 129.349 13.6386 129.975H14.9716C14.825 128.562 13.6653 127.589 11.8924 127.589C10.0528 127.589 8.81313 128.629 8.81313 130.162C8.81313 133.614 13.8385 132.015 13.8385 134.521C13.8385 135.4 13.1454 136.067 11.9723 136.067C10.6793 136.067 10.1328 135.294 10.0528 134.521H8.75981C8.78647 136.054 10.1061 137.093 11.9723 137.093C13.9852 137.093 15.0649 135.787 15.0649 134.467ZM16.3968 133.334C16.3968 135.654 17.8764 137.12 19.9559 137.12C21.7687 137.12 22.9551 136.107 23.3284 134.654H22.022C21.7554 135.574 21.0356 136.094 19.9559 136.094C18.6229 136.094 17.6364 135.147 17.6364 133.334C17.6364 131.548 18.6229 130.602 19.9559 130.602C21.0356 130.602 21.7687 131.161 22.022 132.041H23.3284C22.9551 130.508 21.7687 129.575 19.9559 129.575C17.8764 129.575 16.3968 131.041 16.3968 133.334ZM31.8785 133.334C31.8785 131.028 30.2656 129.575 28.1861 129.575C26.1199 129.575 24.4937 131.028 24.4937 133.334C24.4937 135.654 26.0666 137.12 28.1328 137.12C30.2123 137.12 31.8785 135.654 31.8785 133.334ZM25.7334 133.334C25.7334 131.495 26.8931 130.628 28.1728 130.628C29.4258 130.628 30.6388 131.495 30.6388 133.334C30.6388 135.187 29.3991 136.054 28.1328 136.054C26.8664 136.054 25.7334 135.187 25.7334 133.334ZM40.405 133.334C40.405 131.028 38.7921 129.575 36.7126 129.575C34.6465 129.575 33.0202 131.028 33.0202 133.334C33.0202 135.654 34.5931 137.12 36.6593 137.12C38.7388 137.12 40.405 135.654 40.405 133.334ZM34.2599 133.334C34.2599 131.495 35.4196 130.628 36.6993 130.628C37.9523 130.628 39.1653 131.495 39.1653 133.334C39.1653 135.187 37.9256 136.054 36.6593 136.054C35.3929 136.054 34.2599 135.187 34.2599 133.334ZM42.2665 135C42.2665 136.467 42.9997 137 44.2927 137H45.3858V135.974H44.4926C43.7462 135.974 43.4796 135.72 43.4796 135V130.695H45.3858V129.695H43.4796V127.856H42.2665V129.695H41.3201V130.695H42.2665V135ZM49.9614 130.602C51.2144 130.602 52.2808 131.388 52.2675 132.814H47.6553C47.7886 131.388 48.775 130.602 49.9614 130.602ZM53.3739 134.747H52.0675C51.8009 135.534 51.1078 136.094 50.0147 136.094C48.775 136.094 47.7353 135.28 47.642 133.801H53.4805C53.5072 133.548 53.5205 133.334 53.5205 133.068C53.5205 131.068 52.1342 129.575 50.0147 129.575C47.8819 129.575 46.4023 131.028 46.4023 133.334C46.4023 135.654 47.9352 137.12 50.0147 137.12C51.8276 137.12 53.0006 136.08 53.3739 134.747ZM56.3347 133.028C56.3347 131.335 57.2145 130.815 58.3742 130.815H58.6941V129.562C57.5344 129.562 56.7479 130.068 56.3347 130.882V129.695H55.1217V137H56.3347V133.028Z" fill="#5D6B7E"/>
<path d="M13.7328 160H14.9993V152.279H13.7328V155.589H10.0998V152.279H8.83325V160H10.0998V156.623H13.7328V160ZM20.9329 152.267H16.6667V160H20.9329V158.967H17.9332V156.6H20.5996V155.567H17.9332V153.301H20.9329V152.267ZM27.0147 160H28.4368L26.037 156.145L28.4479 152.279H27.0369L25.3926 155.1L23.6372 152.279H22.2152L24.626 156.145L22.2263 160H23.6372L25.2704 157.2L27.0147 160Z" fill="#C2C8CF"/>
<path d="M8.7998 172.788H9.98617C10.1061 171.855 10.786 171.216 11.919 171.216C13.0787 171.216 13.6919 171.855 13.6919 172.775C13.6919 173.895 12.8255 174.388 11.2125 174.401H10.8926V175.414H11.1992C12.9321 175.414 13.8785 175.934 13.8785 177.294C13.8785 178.28 13.2654 179.04 11.9723 179.04C10.6927 179.04 9.94618 178.254 9.82621 177.227H8.65317C8.7998 179.094 10.1595 180.067 11.9857 180.067C13.9985 180.067 15.0382 178.894 15.0382 177.401C15.0382 176.014 14.2784 175.188 13.1587 174.921V174.855C14.1718 174.628 14.865 173.762 14.865 172.655C14.865 171.269 13.8385 170.176 11.959 170.176C10.1728 170.176 8.91977 171.136 8.7998 172.788ZM16.6494 172.788H17.8358C17.9557 171.855 18.6356 171.216 19.7686 171.216C20.9283 171.216 21.5415 171.855 21.5415 172.775C21.5415 173.895 20.6751 174.388 19.0621 174.401H18.7422V175.414H19.0488C20.7817 175.414 21.7281 175.934 21.7281 177.294C21.7281 178.28 21.1149 179.04 19.8219 179.04C18.5423 179.04 17.7958 178.254 17.6758 177.227H16.5028C16.6494 179.094 18.0091 180.067 19.8353 180.067C21.8481 180.067 22.8878 178.894 22.8878 177.401C22.8878 176.014 22.128 175.188 21.0083 174.921V174.855C22.0214 174.628 22.7145 173.762 22.7145 172.655C22.7145 171.269 21.6881 170.176 19.8086 170.176C18.0224 170.176 16.7694 171.136 16.6494 172.788ZM30.0043 177.387C30.0043 178.4 29.2845 179 28.0848 179H25.9386V175.721H28.0448C29.2311 175.721 30.0043 176.361 30.0043 177.387ZM29.7643 173.215C29.7643 174.161 29.1112 174.721 27.9781 174.721H25.9386V171.709H27.9515C29.1378 171.709 29.7643 172.295 29.7643 173.215ZM31.2173 177.507C31.2173 176.361 30.3909 175.388 29.3778 175.215C30.2709 174.921 31.004 174.241 31.004 173.068C31.004 171.775 30.0176 170.709 28.0581 170.709H24.7256V180H28.1914C30.1109 180 31.2173 178.907 31.2173 177.507ZM33.1406 177.414C33.2739 178.827 34.207 180.013 36.1265 180.013C38.6592 180.013 39.3924 178.214 39.3924 175.001C39.3924 172.015 38.6325 170.176 36.0199 170.176C33.9404 170.176 32.8473 171.509 32.8473 173.348C32.8473 175.388 34.167 176.494 35.9399 176.494C36.9796 176.494 37.9394 176.028 38.326 175.215C38.3659 178.04 37.6061 179 36.1932 179C35.0734 179 34.4336 178.414 34.2603 177.414H33.1406ZM36.1398 175.468C34.7002 175.468 34.007 174.561 34.007 173.322C34.007 172.042 34.7935 171.189 36.0465 171.189C37.4328 171.189 38.1793 172.109 38.1793 173.415C38.1793 174.708 37.2995 175.468 36.1398 175.468ZM40.8438 175.348C40.8438 178.134 42.8833 180.08 45.4826 180.08C47.4954 180.08 49.095 179.08 49.7882 177.294H48.3352C47.8287 178.4 46.8423 179.027 45.4826 179.027C43.5364 179.027 42.0835 177.614 42.0835 175.348C42.0835 173.068 43.5364 171.655 45.4826 171.655C46.8423 171.655 47.8287 172.282 48.3352 173.402H49.7882C49.095 171.602 47.4954 170.589 45.4826 170.589C42.8833 170.589 40.8438 172.562 40.8438 175.348ZM56.0328 180H57.2325V177.854H58.5655V176.801H57.2325V170.456H55.7795L51.1007 176.934V177.854H56.0328V180ZM52.5003 176.801L56.0861 171.722V176.801H52.5003Z" fill="#5D6B7E"/>
<path d="M0 194H112V214C112 216.209 110.209 218 108 218H4C1.79086 218 0 216.209 0 214V194Z" fill="#EDEFF1"/>
<path d="M8.41107 206.123C8.41107 208.445 10.1776 210.067 12.3551 210.067C13.9661 210.067 15.3548 209.267 15.9437 207.756H14.4216C14.0105 208.578 13.2773 208.967 12.3551 208.967C10.8219 208.967 9.71094 207.867 9.71094 206.123C9.71094 204.378 10.8219 203.29 12.3551 203.29C13.2773 203.29 14.0105 203.678 14.4216 204.501H15.9437C15.3548 202.99 13.9661 202.179 12.3551 202.179C10.1776 202.179 8.41107 203.812 8.41107 206.123ZM24.8921 206.123C24.8921 203.812 23.1478 202.179 20.948 202.179C18.7705 202.179 17.004 203.812 17.004 206.123C17.004 208.445 18.7705 210.078 20.948 210.078C23.1478 210.078 24.8921 208.445 24.8921 206.123ZM18.3038 206.123C18.3038 204.378 19.4148 203.29 20.948 203.29C22.4812 203.29 23.5922 204.378 23.5922 206.123C23.5922 207.867 22.4812 208.978 20.948 208.978C19.4148 208.978 18.3038 207.867 18.3038 206.123ZM31.2156 202.267V208.022L27.4049 202.267H26.1384V210H27.4049V204.234L31.2156 210H32.4822V202.267H31.2156ZM33.7454 203.312H35.8119V210H37.0784V203.312H39.1338V202.279H33.7454V203.312ZM45.6271 210H46.9603L44.1939 202.267H42.7273L39.961 210H41.283L41.8385 208.422H45.0716L45.6271 210ZM44.716 207.389H42.1941L43.4606 203.801L44.716 207.389ZM47.7409 206.123C47.7409 208.445 49.5074 210.067 51.685 210.067C53.2959 210.067 54.6847 209.267 55.2735 207.756H53.7514C53.3403 208.578 52.6071 208.967 51.685 208.967C50.1518 208.967 49.0408 207.867 49.0408 206.123C49.0408 204.378 50.1518 203.29 51.685 203.29C52.6071 203.29 53.3403 203.678 53.7514 204.501H55.2735C54.6847 202.99 53.2959 202.179 51.685 202.179C49.5074 202.179 47.7409 203.812 47.7409 206.123ZM56.356 203.312H58.4225V210H59.689V203.312H61.7444V202.279H56.356V203.312ZM62.8382 203.901H64.0714C64.1492 203.334 64.5602 202.801 65.449 202.801C66.3156 202.801 66.7711 203.267 66.7711 203.967C66.7711 204.834 66.0712 205.167 64.9269 205.178H64.6269V206.223H64.9157C66.2378 206.223 66.9267 206.589 66.9267 207.656C66.9267 208.411 66.46 208.989 65.5157 208.989C64.5602 208.989 64.0047 208.411 63.9492 207.656H62.7271C62.8048 209.245 63.9936 210.044 65.5268 210.044C67.2155 210.044 68.1265 209.067 68.1265 207.778C68.1265 206.656 67.5821 205.956 66.7378 205.7V205.656C67.3711 205.445 67.9821 204.789 67.9821 203.823C67.9821 202.645 67.1044 201.712 65.4935 201.712C64.0158 201.712 62.9271 202.501 62.8382 203.901ZM69.457 205.845C69.457 208.2 70.0791 209.978 72.3456 209.978C74.612 209.978 75.2342 208.2 75.2342 205.845C75.2342 203.534 74.612 201.756 72.3456 201.756C70.0791 201.756 69.457 203.534 69.457 205.845ZM73.9898 205.845C73.9898 207.434 73.8232 208.822 72.3456 208.822C70.8679 208.822 70.7013 207.434 70.7013 205.845C70.7013 204.334 70.8679 202.912 72.3456 202.912C73.8232 202.912 73.9898 204.334 73.9898 205.845ZM76.5743 205.845C76.5743 208.2 77.1965 209.978 79.4629 209.978C81.7293 209.978 82.3515 208.2 82.3515 205.845C82.3515 203.534 81.7293 201.756 79.4629 201.756C77.1965 201.756 76.5743 203.534 76.5743 205.845ZM81.1072 205.845C81.1072 207.434 80.9405 208.822 79.4629 208.822C77.9853 208.822 77.8186 207.434 77.8186 205.845C77.8186 204.334 77.9853 202.912 79.4629 202.912C80.9405 202.912 81.1072 204.334 81.1072 205.845Z" fill="#9AA3AF"/>
</svg>
