<svg width="112" height="218" viewBox="0 0 112 218" fill="none" xmlns="http://www.w3.org/2000/svg">
<rect y="100" width="112" height="94" fill="#F9FAFA"/>
<path d="M0 4C0 1.79086 1.79086 0 4 0H108C110.209 0 112 1.79086 112 4V100H0V4Z" fill="#99DCE1"/>
<path d="M13.9105 109.267V115.022L10.0998 109.267H8.83325V117H10.0998V111.234L13.9105 117H15.1771V109.267H13.9105ZM22.0509 117H23.3841L20.6177 109.267H19.1511L16.3848 117H17.7068L18.2623 115.422H21.4954L22.0509 117ZM21.1398 114.389H18.6179L19.8844 110.801L21.1398 114.389ZM24.5869 117H25.8534V111.712L28.2199 117H29.0975L31.4529 111.712V117H32.7194V109.279H31.364L28.6643 115.333L25.9534 109.279H24.5869V117ZM38.6503 109.267H34.3841V117H38.6503V115.967H35.6506V113.6H38.317V112.567H35.6506V110.301H38.6503V109.267Z" fill="#C2C8CF"/>
<path d="M9.02641 137H10.2394V130.108L13.3187 137H14.1718L17.2377 130.122V137H18.4507V127.776H17.1577L13.7452 135.4L10.3328 127.776H9.02641V137ZM27.4395 133.334C27.4395 131.028 25.8266 129.575 23.7471 129.575C21.681 129.575 20.0547 131.028 20.0547 133.334C20.0547 135.654 21.6276 137.12 23.6938 137.12C25.7733 137.12 27.4395 135.654 27.4395 133.334ZM21.2944 133.334C21.2944 131.495 22.4541 130.628 23.7338 130.628C24.9868 130.628 26.1998 131.495 26.1998 133.334C26.1998 135.187 24.9601 136.054 23.6938 136.054C22.4274 136.054 21.2944 135.187 21.2944 133.334ZM30.2475 133.028C30.2475 131.335 31.1272 130.815 32.2869 130.815H32.6069V129.562C31.4472 129.562 30.6607 130.068 30.2475 130.882V129.695H29.0344V137H30.2475V133.028ZM39.3525 137H40.5522V132.694C40.5522 130.602 39.2592 129.562 37.5663 129.562C36.5798 129.562 35.7001 129.975 35.2202 130.735V129.695H34.0071V137H35.2202V132.961C35.2202 131.388 36.0733 130.615 37.313 130.615C38.5393 130.615 39.3525 131.375 39.3525 132.868V137ZM42.5337 137H43.7467V129.695H42.5337V137ZM43.1602 128.509C43.6001 128.509 43.96 128.149 43.96 127.682C43.96 127.216 43.6001 126.856 43.1602 126.856C42.6936 126.856 42.3337 127.216 42.3337 127.682C42.3337 128.149 42.6936 128.509 43.1602 128.509ZM51.1594 137H52.3591V132.694C52.3591 130.602 51.0661 129.562 49.3732 129.562C48.3868 129.562 47.507 129.975 47.0271 130.735V129.695H45.8141V137H47.0271V132.961C47.0271 131.388 47.8802 130.615 49.1199 130.615C50.3463 130.615 51.1594 131.375 51.1594 132.868V137ZM53.8874 133.321C53.8874 135.587 55.3937 137.12 57.3532 137.12C58.6862 137.12 59.6326 136.413 60.0725 135.627V137.16C60.0725 138.72 59.0994 139.546 57.8064 139.546C56.6067 139.546 55.7403 138.946 55.4736 138.066H54.2739C54.5139 139.626 55.8869 140.599 57.8064 140.599C59.9525 140.599 61.2989 139.173 61.2989 137.16V129.695H60.0725V131.028C59.6459 130.242 58.6862 129.575 57.3532 129.575C55.3937 129.575 53.8874 131.041 53.8874 133.321ZM60.0725 133.334C60.0725 135.054 58.9261 136.054 57.5931 136.054C56.2601 136.054 55.1271 135.04 55.1271 133.321C55.1271 131.601 56.2601 130.628 57.5931 130.628C58.9261 130.628 60.0725 131.641 60.0725 133.334ZM71.1148 127.602C68.5022 127.602 66.4493 129.562 66.4493 132.348C66.4493 135.134 68.5022 137.08 71.1148 137.08C73.6342 137.08 75.4604 135.227 75.6737 132.921V131.988H70.675V132.974H74.3807C74.1941 134.814 72.9411 135.987 71.1148 135.987C69.1553 135.987 67.689 134.574 67.689 132.348C67.689 130.108 69.1553 128.695 71.1148 128.695C72.4212 128.695 73.4343 129.322 73.9408 130.402H75.3938C74.7006 128.615 73.0744 127.602 71.1148 127.602ZM77.2776 137H78.4906V127.136H77.2776V137ZM87.4896 133.334C87.4896 131.028 85.8767 129.575 83.7972 129.575C81.731 129.575 80.1048 131.028 80.1048 133.334C80.1048 135.654 81.6777 137.12 83.7439 137.12C85.8234 137.12 87.4896 135.654 87.4896 133.334ZM81.3445 133.334C81.3445 131.495 82.5042 130.628 83.7839 130.628C85.0369 130.628 86.2499 131.495 86.2499 133.334C86.2499 135.187 85.0102 136.054 83.7439 136.054C82.4775 136.054 81.3445 135.187 81.3445 133.334ZM90.2975 133.028C90.2975 131.335 91.1773 130.815 92.337 130.815H92.657V129.562C91.4972 129.562 90.7108 130.068 90.2975 130.882V129.695H89.0845V137H90.2975V133.028ZM96.8299 135.614L94.5371 129.695H93.1908L96.1367 136.92L94.6971 140.439H95.9501L100.349 129.695H99.096L96.8299 135.614Z" fill="#5D6B7E"/>
<path d="M13.7328 160H14.9993V152.279H13.7328V155.589H10.0998V152.279H8.83325V160H10.0998V156.623H13.7328V160ZM20.9329 152.267H16.6667V160H20.9329V158.967H17.9332V156.6H20.5996V155.567H17.9332V153.301H20.9329V152.267ZM27.0147 160H28.4368L26.037 156.145L28.4479 152.279H27.0369L25.3926 155.1L23.6372 152.279H22.2152L24.626 156.145L22.2263 160H23.6372L25.2704 157.2L27.0147 160Z" fill="#C2C8CF"/>
<path d="M9.26635 177.414C9.39965 178.827 10.3328 180.013 12.2523 180.013C14.785 180.013 15.5181 178.214 15.5181 175.001C15.5181 172.015 14.7583 170.176 12.1456 170.176C10.0662 170.176 8.97309 171.509 8.97309 173.348C8.97309 175.388 10.2928 176.494 12.0657 176.494C13.1054 176.494 14.0652 176.028 14.4517 175.215C14.4917 178.04 13.7319 179 12.3189 179C11.1992 179 10.5594 178.414 10.3861 177.414H9.26635ZM12.2656 175.468C10.826 175.468 10.1328 174.561 10.1328 173.322C10.1328 172.042 10.9193 171.189 12.1723 171.189C13.5586 171.189 14.3051 172.109 14.3051 173.415C14.3051 174.708 13.4253 175.468 12.2656 175.468ZM17.6627 177.414C17.796 178.827 18.7291 180.013 20.6486 180.013C23.1813 180.013 23.9145 178.214 23.9145 175.001C23.9145 172.015 23.1546 170.176 20.542 170.176C18.4625 170.176 17.3694 171.509 17.3694 173.348C17.3694 175.388 18.6891 176.494 20.462 176.494C21.5017 176.494 22.4615 176.028 22.8481 175.215C22.888 178.04 22.1282 179 20.7153 179C19.5955 179 18.9557 178.414 18.7824 177.414H17.6627ZM20.6619 175.468C19.2223 175.468 18.5291 174.561 18.5291 173.322C18.5291 172.042 19.3156 171.189 20.5686 171.189C21.9549 171.189 22.7014 172.109 22.7014 173.415C22.7014 174.708 21.8216 175.468 20.6619 175.468ZM28.7117 170.709H25.8191V180H28.7117C31.7643 180 33.6438 178.254 33.6438 175.374C33.6438 172.495 31.7643 170.709 28.7117 170.709ZM27.0321 179V171.695H28.7117C31.1378 171.695 32.4041 173.108 32.4041 175.374C32.4041 177.641 31.1378 179 28.7117 179H27.0321ZM34.7906 175.348C34.7906 178.134 36.8301 180.08 39.4294 180.08C41.4423 180.08 43.0419 179.08 43.735 177.294H42.2821C41.7755 178.4 40.7891 179.027 39.4294 179.027C37.4833 179.027 36.0303 177.614 36.0303 175.348C36.0303 173.068 37.4833 171.655 39.4294 171.655C40.7891 171.655 41.7755 172.282 42.2821 173.402H43.735C43.0419 171.602 41.4423 170.589 39.4294 170.589C36.8301 170.589 34.7906 172.562 34.7906 175.348ZM50.5395 170.696H45.5407V180H50.5395V179H46.7537V175.801H50.1396V174.801H46.7537V171.695H50.5395V170.696ZM53.1348 180H54.3611V170.362H51.8551V171.469H53.1348V180Z" fill="#5D6B7E"/>
<path d="M0 194H112V214C112 216.209 110.209 218 108 218H4C1.79086 218 0 216.209 0 214V194Z" fill="#EDEFF1"/>
<path d="M8.41107 206.123C8.41107 208.445 10.1776 210.067 12.3551 210.067C13.9661 210.067 15.3548 209.267 15.9437 207.756H14.4216C14.0105 208.578 13.2773 208.967 12.3551 208.967C10.8219 208.967 9.71094 207.867 9.71094 206.123C9.71094 204.378 10.8219 203.29 12.3551 203.29C13.2773 203.29 14.0105 203.678 14.4216 204.501H15.9437C15.3548 202.99 13.9661 202.179 12.3551 202.179C10.1776 202.179 8.41107 203.812 8.41107 206.123ZM24.8921 206.123C24.8921 203.812 23.1478 202.179 20.948 202.179C18.7705 202.179 17.004 203.812 17.004 206.123C17.004 208.445 18.7705 210.078 20.948 210.078C23.1478 210.078 24.8921 208.445 24.8921 206.123ZM18.3038 206.123C18.3038 204.378 19.4148 203.29 20.948 203.29C22.4812 203.29 23.5922 204.378 23.5922 206.123C23.5922 207.867 22.4812 208.978 20.948 208.978C19.4148 208.978 18.3038 207.867 18.3038 206.123ZM31.2156 202.267V208.022L27.4049 202.267H26.1384V210H27.4049V204.234L31.2156 210H32.4822V202.267H31.2156ZM33.7454 203.312H35.8119V210H37.0784V203.312H39.1338V202.279H33.7454V203.312ZM45.6271 210H46.9603L44.1939 202.267H42.7273L39.961 210H41.283L41.8385 208.422H45.0716L45.6271 210ZM44.716 207.389H42.1941L43.4606 203.801L44.716 207.389ZM47.7409 206.123C47.7409 208.445 49.5074 210.067 51.685 210.067C53.2959 210.067 54.6847 209.267 55.2735 207.756H53.7514C53.3403 208.578 52.6071 208.967 51.685 208.967C50.1518 208.967 49.0408 207.867 49.0408 206.123C49.0408 204.378 50.1518 203.29 51.685 203.29C52.6071 203.29 53.3403 203.678 53.7514 204.501H55.2735C54.6847 202.99 53.2959 202.179 51.685 202.179C49.5074 202.179 47.7409 203.812 47.7409 206.123ZM56.356 203.312H58.4225V210H59.689V203.312H61.7444V202.279H56.356V203.312ZM63.727 210H65.0046V201.901H62.6937V203.056H63.727V210ZM66.7446 205.845C66.7446 208.2 67.3667 209.978 69.6332 209.978C71.8996 209.978 72.5218 208.2 72.5218 205.845C72.5218 203.534 71.8996 201.756 69.6332 201.756C67.3667 201.756 66.7446 203.534 66.7446 205.845ZM71.2774 205.845C71.2774 207.434 71.1108 208.822 69.6332 208.822C68.1555 208.822 67.9889 207.434 67.9889 205.845C67.9889 204.334 68.1555 202.912 69.6332 202.912C71.1108 202.912 71.2774 204.334 71.2774 205.845ZM73.8619 205.845C73.8619 208.2 74.4841 209.978 76.7505 209.978C79.0169 209.978 79.6391 208.2 79.6391 205.845C79.6391 203.534 79.0169 201.756 76.7505 201.756C74.4841 201.756 73.8619 203.534 73.8619 205.845ZM78.3948 205.845C78.3948 207.434 78.2281 208.822 76.7505 208.822C75.2729 208.822 75.1062 207.434 75.1062 205.845C75.1062 204.334 75.2729 202.912 76.7505 202.912C78.2281 202.912 78.3948 204.334 78.3948 205.845Z" fill="#9AA3AF"/>
</svg>
