<svg width="112" height="218" viewBox="0 0 112 218" fill="none" xmlns="http://www.w3.org/2000/svg">
<rect y="100" width="112" height="94" fill="#F9FAFA"/>
<path d="M0 4C0 1.79086 1.79086 0 4 0H108C110.209 0 112 1.79086 112 4V100H0V4Z" fill="#008691"/>
<path d="M13.9105 109.267V115.022L10.0998 109.267H8.83325V117H10.0998V111.234L13.9105 117H15.1771V109.267H13.9105ZM22.0509 117H23.3841L20.6177 109.267H19.1511L16.3848 117H17.7068L18.2623 115.422H21.4954L22.0509 117ZM21.1398 114.389H18.6179L19.8844 110.801L21.1398 114.389ZM24.5869 117H25.8534V111.712L28.2199 117H29.0975L31.4529 111.712V117H32.7194V109.279H31.364L28.6643 115.333L25.9534 109.279H24.5869V117ZM38.6503 109.267H34.3841V117H38.6503V115.967H35.6506V113.6H38.317V112.567H35.6506V110.301H38.6503V109.267Z" fill="#C2C8CF"/>
<path d="M14.3051 134.387C14.3051 135.4 13.5853 136 12.3856 136H10.2394V132.721H12.3456C13.532 132.721 14.3051 133.361 14.3051 134.387ZM14.0652 130.215C14.0652 131.161 13.412 131.721 12.2789 131.721H10.2394V128.709H12.2523C13.4386 128.709 14.0652 129.295 14.0652 130.215ZM15.5181 134.507C15.5181 133.361 14.6917 132.388 13.6786 132.215C14.5717 131.921 15.3048 131.241 15.3048 130.068C15.3048 128.775 14.3184 127.709 12.3589 127.709H9.02641V137H12.4922C14.4117 137 15.5181 135.907 15.5181 134.507ZM17.2014 137H18.4145V127.136H17.2014V137ZM26.9603 129.695H25.7472V133.707C25.7472 135.28 24.9074 136.054 23.6544 136.054C22.4281 136.054 21.6149 135.294 21.6149 133.814V129.695H20.4152V133.974C20.4152 136.067 21.7349 137.107 23.4145 137.107C24.3876 137.107 25.2807 136.68 25.7472 135.92V137H26.9603V129.695ZM32.1143 130.602C33.3673 130.602 34.4337 131.388 34.4204 132.814H29.8082C29.9415 131.388 30.9279 130.602 32.1143 130.602ZM35.5268 134.747H34.2204C33.9538 135.534 33.2607 136.094 32.1676 136.094C30.9279 136.094 29.8882 135.28 29.7949 133.801H35.6334C35.6601 133.548 35.6734 133.334 35.6734 133.068C35.6734 131.068 34.2871 129.575 32.1676 129.575C30.0348 129.575 28.5552 131.028 28.5552 133.334C28.5552 135.654 30.0881 137.12 32.1676 137.12C33.9805 137.12 35.1535 136.08 35.5268 134.747ZM40.8284 127.709V137H45.2939V136.014H42.0414V127.709H40.8284ZM46.1289 133.321C46.1289 135.587 47.6352 137.12 49.5814 137.12C50.9277 137.12 51.8741 136.427 52.314 135.64V137H53.5404V129.695H52.314V131.028C51.8875 130.268 50.9544 129.575 49.5947 129.575C47.6352 129.575 46.1289 131.041 46.1289 133.321ZM52.314 133.334C52.314 135.054 51.1676 136.054 49.8346 136.054C48.5016 136.054 47.3686 135.04 47.3686 133.321C47.3686 131.601 48.5016 130.628 49.8346 130.628C51.1676 130.628 52.314 131.641 52.314 133.334ZM55.1371 133.321C55.1371 135.587 56.6434 137.12 58.6029 137.12C59.9359 137.12 60.8823 136.413 61.3222 135.627V137.16C61.3222 138.72 60.3491 139.546 59.0561 139.546C57.8564 139.546 56.9899 138.946 56.7233 138.066H55.5236C55.7636 139.626 57.1366 140.599 59.0561 140.599C61.2022 140.599 62.5485 139.173 62.5485 137.16V129.695H61.3222V131.028C60.8956 130.242 59.9359 129.575 58.6029 129.575C56.6434 129.575 55.1371 131.041 55.1371 133.321ZM61.3222 133.334C61.3222 135.054 60.1758 136.054 58.8428 136.054C57.5098 136.054 56.3768 135.04 56.3768 133.321C56.3768 131.601 57.5098 130.628 58.8428 130.628C60.1758 130.628 61.3222 131.641 61.3222 133.334ZM71.5301 133.334C71.5301 131.028 69.9171 129.575 67.8376 129.575C65.7715 129.575 64.1452 131.028 64.1452 133.334C64.1452 135.654 65.7182 137.12 67.7843 137.12C69.8638 137.12 71.5301 135.654 71.5301 133.334ZM65.3849 133.334C65.3849 131.495 66.5446 130.628 67.8243 130.628C69.0773 130.628 70.2904 131.495 70.2904 133.334C70.2904 135.187 69.0507 136.054 67.7843 136.054C66.518 136.054 65.3849 135.187 65.3849 133.334ZM80.0566 133.334C80.0566 131.028 78.4436 129.575 76.3642 129.575C74.298 129.575 72.6717 131.028 72.6717 133.334C72.6717 135.654 74.2447 137.12 76.3108 137.12C78.3903 137.12 80.0566 135.654 80.0566 133.334ZM73.9114 133.334C73.9114 131.495 75.0711 130.628 76.3508 130.628C77.6038 130.628 78.8169 131.495 78.8169 133.334C78.8169 135.187 77.5772 136.054 76.3108 136.054C75.0445 136.054 73.9114 135.187 73.9114 133.334ZM86.9968 137H88.1965V132.694C88.1965 130.602 86.9035 129.562 85.2106 129.562C84.2242 129.562 83.3444 129.975 82.8645 130.735V129.695H81.6515V137H82.8645V132.961C82.8645 131.388 83.7176 130.615 84.9573 130.615C86.1837 130.615 86.9968 131.375 86.9968 132.868V137Z" fill="#5D6B7E"/>
<path d="M13.7328 160H14.9993V152.279H13.7328V155.589H10.0998V152.279H8.83325V160H10.0998V156.623H13.7328V160ZM20.9329 152.267H16.6667V160H20.9329V158.967H17.9332V156.6H20.5996V155.567H17.9332V153.301H20.9329V152.267ZM27.0147 160H28.4368L26.037 156.145L28.4479 152.279H27.0369L25.3926 155.1L23.6372 152.279H22.2152L24.626 156.145L22.2263 160H23.6372L25.2704 157.2L27.0147 160Z" fill="#C2C8CF"/>
<path d="M8.82646 175.081C8.82646 177.881 9.51962 180 12.1856 180C14.8383 180 15.5314 177.881 15.5314 175.081C15.5314 172.322 14.8383 170.216 12.1856 170.216C9.51962 170.216 8.82646 172.322 8.82646 175.081ZM14.3318 175.081C14.3318 177.161 14.0785 178.894 12.1856 178.894C10.2794 178.894 10.0262 177.161 10.0262 175.081C10.0262 173.082 10.2794 171.322 12.1856 171.322C14.0785 171.322 14.3318 173.082 14.3318 175.081ZM17.1968 175.081C17.1968 177.881 17.8899 180 20.5559 180C23.2086 180 23.9018 177.881 23.9018 175.081C23.9018 172.322 23.2086 170.216 20.5559 170.216C17.8899 170.216 17.1968 172.322 17.1968 175.081ZM22.7021 175.081C22.7021 177.161 22.4488 178.894 20.5559 178.894C18.6497 178.894 18.3965 177.161 18.3965 175.081C18.3965 173.082 18.6497 171.322 20.5559 171.322C22.4488 171.322 22.7021 173.082 22.7021 175.081ZM27.3266 174.988C26.2469 175.308 25.5404 176.188 25.5404 177.401C25.5404 179.147 26.9134 180.267 28.9396 180.267C30.979 180.267 32.3654 179.147 32.3654 177.401C32.3654 176.201 31.6589 175.321 30.5658 174.988C31.5122 174.615 32.1121 173.815 32.1121 172.775C32.1121 171.375 31.0324 170.216 28.9396 170.216C26.8467 170.216 25.7803 171.362 25.7803 172.775C25.7803 173.855 26.3402 174.601 27.3266 174.988ZM28.9396 174.588C27.7665 174.588 26.9534 173.935 26.9534 172.935C26.9534 171.802 27.7532 171.229 28.9396 171.229C30.1526 171.229 30.9391 171.815 30.9391 172.922C30.9391 173.922 30.1259 174.588 28.9396 174.588ZM28.9396 175.521C30.2059 175.521 31.1657 176.121 31.1657 177.361C31.1657 178.48 30.3125 179.254 28.9396 179.254C27.5666 179.254 26.7001 178.494 26.7001 177.361C26.7001 176.081 27.6999 175.521 28.9396 175.521ZM40.4681 172.655C40.3082 171.309 39.3751 170.162 37.5355 170.162C35.0961 170.162 34.1231 172.029 34.1231 175.055C34.1231 177.974 34.8029 180.027 37.6555 180.027C39.7616 180.027 40.8014 178.587 40.8014 176.827C40.8014 174.801 39.5884 173.615 37.7888 173.615C36.6424 173.615 35.5894 174.148 35.1761 175.095C35.1628 172.229 35.9893 171.176 37.5222 171.176C38.6153 171.176 39.1618 171.722 39.3484 172.655H40.4681ZM37.5355 174.641C38.9219 174.641 39.6283 175.508 39.6283 176.867C39.6283 178.174 38.8419 179.014 37.5889 179.014C36.0692 179.014 35.3228 178.014 35.3228 176.734C35.3228 175.295 36.4291 174.641 37.5355 174.641ZM42.8777 177.414C43.011 178.827 43.9441 180.013 45.8637 180.013C48.3964 180.013 49.1295 178.214 49.1295 175.001C49.1295 172.015 48.3697 170.176 45.757 170.176C43.6775 170.176 42.5845 171.509 42.5845 173.348C42.5845 175.388 43.9041 176.494 45.677 176.494C46.7168 176.494 47.6765 176.028 48.0631 175.215C48.1031 178.04 47.3433 179 45.9303 179C44.8106 179 44.1707 178.414 43.9975 177.414H42.8777ZM45.877 175.468C44.4373 175.468 43.7442 174.561 43.7442 173.322C43.7442 172.042 44.5307 171.189 45.7837 171.189C47.17 171.189 47.9165 172.109 47.9165 173.415C47.9165 174.708 47.0367 175.468 45.877 175.468ZM51.7939 180H53.0203V170.362H50.5143V171.469H51.7939V180Z" fill="#5D6B7E"/>
<path d="M0 194H112V214C112 216.209 110.209 218 108 218H4C1.79086 218 0 216.209 0 214V194Z" fill="#EDEFF1"/>
<path d="M8.41107 206.123C8.41107 208.445 10.1776 210.067 12.3551 210.067C13.9661 210.067 15.3548 209.267 15.9437 207.756H14.4216C14.0105 208.578 13.2773 208.967 12.3551 208.967C10.8219 208.967 9.71094 207.867 9.71094 206.123C9.71094 204.378 10.8219 203.29 12.3551 203.29C13.2773 203.29 14.0105 203.678 14.4216 204.501H15.9437C15.3548 202.99 13.9661 202.179 12.3551 202.179C10.1776 202.179 8.41107 203.812 8.41107 206.123ZM24.8921 206.123C24.8921 203.812 23.1478 202.179 20.948 202.179C18.7705 202.179 17.004 203.812 17.004 206.123C17.004 208.445 18.7705 210.078 20.948 210.078C23.1478 210.078 24.8921 208.445 24.8921 206.123ZM18.3038 206.123C18.3038 204.378 19.4148 203.29 20.948 203.29C22.4812 203.29 23.5922 204.378 23.5922 206.123C23.5922 207.867 22.4812 208.978 20.948 208.978C19.4148 208.978 18.3038 207.867 18.3038 206.123ZM31.2156 202.267V208.022L27.4049 202.267H26.1384V210H27.4049V204.234L31.2156 210H32.4822V202.267H31.2156ZM33.7454 203.312H35.8119V210H37.0784V203.312H39.1338V202.279H33.7454V203.312ZM45.6271 210H46.9603L44.1939 202.267H42.7273L39.961 210H41.283L41.8385 208.422H45.0716L45.6271 210ZM44.716 207.389H42.1941L43.4606 203.801L44.716 207.389ZM47.7409 206.123C47.7409 208.445 49.5074 210.067 51.685 210.067C53.2959 210.067 54.6847 209.267 55.2735 207.756H53.7514C53.3403 208.578 52.6071 208.967 51.685 208.967C50.1518 208.967 49.0408 207.867 49.0408 206.123C49.0408 204.378 50.1518 203.29 51.685 203.29C52.6071 203.29 53.3403 203.678 53.7514 204.501H55.2735C54.6847 202.99 53.2959 202.179 51.685 202.179C49.5074 202.179 47.7409 203.812 47.7409 206.123ZM56.356 203.312H58.4225V210H59.689V203.312H61.7444V202.279H56.356V203.312ZM63.1937 201.879V206.556H64.3936C64.6047 205.956 65.1046 205.545 65.849 205.545C66.9044 205.545 67.4266 206.145 67.4266 207.2C67.4266 208.2 66.9378 208.945 65.849 208.945C64.9935 208.945 64.4158 208.5 64.2491 207.811H63.0159C63.2048 209.078 64.1714 210 65.8379 210C67.7155 210 68.6376 208.778 68.6376 207.167C68.6376 205.945 68.0265 204.467 66.0379 204.467C65.3157 204.467 64.6602 204.801 64.3602 205.2V202.99H68.0821V201.879H63.1937ZM69.956 205.845C69.956 208.2 70.5782 209.978 72.8446 209.978C75.1111 209.978 75.7332 208.2 75.7332 205.845C75.7332 203.534 75.1111 201.756 72.8446 201.756C70.5782 201.756 69.956 203.534 69.956 205.845ZM74.4889 205.845C74.4889 207.434 74.3223 208.822 72.8446 208.822C71.367 208.822 71.2004 207.434 71.2004 205.845C71.2004 204.334 71.367 202.912 72.8446 202.912C74.3223 202.912 74.4889 204.334 74.4889 205.845ZM77.0734 205.845C77.0734 208.2 77.6955 209.978 79.962 209.978C82.2284 209.978 82.8506 208.2 82.8506 205.845C82.8506 203.534 82.2284 201.756 79.962 201.756C77.6955 201.756 77.0734 203.534 77.0734 205.845ZM81.6063 205.845C81.6063 207.434 81.4396 208.822 79.962 208.822C78.4844 208.822 78.3177 207.434 78.3177 205.845C78.3177 204.334 78.4844 202.912 79.962 202.912C81.4396 202.912 81.6063 204.334 81.6063 205.845Z" fill="#9AA3AF"/>
</svg>
