<svg width="112" height="218" viewBox="0 0 112 218" fill="none" xmlns="http://www.w3.org/2000/svg">
<rect y="100" width="112" height="94" fill="#F9FAFA"/>
<path d="M0 4C0 1.79086 1.79086 0 4 0H108C110.209 0 112 1.79086 112 4V100H0V4Z" fill="#00646D"/>
<path d="M13.9105 109.267V115.022L10.0998 109.267H8.83325V117H10.0998V111.234L13.9105 117H15.1771V109.267H13.9105ZM22.0509 117H23.3841L20.6177 109.267H19.1511L16.3848 117H17.7068L18.2623 115.422H21.4954L22.0509 117ZM21.1398 114.389H18.6179L19.8844 110.801L21.1398 114.389ZM24.5869 117H25.8534V111.712L28.2199 117H29.0975L31.4529 111.712V117H32.7194V109.279H31.364L28.6643 115.333L25.9534 109.279H24.5869V117ZM38.6503 109.267H34.3841V117H38.6503V115.967H35.6506V113.6H38.317V112.567H35.6506V110.301H38.6503V109.267Z" fill="#C2C8CF"/>
<path d="M15.0649 134.467C15.0649 131.028 10.0528 132.521 10.0528 130.122C10.0528 129.122 10.8393 128.602 11.839 128.629C12.9721 128.642 13.5586 129.349 13.6386 129.975H14.9716C14.825 128.562 13.6653 127.589 11.8924 127.589C10.0528 127.589 8.81313 128.629 8.81313 130.162C8.81313 133.614 13.8385 132.015 13.8385 134.521C13.8385 135.4 13.1454 136.067 11.9723 136.067C10.6793 136.067 10.1328 135.294 10.0528 134.521H8.75981C8.78647 136.054 10.1061 137.093 11.9723 137.093C13.9852 137.093 15.0649 135.787 15.0649 134.467ZM16.85 137H18.063V133.774L20.929 137H22.5819L19.1294 133.334L22.5685 129.695H20.8756L18.063 132.934V127.136H16.85V137ZM30.6418 133.334C30.6418 131.028 29.0289 129.575 26.9494 129.575C24.8833 129.575 23.257 131.028 23.257 133.334C23.257 135.654 24.83 137.12 26.8961 137.12C28.9756 137.12 30.6418 135.654 30.6418 133.334ZM24.4967 133.334C24.4967 131.495 25.6564 130.628 26.9361 130.628C28.1891 130.628 29.4021 131.495 29.4021 133.334C29.4021 135.187 28.1625 136.054 26.8961 136.054C25.6298 136.054 24.4967 135.187 24.4967 133.334ZM33.4498 131.055V127.136H32.2368V137H33.4498V135.654C33.903 136.453 34.8494 137.12 36.1824 137.12C38.1419 137.12 39.6482 135.587 39.6482 133.321C39.6482 131.041 38.1553 129.575 36.1824 129.575C34.8894 129.575 33.9163 130.242 33.4498 131.055ZM38.4085 133.321C38.4085 135.04 37.2755 136.054 35.9292 136.054C34.6095 136.054 33.4498 135.054 33.4498 133.334C33.4498 131.641 34.6095 130.628 35.9292 130.628C37.2755 130.628 38.4085 131.601 38.4085 133.321ZM44.3508 130.602C45.6038 130.602 46.6702 131.388 46.6569 132.814H42.0447C42.178 131.388 43.1644 130.602 44.3508 130.602ZM47.7633 134.747H46.4569C46.1903 135.534 45.4972 136.094 44.4041 136.094C43.1644 136.094 42.1247 135.28 42.0314 133.801H47.8699C47.8966 133.548 47.9099 133.334 47.9099 133.068C47.9099 131.068 46.5236 129.575 44.4041 129.575C42.2713 129.575 40.7917 131.028 40.7917 133.334C40.7917 135.654 42.3246 137.12 44.4041 137.12C46.217 137.12 47.39 136.08 47.7633 134.747ZM49.5111 137H50.7241V127.136H49.5111V137ZM59.7231 133.334C59.7231 131.028 58.1102 129.575 56.0307 129.575C53.9645 129.575 52.3383 131.028 52.3383 133.334C52.3383 135.654 53.9112 137.12 55.9774 137.12C58.0569 137.12 59.7231 135.654 59.7231 133.334ZM53.578 133.334C53.578 131.495 54.7377 130.628 56.0174 130.628C57.2704 130.628 58.4834 131.495 58.4834 133.334C58.4834 135.187 57.2437 136.054 55.9774 136.054C54.711 136.054 53.578 135.187 53.578 133.334ZM61.5446 137H62.7577V130.695H64.2906V129.695H62.7577V129.175C62.7577 128.229 63.1176 127.829 64.2106 127.829V126.816C62.3444 126.816 61.5446 127.549 61.5446 129.175V129.695H60.5982V130.695H61.5446V137ZM65.9316 137H67.1446V130.695H68.6775V129.695H67.1446V129.175C67.1446 128.229 67.5045 127.829 68.5976 127.829V126.816C66.7314 126.816 65.9316 127.549 65.9316 129.175V129.695H64.9851V130.695H65.9316V137Z" fill="#5D6B7E"/>
<path d="M13.7328 160H14.9993V152.279H13.7328V155.589H10.0998V152.279H8.83325V160H10.0998V156.623H13.7328V160ZM20.9329 152.267H16.6667V160H20.9329V158.967H17.9332V156.6H20.5996V155.567H17.9332V153.301H20.9329V152.267ZM27.0147 160H28.4368L26.037 156.145L28.4479 152.279H27.0369L25.3926 155.1L23.6372 152.279H22.2152L24.626 156.145L22.2263 160H23.6372L25.2704 157.2L27.0147 160Z" fill="#C2C8CF"/>
<path d="M8.82646 175.081C8.82646 177.881 9.51962 180 12.1856 180C14.8383 180 15.5314 177.881 15.5314 175.081C15.5314 172.322 14.8383 170.216 12.1856 170.216C9.51962 170.216 8.82646 172.322 8.82646 175.081ZM14.3318 175.081C14.3318 177.161 14.0785 178.894 12.1856 178.894C10.2794 178.894 10.0262 177.161 10.0262 175.081C10.0262 173.082 10.2794 171.322 12.1856 171.322C14.0785 171.322 14.3318 173.082 14.3318 175.081ZM17.1968 175.081C17.1968 177.881 17.8899 180 20.5559 180C23.2086 180 23.9018 177.881 23.9018 175.081C23.9018 172.322 23.2086 170.216 20.5559 170.216C17.8899 170.216 17.1968 172.322 17.1968 175.081ZM22.7021 175.081C22.7021 177.161 22.4488 178.894 20.5559 178.894C18.6497 178.894 18.3965 177.161 18.3965 175.081C18.3965 173.082 18.6497 171.322 20.5559 171.322C22.4488 171.322 22.7021 173.082 22.7021 175.081ZM32.0588 172.655C31.8988 171.309 30.9657 170.162 29.1262 170.162C26.6868 170.162 25.7137 172.029 25.7137 175.055C25.7137 177.974 26.3935 180.027 29.2461 180.027C31.3523 180.027 32.392 178.587 32.392 176.827C32.392 174.801 31.179 173.615 29.3794 173.615C28.2331 173.615 27.18 174.148 26.7668 175.095C26.7534 172.229 27.5799 171.176 29.1128 171.176C30.2059 171.176 30.7524 171.722 30.9391 172.655H32.0588ZM29.1262 174.641C30.5125 174.641 31.219 175.508 31.219 176.867C31.219 178.174 30.4325 179.014 29.1795 179.014C27.6599 179.014 26.9134 178.014 26.9134 176.734C26.9134 175.295 28.0198 174.641 29.1262 174.641ZM38.6673 180H39.867V177.854H41.2V176.801H39.867V170.456H38.4141L33.7352 176.934V177.854H38.6673V180ZM35.1349 176.801L38.7207 171.722V176.801H35.1349ZM48.9035 172.655C48.7436 171.309 47.8105 170.162 45.9709 170.162C43.5315 170.162 42.5584 172.029 42.5584 175.055C42.5584 177.974 43.2383 180.027 46.0909 180.027C48.197 180.027 49.2368 178.587 49.2368 176.827C49.2368 174.801 48.0237 173.615 46.2242 173.615C45.0778 173.615 44.0247 174.148 43.6115 175.095C43.5982 172.229 44.4246 171.176 45.9576 171.176C47.0507 171.176 47.5972 171.722 47.7838 172.655H48.9035ZM45.9709 174.641C47.3572 174.641 48.0637 175.508 48.0637 176.867C48.0637 178.174 47.2773 179.014 46.0242 179.014C44.5046 179.014 43.7581 178.014 43.7581 176.734C43.7581 175.295 44.8645 174.641 45.9709 174.641ZM53.9658 170.709H51.0732V180H53.9658C57.0184 180 58.8979 178.254 58.8979 175.374C58.8979 172.495 57.0184 170.709 53.9658 170.709ZM52.2862 179V171.695H53.9658C56.3919 171.695 57.6582 173.108 57.6582 175.374C57.6582 177.641 56.3919 179 53.9658 179H52.2862Z" fill="#5D6B7E"/>
<path d="M0 194H112V214C112 216.209 110.209 218 108 218H4C1.79086 218 0 216.209 0 214V194Z" fill="#EDEFF1"/>
<path d="M8.41107 206.123C8.41107 208.445 10.1776 210.067 12.3551 210.067C13.9661 210.067 15.3548 209.267 15.9437 207.756H14.4216C14.0105 208.578 13.2773 208.967 12.3551 208.967C10.8219 208.967 9.71094 207.867 9.71094 206.123C9.71094 204.378 10.8219 203.29 12.3551 203.29C13.2773 203.29 14.0105 203.678 14.4216 204.501H15.9437C15.3548 202.99 13.9661 202.179 12.3551 202.179C10.1776 202.179 8.41107 203.812 8.41107 206.123ZM24.8921 206.123C24.8921 203.812 23.1478 202.179 20.948 202.179C18.7705 202.179 17.004 203.812 17.004 206.123C17.004 208.445 18.7705 210.078 20.948 210.078C23.1478 210.078 24.8921 208.445 24.8921 206.123ZM18.3038 206.123C18.3038 204.378 19.4148 203.29 20.948 203.29C22.4812 203.29 23.5922 204.378 23.5922 206.123C23.5922 207.867 22.4812 208.978 20.948 208.978C19.4148 208.978 18.3038 207.867 18.3038 206.123ZM31.2156 202.267V208.022L27.4049 202.267H26.1384V210H27.4049V204.234L31.2156 210H32.4822V202.267H31.2156ZM33.7454 203.312H35.8119V210H37.0784V203.312H39.1338V202.279H33.7454V203.312ZM45.6271 210H46.9603L44.1939 202.267H42.7273L39.961 210H41.283L41.8385 208.422H45.0716L45.6271 210ZM44.716 207.389H42.1941L43.4606 203.801L44.716 207.389ZM47.7409 206.123C47.7409 208.445 49.5074 210.067 51.685 210.067C53.2959 210.067 54.6847 209.267 55.2735 207.756H53.7514C53.3403 208.578 52.6071 208.967 51.685 208.967C50.1518 208.967 49.0408 207.867 49.0408 206.123C49.0408 204.378 50.1518 203.29 51.685 203.29C52.6071 203.29 53.3403 203.678 53.7514 204.501H55.2735C54.6847 202.99 53.2959 202.179 51.685 202.179C49.5074 202.179 47.7409 203.812 47.7409 206.123ZM56.356 203.312H58.4225V210H59.689V203.312H61.7444V202.279H56.356V203.312ZM68.3821 203.778C68.2487 202.701 67.4599 201.701 65.8823 201.701C63.8603 201.701 63.0159 203.234 63.0159 205.767C63.0159 208.345 63.627 210 65.9823 210C67.7155 210 68.6376 208.833 68.6376 207.3C68.6376 205.612 67.6044 204.634 66.149 204.634C65.3046 204.634 64.5047 204.989 64.1047 205.656C64.138 203.534 64.7269 202.756 65.8712 202.756C66.6711 202.756 67.06 203.123 67.2155 203.778H68.3821ZM65.8712 205.7C66.9378 205.7 67.4266 206.389 67.4266 207.356C67.4266 208.311 66.8489 208.945 65.9156 208.945C64.838 208.945 64.2491 208.278 64.2491 207.278C64.2491 206.2 65.038 205.7 65.8712 205.7ZM69.9886 205.845C69.9886 208.2 70.6108 209.978 72.8772 209.978C75.1436 209.978 75.7658 208.2 75.7658 205.845C75.7658 203.534 75.1436 201.756 72.8772 201.756C70.6108 201.756 69.9886 203.534 69.9886 205.845ZM74.5215 205.845C74.5215 207.434 74.3548 208.822 72.8772 208.822C71.3996 208.822 71.2329 207.434 71.2329 205.845C71.2329 204.334 71.3996 202.912 72.8772 202.912C74.3548 202.912 74.5215 204.334 74.5215 205.845ZM77.1059 205.845C77.1059 208.2 77.7281 209.978 79.9945 209.978C82.261 209.978 82.8831 208.2 82.8831 205.845C82.8831 203.534 82.261 201.756 79.9945 201.756C77.7281 201.756 77.1059 203.534 77.1059 205.845ZM81.6388 205.845C81.6388 207.434 81.4722 208.822 79.9945 208.822C78.5169 208.822 78.3503 207.434 78.3503 205.845C78.3503 204.334 78.5169 202.912 79.9945 202.912C81.4722 202.912 81.6388 204.334 81.6388 205.845Z" fill="#9AA3AF"/>
</svg>
