<svg width="176" height="218" viewBox="0 0 176 218" fill="none" xmlns="http://www.w3.org/2000/svg">
<rect y="100" width="176" height="94" fill="#F9FAFA"/>
<path d="M0 194H176V214C176 216.209 174.209 218 172 218H4C1.79086 218 0 216.209 0 214V194Z" fill="#EDEFF1"/>
<path d="M0 4C0 1.79086 1.79086 0 4 0H172C174.209 0 176 1.79086 176 4V100H0V4Z" fill="#00A7B5"/>
<path d="M13.9105 109.267V115.022L10.0998 109.267H8.83325V117H10.0998V111.234L13.9105 117H15.1771V109.267H13.9105ZM22.0509 117H23.3841L20.6177 109.267H19.1511L16.3848 117H17.7068L18.2623 115.422H21.4954L22.0509 117ZM21.1398 114.389H18.6179L19.8844 110.801L21.1398 114.389ZM24.5869 117H25.8534V111.712L28.2199 117H29.0975L31.4529 111.712V117H32.7194V109.279H31.364L28.6643 115.333L25.9534 109.279H24.5869V117ZM38.6503 109.267H34.3841V117H38.6503V115.967H35.6506V113.6H38.317V112.567H35.6506V110.301H38.6503V109.267Z" fill="#C2C8CF"/>
<path d="M14.3051 134.387C14.3051 135.4 13.5853 136 12.3856 136H10.2394V132.721H12.3456C13.532 132.721 14.3051 133.361 14.3051 134.387ZM14.0652 130.215C14.0652 131.161 13.412 131.721 12.2789 131.721H10.2394V128.709H12.2523C13.4386 128.709 14.0652 129.295 14.0652 130.215ZM15.5181 134.507C15.5181 133.361 14.6917 132.388 13.6786 132.215C14.5717 131.921 15.3048 131.241 15.3048 130.068C15.3048 128.775 14.3184 127.709 12.3589 127.709H9.02641V137H12.4922C14.4117 137 15.5181 135.907 15.5181 134.507ZM24.133 133.334C24.133 131.028 22.5201 129.575 20.4406 129.575C18.3745 129.575 16.7482 131.028 16.7482 133.334C16.7482 135.654 18.3212 137.12 20.3873 137.12C22.4668 137.12 24.133 135.654 24.133 133.334ZM17.9879 133.334C17.9879 131.495 19.1476 130.628 20.4273 130.628C21.6803 130.628 22.8934 131.495 22.8934 133.334C22.8934 135.187 21.6537 136.054 20.3873 136.054C19.121 136.054 17.9879 135.187 17.9879 133.334ZM31.0733 137H32.273V132.694C32.273 130.602 30.98 129.562 29.2871 129.562C28.3007 129.562 27.4209 129.975 26.941 130.735V129.695H25.728V137H26.941V132.961C26.941 131.388 27.7941 130.615 29.0338 130.615C30.2602 130.615 31.0733 131.375 31.0733 132.868V137ZM33.8013 133.321C33.8013 135.587 35.3075 137.12 37.2671 137.12C38.6001 137.12 39.5465 136.44 39.9864 135.627V137H41.2127V127.136H39.9864V131.001C39.4798 130.162 38.4268 129.575 37.2804 129.575C35.3075 129.575 33.8013 131.041 33.8013 133.321ZM39.9864 133.334C39.9864 135.054 38.84 136.054 37.507 136.054C36.174 136.054 35.0409 135.04 35.0409 133.321C35.0409 131.601 36.174 130.628 37.507 130.628C38.84 130.628 39.9864 131.641 39.9864 133.334ZM43.2626 137H44.4757V129.695H43.2626V137ZM43.8892 128.509C44.329 128.509 44.689 128.149 44.689 127.682C44.689 127.216 44.329 126.856 43.8892 126.856C43.4226 126.856 43.0627 127.216 43.0627 127.682C43.0627 128.149 43.4226 128.509 43.8892 128.509ZM55.3756 134.387C55.3756 135.4 54.6557 136 53.456 136H51.3099V132.721H53.416C54.6024 132.721 55.3756 133.361 55.3756 134.387ZM55.1356 130.215C55.1356 131.161 54.4824 131.721 53.3494 131.721H51.3099V128.709H53.3227C54.5091 128.709 55.1356 129.295 55.1356 130.215ZM56.5886 134.507C56.5886 133.361 55.7621 132.388 54.749 132.215C55.6422 131.921 56.3753 131.241 56.3753 130.068C56.3753 128.775 55.3889 127.709 53.4294 127.709H50.0969V137H53.5627C55.4822 137 56.5886 135.907 56.5886 134.507ZM58.2719 137H59.4849V127.136H58.2719V137ZM68.0307 129.695H66.8177V133.707C66.8177 135.28 65.9779 136.054 64.7249 136.054C63.4985 136.054 62.6854 135.294 62.6854 133.814V129.695H61.4857V133.974C61.4857 136.067 62.8054 137.107 64.4849 137.107C65.458 137.107 66.3511 136.68 66.8177 135.92V137H68.0307V129.695ZM73.1847 130.602C74.4378 130.602 75.5042 131.388 75.4908 132.814H70.8787C71.012 131.388 71.9984 130.602 73.1847 130.602ZM76.5972 134.747H75.2909C75.0243 135.534 74.3311 136.094 73.2381 136.094C71.9984 136.094 70.9586 135.28 70.8653 133.801H76.7039C76.7305 133.548 76.7439 133.334 76.7439 133.068C76.7439 131.068 75.3575 129.575 73.2381 129.575C71.1053 129.575 69.6256 131.028 69.6256 133.334C69.6256 135.654 71.1586 137.12 73.2381 137.12C75.0509 137.12 76.224 136.08 76.5972 134.747Z" fill="#5D6B7E"/>
<path d="M8.41107 206.123C8.41107 208.445 10.1776 210.067 12.3551 210.067C13.9661 210.067 15.3548 209.267 15.9437 207.756H14.4216C14.0105 208.578 13.2773 208.967 12.3551 208.967C10.8219 208.967 9.71094 207.867 9.71094 206.123C9.71094 204.378 10.8219 203.29 12.3551 203.29C13.2773 203.29 14.0105 203.678 14.4216 204.501H15.9437C15.3548 202.99 13.9661 202.179 12.3551 202.179C10.1776 202.179 8.41107 203.812 8.41107 206.123ZM24.8921 206.123C24.8921 203.812 23.1478 202.179 20.948 202.179C18.7705 202.179 17.004 203.812 17.004 206.123C17.004 208.445 18.7705 210.078 20.948 210.078C23.1478 210.078 24.8921 208.445 24.8921 206.123ZM18.3038 206.123C18.3038 204.378 19.4148 203.29 20.948 203.29C22.4812 203.29 23.5922 204.378 23.5922 206.123C23.5922 207.867 22.4812 208.978 20.948 208.978C19.4148 208.978 18.3038 207.867 18.3038 206.123ZM31.2156 202.267V208.022L27.4049 202.267H26.1384V210H27.4049V204.234L31.2156 210H32.4822V202.267H31.2156ZM33.7454 203.312H35.8119V210H37.0784V203.312H39.1338V202.279H33.7454V203.312ZM45.6271 210H46.9603L44.1939 202.267H42.7273L39.961 210H41.283L41.8385 208.422H45.0716L45.6271 210ZM44.716 207.389H42.1941L43.4606 203.801L44.716 207.389ZM47.7409 206.123C47.7409 208.445 49.5074 210.067 51.685 210.067C53.2959 210.067 54.6847 209.267 55.2735 207.756H53.7514C53.3403 208.578 52.6071 208.967 51.685 208.967C50.1518 208.967 49.0408 207.867 49.0408 206.123C49.0408 204.378 50.1518 203.29 51.685 203.29C52.6071 203.29 53.3403 203.678 53.7514 204.501H55.2735C54.6847 202.99 53.2959 202.179 51.685 202.179C49.5074 202.179 47.7409 203.812 47.7409 206.123ZM56.356 203.312H58.4225V210H59.689V203.312H61.7444V202.279H56.356V203.312ZM68.2376 207.811C68.2376 204.989 64.1492 206.078 64.1492 204.334C64.1492 203.59 64.7158 203.234 65.449 203.256C66.2489 203.278 66.7045 203.756 66.7489 204.278H68.1488C68.0377 202.956 66.9933 202.179 65.5157 202.179C63.9381 202.179 62.8604 203.023 62.8604 204.378C62.8604 207.223 66.96 206.012 66.96 207.878C66.96 208.533 66.46 209.011 65.5712 209.011C64.6935 209.011 64.2491 208.5 64.1936 207.867H62.8382C62.8382 209.233 64.0269 210.078 65.5712 210.078C67.2933 210.078 68.2376 208.967 68.2376 207.811ZM73.4317 210H74.6761V208.311H75.7093V207.211H74.6761V202.001H73.1429L69.4099 207.356V208.311H73.4317V210ZM70.8653 207.211L73.4873 203.29V207.211H70.8653ZM76.7587 205.845C76.7587 208.2 77.3809 209.978 79.6473 209.978C81.9138 209.978 82.5359 208.2 82.5359 205.845C82.5359 203.534 81.9138 201.756 79.6473 201.756C77.3809 201.756 76.7587 203.534 76.7587 205.845ZM81.2916 205.845C81.2916 207.434 81.125 208.822 79.6473 208.822C78.1697 208.822 78.0031 207.434 78.0031 205.845C78.0031 204.334 78.1697 202.912 79.6473 202.912C81.125 202.912 81.2916 204.334 81.2916 205.845ZM83.8761 205.845C83.8761 208.2 84.4982 209.978 86.7647 209.978C89.0311 209.978 89.6533 208.2 89.6533 205.845C89.6533 203.534 89.0311 201.756 86.7647 201.756C84.4982 201.756 83.8761 203.534 83.8761 205.845ZM88.409 205.845C88.409 207.434 88.2423 208.822 86.7647 208.822C85.2871 208.822 85.1204 207.434 85.1204 205.845C85.1204 204.334 85.2871 202.912 86.7647 202.912C88.2423 202.912 88.409 204.334 88.409 205.845Z" fill="#9AA3AF"/>
<path d="M117.733 160H118.999V152.279H117.733V155.589H114.1V152.279H112.833V160H114.1V156.623H117.733V160ZM124.933 152.267H120.667V160H124.933V158.967H121.933V156.6H124.6V155.567H121.933V153.301H124.933V152.267ZM131.015 160H132.437L130.037 156.145L132.448 152.279H131.037L129.393 155.1L127.637 152.279H126.215L128.626 156.145L126.226 160H127.637L129.27 157.2L131.015 160Z" fill="#C2C8CF"/>
<path d="M112.826 175.081C112.826 177.881 113.52 180 116.186 180C118.838 180 119.531 177.881 119.531 175.081C119.531 172.322 118.838 170.216 116.186 170.216C113.52 170.216 112.826 172.322 112.826 175.081ZM118.332 175.081C118.332 177.161 118.078 178.894 116.186 178.894C114.279 178.894 114.026 177.161 114.026 175.081C114.026 173.082 114.279 171.322 116.186 171.322C118.078 171.322 118.332 173.082 118.332 175.081ZM121.197 175.081C121.197 177.881 121.89 180 124.556 180C127.209 180 127.902 177.881 127.902 175.081C127.902 172.322 127.209 170.216 124.556 170.216C121.89 170.216 121.197 172.322 121.197 175.081ZM126.702 175.081C126.702 177.161 126.449 178.894 124.556 178.894C122.65 178.894 122.396 177.161 122.396 175.081C122.396 173.082 122.65 171.322 124.556 171.322C126.449 171.322 126.702 173.082 126.702 175.081ZM136.005 180H137.285L133.939 170.762H132.54L129.18 180H130.46L131.207 177.934H135.259L136.005 180ZM134.912 176.947H131.553L133.233 172.255L134.912 176.947ZM138.163 170.389V171.429H143.308L139.549 180H140.775L144.481 171.309V170.389H138.163ZM151.305 177.387C151.305 178.4 150.585 179 149.385 179H147.239V175.721H149.345C150.532 175.721 151.305 176.361 151.305 177.387ZM151.065 173.215C151.065 174.161 150.412 174.721 149.278 174.721H147.239V171.709H149.252C150.438 171.709 151.065 172.295 151.065 173.215ZM152.518 177.507C152.518 176.361 151.691 175.388 150.678 175.215C151.571 174.921 152.304 174.241 152.304 173.068C152.304 171.775 151.318 170.709 149.358 170.709H146.026V180H149.492C151.411 180 152.518 178.907 152.518 177.507ZM154.348 170.349V175.788H155.494C155.814 175.028 156.52 174.521 157.494 174.521C158.893 174.521 159.6 175.321 159.6 176.694C159.6 178.014 158.946 179 157.48 179C156.347 179 155.561 178.4 155.334 177.387H154.148C154.388 178.947 155.547 180.027 157.467 180.027C159.72 180.027 160.759 178.534 160.759 176.668C160.759 175.175 160.013 173.482 157.667 173.482C156.72 173.482 155.867 173.908 155.467 174.455V171.415H160.146V170.349H154.348Z" fill="#5D6B7E"/>
<path d="M12.9328 154.589C12.9328 155.356 12.4884 155.9 11.4997 155.9H10.0998V153.312H11.4997C12.4884 153.312 12.9328 153.812 12.9328 154.589ZM8.83325 152.279V160H10.0998V156.911H11.0664L12.844 160H14.3549L12.444 156.8C13.7439 156.478 14.2327 155.5 14.2327 154.589C14.2327 153.334 13.3328 152.279 11.4997 152.279H8.83325ZM19.3748 152.179C17.1973 152.179 15.4308 153.812 15.4308 156.123C15.4308 158.445 17.1973 160.067 19.3748 160.067C21.4524 160.067 22.9633 158.545 23.1967 156.756V155.767H18.9415V156.778H21.8412C21.6524 158.078 20.7747 158.922 19.3748 158.922C17.8416 158.922 16.7306 157.822 16.7306 156.123C16.7306 154.423 17.8416 153.334 19.3748 153.334C20.2969 153.334 21.0302 153.723 21.4413 154.501H22.9633C22.3745 152.99 20.9858 152.179 19.3748 152.179ZM28.801 157.789C28.801 158.533 28.2788 158.967 27.4233 158.967H25.7124V156.556H27.3789C28.2232 156.556 28.801 157.023 28.801 157.789ZM28.601 154.423C28.601 155.134 28.101 155.523 27.2789 155.523H25.7124V153.312H27.2789C28.101 153.312 28.601 153.723 28.601 154.423ZM30.0675 157.922C30.0675 157 29.4009 156.178 28.5788 156.034C29.3231 155.767 29.8897 155.2 29.8897 154.267C29.8897 153.178 29.0232 152.279 27.39 152.279H24.4458V160H27.5344C29.112 160 30.0675 159.1 30.0675 157.922Z" fill="#C2C8CF"/>
<path d="M8.82646 175.081C8.82646 177.881 9.51962 180 12.1856 180C14.8383 180 15.5314 177.881 15.5314 175.081C15.5314 172.322 14.8383 170.216 12.1856 170.216C9.51962 170.216 8.82646 172.322 8.82646 175.081ZM14.3318 175.081C14.3318 177.161 14.0785 178.894 12.1856 178.894C10.2794 178.894 10.0262 177.161 10.0262 175.081C10.0262 173.082 10.2794 171.322 12.1856 171.322C14.0785 171.322 14.3318 173.082 14.3318 175.081ZM16.3436 181.906H17.1568L18.6497 178.32H17.3167L16.3436 181.906ZM24.3529 180H25.5793V170.362H23.0732V171.469H24.3529V180ZM34.1546 172.655C33.9946 171.309 33.0615 170.162 31.222 170.162C28.7826 170.162 27.8095 172.029 27.8095 175.055C27.8095 177.974 28.4894 180.027 31.342 180.027C33.4481 180.027 34.4879 178.587 34.4879 176.827C34.4879 174.801 33.2748 173.615 31.4753 173.615C30.3289 173.615 29.2758 174.148 28.8626 175.095C28.8493 172.229 29.6757 171.176 31.2087 171.176C32.3017 171.176 32.8483 171.722 33.0349 172.655H34.1546ZM31.222 174.641C32.6083 174.641 33.3148 175.508 33.3148 176.867C33.3148 178.174 32.5283 179.014 31.2753 179.014C29.7557 179.014 29.0092 178.014 29.0092 176.734C29.0092 175.295 30.1156 174.641 31.222 174.641ZM35.7378 170.389V171.429H40.8831L37.1241 180H38.3504L42.0562 171.309V170.389H35.7378ZM42.548 181.906H43.3612L44.8541 178.32H43.5211L42.548 181.906ZM50.5573 180H51.7836V170.362H49.2776V171.469H50.5573V180ZM55.6268 174.988C54.5471 175.308 53.8406 176.188 53.8406 177.401C53.8406 179.147 55.2136 180.267 57.2398 180.267C59.2793 180.267 60.6656 179.147 60.6656 177.401C60.6656 176.201 59.9591 175.321 58.866 174.988C59.8125 174.615 60.4123 173.815 60.4123 172.775C60.4123 171.375 59.3326 170.216 57.2398 170.216C55.147 170.216 54.0806 171.362 54.0806 172.775C54.0806 173.855 54.6404 174.601 55.6268 174.988ZM57.2398 174.588C56.0667 174.588 55.2536 173.935 55.2536 172.935C55.2536 171.802 56.0534 171.229 57.2398 171.229C58.4528 171.229 59.2393 171.815 59.2393 172.922C59.2393 173.922 58.4261 174.588 57.2398 174.588ZM57.2398 175.521C58.5061 175.521 59.4659 176.121 59.4659 177.361C59.4659 178.48 58.6128 179.254 57.2398 179.254C55.8668 179.254 55.0003 178.494 55.0003 177.361C55.0003 176.081 56.0001 175.521 57.2398 175.521ZM63.2364 180H64.4628V170.362H61.9567V171.469H63.2364V180Z" fill="#5D6B7E"/>
</svg>
