<svg width="112" height="218" viewBox="0 0 112 218" fill="none" xmlns="http://www.w3.org/2000/svg">
<rect y="100" width="112" height="94" fill="#F9FAFA"/>
<path d="M0 4C0 1.79086 1.79086 0 4 0H108C110.209 0 112 1.79086 112 4V100H0V4Z" fill="#264C79"/>
<path d="M13.9105 109.267V115.022L10.0998 109.267H8.83325V117H10.0998V111.234L13.9105 117H15.1771V109.267H13.9105ZM22.0509 117H23.3841L20.6177 109.267H19.1511L16.3848 117H17.7068L18.2623 115.422H21.4954L22.0509 117ZM21.1398 114.389H18.6179L19.8844 110.801L21.1398 114.389ZM24.5869 117H25.8534V111.712L28.2199 117H29.0975L31.4529 111.712V117H32.7194V109.279H31.364L28.6643 115.333L25.9534 109.279H24.5869V117ZM38.6503 109.267H34.3841V117H38.6503V115.967H35.6506V113.6H38.317V112.567H35.6506V110.301H38.6503V109.267Z" fill="#C2C8CF"/>
<path d="M15.0649 134.467C15.0649 131.028 10.0528 132.521 10.0528 130.122C10.0528 129.122 10.8393 128.602 11.839 128.629C12.9721 128.642 13.5586 129.349 13.6386 129.975H14.9716C14.825 128.562 13.6653 127.589 11.8924 127.589C10.0528 127.589 8.81313 128.629 8.81313 130.162C8.81313 133.614 13.8385 132.015 13.8385 134.521C13.8385 135.4 13.1454 136.067 11.9723 136.067C10.6793 136.067 10.1328 135.294 10.0528 134.521H8.75981C8.78647 136.054 10.1061 137.093 11.9723 137.093C13.9852 137.093 15.0649 135.787 15.0649 134.467ZM17.1166 135C17.1166 136.467 17.8497 137 19.1427 137H20.2358V135.974H19.3427C18.5962 135.974 18.3296 135.72 18.3296 135V130.695H20.2358V129.695H18.3296V127.856H17.1166V129.695H16.1701V130.695H17.1166V135ZM22.8919 136.254C22.8919 135.787 22.532 135.427 22.0921 135.427C21.6256 135.427 21.2656 135.787 21.2656 136.254C21.2656 136.72 21.6256 137.08 22.0921 137.08C22.532 137.08 22.8919 136.72 22.8919 136.254ZM29.2711 132.121V128.709H31.0574C32.4437 128.709 33.0302 129.349 33.0302 130.428C33.0302 131.468 32.4437 132.121 31.0574 132.121H29.2711ZM34.2699 130.428C34.2699 128.909 33.2435 127.709 31.0574 127.709H28.0581V137H29.2711V133.121H31.0574C33.3635 133.121 34.2699 131.841 34.2699 130.428ZM35.3243 133.321C35.3243 135.587 36.8306 137.12 38.7768 137.12C40.1231 137.12 41.0695 136.427 41.5094 135.64V137H42.7358V129.695H41.5094V131.028C41.0829 130.268 40.1498 129.575 38.7901 129.575C36.8306 129.575 35.3243 131.041 35.3243 133.321ZM41.5094 133.334C41.5094 135.054 40.3631 136.054 39.0301 136.054C37.6971 136.054 36.564 135.04 36.564 133.321C36.564 131.601 37.6971 130.628 39.0301 130.628C40.3631 130.628 41.5094 131.641 41.5094 133.334ZM45.0523 135C45.0523 136.467 45.7854 137 47.0785 137H48.1715V135.974H47.2784C46.5319 135.974 46.2653 135.72 46.2653 135V130.695H48.1715V129.695H46.2653V127.856H45.0523V129.695H44.1059V130.695H45.0523V135ZM50.8543 133.028C50.8543 131.335 51.7341 130.815 52.8938 130.815H53.2137V129.562C52.054 129.562 51.2675 130.068 50.8543 130.882V129.695H49.6413V137H50.8543V133.028ZM54.614 137H55.827V129.695H54.614V137ZM55.2405 128.509C55.6804 128.509 56.0403 128.149 56.0403 127.682C56.0403 127.216 55.6804 126.856 55.2405 126.856C54.7739 126.856 54.414 127.216 54.414 127.682C54.414 128.149 54.7739 128.509 55.2405 128.509ZM57.4412 133.334C57.4412 135.654 58.9208 137.12 61.0003 137.12C62.8132 137.12 63.9995 136.107 64.3728 134.654H63.0664C62.7998 135.574 62.08 136.094 61.0003 136.094C59.6673 136.094 58.6809 135.147 58.6809 133.334C58.6809 131.548 59.6673 130.602 61.0003 130.602C62.08 130.602 62.8132 131.161 63.0664 132.041H64.3728C63.9995 130.508 62.8132 129.575 61.0003 129.575C58.9208 129.575 57.4412 131.041 57.4412 133.334ZM65.9913 137H67.2044V133.774L70.0703 137H71.7232L68.2708 133.334L71.7099 129.695H70.017L67.2044 132.934V127.136H65.9913V137ZM73.1049 130.735L74.3845 127.709H73.0382L72.2517 130.735H73.1049ZM81.0195 135.014C80.9662 132.401 76.7273 133.348 76.7273 131.615C76.7273 131.028 77.2605 130.602 78.1536 130.602C79.1267 130.602 79.6865 131.135 79.7399 131.868H80.9529C80.8729 130.442 79.8065 129.575 78.1936 129.575C76.5673 129.575 75.5143 130.495 75.5143 131.615C75.5143 134.334 79.8332 133.388 79.8332 135.014C79.8332 135.614 79.3 136.094 78.3402 136.094C77.3138 136.094 76.6873 135.56 76.6206 134.854H75.3676C75.4476 136.187 76.6473 137.12 78.3535 137.12C79.9665 137.12 81.0195 136.214 81.0195 135.014ZM14.3051 155.387C14.3051 156.4 13.5853 157 12.3856 157H10.2394V153.721H12.3456C13.532 153.721 14.3051 154.361 14.3051 155.387ZM14.0652 151.215C14.0652 152.161 13.412 152.721 12.2789 152.721H10.2394V149.709H12.2523C13.4386 149.709 14.0652 150.295 14.0652 151.215ZM15.5181 155.507C15.5181 154.361 14.6917 153.388 13.6786 153.215C14.5717 152.921 15.3048 152.241 15.3048 151.068C15.3048 149.775 14.3184 148.709 12.3589 148.709H9.02641V158H12.4922C14.4117 158 15.5181 156.907 15.5181 155.507ZM17.2014 158H18.4145V148.136H17.2014V158ZM26.9603 150.695H25.7472V154.707C25.7472 156.28 24.9074 157.054 23.6544 157.054C22.4281 157.054 21.6149 156.294 21.6149 154.814V150.695H20.4152V154.974C20.4152 157.067 21.7349 158.107 23.4145 158.107C24.3876 158.107 25.2807 157.68 25.7472 156.92V158H26.9603V150.695ZM32.1143 151.602C33.3673 151.602 34.4337 152.388 34.4204 153.814H29.8082C29.9415 152.388 30.9279 151.602 32.1143 151.602ZM35.5268 155.747H34.2204C33.9538 156.534 33.2607 157.094 32.1676 157.094C30.9279 157.094 29.8882 156.28 29.7949 154.801H35.6334C35.6601 154.548 35.6734 154.334 35.6734 154.068C35.6734 152.068 34.2871 150.575 32.1676 150.575C30.0348 150.575 28.5552 152.028 28.5552 154.334C28.5552 156.654 30.0881 158.12 32.1676 158.12C33.9805 158.12 35.1535 157.08 35.5268 155.747Z" fill="#5D6B7E"/>
<path d="M13.7328 160H14.9993V152.279H13.7328V155.589H10.0998V152.279H8.83325V160H10.0998V156.623H13.7328V160ZM20.9329 152.267H16.6667V160H20.9329V158.967H17.9332V156.6H20.5996V155.567H17.9332V153.301H20.9329V152.267ZM27.0147 160H28.4368L26.037 156.145L28.4479 152.279H27.0369L25.3926 155.1L23.6372 152.279H22.2152L24.626 156.145L22.2263 160H23.6372L25.2704 157.2L27.0147 160Z" fill="#C2C8CF"/>
<path d="M8.67983 179.893H15.0916V178.88H10.506C12.2256 177.481 14.8116 175.441 14.8116 173.042C14.8116 171.256 13.6386 170.189 11.8257 170.189C10.0928 170.189 8.7998 171.256 8.71982 173.308H9.89286C9.94618 172.095 10.586 171.229 11.839 171.229C13.1454 171.229 13.6119 172.029 13.6119 173.095C13.6119 175.068 11.2125 176.987 8.67983 179.027V179.893ZM22.9855 172.655C22.8256 171.309 21.8925 170.162 20.0529 170.162C17.6135 170.162 16.6404 172.029 16.6404 175.055C16.6404 177.974 17.3203 180.027 20.1729 180.027C22.279 180.027 23.3188 178.587 23.3188 176.827C23.3188 174.801 22.1057 173.615 20.3062 173.615C19.1598 173.615 18.1067 174.148 17.6935 175.095C17.6802 172.229 18.5066 171.176 20.0396 171.176C21.1327 171.176 21.6792 171.722 21.8658 172.655H22.9855ZM20.0529 174.641C21.4392 174.641 22.1457 175.508 22.1457 176.867C22.1457 178.174 21.3593 179.014 20.1062 179.014C18.5866 179.014 17.8401 178.014 17.8401 176.734C17.8401 175.295 18.9465 174.641 20.0529 174.641ZM29.5941 180H30.7938V177.854H32.1268V176.801H30.7938V170.456H29.3408L24.662 176.934V177.854H29.5941V180ZM26.0616 176.801L29.6474 171.722V176.801H26.0616ZM33.0853 175.348C33.0853 178.134 35.1248 180.08 37.7241 180.08C39.737 180.08 41.3366 179.08 42.0297 177.294H40.5768C40.0702 178.4 39.0838 179.027 37.7241 179.027C35.778 179.027 34.325 177.614 34.325 175.348C34.325 173.068 35.778 171.655 37.7241 171.655C39.0838 171.655 40.0702 172.282 40.5768 173.402H42.0297C41.3366 171.602 39.737 170.589 37.7241 170.589C35.1248 170.589 33.0853 172.562 33.0853 175.348ZM43.2489 170.389V171.429H48.3943L44.6352 180H45.8616L49.5673 171.309V170.389H43.2489ZM51.3522 177.414C51.4855 178.827 52.4186 180.013 54.3381 180.013C56.8708 180.013 57.604 178.214 57.604 175.001C57.604 172.015 56.8441 170.176 54.2315 170.176C52.152 170.176 51.0589 171.509 51.0589 173.348C51.0589 175.388 52.3786 176.494 54.1515 176.494C55.1912 176.494 56.151 176.028 56.5376 175.215C56.5775 178.04 55.8177 179 54.4048 179C53.285 179 52.6452 178.414 52.4719 177.414H51.3522ZM54.3514 175.468C52.9118 175.468 52.2186 174.561 52.2186 173.322C52.2186 172.042 53.0051 171.189 54.2581 171.189C55.6444 171.189 56.3909 172.109 56.3909 173.415C56.3909 174.708 55.5111 175.468 54.3514 175.468Z" fill="#5D6B7E"/>
<path d="M0 194H112V214C112 216.209 110.209 218 108 218H4C1.79086 218 0 216.209 0 214V194Z" fill="#EDEFF1"/>
<path d="M8.83325 210H10.0998V206.623H12.6551V205.589H10.0998V203.312H13.3772V202.279H8.83325V210ZM14.5399 207.178C14.5399 209.145 15.9175 210.078 17.5396 210.078C19.1505 210.078 20.5726 209.145 20.5726 207.178V202.279H19.3061V207.2C19.3061 208.4 18.6284 208.967 17.5507 208.967C16.4841 208.967 15.8064 208.4 15.8064 207.2V202.279H14.5399V207.178ZM27.2989 202.267V208.022L23.4882 202.267H22.2217V210H23.4882V204.234L27.2989 210H28.5655V202.267H27.2989ZM35.3059 202.267V208.022L31.4952 202.267H30.2287V210H31.4952V204.234L35.3059 210H36.5725V202.267H35.3059ZM42.5019 202.267H38.2357V210H42.5019V208.967H39.5022V206.6H42.1686V205.567H39.5022V203.301H42.5019V202.267ZM44.0619 202.279V210H47.9393V208.978H45.3285V202.279H44.0619ZM54.3535 203.778C54.2202 202.701 53.4314 201.701 51.8538 201.701C49.8318 201.701 48.9874 203.234 48.9874 205.767C48.9874 208.345 49.5984 210 51.9538 210C53.6869 210 54.6091 208.833 54.6091 207.3C54.6091 205.612 53.5758 204.634 52.1204 204.634C51.2761 204.634 50.4761 204.989 50.0762 205.656C50.1095 203.534 50.6983 202.756 51.8427 202.756C52.6426 202.756 53.0314 203.123 53.187 203.778H54.3535ZM51.8427 205.7C52.9092 205.7 53.3981 206.389 53.3981 207.356C53.3981 208.311 52.8203 208.945 51.8871 208.945C50.8094 208.945 50.2206 208.278 50.2206 207.278C50.2206 206.2 51.0094 205.7 51.8427 205.7ZM55.96 205.845C55.96 208.2 56.5822 209.978 58.8486 209.978C61.1151 209.978 61.7372 208.2 61.7372 205.845C61.7372 203.534 61.1151 201.756 58.8486 201.756C56.5822 201.756 55.96 203.534 55.96 205.845ZM60.4929 205.845C60.4929 207.434 60.3263 208.822 58.8486 208.822C57.371 208.822 57.2044 207.434 57.2044 205.845C57.2044 204.334 57.371 202.912 58.8486 202.912C60.3263 202.912 60.4929 204.334 60.4929 205.845ZM63.0774 205.845C63.0774 208.2 63.6995 209.978 65.966 209.978C68.2324 209.978 68.8546 208.2 68.8546 205.845C68.8546 203.534 68.2324 201.756 65.966 201.756C63.6995 201.756 63.0774 203.534 63.0774 205.845ZM67.6103 205.845C67.6103 207.434 67.4436 208.822 65.966 208.822C64.4884 208.822 64.3217 207.434 64.3217 205.845C64.3217 204.334 64.4884 202.912 65.966 202.912C67.4436 202.912 67.6103 204.334 67.6103 205.845Z" fill="#9AA3AF"/>
</svg>
