<svg width="112" height="218" viewBox="0 0 112 218" fill="none" xmlns="http://www.w3.org/2000/svg">
<rect y="100" width="112" height="94" fill="#F9FAFA"/>
<path d="M0 4C0 1.79086 1.79086 0 4 0H108C110.209 0 112 1.79086 112 4V100H0V4Z" fill="#3365A1"/>
<path d="M13.9105 109.267V115.022L10.0998 109.267H8.83325V117H10.0998V111.234L13.9105 117H15.1771V109.267H13.9105ZM22.0509 117H23.3841L20.6177 109.267H19.1511L16.3848 117H17.7068L18.2623 115.422H21.4954L22.0509 117ZM21.1398 114.389H18.6179L19.8844 110.801L21.1398 114.389ZM24.5869 117H25.8534V111.712L28.2199 117H29.0975L31.4529 111.712V117H32.7194V109.279H31.364L28.6643 115.333L25.9534 109.279H24.5869V117ZM38.6503 109.267H34.3841V117H38.6503V115.967H35.6506V113.6H38.317V112.567H35.6506V110.301H38.6503V109.267Z" fill="#C2C8CF"/>
<path d="M9.02641 127.709V137H13.492V136.014H10.2394V127.709H9.02641ZM14.327 133.321C14.327 135.587 15.8332 137.12 17.7794 137.12C19.1258 137.12 20.0722 136.427 20.5121 135.64V137H21.7384V129.695H20.5121V131.028C20.0855 130.268 19.1524 129.575 17.7928 129.575C15.8332 129.575 14.327 131.041 14.327 133.321ZM20.5121 133.334C20.5121 135.054 19.3657 136.054 18.0327 136.054C16.6997 136.054 15.5666 135.04 15.5666 133.321C15.5666 131.601 16.6997 130.628 18.0327 130.628C19.3657 130.628 20.5121 131.641 20.5121 133.334ZM25.0014 131.041V129.695H23.7883V140.466H25.0014V135.654C25.4546 136.4 26.401 137.12 27.734 137.12C29.6935 137.12 31.1998 135.587 31.1998 133.321C31.1998 131.041 29.6935 129.575 27.734 129.575C26.401 129.575 25.4413 130.268 25.0014 131.041ZM29.9601 133.321C29.9601 135.04 28.8271 136.054 27.4808 136.054C26.1611 136.054 25.0014 135.054 25.0014 133.334C25.0014 131.641 26.1611 130.628 27.4808 130.628C28.8271 130.628 29.9601 131.601 29.9601 133.321ZM32.7965 137H34.0095V129.695H32.7965V137ZM33.423 128.509C33.8629 128.509 34.2228 128.149 34.2228 127.682C34.2228 127.216 33.8629 126.856 33.423 126.856C32.9565 126.856 32.5966 127.216 32.5966 127.682C32.5966 128.149 32.9565 128.509 33.423 128.509ZM41.329 135.014C41.2756 132.401 37.0367 133.348 37.0367 131.615C37.0367 131.028 37.5699 130.602 38.463 130.602C39.4361 130.602 39.996 131.135 40.0493 131.868H41.2623C41.1823 130.442 40.1159 129.575 38.503 129.575C36.8767 129.575 35.8237 130.495 35.8237 131.615C35.8237 134.334 40.1426 133.388 40.1426 135.014C40.1426 135.614 39.6094 136.094 38.6496 136.094C37.6232 136.094 36.9967 135.56 36.9301 134.854H35.677C35.757 136.187 36.9567 137.12 38.663 137.12C40.2759 137.12 41.329 136.214 41.329 135.014ZM46.5951 127.709V137H51.0607V136.014H47.8082V127.709H46.5951ZM58.8273 129.695H57.6143V133.707C57.6143 135.28 56.7745 136.054 55.5215 136.054C54.2951 136.054 53.482 135.294 53.482 133.814V129.695H52.2823V133.974C52.2823 136.067 53.6019 137.107 55.2815 137.107C56.2546 137.107 57.1477 136.68 57.6143 135.92V137H58.8273V129.695ZM65.341 129.695H60.4222V130.682H63.9413L60.3955 136V137H65.3676V136H61.7819L65.341 130.682V129.695ZM73.42 129.695H72.207V133.707C72.207 135.28 71.3672 136.054 70.1142 136.054C68.8878 136.054 68.0747 135.294 68.0747 133.814V129.695H66.875V133.974C66.875 136.067 68.1946 137.107 69.8742 137.107C70.8473 137.107 71.7404 136.68 72.207 135.92V137H73.42V129.695ZM75.4681 137H76.6812V127.136H75.4681V137ZM78.7486 137H79.9616V129.695H78.7486V137ZM79.3751 128.509C79.815 128.509 80.1749 128.149 80.1749 127.682C80.1749 127.216 79.815 126.856 79.3751 126.856C78.9085 126.856 78.5486 127.216 78.5486 127.682C78.5486 128.149 78.9085 128.509 79.3751 128.509Z" fill="#5D6B7E"/>
<path d="M13.7328 160H14.9993V152.279H13.7328V155.589H10.0998V152.279H8.83325V160H10.0998V156.623H13.7328V160ZM20.9329 152.267H16.6667V160H20.9329V158.967H17.9332V156.6H20.5996V155.567H17.9332V153.301H20.9329V152.267ZM27.0147 160H28.4368L26.037 156.145L28.4479 152.279H27.0369L25.3926 155.1L23.6372 152.279H22.2152L24.626 156.145L22.2263 160H23.6372L25.2704 157.2L27.0147 160Z" fill="#C2C8CF"/>
<path d="M8.7998 172.788H9.98617C10.1061 171.855 10.786 171.216 11.919 171.216C13.0787 171.216 13.6919 171.855 13.6919 172.775C13.6919 173.895 12.8255 174.388 11.2125 174.401H10.8926V175.414H11.1992C12.9321 175.414 13.8785 175.934 13.8785 177.294C13.8785 178.28 13.2654 179.04 11.9723 179.04C10.6927 179.04 9.94618 178.254 9.82621 177.227H8.65317C8.7998 179.094 10.1595 180.067 11.9857 180.067C13.9985 180.067 15.0382 178.894 15.0382 177.401C15.0382 176.014 14.2784 175.188 13.1587 174.921V174.855C14.1718 174.628 14.865 173.762 14.865 172.655C14.865 171.269 13.8385 170.176 11.959 170.176C10.1728 170.176 8.91977 171.136 8.7998 172.788ZM16.6494 172.788H17.8358C17.9557 171.855 18.6356 171.216 19.7686 171.216C20.9283 171.216 21.5415 171.855 21.5415 172.775C21.5415 173.895 20.6751 174.388 19.0621 174.401H18.7422V175.414H19.0488C20.7817 175.414 21.7281 175.934 21.7281 177.294C21.7281 178.28 21.1149 179.04 19.8219 179.04C18.5423 179.04 17.7958 178.254 17.6758 177.227H16.5028C16.6494 179.094 18.0091 180.067 19.8353 180.067C21.8481 180.067 22.8878 178.894 22.8878 177.401C22.8878 176.014 22.128 175.188 21.0083 174.921V174.855C22.0214 174.628 22.7145 173.762 22.7145 172.655C22.7145 171.269 21.6881 170.176 19.8086 170.176C18.0224 170.176 16.7694 171.136 16.6494 172.788ZM31.0174 172.655C30.8574 171.309 29.9243 170.162 28.0848 170.162C25.6454 170.162 24.6723 172.029 24.6723 175.055C24.6723 177.974 25.3521 180.027 28.2047 180.027C30.3109 180.027 31.3506 178.587 31.3506 176.827C31.3506 174.801 30.1376 173.615 28.338 173.615C27.1917 173.615 26.1386 174.148 25.7254 175.095C25.712 172.229 26.5385 171.176 28.0714 171.176C29.1645 171.176 29.711 171.722 29.8976 172.655H31.0174ZM28.0848 174.641C29.4711 174.641 30.1776 175.508 30.1776 176.867C30.1776 178.174 29.3911 179.014 28.1381 179.014C26.6185 179.014 25.872 178.014 25.872 176.734C25.872 175.295 26.9784 174.641 28.0848 174.641ZM33.3337 170.349V175.788H34.48C34.8 175.028 35.5065 174.521 36.4795 174.521C37.8792 174.521 38.5857 175.321 38.5857 176.694C38.5857 178.014 37.9325 179 36.4662 179C35.3332 179 34.5467 178.4 34.3201 177.387H33.1337C33.3737 178.947 34.5334 180.027 36.4529 180.027C38.7057 180.027 39.7454 178.534 39.7454 176.668C39.7454 175.175 38.9989 173.482 36.6528 173.482C35.7064 173.482 34.8533 173.908 34.4534 174.455V171.415H39.1322V170.349H33.3337ZM47.7958 180H49.0755L45.7296 170.762H44.33L40.9708 180H42.2505L42.997 177.934H47.0493L47.7958 180ZM46.7027 176.947H43.3436L45.0231 172.255L46.7027 176.947ZM51.2993 180H52.5256V170.362H50.0196V171.469H51.2993V180Z" fill="#5D6B7E"/>
<path d="M0 194H112V214C112 216.209 110.209 218 108 218H4C1.79086 218 0 216.209 0 214V194Z" fill="#EDEFF1"/>
<path d="M8.83325 210H10.0998V206.623H12.6551V205.589H10.0998V203.312H13.3772V202.279H8.83325V210ZM14.5399 207.178C14.5399 209.145 15.9175 210.078 17.5396 210.078C19.1505 210.078 20.5726 209.145 20.5726 207.178V202.279H19.3061V207.2C19.3061 208.4 18.6284 208.967 17.5507 208.967C16.4841 208.967 15.8064 208.4 15.8064 207.2V202.279H14.5399V207.178ZM27.2989 202.267V208.022L23.4882 202.267H22.2217V210H23.4882V204.234L27.2989 210H28.5655V202.267H27.2989ZM35.3059 202.267V208.022L31.4952 202.267H30.2287V210H31.4952V204.234L35.3059 210H36.5725V202.267H35.3059ZM42.5019 202.267H38.2357V210H42.5019V208.967H39.5022V206.6H42.1686V205.567H39.5022V203.301H42.5019V202.267ZM44.0619 202.279V210H47.9393V208.978H45.3285V202.279H44.0619ZM49.1652 201.879V206.556H50.365C50.5761 205.956 51.0761 205.545 51.8204 205.545C52.8759 205.545 53.3981 206.145 53.3981 207.2C53.3981 208.2 52.9092 208.945 51.8204 208.945C50.965 208.945 50.3873 208.5 50.2206 207.811H48.9874C49.1763 209.078 50.1428 210 51.8093 210C53.6869 210 54.6091 208.778 54.6091 207.167C54.6091 205.945 53.998 204.467 52.0093 204.467C51.2872 204.467 50.6317 204.801 50.3317 205.2V202.99H54.0536V201.879H49.1652ZM55.9275 205.845C55.9275 208.2 56.5497 209.978 58.8161 209.978C61.0825 209.978 61.7047 208.2 61.7047 205.845C61.7047 203.534 61.0825 201.756 58.8161 201.756C56.5497 201.756 55.9275 203.534 55.9275 205.845ZM60.4604 205.845C60.4604 207.434 60.2937 208.822 58.8161 208.822C57.3385 208.822 57.1718 207.434 57.1718 205.845C57.1718 204.334 57.3385 202.912 58.8161 202.912C60.2937 202.912 60.4604 204.334 60.4604 205.845ZM63.0448 205.845C63.0448 208.2 63.667 209.978 65.9334 209.978C68.1999 209.978 68.822 208.2 68.822 205.845C68.822 203.534 68.1999 201.756 65.9334 201.756C63.667 201.756 63.0448 203.534 63.0448 205.845ZM67.5777 205.845C67.5777 207.434 67.4111 208.822 65.9334 208.822C64.4558 208.822 64.2892 207.434 64.2892 205.845C64.2892 204.334 64.4558 202.912 65.9334 202.912C67.4111 202.912 67.5777 204.334 67.5777 205.845Z" fill="#9AA3AF"/>
</svg>
