<svg width="112" height="218" viewBox="0 0 112 218" fill="none" xmlns="http://www.w3.org/2000/svg">
<rect y="100" width="112" height="94" fill="#F9FAFA"/>
<path d="M0 4C0 1.79086 1.79086 0 4 0H108C110.209 0 112 1.79086 112 4V100H0V4Z" fill="#B3CBE9"/>
<path d="M13.9105 109.267V115.022L10.0998 109.267H8.83325V117H10.0998V111.234L13.9105 117H15.1771V109.267H13.9105ZM22.0509 117H23.3841L20.6177 109.267H19.1511L16.3848 117H17.7068L18.2623 115.422H21.4954L22.0509 117ZM21.1398 114.389H18.6179L19.8844 110.801L21.1398 114.389ZM24.5869 117H25.8534V111.712L28.2199 117H29.0975L31.4529 111.712V117H32.7194V109.279H31.364L28.6643 115.333L25.9534 109.279H24.5869V117ZM38.6503 109.267H34.3841V117H38.6503V115.967H35.6506V113.6H38.317V112.567H35.6506V110.301H38.6503V109.267Z" fill="#C2C8CF"/>
<path d="M15.0649 134.467C15.0649 131.028 10.0528 132.521 10.0528 130.122C10.0528 129.122 10.8393 128.602 11.839 128.629C12.9721 128.642 13.5586 129.349 13.6386 129.975H14.9716C14.825 128.562 13.6653 127.589 11.8924 127.589C10.0528 127.589 8.81313 128.629 8.81313 130.162C8.81313 133.614 13.8385 132.015 13.8385 134.521C13.8385 135.4 13.1454 136.067 11.9723 136.067C10.6793 136.067 10.1328 135.294 10.0528 134.521H8.75981C8.78647 136.054 10.1061 137.093 11.9723 137.093C13.9852 137.093 15.0649 135.787 15.0649 134.467ZM18.063 131.041V129.695H16.85V140.466H18.063V135.654C18.5162 136.4 19.4627 137.12 20.7957 137.12C22.7552 137.12 24.2615 135.587 24.2615 133.321C24.2615 131.041 22.7552 129.575 20.7957 129.575C19.4627 129.575 18.5029 130.268 18.063 131.041ZM23.0218 133.321C23.0218 135.04 21.8887 136.054 20.5424 136.054C19.2227 136.054 18.063 135.054 18.063 133.334C18.063 131.641 19.2227 130.628 20.5424 130.628C21.8887 130.628 23.0218 131.601 23.0218 133.321ZM25.8581 137H27.0712V129.695H25.8581V137ZM26.4846 128.509C26.9245 128.509 27.2845 128.149 27.2845 127.682C27.2845 127.216 26.9245 126.856 26.4846 126.856C26.0181 126.856 25.6582 127.216 25.6582 127.682C25.6582 128.149 26.0181 128.509 26.4846 128.509ZM34.4839 137H35.6836V132.694C35.6836 130.602 34.3906 129.562 32.6977 129.562C31.7113 129.562 30.8315 129.975 30.3516 130.735V129.695H29.1386V137H30.3516V132.961C30.3516 131.388 31.2047 130.615 32.4444 130.615C33.6708 130.615 34.4839 131.375 34.4839 132.868V137ZM37.2119 133.321C37.2119 135.587 38.7182 137.12 40.6777 137.12C42.0107 137.12 42.9571 136.44 43.397 135.627V137H44.6233V127.136H43.397V131.001C42.8904 130.162 41.8374 129.575 40.691 129.575C38.7182 129.575 37.2119 131.041 37.2119 133.321ZM43.397 133.334C43.397 135.054 42.2506 136.054 40.9176 136.054C39.5846 136.054 38.4516 135.04 38.4516 133.321C38.4516 131.601 39.5846 130.628 40.9176 130.628C42.2506 130.628 43.397 131.641 43.397 133.334ZM46.6732 137H47.8863V127.136H46.6732V137ZM53.0596 130.602C54.3126 130.602 55.379 131.388 55.3657 132.814H50.7535C50.8868 131.388 51.8732 130.602 53.0596 130.602ZM56.472 134.747H55.1657C54.8991 135.534 54.2059 136.094 53.1129 136.094C51.8732 136.094 50.8335 135.28 50.7401 133.801H56.5787C56.6053 133.548 56.6187 133.334 56.6187 133.068C56.6187 131.068 55.2324 129.575 53.1129 129.575C50.9801 129.575 49.5005 131.028 49.5005 133.334C49.5005 135.654 51.0334 137.12 53.1129 137.12C54.9258 137.12 56.0988 136.08 56.472 134.747Z" fill="#5D6B7E"/>
<path d="M13.7328 160H14.9993V152.279H13.7328V155.589H10.0998V152.279H8.83325V160H10.0998V156.623H13.7328V160ZM20.9329 152.267H16.6667V160H20.9329V158.967H17.9332V156.6H20.5996V155.567H17.9332V153.301H20.9329V152.267ZM27.0147 160H28.4368L26.037 156.145L28.4479 152.279H27.0369L25.3926 155.1L23.6372 152.279H22.2152L24.626 156.145L22.2263 160H23.6372L25.2704 157.2L27.0147 160Z" fill="#C2C8CF"/>
<path d="M14.3051 177.387C14.3051 178.4 13.5853 179 12.3856 179H10.2394V175.721H12.3456C13.532 175.721 14.3051 176.361 14.3051 177.387ZM14.0652 173.215C14.0652 174.161 13.412 174.721 12.2789 174.721H10.2394V171.709H12.2523C13.4386 171.709 14.0652 172.295 14.0652 173.215ZM15.5181 177.507C15.5181 176.361 14.6917 175.388 13.6786 175.215C14.5717 174.921 15.3048 174.241 15.3048 173.068C15.3048 171.775 14.3184 170.709 12.3589 170.709H9.02641V180H12.4922C14.4117 180 15.5181 178.907 15.5181 177.507ZM16.9748 172.788H18.1612C18.2812 171.855 18.961 171.216 20.0941 171.216C21.2538 171.216 21.8669 171.855 21.8669 172.775C21.8669 173.895 21.0005 174.388 19.3876 174.401H19.0676V175.414H19.3742C21.1071 175.414 22.0536 175.934 22.0536 177.294C22.0536 178.28 21.4404 179.04 20.1474 179.04C18.8677 179.04 18.1212 178.254 18.0012 177.227H16.8282C16.9748 179.094 18.3345 180.067 20.1607 180.067C22.1735 180.067 23.2133 178.894 23.2133 177.401C23.2133 176.014 22.4535 175.188 21.3337 174.921V174.855C22.3468 174.628 23.04 173.762 23.04 172.655C23.04 171.269 22.0136 170.176 20.134 170.176C18.3478 170.176 17.0948 171.136 16.9748 172.788ZM24.5978 175.348C24.5978 178.134 26.6373 180.08 29.2367 180.08C31.2495 180.08 32.8491 179.08 33.5423 177.294H32.0893C31.5827 178.4 30.5963 179.027 29.2367 179.027C27.2905 179.027 25.8375 177.614 25.8375 175.348C25.8375 173.068 27.2905 171.655 29.2367 171.655C30.5963 171.655 31.5827 172.282 32.0893 173.402H33.5423C32.8491 171.602 31.2495 170.589 29.2367 170.589C26.6373 170.589 24.5978 172.562 24.5978 175.348ZM40.6266 177.387C40.6266 178.4 39.9068 179 38.7071 179H36.561V175.721H38.6671C39.8535 175.721 40.6266 176.361 40.6266 177.387ZM40.3867 173.215C40.3867 174.161 39.7335 174.721 38.6005 174.721H36.561V171.709H38.5738C39.7602 171.709 40.3867 172.295 40.3867 173.215ZM41.8397 177.507C41.8397 176.361 41.0132 175.388 40.0001 175.215C40.8932 174.921 41.6264 174.241 41.6264 173.068C41.6264 171.775 40.64 170.709 38.6805 170.709H35.348V180H38.8138C40.7333 180 41.8397 178.907 41.8397 177.507ZM48.5217 170.696H43.523V180H48.5217V179H44.736V175.801H48.1218V174.801H44.736V171.695H48.5217V170.696ZM50.5972 177.414C50.7305 178.827 51.6636 180.013 53.5831 180.013C56.1158 180.013 56.8489 178.214 56.8489 175.001C56.8489 172.015 56.0891 170.176 53.4764 170.176C51.397 170.176 50.3039 171.509 50.3039 173.348C50.3039 175.388 51.6236 176.494 53.3965 176.494C54.4362 176.494 55.396 176.028 55.7825 175.215C55.8225 178.04 55.0627 179 53.6497 179C52.53 179 51.8902 178.414 51.7169 177.414H50.5972ZM53.5964 175.468C52.1568 175.468 51.4636 174.561 51.4636 173.322C51.4636 172.042 52.2501 171.189 53.5031 171.189C54.8894 171.189 55.6359 172.109 55.6359 173.415C55.6359 174.708 54.7561 175.468 53.5964 175.468Z" fill="#5D6B7E"/>
<path d="M0 194H112V214C112 216.209 110.209 218 108 218H4C1.79086 218 0 216.209 0 214V194Z" fill="#EDEFF1"/>
<path d="M8.83325 210H10.0998V206.623H12.6551V205.589H10.0998V203.312H13.3772V202.279H8.83325V210ZM14.5399 207.178C14.5399 209.145 15.9175 210.078 17.5396 210.078C19.1505 210.078 20.5726 209.145 20.5726 207.178V202.279H19.3061V207.2C19.3061 208.4 18.6284 208.967 17.5507 208.967C16.4841 208.967 15.8064 208.4 15.8064 207.2V202.279H14.5399V207.178ZM27.2989 202.267V208.022L23.4882 202.267H22.2217V210H23.4882V204.234L27.2989 210H28.5655V202.267H27.2989ZM35.3059 202.267V208.022L31.4952 202.267H30.2287V210H31.4952V204.234L35.3059 210H36.5725V202.267H35.3059ZM42.5019 202.267H38.2357V210H42.5019V208.967H39.5022V206.6H42.1686V205.567H39.5022V203.301H42.5019V202.267ZM44.0619 202.279V210H47.9393V208.978H45.3285V202.279H44.0619ZM49.6984 210H50.9761V201.901H48.6652V203.056H49.6984V210ZM52.716 205.845C52.716 208.2 53.3382 209.978 55.6046 209.978C57.8711 209.978 58.4932 208.2 58.4932 205.845C58.4932 203.534 57.8711 201.756 55.6046 201.756C53.3382 201.756 52.716 203.534 52.716 205.845ZM57.2489 205.845C57.2489 207.434 57.0822 208.822 55.6046 208.822C54.127 208.822 53.9603 207.434 53.9603 205.845C53.9603 204.334 54.127 202.912 55.6046 202.912C57.0822 202.912 57.2489 204.334 57.2489 205.845ZM59.8334 205.845C59.8334 208.2 60.4555 209.978 62.722 209.978C64.9884 209.978 65.6106 208.2 65.6106 205.845C65.6106 203.534 64.9884 201.756 62.722 201.756C60.4555 201.756 59.8334 203.534 59.8334 205.845ZM64.3662 205.845C64.3662 207.434 64.1996 208.822 62.722 208.822C61.2443 208.822 61.0777 207.434 61.0777 205.845C61.0777 204.334 61.2443 202.912 62.722 202.912C64.1996 202.912 64.3662 204.334 64.3662 205.845Z" fill="#9AA3AF"/>
</svg>
