<svg width="112" height="218" viewBox="0 0 112 218" fill="none" xmlns="http://www.w3.org/2000/svg">
<rect y="100" width="112" height="94" fill="#F9FAFA"/>
<path d="M0 4C0 1.79086 1.79086 0 4 0H108C110.209 0 112 1.79086 112 4V100H0V4Z" fill="#8CB2DF"/>
<path d="M13.9105 109.267V115.022L10.0998 109.267H8.83325V117H10.0998V111.234L13.9105 117H15.1771V109.267H13.9105ZM22.0509 117H23.3841L20.6177 109.267H19.1511L16.3848 117H17.7068L18.2623 115.422H21.4954L22.0509 117ZM21.1398 114.389H18.6179L19.8844 110.801L21.1398 114.389ZM24.5869 117H25.8534V111.712L28.2199 117H29.0975L31.4529 111.712V117H32.7194V109.279H31.364L28.6643 115.333L25.9534 109.279H24.5869V117ZM38.6503 109.267H34.3841V117H38.6503V115.967H35.6506V113.6H38.317V112.567H35.6506V110.301H38.6503V109.267Z" fill="#C2C8CF"/>
<path d="M9.02641 127.709V137H13.492V136.014H10.2394V127.709H9.02641ZM14.7802 137H15.9932V129.695H14.7802V137ZM15.4067 128.509C15.8466 128.509 16.2065 128.149 16.2065 127.682C16.2065 127.216 15.8466 126.856 15.4067 126.856C14.9401 126.856 14.5802 127.216 14.5802 127.682C14.5802 128.149 14.9401 128.509 15.4067 128.509ZM17.6074 133.321C17.6074 135.587 19.1137 137.12 21.0732 137.12C22.4062 137.12 23.3526 136.413 23.7925 135.627V137.16C23.7925 138.72 22.8194 139.546 21.5264 139.546C20.3267 139.546 19.4603 138.946 19.1937 138.066H17.994C18.2339 139.626 19.6069 140.599 21.5264 140.599C23.6725 140.599 25.0189 139.173 25.0189 137.16V129.695H23.7925V131.028C23.3659 130.242 22.4062 129.575 21.0732 129.575C19.1137 129.575 17.6074 131.041 17.6074 133.321ZM23.7925 133.334C23.7925 135.054 22.6461 136.054 21.3131 136.054C19.9801 136.054 18.8471 135.04 18.8471 133.321C18.8471 131.601 19.9801 130.628 21.3131 130.628C22.6461 130.628 23.7925 131.641 23.7925 133.334ZM27.0688 137H28.2818V132.961C28.2818 131.388 29.1349 130.615 30.3746 130.615C31.601 130.615 32.4141 131.375 32.4141 132.868V137H33.6138V132.694C33.6138 130.602 32.3208 129.562 30.6945 129.562C29.6681 129.562 28.7617 129.975 28.2818 130.748V127.136H27.0688V137ZM35.8619 135C35.8619 136.467 36.595 137 37.888 137H38.9811V135.974H38.088C37.3415 135.974 37.0749 135.72 37.0749 135V130.695H38.9811V129.695H37.0749V127.856H35.8619V129.695H34.9155V130.695H35.8619V135ZM43.5514 132.348C43.5514 135.134 45.5909 137.08 48.1903 137.08C50.2031 137.08 51.8027 136.08 52.4959 134.294H51.0429C50.5363 135.4 49.5499 136.027 48.1903 136.027C46.2441 136.027 44.7911 134.614 44.7911 132.348C44.7911 130.068 46.2441 128.655 48.1903 128.655C49.5499 128.655 50.5363 129.282 51.0429 130.402H52.4959C51.8027 128.602 50.2031 127.589 48.1903 127.589C45.5909 127.589 43.5514 129.562 43.5514 132.348ZM61.2331 133.334C61.2331 131.028 59.6202 129.575 57.5407 129.575C55.4746 129.575 53.8483 131.028 53.8483 133.334C53.8483 135.654 55.4213 137.12 57.4874 137.12C59.5669 137.12 61.2331 135.654 61.2331 133.334ZM55.088 133.334C55.088 131.495 56.2477 130.628 57.5274 130.628C58.7804 130.628 59.9935 131.495 59.9935 133.334C59.9935 135.187 58.7538 136.054 57.4874 136.054C56.2211 136.054 55.088 135.187 55.088 133.334ZM64.0411 131.055V127.136H62.8281V137H64.0411V135.654C64.4943 136.453 65.4407 137.12 66.7737 137.12C68.7333 137.12 70.2395 135.587 70.2395 133.321C70.2395 131.041 68.7466 129.575 66.7737 129.575C65.4807 129.575 64.5076 130.242 64.0411 131.055ZM68.9999 133.321C68.9999 135.04 67.8668 136.054 66.5205 136.054C65.2008 136.054 64.0411 135.054 64.0411 133.334C64.0411 131.641 65.2008 130.628 66.5205 130.628C67.8668 130.628 68.9999 131.601 68.9999 133.321ZM71.383 133.321C71.383 135.587 72.8893 137.12 74.8355 137.12C76.1818 137.12 77.1282 136.427 77.5681 135.64V137H78.7945V129.695H77.5681V131.028C77.1416 130.268 76.2085 129.575 74.8488 129.575C72.8893 129.575 71.383 131.041 71.383 133.321ZM77.5681 133.334C77.5681 135.054 76.4217 136.054 75.0887 136.054C73.7557 136.054 72.6227 135.04 72.6227 133.321C72.6227 131.601 73.7557 130.628 75.0887 130.628C76.4217 130.628 77.5681 131.641 77.5681 133.334ZM80.8444 137H82.0574V127.136H80.8444V137ZM84.3914 135C84.3914 136.467 85.1246 137 86.4176 137H87.5106V135.974H86.6175C85.8711 135.974 85.6045 135.72 85.6045 135V130.695H87.5106V129.695H85.6045V127.856H84.3914V129.695H83.445V130.695H84.3914V135Z" fill="#5D6B7E"/>
<path d="M13.7328 160H14.9993V152.279H13.7328V155.589H10.0998V152.279H8.83325V160H10.0998V156.623H13.7328V160ZM20.9329 152.267H16.6667V160H20.9329V158.967H17.9332V156.6H20.5996V155.567H17.9332V153.301H20.9329V152.267ZM27.0147 160H28.4368L26.037 156.145L28.4479 152.279H27.0369L25.3926 155.1L23.6372 152.279H22.2152L24.626 156.145L22.2263 160H23.6372L25.2704 157.2L27.0147 160Z" fill="#C2C8CF"/>
<path d="M10.586 174.988C9.50629 175.308 8.7998 176.188 8.7998 177.401C8.7998 179.147 10.1728 180.267 12.199 180.267C14.2384 180.267 15.6248 179.147 15.6248 177.401C15.6248 176.201 14.9183 175.321 13.8252 174.988C14.7716 174.615 15.3715 173.815 15.3715 172.775C15.3715 171.375 14.2918 170.216 12.199 170.216C10.1061 170.216 9.03974 171.362 9.03974 172.775C9.03974 173.855 9.5996 174.601 10.586 174.988ZM12.199 174.588C11.0259 174.588 10.2128 173.935 10.2128 172.935C10.2128 171.802 11.0126 171.229 12.199 171.229C13.412 171.229 14.1985 171.815 14.1985 172.922C14.1985 173.922 13.3853 174.588 12.199 174.588ZM12.199 175.521C13.4653 175.521 14.4251 176.121 14.4251 177.361C14.4251 178.48 13.5719 179.254 12.199 179.254C10.826 179.254 9.95951 178.494 9.95951 177.361C9.95951 176.081 10.9593 175.521 12.199 175.521ZM16.9825 175.348C16.9825 178.134 19.022 180.08 21.6214 180.08C23.6342 180.08 25.2338 179.08 25.927 177.294H24.474C23.9675 178.4 22.981 179.027 21.6214 179.027C19.6752 179.027 18.2222 177.614 18.2222 175.348C18.2222 173.068 19.6752 171.655 21.6214 171.655C22.981 171.655 23.9675 172.282 24.474 173.402H25.927C25.2338 171.602 23.6342 170.589 21.6214 170.589C19.022 170.589 16.9825 172.562 16.9825 175.348ZM33.0114 177.387C33.0114 178.4 32.2915 179 31.0918 179H28.9457V175.721H31.0518C32.2382 175.721 33.0114 176.361 33.0114 177.387ZM32.7714 173.215C32.7714 174.161 32.1182 174.721 30.9852 174.721H28.9457V171.709H30.9585C32.1449 171.709 32.7714 172.295 32.7714 173.215ZM34.2244 177.507C34.2244 176.361 33.3979 175.388 32.3848 175.215C33.278 174.921 34.0111 174.241 34.0111 173.068C34.0111 171.775 33.0247 170.709 31.0652 170.709H27.7327V180H31.1985C33.118 180 34.2244 178.907 34.2244 177.507ZM35.5611 179.893H41.9729V178.88H37.3873C39.1069 177.481 41.6929 175.441 41.6929 173.042C41.6929 171.256 40.5199 170.189 38.707 170.189C36.9741 170.189 35.6811 171.256 35.6011 173.308H36.7742C36.8275 172.095 37.4673 171.229 38.7203 171.229C40.0267 171.229 40.4932 172.029 40.4932 173.095C40.4932 175.068 38.0938 176.987 35.5611 179.027V179.893ZM46.4677 170.709H43.5751V180H46.4677C49.5202 180 51.3998 178.254 51.3998 175.374C51.3998 172.495 49.5202 170.709 46.4677 170.709ZM44.7881 179V171.695H46.4677C48.8937 171.695 50.1601 173.108 50.1601 175.374C50.1601 177.641 48.8937 179 46.4677 179H44.7881ZM52.9998 180H54.2128V175.814H57.492V174.828H54.2128V171.695H58.2518V170.709H52.9998V180Z" fill="#5D6B7E"/>
<path d="M0 194H112V214C112 216.209 110.209 218 108 218H4C1.79086 218 0 216.209 0 214V194Z" fill="#EDEFF1"/>
<path d="M8.83325 210H10.0998V206.623H12.6551V205.589H10.0998V203.312H13.3772V202.279H8.83325V210ZM14.5399 207.178C14.5399 209.145 15.9175 210.078 17.5396 210.078C19.1505 210.078 20.5726 209.145 20.5726 207.178V202.279H19.3061V207.2C19.3061 208.4 18.6284 208.967 17.5507 208.967C16.4841 208.967 15.8064 208.4 15.8064 207.2V202.279H14.5399V207.178ZM27.2989 202.267V208.022L23.4882 202.267H22.2217V210H23.4882V204.234L27.2989 210H28.5655V202.267H27.2989ZM35.3059 202.267V208.022L31.4952 202.267H30.2287V210H31.4952V204.234L35.3059 210H36.5725V202.267H35.3059ZM42.5019 202.267H38.2357V210H42.5019V208.967H39.5022V206.6H42.1686V205.567H39.5022V203.301H42.5019V202.267ZM44.0619 202.279V210H47.9393V208.978H45.3285V202.279H44.0619ZM48.7319 209.889H54.1313V208.833H50.6095C51.9093 207.645 53.9091 206.145 53.9091 204.178C53.9091 202.723 52.9759 201.734 51.3316 201.734C49.8984 201.734 48.7652 202.59 48.7208 204.345H49.9429C49.9762 203.434 50.4539 202.812 51.3427 202.812C52.2871 202.812 52.6537 203.39 52.6537 204.234C52.6537 205.823 50.6428 207.289 48.7319 208.967V209.889ZM55.244 205.845C55.244 208.2 55.8661 209.978 58.1326 209.978C60.399 209.978 61.0212 208.2 61.0212 205.845C61.0212 203.534 60.399 201.756 58.1326 201.756C55.8661 201.756 55.244 203.534 55.244 205.845ZM59.7768 205.845C59.7768 207.434 59.6102 208.822 58.1326 208.822C56.6549 208.822 56.4883 207.434 56.4883 205.845C56.4883 204.334 56.6549 202.912 58.1326 202.912C59.6102 202.912 59.7768 204.334 59.7768 205.845ZM62.3613 205.845C62.3613 208.2 62.9835 209.978 65.2499 209.978C67.5164 209.978 68.1385 208.2 68.1385 205.845C68.1385 203.534 67.5164 201.756 65.2499 201.756C62.9835 201.756 62.3613 203.534 62.3613 205.845ZM66.8942 205.845C66.8942 207.434 66.7275 208.822 65.2499 208.822C63.7723 208.822 63.6056 207.434 63.6056 205.845C63.6056 204.334 63.7723 202.912 65.2499 202.912C66.7275 202.912 66.8942 204.334 66.8942 205.845Z" fill="#9AA3AF"/>
</svg>
