<svg width="112" height="218" viewBox="0 0 112 218" fill="none" xmlns="http://www.w3.org/2000/svg">
<rect y="100" width="112" height="94" fill="#F9FAFA"/>
<path d="M0 4C0 1.79086 1.79086 0 4 0H108C110.209 0 112 1.79086 112 4V100H0V4Z" fill="#6698D4"/>
<path d="M13.9105 109.267V115.022L10.0998 109.267H8.83325V117H10.0998V111.234L13.9105 117H15.1771V109.267H13.9105ZM22.0509 117H23.3841L20.6177 109.267H19.1511L16.3848 117H17.7068L18.2623 115.422H21.4954L22.0509 117ZM21.1398 114.389H18.6179L19.8844 110.801L21.1398 114.389ZM24.5869 117H25.8534V111.712L28.2199 117H29.0975L31.4529 111.712V117H32.7194V109.279H31.364L28.6643 115.333L25.9534 109.279H24.5869V117ZM38.6503 109.267H34.3841V117H38.6503V115.967H35.6506V113.6H38.317V112.567H35.6506V110.301H38.6503V109.267Z" fill="#C2C8CF"/>
<path d="M9.02641 127.709V137H13.492V136.014H10.2394V127.709H9.02641ZM14.7802 137H15.9932V129.695H14.7802V137ZM15.4067 128.509C15.8466 128.509 16.2065 128.149 16.2065 127.682C16.2065 127.216 15.8466 126.856 15.4067 126.856C14.9401 126.856 14.5802 127.216 14.5802 127.682C14.5802 128.149 14.9401 128.509 15.4067 128.509ZM17.1942 129.695L20.0601 137H21.4731L24.339 129.695H23.046L20.7799 135.88L18.5005 129.695H17.1942ZM25.5327 137H26.7457V129.695H25.5327V137ZM26.1592 128.509C26.5991 128.509 26.959 128.149 26.959 127.682C26.959 127.216 26.5991 126.856 26.1592 126.856C25.6927 126.856 25.3327 127.216 25.3327 127.682C25.3327 128.149 25.6927 128.509 26.1592 128.509ZM28.3599 133.321C28.3599 135.587 29.8662 137.12 31.8257 137.12C33.1587 137.12 34.1051 136.44 34.545 135.627V137H35.7714V127.136H34.545V131.001C34.0385 130.162 32.9854 129.575 31.839 129.575C29.8662 129.575 28.3599 131.041 28.3599 133.321ZM34.545 133.334C34.545 135.054 33.3986 136.054 32.0656 136.054C30.7326 136.054 29.5996 135.04 29.5996 133.321C29.5996 131.601 30.7326 130.628 32.0656 130.628C33.3986 130.628 34.545 131.641 34.545 133.334Z" fill="#5D6B7E"/>
<path d="M13.7328 160H14.9993V152.279H13.7328V155.589H10.0998V152.279H8.83325V160H10.0998V156.623H13.7328V160ZM20.9329 152.267H16.6667V160H20.9329V158.967H17.9332V156.6H20.5996V155.567H17.9332V153.301H20.9329V152.267ZM27.0147 160H28.4368L26.037 156.145L28.4479 152.279H27.0369L25.3926 155.1L23.6372 152.279H22.2152L24.626 156.145L22.2263 160H23.6372L25.2704 157.2L27.0147 160Z" fill="#C2C8CF"/>
<path d="M15.3182 172.655C15.1582 171.309 14.2251 170.162 12.3856 170.162C9.94618 170.162 8.97309 172.029 8.97309 175.055C8.97309 177.974 9.65292 180.027 12.5055 180.027C14.6117 180.027 15.6514 178.587 15.6514 176.827C15.6514 174.801 14.4384 173.615 12.6388 173.615C11.4925 173.615 10.4394 174.148 10.0262 175.095C10.0128 172.229 10.8393 171.176 12.3722 171.176C13.4653 171.176 14.0118 171.722 14.1985 172.655H15.3182ZM12.3856 174.641C13.7719 174.641 14.4784 175.508 14.4784 176.867C14.4784 178.174 13.6919 179.014 12.4389 179.014C10.9193 179.014 10.1728 178.014 10.1728 176.734C10.1728 175.295 11.2792 174.641 12.3856 174.641ZM23.7796 172.655C23.6196 171.309 22.6865 170.162 20.847 170.162C18.4076 170.162 17.4345 172.029 17.4345 175.055C17.4345 177.974 18.1143 180.027 20.967 180.027C23.0731 180.027 24.1128 178.587 24.1128 176.827C24.1128 174.801 22.8998 173.615 21.1003 173.615C19.9539 173.615 18.9008 174.148 18.4876 175.095C18.4743 172.229 19.3007 171.176 20.8337 171.176C21.9267 171.176 22.4733 171.722 22.6599 172.655H23.7796ZM20.847 174.641C22.2333 174.641 22.9398 175.508 22.9398 176.867C22.9398 178.174 22.1533 179.014 20.9003 179.014C19.3807 179.014 18.6342 178.014 18.6342 176.734C18.6342 175.295 19.7406 174.641 20.847 174.641ZM26.1892 177.414C26.3225 178.827 27.2556 180.013 29.1751 180.013C31.7078 180.013 32.441 178.214 32.441 175.001C32.441 172.015 31.6812 170.176 29.0685 170.176C26.989 170.176 25.8959 171.509 25.8959 173.348C25.8959 175.388 27.2156 176.494 28.9885 176.494C30.0282 176.494 30.988 176.028 31.3746 175.215C31.4146 178.04 30.6548 179 29.2418 179C28.1221 179 27.4822 178.414 27.3089 177.414H26.1892ZM29.1885 175.468C27.7488 175.468 27.0557 174.561 27.0557 173.322C27.0557 172.042 27.8421 171.189 29.0951 171.189C30.4815 171.189 31.2279 172.109 31.2279 173.415C31.2279 174.708 30.3482 175.468 29.1885 175.468ZM35.9052 174.988C34.8255 175.308 34.119 176.188 34.119 177.401C34.119 179.147 35.492 180.267 37.5181 180.267C39.5576 180.267 40.9439 179.147 40.9439 177.401C40.9439 176.201 40.2375 175.321 39.1444 174.988C40.0908 174.615 40.6907 173.815 40.6907 172.775C40.6907 171.375 39.6109 170.216 37.5181 170.216C35.4253 170.216 34.3589 171.362 34.3589 172.775C34.3589 173.855 34.9188 174.601 35.9052 174.988ZM37.5181 174.588C36.3451 174.588 35.532 173.935 35.532 172.935C35.532 171.802 36.3318 171.229 37.5181 171.229C38.7312 171.229 39.5176 171.815 39.5176 172.922C39.5176 173.922 38.7045 174.588 37.5181 174.588ZM37.5181 175.521C38.7845 175.521 39.7442 176.121 39.7442 177.361C39.7442 178.48 38.8911 179.254 37.5181 179.254C36.1451 179.254 35.2787 178.494 35.2787 177.361C35.2787 176.081 36.2784 175.521 37.5181 175.521ZM45.6476 170.709H42.755V180H45.6476C48.7001 180 50.5797 178.254 50.5797 175.374C50.5797 172.495 48.7001 170.709 45.6476 170.709ZM43.968 179V171.695H45.6476C48.0736 171.695 49.34 173.108 49.34 175.374C49.34 177.641 48.0736 179 45.6476 179H43.968ZM56.6186 180H57.8183V177.854H59.1513V176.801H57.8183V170.456H56.3653L51.6865 176.934V177.854H56.6186V180ZM53.0861 176.801L56.6719 171.722V176.801H53.0861Z" fill="#5D6B7E"/>
<path d="M0 194H112V214C112 216.209 110.209 218 108 218H4C1.79086 218 0 216.209 0 214V194Z" fill="#EDEFF1"/>
<path d="M8.83325 210H10.0998V206.623H12.6551V205.589H10.0998V203.312H13.3772V202.279H8.83325V210ZM14.5399 207.178C14.5399 209.145 15.9175 210.078 17.5396 210.078C19.1505 210.078 20.5726 209.145 20.5726 207.178V202.279H19.3061V207.2C19.3061 208.4 18.6284 208.967 17.5507 208.967C16.4841 208.967 15.8064 208.4 15.8064 207.2V202.279H14.5399V207.178ZM27.2989 202.267V208.022L23.4882 202.267H22.2217V210H23.4882V204.234L27.2989 210H28.5655V202.267H27.2989ZM35.3059 202.267V208.022L31.4952 202.267H30.2287V210H31.4952V204.234L35.3059 210H36.5725V202.267H35.3059ZM42.5019 202.267H38.2357V210H42.5019V208.967H39.5022V206.6H42.1686V205.567H39.5022V203.301H42.5019V202.267ZM44.0619 202.279V210H47.9393V208.978H45.3285V202.279H44.0619ZM48.8096 203.901H50.0428C50.1206 203.334 50.5317 202.801 51.4205 202.801C52.2871 202.801 52.7426 203.267 52.7426 203.967C52.7426 204.834 52.0426 205.167 50.8983 205.178H50.5983V206.223H50.8872C52.2093 206.223 52.8981 206.589 52.8981 207.656C52.8981 208.411 52.4315 208.989 51.4871 208.989C50.5317 208.989 49.9762 208.411 49.9206 207.656H48.6985C48.7763 209.245 49.9651 210.044 51.4983 210.044C53.187 210.044 54.098 209.067 54.098 207.778C54.098 206.656 53.5536 205.956 52.7092 205.7V205.656C53.3425 205.445 53.9536 204.789 53.9536 203.823C53.9536 202.645 53.0759 201.712 51.4649 201.712C49.9873 201.712 48.8985 202.501 48.8096 203.901ZM55.4284 205.845C55.4284 208.2 56.0506 209.978 58.317 209.978C60.5835 209.978 61.2056 208.2 61.2056 205.845C61.2056 203.534 60.5835 201.756 58.317 201.756C56.0506 201.756 55.4284 203.534 55.4284 205.845ZM59.9613 205.845C59.9613 207.434 59.7946 208.822 58.317 208.822C56.8394 208.822 56.6727 207.434 56.6727 205.845C56.6727 204.334 56.8394 202.912 58.317 202.912C59.7946 202.912 59.9613 204.334 59.9613 205.845ZM62.5458 205.845C62.5458 208.2 63.1679 209.978 65.4344 209.978C67.7008 209.978 68.323 208.2 68.323 205.845C68.323 203.534 67.7008 201.756 65.4344 201.756C63.1679 201.756 62.5458 203.534 62.5458 205.845ZM67.0786 205.845C67.0786 207.434 66.912 208.822 65.4344 208.822C63.9567 208.822 63.7901 207.434 63.7901 205.845C63.7901 204.334 63.9567 202.912 65.4344 202.912C66.912 202.912 67.0786 204.334 67.0786 205.845Z" fill="#9AA3AF"/>
</svg>
