<svg width="176" height="218" viewBox="0 0 176 218" fill="none" xmlns="http://www.w3.org/2000/svg">
<rect y="100" width="176" height="94" fill="#F9FAFA"/>
<path d="M0 194H176V214C176 216.209 174.209 218 172 218H4C1.79086 218 0 216.209 0 214V194Z" fill="#EDEFF1"/>
<path d="M0 4C0 1.79086 1.79086 0 4 0H172C174.209 0 176 1.79086 176 4V100H0V4Z" fill="#407EC9"/>
<path d="M13.9105 109.267V115.022L10.0998 109.267H8.83325V117H10.0998V111.234L13.9105 117H15.1771V109.267H13.9105ZM22.0509 117H23.3841L20.6177 109.267H19.1511L16.3848 117H17.7068L18.2623 115.422H21.4954L22.0509 117ZM21.1398 114.389H18.6179L19.8844 110.801L21.1398 114.389ZM24.5869 117H25.8534V111.712L28.2199 117H29.0975L31.4529 111.712V117H32.7194V109.279H31.364L28.6643 115.333L25.9534 109.279H24.5869V117ZM38.6503 109.267H34.3841V117H38.6503V115.967H35.6506V113.6H38.317V112.567H35.6506V110.301H38.6503V109.267Z" fill="#C2C8CF"/>
<path d="M8.45322 128.695H10.9993V137H12.2123V128.695H14.745V127.709H8.45322V128.695ZM22.7165 129.695H21.5035V133.707C21.5035 135.28 20.6637 136.054 19.4107 136.054C18.1843 136.054 17.3712 135.294 17.3712 133.814V129.695H16.1715V133.974C16.1715 136.067 17.4912 137.107 19.1707 137.107C20.1438 137.107 21.0369 136.68 21.5035 135.92V137H22.7165V129.695ZM24.9913 137H26.2043V130.695H27.7373V129.695H26.2043V129.175C26.2043 128.229 26.5642 127.829 27.6573 127.829V126.816C25.7911 126.816 24.9913 127.549 24.9913 129.175V129.695H24.0448V130.695H24.9913V137ZM29.4182 135C29.4182 136.467 30.1513 137 31.4443 137H32.5374V135.974H31.6443C30.8978 135.974 30.6312 135.72 30.6312 135V130.695H32.5374V129.695H30.6312V127.856H29.4182V129.695H28.4718V130.695H29.4182V135ZM39.2592 135.014C39.2058 132.401 34.9669 133.348 34.9669 131.615C34.9669 131.028 35.5001 130.602 36.3932 130.602C37.3663 130.602 37.9262 131.135 37.9795 131.868H39.1925C39.1125 130.442 38.0461 129.575 36.4332 129.575C34.8069 129.575 33.7539 130.495 33.7539 131.615C33.7539 134.334 38.0728 133.388 38.0728 135.014C38.0728 135.614 37.5396 136.094 36.5798 136.094C35.5534 136.094 34.9269 135.56 34.8603 134.854H33.6072C33.6872 136.187 34.8869 137.12 36.5932 137.12C38.2061 137.12 39.2592 136.214 39.2592 135.014ZM49.804 134.387C49.804 135.4 49.0842 136 47.8845 136H45.7384V132.721H47.8445C49.0309 132.721 49.804 133.361 49.804 134.387ZM49.5641 130.215C49.5641 131.161 48.9109 131.721 47.7779 131.721H45.7384V128.709H47.7512C48.9376 128.709 49.5641 129.295 49.5641 130.215ZM51.0171 134.507C51.0171 133.361 50.1906 132.388 49.1775 132.215C50.0706 131.921 50.8038 131.241 50.8038 130.068C50.8038 128.775 49.8174 127.709 47.8578 127.709H44.5253V137H47.9911C49.9107 137 51.0171 135.907 51.0171 134.507ZM52.7004 137H53.9134V127.136H52.7004V137ZM62.4592 129.695H61.2462V133.707C61.2462 135.28 60.4064 136.054 59.1534 136.054C57.927 136.054 57.1139 135.294 57.1139 133.814V129.695H55.9142V133.974C55.9142 136.067 57.2338 137.107 58.9134 137.107C59.8865 137.107 60.7796 136.68 61.2462 135.92V137H62.4592V129.695ZM67.6132 130.602C68.8662 130.602 69.9326 131.388 69.9193 132.814H65.3071C65.4404 131.388 66.4268 130.602 67.6132 130.602ZM71.0257 134.747H69.7194C69.4528 135.534 68.7596 136.094 67.6665 136.094C66.4268 136.094 65.3871 135.28 65.2938 133.801H71.1323C71.159 133.548 71.1723 133.334 71.1723 133.068C71.1723 131.068 69.786 129.575 67.6665 129.575C65.5337 129.575 64.0541 131.028 64.0541 133.334C64.0541 135.654 65.5871 137.12 67.6665 137.12C69.4794 137.12 70.6525 136.08 71.0257 134.747Z" fill="#5D6B7E"/>
<path d="M8.83325 210H10.0998V206.623H12.6551V205.589H10.0998V203.312H13.3772V202.279H8.83325V210ZM14.5399 207.178C14.5399 209.145 15.9175 210.078 17.5396 210.078C19.1505 210.078 20.5726 209.145 20.5726 207.178V202.279H19.3061V207.2C19.3061 208.4 18.6284 208.967 17.5507 208.967C16.4841 208.967 15.8064 208.4 15.8064 207.2V202.279H14.5399V207.178ZM27.2989 202.267V208.022L23.4882 202.267H22.2217V210H23.4882V204.234L27.2989 210H28.5655V202.267H27.2989ZM35.3059 202.267V208.022L31.4952 202.267H30.2287V210H31.4952V204.234L35.3059 210H36.5725V202.267H35.3059ZM42.5019 202.267H38.2357V210H42.5019V208.967H39.5022V206.6H42.1686V205.567H39.5022V203.301H42.5019V202.267ZM44.0619 202.279V210H47.9393V208.978H45.3285V202.279H44.0619ZM52.6981 210H53.9425V208.311H54.9757V207.211H53.9425V202.001H52.4093L48.6763 207.356V208.311H52.6981V210ZM50.1317 207.211L52.7537 203.29V207.211H50.1317ZM56.0251 205.845C56.0251 208.2 56.6473 209.978 58.9137 209.978C61.1802 209.978 61.8023 208.2 61.8023 205.845C61.8023 203.534 61.1802 201.756 58.9137 201.756C56.6473 201.756 56.0251 203.534 56.0251 205.845ZM60.558 205.845C60.558 207.434 60.3914 208.822 58.9137 208.822C57.4361 208.822 57.2695 207.434 57.2695 205.845C57.2695 204.334 57.4361 202.912 58.9137 202.912C60.3914 202.912 60.558 204.334 60.558 205.845ZM63.1425 205.845C63.1425 208.2 63.7646 209.978 66.0311 209.978C68.2975 209.978 68.9197 208.2 68.9197 205.845C68.9197 203.534 68.2975 201.756 66.0311 201.756C63.7646 201.756 63.1425 203.534 63.1425 205.845ZM67.6754 205.845C67.6754 207.434 67.5087 208.822 66.0311 208.822C64.5535 208.822 64.3868 207.434 64.3868 205.845C64.3868 204.334 64.5535 202.912 66.0311 202.912C67.5087 202.912 67.6754 204.334 67.6754 205.845Z" fill="#9AA3AF"/>
<path d="M117.733 160H118.999V152.279H117.733V155.589H114.1V152.279H112.833V160H114.1V156.623H117.733V160ZM124.933 152.267H120.667V160H124.933V158.967H121.933V156.6H124.6V155.567H121.933V153.301H124.933V152.267ZM131.015 160H132.437L130.037 156.145L132.448 152.279H131.037L129.393 155.1L127.637 152.279H126.215L128.626 156.145L126.226 160H127.637L129.27 157.2L131.015 160Z" fill="#C2C8CF"/>
<path d="M117.465 180H118.665V177.854H119.998V176.801H118.665V170.456H117.212L112.533 176.934V177.854H117.465V180ZM113.933 176.801L117.519 171.722V176.801H113.933ZM121.21 175.081C121.21 177.881 121.903 180 124.569 180C127.222 180 127.915 177.881 127.915 175.081C127.915 172.322 127.222 170.216 124.569 170.216C121.903 170.216 121.21 172.322 121.21 175.081ZM126.715 175.081C126.715 177.161 126.462 178.894 124.569 178.894C122.663 178.894 122.409 177.161 122.409 175.081C122.409 173.082 122.663 171.322 124.569 171.322C126.462 171.322 126.715 173.082 126.715 175.081ZM129.194 170.389V171.429H134.339L130.58 180H131.806L135.512 171.309V170.389H129.194ZM142.056 170.696H137.057V180H142.056V179H138.27V175.801H141.656V174.801H138.27V171.695H142.056V170.696ZM143.438 175.348C143.438 178.134 145.477 180.08 148.077 180.08C150.09 180.08 151.689 179.08 152.382 177.294H150.929C150.423 178.4 149.436 179.027 148.077 179.027C146.131 179.027 144.678 177.614 144.678 175.348C144.678 173.068 146.131 171.655 148.077 171.655C149.436 171.655 150.423 172.282 150.929 173.402H152.382C151.689 171.602 150.09 170.589 148.077 170.589C145.477 170.589 143.438 172.562 143.438 175.348ZM154.428 177.414C154.561 178.827 155.494 180.013 157.414 180.013C159.947 180.013 160.68 178.214 160.68 175.001C160.68 172.015 159.92 170.176 157.307 170.176C155.228 170.176 154.135 171.509 154.135 173.348C154.135 175.388 155.454 176.494 157.227 176.494C158.267 176.494 159.227 176.028 159.613 175.215C159.653 178.04 158.893 179 157.481 179C156.361 179 155.721 178.414 155.548 177.414H154.428ZM157.427 175.468C155.988 175.468 155.294 174.561 155.294 173.322C155.294 172.042 156.081 171.189 157.334 171.189C158.72 171.189 159.467 172.109 159.467 173.415C159.467 174.708 158.587 175.468 157.427 175.468Z" fill="#5D6B7E"/>
<path d="M12.9328 154.589C12.9328 155.356 12.4884 155.9 11.4997 155.9H10.0998V153.312H11.4997C12.4884 153.312 12.9328 153.812 12.9328 154.589ZM8.83325 152.279V160H10.0998V156.911H11.0664L12.844 160H14.3549L12.444 156.8C13.7439 156.478 14.2327 155.5 14.2327 154.589C14.2327 153.334 13.3328 152.279 11.4997 152.279H8.83325ZM19.3748 152.179C17.1973 152.179 15.4308 153.812 15.4308 156.123C15.4308 158.445 17.1973 160.067 19.3748 160.067C21.4524 160.067 22.9633 158.545 23.1967 156.756V155.767H18.9415V156.778H21.8412C21.6524 158.078 20.7747 158.922 19.3748 158.922C17.8416 158.922 16.7306 157.822 16.7306 156.123C16.7306 154.423 17.8416 153.334 19.3748 153.334C20.2969 153.334 21.0302 153.723 21.4413 154.501H22.9633C22.3745 152.99 20.9858 152.179 19.3748 152.179ZM28.801 157.789C28.801 158.533 28.2788 158.967 27.4233 158.967H25.7124V156.556H27.3789C28.2232 156.556 28.801 157.023 28.801 157.789ZM28.601 154.423C28.601 155.134 28.101 155.523 27.2789 155.523H25.7124V153.312H27.2789C28.101 153.312 28.601 153.723 28.601 154.423ZM30.0675 157.922C30.0675 157 29.4009 156.178 28.5788 156.034C29.3231 155.767 29.8897 155.2 29.8897 154.267C29.8897 153.178 29.0232 152.279 27.39 152.279H24.4458V160H27.5344C29.112 160 30.0675 159.1 30.0675 157.922Z" fill="#C2C8CF"/>
<path d="M15.3182 172.655C15.1582 171.309 14.2251 170.162 12.3856 170.162C9.94618 170.162 8.97309 172.029 8.97309 175.055C8.97309 177.974 9.65292 180.027 12.5055 180.027C14.6117 180.027 15.6514 178.587 15.6514 176.827C15.6514 174.801 14.4384 173.615 12.6388 173.615C11.4925 173.615 10.4394 174.148 10.0262 175.095C10.0128 172.229 10.8393 171.176 12.3722 171.176C13.4653 171.176 14.0118 171.722 14.1985 172.655H15.3182ZM12.3856 174.641C13.7719 174.641 14.4784 175.508 14.4784 176.867C14.4784 178.174 13.6919 179.014 12.4389 179.014C10.9193 179.014 10.1728 178.014 10.1728 176.734C10.1728 175.295 11.2792 174.641 12.3856 174.641ZM21.9267 180H23.1264V177.854H24.4594V176.801H23.1264V170.456H21.6735L16.9946 176.934V177.854H21.9267V180ZM18.3943 176.801L21.98 171.722V176.801H18.3943ZM24.8181 181.906H25.6312L27.1242 178.32H25.7912L24.8181 181.906ZM32.8273 180H34.0537V170.362H31.5477V171.469H32.8273V180ZM35.9907 179.893H42.4024V178.88H37.8169C39.5365 177.481 42.1225 175.441 42.1225 173.042C42.1225 171.256 40.9495 170.189 39.1366 170.189C37.4037 170.189 36.1107 171.256 36.0307 173.308H37.2037C37.2571 172.095 37.8969 171.229 39.1499 171.229C40.4563 171.229 40.9228 172.029 40.9228 173.095C40.9228 175.068 38.5234 176.987 35.9907 179.027V179.893ZM50.2964 172.655C50.1364 171.309 49.2033 170.162 47.3638 170.162C44.9244 170.162 43.9513 172.029 43.9513 175.055C43.9513 177.974 44.6312 180.027 47.4838 180.027C49.5899 180.027 50.6297 178.587 50.6297 176.827C50.6297 174.801 49.4166 173.615 47.6171 173.615C46.4707 173.615 45.4176 174.148 45.0044 175.095C44.9911 172.229 45.8175 171.176 47.3505 171.176C48.4435 171.176 48.9901 171.722 49.1767 172.655H50.2964ZM47.3638 174.641C48.7501 174.641 49.4566 175.508 49.4566 176.867C49.4566 178.174 48.6701 179.014 47.4171 179.014C45.8975 179.014 45.151 178.014 45.151 176.734C45.151 175.295 46.2574 174.641 47.3638 174.641ZM51.413 181.906H52.2261L53.7191 178.32H52.3861L51.413 181.906ZM58.3159 179.893H64.7276V178.88H60.1421C61.8616 177.481 64.4477 175.441 64.4477 173.042C64.4477 171.256 63.2746 170.189 61.4617 170.189C59.7288 170.189 58.4358 171.256 58.3558 173.308H59.5289C59.5822 172.095 60.222 171.229 61.4751 171.229C62.7814 171.229 63.248 172.029 63.248 173.095C63.248 175.068 60.8486 176.987 58.3159 179.027V179.893ZM66.1298 175.081C66.1298 177.881 66.823 180 69.489 180C72.1417 180 72.8348 177.881 72.8348 175.081C72.8348 172.322 72.1417 170.216 69.489 170.216C66.823 170.216 66.1298 172.322 66.1298 175.081ZM71.6351 175.081C71.6351 177.161 71.3819 178.894 69.489 178.894C67.5828 178.894 67.3295 177.161 67.3295 175.081C67.3295 173.082 67.5828 171.322 69.489 171.322C71.3819 171.322 71.6351 173.082 71.6351 175.081ZM75.4599 180H76.6863V170.362H74.1802V171.469H75.4599V180Z" fill="#5D6B7E"/>
</svg>
