<svg width="112" height="218" viewBox="0 0 112 218" fill="none" xmlns="http://www.w3.org/2000/svg">
<rect y="100" width="112" height="94" fill="#F9FAFA"/>
<path d="M0 4C0 1.79086 1.79086 0 4 0H108C110.209 0 112 1.79086 112 4V100H0V4Z" fill="#407EC9"/>
<path d="M13.9105 109.267V115.022L10.0998 109.267H8.83325V117H10.0998V111.234L13.9105 117H15.1771V109.267H13.9105ZM22.0509 117H23.3841L20.6177 109.267H19.1511L16.3848 117H17.7068L18.2623 115.422H21.4954L22.0509 117ZM21.1398 114.389H18.6179L19.8844 110.801L21.1398 114.389ZM24.5869 117H25.8534V111.712L28.2199 117H29.0975L31.4529 111.712V117H32.7194V109.279H31.364L28.6643 115.333L25.9534 109.279H24.5869V117ZM38.6503 109.267H34.3841V117H38.6503V115.967H35.6506V113.6H38.317V112.567H35.6506V110.301H38.6503V109.267Z" fill="#C2C8CF"/>
<path d="M8.45322 128.695H10.9993V137H12.2123V128.695H14.745V127.709H8.45322V128.695ZM22.7165 129.695H21.5035V133.707C21.5035 135.28 20.6637 136.054 19.4107 136.054C18.1843 136.054 17.3712 135.294 17.3712 133.814V129.695H16.1715V133.974C16.1715 136.067 17.4912 137.107 19.1707 137.107C20.1438 137.107 21.0369 136.68 21.5035 135.92V137H22.7165V129.695ZM24.9913 137H26.2043V130.695H27.7373V129.695H26.2043V129.175C26.2043 128.229 26.5642 127.829 27.6573 127.829V126.816C25.7911 126.816 24.9913 127.549 24.9913 129.175V129.695H24.0448V130.695H24.9913V137ZM29.4182 135C29.4182 136.467 30.1513 137 31.4443 137H32.5374V135.974H31.6443C30.8978 135.974 30.6312 135.72 30.6312 135V130.695H32.5374V129.695H30.6312V127.856H29.4182V129.695H28.4718V130.695H29.4182V135ZM39.2592 135.014C39.2058 132.401 34.9669 133.348 34.9669 131.615C34.9669 131.028 35.5001 130.602 36.3932 130.602C37.3663 130.602 37.9262 131.135 37.9795 131.868H39.1925C39.1125 130.442 38.0461 129.575 36.4332 129.575C34.8069 129.575 33.7539 130.495 33.7539 131.615C33.7539 134.334 38.0728 133.388 38.0728 135.014C38.0728 135.614 37.5396 136.094 36.5798 136.094C35.5534 136.094 34.9269 135.56 34.8603 134.854H33.6072C33.6872 136.187 34.8869 137.12 36.5932 137.12C38.2061 137.12 39.2592 136.214 39.2592 135.014ZM49.804 134.387C49.804 135.4 49.0842 136 47.8845 136H45.7384V132.721H47.8445C49.0309 132.721 49.804 133.361 49.804 134.387ZM49.5641 130.215C49.5641 131.161 48.9109 131.721 47.7779 131.721H45.7384V128.709H47.7512C48.9376 128.709 49.5641 129.295 49.5641 130.215ZM51.0171 134.507C51.0171 133.361 50.1906 132.388 49.1775 132.215C50.0706 131.921 50.8038 131.241 50.8038 130.068C50.8038 128.775 49.8174 127.709 47.8578 127.709H44.5253V137H47.9911C49.9107 137 51.0171 135.907 51.0171 134.507ZM52.7004 137H53.9134V127.136H52.7004V137ZM62.4592 129.695H61.2462V133.707C61.2462 135.28 60.4064 136.054 59.1534 136.054C57.927 136.054 57.1139 135.294 57.1139 133.814V129.695H55.9142V133.974C55.9142 136.067 57.2338 137.107 58.9134 137.107C59.8865 137.107 60.7796 136.68 61.2462 135.92V137H62.4592V129.695ZM67.6132 130.602C68.8662 130.602 69.9326 131.388 69.9193 132.814H65.3071C65.4404 131.388 66.4268 130.602 67.6132 130.602ZM71.0257 134.747H69.7194C69.4528 135.534 68.7596 136.094 67.6665 136.094C66.4268 136.094 65.3871 135.28 65.2938 133.801H71.1323C71.159 133.548 71.1723 133.334 71.1723 133.068C71.1723 131.068 69.786 129.575 67.6665 129.575C65.5337 129.575 64.0541 131.028 64.0541 133.334C64.0541 135.654 65.5871 137.12 67.6665 137.12C69.4794 137.12 70.6525 136.08 71.0257 134.747Z" fill="#5D6B7E"/>
<path d="M13.7328 160H14.9993V152.279H13.7328V155.589H10.0998V152.279H8.83325V160H10.0998V156.623H13.7328V160ZM20.9329 152.267H16.6667V160H20.9329V158.967H17.9332V156.6H20.5996V155.567H17.9332V153.301H20.9329V152.267ZM27.0147 160H28.4368L26.037 156.145L28.4479 152.279H27.0369L25.3926 155.1L23.6372 152.279H22.2152L24.626 156.145L22.2263 160H23.6372L25.2704 157.2L27.0147 160Z" fill="#C2C8CF"/>
<path d="M13.4653 180H14.665V177.854H15.998V176.801H14.665V170.456H13.212L8.5332 176.934V177.854H13.4653V180ZM9.93285 176.801L13.5186 171.722V176.801H9.93285ZM17.2098 175.081C17.2098 177.881 17.9029 180 20.5689 180C23.2216 180 23.9148 177.881 23.9148 175.081C23.9148 172.322 23.2216 170.216 20.5689 170.216C17.9029 170.216 17.2098 172.322 17.2098 175.081ZM22.7151 175.081C22.7151 177.161 22.4618 178.894 20.5689 178.894C18.6627 178.894 18.4095 177.161 18.4095 175.081C18.4095 173.082 18.6627 171.322 20.5689 171.322C22.4618 171.322 22.7151 173.082 22.7151 175.081ZM25.1935 170.389V171.429H30.3389L26.5798 180H27.8062L31.5119 171.309V170.389H25.1935ZM38.0556 170.696H33.0569V180H38.0556V179H34.2699V175.801H37.6557V174.801H34.2699V171.695H38.0556V170.696ZM39.4379 175.348C39.4379 178.134 41.4774 180.08 44.0767 180.08C46.0895 180.08 47.6891 179.08 48.3823 177.294H46.9293C46.4228 178.4 45.4364 179.027 44.0767 179.027C42.1305 179.027 40.6776 177.614 40.6776 175.348C40.6776 173.068 42.1305 171.655 44.0767 171.655C45.4364 171.655 46.4228 172.282 46.9293 173.402H48.3823C47.6891 171.602 46.0895 170.589 44.0767 170.589C41.4774 170.589 39.4379 172.562 39.4379 175.348ZM50.4279 177.414C50.5612 178.827 51.4943 180.013 53.4139 180.013C55.9466 180.013 56.6797 178.214 56.6797 175.001C56.6797 172.015 55.9199 170.176 53.3072 170.176C51.2277 170.176 50.1347 171.509 50.1347 173.348C50.1347 175.388 51.4543 176.494 53.2272 176.494C54.267 176.494 55.2267 176.028 55.6133 175.215C55.6533 178.04 54.8935 179 53.4805 179C52.3608 179 51.7209 178.414 51.5477 177.414H50.4279ZM53.4272 175.468C51.9875 175.468 51.2944 174.561 51.2944 173.322C51.2944 172.042 52.0809 171.189 53.3339 171.189C54.7202 171.189 55.4667 172.109 55.4667 173.415C55.4667 174.708 54.5869 175.468 53.4272 175.468Z" fill="#5D6B7E"/>
<path d="M0 194H112V214C112 216.209 110.209 218 108 218H4C1.79086 218 0 216.209 0 214V194Z" fill="#EDEFF1"/>
<path d="M8.83325 210H10.0998V206.623H12.6551V205.589H10.0998V203.312H13.3772V202.279H8.83325V210ZM14.5399 207.178C14.5399 209.145 15.9175 210.078 17.5396 210.078C19.1505 210.078 20.5726 209.145 20.5726 207.178V202.279H19.3061V207.2C19.3061 208.4 18.6284 208.967 17.5507 208.967C16.4841 208.967 15.8064 208.4 15.8064 207.2V202.279H14.5399V207.178ZM27.2989 202.267V208.022L23.4882 202.267H22.2217V210H23.4882V204.234L27.2989 210H28.5655V202.267H27.2989ZM35.3059 202.267V208.022L31.4952 202.267H30.2287V210H31.4952V204.234L35.3059 210H36.5725V202.267H35.3059ZM42.5019 202.267H38.2357V210H42.5019V208.967H39.5022V206.6H42.1686V205.567H39.5022V203.301H42.5019V202.267ZM44.0619 202.279V210H47.9393V208.978H45.3285V202.279H44.0619ZM52.6981 210H53.9425V208.311H54.9757V207.211H53.9425V202.001H52.4093L48.6763 207.356V208.311H52.6981V210ZM50.1317 207.211L52.7537 203.29V207.211H50.1317ZM56.0251 205.845C56.0251 208.2 56.6473 209.978 58.9137 209.978C61.1802 209.978 61.8023 208.2 61.8023 205.845C61.8023 203.534 61.1802 201.756 58.9137 201.756C56.6473 201.756 56.0251 203.534 56.0251 205.845ZM60.558 205.845C60.558 207.434 60.3914 208.822 58.9137 208.822C57.4361 208.822 57.2695 207.434 57.2695 205.845C57.2695 204.334 57.4361 202.912 58.9137 202.912C60.3914 202.912 60.558 204.334 60.558 205.845ZM63.1425 205.845C63.1425 208.2 63.7646 209.978 66.0311 209.978C68.2975 209.978 68.9197 208.2 68.9197 205.845C68.9197 203.534 68.2975 201.756 66.0311 201.756C63.7646 201.756 63.1425 203.534 63.1425 205.845ZM67.6754 205.845C67.6754 207.434 67.5087 208.822 66.0311 208.822C64.5535 208.822 64.3868 207.434 64.3868 205.845C64.3868 204.334 64.5535 202.912 66.0311 202.912C67.5087 202.912 67.6754 204.334 67.6754 205.845Z" fill="#9AA3AF"/>
</svg>
