<svg width="112" height="218" viewBox="0 0 112 218" fill="none" xmlns="http://www.w3.org/2000/svg">
<rect y="100" width="112" height="94" fill="#F9FAFA"/>
<path d="M0 4C0 1.79086 1.79086 0 4 0H108C110.209 0 112 1.79086 112 4V100H0V4Z" fill="#4AC19A"/>
<path d="M13.9105 109.267V115.022L10.0998 109.267H8.83325V117H10.0998V111.234L13.9105 117H15.1771V109.267H13.9105ZM22.0509 117H23.3841L20.6177 109.267H19.1511L16.3848 117H17.7068L18.2623 115.422H21.4954L22.0509 117ZM21.1398 114.389H18.6179L19.8844 110.801L21.1398 114.389ZM24.5869 117H25.8534V111.712L28.2199 117H29.0975L31.4529 111.712V117H32.7194V109.279H31.364L28.6643 115.333L25.9534 109.279H24.5869V117ZM38.6503 109.267H34.3841V117H38.6503V115.967H35.6506V113.6H38.317V112.567H35.6506V110.301H38.6503V109.267Z" fill="#C2C8CF"/>
<path d="M10.2394 132.121V128.709H12.0257C13.412 128.709 13.9985 129.349 13.9985 130.428C13.9985 131.468 13.412 132.121 12.0257 132.121H10.2394ZM15.2382 130.428C15.2382 128.909 14.2118 127.709 12.0257 127.709H9.02641V137H10.2394V133.121H12.0257C14.3318 133.121 15.2382 131.841 15.2382 130.428ZM23.2242 129.695H22.0112V133.707C22.0112 135.28 21.1714 136.054 19.9184 136.054C18.692 136.054 17.8789 135.294 17.8789 133.814V129.695H16.6792V133.974C16.6792 136.067 17.9989 137.107 19.6784 137.107C20.6515 137.107 21.5446 136.68 22.0112 135.92V137H23.2242V129.695ZM28.3782 130.602C29.6313 130.602 30.6977 131.388 30.6843 132.814H26.0721C26.2054 131.388 27.1919 130.602 28.3782 130.602ZM31.7907 134.747H30.4844C30.2178 135.534 29.5246 136.094 28.4316 136.094C27.1919 136.094 26.1521 135.28 26.0588 133.801H31.8974C31.924 133.548 31.9373 133.334 31.9373 133.068C31.9373 131.068 30.551 129.575 28.4316 129.575C26.2988 129.575 24.8191 131.028 24.8191 133.334C24.8191 135.654 26.3521 137.12 28.4316 137.12C30.2444 137.12 31.4175 136.08 31.7907 134.747ZM34.7515 133.028C34.7515 131.335 35.6313 130.815 36.791 130.815H37.111V129.562C35.9512 129.562 35.1648 130.068 34.7515 130.882V129.695H33.5385V137H34.7515V133.028ZM38.7778 135C38.7778 136.467 39.511 137 40.804 137H41.897V135.974H41.0039C40.2575 135.974 39.9909 135.72 39.9909 135V130.695H41.897V129.695H39.9909V127.856H38.7778V129.695H37.8314V130.695H38.7778V135ZM50.2984 133.334C50.2984 131.028 48.6855 129.575 46.606 129.575C44.5398 129.575 42.9136 131.028 42.9136 133.334C42.9136 135.654 44.4865 137.12 46.5527 137.12C48.6321 137.12 50.2984 135.654 50.2984 133.334ZM44.1533 133.334C44.1533 131.495 45.313 130.628 46.5926 130.628C47.8457 130.628 49.0587 131.495 49.0587 133.334C49.0587 135.187 47.819 136.054 46.5527 136.054C45.2863 136.054 44.1533 135.187 44.1533 133.334ZM60.4192 130.442C60.4192 131.481 59.8193 132.228 58.4463 132.228H56.6601V128.709H58.4463C59.8327 128.709 60.4192 129.389 60.4192 130.442ZM55.4471 127.709V137H56.6601V133.201H58.1264L60.3392 137H61.7922L59.4594 133.108C61.019 132.761 61.6722 131.628 61.6722 130.442C61.6722 128.922 60.6325 127.709 58.4463 127.709H55.4471ZM63.557 137H64.7701V129.695H63.557V137ZM64.1836 128.509C64.6234 128.509 64.9834 128.149 64.9834 127.682C64.9834 127.216 64.6234 126.856 64.1836 126.856C63.717 126.856 63.3571 127.216 63.3571 127.682C63.3571 128.149 63.717 128.509 64.1836 128.509ZM66.3843 133.334C66.3843 135.654 67.8639 137.12 69.9434 137.12C71.7562 137.12 72.9426 136.107 73.3159 134.654H72.0095C71.7429 135.574 71.0231 136.094 69.9434 136.094C68.6104 136.094 67.6239 135.147 67.6239 133.334C67.6239 131.548 68.6104 130.602 69.9434 130.602C71.0231 130.602 71.7562 131.161 72.0095 132.041H73.3159C72.9426 130.508 71.7562 129.575 69.9434 129.575C67.8639 129.575 66.3843 131.041 66.3843 133.334ZM81.866 133.334C81.866 131.028 80.2531 129.575 78.1736 129.575C76.1074 129.575 74.4812 131.028 74.4812 133.334C74.4812 135.654 76.0541 137.12 78.1203 137.12C80.1998 137.12 81.866 135.654 81.866 133.334ZM75.7209 133.334C75.7209 131.495 76.8806 130.628 78.1603 130.628C79.4133 130.628 80.6263 131.495 80.6263 133.334C80.6263 135.187 79.3866 136.054 78.1203 136.054C76.8539 136.054 75.7209 135.187 75.7209 133.334Z" fill="#5D6B7E"/>
<path d="M13.7328 160H14.9993V152.279H13.7328V155.589H10.0998V152.279H8.83325V160H10.0998V156.623H13.7328V160ZM20.9329 152.267H16.6667V160H20.9329V158.967H17.9332V156.6H20.5996V155.567H17.9332V153.301H20.9329V152.267ZM27.0147 160H28.4368L26.037 156.145L28.4479 152.279H27.0369L25.3926 155.1L23.6372 152.279H22.2152L24.626 156.145L22.2263 160H23.6372L25.2704 157.2L27.0147 160Z" fill="#C2C8CF"/>
<path d="M13.4653 180H14.665V177.854H15.998V176.801H14.665V170.456H13.212L8.5332 176.934V177.854H13.4653V180ZM9.93285 176.801L13.5186 171.722V176.801H9.93285ZM23.6482 180H24.9279L21.582 170.762H20.1824L16.8232 180H18.1029L18.8494 177.934H22.9017L23.6482 180ZM22.5551 176.947H19.1959L20.8755 172.255L22.5551 176.947ZM25.9386 175.348C25.9386 178.134 27.9781 180.08 30.5775 180.08C32.5903 180.08 34.1899 179.08 34.8831 177.294H33.4301C32.9236 178.4 31.9371 179.027 30.5775 179.027C28.6313 179.027 27.1783 177.614 27.1783 175.348C27.1783 173.068 28.6313 171.655 30.5775 171.655C31.9371 171.655 32.9236 172.282 33.4301 173.402H34.8831C34.1899 171.602 32.5903 170.589 30.5775 170.589C27.9781 170.589 25.9386 172.562 25.9386 175.348ZM37.4486 180H38.6749V170.362H36.1689V171.469H37.4486V180ZM41.1985 177.414C41.3318 178.827 42.2649 180.013 44.1844 180.013C46.7171 180.013 47.4502 178.214 47.4502 175.001C47.4502 172.015 46.6904 170.176 44.0777 170.176C41.9983 170.176 40.9052 171.509 40.9052 173.348C40.9052 175.388 42.2249 176.494 43.9978 176.494C45.0375 176.494 45.9973 176.028 46.3838 175.215C46.4238 178.04 45.664 179 44.251 179C43.1313 179 42.4915 178.414 42.3182 177.414H41.1985ZM44.1977 175.468C42.7581 175.468 42.0649 174.561 42.0649 173.322C42.0649 172.042 42.8514 171.189 44.1044 171.189C45.4907 171.189 46.2372 172.109 46.2372 173.415C46.2372 174.708 45.3574 175.468 44.1977 175.468ZM55.5933 180H56.873L53.5272 170.762H52.1275L48.7683 180H50.048L50.7945 177.934H54.8468L55.5933 180ZM54.5002 176.947H51.1411L52.8207 172.255L54.5002 176.947Z" fill="#5D6B7E"/>
<path d="M0 194H112V214C112 216.209 110.209 218 108 218H4C1.79086 218 0 216.209 0 214V194Z" fill="#EDEFF1"/>
<path d="M12.3551 202.179C10.1776 202.179 8.41107 203.812 8.41107 206.123C8.41107 208.445 10.1776 210.067 12.3551 210.067C14.4327 210.067 15.9437 208.545 16.177 206.756V205.767H11.9218V206.778H14.8215C14.6327 208.078 13.755 208.922 12.3551 208.922C10.8219 208.922 9.71094 207.822 9.71094 206.123C9.71094 204.423 10.8219 203.334 12.3551 203.334C13.2773 203.334 14.0105 203.723 14.4216 204.501H15.9437C15.3548 202.99 13.9661 202.179 12.3551 202.179ZM21.5257 204.589C21.5257 205.356 21.0813 205.9 20.0925 205.9H18.6927V203.312H20.0925C21.0813 203.312 21.5257 203.812 21.5257 204.589ZM17.4261 202.279V210H18.6927V206.911H19.6593L21.4369 210H22.9478L21.0369 206.8C22.3368 206.478 22.8256 205.5 22.8256 204.589C22.8256 203.334 21.9257 202.279 20.0925 202.279H17.4261ZM28.7121 202.267H24.4458V210H28.7121V208.967H25.7124V206.6H28.3788V205.567H25.7124V203.301H28.7121V202.267ZM34.5383 202.267H30.2721V210H34.5383V208.967H31.5386V206.6H34.205V205.567H31.5386V203.301H34.5383V202.267ZM41.1756 202.267V208.022L37.3649 202.267H36.0983V210H37.3649V204.234L41.1756 210H42.4421V202.267H41.1756ZM43.9165 203.901H45.1497C45.2274 203.334 45.6385 202.801 46.5273 202.801C47.3939 202.801 47.8494 203.267 47.8494 203.967C47.8494 204.834 47.1495 205.167 46.0051 205.178H45.7052V206.223H45.994C47.3161 206.223 48.0049 206.589 48.0049 207.656C48.0049 208.411 47.5383 208.989 46.594 208.989C45.6385 208.989 45.083 208.411 45.0275 207.656H43.8054C43.8831 209.245 45.0719 210.044 46.6051 210.044C48.2938 210.044 49.2048 209.067 49.2048 207.778C49.2048 206.656 48.6604 205.956 47.8161 205.7V205.656C48.4493 205.445 49.0604 204.789 49.0604 203.823C49.0604 202.645 48.1827 201.712 46.5717 201.712C45.0941 201.712 44.0053 202.501 43.9165 203.901ZM50.5352 205.845C50.5352 208.2 51.1574 209.978 53.4238 209.978C55.6903 209.978 56.3124 208.2 56.3124 205.845C56.3124 203.534 55.6903 201.756 53.4238 201.756C51.1574 201.756 50.5352 203.534 50.5352 205.845ZM55.0681 205.845C55.0681 207.434 54.9015 208.822 53.4238 208.822C51.9462 208.822 51.7796 207.434 51.7796 205.845C51.7796 204.334 51.9462 202.912 53.4238 202.912C54.9015 202.912 55.0681 204.334 55.0681 205.845ZM57.6526 205.845C57.6526 208.2 58.2747 209.978 60.5412 209.978C62.8076 209.978 63.4298 208.2 63.4298 205.845C63.4298 203.534 62.8076 201.756 60.5412 201.756C58.2747 201.756 57.6526 203.534 57.6526 205.845ZM62.1855 205.845C62.1855 207.434 62.0188 208.822 60.5412 208.822C59.0636 208.822 58.8969 207.434 58.8969 205.845C58.8969 204.334 59.0636 202.912 60.5412 202.912C62.0188 202.912 62.1855 204.334 62.1855 205.845Z" fill="#9AA3AF"/>
</svg>
