<svg width="112" height="218" viewBox="0 0 112 218" fill="none" xmlns="http://www.w3.org/2000/svg">
<rect y="100" width="112" height="94" fill="#F9FAFA"/>
<path d="M0 4C0 1.79086 1.79086 0 4 0H108C110.209 0 112 1.79086 112 4V100H0V4Z" fill="#178E67"/>
<path d="M13.9105 109.267V115.022L10.0998 109.267H8.83325V117H10.0998V111.234L13.9105 117H15.1771V109.267H13.9105ZM22.0509 117H23.3841L20.6177 109.267H19.1511L16.3848 117H17.7068L18.2623 115.422H21.4954L22.0509 117ZM21.1398 114.389H18.6179L19.8844 110.801L21.1398 114.389ZM24.5869 117H25.8534V111.712L28.2199 117H29.0975L31.4529 111.712V117H32.7194V109.279H31.364L28.6643 115.333L25.9534 109.279H24.5869V117ZM38.6503 109.267H34.3841V117H38.6503V115.967H35.6506V113.6H38.317V112.567H35.6506V110.301H38.6503V109.267Z" fill="#C2C8CF"/>
<path d="M13.2387 127.602C10.626 127.602 8.57319 129.562 8.57319 132.348C8.57319 135.134 10.626 137.08 13.2387 137.08C15.7581 137.08 17.5843 135.227 17.7976 132.921V131.988H12.7988V132.974H16.5045C16.3179 134.814 15.0649 135.987 13.2387 135.987C11.2792 135.987 9.81288 134.574 9.81288 132.348C9.81288 130.108 11.2792 128.695 13.2387 128.695C14.545 128.695 15.5581 129.322 16.0647 130.402H17.5176C16.8245 128.615 15.1982 127.602 13.2387 127.602ZM22.5073 130.602C23.7603 130.602 24.8267 131.388 24.8134 132.814H20.2012C20.3345 131.388 21.3209 130.602 22.5073 130.602ZM25.9198 134.747H24.6134C24.3468 135.534 23.6537 136.094 22.5606 136.094C21.3209 136.094 20.2812 135.28 20.1879 133.801H26.0264C26.0531 133.548 26.0664 133.334 26.0664 133.068C26.0664 131.068 24.6801 129.575 22.5606 129.575C20.4278 129.575 18.9482 131.028 18.9482 133.334C18.9482 135.654 20.4811 137.12 22.5606 137.12C24.3735 137.12 25.5466 136.08 25.9198 134.747ZM33.0129 137H34.2126V132.694C34.2126 130.602 32.9196 129.562 31.2267 129.562C30.2403 129.562 29.3605 129.975 28.8806 130.735V129.695H27.6676V137H28.8806V132.961C28.8806 131.388 29.7337 130.615 30.9734 130.615C32.1998 130.615 33.0129 131.375 33.0129 132.868V137ZM43.1257 133.334C43.1257 131.028 41.5128 129.575 39.4333 129.575C37.3671 129.575 35.7409 131.028 35.7409 133.334C35.7409 135.654 37.3138 137.12 39.38 137.12C41.4594 137.12 43.1257 135.654 43.1257 133.334ZM36.9806 133.334C36.9806 131.495 38.1403 130.628 39.42 130.628C40.673 130.628 41.886 131.495 41.886 133.334C41.886 135.187 40.6463 136.054 39.38 136.054C38.1136 136.054 36.9806 135.187 36.9806 133.334ZM44.2674 133.321C44.2674 135.587 45.7737 137.12 47.7199 137.12C49.0662 137.12 50.0126 136.427 50.4525 135.64V137H51.6789V129.695H50.4525V131.028C50.0259 130.268 49.0928 129.575 47.7332 129.575C45.7737 129.575 44.2674 131.041 44.2674 133.321ZM50.4525 133.334C50.4525 135.054 49.3061 136.054 47.9731 136.054C46.6401 136.054 45.5071 135.04 45.5071 133.321C45.5071 131.601 46.6401 130.628 47.9731 130.628C49.3061 130.628 50.4525 131.641 50.4525 133.334Z" fill="#5D6B7E"/>
<path d="M13.7328 160H14.9993V152.279H13.7328V155.589H10.0998V152.279H8.83325V160H10.0998V156.623H13.7328V160ZM20.9329 152.267H16.6667V160H20.9329V158.967H17.9332V156.6H20.5996V155.567H17.9332V153.301H20.9329V152.267ZM27.0147 160H28.4368L26.037 156.145L28.4479 152.279H27.0369L25.3926 155.1L23.6372 152.279H22.2152L24.626 156.145L22.2263 160H23.6372L25.2704 157.2L27.0147 160Z" fill="#C2C8CF"/>
<path d="M9.78622 180H11.0126V170.362H8.50654V171.469H9.78622V180ZM12.7097 170.389V171.429H17.855L14.096 180H15.3223L19.0281 171.309V170.389H12.7097ZM22.1326 174.988C21.0529 175.308 20.3464 176.188 20.3464 177.401C20.3464 179.147 21.7194 180.267 23.7455 180.267C25.785 180.267 27.1714 179.147 27.1714 177.401C27.1714 176.201 26.4649 175.321 25.3718 174.988C26.3182 174.615 26.9181 173.815 26.9181 172.775C26.9181 171.375 25.8384 170.216 23.7455 170.216C21.6527 170.216 20.5863 171.362 20.5863 172.775C20.5863 173.855 21.1462 174.601 22.1326 174.988ZM23.7455 174.588C22.5725 174.588 21.7594 173.935 21.7594 172.935C21.7594 171.802 22.5592 171.229 23.7455 171.229C24.9586 171.229 25.745 171.815 25.745 172.922C25.745 173.922 24.9319 174.588 23.7455 174.588ZM23.7455 175.521C25.0119 175.521 25.9717 176.121 25.9717 177.361C25.9717 178.48 25.1185 179.254 23.7455 179.254C22.3726 179.254 21.5061 178.494 21.5061 177.361C21.5061 176.081 22.5059 175.521 23.7455 175.521ZM33.9811 170.696H28.9824V180H33.9811V179H30.1954V175.801H33.5812V174.801H30.1954V171.695H33.9811V170.696ZM42.1083 172.655C41.9484 171.309 41.0153 170.162 39.1757 170.162C36.7364 170.162 35.7633 172.029 35.7633 175.055C35.7633 177.974 36.4431 180.027 39.2957 180.027C41.4019 180.027 42.4416 178.587 42.4416 176.827C42.4416 174.801 41.2286 173.615 39.429 173.615C38.2826 173.615 37.2296 174.148 36.8163 175.095C36.803 172.229 37.6295 171.176 39.1624 171.176C40.2555 171.176 40.802 171.722 40.9886 172.655H42.1083ZM39.1757 174.641C40.5621 174.641 41.2686 175.508 41.2686 176.867C41.2686 178.174 40.4821 179.014 39.2291 179.014C37.7094 179.014 36.963 178.014 36.963 176.734C36.963 175.295 38.0694 174.641 39.1757 174.641ZM43.6915 170.389V171.429H48.8369L45.0778 180H46.3042L50.0099 171.309V170.389H43.6915Z" fill="#5D6B7E"/>
<path d="M0 194H112V214C112 216.209 110.209 218 108 218H4C1.79086 218 0 216.209 0 214V194Z" fill="#EDEFF1"/>
<path d="M12.3551 202.179C10.1776 202.179 8.41107 203.812 8.41107 206.123C8.41107 208.445 10.1776 210.067 12.3551 210.067C14.4327 210.067 15.9437 208.545 16.177 206.756V205.767H11.9218V206.778H14.8215C14.6327 208.078 13.755 208.922 12.3551 208.922C10.8219 208.922 9.71094 207.822 9.71094 206.123C9.71094 204.423 10.8219 203.334 12.3551 203.334C13.2773 203.334 14.0105 203.723 14.4216 204.501H15.9437C15.3548 202.99 13.9661 202.179 12.3551 202.179ZM21.5257 204.589C21.5257 205.356 21.0813 205.9 20.0925 205.9H18.6927V203.312H20.0925C21.0813 203.312 21.5257 203.812 21.5257 204.589ZM17.4261 202.279V210H18.6927V206.911H19.6593L21.4369 210H22.9478L21.0369 206.8C22.3368 206.478 22.8256 205.5 22.8256 204.589C22.8256 203.334 21.9257 202.279 20.0925 202.279H17.4261ZM28.7121 202.267H24.4458V210H28.7121V208.967H25.7124V206.6H28.3788V205.567H25.7124V203.301H28.7121V202.267ZM34.5383 202.267H30.2721V210H34.5383V208.967H31.5386V206.6H34.205V205.567H31.5386V203.301H34.5383V202.267ZM41.1756 202.267V208.022L37.3649 202.267H36.0983V210H37.3649V204.234L41.1756 210H42.4421V202.267H41.1756ZM44.272 201.879V206.556H45.4719C45.6829 205.956 46.1829 205.545 46.9273 205.545C47.9827 205.545 48.5049 206.145 48.5049 207.2C48.5049 208.2 48.016 208.945 46.9273 208.945C46.0718 208.945 45.4941 208.5 45.3274 207.811H44.0942C44.2831 209.078 45.2497 210 46.9162 210C48.7937 210 49.7159 208.778 49.7159 207.167C49.7159 205.945 49.1048 204.467 47.1161 204.467C46.394 204.467 45.7385 204.801 45.4385 205.2V202.99H49.1604V201.879H44.272ZM51.0343 205.845C51.0343 208.2 51.6565 209.978 53.9229 209.978C56.1894 209.978 56.8115 208.2 56.8115 205.845C56.8115 203.534 56.1894 201.756 53.9229 201.756C51.6565 201.756 51.0343 203.534 51.0343 205.845ZM55.5672 205.845C55.5672 207.434 55.4006 208.822 53.9229 208.822C52.4453 208.822 52.2786 207.434 52.2786 205.845C52.2786 204.334 52.4453 202.912 53.9229 202.912C55.4006 202.912 55.5672 204.334 55.5672 205.845ZM58.1517 205.845C58.1517 208.2 58.7738 209.978 61.0403 209.978C63.3067 209.978 63.9289 208.2 63.9289 205.845C63.9289 203.534 63.3067 201.756 61.0403 201.756C58.7738 201.756 58.1517 203.534 58.1517 205.845ZM62.6845 205.845C62.6845 207.434 62.5179 208.822 61.0403 208.822C59.5626 208.822 59.396 207.434 59.396 205.845C59.396 204.334 59.5626 202.912 61.0403 202.912C62.5179 202.912 62.6845 204.334 62.6845 205.845Z" fill="#9AA3AF"/>
</svg>
