<svg width="112" height="218" viewBox="0 0 112 218" fill="none" xmlns="http://www.w3.org/2000/svg">
<rect y="100" width="112" height="94" fill="#F9FAFA"/>
<path d="M0 4C0 1.79086 1.79086 0 4 0H108C110.209 0 112 1.79086 112 4V100H0V4Z" fill="#1DB181"/>
<path d="M13.9105 109.267V115.022L10.0998 109.267H8.83325V117H10.0998V111.234L13.9105 117H15.1771V109.267H13.9105ZM22.0509 117H23.3841L20.6177 109.267H19.1511L16.3848 117H17.7068L18.2623 115.422H21.4954L22.0509 117ZM21.1398 114.389H18.6179L19.8844 110.801L21.1398 114.389ZM24.5869 117H25.8534V111.712L28.2199 117H29.0975L31.4529 111.712V117H32.7194V109.279H31.364L28.6643 115.333L25.9534 109.279H24.5869V117ZM38.6503 109.267H34.3841V117H38.6503V115.967H35.6506V113.6H38.317V112.567H35.6506V110.301H38.6503V109.267Z" fill="#C2C8CF"/>
<path d="M9.02641 137H10.2394V130.108L13.3187 137H14.1718L17.2377 130.122V137H18.4507V127.776H17.1577L13.7452 135.4L10.3328 127.776H9.02641V137ZM27.4395 133.334C27.4395 131.028 25.8266 129.575 23.7471 129.575C21.681 129.575 20.0547 131.028 20.0547 133.334C20.0547 135.654 21.6276 137.12 23.6938 137.12C25.7733 137.12 27.4395 135.654 27.4395 133.334ZM21.2944 133.334C21.2944 131.495 22.4541 130.628 23.7338 130.628C24.9868 130.628 26.1998 131.495 26.1998 133.334C26.1998 135.187 24.9601 136.054 23.6938 136.054C22.4274 136.054 21.2944 135.187 21.2944 133.334ZM35.5128 129.695H34.2998V133.707C34.2998 135.28 33.46 136.054 32.207 136.054C30.9806 136.054 30.1675 135.294 30.1675 133.814V129.695H28.9678V133.974C28.9678 136.067 30.2874 137.107 31.967 137.107C32.9401 137.107 33.8332 136.68 34.2998 135.92V137H35.5128V129.695ZM42.9063 137H44.106V132.694C44.106 130.602 42.813 129.562 41.1201 129.562C40.1336 129.562 39.2539 129.975 38.774 130.735V129.695H37.5609V137H38.774V132.961C38.774 131.388 39.6271 130.615 40.8668 130.615C42.0931 130.615 42.9063 131.375 42.9063 132.868V137ZM46.3541 135C46.3541 136.467 47.0872 137 48.3802 137H49.4733V135.974H48.5802C47.8337 135.974 47.5671 135.72 47.5671 135V130.695H49.4733V129.695H47.5671V127.856H46.3541V129.695H45.4076V130.695H46.3541V135ZM52.1294 136.254C52.1294 135.787 51.7695 135.427 51.3296 135.427C50.863 135.427 50.5031 135.787 50.5031 136.254C50.5031 136.72 50.863 137.08 51.3296 137.08C51.7695 137.08 52.1294 136.72 52.1294 136.254ZM9.02641 158H10.2394V151.108L13.3187 158H14.1718L17.2377 151.122V158H18.4507V148.776H17.1577L13.7452 156.4L10.3328 148.776H9.02641V158ZM23.6138 151.602C24.8668 151.602 25.9332 152.388 25.9199 153.814H21.3077C21.441 152.388 22.4274 151.602 23.6138 151.602ZM27.0263 155.747H25.7199C25.4533 156.534 24.7602 157.094 23.6671 157.094C22.4274 157.094 21.3877 156.28 21.2944 154.801H27.1329C27.1596 154.548 27.1729 154.334 27.1729 154.068C27.1729 152.068 25.7866 150.575 23.6671 150.575C21.5343 150.575 20.0547 152.028 20.0547 154.334C20.0547 156.654 21.5876 158.12 23.6671 158.12C25.48 158.12 26.653 157.08 27.0263 155.747ZM28.3209 154.321C28.3209 156.587 29.8271 158.12 31.7733 158.12C33.1197 158.12 34.0661 157.427 34.506 156.64V158H35.7323V150.695H34.506V152.028C34.0794 151.268 33.1463 150.575 31.7867 150.575C29.8271 150.575 28.3209 152.041 28.3209 154.321ZM34.506 154.334C34.506 156.054 33.3596 157.054 32.0266 157.054C30.6936 157.054 29.5605 156.04 29.5605 154.321C29.5605 152.601 30.6936 151.628 32.0266 151.628C33.3596 151.628 34.506 152.641 34.506 154.334ZM37.329 154.321C37.329 156.587 38.8353 158.12 40.7948 158.12C42.1278 158.12 43.0742 157.44 43.5141 156.627V158H44.7405V148.136H43.5141V152.001C43.0076 151.162 41.9545 150.575 40.8081 150.575C38.8353 150.575 37.329 152.041 37.329 154.321ZM43.5141 154.334C43.5141 156.054 42.3678 157.054 41.0348 157.054C39.7018 157.054 38.5687 156.04 38.5687 154.321C38.5687 152.601 39.7018 151.628 41.0348 151.628C42.3678 151.628 43.5141 152.641 43.5141 154.334ZM53.722 154.334C53.722 152.028 52.1091 150.575 50.0296 150.575C47.9634 150.575 46.3372 152.028 46.3372 154.334C46.3372 156.654 47.9101 158.12 49.9763 158.12C52.0558 158.12 53.722 156.654 53.722 154.334ZM47.5769 154.334C47.5769 152.495 48.7366 151.628 50.0163 151.628C51.2693 151.628 52.4823 152.495 52.4823 154.334C52.4823 156.187 51.2426 157.054 49.9763 157.054C48.7099 157.054 47.5769 156.187 47.5769 154.334ZM56.7432 158H57.9962L59.7558 152.201L61.5154 158H62.7684L65.0478 150.695H63.8481L62.1952 156.84L60.4223 150.695H59.1826L57.3697 156.827L55.6902 150.695H54.4505L56.7432 158Z" fill="#5D6B7E"/>
<path d="M13.7328 160H14.9993V152.279H13.7328V155.589H10.0998V152.279H8.83325V160H10.0998V156.623H13.7328V160ZM20.9329 152.267H16.6667V160H20.9329V158.967H17.9332V156.6H20.5996V155.567H17.9332V153.301H20.9329V152.267ZM27.0147 160H28.4368L26.037 156.145L28.4479 152.279H27.0369L25.3926 155.1L23.6372 152.279H22.2152L24.626 156.145L22.2263 160H23.6372L25.2704 157.2L27.0147 160Z" fill="#C2C8CF"/>
<path d="M9.78622 180H11.0126V170.362H8.50654V171.469H9.78622V180ZM16.1888 170.709H13.2962V180H16.1888C19.2414 180 21.1209 178.254 21.1209 175.374C21.1209 172.495 19.2414 170.709 16.1888 170.709ZM14.5092 179V171.695H16.1888C18.6148 171.695 19.8812 173.108 19.8812 175.374C19.8812 177.641 18.6148 179 16.1888 179H14.5092ZM27.9996 177.387C27.9996 178.4 27.2798 179 26.0801 179H23.9339V175.721H26.0401C27.2264 175.721 27.9996 176.361 27.9996 177.387ZM27.7596 173.215C27.7596 174.161 27.1065 174.721 25.9734 174.721H23.9339V171.709H25.9468C27.1331 171.709 27.7596 172.295 27.7596 173.215ZM29.2126 177.507C29.2126 176.361 28.3862 175.388 27.3731 175.215C28.2662 174.921 28.9993 174.241 28.9993 173.068C28.9993 171.775 28.0129 170.709 26.0534 170.709H22.7209V180H26.1867C28.1062 180 29.2126 178.907 29.2126 177.507ZM31.6558 180H32.8821V170.362H30.3761V171.469H31.6558V180ZM36.7253 174.988C35.6456 175.308 34.9391 176.188 34.9391 177.401C34.9391 179.147 36.3121 180.267 38.3382 180.267C40.3777 180.267 41.7641 179.147 41.7641 177.401C41.7641 176.201 41.0576 175.321 39.9645 174.988C40.9109 174.615 41.5108 173.815 41.5108 172.775C41.5108 171.375 40.4311 170.216 38.3382 170.216C36.2454 170.216 35.179 171.362 35.179 172.775C35.179 173.855 35.7389 174.601 36.7253 174.988ZM38.3382 174.588C37.1652 174.588 36.3521 173.935 36.3521 172.935C36.3521 171.802 37.1519 171.229 38.3382 171.229C39.5513 171.229 40.3377 171.815 40.3377 172.922C40.3377 173.922 39.5246 174.588 38.3382 174.588ZM38.3382 175.521C39.6046 175.521 40.5644 176.121 40.5644 177.361C40.5644 178.48 39.7112 179.254 38.3382 179.254C36.9653 179.254 36.0988 178.494 36.0988 177.361C36.0988 176.081 37.0986 175.521 38.3382 175.521ZM44.3349 180H45.5612V170.362H43.0552V171.469H44.3349V180Z" fill="#5D6B7E"/>
<path d="M0 194H112V214C112 216.209 110.209 218 108 218H4C1.79086 218 0 216.209 0 214V194Z" fill="#EDEFF1"/>
<path d="M12.3551 202.179C10.1776 202.179 8.41107 203.812 8.41107 206.123C8.41107 208.445 10.1776 210.067 12.3551 210.067C14.4327 210.067 15.9437 208.545 16.177 206.756V205.767H11.9218V206.778H14.8215C14.6327 208.078 13.755 208.922 12.3551 208.922C10.8219 208.922 9.71094 207.822 9.71094 206.123C9.71094 204.423 10.8219 203.334 12.3551 203.334C13.2773 203.334 14.0105 203.723 14.4216 204.501H15.9437C15.3548 202.99 13.9661 202.179 12.3551 202.179ZM21.5257 204.589C21.5257 205.356 21.0813 205.9 20.0925 205.9H18.6927V203.312H20.0925C21.0813 203.312 21.5257 203.812 21.5257 204.589ZM17.4261 202.279V210H18.6927V206.911H19.6593L21.4369 210H22.9478L21.0369 206.8C22.3368 206.478 22.8256 205.5 22.8256 204.589C22.8256 203.334 21.9257 202.279 20.0925 202.279H17.4261ZM28.7121 202.267H24.4458V210H28.7121V208.967H25.7124V206.6H28.3788V205.567H25.7124V203.301H28.7121V202.267ZM34.5383 202.267H30.2721V210H34.5383V208.967H31.5386V206.6H34.205V205.567H31.5386V203.301H34.5383V202.267ZM41.1756 202.267V208.022L37.3649 202.267H36.0983V210H37.3649V204.234L41.1756 210H42.4421V202.267H41.1756ZM47.805 210H49.0493V208.311H50.0825V207.211H49.0493V202.001H47.5161L43.7831 207.356V208.311H47.805V210ZM45.2385 207.211L47.8605 203.29V207.211H45.2385ZM51.132 205.845C51.132 208.2 51.7541 209.978 54.0206 209.978C56.287 209.978 56.9092 208.2 56.9092 205.845C56.9092 203.534 56.287 201.756 54.0206 201.756C51.7541 201.756 51.132 203.534 51.132 205.845ZM55.6649 205.845C55.6649 207.434 55.4982 208.822 54.0206 208.822C52.5429 208.822 52.3763 207.434 52.3763 205.845C52.3763 204.334 52.5429 202.912 54.0206 202.912C55.4982 202.912 55.6649 204.334 55.6649 205.845ZM58.2493 205.845C58.2493 208.2 58.8715 209.978 61.1379 209.978C63.4044 209.978 64.0265 208.2 64.0265 205.845C64.0265 203.534 63.4044 201.756 61.1379 201.756C58.8715 201.756 58.2493 203.534 58.2493 205.845ZM62.7822 205.845C62.7822 207.434 62.6155 208.822 61.1379 208.822C59.6603 208.822 59.4936 207.434 59.4936 205.845C59.4936 204.334 59.6603 202.912 61.1379 202.912C62.6155 202.912 62.7822 204.334 62.7822 205.845Z" fill="#9AA3AF"/>
</svg>
