<svg width="112" height="218" viewBox="0 0 112 218" fill="none" xmlns="http://www.w3.org/2000/svg">
<rect y="100" width="112" height="94" fill="#F9FAFA"/>
<path d="M0 4C0 1.79086 1.79086 0 4 0H108C110.209 0 112 1.79086 112 4V100H0V4Z" fill="#A5E0CD"/>
<path d="M13.9105 109.267V115.022L10.0998 109.267H8.83325V117H10.0998V111.234L13.9105 117H15.1771V109.267H13.9105ZM22.0509 117H23.3841L20.6177 109.267H19.1511L16.3848 117H17.7068L18.2623 115.422H21.4954L22.0509 117ZM21.1398 114.389H18.6179L19.8844 110.801L21.1398 114.389ZM24.5869 117H25.8534V111.712L28.2199 117H29.0975L31.4529 111.712V117H32.7194V109.279H31.364L28.6643 115.333L25.9534 109.279H24.5869V117ZM38.6503 109.267H34.3841V117H38.6503V115.967H35.6506V113.6H38.317V112.567H35.6506V110.301H38.6503V109.267Z" fill="#C2C8CF"/>
<path d="M10.2394 132.121V128.709H12.0257C13.412 128.709 13.9985 129.349 13.9985 130.428C13.9985 131.468 13.412 132.121 12.0257 132.121H10.2394ZM15.2382 130.428C15.2382 128.909 14.2118 127.709 12.0257 127.709H9.02641V137H10.2394V133.121H12.0257C14.3318 133.121 15.2382 131.841 15.2382 130.428ZM16.2926 133.321C16.2926 135.587 17.7989 137.12 19.7451 137.12C21.0914 137.12 22.0378 136.427 22.4777 135.64V137H23.7041V129.695H22.4777V131.028C22.0512 130.268 21.1181 129.575 19.7584 129.575C17.7989 129.575 16.2926 131.041 16.2926 133.321ZM22.4777 133.334C22.4777 135.054 21.3314 136.054 19.9984 136.054C18.6654 136.054 17.5323 135.04 17.5323 133.321C17.5323 131.601 18.6654 130.628 19.9984 130.628C21.3314 130.628 22.4777 131.641 22.4777 133.334ZM25.754 137H26.967V127.136H25.754V137ZM32.1403 130.602C33.3933 130.602 34.4597 131.388 34.4464 132.814H29.8342C29.9675 131.388 30.9539 130.602 32.1403 130.602ZM35.5528 134.747H34.2465C33.9799 135.534 33.2867 136.094 32.1936 136.094C30.9539 136.094 29.9142 135.28 29.8209 133.801H35.6594C35.6861 133.548 35.6994 133.334 35.6994 133.068C35.6994 131.068 34.3131 129.575 32.1936 129.575C30.0608 129.575 28.5812 131.028 28.5812 133.334C28.5812 135.654 30.1142 137.12 32.1936 137.12C34.0065 137.12 35.1796 136.08 35.5528 134.747ZM45.8265 130.442C45.8265 131.481 45.2266 132.228 43.8536 132.228H42.0674V128.709H43.8536C45.24 128.709 45.8265 129.389 45.8265 130.442ZM40.8544 127.709V137H42.0674V133.201H43.5337L45.7465 137H47.1995L44.8667 133.108C46.4263 132.761 47.0795 131.628 47.0795 130.442C47.0795 128.922 46.0398 127.709 43.8536 127.709H40.8544ZM55.8959 133.334C55.8959 131.028 54.283 129.575 52.2035 129.575C50.1374 129.575 48.5111 131.028 48.5111 133.334C48.5111 135.654 50.0841 137.12 52.1502 137.12C54.2297 137.12 55.8959 135.654 55.8959 133.334ZM49.7508 133.334C49.7508 131.495 50.9105 130.628 52.1902 130.628C53.4432 130.628 54.6563 131.495 54.6563 133.334C54.6563 135.187 53.4166 136.054 52.1502 136.054C50.8839 136.054 49.7508 135.187 49.7508 133.334ZM58.7039 131.055V127.136H57.4909V137H58.7039V135.654C59.1571 136.453 60.1035 137.12 61.4365 137.12C63.396 137.12 64.9023 135.587 64.9023 133.321C64.9023 131.041 63.4094 129.575 61.4365 129.575C60.1435 129.575 59.1704 130.242 58.7039 131.055ZM63.6626 133.321C63.6626 135.04 62.5296 136.054 61.1833 136.054C59.8636 136.054 58.7039 135.054 58.7039 133.334C58.7039 131.641 59.8636 130.628 61.1833 130.628C62.5296 130.628 63.6626 131.601 63.6626 133.321ZM66.499 137H67.712V129.695H66.499V137ZM67.1255 128.509C67.5654 128.509 67.9253 128.149 67.9253 127.682C67.9253 127.216 67.5654 126.856 67.1255 126.856C66.659 126.856 66.2991 127.216 66.2991 127.682C66.2991 128.149 66.659 128.509 67.1255 128.509ZM75.1248 137H76.3245V132.694C76.3245 130.602 75.0315 129.562 73.3386 129.562C72.3521 129.562 71.4724 129.975 70.9925 130.735V129.695H69.7794V137H70.9925V132.961C70.9925 131.388 71.8456 130.615 73.0853 130.615C74.3116 130.615 75.1248 131.375 75.1248 132.868V137Z" fill="#5D6B7E"/>
<path d="M13.7328 160H14.9993V152.279H13.7328V155.589H10.0998V152.279H8.83325V160H10.0998V156.623H13.7328V160ZM20.9329 152.267H16.6667V160H20.9329V158.967H17.9332V156.6H20.5996V155.567H17.9332V153.301H20.9329V152.267ZM27.0147 160H28.4368L26.037 156.145L28.4479 152.279H27.0369L25.3926 155.1L23.6372 152.279H22.2152L24.626 156.145L22.2263 160H23.6372L25.2704 157.2L27.0147 160Z" fill="#C2C8CF"/>
<path d="M15.2649 180H16.5445L13.1987 170.762H11.7991L8.43989 180H9.71957L10.4661 177.934H14.5184L15.2649 180ZM14.1718 176.947H10.8126L12.4922 172.255L14.1718 176.947ZM18.1552 170.349V175.788H19.3015C19.6215 175.028 20.328 174.521 21.301 174.521C22.7007 174.521 23.4072 175.321 23.4072 176.694C23.4072 178.014 22.754 179 21.2877 179C20.1547 179 19.3682 178.4 19.1416 177.387H17.9552C18.1952 178.947 19.3549 180.027 21.2744 180.027C23.5272 180.027 24.5669 178.534 24.5669 176.668C24.5669 175.175 23.8204 173.482 21.4743 173.482C20.5279 173.482 19.6748 173.908 19.2749 174.455V171.415H23.9537V170.349H18.1552ZM31.3776 170.696H26.3788V180H31.3776V179H27.5919V175.801H30.9777V174.801H27.5919V171.695H31.3776V170.696ZM33.0131 175.081C33.0131 177.881 33.7063 180 36.3723 180C39.025 180 39.7181 177.881 39.7181 175.081C39.7181 172.322 39.025 170.216 36.3723 170.216C33.7063 170.216 33.0131 172.322 33.0131 175.081ZM38.5184 175.081C38.5184 177.161 38.2651 178.894 36.3723 178.894C34.4661 178.894 34.2128 177.161 34.2128 175.081C34.2128 173.082 34.4661 171.322 36.3723 171.322C38.2651 171.322 38.5184 173.082 38.5184 175.081ZM41.1302 175.348C41.1302 178.134 43.1696 180.08 45.769 180.08C47.7818 180.08 49.3814 179.08 50.0746 177.294H48.6216C48.1151 178.4 47.1287 179.027 45.769 179.027C43.8228 179.027 42.3698 177.614 42.3698 175.348C42.3698 173.068 43.8228 171.655 45.769 171.655C47.1287 171.655 48.1151 172.282 48.6216 173.402H50.0746C49.3814 171.602 47.7818 170.589 45.769 170.589C43.1696 170.589 41.1302 172.562 41.1302 175.348ZM54.7729 170.709H51.8803V180H54.7729C57.8255 180 59.705 178.254 59.705 175.374C59.705 172.495 57.8255 170.709 54.7729 170.709ZM53.0933 179V171.695H54.7729C57.1989 171.695 58.4653 173.108 58.4653 175.374C58.4653 177.641 57.1989 179 54.7729 179H53.0933Z" fill="#5D6B7E"/>
<path d="M0 194H112V214C112 216.209 110.209 218 108 218H4C1.79086 218 0 216.209 0 214V194Z" fill="#EDEFF1"/>
<path d="M12.3551 202.179C10.1776 202.179 8.41107 203.812 8.41107 206.123C8.41107 208.445 10.1776 210.067 12.3551 210.067C14.4327 210.067 15.9437 208.545 16.177 206.756V205.767H11.9218V206.778H14.8215C14.6327 208.078 13.755 208.922 12.3551 208.922C10.8219 208.922 9.71094 207.822 9.71094 206.123C9.71094 204.423 10.8219 203.334 12.3551 203.334C13.2773 203.334 14.0105 203.723 14.4216 204.501H15.9437C15.3548 202.99 13.9661 202.179 12.3551 202.179ZM21.5257 204.589C21.5257 205.356 21.0813 205.9 20.0925 205.9H18.6927V203.312H20.0925C21.0813 203.312 21.5257 203.812 21.5257 204.589ZM17.4261 202.279V210H18.6927V206.911H19.6593L21.4369 210H22.9478L21.0369 206.8C22.3368 206.478 22.8256 205.5 22.8256 204.589C22.8256 203.334 21.9257 202.279 20.0925 202.279H17.4261ZM28.7121 202.267H24.4458V210H28.7121V208.967H25.7124V206.6H28.3788V205.567H25.7124V203.301H28.7121V202.267ZM34.5383 202.267H30.2721V210H34.5383V208.967H31.5386V206.6H34.205V205.567H31.5386V203.301H34.5383V202.267ZM41.1756 202.267V208.022L37.3649 202.267H36.0983V210H37.3649V204.234L41.1756 210H42.4421V202.267H41.1756ZM44.8053 210H46.0829V201.901H43.772V203.056H44.8053V210ZM47.8228 205.845C47.8228 208.2 48.445 209.978 50.7114 209.978C52.9779 209.978 53.6 208.2 53.6 205.845C53.6 203.534 52.9779 201.756 50.7114 201.756C48.445 201.756 47.8228 203.534 47.8228 205.845ZM52.3557 205.845C52.3557 207.434 52.1891 208.822 50.7114 208.822C49.2338 208.822 49.0672 207.434 49.0672 205.845C49.0672 204.334 49.2338 202.912 50.7114 202.912C52.1891 202.912 52.3557 204.334 52.3557 205.845ZM54.9402 205.845C54.9402 208.2 55.5623 209.978 57.8288 209.978C60.0952 209.978 60.7174 208.2 60.7174 205.845C60.7174 203.534 60.0952 201.756 57.8288 201.756C55.5623 201.756 54.9402 203.534 54.9402 205.845ZM59.4731 205.845C59.4731 207.434 59.3064 208.822 57.8288 208.822C56.3512 208.822 56.1845 207.434 56.1845 205.845C56.1845 204.334 56.3512 202.912 57.8288 202.912C59.3064 202.912 59.4731 204.334 59.4731 205.845Z" fill="#9AA3AF"/>
</svg>
