<svg width="112" height="218" viewBox="0 0 112 218" fill="none" xmlns="http://www.w3.org/2000/svg">
<rect y="100" width="112" height="94" fill="#F9FAFA"/>
<path d="M0 4C0 1.79086 1.79086 0 4 0H108C110.209 0 112 1.79086 112 4V100H0V4Z" fill="#116A4D"/>
<path d="M13.9105 109.267V115.022L10.0998 109.267H8.83325V117H10.0998V111.234L13.9105 117H15.1771V109.267H13.9105ZM22.0509 117H23.3841L20.6177 109.267H19.1511L16.3848 117H17.7068L18.2623 115.422H21.4954L22.0509 117ZM21.1398 114.389H18.6179L19.8844 110.801L21.1398 114.389ZM24.5869 117H25.8534V111.712L28.2199 117H29.0975L31.4529 111.712V117H32.7194V109.279H31.364L28.6643 115.333L25.9534 109.279H24.5869V117ZM38.6503 109.267H34.3841V117H38.6503V115.967H35.6506V113.6H38.317V112.567H35.6506V110.301H38.6503V109.267Z" fill="#C2C8CF"/>
<path d="M12.4789 134.574C12.4789 135.347 12.0923 136.014 11.1326 136.014C10.1728 136.014 9.77289 135.334 9.75956 134.481H8.54653C8.54653 136.107 9.58627 137.093 11.1326 137.093C12.6655 137.093 13.7052 136.12 13.7052 134.574V127.709H12.4789V134.574ZM19.2008 130.602C20.4539 130.602 21.5203 131.388 21.5069 132.814H16.8948C17.0281 131.388 18.0145 130.602 19.2008 130.602ZM22.6133 134.747H21.307C21.0404 135.534 20.3472 136.094 19.2542 136.094C18.0145 136.094 16.9747 135.28 16.8814 133.801H22.72C22.7466 133.548 22.76 133.334 22.76 133.068C22.76 131.068 21.3736 129.575 19.2542 129.575C17.1214 129.575 15.6417 131.028 15.6417 133.334C15.6417 135.654 17.1747 137.12 19.2542 137.12C21.067 137.12 22.2401 136.08 22.6133 134.747ZM25.7874 137H27.0404L28.8 131.201L30.5596 137H31.8126L34.092 129.695H32.8923L31.2394 135.84L29.4665 129.695H28.2268L26.4139 135.827L24.7344 129.695H23.4947L25.7874 137ZM38.4018 130.602C39.6548 130.602 40.7212 131.388 40.7079 132.814H36.0957C36.229 131.388 37.2154 130.602 38.4018 130.602ZM41.8143 134.747H40.5079C40.2413 135.534 39.5482 136.094 38.4551 136.094C37.2154 136.094 36.1757 135.28 36.0824 133.801H41.9209C41.9476 133.548 41.9609 133.334 41.9609 133.068C41.9609 131.068 40.5746 129.575 38.4551 129.575C36.3223 129.575 34.8427 131.028 34.8427 133.334C34.8427 135.654 36.3756 137.12 38.4551 137.12C40.268 137.12 41.441 136.08 41.8143 134.747ZM43.562 137H44.7751V127.136H43.562V137Z" fill="#5D6B7E"/>
<path d="M13.7328 160H14.9993V152.279H13.7328V155.589H10.0998V152.279H8.83325V160H10.0998V156.623H13.7328V160ZM20.9329 152.267H16.6667V160H20.9329V158.967H17.9332V156.6H20.5996V155.567H17.9332V153.301H20.9329V152.267ZM27.0147 160H28.4368L26.037 156.145L28.4479 152.279H27.0369L25.3926 155.1L23.6372 152.279H22.2152L24.626 156.145L22.2263 160H23.6372L25.2704 157.2L27.0147 160Z" fill="#C2C8CF"/>
<path d="M9.78622 180H11.0126V170.362H8.50654V171.469H9.78622V180ZM14.056 180H15.2823V170.362H12.7763V171.469H14.056V180ZM23.8577 172.655C23.6977 171.309 22.7646 170.162 20.9251 170.162C18.4857 170.162 17.5126 172.029 17.5126 175.055C17.5126 177.974 18.1925 180.027 21.0451 180.027C23.1512 180.027 24.191 178.587 24.191 176.827C24.191 174.801 22.9779 173.615 21.1784 173.615C20.032 173.615 18.9789 174.148 18.5657 175.095C18.5524 172.229 19.3788 171.176 20.9118 171.176C22.0048 171.176 22.5514 171.722 22.738 172.655H23.8577ZM20.9251 174.641C22.3114 174.641 23.0179 175.508 23.0179 176.867C23.0179 178.174 22.2314 179.014 20.9784 179.014C19.4588 179.014 18.7123 178.014 18.7123 176.734C18.7123 175.295 19.8187 174.641 20.9251 174.641ZM32.2658 180H33.5455L30.1997 170.762H28.8L25.4408 180H26.7205L27.467 177.934H31.5193L32.2658 180ZM31.1727 176.947H27.8136L29.4932 172.255L31.1727 176.947ZM39.4484 180H40.6481V177.854H41.9811V176.801H40.6481V170.456H39.1951L34.5163 176.934V177.854H39.4484V180ZM35.9159 176.801L39.5017 171.722V176.801H35.9159ZM46.2854 170.709H43.3928V180H46.2854C49.338 180 51.2175 178.254 51.2175 175.374C51.2175 172.495 49.338 170.709 46.2854 170.709ZM44.6058 179V171.695H46.2854C48.7115 171.695 49.9778 173.108 49.9778 175.374C49.9778 177.641 48.7115 179 46.2854 179H44.6058Z" fill="#5D6B7E"/>
<path d="M0 194H112V214C112 216.209 110.209 218 108 218H4C1.79086 218 0 216.209 0 214V194Z" fill="#EDEFF1"/>
<path d="M12.3551 202.179C10.1776 202.179 8.41107 203.812 8.41107 206.123C8.41107 208.445 10.1776 210.067 12.3551 210.067C14.4327 210.067 15.9437 208.545 16.177 206.756V205.767H11.9218V206.778H14.8215C14.6327 208.078 13.755 208.922 12.3551 208.922C10.8219 208.922 9.71094 207.822 9.71094 206.123C9.71094 204.423 10.8219 203.334 12.3551 203.334C13.2773 203.334 14.0105 203.723 14.4216 204.501H15.9437C15.3548 202.99 13.9661 202.179 12.3551 202.179ZM21.5257 204.589C21.5257 205.356 21.0813 205.9 20.0925 205.9H18.6927V203.312H20.0925C21.0813 203.312 21.5257 203.812 21.5257 204.589ZM17.4261 202.279V210H18.6927V206.911H19.6593L21.4369 210H22.9478L21.0369 206.8C22.3368 206.478 22.8256 205.5 22.8256 204.589C22.8256 203.334 21.9257 202.279 20.0925 202.279H17.4261ZM28.7121 202.267H24.4458V210H28.7121V208.967H25.7124V206.6H28.3788V205.567H25.7124V203.301H28.7121V202.267ZM34.5383 202.267H30.2721V210H34.5383V208.967H31.5386V206.6H34.205V205.567H31.5386V203.301H34.5383V202.267ZM41.1756 202.267V208.022L37.3649 202.267H36.0983V210H37.3649V204.234L41.1756 210H42.4421V202.267H41.1756ZM49.4603 203.778C49.327 202.701 48.5382 201.701 46.9606 201.701C44.9386 201.701 44.0942 203.234 44.0942 205.767C44.0942 208.345 44.7053 210 47.0606 210C48.7937 210 49.7159 208.833 49.7159 207.3C49.7159 205.612 48.6826 204.634 47.2272 204.634C46.3829 204.634 45.583 204.989 45.183 205.656C45.2163 203.534 45.8052 202.756 46.9495 202.756C47.7494 202.756 48.1383 203.123 48.2938 203.778H49.4603ZM46.9495 205.7C48.016 205.7 48.5049 206.389 48.5049 207.356C48.5049 208.311 47.9272 208.945 46.9939 208.945C45.9163 208.945 45.3274 208.278 45.3274 207.278C45.3274 206.2 46.1162 205.7 46.9495 205.7ZM51.0669 205.845C51.0669 208.2 51.689 209.978 53.9555 209.978C56.2219 209.978 56.8441 208.2 56.8441 205.845C56.8441 203.534 56.2219 201.756 53.9555 201.756C51.689 201.756 51.0669 203.534 51.0669 205.845ZM55.5998 205.845C55.5998 207.434 55.4331 208.822 53.9555 208.822C52.4778 208.822 52.3112 207.434 52.3112 205.845C52.3112 204.334 52.4778 202.912 53.9555 202.912C55.4331 202.912 55.5998 204.334 55.5998 205.845ZM58.1842 205.845C58.1842 208.2 58.8064 209.978 61.0728 209.978C63.3393 209.978 63.9614 208.2 63.9614 205.845C63.9614 203.534 63.3393 201.756 61.0728 201.756C58.8064 201.756 58.1842 203.534 58.1842 205.845ZM62.7171 205.845C62.7171 207.434 62.5504 208.822 61.0728 208.822C59.5952 208.822 59.4285 207.434 59.4285 205.845C59.4285 204.334 59.5952 202.912 61.0728 202.912C62.5504 202.912 62.7171 204.334 62.7171 205.845Z" fill="#9AA3AF"/>
</svg>
