<svg width="112" height="218" viewBox="0 0 112 218" fill="none" xmlns="http://www.w3.org/2000/svg">
<rect y="100" width="112" height="94" fill="#F9FAFA"/>
<path d="M0 4C0 1.79086 1.79086 0 4 0H108C110.209 0 112 1.79086 112 4V100H0V4Z" fill="#77D0B3"/>
<path d="M13.9105 109.267V115.022L10.0998 109.267H8.83325V117H10.0998V111.234L13.9105 117H15.1771V109.267H13.9105ZM22.0509 117H23.3841L20.6177 109.267H19.1511L16.3848 117H17.7068L18.2623 115.422H21.4954L22.0509 117ZM21.1398 114.389H18.6179L19.8844 110.801L21.1398 114.389ZM24.5869 117H25.8534V111.712L28.2199 117H29.0975L31.4529 111.712V117H32.7194V109.279H31.364L28.6643 115.333L25.9534 109.279H24.5869V117ZM38.6503 109.267H34.3841V117H38.6503V115.967H35.6506V113.6H38.317V112.567H35.6506V110.301H38.6503V109.267Z" fill="#C2C8CF"/>
<path d="M11.919 127.709H9.02641V137H11.919C14.9716 137 16.8511 135.254 16.8511 132.374C16.8511 129.495 14.9716 127.709 11.919 127.709ZM10.2394 136V128.695H11.919C14.3451 128.695 15.6114 130.108 15.6114 132.374C15.6114 134.641 14.3451 136 11.919 136H10.2394ZM25.3827 133.334C25.3827 131.028 23.7698 129.575 21.6903 129.575C19.6242 129.575 17.9979 131.028 17.9979 133.334C17.9979 135.654 19.5709 137.12 21.637 137.12C23.7165 137.12 25.3827 135.654 25.3827 133.334ZM19.2376 133.334C19.2376 131.495 20.3973 130.628 21.677 130.628C22.93 130.628 24.143 131.495 24.143 133.334C24.143 135.187 22.9034 136.054 21.637 136.054C20.3707 136.054 19.2376 135.187 19.2376 133.334ZM28.404 137H29.657L31.4165 131.201L33.1761 137H34.4291L36.7086 129.695H35.5089L33.8559 135.84L32.083 129.695H30.8434L29.0305 135.827L27.3509 129.695H26.1112L28.404 137ZM43.2577 137H44.4574V132.694C44.4574 130.602 43.1644 129.562 41.4715 129.562C40.4851 129.562 39.6053 129.975 39.1254 130.735V129.695H37.9124V137H39.1254V132.961C39.1254 131.388 39.9786 130.615 41.2183 130.615C42.4446 130.615 43.2577 131.375 43.2577 132.868V137ZM49.2116 135.614L46.9188 129.695H45.5725L48.5184 136.92L47.0788 140.439H48.3318L52.7307 129.695H51.4777L49.2116 135.614Z" fill="#5D6B7E"/>
<path d="M13.7328 160H14.9993V152.279H13.7328V155.589H10.0998V152.279H8.83325V160H10.0998V156.623H13.7328V160ZM20.9329 152.267H16.6667V160H20.9329V158.967H17.9332V156.6H20.5996V155.567H17.9332V153.301H20.9329V152.267ZM27.0147 160H28.4368L26.037 156.145L28.4479 152.279H27.0369L25.3926 155.1L23.6372 152.279H22.2152L24.626 156.145L22.2263 160H23.6372L25.2704 157.2L27.0147 160Z" fill="#C2C8CF"/>
<path d="M8.43989 170.389V171.429H13.5853L9.82621 180H11.0526L14.7583 171.309V170.389H8.43989ZM15.7167 170.389V171.429H20.8621L17.103 180H18.3294L22.0351 171.309V170.389H15.7167ZM26.4727 170.709H23.5801V180H26.4727C29.5252 180 31.4048 178.254 31.4048 175.374C31.4048 172.495 29.5252 170.709 26.4727 170.709ZM24.7931 179V171.695H26.4727C28.8987 171.695 30.1651 173.108 30.1651 175.374C30.1651 177.641 28.8987 179 26.4727 179H24.7931ZM32.8048 175.081C32.8048 177.881 33.498 180 36.164 180C38.8167 180 39.5098 177.881 39.5098 175.081C39.5098 172.322 38.8167 170.216 36.164 170.216C33.498 170.216 32.8048 172.322 32.8048 175.081ZM38.3101 175.081C38.3101 177.161 38.0569 178.894 36.164 178.894C34.2578 178.894 34.0045 177.161 34.0045 175.081C34.0045 173.082 34.2578 171.322 36.164 171.322C38.0569 171.322 38.3101 173.082 38.3101 175.081ZM46.6538 177.387C46.6538 178.4 45.934 179 44.7343 179H42.5881V175.721H44.6943C45.8806 175.721 46.6538 176.361 46.6538 177.387ZM46.4138 173.215C46.4138 174.161 45.7607 174.721 44.6276 174.721H42.5881V171.709H44.601C45.7873 171.709 46.4138 172.295 46.4138 173.215ZM47.8668 177.507C47.8668 176.361 47.0403 175.388 46.0273 175.215C46.9204 174.921 47.6535 174.241 47.6535 173.068C47.6535 171.775 46.6671 170.709 44.7076 170.709H41.3751V180H44.8409C46.7604 180 47.8668 178.907 47.8668 177.507ZM49.3235 172.788H50.5099C50.6299 171.855 51.3097 171.216 52.4427 171.216C53.6024 171.216 54.2156 171.855 54.2156 172.775C54.2156 173.895 53.3492 174.388 51.7362 174.401H51.4163V175.414H51.7229C53.4558 175.414 54.4022 175.934 54.4022 177.294C54.4022 178.28 53.7891 179.04 52.4961 179.04C51.2164 179.04 50.4699 178.254 50.3499 177.227H49.1769C49.3235 179.094 50.6832 180.067 52.5094 180.067C54.5222 180.067 55.562 178.894 55.562 177.401C55.562 176.014 54.8021 175.188 53.6824 174.921V174.855C54.6955 174.628 55.3887 173.762 55.3887 172.655C55.3887 171.269 54.3623 170.176 52.4827 170.176C50.6965 170.176 49.4435 171.136 49.3235 172.788Z" fill="#5D6B7E"/>
<path d="M0 194H112V214C112 216.209 110.209 218 108 218H4C1.79086 218 0 216.209 0 214V194Z" fill="#EDEFF1"/>
<path d="M12.3551 202.179C10.1776 202.179 8.41107 203.812 8.41107 206.123C8.41107 208.445 10.1776 210.067 12.3551 210.067C14.4327 210.067 15.9437 208.545 16.177 206.756V205.767H11.9218V206.778H14.8215C14.6327 208.078 13.755 208.922 12.3551 208.922C10.8219 208.922 9.71094 207.822 9.71094 206.123C9.71094 204.423 10.8219 203.334 12.3551 203.334C13.2773 203.334 14.0105 203.723 14.4216 204.501H15.9437C15.3548 202.99 13.9661 202.179 12.3551 202.179ZM21.5257 204.589C21.5257 205.356 21.0813 205.9 20.0925 205.9H18.6927V203.312H20.0925C21.0813 203.312 21.5257 203.812 21.5257 204.589ZM17.4261 202.279V210H18.6927V206.911H19.6593L21.4369 210H22.9478L21.0369 206.8C22.3368 206.478 22.8256 205.5 22.8256 204.589C22.8256 203.334 21.9257 202.279 20.0925 202.279H17.4261ZM28.7121 202.267H24.4458V210H28.7121V208.967H25.7124V206.6H28.3788V205.567H25.7124V203.301H28.7121V202.267ZM34.5383 202.267H30.2721V210H34.5383V208.967H31.5386V206.6H34.205V205.567H31.5386V203.301H34.5383V202.267ZM41.1756 202.267V208.022L37.3649 202.267H36.0983V210H37.3649V204.234L41.1756 210H42.4421V202.267H41.1756ZM43.8387 209.889H49.2381V208.833H45.7163C47.0161 207.645 49.0159 206.145 49.0159 204.178C49.0159 202.723 48.0827 201.734 46.4384 201.734C45.0052 201.734 43.872 202.59 43.8276 204.345H45.0497C45.083 203.434 45.5607 202.812 46.4495 202.812C47.3939 202.812 47.7605 203.39 47.7605 204.234C47.7605 205.823 45.7496 207.289 43.8387 208.967V209.889ZM50.3508 205.845C50.3508 208.2 50.973 209.978 53.2394 209.978C55.5058 209.978 56.128 208.2 56.128 205.845C56.128 203.534 55.5058 201.756 53.2394 201.756C50.973 201.756 50.3508 203.534 50.3508 205.845ZM54.8837 205.845C54.8837 207.434 54.717 208.822 53.2394 208.822C51.7618 208.822 51.5951 207.434 51.5951 205.845C51.5951 204.334 51.7618 202.912 53.2394 202.912C54.717 202.912 54.8837 204.334 54.8837 205.845ZM57.4681 205.845C57.4681 208.2 58.0903 209.978 60.3567 209.978C62.6232 209.978 63.2453 208.2 63.2453 205.845C63.2453 203.534 62.6232 201.756 60.3567 201.756C58.0903 201.756 57.4681 203.534 57.4681 205.845ZM62.001 205.845C62.001 207.434 61.8344 208.822 60.3567 208.822C58.8791 208.822 58.7125 207.434 58.7125 205.845C58.7125 204.334 58.8791 202.912 60.3567 202.912C61.8344 202.912 62.001 204.334 62.001 205.845Z" fill="#9AA3AF"/>
</svg>
