<svg width="176" height="218" viewBox="0 0 176 218" fill="none" xmlns="http://www.w3.org/2000/svg">
<rect y="100" width="176" height="94" fill="#F9FAFA"/>
<path d="M0 194H176V214C176 216.209 174.209 218 172 218H4C1.79086 218 0 216.209 0 214V194Z" fill="#EDEFF1"/>
<path d="M0 4C0 1.79086 1.79086 0 4 0H172C174.209 0 176 1.79086 176 4V100H0V4Z" fill="#1DB181"/>
<path d="M13.9105 109.267V115.022L10.0998 109.267H8.83325V117H10.0998V111.234L13.9105 117H15.1771V109.267H13.9105ZM22.0509 117H23.3841L20.6177 109.267H19.1511L16.3848 117H17.7068L18.2623 115.422H21.4954L22.0509 117ZM21.1398 114.389H18.6179L19.8844 110.801L21.1398 114.389ZM24.5869 117H25.8534V111.712L28.2199 117H29.0975L31.4529 111.712V117H32.7194V109.279H31.364L28.6643 115.333L25.9534 109.279H24.5869V117ZM38.6503 109.267H34.3841V117H38.6503V115.967H35.6506V113.6H38.317V112.567H35.6506V110.301H38.6503V109.267Z" fill="#C2C8CF"/>
<path d="M9.02641 137H10.2394V130.108L13.3187 137H14.1718L17.2377 130.122V137H18.4507V127.776H17.1577L13.7452 135.4L10.3328 127.776H9.02641V137ZM27.4395 133.334C27.4395 131.028 25.8266 129.575 23.7471 129.575C21.681 129.575 20.0547 131.028 20.0547 133.334C20.0547 135.654 21.6276 137.12 23.6938 137.12C25.7733 137.12 27.4395 135.654 27.4395 133.334ZM21.2944 133.334C21.2944 131.495 22.4541 130.628 23.7338 130.628C24.9868 130.628 26.1998 131.495 26.1998 133.334C26.1998 135.187 24.9601 136.054 23.6938 136.054C22.4274 136.054 21.2944 135.187 21.2944 133.334ZM35.5128 129.695H34.2998V133.707C34.2998 135.28 33.46 136.054 32.207 136.054C30.9806 136.054 30.1675 135.294 30.1675 133.814V129.695H28.9678V133.974C28.9678 136.067 30.2874 137.107 31.967 137.107C32.9401 137.107 33.8332 136.68 34.2998 135.92V137H35.5128V129.695ZM42.9063 137H44.106V132.694C44.106 130.602 42.813 129.562 41.1201 129.562C40.1336 129.562 39.2539 129.975 38.774 130.735V129.695H37.5609V137H38.774V132.961C38.774 131.388 39.6271 130.615 40.8668 130.615C42.0931 130.615 42.9063 131.375 42.9063 132.868V137ZM46.3541 135C46.3541 136.467 47.0872 137 48.3802 137H49.4733V135.974H48.5802C47.8337 135.974 47.5671 135.72 47.5671 135V130.695H49.4733V129.695H47.5671V127.856H46.3541V129.695H45.4076V130.695H46.3541V135ZM52.1294 136.254C52.1294 135.787 51.7695 135.427 51.3296 135.427C50.863 135.427 50.5031 135.787 50.5031 136.254C50.5031 136.72 50.863 137.08 51.3296 137.08C51.7695 137.08 52.1294 136.72 52.1294 136.254ZM57.2956 137H58.5086V130.108L61.5879 137H62.441L65.5069 130.122V137H66.7199V127.776H65.4269L62.0144 135.4L58.6019 127.776H57.2956V137ZM71.883 130.602C73.136 130.602 74.2024 131.388 74.1891 132.814H69.5769C69.7102 131.388 70.6966 130.602 71.883 130.602ZM75.2955 134.747H73.9891C73.7225 135.534 73.0294 136.094 71.9363 136.094C70.6966 136.094 69.6569 135.28 69.5636 133.801H75.4021C75.4288 133.548 75.4421 133.334 75.4421 133.068C75.4421 131.068 74.0558 129.575 71.9363 129.575C69.8035 129.575 68.3239 131.028 68.3239 133.334C68.3239 135.654 69.8568 137.12 71.9363 137.12C73.7492 137.12 74.9222 136.08 75.2955 134.747ZM76.59 133.321C76.59 135.587 78.0963 137.12 80.0425 137.12C81.3888 137.12 82.3353 136.427 82.7752 135.64V137H84.0015V129.695H82.7752V131.028C82.3486 130.268 81.4155 129.575 80.0558 129.575C78.0963 129.575 76.59 131.041 76.59 133.321ZM82.7752 133.334C82.7752 135.054 81.6288 136.054 80.2958 136.054C78.9628 136.054 77.8297 135.04 77.8297 133.321C77.8297 131.601 78.9628 130.628 80.2958 130.628C81.6288 130.628 82.7752 131.641 82.7752 133.334ZM85.5982 133.321C85.5982 135.587 87.1045 137.12 89.064 137.12C90.397 137.12 91.3434 136.44 91.7833 135.627V137H93.0097V127.136H91.7833V131.001C91.2768 130.162 90.2237 129.575 89.0773 129.575C87.1045 129.575 85.5982 131.041 85.5982 133.321ZM91.7833 133.334C91.7833 135.054 90.6369 136.054 89.3039 136.054C87.9709 136.054 86.8379 135.04 86.8379 133.321C86.8379 131.601 87.9709 130.628 89.3039 130.628C90.6369 130.628 91.7833 131.641 91.7833 133.334ZM101.991 133.334C101.991 131.028 100.378 129.575 98.2988 129.575C96.2326 129.575 94.6064 131.028 94.6064 133.334C94.6064 135.654 96.1793 137.12 98.2455 137.12C100.325 137.12 101.991 135.654 101.991 133.334ZM95.8461 133.334C95.8461 131.495 97.0058 130.628 98.2854 130.628C99.5385 130.628 100.751 131.495 100.751 133.334C100.751 135.187 99.5118 136.054 98.2455 136.054C96.9791 136.054 95.8461 135.187 95.8461 133.334ZM105.012 137H106.265L108.025 131.201L109.785 137H111.038L113.317 129.695H112.117L110.464 135.84L108.691 129.695H107.452L105.639 135.827L103.959 129.695H102.72L105.012 137Z" fill="#5D6B7E"/>
<path d="M12.3551 202.179C10.1776 202.179 8.41107 203.812 8.41107 206.123C8.41107 208.445 10.1776 210.067 12.3551 210.067C14.4327 210.067 15.9437 208.545 16.177 206.756V205.767H11.9218V206.778H14.8215C14.6327 208.078 13.755 208.922 12.3551 208.922C10.8219 208.922 9.71094 207.822 9.71094 206.123C9.71094 204.423 10.8219 203.334 12.3551 203.334C13.2773 203.334 14.0105 203.723 14.4216 204.501H15.9437C15.3548 202.99 13.9661 202.179 12.3551 202.179ZM21.5257 204.589C21.5257 205.356 21.0813 205.9 20.0925 205.9H18.6927V203.312H20.0925C21.0813 203.312 21.5257 203.812 21.5257 204.589ZM17.4261 202.279V210H18.6927V206.911H19.6593L21.4369 210H22.9478L21.0369 206.8C22.3368 206.478 22.8256 205.5 22.8256 204.589C22.8256 203.334 21.9257 202.279 20.0925 202.279H17.4261ZM28.7121 202.267H24.4458V210H28.7121V208.967H25.7124V206.6H28.3788V205.567H25.7124V203.301H28.7121V202.267ZM34.5383 202.267H30.2721V210H34.5383V208.967H31.5386V206.6H34.205V205.567H31.5386V203.301H34.5383V202.267ZM41.1756 202.267V208.022L37.3649 202.267H36.0983V210H37.3649V204.234L41.1756 210H42.4421V202.267H41.1756ZM47.805 210H49.0493V208.311H50.0825V207.211H49.0493V202.001H47.5161L43.7831 207.356V208.311H47.805V210ZM45.2385 207.211L47.8605 203.29V207.211H45.2385ZM51.132 205.845C51.132 208.2 51.7541 209.978 54.0206 209.978C56.287 209.978 56.9092 208.2 56.9092 205.845C56.9092 203.534 56.287 201.756 54.0206 201.756C51.7541 201.756 51.132 203.534 51.132 205.845ZM55.6649 205.845C55.6649 207.434 55.4982 208.822 54.0206 208.822C52.5429 208.822 52.3763 207.434 52.3763 205.845C52.3763 204.334 52.5429 202.912 54.0206 202.912C55.4982 202.912 55.6649 204.334 55.6649 205.845ZM58.2493 205.845C58.2493 208.2 58.8715 209.978 61.1379 209.978C63.4044 209.978 64.0265 208.2 64.0265 205.845C64.0265 203.534 63.4044 201.756 61.1379 201.756C58.8715 201.756 58.2493 203.534 58.2493 205.845ZM62.7822 205.845C62.7822 207.434 62.6155 208.822 61.1379 208.822C59.6603 208.822 59.4936 207.434 59.4936 205.845C59.4936 204.334 59.6603 202.912 61.1379 202.912C62.6155 202.912 62.7822 204.334 62.7822 205.845Z" fill="#9AA3AF"/>
<path d="M117.733 160H118.999V152.279H117.733V155.589H114.1V152.279H112.833V160H114.1V156.623H117.733V160ZM124.933 152.267H120.667V160H124.933V158.967H121.933V156.6H124.6V155.567H121.933V153.301H124.933V152.267ZM131.015 160H132.437L130.037 156.145L132.448 152.279H131.037L129.393 155.1L127.637 152.279H126.215L128.626 156.145L126.226 160H127.637L129.27 157.2L131.015 160Z" fill="#C2C8CF"/>
<path d="M113.786 180H115.013V170.362H112.507V171.469H113.786V180ZM120.189 170.709H117.296V180H120.189C123.241 180 125.121 178.254 125.121 175.374C125.121 172.495 123.241 170.709 120.189 170.709ZM118.509 179V171.695H120.189C122.615 171.695 123.881 173.108 123.881 175.374C123.881 177.641 122.615 179 120.189 179H118.509ZM132 177.387C132 178.4 131.28 179 130.08 179H127.934V175.721H130.04C131.226 175.721 132 176.361 132 177.387ZM131.76 173.215C131.76 174.161 131.106 174.721 129.973 174.721H127.934V171.709H129.947C131.133 171.709 131.76 172.295 131.76 173.215ZM133.213 177.507C133.213 176.361 132.386 175.388 131.373 175.215C132.266 174.921 132.999 174.241 132.999 173.068C132.999 171.775 132.013 170.709 130.053 170.709H126.721V180H130.187C132.106 180 133.213 178.907 133.213 177.507ZM135.656 180H136.882V170.362H134.376V171.469H135.656V180ZM140.725 174.988C139.646 175.308 138.939 176.188 138.939 177.401C138.939 179.147 140.312 180.267 142.338 180.267C144.378 180.267 145.764 179.147 145.764 177.401C145.764 176.201 145.058 175.321 143.965 174.988C144.911 174.615 145.511 173.815 145.511 172.775C145.511 171.375 144.431 170.216 142.338 170.216C140.245 170.216 139.179 171.362 139.179 172.775C139.179 173.855 139.739 174.601 140.725 174.988ZM142.338 174.588C141.165 174.588 140.352 173.935 140.352 172.935C140.352 171.802 141.152 171.229 142.338 171.229C143.551 171.229 144.338 171.815 144.338 172.922C144.338 173.922 143.525 174.588 142.338 174.588ZM142.338 175.521C143.605 175.521 144.564 176.121 144.564 177.361C144.564 178.48 143.711 179.254 142.338 179.254C140.965 179.254 140.099 178.494 140.099 177.361C140.099 176.081 141.099 175.521 142.338 175.521ZM148.335 180H149.561V170.362H147.055V171.469H148.335V180Z" fill="#5D6B7E"/>
<path d="M12.9328 154.589C12.9328 155.356 12.4884 155.9 11.4997 155.9H10.0998V153.312H11.4997C12.4884 153.312 12.9328 153.812 12.9328 154.589ZM8.83325 152.279V160H10.0998V156.911H11.0664L12.844 160H14.3549L12.444 156.8C13.7439 156.478 14.2327 155.5 14.2327 154.589C14.2327 153.334 13.3328 152.279 11.4997 152.279H8.83325ZM19.3748 152.179C17.1973 152.179 15.4308 153.812 15.4308 156.123C15.4308 158.445 17.1973 160.067 19.3748 160.067C21.4524 160.067 22.9633 158.545 23.1967 156.756V155.767H18.9415V156.778H21.8412C21.6524 158.078 20.7747 158.922 19.3748 158.922C17.8416 158.922 16.7306 157.822 16.7306 156.123C16.7306 154.423 17.8416 153.334 19.3748 153.334C20.2969 153.334 21.0302 153.723 21.4413 154.501H22.9633C22.3745 152.99 20.9858 152.179 19.3748 152.179ZM28.801 157.789C28.801 158.533 28.2788 158.967 27.4233 158.967H25.7124V156.556H27.3789C28.2232 156.556 28.801 157.023 28.801 157.789ZM28.601 154.423C28.601 155.134 28.101 155.523 27.2789 155.523H25.7124V153.312H27.2789C28.101 153.312 28.601 153.723 28.601 154.423ZM30.0675 157.922C30.0675 157 29.4009 156.178 28.5788 156.034C29.3231 155.767 29.8897 155.2 29.8897 154.267C29.8897 153.178 29.0232 152.279 27.39 152.279H24.4458V160H27.5344C29.112 160 30.0675 159.1 30.0675 157.922Z" fill="#C2C8CF"/>
<path d="M8.67983 179.893H15.0916V178.88H10.506C12.2256 177.481 14.8116 175.441 14.8116 173.042C14.8116 171.256 13.6386 170.189 11.8257 170.189C10.0928 170.189 8.7998 171.256 8.71982 173.308H9.89286C9.94618 172.095 10.586 171.229 11.839 171.229C13.1454 171.229 13.6119 172.029 13.6119 173.095C13.6119 175.068 11.2125 176.987 8.67983 179.027V179.893ZM16.9337 177.414C17.067 178.827 18.0001 180.013 19.9196 180.013C22.4523 180.013 23.1855 178.214 23.1855 175.001C23.1855 172.015 22.4257 170.176 19.813 170.176C17.7335 170.176 16.6404 171.509 16.6404 173.348C16.6404 175.388 17.9601 176.494 19.733 176.494C20.7727 176.494 21.7325 176.028 22.1191 175.215C22.1591 178.04 21.3993 179 19.9863 179C18.8666 179 18.2267 178.414 18.0534 177.414H16.9337ZM19.933 175.468C18.4933 175.468 17.8002 174.561 17.8002 173.322C17.8002 172.042 18.5866 171.189 19.8396 171.189C21.226 171.189 21.9724 172.109 21.9724 173.415C21.9724 174.708 21.0927 175.468 19.933 175.468ZM24.037 181.906H24.8502L26.3431 178.32H25.0101L24.037 181.906ZM32.0463 180H33.2726V170.362H30.7666V171.469H32.0463V180ZM34.9697 170.389V171.429H40.1151L36.356 180H37.5824L41.2881 171.309V170.389H34.9697ZM42.2465 170.389V171.429H47.3919L43.6329 180H44.8592L48.565 171.309V170.389H42.2465ZM49.0568 181.906H49.8699L51.3629 178.32H50.0299L49.0568 181.906ZM57.0661 180H58.2924V170.362H55.7864V171.469H57.0661V180ZM60.2294 179.893H66.6412V178.88H62.0556C63.7752 177.481 66.3612 175.441 66.3612 173.042C66.3612 171.256 65.1882 170.189 63.3753 170.189C61.6424 170.189 60.3494 171.256 60.2694 173.308H61.4425C61.4958 172.095 62.1356 171.229 63.3886 171.229C64.695 171.229 65.1615 172.029 65.1615 173.095C65.1615 175.068 62.7621 176.987 60.2294 179.027V179.893ZM68.4833 177.414C68.6166 178.827 69.5497 180.013 71.4692 180.013C74.0019 180.013 74.7351 178.214 74.7351 175.001C74.7351 172.015 73.9753 170.176 71.3626 170.176C69.2831 170.176 68.1901 171.509 68.1901 173.348C68.1901 175.388 69.5097 176.494 71.2826 176.494C72.3224 176.494 73.2821 176.028 73.6687 175.215C73.7087 178.04 72.9489 179 71.5359 179C70.4162 179 69.7763 178.414 69.603 177.414H68.4833ZM71.4826 175.468C70.0429 175.468 69.3498 174.561 69.3498 173.322C69.3498 172.042 70.1362 171.189 71.3893 171.189C72.7756 171.189 73.5221 172.109 73.5221 173.415C73.5221 174.708 72.6423 175.468 71.4826 175.468Z" fill="#5D6B7E"/>
</svg>
