<svg width="112" height="218" viewBox="0 0 112 218" fill="none" xmlns="http://www.w3.org/2000/svg">
<rect y="100" width="112" height="94" fill="#F9FAFA"/>
<path d="M0 4C0 1.79086 1.79086 0 4 0H108C110.209 0 112 1.79086 112 4V100H0V4Z" fill="#97A9BD"/>
<path d="M13.9105 109.267V115.022L10.0998 109.267H8.83325V117H10.0998V111.234L13.9105 117H15.1771V109.267H13.9105ZM22.0509 117H23.3841L20.6177 109.267H19.1511L16.3848 117H17.7068L18.2623 115.422H21.4954L22.0509 117ZM21.1398 114.389H18.6179L19.8844 110.801L21.1398 114.389ZM24.5869 117H25.8534V111.712L28.2199 117H29.0975L31.4529 111.712V117H32.7194V109.279H31.364L28.6643 115.333L25.9534 109.279H24.5869V117ZM38.6503 109.267H34.3841V117H38.6503V115.967H35.6506V113.6H38.317V112.567H35.6506V110.301H38.6503V109.267Z" fill="#C2C8CF"/>
<path d="M15.1182 127.696V135.08L10.2394 127.696H9.02641V137H10.2394V129.602L15.1182 137H16.3312V127.696H15.1182ZM21.505 130.602C22.758 130.602 23.8244 131.388 23.811 132.814H19.1989C19.3322 131.388 20.3186 130.602 21.505 130.602ZM24.9174 134.747H23.6111C23.3445 135.534 22.6513 136.094 21.5583 136.094C20.3186 136.094 19.2788 135.28 19.1855 133.801H25.0241C25.0507 133.548 25.0641 133.334 25.0641 133.068C25.0641 131.068 23.6777 129.575 21.5583 129.575C19.4255 129.575 17.9458 131.028 17.9458 133.334C17.9458 135.654 19.4788 137.12 21.5583 137.12C23.3712 137.12 24.5442 136.08 24.9174 134.747ZM27.8783 131.041V129.695H26.6652V140.466H27.8783V135.654C28.3315 136.4 29.2779 137.12 30.6109 137.12C32.5704 137.12 34.0767 135.587 34.0767 133.321C34.0767 131.041 32.5704 129.575 30.6109 129.575C29.2779 129.575 28.3181 130.268 27.8783 131.041ZM32.837 133.321C32.837 135.04 31.704 136.054 30.3576 136.054C29.038 136.054 27.8783 135.054 27.8783 133.334C27.8783 131.641 29.038 130.628 30.3576 130.628C31.704 130.628 32.837 131.601 32.837 133.321ZM35.2202 133.321C35.2202 135.587 36.7265 137.12 38.6726 137.12C40.019 137.12 40.9654 136.427 41.4053 135.64V137H42.6317V129.695H41.4053V131.028C40.9787 130.268 40.0456 129.575 38.686 129.575C36.7265 129.575 35.2202 131.041 35.2202 133.321ZM41.4053 133.334C41.4053 135.054 40.2589 136.054 38.9259 136.054C37.5929 136.054 36.4599 135.04 36.4599 133.321C36.4599 131.601 37.5929 130.628 38.9259 130.628C40.2589 130.628 41.4053 131.641 41.4053 133.334ZM44.6816 137H45.8946V127.136H44.6816V137Z" fill="#5D6B7E"/>
<path d="M13.7328 160H14.9993V152.279H13.7328V155.589H10.0998V152.279H8.83325V160H10.0998V156.623H13.7328V160ZM20.9329 152.267H16.6667V160H20.9329V158.967H17.9332V156.6H20.5996V155.567H17.9332V153.301H20.9329V152.267ZM27.0147 160H28.4368L26.037 156.145L28.4479 152.279H27.0369L25.3926 155.1L23.6372 152.279H22.2152L24.626 156.145L22.2263 160H23.6372L25.2704 157.2L27.0147 160Z" fill="#C2C8CF"/>
<path d="M9.26635 177.414C9.39965 178.827 10.3328 180.013 12.2523 180.013C14.785 180.013 15.5181 178.214 15.5181 175.001C15.5181 172.015 14.7583 170.176 12.1456 170.176C10.0662 170.176 8.97309 171.509 8.97309 173.348C8.97309 175.388 10.2928 176.494 12.0657 176.494C13.1054 176.494 14.0652 176.028 14.4517 175.215C14.4917 178.04 13.7319 179 12.3189 179C11.1992 179 10.5594 178.414 10.3861 177.414H9.26635ZM12.2656 175.468C10.826 175.468 10.1328 174.561 10.1328 173.322C10.1328 172.042 10.9193 171.189 12.1723 171.189C13.5586 171.189 14.3051 172.109 14.3051 173.415C14.3051 174.708 13.4253 175.468 12.2656 175.468ZM16.8362 170.389V171.429H21.9816L18.2225 180H19.4489L23.1546 171.309V170.389H16.8362ZM30.938 180H32.2177L28.8719 170.762H27.4722L24.1131 180H25.3927L26.1392 177.934H30.1915L30.938 180ZM29.845 176.947H26.4858L28.1654 172.255L29.845 176.947ZM33.9216 177.414C34.0549 178.827 34.988 180.013 36.9076 180.013C39.4403 180.013 40.1734 178.214 40.1734 175.001C40.1734 172.015 39.4136 170.176 36.8009 170.176C34.7214 170.176 33.6284 171.509 33.6284 173.348C33.6284 175.388 34.9481 176.494 36.7209 176.494C37.7607 176.494 38.7204 176.028 39.107 175.215C39.147 178.04 38.3872 179 36.9742 179C35.8545 179 35.2147 178.414 35.0414 177.414H33.9216ZM36.9209 175.468C35.4813 175.468 34.7881 174.561 34.7881 173.322C34.7881 172.042 35.5746 171.189 36.8276 171.189C38.2139 171.189 38.9604 172.109 38.9604 173.415C38.9604 174.708 38.0806 175.468 36.9209 175.468ZM47.3567 177.387C47.3567 178.4 46.6369 179 45.4372 179H43.2911V175.721H45.3972C46.5836 175.721 47.3567 176.361 47.3567 177.387ZM47.1168 173.215C47.1168 174.161 46.4636 174.721 45.3306 174.721H43.2911V171.709H45.3039C46.4903 171.709 47.1168 172.295 47.1168 173.215ZM48.5697 177.507C48.5697 176.361 47.7433 175.388 46.7302 175.215C47.6233 174.921 48.3565 174.241 48.3565 173.068C48.3565 171.775 47.37 170.709 45.4105 170.709H42.078V180H45.5438C47.4634 180 48.5697 178.907 48.5697 177.507ZM53.1457 170.709H50.2531V180H53.1457C56.1983 180 58.0778 178.254 58.0778 175.374C58.0778 172.495 56.1983 170.709 53.1457 170.709ZM51.4661 179V171.695H53.1457C55.5717 171.695 56.8381 173.108 56.8381 175.374C56.8381 177.641 55.5717 179 53.1457 179H51.4661Z" fill="#5D6B7E"/>
<path d="M0 194H112V214C112 216.209 110.209 218 108 218H4C1.79086 218 0 216.209 0 214V194Z" fill="#EDEFF1"/>
<path d="M8.83325 210H10.0998V202.279H8.83325V210ZM16.8399 202.267V208.022L13.0292 202.267H11.7626V210H13.0292V204.234L16.8399 210H18.1065V202.267H16.8399ZM19.7697 210H21.0362V206.623H23.5915V205.589H21.0362V203.312H24.3136V202.279H19.7697V210ZM32.9533 206.123C32.9533 203.812 31.2091 202.179 29.0093 202.179C26.8317 202.179 25.0652 203.812 25.0652 206.123C25.0652 208.445 26.8317 210.078 29.0093 210.078C31.2091 210.078 32.9533 208.445 32.9533 206.123ZM26.3651 206.123C26.3651 204.378 27.4761 203.29 29.0093 203.29C30.5425 203.29 31.6535 204.378 31.6535 206.123C31.6535 207.867 30.5425 208.978 29.0093 208.978C27.4761 208.978 26.3651 207.867 26.3651 206.123ZM34.0108 203.901H35.244C35.3217 203.334 35.7328 202.801 36.6216 202.801C37.4882 202.801 37.9437 203.267 37.9437 203.967C37.9437 204.834 37.2438 205.167 36.0994 205.178H35.7995V206.223H36.0883C37.4104 206.223 38.0992 206.589 38.0992 207.656C38.0992 208.411 37.6326 208.989 36.6883 208.989C35.7328 208.989 35.1773 208.411 35.1218 207.656H33.8997C33.9774 209.245 35.1662 210.044 36.6994 210.044C38.3881 210.044 39.2991 209.067 39.2991 207.778C39.2991 206.656 38.7547 205.956 37.9104 205.7V205.656C38.5436 205.445 39.1547 204.789 39.1547 203.823C39.1547 202.645 38.277 201.712 36.6661 201.712C35.1884 201.712 34.0996 202.501 34.0108 203.901ZM40.6295 205.845C40.6295 208.2 41.2517 209.978 43.5181 209.978C45.7846 209.978 46.4067 208.2 46.4067 205.845C46.4067 203.534 45.7846 201.756 43.5181 201.756C41.2517 201.756 40.6295 203.534 40.6295 205.845ZM45.1624 205.845C45.1624 207.434 44.9958 208.822 43.5181 208.822C42.0405 208.822 41.8739 207.434 41.8739 205.845C41.8739 204.334 42.0405 202.912 43.5181 202.912C44.9958 202.912 45.1624 204.334 45.1624 205.845ZM47.7469 205.845C47.7469 208.2 48.3691 209.978 50.6355 209.978C52.9019 209.978 53.5241 208.2 53.5241 205.845C53.5241 203.534 52.9019 201.756 50.6355 201.756C48.3691 201.756 47.7469 203.534 47.7469 205.845ZM52.2798 205.845C52.2798 207.434 52.1131 208.822 50.6355 208.822C49.1579 208.822 48.9912 207.434 48.9912 205.845C48.9912 204.334 49.1579 202.912 50.6355 202.912C52.1131 202.912 52.2798 204.334 52.2798 205.845Z" fill="#9AA3AF"/>
</svg>
