<svg width="112" height="218" viewBox="0 0 112 218" fill="none" xmlns="http://www.w3.org/2000/svg">
<rect y="100" width="112" height="94" fill="#F9FAFA"/>
<path d="M0 4C0 1.79086 1.79086 0 4 0H108C110.209 0 112 1.79086 112 4V100H0V4Z" fill="#CBD4DE"/>
<path d="M13.9105 109.267V115.022L10.0998 109.267H8.83325V117H10.0998V111.234L13.9105 117H15.1771V109.267H13.9105ZM22.0509 117H23.3841L20.6177 109.267H19.1511L16.3848 117H17.7068L18.2623 115.422H21.4954L22.0509 117ZM21.1398 114.389H18.6179L19.8844 110.801L21.1398 114.389ZM24.5869 117H25.8534V111.712L28.2199 117H29.0975L31.4529 111.712V117H32.7194V109.279H31.364L28.6643 115.333L25.9534 109.279H24.5869V117ZM38.6503 109.267H34.3841V117H38.6503V115.967H35.6506V113.6H38.317V112.567H35.6506V110.301H38.6503V109.267Z" fill="#C2C8CF"/>
<path d="M13.2387 127.602C10.626 127.602 8.57319 129.562 8.57319 132.348C8.57319 135.134 10.626 137.08 13.2387 137.08C15.7581 137.08 17.5843 135.227 17.7976 132.921V131.988H12.7988V132.974H16.5045C16.3179 134.814 15.0649 135.987 13.2387 135.987C11.2792 135.987 9.81288 134.574 9.81288 132.348C9.81288 130.108 11.2792 128.695 13.2387 128.695C14.545 128.695 15.5581 129.322 16.0647 130.402H17.5176C16.8245 128.615 15.1982 127.602 13.2387 127.602ZM22.5073 130.602C23.7603 130.602 24.8267 131.388 24.8134 132.814H20.2012C20.3345 131.388 21.3209 130.602 22.5073 130.602ZM25.9198 134.747H24.6134C24.3468 135.534 23.6537 136.094 22.5606 136.094C21.3209 136.094 20.2812 135.28 20.1879 133.801H26.0264C26.0531 133.548 26.0664 133.334 26.0664 133.068C26.0664 131.068 24.6801 129.575 22.5606 129.575C20.4278 129.575 18.9482 131.028 18.9482 133.334C18.9482 135.654 20.4811 137.12 22.5606 137.12C24.3735 137.12 25.5466 136.08 25.9198 134.747ZM30.4402 135.614L28.1475 129.695H26.8011L29.7471 136.92L28.3074 140.439H29.5604L33.9593 129.695H32.7063L30.4402 135.614ZM40.4307 135.014C40.3774 132.401 36.1385 133.348 36.1385 131.615C36.1385 131.028 36.6717 130.602 37.5648 130.602C38.5379 130.602 39.0977 131.135 39.1511 131.868H40.3641C40.2841 130.442 39.2177 129.575 37.6048 129.575C35.9785 129.575 34.9255 130.495 34.9255 131.615C34.9255 134.334 39.2444 133.388 39.2444 135.014C39.2444 135.614 38.7112 136.094 37.7514 136.094C36.725 136.094 36.0985 135.56 36.0318 134.854H34.7788C34.8588 136.187 36.0585 137.12 37.7647 137.12C39.3777 137.12 40.4307 136.214 40.4307 135.014ZM45.249 130.602C46.502 130.602 47.5684 131.388 47.5551 132.814H42.9429C43.0762 131.388 44.0626 130.602 45.249 130.602ZM48.6615 134.747H47.3552C47.0886 135.534 46.3954 136.094 45.3023 136.094C44.0626 136.094 43.0229 135.28 42.9296 133.801H48.7681C48.7948 133.548 48.8081 133.334 48.8081 133.068C48.8081 131.068 47.4218 129.575 45.3023 129.575C43.1695 129.575 41.6899 131.028 41.6899 133.334C41.6899 135.654 43.2229 137.12 45.3023 137.12C47.1152 137.12 48.2883 136.08 48.6615 134.747ZM51.6223 133.028C51.6223 131.335 52.5021 130.815 53.6618 130.815H53.9817V129.562C52.822 129.562 52.0356 130.068 51.6223 130.882V129.695H50.4093V137H51.6223V133.028Z" fill="#5D6B7E"/>
<path d="M13.7328 160H14.9993V152.279H13.7328V155.589H10.0998V152.279H8.83325V160H10.0998V156.623H13.7328V160ZM20.9329 152.267H16.6667V160H20.9329V158.967H17.9332V156.6H20.5996V155.567H17.9332V153.301H20.9329V152.267ZM27.0147 160H28.4368L26.037 156.145L28.4479 152.279H27.0369L25.3926 155.1L23.6372 152.279H22.2152L24.626 156.145L22.2263 160H23.6372L25.2704 157.2L27.0147 160Z" fill="#C2C8CF"/>
<path d="M8.57319 175.348C8.57319 178.134 10.6127 180.08 13.212 180.08C15.2249 180.08 16.8245 179.08 17.5176 177.294H16.0647C15.5581 178.4 14.5717 179.027 13.212 179.027C11.2659 179.027 9.81288 177.614 9.81288 175.348C9.81288 173.068 11.2659 171.655 13.212 171.655C14.5717 171.655 15.5581 172.282 16.0647 173.402H17.5176C16.8245 171.602 15.2249 170.589 13.212 170.589C10.6127 170.589 8.57319 172.562 8.57319 175.348ZM24.602 177.387C24.602 178.4 23.8822 179 22.6825 179H20.5363V175.721H22.6425C23.8289 175.721 24.602 176.361 24.602 177.387ZM24.3621 173.215C24.3621 174.161 23.7089 174.721 22.5758 174.721H20.5363V171.709H22.5492C23.7355 171.709 24.3621 172.295 24.3621 173.215ZM25.815 177.507C25.815 176.361 24.9886 175.388 23.9755 175.215C24.8686 174.921 25.6017 174.241 25.6017 173.068C25.6017 171.775 24.6153 170.709 22.6558 170.709H19.3233V180H22.7891C24.7086 180 25.815 178.907 25.815 177.507ZM30.391 170.709H27.4984V180H30.391C33.4435 180 35.3231 178.254 35.3231 175.374C35.3231 172.495 33.4435 170.709 30.391 170.709ZM28.7114 179V171.695H30.391C32.817 171.695 34.0834 173.108 34.0834 175.374C34.0834 177.641 32.817 179 30.391 179H28.7114ZM41.362 180H42.5617V177.854H43.8947V176.801H42.5617V170.456H41.1087L36.4299 176.934V177.854H41.362V180ZM37.8295 176.801L41.4153 171.722V176.801H37.8295ZM48.199 170.709H45.3064V180H48.199C51.2516 180 53.1311 178.254 53.1311 175.374C53.1311 172.495 51.2516 170.709 48.199 170.709ZM46.5194 179V171.695H48.199C50.6251 171.695 51.8914 173.108 51.8914 175.374C51.8914 177.641 50.6251 179 48.199 179H46.5194ZM59.7299 170.696H54.7311V180H59.7299V179H55.9442V175.801H59.33V174.801H55.9442V171.695H59.7299V170.696Z" fill="#5D6B7E"/>
<path d="M0 194H112V214C112 216.209 110.209 218 108 218H4C1.79086 218 0 216.209 0 214V194Z" fill="#EDEFF1"/>
<path d="M8.83325 210H10.0998V202.279H8.83325V210ZM16.8399 202.267V208.022L13.0292 202.267H11.7626V210H13.0292V204.234L16.8399 210H18.1065V202.267H16.8399ZM19.7697 210H21.0362V206.623H23.5915V205.589H21.0362V203.312H24.3136V202.279H19.7697V210ZM32.9533 206.123C32.9533 203.812 31.2091 202.179 29.0093 202.179C26.8317 202.179 25.0652 203.812 25.0652 206.123C25.0652 208.445 26.8317 210.078 29.0093 210.078C31.2091 210.078 32.9533 208.445 32.9533 206.123ZM26.3651 206.123C26.3651 204.378 27.4761 203.29 29.0093 203.29C30.5425 203.29 31.6535 204.378 31.6535 206.123C31.6535 207.867 30.5425 208.978 29.0093 208.978C27.4761 208.978 26.3651 207.867 26.3651 206.123ZM34.8996 210H36.1772V201.901H33.8663V203.056H34.8996V210ZM37.9171 205.845C37.9171 208.2 38.5393 209.978 40.8057 209.978C43.0722 209.978 43.6943 208.2 43.6943 205.845C43.6943 203.534 43.0722 201.756 40.8057 201.756C38.5393 201.756 37.9171 203.534 37.9171 205.845ZM42.45 205.845C42.45 207.434 42.2834 208.822 40.8057 208.822C39.3281 208.822 39.1615 207.434 39.1615 205.845C39.1615 204.334 39.3281 202.912 40.8057 202.912C42.2834 202.912 42.45 204.334 42.45 205.845ZM45.0345 205.845C45.0345 208.2 45.6566 209.978 47.9231 209.978C50.1895 209.978 50.8117 208.2 50.8117 205.845C50.8117 203.534 50.1895 201.756 47.9231 201.756C45.6566 201.756 45.0345 203.534 45.0345 205.845ZM49.5674 205.845C49.5674 207.434 49.4007 208.822 47.9231 208.822C46.4455 208.822 46.2788 207.434 46.2788 205.845C46.2788 204.334 46.4455 202.912 47.9231 202.912C49.4007 202.912 49.5674 204.334 49.5674 205.845Z" fill="#9AA3AF"/>
</svg>
