<svg width="112" height="218" viewBox="0 0 112 218" fill="none" xmlns="http://www.w3.org/2000/svg">
<rect y="100" width="112" height="94" fill="#F9FAFA"/>
<path d="M0 4C0 1.79086 1.79086 0 4 0H108C110.209 0 112 1.79086 112 4V100H0V4Z" fill="#7D94AC"/>
<path d="M13.9105 109.267V115.022L10.0998 109.267H8.83325V117H10.0998V111.234L13.9105 117H15.1771V109.267H13.9105ZM22.0509 117H23.3841L20.6177 109.267H19.1511L16.3848 117H17.7068L18.2623 115.422H21.4954L22.0509 117ZM21.1398 114.389H18.6179L19.8844 110.801L21.1398 114.389ZM24.5869 117H25.8534V111.712L28.2199 117H29.0975L31.4529 111.712V117H32.7194V109.279H31.364L28.6643 115.333L25.9534 109.279H24.5869V117ZM38.6503 109.267H34.3841V117H38.6503V115.967H35.6506V113.6H38.317V112.567H35.6506V110.301H38.6503V109.267Z" fill="#C2C8CF"/>
<path d="M10.9059 137.013L12.2523 137L14.4917 129.522L16.6512 137H18.0108L20.7035 127.709H19.3972L17.3577 135.56L15.2249 127.709H13.8652L11.6258 135.587L9.5996 127.709H8.30659L10.9059 137.013ZM25.1369 130.602C26.3899 130.602 27.4563 131.388 27.443 132.814H22.8308C22.9641 131.388 23.9505 130.602 25.1369 130.602ZM28.5493 134.747H27.243C26.9764 135.534 26.2832 136.094 25.1902 136.094C23.9505 136.094 22.9108 135.28 22.8174 133.801H28.656C28.6826 133.548 28.696 133.334 28.696 133.068C28.696 131.068 27.3097 129.575 25.1902 129.575C23.0574 129.575 21.5778 131.028 21.5778 133.334C21.5778 135.654 23.1107 137.12 25.1902 137.12C27.0031 137.12 28.1761 136.08 28.5493 134.747ZM30.2971 137H31.5102V127.136H30.2971V137ZM33.1243 133.321C33.1243 135.587 34.6306 137.12 36.5901 137.12C37.9231 137.12 38.8696 136.44 39.3095 135.627V137H40.5358V127.136H39.3095V131.001C38.8029 130.162 37.7499 129.575 36.6035 129.575C34.6306 129.575 33.1243 131.041 33.1243 133.321ZM39.3095 133.334C39.3095 135.054 38.1631 136.054 36.8301 136.054C35.4971 136.054 34.364 135.04 34.364 133.321C34.364 131.601 35.4971 130.628 36.8301 130.628C38.1631 130.628 39.3095 131.641 39.3095 133.334ZM49.5173 133.334C49.5173 131.028 47.9044 129.575 45.8249 129.575C43.7588 129.575 42.1325 131.028 42.1325 133.334C42.1325 135.654 43.7054 137.12 45.7716 137.12C47.8511 137.12 49.5173 135.654 49.5173 133.334ZM43.3722 133.334C43.3722 131.495 44.5319 130.628 45.8116 130.628C47.0646 130.628 48.2776 131.495 48.2776 133.334C48.2776 135.187 47.0379 136.054 45.7716 136.054C44.5052 136.054 43.3722 135.187 43.3722 133.334ZM56.4576 137H57.6573V132.694C57.6573 130.602 56.3643 129.562 54.6714 129.562C53.6849 129.562 52.8052 129.975 52.3253 130.735V129.695H51.1122V137H52.3253V132.961C52.3253 131.388 53.1784 130.615 54.4181 130.615C55.6444 130.615 56.4576 131.375 56.4576 132.868V137ZM68.4712 134.387C68.4712 135.4 67.7514 136 66.5517 136H64.4056V132.721H66.5117C67.6981 132.721 68.4712 133.361 68.4712 134.387ZM68.2313 130.215C68.2313 131.161 67.5781 131.721 66.4451 131.721H64.4056V128.709H66.4184C67.6048 128.709 68.2313 129.295 68.2313 130.215ZM69.6843 134.507C69.6843 133.361 68.8578 132.388 67.8447 132.215C68.7378 131.921 69.471 131.241 69.471 130.068C69.471 128.775 68.4846 127.709 66.5251 127.709H63.1926V137H66.6584C68.5779 137 69.6843 135.907 69.6843 134.507ZM71.3676 137H72.5806V127.136H71.3676V137ZM81.1264 129.695H79.9134V133.707C79.9134 135.28 79.0736 136.054 77.8206 136.054C76.5942 136.054 75.7811 135.294 75.7811 133.814V129.695H74.5814V133.974C74.5814 136.067 75.901 137.107 77.5806 137.107C78.5537 137.107 79.4468 136.68 79.9134 135.92V137H81.1264V129.695ZM86.2804 130.602C87.5334 130.602 88.5998 131.388 88.5865 132.814H83.9743C84.1076 131.388 85.0941 130.602 86.2804 130.602ZM89.6929 134.747H88.3866C88.12 135.534 87.4268 136.094 86.3337 136.094C85.0941 136.094 84.0543 135.28 83.961 133.801H89.7995C89.8262 133.548 89.8395 133.334 89.8395 133.068C89.8395 131.068 88.4532 129.575 86.3337 129.575C84.2009 129.575 82.7213 131.028 82.7213 133.334C82.7213 135.654 84.2543 137.12 86.3337 137.12C88.1466 137.12 89.3197 136.08 89.6929 134.747Z" fill="#5D6B7E"/>
<path d="M13.7328 160H14.9993V152.279H13.7328V155.589H10.0998V152.279H8.83325V160H10.0998V156.623H13.7328V160ZM20.9329 152.267H16.6667V160H20.9329V158.967H17.9332V156.6H20.5996V155.567H17.9332V153.301H20.9329V152.267ZM27.0147 160H28.4368L26.037 156.145L28.4479 152.279H27.0369L25.3926 155.1L23.6372 152.279H22.2152L24.626 156.145L22.2263 160H23.6372L25.2704 157.2L27.0147 160Z" fill="#C2C8CF"/>
<path d="M8.43989 170.389V171.429H13.5853L9.82621 180H11.0526L14.7583 171.309V170.389H8.43989ZM19.1958 170.709H16.3032V180H19.1958C22.2484 180 24.1279 178.254 24.1279 175.374C24.1279 172.495 22.2484 170.709 19.1958 170.709ZM17.5163 179V171.695H19.1958C21.6219 171.695 22.8883 173.108 22.8883 175.374C22.8883 177.641 21.6219 179 19.1958 179H17.5163ZM25.9679 177.414C26.1012 178.827 27.0343 180.013 28.9538 180.013C31.4865 180.013 32.2197 178.214 32.2197 175.001C32.2197 172.015 31.4599 170.176 28.8472 170.176C26.7677 170.176 25.6746 171.509 25.6746 173.348C25.6746 175.388 26.9943 176.494 28.7672 176.494C29.8069 176.494 30.7667 176.028 31.1533 175.215C31.1933 178.04 30.4335 179 29.0205 179C27.9008 179 27.2609 178.414 27.0876 177.414H25.9679ZM28.9672 175.468C27.5275 175.468 26.8344 174.561 26.8344 173.322C26.8344 172.042 27.6208 171.189 28.8738 171.189C30.2602 171.189 31.0066 172.109 31.0066 173.415C31.0066 174.708 30.1269 175.468 28.9672 175.468ZM38.5632 180H39.7629V177.854H41.0959V176.801H39.7629V170.456H38.3099L33.6311 176.934V177.854H38.5632V180ZM35.0307 176.801L38.6165 171.722V176.801H35.0307ZM48.7461 180H50.0257L46.6799 170.762H45.2803L41.9211 180H43.2008L43.9473 177.934H47.9996L48.7461 180ZM47.653 176.947H44.2938L45.9734 172.255L47.653 176.947ZM51.0365 175.348C51.0365 178.134 53.076 180.08 55.6754 180.08C57.6882 180.08 59.2878 179.08 59.981 177.294H58.528C58.0215 178.4 57.035 179.027 55.6754 179.027C53.7292 179.027 52.2762 177.614 52.2762 175.348C52.2762 173.068 53.7292 171.655 55.6754 171.655C57.035 171.655 58.0215 172.282 58.528 173.402H59.981C59.2878 171.602 57.6882 170.589 55.6754 170.589C53.076 170.589 51.0365 172.562 51.0365 175.348Z" fill="#5D6B7E"/>
<path d="M0 194H112V214C112 216.209 110.209 218 108 218H4C1.79086 218 0 216.209 0 214V194Z" fill="#EDEFF1"/>
<path d="M8.83325 210H10.0998V202.279H8.83325V210ZM16.8399 202.267V208.022L13.0292 202.267H11.7626V210H13.0292V204.234L16.8399 210H18.1065V202.267H16.8399ZM19.7697 210H21.0362V206.623H23.5915V205.589H21.0362V203.312H24.3136V202.279H19.7697V210ZM32.9533 206.123C32.9533 203.812 31.2091 202.179 29.0093 202.179C26.8317 202.179 25.0652 203.812 25.0652 206.123C25.0652 208.445 26.8317 210.078 29.0093 210.078C31.2091 210.078 32.9533 208.445 32.9533 206.123ZM26.3651 206.123C26.3651 204.378 27.4761 203.29 29.0093 203.29C30.5425 203.29 31.6535 204.378 31.6535 206.123C31.6535 207.867 30.5425 208.978 29.0093 208.978C27.4761 208.978 26.3651 207.867 26.3651 206.123ZM37.8993 210H39.1436V208.311H40.1768V207.211H39.1436V202.001H37.6104L33.8774 207.356V208.311H37.8993V210ZM35.3329 207.211L37.9548 203.29V207.211H35.3329ZM41.2263 205.845C41.2263 208.2 41.8484 209.978 44.1149 209.978C46.3813 209.978 47.0035 208.2 47.0035 205.845C47.0035 203.534 46.3813 201.756 44.1149 201.756C41.8484 201.756 41.2263 203.534 41.2263 205.845ZM45.7592 205.845C45.7592 207.434 45.5925 208.822 44.1149 208.822C42.6372 208.822 42.4706 207.434 42.4706 205.845C42.4706 204.334 42.6372 202.912 44.1149 202.912C45.5925 202.912 45.7592 204.334 45.7592 205.845ZM48.3436 205.845C48.3436 208.2 48.9658 209.978 51.2322 209.978C53.4987 209.978 54.1208 208.2 54.1208 205.845C54.1208 203.534 53.4987 201.756 51.2322 201.756C48.9658 201.756 48.3436 203.534 48.3436 205.845ZM52.8765 205.845C52.8765 207.434 52.7099 208.822 51.2322 208.822C49.7546 208.822 49.5879 207.434 49.5879 205.845C49.5879 204.334 49.7546 202.912 51.2322 202.912C52.7099 202.912 52.8765 204.334 52.8765 205.845Z" fill="#9AA3AF"/>
</svg>
