<svg width="112" height="218" viewBox="0 0 112 218" fill="none" xmlns="http://www.w3.org/2000/svg">
<rect y="100" width="112" height="94" fill="#F9FAFA"/>
<path d="M0 4C0 1.79086 1.79086 0 4 0H108C110.209 0 112 1.79086 112 4V100H0V4Z" fill="#4B5967"/>
<path d="M13.9105 109.267V115.022L10.0998 109.267H8.83325V117H10.0998V111.234L13.9105 117H15.1771V109.267H13.9105ZM22.0509 117H23.3841L20.6177 109.267H19.1511L16.3848 117H17.7068L18.2623 115.422H21.4954L22.0509 117ZM21.1398 114.389H18.6179L19.8844 110.801L21.1398 114.389ZM24.5869 117H25.8534V111.712L28.2199 117H29.0975L31.4529 111.712V117H32.7194V109.279H31.364L28.6643 115.333L25.9534 109.279H24.5869V117ZM38.6503 109.267H34.3841V117H38.6503V115.967H35.6506V113.6H38.317V112.567H35.6506V110.301H38.6503V109.267Z" fill="#C2C8CF"/>
<path d="M13.9985 130.442C13.9985 131.481 13.3987 132.228 12.0257 132.228H10.2394V128.709H12.0257C13.412 128.709 13.9985 129.389 13.9985 130.442ZM9.02641 127.709V137H10.2394V133.201H11.7057L13.9185 137H15.3715L13.0387 133.108C14.5984 132.761 15.2515 131.628 15.2515 130.442C15.2515 128.922 14.2118 127.709 12.0257 127.709H9.02641ZM17.1364 137H18.3494V129.695H17.1364V137ZM17.7629 128.509C18.2028 128.509 18.5627 128.149 18.5627 127.682C18.5627 127.216 18.2028 126.856 17.7629 126.856C17.2963 126.856 16.9364 127.216 16.9364 127.682C16.9364 128.149 17.2963 128.509 17.7629 128.509ZM19.5503 129.695L22.4163 137H23.8293L26.6952 129.695H25.4022L23.1361 135.88L20.8567 129.695H19.5503ZM30.9948 130.602C32.2478 130.602 33.3142 131.388 33.3009 132.814H28.6887C28.822 131.388 29.8084 130.602 30.9948 130.602ZM34.4073 134.747H33.1009C32.8343 135.534 32.1412 136.094 31.0481 136.094C29.8084 136.094 28.7687 135.28 28.6754 133.801H34.5139C34.5406 133.548 34.5539 133.334 34.5539 133.068C34.5539 131.068 33.1676 129.575 31.0481 129.575C28.9153 129.575 27.4357 131.028 27.4357 133.334C27.4357 135.654 28.9686 137.12 31.0481 137.12C32.861 137.12 34.034 136.08 34.4073 134.747ZM37.3681 133.028C37.3681 131.335 38.2479 130.815 39.4076 130.815H39.7275V129.562C38.5678 129.562 37.7813 130.068 37.3681 130.882V129.695H36.155V137H37.3681V133.028ZM49.9602 134.387C49.9602 135.4 49.2404 136 48.0407 136H45.8946V132.721H48.0007C49.1871 132.721 49.9602 133.361 49.9602 134.387ZM49.7203 130.215C49.7203 131.161 49.0671 131.721 47.9341 131.721H45.8946V128.709H47.9074C49.0938 128.709 49.7203 129.295 49.7203 130.215ZM51.1733 134.507C51.1733 133.361 50.3468 132.388 49.3337 132.215C50.2268 131.921 50.96 131.241 50.96 130.068C50.96 128.775 49.9736 127.709 48.0141 127.709H44.6816V137H48.1474C50.0669 137 51.1733 135.907 51.1733 134.507ZM55.9625 130.602C57.2155 130.602 58.2819 131.388 58.2686 132.814H53.6564C53.7897 131.388 54.7761 130.602 55.9625 130.602ZM59.375 134.747H58.0686C57.802 135.534 57.1089 136.094 56.0158 136.094C54.7761 136.094 53.7364 135.28 53.6431 133.801H59.4816C59.5083 133.548 59.5216 133.334 59.5216 133.068C59.5216 131.068 58.1353 129.575 56.0158 129.575C53.883 129.575 52.4034 131.028 52.4034 133.334C52.4034 135.654 53.9363 137.12 56.0158 137.12C57.8287 137.12 59.0017 136.08 59.375 134.747ZM60.6695 133.321C60.6695 135.587 62.1758 137.12 64.1353 137.12C65.4683 137.12 66.4148 136.44 66.8547 135.627V137H68.081V127.136H66.8547V131.001C66.3481 130.162 65.295 129.575 64.1487 129.575C62.1758 129.575 60.6695 131.041 60.6695 133.321ZM66.8547 133.334C66.8547 135.054 65.7083 136.054 64.3753 136.054C63.0423 136.054 61.9092 135.04 61.9092 133.321C61.9092 131.601 63.0423 130.628 64.3753 130.628C65.7083 130.628 66.8547 131.641 66.8547 133.334Z" fill="#5D6B7E"/>
<path d="M13.7328 160H14.9993V152.279H13.7328V155.589H10.0998V152.279H8.83325V160H10.0998V156.623H13.7328V160ZM20.9329 152.267H16.6667V160H20.9329V158.967H17.9332V156.6H20.5996V155.567H17.9332V153.301H20.9329V152.267ZM27.0147 160H28.4368L26.037 156.145L28.4479 152.279H27.0369L25.3926 155.1L23.6372 152.279H22.2152L24.626 156.145L22.2263 160H23.6372L25.2704 157.2L27.0147 160Z" fill="#C2C8CF"/>
<path d="M13.4653 180H14.665V177.854H15.998V176.801H14.665V170.456H13.212L8.5332 176.934V177.854H13.4653V180ZM9.93285 176.801L13.5186 171.722V176.801H9.93285ZM22.6884 177.387C22.6884 178.4 21.9686 179 20.7689 179H18.6228V175.721H20.7289C21.9153 175.721 22.6884 176.361 22.6884 177.387ZM22.4485 173.215C22.4485 174.161 21.7953 174.721 20.6622 174.721H18.6228V171.709H20.6356C21.822 171.709 22.4485 172.295 22.4485 173.215ZM23.9014 177.507C23.9014 176.361 23.075 175.388 22.0619 175.215C22.955 174.921 23.6882 174.241 23.6882 173.068C23.6882 171.775 22.7017 170.709 20.7422 170.709H17.4097V180H20.8755C22.7951 180 23.9014 178.907 23.9014 177.507ZM25.7314 170.349V175.788H26.8778C27.1977 175.028 27.9042 174.521 28.8773 174.521C30.2769 174.521 30.9834 175.321 30.9834 176.694C30.9834 178.014 30.3302 179 28.8639 179C27.7309 179 26.9444 178.4 26.7178 177.387H25.5314C25.7714 178.947 26.9311 180.027 28.8506 180.027C31.1034 180.027 32.1431 178.534 32.1431 176.668C32.1431 175.175 31.3966 173.482 29.0506 173.482C28.1041 173.482 27.251 173.908 26.8511 174.455V171.415H31.5299V170.349H25.7314ZM34.195 177.414C34.3283 178.827 35.2614 180.013 37.1809 180.013C39.7136 180.013 40.4468 178.214 40.4468 175.001C40.4468 172.015 39.687 170.176 37.0743 170.176C34.9948 170.176 33.9018 171.509 33.9018 173.348C33.9018 175.388 35.2214 176.494 36.9943 176.494C38.0341 176.494 38.9938 176.028 39.3804 175.215C39.4204 178.04 38.6606 179 37.2476 179C36.1279 179 35.488 178.414 35.3147 177.414H34.195ZM37.1943 175.468C35.7546 175.468 35.0615 174.561 35.0615 173.322C35.0615 172.042 35.8479 171.189 37.101 171.189C38.4873 171.189 39.2338 172.109 39.2338 173.415C39.2338 174.708 38.354 175.468 37.1943 175.468ZM48.6432 172.655C48.4832 171.309 47.5501 170.162 45.7106 170.162C43.2712 170.162 42.2981 172.029 42.2981 175.055C42.2981 177.974 42.9779 180.027 45.8305 180.027C47.9367 180.027 48.9764 178.587 48.9764 176.827C48.9764 174.801 47.7634 173.615 45.9638 173.615C44.8175 173.615 43.7644 174.148 43.3512 175.095C43.3378 172.229 44.1643 171.176 45.6972 171.176C46.7903 171.176 47.3368 171.722 47.5235 172.655H48.6432ZM45.7106 174.641C47.0969 174.641 47.8034 175.508 47.8034 176.867C47.8034 178.174 47.0169 179.014 45.7639 179.014C44.2443 179.014 43.4978 178.014 43.4978 176.734C43.4978 175.295 44.6042 174.641 45.7106 174.641ZM50.2263 170.389V171.429H55.3717L51.6126 180H52.839L56.5447 171.309V170.389H50.2263Z" fill="#5D6B7E"/>
<path d="M0 194H112V214C112 216.209 110.209 218 108 218H4C1.79086 218 0 216.209 0 214V194Z" fill="#EDEFF1"/>
<path d="M8.83325 210H10.0998V202.279H8.83325V210ZM16.8399 202.267V208.022L13.0292 202.267H11.7626V210H13.0292V204.234L16.8399 210H18.1065V202.267H16.8399ZM19.7697 210H21.0362V206.623H23.5915V205.589H21.0362V203.312H24.3136V202.279H19.7697V210ZM32.9533 206.123C32.9533 203.812 31.2091 202.179 29.0093 202.179C26.8317 202.179 25.0652 203.812 25.0652 206.123C25.0652 208.445 26.8317 210.078 29.0093 210.078C31.2091 210.078 32.9533 208.445 32.9533 206.123ZM26.3651 206.123C26.3651 204.378 27.4761 203.29 29.0093 203.29C30.5425 203.29 31.6535 204.378 31.6535 206.123C31.6535 207.867 30.5425 208.978 29.0093 208.978C27.4761 208.978 26.3651 207.867 26.3651 206.123ZM39.5547 203.778C39.4213 202.701 38.6325 201.701 37.0549 201.701C35.0329 201.701 34.1885 203.234 34.1885 205.767C34.1885 208.345 34.7996 210 37.1549 210C38.8881 210 39.8102 208.833 39.8102 207.3C39.8102 205.612 38.777 204.634 37.3215 204.634C36.4772 204.634 35.6773 204.989 35.2773 205.656C35.3106 203.534 35.8995 202.756 37.0438 202.756C37.8437 202.756 38.2326 203.123 38.3881 203.778H39.5547ZM37.0438 205.7C38.1104 205.7 38.5992 206.389 38.5992 207.356C38.5992 208.311 38.0215 208.945 37.0882 208.945C36.0106 208.945 35.4217 208.278 35.4217 207.278C35.4217 206.2 36.2105 205.7 37.0438 205.7ZM41.1612 205.845C41.1612 208.2 41.7833 209.978 44.0498 209.978C46.3162 209.978 46.9384 208.2 46.9384 205.845C46.9384 203.534 46.3162 201.756 44.0498 201.756C41.7833 201.756 41.1612 203.534 41.1612 205.845ZM45.6941 205.845C45.6941 207.434 45.5274 208.822 44.0498 208.822C42.5721 208.822 42.4055 207.434 42.4055 205.845C42.4055 204.334 42.5721 202.912 44.0498 202.912C45.5274 202.912 45.6941 204.334 45.6941 205.845ZM48.2785 205.845C48.2785 208.2 48.9007 209.978 51.1671 209.978C53.4336 209.978 54.0557 208.2 54.0557 205.845C54.0557 203.534 53.4336 201.756 51.1671 201.756C48.9007 201.756 48.2785 203.534 48.2785 205.845ZM52.8114 205.845C52.8114 207.434 52.6448 208.822 51.1671 208.822C49.6895 208.822 49.5228 207.434 49.5228 205.845C49.5228 204.334 49.6895 202.912 51.1671 202.912C52.6448 202.912 52.8114 204.334 52.8114 205.845Z" fill="#9AA3AF"/>
</svg>
