<svg width="112" height="218" viewBox="0 0 112 218" fill="none" xmlns="http://www.w3.org/2000/svg">
<rect y="100" width="112" height="94" fill="#F9FAFA"/>
<path d="M0 4C0 1.79086 1.79086 0 4 0H108C110.209 0 112 1.79086 112 4V100H0V4Z" fill="#B1BFCD"/>
<path d="M13.9105 109.267V115.022L10.0998 109.267H8.83325V117H10.0998V111.234L13.9105 117H15.1771V109.267H13.9105ZM22.0509 117H23.3841L20.6177 109.267H19.1511L16.3848 117H17.7068L18.2623 115.422H21.4954L22.0509 117ZM21.1398 114.389H18.6179L19.8844 110.801L21.1398 114.389ZM24.5869 117H25.8534V111.712L28.2199 117H29.0975L31.4529 111.712V117H32.7194V109.279H31.364L28.6643 115.333L25.9534 109.279H24.5869V117ZM38.6503 109.267H34.3841V117H38.6503V115.967H35.6506V113.6H38.317V112.567H35.6506V110.301H38.6503V109.267Z" fill="#C2C8CF"/>
<path d="M14.9716 137H16.1846V127.709H14.9716V131.788H10.2394V127.709H9.02641V137H10.2394V132.788H14.9716V137ZM21.3487 130.602C22.6018 130.602 23.6682 131.388 23.6548 132.814H19.0427C19.176 131.388 20.1624 130.602 21.3487 130.602ZM24.7612 134.747H23.4549C23.1883 135.534 22.4951 136.094 21.4021 136.094C20.1624 136.094 19.1226 135.28 19.0293 133.801H24.8679C24.8945 133.548 24.9079 133.334 24.9079 133.068C24.9079 131.068 23.5215 129.575 21.4021 129.575C19.2693 129.575 17.7896 131.028 17.7896 133.334C17.7896 135.654 19.3226 137.12 21.4021 137.12C23.2149 137.12 24.388 136.08 24.7612 134.747ZM26.0558 133.321C26.0558 135.587 27.5621 137.12 29.5083 137.12C30.8546 137.12 31.801 136.427 32.2409 135.64V137H33.4673V129.695H32.2409V131.028C31.8144 130.268 30.8813 129.575 29.5216 129.575C27.5621 129.575 26.0558 131.041 26.0558 133.321ZM32.2409 133.334C32.2409 135.054 31.0945 136.054 29.7615 136.054C28.4285 136.054 27.2955 135.04 27.2955 133.321C27.2955 131.601 28.4285 130.628 29.7615 130.628C31.0945 130.628 32.2409 131.641 32.2409 133.334ZM35.7838 135C35.7838 136.467 36.5169 137 37.8099 137H38.903V135.974H38.0099C37.2634 135.974 36.9968 135.72 36.9968 135V130.695H38.903V129.695H36.9968V127.856H35.7838V129.695H34.8374V130.695H35.7838V135ZM40.3727 137H41.5858V132.961C41.5858 131.388 42.4389 130.615 43.6786 130.615C44.9049 130.615 45.7181 131.375 45.7181 132.868V137H46.9178V132.694C46.9178 130.602 45.6248 129.562 43.9985 129.562C42.9721 129.562 42.0656 129.975 41.5858 130.748V127.136H40.3727V137ZM52.0051 130.602C53.2582 130.602 54.3246 131.388 54.3112 132.814H49.6991C49.8324 131.388 50.8188 130.602 52.0051 130.602ZM55.4176 134.747H54.1113C53.8447 135.534 53.1515 136.094 52.0585 136.094C50.8188 136.094 49.779 135.28 49.6857 133.801H55.5243C55.5509 133.548 55.5643 133.334 55.5643 133.068C55.5643 131.068 54.1779 129.575 52.0585 129.575C49.9257 129.575 48.446 131.028 48.446 133.334C48.446 135.654 49.979 137.12 52.0585 137.12C53.8713 137.12 55.0444 136.08 55.4176 134.747ZM58.3784 133.028C58.3784 131.335 59.2582 130.815 60.4179 130.815H60.7379V129.562C59.5781 129.562 58.7917 130.068 58.3784 130.882V129.695H57.1654V137H58.3784V133.028Z" fill="#5D6B7E"/>
<path d="M13.7328 160H14.9993V152.279H13.7328V155.589H10.0998V152.279H8.83325V160H10.0998V156.623H13.7328V160ZM20.9329 152.267H16.6667V160H20.9329V158.967H17.9332V156.6H20.5996V155.567H17.9332V153.301H20.9329V152.267ZM27.0147 160H28.4368L26.037 156.145L28.4479 152.279H27.0369L25.3926 155.1L23.6372 152.279H22.2152L24.626 156.145L22.2263 160H23.6372L25.2704 157.2L27.0147 160Z" fill="#C2C8CF"/>
<path d="M14.3051 177.387C14.3051 178.4 13.5853 179 12.3856 179H10.2394V175.721H12.3456C13.532 175.721 14.3051 176.361 14.3051 177.387ZM14.0652 173.215C14.0652 174.161 13.412 174.721 12.2789 174.721H10.2394V171.709H12.2523C13.4386 171.709 14.0652 172.295 14.0652 173.215ZM15.5181 177.507C15.5181 176.361 14.6917 175.388 13.6786 175.215C14.5717 174.921 15.3048 174.241 15.3048 173.068C15.3048 171.775 14.3184 170.709 12.3589 170.709H9.02641V180H12.4922C14.4117 180 15.5181 178.907 15.5181 177.507ZM17.9613 180H19.1876V170.362H16.6816V171.469H17.9613V180ZM26.7499 177.387C26.7499 178.4 26.0301 179 24.8304 179H22.6842V175.721H24.7904C25.9768 175.721 26.7499 176.361 26.7499 177.387ZM26.51 173.215C26.51 174.161 25.8568 174.721 24.7237 174.721H22.6842V171.709H24.6971C25.8834 171.709 26.51 172.295 26.51 173.215ZM27.9629 177.507C27.9629 176.361 27.1365 175.388 26.1234 175.215C27.0165 174.921 27.7496 174.241 27.7496 173.068C27.7496 171.775 26.7632 170.709 24.8037 170.709H21.4712V180H24.937C26.8565 180 27.9629 178.907 27.9629 177.507ZM29.6463 180H30.8593V175.814H34.1385V174.828H30.8593V171.695H34.8983V170.709H29.6463V180ZM35.9101 175.348C35.9101 178.134 37.9496 180.08 40.5489 180.08C42.5618 180.08 44.1614 179.08 44.8545 177.294H43.4016C42.895 178.4 41.9086 179.027 40.5489 179.027C38.6028 179.027 37.1498 177.614 37.1498 175.348C37.1498 173.068 38.6028 171.655 40.5489 171.655C41.9086 171.655 42.895 172.282 43.4016 173.402H44.8545C44.1614 171.602 42.5618 170.589 40.5489 170.589C37.9496 170.589 35.9101 172.562 35.9101 175.348ZM49.5528 170.709H46.6602V180H49.5528C52.6054 180 54.4849 178.254 54.4849 175.374C54.4849 172.495 52.6054 170.709 49.5528 170.709ZM47.8733 179V171.695H49.5528C51.9789 171.695 53.2453 173.108 53.2453 175.374C53.2453 177.641 51.9789 179 49.5528 179H47.8733Z" fill="#5D6B7E"/>
<path d="M0 194H112V214C112 216.209 110.209 218 108 218H4C1.79086 218 0 216.209 0 214V194Z" fill="#EDEFF1"/>
<path d="M8.83325 210H10.0998V202.279H8.83325V210ZM16.8399 202.267V208.022L13.0292 202.267H11.7626V210H13.0292V204.234L16.8399 210H18.1065V202.267H16.8399ZM19.7697 210H21.0362V206.623H23.5915V205.589H21.0362V203.312H24.3136V202.279H19.7697V210ZM32.9533 206.123C32.9533 203.812 31.2091 202.179 29.0093 202.179C26.8317 202.179 25.0652 203.812 25.0652 206.123C25.0652 208.445 26.8317 210.078 29.0093 210.078C31.2091 210.078 32.9533 208.445 32.9533 206.123ZM26.3651 206.123C26.3651 204.378 27.4761 203.29 29.0093 203.29C30.5425 203.29 31.6535 204.378 31.6535 206.123C31.6535 207.867 30.5425 208.978 29.0093 208.978C27.4761 208.978 26.3651 207.867 26.3651 206.123ZM33.933 209.889H39.3325V208.833H35.8106C37.1105 207.645 39.1103 206.145 39.1103 204.178C39.1103 202.723 38.177 201.734 36.5327 201.734C35.0995 201.734 33.9663 202.59 33.9219 204.345H35.144C35.1773 203.434 35.655 202.812 36.5438 202.812C37.4882 202.812 37.8548 203.39 37.8548 204.234C37.8548 205.823 35.8439 207.289 33.933 208.967V209.889ZM40.4451 205.845C40.4451 208.2 41.0673 209.978 43.3337 209.978C45.6001 209.978 46.2223 208.2 46.2223 205.845C46.2223 203.534 45.6001 201.756 43.3337 201.756C41.0673 201.756 40.4451 203.534 40.4451 205.845ZM44.978 205.845C44.978 207.434 44.8113 208.822 43.3337 208.822C41.8561 208.822 41.6894 207.434 41.6894 205.845C41.6894 204.334 41.8561 202.912 43.3337 202.912C44.8113 202.912 44.978 204.334 44.978 205.845ZM47.5624 205.845C47.5624 208.2 48.1846 209.978 50.451 209.978C52.7175 209.978 53.3396 208.2 53.3396 205.845C53.3396 203.534 52.7175 201.756 50.451 201.756C48.1846 201.756 47.5624 203.534 47.5624 205.845ZM52.0953 205.845C52.0953 207.434 51.9287 208.822 50.451 208.822C48.9734 208.822 48.8068 207.434 48.8068 205.845C48.8068 204.334 48.9734 202.912 50.451 202.912C51.9287 202.912 52.0953 204.334 52.0953 205.845Z" fill="#9AA3AF"/>
</svg>
