<svg width="112" height="218" viewBox="0 0 112 218" fill="none" xmlns="http://www.w3.org/2000/svg">
<rect y="100" width="112" height="94" fill="#F9FAFA"/>
<path d="M0 4C0 1.79086 1.79086 0 4 0H108C110.209 0 112 1.79086 112 4V100H0V4Z" fill="#64768A"/>
<path d="M13.9105 109.267V115.022L10.0998 109.267H8.83325V117H10.0998V111.234L13.9105 117H15.1771V109.267H13.9105ZM22.0509 117H23.3841L20.6177 109.267H19.1511L16.3848 117H17.7068L18.2623 115.422H21.4954L22.0509 117ZM21.1398 114.389H18.6179L19.8844 110.801L21.1398 114.389ZM24.5869 117H25.8534V111.712L28.2199 117H29.0975L31.4529 111.712V117H32.7194V109.279H31.364L28.6643 115.333L25.9534 109.279H24.5869V117ZM38.6503 109.267H34.3841V117H38.6503V115.967H35.6506V113.6H38.317V112.567H35.6506V110.301H38.6503V109.267Z" fill="#C2C8CF"/>
<path d="M15.0649 134.467C15.0649 131.028 10.0528 132.521 10.0528 130.122C10.0528 129.122 10.8393 128.602 11.839 128.629C12.9721 128.642 13.5586 129.349 13.6386 129.975H14.9716C14.825 128.562 13.6653 127.589 11.8924 127.589C10.0528 127.589 8.81313 128.629 8.81313 130.162C8.81313 133.614 13.8385 132.015 13.8385 134.521C13.8385 135.4 13.1454 136.067 11.9723 136.067C10.6793 136.067 10.1328 135.294 10.0528 134.521H8.75981C8.78647 136.054 10.1061 137.093 11.9723 137.093C13.9852 137.093 15.0649 135.787 15.0649 134.467ZM17.1166 135C17.1166 136.467 17.8497 137 19.1427 137H20.2358V135.974H19.3427C18.5962 135.974 18.3296 135.72 18.3296 135V130.695H20.2358V129.695H18.3296V127.856H17.1166V129.695H16.1701V130.695H17.1166V135ZM24.8114 130.602C26.0644 130.602 27.1308 131.388 27.1175 132.814H22.5053C22.6386 131.388 23.6251 130.602 24.8114 130.602ZM28.2239 134.747H26.9176C26.651 135.534 25.9578 136.094 24.8647 136.094C23.6251 136.094 22.5853 135.28 22.492 133.801H28.3305C28.3572 133.548 28.3705 133.334 28.3705 133.068C28.3705 131.068 26.9842 129.575 24.8647 129.575C22.7319 129.575 21.2523 131.028 21.2523 133.334C21.2523 135.654 22.7853 137.12 24.8647 137.12C26.6776 137.12 27.8507 136.08 28.2239 134.747ZM33.0776 130.602C34.3306 130.602 35.397 131.388 35.3837 132.814H30.7715C30.9048 131.388 31.8912 130.602 33.0776 130.602ZM36.4901 134.747H35.1837C34.9171 135.534 34.224 136.094 33.1309 136.094C31.8912 136.094 30.8515 135.28 30.7582 133.801H36.5967C36.6234 133.548 36.6367 133.334 36.6367 133.068C36.6367 131.068 35.2504 129.575 33.1309 129.575C30.9981 129.575 29.5185 131.028 29.5185 133.334C29.5185 135.654 31.0514 137.12 33.1309 137.12C34.9438 137.12 36.1168 136.08 36.4901 134.747ZM38.2379 137H39.4509V127.136H38.2379V137ZM44.4989 128.695H47.0449V137H48.258V128.695H50.7907V127.709H44.4989V128.695ZM55.3897 130.602C56.6427 130.602 57.7091 131.388 57.6958 132.814H53.0836C53.2169 131.388 54.2033 130.602 55.3897 130.602ZM58.8022 134.747H57.4959C57.2293 135.534 56.5361 136.094 55.443 136.094C54.2033 136.094 53.1636 135.28 53.0703 133.801H58.9088C58.9355 133.548 58.9488 133.334 58.9488 133.068C58.9488 131.068 57.5625 129.575 55.443 129.575C53.3102 129.575 51.8306 131.028 51.8306 133.334C51.8306 135.654 53.3636 137.12 55.443 137.12C57.2559 137.12 58.429 136.08 58.8022 134.747ZM60.0968 133.321C60.0968 135.587 61.6031 137.12 63.5492 137.12C64.8956 137.12 65.842 136.427 66.2819 135.64V137H67.5082V129.695H66.2819V131.028C65.8553 130.268 64.9222 129.575 63.5626 129.575C61.6031 129.575 60.0968 131.041 60.0968 133.321ZM66.2819 133.334C66.2819 135.054 65.1355 136.054 63.8025 136.054C62.4695 136.054 61.3365 135.04 61.3365 133.321C61.3365 131.601 62.4695 130.628 63.8025 130.628C65.1355 130.628 66.2819 131.641 66.2819 133.334ZM69.5581 137H70.7712V127.136H69.5581V137Z" fill="#5D6B7E"/>
<path d="M13.7328 160H14.9993V152.279H13.7328V155.589H10.0998V152.279H8.83325V160H10.0998V156.623H13.7328V160ZM20.9329 152.267H16.6667V160H20.9329V158.967H17.9332V156.6H20.5996V155.567H17.9332V153.301H20.9329V152.267ZM27.0147 160H28.4368L26.037 156.145L28.4479 152.279H27.0369L25.3926 155.1L23.6372 152.279H22.2152L24.626 156.145L22.2263 160H23.6372L25.2704 157.2L27.0147 160Z" fill="#C2C8CF"/>
<path d="M15.3182 172.655C15.1582 171.309 14.2251 170.162 12.3856 170.162C9.94618 170.162 8.97309 172.029 8.97309 175.055C8.97309 177.974 9.65292 180.027 12.5055 180.027C14.6117 180.027 15.6514 178.587 15.6514 176.827C15.6514 174.801 14.4384 173.615 12.6388 173.615C11.4925 173.615 10.4394 174.148 10.0262 175.095C10.0128 172.229 10.8393 171.176 12.3722 171.176C13.4653 171.176 14.0118 171.722 14.1985 172.655H15.3182ZM12.3856 174.641C13.7719 174.641 14.4784 175.508 14.4784 176.867C14.4784 178.174 13.6919 179.014 12.4389 179.014C10.9193 179.014 10.1728 178.014 10.1728 176.734C10.1728 175.295 11.2792 174.641 12.3856 174.641ZM21.9267 180H23.1264V177.854H24.4594V176.801H23.1264V170.456H21.6735L16.9946 176.934V177.854H21.9267V180ZM18.3943 176.801L21.98 171.722V176.801H18.3943ZM25.2846 170.389V171.429H30.43L26.671 180H27.8973L31.6031 171.309V170.389H25.2846ZM39.4397 172.655C39.2798 171.309 38.3467 170.162 36.5071 170.162C34.0678 170.162 33.0947 172.029 33.0947 175.055C33.0947 177.974 33.7745 180.027 36.6271 180.027C38.7333 180.027 39.773 178.587 39.773 176.827C39.773 174.801 38.56 173.615 36.7604 173.615C35.614 173.615 34.561 174.148 34.1477 175.095C34.1344 172.229 34.9609 171.176 36.4938 171.176C37.5869 171.176 38.1334 171.722 38.32 172.655H39.4397ZM36.5071 174.641C37.8935 174.641 38.6 175.508 38.6 176.867C38.6 178.174 37.8135 179.014 36.5605 179.014C35.0408 179.014 34.2944 178.014 34.2944 176.734C34.2944 175.295 35.4008 174.641 36.5071 174.641ZM43.169 174.988C42.0893 175.308 41.3828 176.188 41.3828 177.401C41.3828 179.147 42.7558 180.267 44.7819 180.267C46.8214 180.267 48.2078 179.147 48.2078 177.401C48.2078 176.201 47.5013 175.321 46.4082 174.988C47.3546 174.615 47.9545 173.815 47.9545 172.775C47.9545 171.375 46.8748 170.216 44.7819 170.216C42.6891 170.216 41.6227 171.362 41.6227 172.775C41.6227 173.855 42.1826 174.601 43.169 174.988ZM44.7819 174.588C43.6089 174.588 42.7958 173.935 42.7958 172.935C42.7958 171.802 43.5956 171.229 44.7819 171.229C45.995 171.229 46.7814 171.815 46.7814 172.922C46.7814 173.922 45.9683 174.588 44.7819 174.588ZM44.7819 175.521C46.0483 175.521 47.0081 176.121 47.0081 177.361C47.0081 178.48 46.1549 179.254 44.7819 179.254C43.409 179.254 42.5425 178.494 42.5425 177.361C42.5425 176.081 43.5423 175.521 44.7819 175.521ZM56.2572 180H57.5369L54.1911 170.762H52.7914L49.4322 180H50.7119L51.4584 177.934H55.5107L56.2572 180ZM55.1641 176.947H51.805L53.4846 172.255L55.1641 176.947Z" fill="#5D6B7E"/>
<path d="M0 194H112V214C112 216.209 110.209 218 108 218H4C1.79086 218 0 216.209 0 214V194Z" fill="#EDEFF1"/>
<path d="M8.83325 210H10.0998V202.279H8.83325V210ZM16.8399 202.267V208.022L13.0292 202.267H11.7626V210H13.0292V204.234L16.8399 210H18.1065V202.267H16.8399ZM19.7697 210H21.0362V206.623H23.5915V205.589H21.0362V203.312H24.3136V202.279H19.7697V210ZM32.9533 206.123C32.9533 203.812 31.2091 202.179 29.0093 202.179C26.8317 202.179 25.0652 203.812 25.0652 206.123C25.0652 208.445 26.8317 210.078 29.0093 210.078C31.2091 210.078 32.9533 208.445 32.9533 206.123ZM26.3651 206.123C26.3651 204.378 27.4761 203.29 29.0093 203.29C30.5425 203.29 31.6535 204.378 31.6535 206.123C31.6535 207.867 30.5425 208.978 29.0093 208.978C27.4761 208.978 26.3651 207.867 26.3651 206.123ZM34.3663 201.879V206.556H35.5662C35.7773 205.956 36.2772 205.545 37.0216 205.545C38.077 205.545 38.5992 206.145 38.5992 207.2C38.5992 208.2 38.1104 208.945 37.0216 208.945C36.1661 208.945 35.5884 208.5 35.4217 207.811H34.1885C34.3774 209.078 35.344 210 37.0105 210C38.8881 210 39.8102 208.778 39.8102 207.167C39.8102 205.945 39.1991 204.467 37.2104 204.467C36.4883 204.467 35.8328 204.801 35.5328 205.2V202.99H39.2547V201.879H34.3663ZM41.1286 205.845C41.1286 208.2 41.7508 209.978 44.0172 209.978C46.2837 209.978 46.9058 208.2 46.9058 205.845C46.9058 203.534 46.2837 201.756 44.0172 201.756C41.7508 201.756 41.1286 203.534 41.1286 205.845ZM45.6615 205.845C45.6615 207.434 45.4949 208.822 44.0172 208.822C42.5396 208.822 42.373 207.434 42.373 205.845C42.373 204.334 42.5396 202.912 44.0172 202.912C45.4949 202.912 45.6615 204.334 45.6615 205.845ZM48.246 205.845C48.246 208.2 48.8681 209.978 51.1346 209.978C53.401 209.978 54.0232 208.2 54.0232 205.845C54.0232 203.534 53.401 201.756 51.1346 201.756C48.8681 201.756 48.246 203.534 48.246 205.845ZM52.7789 205.845C52.7789 207.434 52.6122 208.822 51.1346 208.822C49.6569 208.822 49.4903 207.434 49.4903 205.845C49.4903 204.334 49.6569 202.912 51.1346 202.912C52.6122 202.912 52.7789 204.334 52.7789 205.845Z" fill="#9AA3AF"/>
</svg>
