<svg width="176" height="218" viewBox="0 0 176 218" fill="none" xmlns="http://www.w3.org/2000/svg">
<rect y="100" width="176" height="94" fill="#F9FAFA"/>
<path d="M0 194H176V214C176 216.209 174.209 218 172 218H4C1.79086 218 0 216.209 0 214V194Z" fill="#EDEFF1"/>
<path d="M0 4C0 1.79086 1.79086 0 4 0H172C174.209 0 176 1.79086 176 4V100H0V4Z" fill="#7D94AC"/>
<path d="M13.9105 109.267V115.022L10.0998 109.267H8.83325V117H10.0998V111.234L13.9105 117H15.1771V109.267H13.9105ZM22.0509 117H23.3841L20.6177 109.267H19.1511L16.3848 117H17.7068L18.2623 115.422H21.4954L22.0509 117ZM21.1398 114.389H18.6179L19.8844 110.801L21.1398 114.389ZM24.5869 117H25.8534V111.712L28.2199 117H29.0975L31.4529 111.712V117H32.7194V109.279H31.364L28.6643 115.333L25.9534 109.279H24.5869V117ZM38.6503 109.267H34.3841V117H38.6503V115.967H35.6506V113.6H38.317V112.567H35.6506V110.301H38.6503V109.267Z" fill="#C2C8CF"/>
<path d="M10.9059 137.013L12.2523 137L14.4917 129.522L16.6512 137H18.0108L20.7035 127.709H19.3972L17.3577 135.56L15.2249 127.709H13.8652L11.6258 135.587L9.5996 127.709H8.30659L10.9059 137.013ZM25.1369 130.602C26.3899 130.602 27.4563 131.388 27.443 132.814H22.8308C22.9641 131.388 23.9505 130.602 25.1369 130.602ZM28.5493 134.747H27.243C26.9764 135.534 26.2832 136.094 25.1902 136.094C23.9505 136.094 22.9108 135.28 22.8174 133.801H28.656C28.6826 133.548 28.696 133.334 28.696 133.068C28.696 131.068 27.3097 129.575 25.1902 129.575C23.0574 129.575 21.5778 131.028 21.5778 133.334C21.5778 135.654 23.1107 137.12 25.1902 137.12C27.0031 137.12 28.1761 136.08 28.5493 134.747ZM30.2971 137H31.5102V127.136H30.2971V137ZM33.1243 133.321C33.1243 135.587 34.6306 137.12 36.5901 137.12C37.9231 137.12 38.8696 136.44 39.3095 135.627V137H40.5358V127.136H39.3095V131.001C38.8029 130.162 37.7499 129.575 36.6035 129.575C34.6306 129.575 33.1243 131.041 33.1243 133.321ZM39.3095 133.334C39.3095 135.054 38.1631 136.054 36.8301 136.054C35.4971 136.054 34.364 135.04 34.364 133.321C34.364 131.601 35.4971 130.628 36.8301 130.628C38.1631 130.628 39.3095 131.641 39.3095 133.334ZM49.5173 133.334C49.5173 131.028 47.9044 129.575 45.8249 129.575C43.7588 129.575 42.1325 131.028 42.1325 133.334C42.1325 135.654 43.7054 137.12 45.7716 137.12C47.8511 137.12 49.5173 135.654 49.5173 133.334ZM43.3722 133.334C43.3722 131.495 44.5319 130.628 45.8116 130.628C47.0646 130.628 48.2776 131.495 48.2776 133.334C48.2776 135.187 47.0379 136.054 45.7716 136.054C44.5052 136.054 43.3722 135.187 43.3722 133.334ZM56.4576 137H57.6573V132.694C57.6573 130.602 56.3643 129.562 54.6714 129.562C53.6849 129.562 52.8052 129.975 52.3253 130.735V129.695H51.1122V137H52.3253V132.961C52.3253 131.388 53.1784 130.615 54.4181 130.615C55.6444 130.615 56.4576 131.375 56.4576 132.868V137ZM68.4712 134.387C68.4712 135.4 67.7514 136 66.5517 136H64.4056V132.721H66.5117C67.6981 132.721 68.4712 133.361 68.4712 134.387ZM68.2313 130.215C68.2313 131.161 67.5781 131.721 66.4451 131.721H64.4056V128.709H66.4184C67.6048 128.709 68.2313 129.295 68.2313 130.215ZM69.6843 134.507C69.6843 133.361 68.8578 132.388 67.8447 132.215C68.7378 131.921 69.471 131.241 69.471 130.068C69.471 128.775 68.4846 127.709 66.5251 127.709H63.1926V137H66.6584C68.5779 137 69.6843 135.907 69.6843 134.507ZM71.3676 137H72.5806V127.136H71.3676V137ZM81.1264 129.695H79.9134V133.707C79.9134 135.28 79.0736 136.054 77.8206 136.054C76.5942 136.054 75.7811 135.294 75.7811 133.814V129.695H74.5814V133.974C74.5814 136.067 75.901 137.107 77.5806 137.107C78.5537 137.107 79.4468 136.68 79.9134 135.92V137H81.1264V129.695ZM86.2804 130.602C87.5334 130.602 88.5998 131.388 88.5865 132.814H83.9743C84.1076 131.388 85.0941 130.602 86.2804 130.602ZM89.6929 134.747H88.3866C88.12 135.534 87.4268 136.094 86.3337 136.094C85.0941 136.094 84.0543 135.28 83.961 133.801H89.7995C89.8262 133.548 89.8395 133.334 89.8395 133.068C89.8395 131.068 88.4532 129.575 86.3337 129.575C84.2009 129.575 82.7213 131.028 82.7213 133.334C82.7213 135.654 84.2543 137.12 86.3337 137.12C88.1466 137.12 89.3197 136.08 89.6929 134.747Z" fill="#5D6B7E"/>
<path d="M8.83325 210H10.0998V202.279H8.83325V210ZM16.8399 202.267V208.022L13.0292 202.267H11.7626V210H13.0292V204.234L16.8399 210H18.1065V202.267H16.8399ZM19.7697 210H21.0362V206.623H23.5915V205.589H21.0362V203.312H24.3136V202.279H19.7697V210ZM32.9533 206.123C32.9533 203.812 31.2091 202.179 29.0093 202.179C26.8317 202.179 25.0652 203.812 25.0652 206.123C25.0652 208.445 26.8317 210.078 29.0093 210.078C31.2091 210.078 32.9533 208.445 32.9533 206.123ZM26.3651 206.123C26.3651 204.378 27.4761 203.29 29.0093 203.29C30.5425 203.29 31.6535 204.378 31.6535 206.123C31.6535 207.867 30.5425 208.978 29.0093 208.978C27.4761 208.978 26.3651 207.867 26.3651 206.123ZM37.8993 210H39.1436V208.311H40.1768V207.211H39.1436V202.001H37.6104L33.8774 207.356V208.311H37.8993V210ZM35.3329 207.211L37.9548 203.29V207.211H35.3329ZM41.2263 205.845C41.2263 208.2 41.8484 209.978 44.1149 209.978C46.3813 209.978 47.0035 208.2 47.0035 205.845C47.0035 203.534 46.3813 201.756 44.1149 201.756C41.8484 201.756 41.2263 203.534 41.2263 205.845ZM45.7592 205.845C45.7592 207.434 45.5925 208.822 44.1149 208.822C42.6372 208.822 42.4706 207.434 42.4706 205.845C42.4706 204.334 42.6372 202.912 44.1149 202.912C45.5925 202.912 45.7592 204.334 45.7592 205.845ZM48.3436 205.845C48.3436 208.2 48.9658 209.978 51.2322 209.978C53.4987 209.978 54.1208 208.2 54.1208 205.845C54.1208 203.534 53.4987 201.756 51.2322 201.756C48.9658 201.756 48.3436 203.534 48.3436 205.845ZM52.8765 205.845C52.8765 207.434 52.7099 208.822 51.2322 208.822C49.7546 208.822 49.5879 207.434 49.5879 205.845C49.5879 204.334 49.7546 202.912 51.2322 202.912C52.7099 202.912 52.8765 204.334 52.8765 205.845Z" fill="#9AA3AF"/>
<path d="M117.733 160H118.999V152.279H117.733V155.589H114.1V152.279H112.833V160H114.1V156.623H117.733V160ZM124.933 152.267H120.667V160H124.933V158.967H121.933V156.6H124.6V155.567H121.933V153.301H124.933V152.267ZM131.015 160H132.437L130.037 156.145L132.448 152.279H131.037L129.393 155.1L127.637 152.279H126.215L128.626 156.145L126.226 160H127.637L129.27 157.2L131.015 160Z" fill="#C2C8CF"/>
<path d="M112.44 170.389V171.429H117.585L113.826 180H115.053L118.758 171.309V170.389H112.44ZM123.196 170.709H120.303V180H123.196C126.248 180 128.128 178.254 128.128 175.374C128.128 172.495 126.248 170.709 123.196 170.709ZM121.516 179V171.695H123.196C125.622 171.695 126.888 173.108 126.888 175.374C126.888 177.641 125.622 179 123.196 179H121.516ZM129.968 177.414C130.101 178.827 131.034 180.013 132.954 180.013C135.487 180.013 136.22 178.214 136.22 175.001C136.22 172.015 135.46 170.176 132.847 170.176C130.768 170.176 129.675 171.509 129.675 173.348C129.675 175.388 130.994 176.494 132.767 176.494C133.807 176.494 134.767 176.028 135.153 175.215C135.193 178.04 134.433 179 133.02 179C131.901 179 131.261 178.414 131.088 177.414H129.968ZM132.967 175.468C131.528 175.468 130.834 174.561 130.834 173.322C130.834 172.042 131.621 171.189 132.874 171.189C134.26 171.189 135.007 172.109 135.007 173.415C135.007 174.708 134.127 175.468 132.967 175.468ZM142.563 180H143.763V177.854H145.096V176.801H143.763V170.456H142.31L137.631 176.934V177.854H142.563V180ZM139.031 176.801L142.617 171.722V176.801H139.031ZM152.746 180H154.026L150.68 170.762H149.28L145.921 180H147.201L147.947 177.934H152L152.746 180ZM151.653 176.947H148.294L149.973 172.255L151.653 176.947ZM155.037 175.348C155.037 178.134 157.076 180.08 159.675 180.08C161.688 180.08 163.288 179.08 163.981 177.294H162.528C162.021 178.4 161.035 179.027 159.675 179.027C157.729 179.027 156.276 177.614 156.276 175.348C156.276 173.068 157.729 171.655 159.675 171.655C161.035 171.655 162.021 172.282 162.528 173.402H163.981C163.288 171.602 161.688 170.589 159.675 170.589C157.076 170.589 155.037 172.562 155.037 175.348Z" fill="#5D6B7E"/>
<path d="M12.9328 154.589C12.9328 155.356 12.4884 155.9 11.4997 155.9H10.0998V153.312H11.4997C12.4884 153.312 12.9328 153.812 12.9328 154.589ZM8.83325 152.279V160H10.0998V156.911H11.0664L12.844 160H14.3549L12.444 156.8C13.7439 156.478 14.2327 155.5 14.2327 154.589C14.2327 153.334 13.3328 152.279 11.4997 152.279H8.83325ZM19.3748 152.179C17.1973 152.179 15.4308 153.812 15.4308 156.123C15.4308 158.445 17.1973 160.067 19.3748 160.067C21.4524 160.067 22.9633 158.545 23.1967 156.756V155.767H18.9415V156.778H21.8412C21.6524 158.078 20.7747 158.922 19.3748 158.922C17.8416 158.922 16.7306 157.822 16.7306 156.123C16.7306 154.423 17.8416 153.334 19.3748 153.334C20.2969 153.334 21.0302 153.723 21.4413 154.501H22.9633C22.3745 152.99 20.9858 152.179 19.3748 152.179ZM28.801 157.789C28.801 158.533 28.2788 158.967 27.4233 158.967H25.7124V156.556H27.3789C28.2232 156.556 28.801 157.023 28.801 157.789ZM28.601 154.423C28.601 155.134 28.101 155.523 27.2789 155.523H25.7124V153.312H27.2789C28.101 153.312 28.601 153.723 28.601 154.423ZM30.0675 157.922C30.0675 157 29.4009 156.178 28.5788 156.034C29.3231 155.767 29.8897 155.2 29.8897 154.267C29.8897 153.178 29.0232 152.279 27.39 152.279H24.4458V160H27.5344C29.112 160 30.0675 159.1 30.0675 157.922Z" fill="#C2C8CF"/>
<path d="M9.78622 180H11.0126V170.362H8.50654V171.469H9.78622V180ZM12.9496 179.893H19.3613V178.88H14.7758C16.4954 177.481 19.0814 175.441 19.0814 173.042C19.0814 171.256 17.9084 170.189 16.0955 170.189C14.3626 170.189 13.0696 171.256 12.9896 173.308H14.1626C14.2159 172.095 14.8558 171.229 16.1088 171.229C17.4151 171.229 17.8817 172.029 17.8817 173.095C17.8817 175.068 15.4823 176.987 12.9496 179.027V179.893ZM21.1102 170.349V175.788H22.2565C22.5765 175.028 23.2829 174.521 24.256 174.521C25.6557 174.521 26.3622 175.321 26.3622 176.694C26.3622 178.014 25.709 179 24.2427 179C23.1097 179 22.3232 178.4 22.0966 177.387H20.9102C21.1501 178.947 22.3099 180.027 24.2294 180.027C26.4821 180.027 27.5219 178.534 27.5219 176.668C27.5219 175.175 26.7754 173.482 24.4293 173.482C23.4829 173.482 22.6298 173.908 22.2299 174.455V171.415H26.9087V170.349H21.1102ZM28.2808 181.906H29.0939L30.5869 178.32H29.2539L28.2808 181.906ZM36.29 180H37.5164V170.362H35.0103V171.469H36.29V180ZM44.2389 180H45.4386V177.854H46.7716V176.801H45.4386V170.456H43.9856L39.3068 176.934V177.854H44.2389V180ZM40.7064 176.801L44.2922 171.722V176.801H40.7064ZM49.7429 174.988C48.6632 175.308 47.9567 176.188 47.9567 177.401C47.9567 179.147 49.3297 180.267 51.3558 180.267C53.3953 180.267 54.7816 179.147 54.7816 177.401C54.7816 176.201 54.0751 175.321 52.9821 174.988C53.9285 174.615 54.5284 173.815 54.5284 172.775C54.5284 171.375 53.4486 170.216 51.3558 170.216C49.263 170.216 48.1966 171.362 48.1966 172.775C48.1966 173.855 48.7565 174.601 49.7429 174.988ZM51.3558 174.588C50.1828 174.588 49.3697 173.935 49.3697 172.935C49.3697 171.802 50.1695 171.229 51.3558 171.229C52.5689 171.229 53.3553 171.815 53.3553 172.922C53.3553 173.922 52.5422 174.588 51.3558 174.588ZM51.3558 175.521C52.6222 175.521 53.5819 176.121 53.5819 177.361C53.5819 178.48 52.7288 179.254 51.3558 179.254C49.9828 179.254 49.1164 178.494 49.1164 177.361C49.1164 176.081 50.1161 175.521 51.3558 175.521ZM55.5396 181.906H56.3527L57.8457 178.32H56.5127L55.5396 181.906ZM63.5488 180H64.7752V170.362H62.2691V171.469H63.5488V180ZM66.4723 170.389V171.429H71.6176L67.8586 180H69.0849L72.7907 171.309V170.389H66.4723ZM73.989 179.893H80.4007V178.88H75.8152C77.5348 177.481 80.1208 175.441 80.1208 173.042C80.1208 171.256 78.9478 170.189 77.1349 170.189C75.402 170.189 74.109 171.256 74.029 173.308H75.202C75.2554 172.095 75.8952 171.229 77.1482 171.229C78.4546 171.229 78.9211 172.029 78.9211 173.095C78.9211 175.068 76.5217 176.987 73.989 179.027V179.893Z" fill="#5D6B7E"/>
</svg>
