<svg width="176" height="218" viewBox="0 0 176 218" fill="none" xmlns="http://www.w3.org/2000/svg">
<rect y="100" width="176" height="94" fill="#F9FAFA"/>
<path d="M0 194H176V214C176 216.209 174.209 218 172 218H4C1.79086 218 0 216.209 0 214V194Z" fill="#EDEFF1"/>
<path d="M0 4C0 1.79086 1.79086 0 4 0H172C174.209 0 176 1.79086 176 4V100H0V4Z" fill="#FF8A3D"/>
<path d="M13.9105 109.267V115.022L10.0998 109.267H8.83325V117H10.0998V111.234L13.9105 117H15.1771V109.267H13.9105ZM22.0509 117H23.3841L20.6177 109.267H19.1511L16.3848 117H17.7068L18.2623 115.422H21.4954L22.0509 117ZM21.1398 114.389H18.6179L19.8844 110.801L21.1398 114.389ZM24.5869 117H25.8534V111.712L28.2199 117H29.0975L31.4529 111.712V117H32.7194V109.279H31.364L28.6643 115.333L25.9534 109.279H24.5869V117ZM38.6503 109.267H34.3841V117H38.6503V115.967H35.6506V113.6H38.317V112.567H35.6506V110.301H38.6503V109.267Z" fill="#C2C8CF"/>
<path d="M9.02641 137H10.2394V130.108L13.3187 137H14.1718L17.2377 130.122V137H18.4507V127.776H17.1577L13.7452 135.4L10.3328 127.776H9.02641V137ZM20.0547 133.321C20.0547 135.587 21.561 137.12 23.5072 137.12C24.8535 137.12 25.7999 136.427 26.2398 135.64V137H27.4662V129.695H26.2398V131.028C25.8133 130.268 24.8802 129.575 23.5205 129.575C21.561 129.575 20.0547 131.041 20.0547 133.321ZM26.2398 133.334C26.2398 135.054 25.0934 136.054 23.7604 136.054C22.4274 136.054 21.2944 135.04 21.2944 133.321C21.2944 131.601 22.4274 130.628 23.7604 130.628C25.0934 130.628 26.2398 131.641 26.2398 133.334ZM34.8614 137H36.0611V132.694C36.0611 130.602 34.7681 129.562 33.0752 129.562C32.0888 129.562 31.209 129.975 30.7291 130.735V129.695H29.5161V137H30.7291V132.961C30.7291 131.388 31.5822 130.615 32.8219 130.615C34.0483 130.615 34.8614 131.375 34.8614 132.868V137ZM37.5894 133.321C37.5894 135.587 39.0957 137.12 41.0552 137.12C42.3882 137.12 43.3346 136.413 43.7745 135.627V137.16C43.7745 138.72 42.8014 139.546 41.5084 139.546C40.3087 139.546 39.4422 138.946 39.1756 138.066H37.9759C38.2159 139.626 39.5889 140.599 41.5084 140.599C43.6545 140.599 45.0009 139.173 45.0009 137.16V129.695H43.7745V131.028C43.3479 130.242 42.3882 129.575 41.0552 129.575C39.0957 129.575 37.5894 131.041 37.5894 133.321ZM43.7745 133.334C43.7745 135.054 42.6281 136.054 41.2951 136.054C39.9621 136.054 38.8291 135.04 38.8291 133.321C38.8291 131.601 39.9621 130.628 41.2951 130.628C42.6281 130.628 43.7745 131.641 43.7745 133.334ZM53.9824 133.334C53.9824 131.028 52.3694 129.575 50.2899 129.575C48.2238 129.575 46.5975 131.028 46.5975 133.334C46.5975 135.654 48.1705 137.12 50.2366 137.12C52.3161 137.12 53.9824 135.654 53.9824 133.334ZM47.8372 133.334C47.8372 131.495 48.9969 130.628 50.2766 130.628C51.5296 130.628 52.7427 131.495 52.7427 133.334C52.7427 135.187 51.503 136.054 50.2366 136.054C48.9703 136.054 47.8372 135.187 47.8372 133.334ZM58.5579 128.695H61.1039V137H62.3169V128.695H64.8496V127.709H58.5579V128.695ZM65.8896 133.321C65.8896 135.587 67.3959 137.12 69.3421 137.12C70.6884 137.12 71.6348 136.427 72.0747 135.64V137H73.3011V129.695H72.0747V131.028C71.6481 130.268 70.715 129.575 69.3554 129.575C67.3959 129.575 65.8896 131.041 65.8896 133.321ZM72.0747 133.334C72.0747 135.054 70.9283 136.054 69.5953 136.054C68.2623 136.054 67.1293 135.04 67.1293 133.321C67.1293 131.601 68.2623 130.628 69.5953 130.628C70.9283 130.628 72.0747 131.641 72.0747 133.334ZM80.6963 137H81.896V132.694C81.896 130.602 80.603 129.562 78.9101 129.562C77.9237 129.562 77.0439 129.975 76.564 130.735V129.695H75.351V137H76.564V132.961C76.564 131.388 77.4171 130.615 78.6568 130.615C79.8832 130.615 80.6963 131.375 80.6963 132.868V137ZM83.4243 133.321C83.4243 135.587 84.9306 137.12 86.8901 137.12C88.2231 137.12 89.1695 136.413 89.6094 135.627V137.16C89.6094 138.72 88.6363 139.546 87.3433 139.546C86.1436 139.546 85.2771 138.946 85.0105 138.066H83.8108C84.0508 139.626 85.4238 140.599 87.3433 140.599C89.4894 140.599 90.8357 139.173 90.8357 137.16V129.695H89.6094V131.028C89.1828 130.242 88.2231 129.575 86.8901 129.575C84.9306 129.575 83.4243 131.041 83.4243 133.321ZM89.6094 133.334C89.6094 135.054 88.463 136.054 87.13 136.054C85.797 136.054 84.664 135.04 84.664 133.321C84.664 131.601 85.797 130.628 87.13 130.628C88.463 130.628 89.6094 131.641 89.6094 133.334ZM99.8172 133.334C99.8172 131.028 98.2043 129.575 96.1248 129.575C94.0587 129.575 92.4324 131.028 92.4324 133.334C92.4324 135.654 94.0054 137.12 96.0715 137.12C98.151 137.12 99.8172 135.654 99.8172 133.334ZM93.6721 133.334C93.6721 131.495 94.8318 130.628 96.1115 130.628C97.3645 130.628 98.5776 131.495 98.5776 133.334C98.5776 135.187 97.3379 136.054 96.0715 136.054C94.8052 136.054 93.6721 135.187 93.6721 133.334Z" fill="#5D6B7E"/>
<path d="M8.83325 210H10.0998V204.712L12.4662 210H13.3439L15.6992 204.712V210H16.9658V202.279H15.6104L12.9106 208.333L10.1998 202.279H8.83325V210ZM22.8967 202.267H18.6304V210H22.8967V208.967H19.897V206.6H22.5634V205.567H19.897V203.301H22.8967V202.267ZM24.4567 210H25.7232V204.712L28.0897 210H28.9673L31.3227 204.712V210H32.5892V202.279H31.2338L28.5341 208.333L25.8232 202.279H24.4567V210ZM38.609 207.789C38.609 208.533 38.0868 208.967 37.2314 208.967H35.5204V206.556H37.1869C38.0313 206.556 38.609 207.023 38.609 207.789ZM38.409 204.423C38.409 205.134 37.9091 205.523 37.0869 205.523H35.5204V203.312H37.0869C37.9091 203.312 38.409 203.723 38.409 204.423ZM39.8755 207.922C39.8755 207 39.2089 206.178 38.3868 206.034C39.1312 205.767 39.6978 205.2 39.6978 204.267C39.6978 203.178 38.8312 202.279 37.198 202.279H34.2539V210H37.3425C38.9201 210 39.8755 209.1 39.8755 207.922ZM45.5181 202.267H41.2519V210H45.5181V208.967H42.5184V206.6H45.1848V205.567H42.5184V203.301H45.5181V202.267ZM51.1777 204.589C51.1777 205.356 50.7333 205.9 49.7445 205.9H48.3447V203.312H49.7445C50.7333 203.312 51.1777 203.812 51.1777 204.589ZM47.0781 202.279V210H48.3447V206.911H49.3112L51.0888 210H52.5998L50.6889 206.8C51.9887 206.478 52.4776 205.5 52.4776 204.589C52.4776 203.334 51.5777 202.279 49.7445 202.279H47.0781ZM57.7974 210H59.0418V208.311H60.075V207.211H59.0418V202.001H57.5086L53.7756 207.356V208.311H57.7974V210ZM55.231 207.211L57.853 203.29V207.211H55.231ZM61.1245 205.845C61.1245 208.2 61.7466 209.978 64.0131 209.978C66.2795 209.978 66.9017 208.2 66.9017 205.845C66.9017 203.534 66.2795 201.756 64.0131 201.756C61.7466 201.756 61.1245 203.534 61.1245 205.845ZM65.6573 205.845C65.6573 207.434 65.4907 208.822 64.0131 208.822C62.5354 208.822 62.3688 207.434 62.3688 205.845C62.3688 204.334 62.5354 202.912 64.0131 202.912C65.4907 202.912 65.6573 204.334 65.6573 205.845ZM68.2418 205.845C68.2418 208.2 68.864 209.978 71.1304 209.978C73.3968 209.978 74.019 208.2 74.019 205.845C74.019 203.534 73.3968 201.756 71.1304 201.756C68.864 201.756 68.2418 203.534 68.2418 205.845ZM72.7747 205.845C72.7747 207.434 72.608 208.822 71.1304 208.822C69.6528 208.822 69.4861 207.434 69.4861 205.845C69.4861 204.334 69.6528 202.912 71.1304 202.912C72.608 202.912 72.7747 204.334 72.7747 205.845Z" fill="#9AA3AF"/>
<path d="M117.733 160H118.999V152.279H117.733V155.589H114.1V152.279H112.833V160H114.1V156.623H117.733V160ZM124.933 152.267H120.667V160H124.933V158.967H121.933V156.6H124.6V155.567H121.933V153.301H124.933V152.267ZM131.015 160H132.437L130.037 156.145L132.448 152.279H131.037L129.393 155.1L127.637 152.279H126.215L128.626 156.145L126.226 160H127.637L129.27 157.2L131.015 160Z" fill="#C2C8CF"/>
<path d="M113.026 180H114.239V175.814H117.519V174.828H114.239V171.695H118.278V170.709H113.026V180ZM119.743 180H120.957V175.814H124.236V174.828H120.957V171.695H124.996V170.709H119.743V180ZM128.02 174.988C126.94 175.308 126.234 176.188 126.234 177.401C126.234 179.147 127.607 180.267 129.633 180.267C131.673 180.267 133.059 179.147 133.059 177.401C133.059 176.201 132.352 175.321 131.259 174.988C132.206 174.615 132.806 173.815 132.806 172.775C132.806 171.375 131.726 170.216 129.633 170.216C127.54 170.216 126.474 171.362 126.474 172.775C126.474 173.855 127.034 174.601 128.02 174.988ZM129.633 174.588C128.46 174.588 127.647 173.935 127.647 172.935C127.647 171.802 128.447 171.229 129.633 171.229C130.846 171.229 131.633 171.815 131.633 172.922C131.633 173.922 130.819 174.588 129.633 174.588ZM129.633 175.521C130.899 175.521 131.859 176.121 131.859 177.361C131.859 178.48 131.006 179.254 129.633 179.254C128.26 179.254 127.394 178.494 127.394 177.361C127.394 176.081 128.393 175.521 129.633 175.521ZM141.108 180H142.388L139.042 170.762H137.643L134.283 180H135.563L136.31 177.934H140.362L141.108 180ZM140.015 176.947H136.656L138.336 172.255L140.015 176.947ZM143.625 172.788H144.812C144.932 171.855 145.612 171.216 146.745 171.216C147.904 171.216 148.518 171.855 148.518 172.775C148.518 173.895 147.651 174.388 146.038 174.401H145.718V175.414H146.025C147.758 175.414 148.704 175.934 148.704 177.294C148.704 178.28 148.091 179.04 146.798 179.04C145.518 179.04 144.772 178.254 144.652 177.227H143.479C143.625 179.094 144.985 180.067 146.811 180.067C148.824 180.067 149.864 178.894 149.864 177.401C149.864 176.014 149.104 175.188 147.984 174.921V174.855C148.997 174.628 149.691 173.762 149.691 172.655C149.691 171.269 148.664 170.176 146.785 170.176C144.998 170.176 143.745 171.136 143.625 172.788ZM154.594 170.709H151.702V180H154.594C157.647 180 159.526 178.254 159.526 175.374C159.526 172.495 157.647 170.709 154.594 170.709ZM152.915 179V171.695H154.594C157.02 171.695 158.287 173.108 158.287 175.374C158.287 177.641 157.02 179 154.594 179H152.915Z" fill="#5D6B7E"/>
<path d="M12.9328 154.589C12.9328 155.356 12.4884 155.9 11.4997 155.9H10.0998V153.312H11.4997C12.4884 153.312 12.9328 153.812 12.9328 154.589ZM8.83325 152.279V160H10.0998V156.911H11.0664L12.844 160H14.3549L12.444 156.8C13.7439 156.478 14.2327 155.5 14.2327 154.589C14.2327 153.334 13.3328 152.279 11.4997 152.279H8.83325ZM19.3748 152.179C17.1973 152.179 15.4308 153.812 15.4308 156.123C15.4308 158.445 17.1973 160.067 19.3748 160.067C21.4524 160.067 22.9633 158.545 23.1967 156.756V155.767H18.9415V156.778H21.8412C21.6524 158.078 20.7747 158.922 19.3748 158.922C17.8416 158.922 16.7306 157.822 16.7306 156.123C16.7306 154.423 17.8416 153.334 19.3748 153.334C20.2969 153.334 21.0302 153.723 21.4413 154.501H22.9633C22.3745 152.99 20.9858 152.179 19.3748 152.179ZM28.801 157.789C28.801 158.533 28.2788 158.967 27.4233 158.967H25.7124V156.556H27.3789C28.2232 156.556 28.801 157.023 28.801 157.789ZM28.601 154.423C28.601 155.134 28.101 155.523 27.2789 155.523H25.7124V153.312H27.2789C28.101 153.312 28.601 153.723 28.601 154.423ZM30.0675 157.922C30.0675 157 29.4009 156.178 28.5788 156.034C29.3231 155.767 29.8897 155.2 29.8897 154.267C29.8897 153.178 29.0232 152.279 27.39 152.279H24.4458V160H27.5344C29.112 160 30.0675 159.1 30.0675 157.922Z" fill="#C2C8CF"/>
<path d="M8.67983 179.893H15.0916V178.88H10.506C12.2256 177.481 14.8116 175.441 14.8116 173.042C14.8116 171.256 13.6386 170.189 11.8257 170.189C10.0928 170.189 8.7998 171.256 8.71982 173.308H9.89286C9.94618 172.095 10.586 171.229 11.839 171.229C13.1454 171.229 13.6119 172.029 13.6119 173.095C13.6119 175.068 11.2125 176.987 8.67983 179.027V179.893ZM16.8404 170.349V175.788H17.9868C18.3067 175.028 19.0132 174.521 19.9863 174.521C21.3859 174.521 22.0924 175.321 22.0924 176.694C22.0924 178.014 21.4392 179 19.9729 179C18.8399 179 18.0534 178.4 17.8268 177.387H16.6404C16.8804 178.947 18.0401 180.027 19.9596 180.027C22.2124 180.027 23.2521 178.534 23.2521 176.668C23.2521 175.175 22.5056 173.482 20.1596 173.482C19.2131 173.482 18.36 173.908 17.9601 174.455V171.415H22.6389V170.349H16.8404ZM25.2107 170.349V175.788H26.3571C26.677 175.028 27.3835 174.521 28.3566 174.521C29.7562 174.521 30.4627 175.321 30.4627 176.694C30.4627 178.014 29.8095 179 28.3432 179C27.2102 179 26.4237 178.4 26.1971 177.387H25.0107C25.2507 178.947 26.4104 180.027 28.3299 180.027C30.5827 180.027 31.6224 178.534 31.6224 176.668C31.6224 175.175 30.8759 173.482 28.5299 173.482C27.5834 173.482 26.7303 173.908 26.3304 174.455V171.415H31.0092V170.349H25.2107ZM32.3813 181.906H33.1944L34.6874 178.32H33.3544L32.3813 181.906ZM40.3905 180H41.6169V170.362H39.1109V171.469H40.3905V180ZM43.6739 172.788H44.8603C44.9802 171.855 45.6601 171.216 46.7931 171.216C47.9528 171.216 48.566 171.855 48.566 172.775C48.566 173.895 47.6996 174.388 46.0866 174.401H45.7667V175.414H46.0733C47.8062 175.414 48.7526 175.934 48.7526 177.294C48.7526 178.28 48.1394 179.04 46.8464 179.04C45.5668 179.04 44.8203 178.254 44.7003 177.227H43.5273C43.6739 179.094 45.0336 180.067 46.8598 180.067C48.8726 180.067 49.9123 178.894 49.9123 177.401C49.9123 176.014 49.1525 175.188 48.0328 174.921V174.855C49.0459 174.628 49.739 173.762 49.739 172.655C49.739 171.269 48.7126 170.176 46.8331 170.176C45.0469 170.176 43.7939 171.136 43.6739 172.788ZM53.3097 174.988C52.23 175.308 51.5235 176.188 51.5235 177.401C51.5235 179.147 52.8965 180.267 54.9226 180.267C56.9621 180.267 58.3485 179.147 58.3485 177.401C58.3485 176.201 57.642 175.321 56.5489 174.988C57.4953 174.615 58.0952 173.815 58.0952 172.775C58.0952 171.375 57.0155 170.216 54.9226 170.216C52.8298 170.216 51.7634 171.362 51.7634 172.775C51.7634 173.855 52.3233 174.601 53.3097 174.988ZM54.9226 174.588C53.7496 174.588 52.9365 173.935 52.9365 172.935C52.9365 171.802 53.7363 171.229 54.9226 171.229C56.1357 171.229 56.9221 171.815 56.9221 172.922C56.9221 173.922 56.109 174.588 54.9226 174.588ZM54.9226 175.521C56.189 175.521 57.1488 176.121 57.1488 177.361C57.1488 178.48 56.2956 179.254 54.9226 179.254C53.5497 179.254 52.6832 178.494 52.6832 177.361C52.6832 176.081 53.683 175.521 54.9226 175.521ZM59.1064 181.906H59.9195L61.4125 178.32H60.0795L59.1064 181.906ZM72.6476 172.655C72.4876 171.309 71.5545 170.162 69.715 170.162C67.2756 170.162 66.3025 172.029 66.3025 175.055C66.3025 177.974 66.9823 180.027 69.835 180.027C71.9411 180.027 72.9808 178.587 72.9808 176.827C72.9808 174.801 71.7678 173.615 69.9683 173.615C68.8219 173.615 67.7688 174.148 67.3556 175.095C67.3422 172.229 68.1687 171.176 69.7017 171.176C70.7947 171.176 71.3412 171.722 71.5279 172.655H72.6476ZM69.715 174.641C71.1013 174.641 71.8078 175.508 71.8078 176.867C71.8078 178.174 71.0213 179.014 69.7683 179.014C68.2487 179.014 67.5022 178.014 67.5022 176.734C67.5022 175.295 68.6086 174.641 69.715 174.641ZM75.5771 180H76.8034V170.362H74.2974V171.469H75.5771V180Z" fill="#5D6B7E"/>
</svg>
