<svg width="112" height="218" viewBox="0 0 112 218" fill="none" xmlns="http://www.w3.org/2000/svg">
<rect y="100" width="112" height="94" fill="#F9FAFA"/>
<path d="M0 4C0 1.79086 1.79086 0 4 0H108C110.209 0 112 1.79086 112 4V100H0V4Z" fill="#FFA164"/>
<path d="M13.9105 109.267V115.022L10.0998 109.267H8.83325V117H10.0998V111.234L13.9105 117H15.1771V109.267H13.9105ZM22.0509 117H23.3841L20.6177 109.267H19.1511L16.3848 117H17.7068L18.2623 115.422H21.4954L22.0509 117ZM21.1398 114.389H18.6179L19.8844 110.801L21.1398 114.389ZM24.5869 117H25.8534V111.712L28.2199 117H29.0975L31.4529 111.712V117H32.7194V109.279H31.364L28.6643 115.333L25.9534 109.279H24.5869V117ZM38.6503 109.267H34.3841V117H38.6503V115.967H35.6506V113.6H38.317V112.567H35.6506V110.301H38.6503V109.267Z" fill="#C2C8CF"/>
<path d="M8.45322 128.695H10.9993V137H12.2123V128.695H14.745V127.709H8.45322V128.695ZM15.7849 133.321C15.7849 135.587 17.2912 137.12 19.2374 137.12C20.5837 137.12 21.5302 136.427 21.97 135.64V137H23.1964V129.695H21.97V131.028C21.5435 130.268 20.6104 129.575 19.2507 129.575C17.2912 129.575 15.7849 131.041 15.7849 133.321ZM21.97 133.334C21.97 135.054 20.8237 136.054 19.4907 136.054C18.1577 136.054 17.0246 135.04 17.0246 133.321C17.0246 131.601 18.1577 130.628 19.4907 130.628C20.8237 130.628 21.97 131.641 21.97 133.334ZM30.5916 137H31.7913V132.694C31.7913 130.602 30.4983 129.562 28.8054 129.562C27.819 129.562 26.9392 129.975 26.4593 130.735V129.695H25.2463V137H26.4593V132.961C26.4593 131.388 27.3125 130.615 28.5522 130.615C29.7785 130.615 30.5916 131.375 30.5916 132.868V137ZM33.3196 133.321C33.3196 135.587 34.8259 137.12 36.7854 137.12C38.1184 137.12 39.0648 136.413 39.5047 135.627V137.16C39.5047 138.72 38.5316 139.546 37.2386 139.546C36.0389 139.546 35.1725 138.946 34.9059 138.066H33.7062C33.9461 139.626 35.3191 140.599 37.2386 140.599C39.3848 140.599 40.7311 139.173 40.7311 137.16V129.695H39.5047V131.028C39.0782 130.242 38.1184 129.575 36.7854 129.575C34.8259 129.575 33.3196 131.041 33.3196 133.321ZM39.5047 133.334C39.5047 135.054 38.3583 136.054 37.0253 136.054C35.6923 136.054 34.5593 135.04 34.5593 133.321C34.5593 131.601 35.6923 130.628 37.0253 130.628C38.3583 130.628 39.5047 131.641 39.5047 133.334ZM45.8869 130.602C47.1399 130.602 48.2063 131.388 48.193 132.814H43.5808C43.7141 131.388 44.7005 130.602 45.8869 130.602ZM49.2994 134.747H47.993C47.7264 135.534 47.0333 136.094 45.9402 136.094C44.7005 136.094 43.6608 135.28 43.5675 133.801H49.406C49.4327 133.548 49.446 133.334 49.446 133.068C49.446 131.068 48.0597 129.575 45.9402 129.575C43.8074 129.575 42.3278 131.028 42.3278 133.334C42.3278 135.654 43.8607 137.12 45.9402 137.12C47.7531 137.12 48.9261 136.08 49.2994 134.747ZM52.2602 133.028C52.2602 131.335 53.14 130.815 54.2997 130.815H54.6196V129.562C53.4599 129.562 52.6734 130.068 52.2602 130.882V129.695H51.0472V137H52.2602V133.028ZM56.0199 137H57.2329V129.695H56.0199V137ZM56.6464 128.509C57.0863 128.509 57.4462 128.149 57.4462 127.682C57.4462 127.216 57.0863 126.856 56.6464 126.856C56.1798 126.856 55.8199 127.216 55.8199 127.682C55.8199 128.149 56.1798 128.509 56.6464 128.509ZM64.6456 137H65.8453V132.694C65.8453 130.602 64.5523 129.562 62.8594 129.562C61.873 129.562 60.9932 129.975 60.5133 130.735V129.695H59.3003V137H60.5133V132.961C60.5133 131.388 61.3664 130.615 62.6061 130.615C63.8325 130.615 64.6456 131.375 64.6456 132.868V137ZM70.9327 130.602C72.1857 130.602 73.2521 131.388 73.2388 132.814H68.6266C68.7599 131.388 69.7463 130.602 70.9327 130.602ZM74.3452 134.747H73.0388C72.7722 135.534 72.0791 136.094 70.986 136.094C69.7463 136.094 68.7066 135.28 68.6133 133.801H74.4518C74.4785 133.548 74.4918 133.334 74.4918 133.068C74.4918 131.068 73.1055 129.575 70.986 129.575C68.8532 129.575 67.3736 131.028 67.3736 133.334C67.3736 135.654 68.9065 137.12 70.986 137.12C72.7989 137.12 73.9719 136.08 74.3452 134.747Z" fill="#5D6B7E"/>
<path d="M13.7328 160H14.9993V152.279H13.7328V155.589H10.0998V152.279H8.83325V160H10.0998V156.623H13.7328V160ZM20.9329 152.267H16.6667V160H20.9329V158.967H17.9332V156.6H20.5996V155.567H17.9332V153.301H20.9329V152.267ZM27.0147 160H28.4368L26.037 156.145L28.4479 152.279H27.0369L25.3926 155.1L23.6372 152.279H22.2152L24.626 156.145L22.2263 160H23.6372L25.2704 157.2L27.0147 160Z" fill="#C2C8CF"/>
<path d="M9.02641 180H10.2394V175.814H13.5186V174.828H10.2394V171.695H14.2784V170.709H9.02641V180ZM15.7435 180H16.9565V175.814H20.2357V174.828H16.9565V171.695H20.9955V170.709H15.7435V180ZM28.699 180H29.9787L26.6328 170.762H25.2332L21.874 180H23.1537L23.9002 177.934H27.9525L28.699 180ZM27.6059 176.947H24.2468L25.9264 172.255L27.6059 176.947ZM32.2025 180H33.4288V170.362H30.9228V171.469H32.2025V180ZM42.0042 172.655C41.8442 171.309 40.9111 170.162 39.0716 170.162C36.6322 170.162 35.6591 172.029 35.6591 175.055C35.6591 177.974 36.339 180.027 39.1916 180.027C41.2977 180.027 42.3375 178.587 42.3375 176.827C42.3375 174.801 41.1244 173.615 39.3249 173.615C38.1785 173.615 37.1254 174.148 36.7122 175.095C36.6989 172.229 37.5253 171.176 39.0583 171.176C40.1513 171.176 40.6979 171.722 40.8845 172.655H42.0042ZM39.0716 174.641C40.4579 174.641 41.1644 175.508 41.1644 176.867C41.1644 178.174 40.3779 179.014 39.1249 179.014C37.6053 179.014 36.8588 178.014 36.8588 176.734C36.8588 175.295 37.9652 174.641 39.0716 174.641ZM48.6128 180H49.8125V177.854H51.1455V176.801H49.8125V170.456H48.3595L43.6807 176.934V177.854H48.6128V180ZM45.0803 176.801L48.6661 171.722V176.801H45.0803Z" fill="#5D6B7E"/>
<path d="M0 194H112V214C112 216.209 110.209 218 108 218H4C1.79086 218 0 216.209 0 214V194Z" fill="#EDEFF1"/>
<path d="M8.83325 210H10.0998V204.712L12.4662 210H13.3439L15.6992 204.712V210H16.9658V202.279H15.6104L12.9106 208.333L10.1998 202.279H8.83325V210ZM22.8967 202.267H18.6304V210H22.8967V208.967H19.897V206.6H22.5634V205.567H19.897V203.301H22.8967V202.267ZM24.4567 210H25.7232V204.712L28.0897 210H28.9673L31.3227 204.712V210H32.5892V202.279H31.2338L28.5341 208.333L25.8232 202.279H24.4567V210ZM38.609 207.789C38.609 208.533 38.0868 208.967 37.2314 208.967H35.5204V206.556H37.1869C38.0313 206.556 38.609 207.023 38.609 207.789ZM38.409 204.423C38.409 205.134 37.9091 205.523 37.0869 205.523H35.5204V203.312H37.0869C37.9091 203.312 38.409 203.723 38.409 204.423ZM39.8755 207.922C39.8755 207 39.2089 206.178 38.3868 206.034C39.1312 205.767 39.6978 205.2 39.6978 204.267C39.6978 203.178 38.8312 202.279 37.198 202.279H34.2539V210H37.3425C38.9201 210 39.8755 209.1 39.8755 207.922ZM45.5181 202.267H41.2519V210H45.5181V208.967H42.5184V206.6H45.1848V205.567H42.5184V203.301H45.5181V202.267ZM51.1777 204.589C51.1777 205.356 50.7333 205.9 49.7445 205.9H48.3447V203.312H49.7445C50.7333 203.312 51.1777 203.812 51.1777 204.589ZM47.0781 202.279V210H48.3447V206.911H49.3112L51.0888 210H52.5998L50.6889 206.8C51.9887 206.478 52.4776 205.5 52.4776 204.589C52.4776 203.334 51.5777 202.279 49.7445 202.279H47.0781ZM53.9089 203.901H55.1422C55.2199 203.334 55.631 202.801 56.5198 202.801C57.3864 202.801 57.8419 203.267 57.8419 203.967C57.8419 204.834 57.142 205.167 55.9976 205.178H55.6977V206.223H55.9865C57.3086 206.223 57.9974 206.589 57.9974 207.656C57.9974 208.411 57.5308 208.989 56.5865 208.989C55.631 208.989 55.0755 208.411 55.0199 207.656H53.7978C53.8756 209.245 55.0644 210.044 56.5976 210.044C58.2863 210.044 59.1973 209.067 59.1973 207.778C59.1973 206.656 58.6529 205.956 57.8086 205.7V205.656C58.4418 205.445 59.0529 204.789 59.0529 203.823C59.0529 202.645 58.1752 201.712 56.5642 201.712C55.0866 201.712 53.9978 202.501 53.9089 203.901ZM60.5277 205.845C60.5277 208.2 61.1499 209.978 63.4163 209.978C65.6828 209.978 66.3049 208.2 66.3049 205.845C66.3049 203.534 65.6828 201.756 63.4163 201.756C61.1499 201.756 60.5277 203.534 60.5277 205.845ZM65.0606 205.845C65.0606 207.434 64.894 208.822 63.4163 208.822C61.9387 208.822 61.7721 207.434 61.7721 205.845C61.7721 204.334 61.9387 202.912 63.4163 202.912C64.894 202.912 65.0606 204.334 65.0606 205.845ZM67.6451 205.845C67.6451 208.2 68.2672 209.978 70.5337 209.978C72.8001 209.978 73.4223 208.2 73.4223 205.845C73.4223 203.534 72.8001 201.756 70.5337 201.756C68.2672 201.756 67.6451 203.534 67.6451 205.845ZM72.178 205.845C72.178 207.434 72.0113 208.822 70.5337 208.822C69.056 208.822 68.8894 207.434 68.8894 205.845C68.8894 204.334 69.056 202.912 70.5337 202.912C72.0113 202.912 72.178 204.334 72.178 205.845Z" fill="#9AA3AF"/>
</svg>
