<svg width="112" height="218" viewBox="0 0 112 218" fill="none" xmlns="http://www.w3.org/2000/svg">
<rect y="100" width="112" height="94" fill="#F9FAFA"/>
<path d="M0 4C0 1.79086 1.79086 0 4 0H108C110.209 0 112 1.79086 112 4V100H0V4Z" fill="#FF8A3D"/>
<path d="M13.9105 109.267V115.022L10.0998 109.267H8.83325V117H10.0998V111.234L13.9105 117H15.1771V109.267H13.9105ZM22.0509 117H23.3841L20.6177 109.267H19.1511L16.3848 117H17.7068L18.2623 115.422H21.4954L22.0509 117ZM21.1398 114.389H18.6179L19.8844 110.801L21.1398 114.389ZM24.5869 117H25.8534V111.712L28.2199 117H29.0975L31.4529 111.712V117H32.7194V109.279H31.364L28.6643 115.333L25.9534 109.279H24.5869V117ZM38.6503 109.267H34.3841V117H38.6503V115.967H35.6506V113.6H38.317V112.567H35.6506V110.301H38.6503V109.267Z" fill="#C2C8CF"/>
<path d="M9.02641 137H10.2394V130.108L13.3187 137H14.1718L17.2377 130.122V137H18.4507V127.776H17.1577L13.7452 135.4L10.3328 127.776H9.02641V137ZM20.0547 133.321C20.0547 135.587 21.561 137.12 23.5072 137.12C24.8535 137.12 25.7999 136.427 26.2398 135.64V137H27.4662V129.695H26.2398V131.028C25.8133 130.268 24.8802 129.575 23.5205 129.575C21.561 129.575 20.0547 131.041 20.0547 133.321ZM26.2398 133.334C26.2398 135.054 25.0934 136.054 23.7604 136.054C22.4274 136.054 21.2944 135.04 21.2944 133.321C21.2944 131.601 22.4274 130.628 23.7604 130.628C25.0934 130.628 26.2398 131.641 26.2398 133.334ZM34.8614 137H36.0611V132.694C36.0611 130.602 34.7681 129.562 33.0752 129.562C32.0888 129.562 31.209 129.975 30.7291 130.735V129.695H29.5161V137H30.7291V132.961C30.7291 131.388 31.5822 130.615 32.8219 130.615C34.0483 130.615 34.8614 131.375 34.8614 132.868V137ZM37.5894 133.321C37.5894 135.587 39.0957 137.12 41.0552 137.12C42.3882 137.12 43.3346 136.413 43.7745 135.627V137.16C43.7745 138.72 42.8014 139.546 41.5084 139.546C40.3087 139.546 39.4422 138.946 39.1756 138.066H37.9759C38.2159 139.626 39.5889 140.599 41.5084 140.599C43.6545 140.599 45.0009 139.173 45.0009 137.16V129.695H43.7745V131.028C43.3479 130.242 42.3882 129.575 41.0552 129.575C39.0957 129.575 37.5894 131.041 37.5894 133.321ZM43.7745 133.334C43.7745 135.054 42.6281 136.054 41.2951 136.054C39.9621 136.054 38.8291 135.04 38.8291 133.321C38.8291 131.601 39.9621 130.628 41.2951 130.628C42.6281 130.628 43.7745 131.641 43.7745 133.334ZM53.9824 133.334C53.9824 131.028 52.3694 129.575 50.2899 129.575C48.2238 129.575 46.5975 131.028 46.5975 133.334C46.5975 135.654 48.1705 137.12 50.2366 137.12C52.3161 137.12 53.9824 135.654 53.9824 133.334ZM47.8372 133.334C47.8372 131.495 48.9969 130.628 50.2766 130.628C51.5296 130.628 52.7427 131.495 52.7427 133.334C52.7427 135.187 51.503 136.054 50.2366 136.054C48.9703 136.054 47.8372 135.187 47.8372 133.334ZM58.5579 128.695H61.1039V137H62.3169V128.695H64.8496V127.709H58.5579V128.695ZM65.8896 133.321C65.8896 135.587 67.3959 137.12 69.3421 137.12C70.6884 137.12 71.6348 136.427 72.0747 135.64V137H73.3011V129.695H72.0747V131.028C71.6481 130.268 70.715 129.575 69.3554 129.575C67.3959 129.575 65.8896 131.041 65.8896 133.321ZM72.0747 133.334C72.0747 135.054 70.9283 136.054 69.5953 136.054C68.2623 136.054 67.1293 135.04 67.1293 133.321C67.1293 131.601 68.2623 130.628 69.5953 130.628C70.9283 130.628 72.0747 131.641 72.0747 133.334ZM80.6963 137H81.896V132.694C81.896 130.602 80.603 129.562 78.9101 129.562C77.9237 129.562 77.0439 129.975 76.564 130.735V129.695H75.351V137H76.564V132.961C76.564 131.388 77.4171 130.615 78.6568 130.615C79.8832 130.615 80.6963 131.375 80.6963 132.868V137ZM83.4243 133.321C83.4243 135.587 84.9306 137.12 86.8901 137.12C88.2231 137.12 89.1695 136.413 89.6094 135.627V137.16C89.6094 138.72 88.6363 139.546 87.3433 139.546C86.1436 139.546 85.2771 138.946 85.0105 138.066H83.8108C84.0508 139.626 85.4238 140.599 87.3433 140.599C89.4894 140.599 90.8357 139.173 90.8357 137.16V129.695H89.6094V131.028C89.1828 130.242 88.2231 129.575 86.8901 129.575C84.9306 129.575 83.4243 131.041 83.4243 133.321ZM89.6094 133.334C89.6094 135.054 88.463 136.054 87.13 136.054C85.797 136.054 84.664 135.04 84.664 133.321C84.664 131.601 85.797 130.628 87.13 130.628C88.463 130.628 89.6094 131.641 89.6094 133.334ZM99.8172 133.334C99.8172 131.028 98.2043 129.575 96.1248 129.575C94.0587 129.575 92.4324 131.028 92.4324 133.334C92.4324 135.654 94.0054 137.12 96.0715 137.12C98.151 137.12 99.8172 135.654 99.8172 133.334ZM93.6721 133.334C93.6721 131.495 94.8318 130.628 96.1115 130.628C97.3645 130.628 98.5776 131.495 98.5776 133.334C98.5776 135.187 97.3379 136.054 96.0715 136.054C94.8052 136.054 93.6721 135.187 93.6721 133.334Z" fill="#5D6B7E"/>
<path d="M13.7328 160H14.9993V152.279H13.7328V155.589H10.0998V152.279H8.83325V160H10.0998V156.623H13.7328V160ZM20.9329 152.267H16.6667V160H20.9329V158.967H17.9332V156.6H20.5996V155.567H17.9332V153.301H20.9329V152.267ZM27.0147 160H28.4368L26.037 156.145L28.4479 152.279H27.0369L25.3926 155.1L23.6372 152.279H22.2152L24.626 156.145L22.2263 160H23.6372L25.2704 157.2L27.0147 160Z" fill="#C2C8CF"/>
<path d="M9.02641 180H10.2394V175.814H13.5186V174.828H10.2394V171.695H14.2784V170.709H9.02641V180ZM15.7435 180H16.9565V175.814H20.2357V174.828H16.9565V171.695H20.9955V170.709H15.7435V180ZM24.0202 174.988C22.9404 175.308 22.2339 176.188 22.2339 177.401C22.2339 179.147 23.6069 180.267 25.6331 180.267C27.6726 180.267 29.0589 179.147 29.0589 177.401C29.0589 176.201 28.3524 175.321 27.2594 174.988C28.2058 174.615 28.8056 173.815 28.8056 172.775C28.8056 171.375 27.7259 170.216 25.6331 170.216C23.5403 170.216 22.4739 171.362 22.4739 172.775C22.4739 173.855 23.0337 174.601 24.0202 174.988ZM25.6331 174.588C24.4601 174.588 23.6469 173.935 23.6469 172.935C23.6469 171.802 24.4467 171.229 25.6331 171.229C26.8461 171.229 27.6326 171.815 27.6326 172.922C27.6326 173.922 26.8195 174.588 25.6331 174.588ZM25.6331 175.521C26.8994 175.521 27.8592 176.121 27.8592 177.361C27.8592 178.48 27.0061 179.254 25.6331 179.254C24.2601 179.254 23.3937 178.494 23.3937 177.361C23.3937 176.081 24.3934 175.521 25.6331 175.521ZM37.1083 180H38.388L35.0422 170.762H33.6425L30.2834 180H31.5631L32.3095 177.934H36.3619L37.1083 180ZM36.0153 176.947H32.6561L34.3357 172.255L36.0153 176.947ZM39.6254 172.788H40.8118C40.9318 171.855 41.6116 171.216 42.7446 171.216C43.9044 171.216 44.5175 171.855 44.5175 172.775C44.5175 173.895 43.6511 174.388 42.0382 174.401H41.7182V175.414H42.0248C43.7577 175.414 44.7042 175.934 44.7042 177.294C44.7042 178.28 44.091 179.04 42.798 179.04C41.5183 179.04 40.7718 178.254 40.6518 177.227H39.4788C39.6254 179.094 40.9851 180.067 42.8113 180.067C44.8241 180.067 45.8639 178.894 45.8639 177.401C45.8639 176.014 45.1041 175.188 43.9843 174.921V174.855C44.9974 174.628 45.6906 173.762 45.6906 172.655C45.6906 171.269 44.6642 170.176 42.7846 170.176C40.9984 170.176 39.7454 171.136 39.6254 172.788ZM50.5942 170.709H47.7016V180H50.5942C53.6468 180 55.5263 178.254 55.5263 175.374C55.5263 172.495 53.6468 170.709 50.5942 170.709ZM48.9147 179V171.695H50.5942C53.0203 171.695 54.2867 173.108 54.2867 175.374C54.2867 177.641 53.0203 179 50.5942 179H48.9147Z" fill="#5D6B7E"/>
<path d="M0 194H112V214C112 216.209 110.209 218 108 218H4C1.79086 218 0 216.209 0 214V194Z" fill="#EDEFF1"/>
<path d="M8.83325 210H10.0998V204.712L12.4662 210H13.3439L15.6992 204.712V210H16.9658V202.279H15.6104L12.9106 208.333L10.1998 202.279H8.83325V210ZM22.8967 202.267H18.6304V210H22.8967V208.967H19.897V206.6H22.5634V205.567H19.897V203.301H22.8967V202.267ZM24.4567 210H25.7232V204.712L28.0897 210H28.9673L31.3227 204.712V210H32.5892V202.279H31.2338L28.5341 208.333L25.8232 202.279H24.4567V210ZM38.609 207.789C38.609 208.533 38.0868 208.967 37.2314 208.967H35.5204V206.556H37.1869C38.0313 206.556 38.609 207.023 38.609 207.789ZM38.409 204.423C38.409 205.134 37.9091 205.523 37.0869 205.523H35.5204V203.312H37.0869C37.9091 203.312 38.409 203.723 38.409 204.423ZM39.8755 207.922C39.8755 207 39.2089 206.178 38.3868 206.034C39.1312 205.767 39.6978 205.2 39.6978 204.267C39.6978 203.178 38.8312 202.279 37.198 202.279H34.2539V210H37.3425C38.9201 210 39.8755 209.1 39.8755 207.922ZM45.5181 202.267H41.2519V210H45.5181V208.967H42.5184V206.6H45.1848V205.567H42.5184V203.301H45.5181V202.267ZM51.1777 204.589C51.1777 205.356 50.7333 205.9 49.7445 205.9H48.3447V203.312H49.7445C50.7333 203.312 51.1777 203.812 51.1777 204.589ZM47.0781 202.279V210H48.3447V206.911H49.3112L51.0888 210H52.5998L50.6889 206.8C51.9887 206.478 52.4776 205.5 52.4776 204.589C52.4776 203.334 51.5777 202.279 49.7445 202.279H47.0781ZM57.7974 210H59.0418V208.311H60.075V207.211H59.0418V202.001H57.5086L53.7756 207.356V208.311H57.7974V210ZM55.231 207.211L57.853 203.29V207.211H55.231ZM61.1245 205.845C61.1245 208.2 61.7466 209.978 64.0131 209.978C66.2795 209.978 66.9017 208.2 66.9017 205.845C66.9017 203.534 66.2795 201.756 64.0131 201.756C61.7466 201.756 61.1245 203.534 61.1245 205.845ZM65.6573 205.845C65.6573 207.434 65.4907 208.822 64.0131 208.822C62.5354 208.822 62.3688 207.434 62.3688 205.845C62.3688 204.334 62.5354 202.912 64.0131 202.912C65.4907 202.912 65.6573 204.334 65.6573 205.845ZM68.2418 205.845C68.2418 208.2 68.864 209.978 71.1304 209.978C73.3968 209.978 74.019 208.2 74.019 205.845C74.019 203.534 73.3968 201.756 71.1304 201.756C68.864 201.756 68.2418 203.534 68.2418 205.845ZM72.7747 205.845C72.7747 207.434 72.608 208.822 71.1304 208.822C69.6528 208.822 69.4861 207.434 69.4861 205.845C69.4861 204.334 69.6528 202.912 71.1304 202.912C72.608 202.912 72.7747 204.334 72.7747 205.845Z" fill="#9AA3AF"/>
</svg>
