<svg width="112" height="218" viewBox="0 0 112 218" fill="none" xmlns="http://www.w3.org/2000/svg">
<rect y="100" width="112" height="94" fill="#F9FAFA"/>
<path d="M0 4C0 1.79086 1.79086 0 4 0H108C110.209 0 112 1.79086 112 4V100H0V4Z" fill="#D9521C"/>
<path d="M13.9105 109.267V115.022L10.0998 109.267H8.83325V117H10.0998V111.234L13.9105 117H15.1771V109.267H13.9105ZM22.0509 117H23.3841L20.6177 109.267H19.1511L16.3848 117H17.7068L18.2623 115.422H21.4954L22.0509 117ZM21.1398 114.389H18.6179L19.8844 110.801L21.1398 114.389ZM24.5869 117H25.8534V111.712L28.2199 117H29.0975L31.4529 111.712V117H32.7194V109.279H31.364L28.6643 115.333L25.9534 109.279H24.5869V117ZM38.6503 109.267H34.3841V117H38.6503V115.967H35.6506V113.6H38.317V112.567H35.6506V110.301H38.6503V109.267Z" fill="#C2C8CF"/>
<path d="M8.57319 132.348C8.57319 135.134 10.6127 137.08 13.212 137.08C15.2249 137.08 16.8245 136.08 17.5176 134.294H16.0647C15.5581 135.4 14.5717 136.027 13.212 136.027C11.2659 136.027 9.81288 134.614 9.81288 132.348C9.81288 130.068 11.2659 128.655 13.212 128.655C14.5717 128.655 15.5581 129.282 16.0647 130.402H17.5176C16.8245 128.602 15.2249 127.589 13.212 127.589C10.6127 127.589 8.57319 129.562 8.57319 132.348ZM19.3233 137H20.5363V132.961C20.5363 131.388 21.3895 130.615 22.6292 130.615C23.8555 130.615 24.6686 131.375 24.6686 132.868V137H25.8683V132.694C25.8683 130.602 24.5753 129.562 22.9491 129.562C21.9227 129.562 21.0162 129.975 20.5363 130.748V127.136H19.3233V137ZM30.9557 130.602C32.2087 130.602 33.2751 131.388 33.2618 132.814H28.6496C28.7829 131.388 29.7693 130.602 30.9557 130.602ZM34.3682 134.747H33.0619C32.7953 135.534 32.1021 136.094 31.009 136.094C29.7693 136.094 28.7296 135.28 28.6363 133.801H34.4748C34.5015 133.548 34.5148 133.334 34.5148 133.068C34.5148 131.068 33.1285 129.575 31.009 129.575C28.8762 129.575 27.3966 131.028 27.3966 133.334C27.3966 135.654 28.9296 137.12 31.009 137.12C32.8219 137.12 33.995 136.08 34.3682 134.747ZM41.368 135.014C41.3147 132.401 37.0758 133.348 37.0758 131.615C37.0758 131.028 37.609 130.602 38.5021 130.602C39.4752 130.602 40.035 131.135 40.0883 131.868H41.3014C41.2214 130.442 40.155 129.575 38.5421 129.575C36.9158 129.575 35.8627 130.495 35.8627 131.615C35.8627 134.334 40.1816 133.388 40.1816 135.014C40.1816 135.614 39.6484 136.094 38.6887 136.094C37.6623 136.094 37.0358 135.56 36.9691 134.854H35.7161C35.7961 136.187 36.9958 137.12 38.702 137.12C40.3149 137.12 41.368 136.214 41.368 135.014ZM43.347 135C43.347 136.467 44.0801 137 45.3732 137H46.4662V135.974H45.5731C44.8266 135.974 44.56 135.72 44.56 135V130.695H46.4662V129.695H44.56V127.856H43.347V129.695H42.4006V130.695H43.347V135ZM53.2813 137H54.481V132.694C54.481 130.602 53.188 129.562 51.4951 129.562C50.5086 129.562 49.6289 129.975 49.149 130.735V129.695H47.936V137H49.149V132.961C49.149 131.388 50.0021 130.615 51.2418 130.615C52.4682 130.615 53.2813 131.375 53.2813 132.868V137ZM62.9408 129.695H61.7278V133.707C61.7278 135.28 60.888 136.054 59.635 136.054C58.4086 136.054 57.5955 135.294 57.5955 133.814V129.695H56.3958V133.974C56.3958 136.067 57.7155 137.107 59.3951 137.107C60.3682 137.107 61.2613 136.68 61.7278 135.92V137H62.9408V129.695ZM65.2556 135C65.2556 136.467 65.9887 137 67.2817 137H68.3748V135.974H67.4817C66.7352 135.974 66.4686 135.72 66.4686 135V130.695H68.3748V129.695H66.4686V127.856H65.2556V129.695H64.3092V130.695H65.2556V135Z" fill="#5D6B7E"/>
<path d="M13.7328 160H14.9993V152.279H13.7328V155.589H10.0998V152.279H8.83325V160H10.0998V156.623H13.7328V160ZM20.9329 152.267H16.6667V160H20.9329V158.967H17.9332V156.6H20.5996V155.567H17.9332V153.301H20.9329V152.267ZM27.0147 160H28.4368L26.037 156.145L28.4479 152.279H27.0369L25.3926 155.1L23.6372 152.279H22.2152L24.626 156.145L22.2263 160H23.6372L25.2704 157.2L27.0147 160Z" fill="#C2C8CF"/>
<path d="M11.919 170.709H9.02641V180H11.919C14.9716 180 16.8511 178.254 16.8511 175.374C16.8511 172.495 14.9716 170.709 11.919 170.709ZM10.2394 179V171.695H11.919C14.3451 171.695 15.6114 173.108 15.6114 175.374C15.6114 177.641 14.3451 179 11.919 179H10.2394ZM18.6911 177.414C18.8244 178.827 19.7575 180.013 21.677 180.013C24.2097 180.013 24.9428 178.214 24.9428 175.001C24.9428 172.015 24.183 170.176 21.5704 170.176C19.4909 170.176 18.3978 171.509 18.3978 173.348C18.3978 175.388 19.7175 176.494 21.4904 176.494C22.5301 176.494 23.4899 176.028 23.8764 175.215C23.9164 178.04 23.1566 179 21.7436 179C20.6239 179 19.9841 178.414 19.8108 177.414H18.6911ZM21.6903 175.468C20.2507 175.468 19.5575 174.561 19.5575 173.322C19.5575 172.042 20.344 171.189 21.597 171.189C22.9833 171.189 23.7298 172.109 23.7298 173.415C23.7298 174.708 22.85 175.468 21.6903 175.468ZM26.9941 170.349V175.788H28.1405C28.4604 175.028 29.1669 174.521 30.14 174.521C31.5396 174.521 32.2461 175.321 32.2461 176.694C32.2461 178.014 31.593 179 30.1267 179C28.9936 179 28.2071 178.4 27.9805 177.387H26.7942C27.0341 178.947 28.1938 180.027 30.1133 180.027C32.3661 180.027 33.4058 178.534 33.4058 176.668C33.4058 175.175 32.6594 173.482 30.3133 173.482C29.3668 173.482 28.5137 173.908 28.1138 174.455V171.415H32.7927V170.349H26.9941ZM34.8712 179.893H41.2829V178.88H36.6974C38.417 177.481 41.003 175.441 41.003 173.042C41.003 171.256 39.83 170.189 38.0171 170.189C36.2842 170.189 34.9912 171.256 34.9112 173.308H36.0842C36.1375 172.095 36.7774 171.229 38.0304 171.229C39.3367 171.229 39.8033 172.029 39.8033 173.095C39.8033 175.068 37.4039 176.987 34.8712 179.027V179.893ZM43.6449 180H44.8713V170.362H42.3653V171.469H43.6449V180ZM46.7017 175.348C46.7017 178.134 48.7412 180.08 51.3405 180.08C53.3533 180.08 54.9529 179.08 55.6461 177.294H54.1931C53.6866 178.4 52.7002 179.027 51.3405 179.027C49.3943 179.027 47.9414 177.614 47.9414 175.348C47.9414 173.068 49.3943 171.655 51.3405 171.655C52.7002 171.655 53.6866 172.282 54.1931 173.402H55.6461C54.9529 171.602 53.3533 170.589 51.3405 170.589C48.7412 170.589 46.7017 172.562 46.7017 175.348Z" fill="#5D6B7E"/>
<path d="M0 194H112V214C112 216.209 110.209 218 108 218H4C1.79086 218 0 216.209 0 214V194Z" fill="#EDEFF1"/>
<path d="M8.83325 210H10.0998V204.712L12.4662 210H13.3439L15.6992 204.712V210H16.9658V202.279H15.6104L12.9106 208.333L10.1998 202.279H8.83325V210ZM22.8967 202.267H18.6304V210H22.8967V208.967H19.897V206.6H22.5634V205.567H19.897V203.301H22.8967V202.267ZM24.4567 210H25.7232V204.712L28.0897 210H28.9673L31.3227 204.712V210H32.5892V202.279H31.2338L28.5341 208.333L25.8232 202.279H24.4567V210ZM38.609 207.789C38.609 208.533 38.0868 208.967 37.2314 208.967H35.5204V206.556H37.1869C38.0313 206.556 38.609 207.023 38.609 207.789ZM38.409 204.423C38.409 205.134 37.9091 205.523 37.0869 205.523H35.5204V203.312H37.0869C37.9091 203.312 38.409 203.723 38.409 204.423ZM39.8755 207.922C39.8755 207 39.2089 206.178 38.3868 206.034C39.1312 205.767 39.6978 205.2 39.6978 204.267C39.6978 203.178 38.8312 202.279 37.198 202.279H34.2539V210H37.3425C38.9201 210 39.8755 209.1 39.8755 207.922ZM45.5181 202.267H41.2519V210H45.5181V208.967H42.5184V206.6H45.1848V205.567H42.5184V203.301H45.5181V202.267ZM51.1777 204.589C51.1777 205.356 50.7333 205.9 49.7445 205.9H48.3447V203.312H49.7445C50.7333 203.312 51.1777 203.812 51.1777 204.589ZM47.0781 202.279V210H48.3447V206.911H49.3112L51.0888 210H52.5998L50.6889 206.8C51.9887 206.478 52.4776 205.5 52.4776 204.589C52.4776 203.334 51.5777 202.279 49.7445 202.279H47.0781ZM59.4528 203.778C59.3195 202.701 58.5307 201.701 56.9531 201.701C54.9311 201.701 54.0867 203.234 54.0867 205.767C54.0867 208.345 54.6978 210 57.0531 210C58.7862 210 59.7084 208.833 59.7084 207.3C59.7084 205.612 58.6751 204.634 57.2197 204.634C56.3754 204.634 55.5754 204.989 55.1755 205.656C55.2088 203.534 55.7976 202.756 56.942 202.756C57.7419 202.756 58.1307 203.123 58.2863 203.778H59.4528ZM56.942 205.7C58.0085 205.7 58.4974 206.389 58.4974 207.356C58.4974 208.311 57.9197 208.945 56.9864 208.945C55.9087 208.945 55.3199 208.278 55.3199 207.278C55.3199 206.2 56.1087 205.7 56.942 205.7ZM61.0594 205.845C61.0594 208.2 61.6815 209.978 63.948 209.978C66.2144 209.978 66.8366 208.2 66.8366 205.845C66.8366 203.534 66.2144 201.756 63.948 201.756C61.6815 201.756 61.0594 203.534 61.0594 205.845ZM65.5922 205.845C65.5922 207.434 65.4256 208.822 63.948 208.822C62.4703 208.822 62.3037 207.434 62.3037 205.845C62.3037 204.334 62.4703 202.912 63.948 202.912C65.4256 202.912 65.5922 204.334 65.5922 205.845ZM68.1767 205.845C68.1767 208.2 68.7989 209.978 71.0653 209.978C73.3317 209.978 73.9539 208.2 73.9539 205.845C73.9539 203.534 73.3317 201.756 71.0653 201.756C68.7989 201.756 68.1767 203.534 68.1767 205.845ZM72.7096 205.845C72.7096 207.434 72.5429 208.822 71.0653 208.822C69.5877 208.822 69.421 207.434 69.421 205.845C69.421 204.334 69.5877 202.912 71.0653 202.912C72.5429 202.912 72.7096 204.334 72.7096 205.845Z" fill="#9AA3AF"/>
</svg>
