<svg width="112" height="218" viewBox="0 0 112 218" fill="none" xmlns="http://www.w3.org/2000/svg">
<rect y="100" width="112" height="94" fill="#F9FAFA"/>
<path d="M0 4C0 1.79086 1.79086 0 4 0H108C110.209 0 112 1.79086 112 4V100H0V4Z" fill="#FFB98B"/>
<path d="M13.9105 109.267V115.022L10.0998 109.267H8.83325V117H10.0998V111.234L13.9105 117H15.1771V109.267H13.9105ZM22.0509 117H23.3841L20.6177 109.267H19.1511L16.3848 117H17.7068L18.2623 115.422H21.4954L22.0509 117ZM21.1398 114.389H18.6179L19.8844 110.801L21.1398 114.389ZM24.5869 117H25.8534V111.712L28.2199 117H29.0975L31.4529 111.712V117H32.7194V109.279H31.364L28.6643 115.333L25.9534 109.279H24.5869V117ZM38.6503 109.267H34.3841V117H38.6503V115.967H35.6506V113.6H38.317V112.567H35.6506V110.301H38.6503V109.267Z" fill="#C2C8CF"/>
<path d="M14.9716 137H16.1846V127.709H14.9716V131.788H10.2394V127.709H9.02641V137H10.2394V132.788H14.9716V137ZM18.2429 137H19.4559V129.695H18.2429V137ZM18.8694 128.509C19.3093 128.509 19.6692 128.149 19.6692 127.682C19.6692 127.216 19.3093 126.856 18.8694 126.856C18.4028 126.856 18.0429 127.216 18.0429 127.682C18.0429 128.149 18.4028 128.509 18.8694 128.509ZM21.7899 135C21.7899 136.467 22.523 137 23.816 137H24.9091V135.974H24.016C23.2695 135.974 23.0029 135.72 23.0029 135V130.695H24.9091V129.695H23.0029V127.856H21.7899V129.695H20.8435V130.695H21.7899V135ZM31.1457 132.121V128.709H32.9319C34.3182 128.709 34.9047 129.349 34.9047 130.428C34.9047 131.468 34.3182 132.121 32.9319 132.121H31.1457ZM36.1444 130.428C36.1444 128.909 35.118 127.709 32.9319 127.709H29.9326V137H31.1457V133.121H32.9319C35.238 133.121 36.1444 131.841 36.1444 130.428ZM37.6521 137H38.8651V129.695H37.6521V137ZM38.2786 128.509C38.7185 128.509 39.0784 128.149 39.0784 127.682C39.0784 127.216 38.7185 126.856 38.2786 126.856C37.812 126.856 37.4521 127.216 37.4521 127.682C37.4521 128.149 37.812 128.509 38.2786 128.509ZM46.2778 137H47.4775V132.694C47.4775 130.602 46.1845 129.562 44.4916 129.562C43.5052 129.562 42.6254 129.975 42.1455 130.735V129.695H40.9325V137H42.1455V132.961C42.1455 131.388 42.9986 130.615 44.2383 130.615C45.4647 130.615 46.2778 131.375 46.2778 132.868V137ZM49.459 137H50.672V133.774L53.538 137H55.1909L51.7384 133.334L55.1776 129.695H53.4847L50.672 132.934V127.136H49.459V137Z" fill="#5D6B7E"/>
<path d="M13.7328 160H14.9993V152.279H13.7328V155.589H10.0998V152.279H8.83325V160H10.0998V156.623H13.7328V160ZM20.9329 152.267H16.6667V160H20.9329V158.967H17.9332V156.6H20.5996V155.567H17.9332V153.301H20.9329V152.267ZM27.0147 160H28.4368L26.037 156.145L28.4479 152.279H27.0369L25.3926 155.1L23.6372 152.279H22.2152L24.626 156.145L22.2263 160H23.6372L25.2704 157.2L27.0147 160Z" fill="#C2C8CF"/>
<path d="M9.02641 180H10.2394V175.814H13.5186V174.828H10.2394V171.695H14.2784V170.709H9.02641V180ZM15.7435 180H16.9565V175.814H20.2357V174.828H16.9565V171.695H20.9955V170.709H15.7435V180ZM27.7392 177.387C27.7392 178.4 27.0194 179 25.8197 179H23.6736V175.721H25.7797C26.9661 175.721 27.7392 176.361 27.7392 177.387ZM27.4993 173.215C27.4993 174.161 26.8461 174.721 25.7131 174.721H23.6736V171.709H25.6864C26.8728 171.709 27.4993 172.295 27.4993 173.215ZM28.9523 177.507C28.9523 176.361 28.1258 175.388 27.1127 175.215C28.0058 174.921 28.739 174.241 28.739 173.068C28.739 171.775 27.7526 170.709 25.7931 170.709H22.4606V180H25.9264C27.8459 180 28.9523 178.907 28.9523 177.507ZM30.8755 177.414C31.0088 178.827 31.9419 180.013 33.8615 180.013C36.3942 180.013 37.1273 178.214 37.1273 175.001C37.1273 172.015 36.3675 170.176 33.7548 170.176C31.6753 170.176 30.5823 171.509 30.5823 173.348C30.5823 175.388 31.9019 176.494 33.6748 176.494C34.7146 176.494 35.6743 176.028 36.0609 175.215C36.1009 178.04 35.3411 179 33.9281 179C32.8084 179 32.1685 178.414 31.9953 177.414H30.8755ZM33.8748 175.468C32.4351 175.468 31.742 174.561 31.742 173.322C31.742 172.042 32.5285 171.189 33.7815 171.189C35.1678 171.189 35.9143 172.109 35.9143 173.415C35.9143 174.708 35.0345 175.468 33.8748 175.468ZM40.5915 174.988C39.5118 175.308 38.8053 176.188 38.8053 177.401C38.8053 179.147 40.1783 180.267 42.2045 180.267C44.244 180.267 45.6303 179.147 45.6303 177.401C45.6303 176.201 44.9238 175.321 43.8307 174.988C44.7772 174.615 45.377 173.815 45.377 172.775C45.377 171.375 44.2973 170.216 42.2045 170.216C40.1117 170.216 39.0453 171.362 39.0453 172.775C39.0453 173.855 39.6051 174.601 40.5915 174.988ZM42.2045 174.588C41.0314 174.588 40.2183 173.935 40.2183 172.935C40.2183 171.802 41.0181 171.229 42.2045 171.229C43.4175 171.229 44.204 171.815 44.204 172.922C44.204 173.922 43.3908 174.588 42.2045 174.588ZM42.2045 175.521C43.4708 175.521 44.4306 176.121 44.4306 177.361C44.4306 178.48 43.5775 179.254 42.2045 179.254C40.8315 179.254 39.965 178.494 39.965 177.361C39.965 176.081 40.9648 175.521 42.2045 175.521ZM52.72 177.387C52.72 178.4 52.0001 179 50.8004 179H48.6543V175.721H50.7605C51.9468 175.721 52.72 176.361 52.72 177.387ZM52.48 173.215C52.48 174.161 51.8269 174.721 50.6938 174.721H48.6543V171.709H50.6671C51.8535 171.709 52.48 172.295 52.48 173.215ZM53.933 177.507C53.933 176.361 53.1065 175.388 52.0935 175.215C52.9866 174.921 53.7197 174.241 53.7197 173.068C53.7197 171.775 52.7333 170.709 50.7738 170.709H47.4413V180H50.9071C52.8266 180 53.933 178.907 53.933 177.507Z" fill="#5D6B7E"/>
<path d="M0 194H112V214C112 216.209 110.209 218 108 218H4C1.79086 218 0 216.209 0 214V194Z" fill="#EDEFF1"/>
<path d="M8.83325 210H10.0998V204.712L12.4662 210H13.3439L15.6992 204.712V210H16.9658V202.279H15.6104L12.9106 208.333L10.1998 202.279H8.83325V210ZM22.8967 202.267H18.6304V210H22.8967V208.967H19.897V206.6H22.5634V205.567H19.897V203.301H22.8967V202.267ZM24.4567 210H25.7232V204.712L28.0897 210H28.9673L31.3227 204.712V210H32.5892V202.279H31.2338L28.5341 208.333L25.8232 202.279H24.4567V210ZM38.609 207.789C38.609 208.533 38.0868 208.967 37.2314 208.967H35.5204V206.556H37.1869C38.0313 206.556 38.609 207.023 38.609 207.789ZM38.409 204.423C38.409 205.134 37.9091 205.523 37.0869 205.523H35.5204V203.312H37.0869C37.9091 203.312 38.409 203.723 38.409 204.423ZM39.8755 207.922C39.8755 207 39.2089 206.178 38.3868 206.034C39.1312 205.767 39.6978 205.2 39.6978 204.267C39.6978 203.178 38.8312 202.279 37.198 202.279H34.2539V210H37.3425C38.9201 210 39.8755 209.1 39.8755 207.922ZM45.5181 202.267H41.2519V210H45.5181V208.967H42.5184V206.6H45.1848V205.567H42.5184V203.301H45.5181V202.267ZM51.1777 204.589C51.1777 205.356 50.7333 205.9 49.7445 205.9H48.3447V203.312H49.7445C50.7333 203.312 51.1777 203.812 51.1777 204.589ZM47.0781 202.279V210H48.3447V206.911H49.3112L51.0888 210H52.5998L50.6889 206.8C51.9887 206.478 52.4776 205.5 52.4776 204.589C52.4776 203.334 51.5777 202.279 49.7445 202.279H47.0781ZM53.8312 209.889H59.2306V208.833H55.7088C57.0086 207.645 59.0084 206.145 59.0084 204.178C59.0084 202.723 58.0752 201.734 56.4309 201.734C54.9977 201.734 53.8645 202.59 53.8201 204.345H55.0422C55.0755 203.434 55.5532 202.812 56.442 202.812C57.3864 202.812 57.753 203.39 57.753 204.234C57.753 205.823 55.7421 207.289 53.8312 208.967V209.889ZM60.3433 205.845C60.3433 208.2 60.9654 209.978 63.2319 209.978C65.4983 209.978 66.1205 208.2 66.1205 205.845C66.1205 203.534 65.4983 201.756 63.2319 201.756C60.9654 201.756 60.3433 203.534 60.3433 205.845ZM64.8762 205.845C64.8762 207.434 64.7095 208.822 63.2319 208.822C61.7543 208.822 61.5876 207.434 61.5876 205.845C61.5876 204.334 61.7543 202.912 63.2319 202.912C64.7095 202.912 64.8762 204.334 64.8762 205.845ZM67.4606 205.845C67.4606 208.2 68.0828 209.978 70.3492 209.978C72.6157 209.978 73.2378 208.2 73.2378 205.845C73.2378 203.534 72.6157 201.756 70.3492 201.756C68.0828 201.756 67.4606 203.534 67.4606 205.845ZM71.9935 205.845C71.9935 207.434 71.8269 208.822 70.3492 208.822C68.8716 208.822 68.705 207.434 68.705 205.845C68.705 204.334 68.8716 202.912 70.3492 202.912C71.8269 202.912 71.9935 204.334 71.9935 205.845Z" fill="#9AA3AF"/>
</svg>
