<svg width="112" height="218" viewBox="0 0 112 218" fill="none" xmlns="http://www.w3.org/2000/svg">
<rect y="100" width="112" height="94" fill="#F9FAFA"/>
<path d="M0 4C0 1.79086 1.79086 0 4 0H108C110.209 0 112 1.79086 112 4V100H0V4Z" fill="#FFD0B1"/>
<path d="M13.9105 109.267V115.022L10.0998 109.267H8.83325V117H10.0998V111.234L13.9105 117H15.1771V109.267H13.9105ZM22.0509 117H23.3841L20.6177 109.267H19.1511L16.3848 117H17.7068L18.2623 115.422H21.4954L22.0509 117ZM21.1398 114.389H18.6179L19.8844 110.801L21.1398 114.389ZM24.5869 117H25.8534V111.712L28.2199 117H29.0975L31.4529 111.712V117H32.7194V109.279H31.364L28.6643 115.333L25.9534 109.279H24.5869V117ZM38.6503 109.267H34.3841V117H38.6503V115.967H35.6506V113.6H38.317V112.567H35.6506V110.301H38.6503V109.267Z" fill="#C2C8CF"/>
<path d="M15.2649 137H16.5445L13.1987 127.762H11.7991L8.43989 137H9.71957L10.4661 134.934H14.5184L15.2649 137ZM14.1718 133.947H10.8126L12.4922 129.255L14.1718 133.947ZM19.2216 131.041V129.695H18.0085V140.466H19.2216V135.654C19.6748 136.4 20.6212 137.12 21.9542 137.12C23.9137 137.12 25.42 135.587 25.42 133.321C25.42 131.041 23.9137 129.575 21.9542 129.575C20.6212 129.575 19.6615 130.268 19.2216 131.041ZM24.1803 133.321C24.1803 135.04 23.0473 136.054 21.7009 136.054C20.3813 136.054 19.2216 135.054 19.2216 133.334C19.2216 131.641 20.3813 130.628 21.7009 130.628C23.0473 130.628 24.1803 131.601 24.1803 133.321ZM28.2297 133.028C28.2297 131.335 29.1095 130.815 30.2692 130.815H30.5891V129.562C29.4294 129.562 28.643 130.068 28.2297 130.882V129.695H27.0167V137H28.2297V133.028ZM31.9894 137H33.2024V129.695H31.9894V137ZM32.6159 128.509C33.0558 128.509 33.4157 128.149 33.4157 127.682C33.4157 127.216 33.0558 126.856 32.6159 126.856C32.1494 126.856 31.7895 127.216 31.7895 127.682C31.7895 128.149 32.1494 128.509 32.6159 128.509ZM34.8166 133.334C34.8166 135.654 36.2963 137.12 38.3757 137.12C40.1886 137.12 41.375 136.107 41.7482 134.654H40.4419C40.1753 135.574 39.4555 136.094 38.3757 136.094C37.0427 136.094 36.0563 135.147 36.0563 133.334C36.0563 131.548 37.0427 130.602 38.3757 130.602C39.4555 130.602 40.1886 131.161 40.4419 132.041H41.7482C41.375 130.508 40.1886 129.575 38.3757 129.575C36.2963 129.575 34.8166 131.041 34.8166 133.334ZM50.2984 133.334C50.2984 131.028 48.6855 129.575 46.606 129.575C44.5398 129.575 42.9136 131.028 42.9136 133.334C42.9136 135.654 44.4865 137.12 46.5527 137.12C48.6321 137.12 50.2984 135.654 50.2984 133.334ZM44.1533 133.334C44.1533 131.495 45.313 130.628 46.5926 130.628C47.8457 130.628 49.0587 131.495 49.0587 133.334C49.0587 135.187 47.819 136.054 46.5527 136.054C45.2863 136.054 44.1533 135.187 44.1533 133.334ZM52.1599 135C52.1599 136.467 52.893 137 54.1861 137H55.2791V135.974H54.386C53.6395 135.974 53.3729 135.72 53.3729 135V130.695H55.2791V129.695H53.3729V127.856H52.1599V129.695H51.2135V130.695H52.1599V135Z" fill="#5D6B7E"/>
<path d="M13.7328 160H14.9993V152.279H13.7328V155.589H10.0998V152.279H8.83325V160H10.0998V156.623H13.7328V160ZM20.9329 152.267H16.6667V160H20.9329V158.967H17.9332V156.6H20.5996V155.567H17.9332V153.301H20.9329V152.267ZM27.0147 160H28.4368L26.037 156.145L28.4479 152.279H27.0369L25.3926 155.1L23.6372 152.279H22.2152L24.626 156.145L22.2263 160H23.6372L25.2704 157.2L27.0147 160Z" fill="#C2C8CF"/>
<path d="M9.02641 180H10.2394V175.814H13.5186V174.828H10.2394V171.695H14.2784V170.709H9.02641V180ZM15.7435 180H16.9565V175.814H20.2357V174.828H16.9565V171.695H20.9955V170.709H15.7435V180ZM25.3532 170.709H22.4606V180H25.3532C28.4057 180 30.2853 178.254 30.2853 175.374C30.2853 172.495 28.4057 170.709 25.3532 170.709ZM23.6736 179V171.695H25.3532C27.7792 171.695 29.0456 173.108 29.0456 175.374C29.0456 177.641 27.7792 179 25.3532 179H23.6736ZM31.6853 175.081C31.6853 177.881 32.3785 180 35.0445 180C37.6972 180 38.3903 177.881 38.3903 175.081C38.3903 172.322 37.6972 170.216 35.0445 170.216C32.3785 170.216 31.6853 172.322 31.6853 175.081ZM37.1906 175.081C37.1906 177.161 36.9373 178.894 35.0445 178.894C33.1383 178.894 32.885 177.161 32.885 175.081C32.885 173.082 33.1383 171.322 35.0445 171.322C36.9373 171.322 37.1906 173.082 37.1906 175.081ZM45.5343 177.387C45.5343 178.4 44.8144 179 43.6147 179H41.4686V175.721H43.5747C44.7611 175.721 45.5343 176.361 45.5343 177.387ZM45.2943 173.215C45.2943 174.161 44.6412 174.721 43.5081 174.721H41.4686V171.709H43.4814C44.6678 171.709 45.2943 172.295 45.2943 173.215ZM46.7473 177.507C46.7473 176.361 45.9208 175.388 44.9078 175.215C45.8009 174.921 46.534 174.241 46.534 173.068C46.534 171.775 45.5476 170.709 43.5881 170.709H40.2556V180H43.7214C45.6409 180 46.7473 178.907 46.7473 177.507ZM49.1904 180H50.4168V170.362H47.9107V171.469H49.1904V180Z" fill="#5D6B7E"/>
<path d="M0 194H112V214C112 216.209 110.209 218 108 218H4C1.79086 218 0 216.209 0 214V194Z" fill="#EDEFF1"/>
<path d="M8.83325 210H10.0998V204.712L12.4662 210H13.3439L15.6992 204.712V210H16.9658V202.279H15.6104L12.9106 208.333L10.1998 202.279H8.83325V210ZM22.8967 202.267H18.6304V210H22.8967V208.967H19.897V206.6H22.5634V205.567H19.897V203.301H22.8967V202.267ZM24.4567 210H25.7232V204.712L28.0897 210H28.9673L31.3227 204.712V210H32.5892V202.279H31.2338L28.5341 208.333L25.8232 202.279H24.4567V210ZM38.609 207.789C38.609 208.533 38.0868 208.967 37.2314 208.967H35.5204V206.556H37.1869C38.0313 206.556 38.609 207.023 38.609 207.789ZM38.409 204.423C38.409 205.134 37.9091 205.523 37.0869 205.523H35.5204V203.312H37.0869C37.9091 203.312 38.409 203.723 38.409 204.423ZM39.8755 207.922C39.8755 207 39.2089 206.178 38.3868 206.034C39.1312 205.767 39.6978 205.2 39.6978 204.267C39.6978 203.178 38.8312 202.279 37.198 202.279H34.2539V210H37.3425C38.9201 210 39.8755 209.1 39.8755 207.922ZM45.5181 202.267H41.2519V210H45.5181V208.967H42.5184V206.6H45.1848V205.567H42.5184V203.301H45.5181V202.267ZM51.1777 204.589C51.1777 205.356 50.7333 205.9 49.7445 205.9H48.3447V203.312H49.7445C50.7333 203.312 51.1777 203.812 51.1777 204.589ZM47.0781 202.279V210H48.3447V206.911H49.3112L51.0888 210H52.5998L50.6889 206.8C51.9887 206.478 52.4776 205.5 52.4776 204.589C52.4776 203.334 51.5777 202.279 49.7445 202.279H47.0781ZM54.7977 210H56.0754V201.901H53.7645V203.056H54.7977V210ZM57.8153 205.845C57.8153 208.2 58.4375 209.978 60.7039 209.978C62.9704 209.978 63.5925 208.2 63.5925 205.845C63.5925 203.534 62.9704 201.756 60.7039 201.756C58.4375 201.756 57.8153 203.534 57.8153 205.845ZM62.3482 205.845C62.3482 207.434 62.1816 208.822 60.7039 208.822C59.2263 208.822 59.0597 207.434 59.0597 205.845C59.0597 204.334 59.2263 202.912 60.7039 202.912C62.1816 202.912 62.3482 204.334 62.3482 205.845ZM64.9327 205.845C64.9327 208.2 65.5548 209.978 67.8213 209.978C70.0877 209.978 70.7099 208.2 70.7099 205.845C70.7099 203.534 70.0877 201.756 67.8213 201.756C65.5548 201.756 64.9327 203.534 64.9327 205.845ZM69.4656 205.845C69.4656 207.434 69.2989 208.822 67.8213 208.822C66.3436 208.822 66.177 207.434 66.177 205.845C66.177 204.334 66.3436 202.912 67.8213 202.912C69.2989 202.912 69.4656 204.334 69.4656 205.845Z" fill="#9AA3AF"/>
</svg>
