<svg width="112" height="218" viewBox="0 0 112 218" fill="none" xmlns="http://www.w3.org/2000/svg">
<rect y="100" width="112" height="94" fill="#F9FAFA"/>
<path d="M0 4C0 1.79086 1.79086 0 4 0H108C110.209 0 112 1.79086 112 4V100H0V4Z" fill="#D96326"/>
<path d="M13.9105 109.267V115.022L10.0998 109.267H8.83325V117H10.0998V111.234L13.9105 117H15.1771V109.267H13.9105ZM22.0509 117H23.3841L20.6177 109.267H19.1511L16.3848 117H17.7068L18.2623 115.422H21.4954L22.0509 117ZM21.1398 114.389H18.6179L19.8844 110.801L21.1398 114.389ZM24.5869 117H25.8534V111.712L28.2199 117H29.0975L31.4529 111.712V117H32.7194V109.279H31.364L28.6643 115.333L25.9534 109.279H24.5869V117ZM38.6503 109.267H34.3841V117H38.6503V115.967H35.6506V113.6H38.317V112.567H35.6506V110.301H38.6503V109.267Z" fill="#C2C8CF"/>
<path d="M14.3051 134.387C14.3051 135.4 13.5853 136 12.3856 136H10.2394V132.721H12.3456C13.532 132.721 14.3051 133.361 14.3051 134.387ZM14.0652 130.215C14.0652 131.161 13.412 131.721 12.2789 131.721H10.2394V128.709H12.2523C13.4386 128.709 14.0652 129.295 14.0652 130.215ZM15.5181 134.507C15.5181 133.361 14.6917 132.388 13.6786 132.215C14.5717 131.921 15.3048 131.241 15.3048 130.068C15.3048 128.775 14.3184 127.709 12.3589 127.709H9.02641V137H12.4922C14.4117 137 15.5181 135.907 15.5181 134.507ZM18.4145 133.028C18.4145 131.335 19.2943 130.815 20.454 130.815H20.7739V129.562C19.6142 129.562 18.8277 130.068 18.4145 130.882V129.695H17.2014V137H18.4145V133.028ZM29.1058 133.334C29.1058 131.028 27.4928 129.575 25.4134 129.575C23.3472 129.575 21.7209 131.028 21.7209 133.334C21.7209 135.654 23.2939 137.12 25.36 137.12C27.4395 137.12 29.1058 135.654 29.1058 133.334ZM22.9606 133.334C22.9606 131.495 24.1203 130.628 25.4 130.628C26.653 130.628 27.8661 131.495 27.8661 133.334C27.8661 135.187 26.6264 136.054 25.36 136.054C24.0937 136.054 22.9606 135.187 22.9606 133.334ZM36.046 137H37.2457V132.694C37.2457 130.602 35.9527 129.562 34.2598 129.562C33.2734 129.562 32.3936 129.975 31.9137 130.735V129.695H30.7007V137H31.9137V132.961C31.9137 131.388 32.7668 130.615 34.0065 130.615C35.2329 130.615 36.046 131.375 36.046 132.868V137ZM43.6927 129.695H38.774V130.682H42.2931L38.7473 136V137H43.7194V136H40.1336L43.6927 130.682V129.695ZM48.3993 130.602C49.6523 130.602 50.7187 131.388 50.7054 132.814H46.0932C46.2265 131.388 47.2129 130.602 48.3993 130.602ZM51.8118 134.747H50.5054C50.2388 135.534 49.5457 136.094 48.4526 136.094C47.2129 136.094 46.1732 135.28 46.0799 133.801H51.9184C51.9451 133.548 51.9584 133.334 51.9584 133.068C51.9584 131.068 50.5721 129.575 48.4526 129.575C46.3198 129.575 44.8402 131.028 44.8402 133.334C44.8402 135.654 46.3731 137.12 48.4526 137.12C50.2655 137.12 51.4385 136.08 51.8118 134.747Z" fill="#5D6B7E"/>
<path d="M13.7328 160H14.9993V152.279H13.7328V155.589H10.0998V152.279H8.83325V160H10.0998V156.623H13.7328V160ZM20.9329 152.267H16.6667V160H20.9329V158.967H17.9332V156.6H20.5996V155.567H17.9332V153.301H20.9329V152.267ZM27.0147 160H28.4368L26.037 156.145L28.4479 152.279H27.0369L25.3926 155.1L23.6372 152.279H22.2152L24.626 156.145L22.2263 160H23.6372L25.2704 157.2L27.0147 160Z" fill="#C2C8CF"/>
<path d="M11.919 170.709H9.02641V180H11.919C14.9716 180 16.8511 178.254 16.8511 175.374C16.8511 172.495 14.9716 170.709 11.919 170.709ZM10.2394 179V171.695H11.919C14.3451 171.695 15.6114 173.108 15.6114 175.374C15.6114 177.641 14.3451 179 11.919 179H10.2394ZM18.6911 177.414C18.8244 178.827 19.7575 180.013 21.677 180.013C24.2097 180.013 24.9428 178.214 24.9428 175.001C24.9428 172.015 24.183 170.176 21.5704 170.176C19.4909 170.176 18.3978 171.509 18.3978 173.348C18.3978 175.388 19.7175 176.494 21.4904 176.494C22.5301 176.494 23.4899 176.028 23.8764 175.215C23.9164 178.04 23.1566 179 21.7436 179C20.6239 179 19.9841 178.414 19.8108 177.414H18.6911ZM21.6903 175.468C20.2507 175.468 19.5575 174.561 19.5575 173.322C19.5575 172.042 20.344 171.189 21.597 171.189C22.9833 171.189 23.7298 172.109 23.7298 173.415C23.7298 174.708 22.85 175.468 21.6903 175.468ZM33.1392 172.655C32.9793 171.309 32.0462 170.162 30.2066 170.162C27.7672 170.162 26.7942 172.029 26.7942 175.055C26.7942 177.974 27.474 180.027 30.3266 180.027C32.4327 180.027 33.4725 178.587 33.4725 176.827C33.4725 174.801 32.2595 173.615 30.4599 173.615C29.3135 173.615 28.2605 174.148 27.8472 175.095C27.8339 172.229 28.6604 171.176 30.1933 171.176C31.2864 171.176 31.8329 171.722 32.0195 172.655H33.1392ZM30.2066 174.641C31.593 174.641 32.2994 175.508 32.2994 176.867C32.2994 178.174 31.513 179.014 30.26 179.014C28.7403 179.014 27.9939 178.014 27.9939 176.734C27.9939 175.295 29.1002 174.641 30.2066 174.641ZM35.0823 172.788H36.2687C36.3886 171.855 37.0685 171.216 38.2015 171.216C39.3612 171.216 39.9744 171.855 39.9744 172.775C39.9744 173.895 39.1079 174.388 37.495 174.401H37.1751V175.414H37.4817C39.2146 175.414 40.161 175.934 40.161 177.294C40.161 178.28 39.5478 179.04 38.2548 179.04C36.9751 179.04 36.2287 178.254 36.1087 177.227H34.9357C35.0823 179.094 36.4419 180.067 38.2682 180.067C40.281 180.067 41.3207 178.894 41.3207 177.401C41.3207 176.014 40.5609 175.188 39.4412 174.921V174.855C40.4543 174.628 41.1474 173.762 41.1474 172.655C41.1474 171.269 40.121 170.176 38.2415 170.176C36.4553 170.176 35.2023 171.136 35.0823 172.788ZM42.8119 179.893H49.2236V178.88H44.6381C46.3577 177.481 48.9437 175.441 48.9437 173.042C48.9437 171.256 47.7707 170.189 45.9578 170.189C44.2249 170.189 42.9319 171.256 42.8519 173.308H44.0249C44.0783 172.095 44.7181 171.229 45.9711 171.229C47.2775 171.229 47.744 172.029 47.744 173.095C47.744 175.068 45.3446 176.987 42.8119 179.027V179.893ZM57.1176 172.655C56.9577 171.309 56.0246 170.162 54.185 170.162C51.7456 170.162 50.7725 172.029 50.7725 175.055C50.7725 177.974 51.4524 180.027 54.305 180.027C56.4111 180.027 57.4509 178.587 57.4509 176.827C57.4509 174.801 56.2378 173.615 54.4383 173.615C53.2919 173.615 52.2388 174.148 51.8256 175.095C51.8123 172.229 52.6387 171.176 54.1717 171.176C55.2647 171.176 55.8113 171.722 55.9979 172.655H57.1176ZM54.185 174.641C55.5713 174.641 56.2778 175.508 56.2778 176.867C56.2778 178.174 55.4914 179.014 54.2383 179.014C52.7187 179.014 51.9722 178.014 51.9722 176.734C51.9722 175.295 53.0786 174.641 54.185 174.641Z" fill="#5D6B7E"/>
<path d="M0 194H112V214C112 216.209 110.209 218 108 218H4C1.79086 218 0 216.209 0 214V194Z" fill="#EDEFF1"/>
<path d="M8.83325 210H10.0998V204.712L12.4662 210H13.3439L15.6992 204.712V210H16.9658V202.279H15.6104L12.9106 208.333L10.1998 202.279H8.83325V210ZM22.8967 202.267H18.6304V210H22.8967V208.967H19.897V206.6H22.5634V205.567H19.897V203.301H22.8967V202.267ZM24.4567 210H25.7232V204.712L28.0897 210H28.9673L31.3227 204.712V210H32.5892V202.279H31.2338L28.5341 208.333L25.8232 202.279H24.4567V210ZM38.609 207.789C38.609 208.533 38.0868 208.967 37.2314 208.967H35.5204V206.556H37.1869C38.0313 206.556 38.609 207.023 38.609 207.789ZM38.409 204.423C38.409 205.134 37.9091 205.523 37.0869 205.523H35.5204V203.312H37.0869C37.9091 203.312 38.409 203.723 38.409 204.423ZM39.8755 207.922C39.8755 207 39.2089 206.178 38.3868 206.034C39.1312 205.767 39.6978 205.2 39.6978 204.267C39.6978 203.178 38.8312 202.279 37.198 202.279H34.2539V210H37.3425C38.9201 210 39.8755 209.1 39.8755 207.922ZM45.5181 202.267H41.2519V210H45.5181V208.967H42.5184V206.6H45.1848V205.567H42.5184V203.301H45.5181V202.267ZM51.1777 204.589C51.1777 205.356 50.7333 205.9 49.7445 205.9H48.3447V203.312H49.7445C50.7333 203.312 51.1777 203.812 51.1777 204.589ZM47.0781 202.279V210H48.3447V206.911H49.3112L51.0888 210H52.5998L50.6889 206.8C51.9887 206.478 52.4776 205.5 52.4776 204.589C52.4776 203.334 51.5777 202.279 49.7445 202.279H47.0781ZM54.2645 201.879V206.556H55.4643C55.6754 205.956 56.1754 205.545 56.9198 205.545C57.9752 205.545 58.4974 206.145 58.4974 207.2C58.4974 208.2 58.0085 208.945 56.9198 208.945C56.0643 208.945 55.4866 208.5 55.3199 207.811H54.0867C54.2756 209.078 55.2421 210 56.9086 210C58.7862 210 59.7084 208.778 59.7084 207.167C59.7084 205.945 59.0973 204.467 57.1086 204.467C56.3865 204.467 55.731 204.801 55.431 205.2V202.99H59.1529V201.879H54.2645ZM61.0268 205.845C61.0268 208.2 61.649 209.978 63.9154 209.978C66.1819 209.978 66.804 208.2 66.804 205.845C66.804 203.534 66.1819 201.756 63.9154 201.756C61.649 201.756 61.0268 203.534 61.0268 205.845ZM65.5597 205.845C65.5597 207.434 65.393 208.822 63.9154 208.822C62.4378 208.822 62.2711 207.434 62.2711 205.845C62.2711 204.334 62.4378 202.912 63.9154 202.912C65.393 202.912 65.5597 204.334 65.5597 205.845ZM68.1442 205.845C68.1442 208.2 68.7663 209.978 71.0328 209.978C73.2992 209.978 73.9214 208.2 73.9214 205.845C73.9214 203.534 73.2992 201.756 71.0328 201.756C68.7663 201.756 68.1442 203.534 68.1442 205.845ZM72.677 205.845C72.677 207.434 72.5104 208.822 71.0328 208.822C69.5551 208.822 69.3885 207.434 69.3885 205.845C69.3885 204.334 69.5551 202.912 71.0328 202.912C72.5104 202.912 72.677 204.334 72.677 205.845Z" fill="#9AA3AF"/>
</svg>
