<svg width="176" height="218" viewBox="0 0 176 218" fill="none" xmlns="http://www.w3.org/2000/svg">
<rect y="100" width="176" height="94" fill="#F9FAFA"/>
<path d="M0 194H176V214C176 216.209 174.209 218 172 218H4C1.79086 218 0 216.209 0 214V194Z" fill="#EDEFF1"/>
<path d="M4 0.5H172C173.933 0.5 175.5 2.067 175.5 4V99.5H0.5V4C0.5 2.06701 2.067 0.5 4 0.5Z" fill="white" stroke="#EDEFF1"/>
<path d="M13.9105 109.267V115.022L10.0998 109.267H8.83325V117H10.0998V111.234L13.9105 117H15.1771V109.267H13.9105ZM22.0509 117H23.3841L20.6177 109.267H19.1511L16.3848 117H17.7068L18.2623 115.422H21.4954L22.0509 117ZM21.1398 114.389H18.6179L19.8844 110.801L21.1398 114.389ZM24.5869 117H25.8534V111.712L28.2199 117H29.0975L31.4529 111.712V117H32.7194V109.279H31.364L28.6643 115.333L25.9534 109.279H24.5869V117ZM38.6503 109.267H34.3841V117H38.6503V115.967H35.6506V113.6H38.317V112.567H35.6506V110.301H38.6503V109.267Z" fill="#C2C8CF"/>
<path d="M10.9059 137.013L12.2523 137L14.4917 129.522L16.6512 137H18.0108L20.7035 127.709H19.3972L17.3577 135.56L15.2249 127.709H13.8652L11.6258 135.587L9.5996 127.709H8.30659L10.9059 137.013ZM22.031 137H23.244V132.961C23.244 131.388 24.0971 130.615 25.3368 130.615C26.5632 130.615 27.3763 131.375 27.3763 132.868V137H28.576V132.694C28.576 130.602 27.283 129.562 25.6567 129.562C24.6303 129.562 23.7239 129.975 23.244 130.748V127.136H22.031V137ZM30.5575 137H31.7705V129.695H30.5575V137ZM31.184 128.509C31.6239 128.509 31.9838 128.149 31.9838 127.682C31.9838 127.216 31.6239 126.856 31.184 126.856C30.7174 126.856 30.3575 127.216 30.3575 127.682C30.3575 128.149 30.7174 128.509 31.184 128.509ZM34.1045 135C34.1045 136.467 34.8377 137 36.1307 137H37.2237V135.974H36.3306C35.5841 135.974 35.3175 135.72 35.3175 135V130.695H37.2237V129.695H35.3175V127.856H34.1045V129.695H33.1581V130.695H34.1045V135ZM41.7994 130.602C43.0524 130.602 44.1188 131.388 44.1055 132.814H39.4933C39.6266 131.388 40.613 130.602 41.7994 130.602ZM45.2118 134.747H43.9055C43.6389 135.534 42.9457 136.094 41.8527 136.094C40.613 136.094 39.5733 135.28 39.4799 133.801H45.3185C45.3451 133.548 45.3585 133.334 45.3585 133.068C45.3585 131.068 43.9722 129.575 41.8527 129.575C39.7199 129.575 38.2403 131.028 38.2403 133.334C38.2403 135.654 39.7732 137.12 41.8527 137.12C43.6656 137.12 44.8386 136.08 45.2118 134.747Z" fill="#5D6B7E"/>
<path d="M13.9105 202.267V208.022L10.0998 202.267H8.83325V210H10.0998V204.234L13.9105 210H15.1771V202.267H13.9105ZM21.1065 202.267H16.8403V210H21.1065V208.967H18.1068V206.6H20.7732V205.567H18.1068V203.301H21.1065V202.267ZM22.6554 207.178C22.6554 209.145 24.033 210.078 25.6551 210.078C27.266 210.078 28.6881 209.145 28.6881 207.178V202.279H27.4216V207.2C27.4216 208.4 26.7439 208.967 25.6662 208.967C24.5996 208.967 23.9219 208.4 23.9219 207.2V202.279H22.6554V207.178ZM29.9372 203.312H32.0037V210H33.2702V203.312H35.3256V202.279H29.9372V203.312ZM40.7078 204.589C40.7078 205.356 40.2634 205.9 39.2746 205.9H37.8748V203.312H39.2746C40.2634 203.312 40.7078 203.812 40.7078 204.589ZM36.6082 202.279V210H37.8748V206.911H38.8414L40.619 210H42.1299L40.219 206.8C41.5189 206.478 42.0077 205.5 42.0077 204.589C42.0077 203.334 41.1078 202.279 39.2746 202.279H36.6082ZM48.8385 210H50.1717L47.4053 202.267H45.9388L43.1724 210H44.4945L45.05 208.422H48.283L48.8385 210ZM47.9275 207.389H45.4055L46.6721 203.801L47.9275 207.389ZM51.3746 202.279V210H55.252V208.978H52.6411V202.279H51.3746ZM56.1445 205.845C56.1445 208.2 56.7667 209.978 59.0331 209.978C61.2995 209.978 61.9217 208.2 61.9217 205.845C61.9217 203.534 61.2995 201.756 59.0331 201.756C56.7667 201.756 56.1445 203.534 56.1445 205.845ZM60.6774 205.845C60.6774 207.434 60.5107 208.822 59.0331 208.822C57.5555 208.822 57.3888 207.434 57.3888 205.845C57.3888 204.334 57.5555 202.912 59.0331 202.912C60.5107 202.912 60.6774 204.334 60.6774 205.845ZM63.2618 205.845C63.2618 208.2 63.884 209.978 66.1504 209.978C68.4169 209.978 69.039 208.2 69.039 205.845C69.039 203.534 68.4169 201.756 66.1504 201.756C63.884 201.756 63.2618 203.534 63.2618 205.845ZM67.7947 205.845C67.7947 207.434 67.6281 208.822 66.1504 208.822C64.6728 208.822 64.5062 207.434 64.5062 205.845C64.5062 204.334 64.6728 202.912 66.1504 202.912C67.6281 202.912 67.7947 204.334 67.7947 205.845ZM70.3792 205.845C70.3792 208.2 71.0013 209.978 73.2678 209.978C75.5342 209.978 76.1564 208.2 76.1564 205.845C76.1564 203.534 75.5342 201.756 73.2678 201.756C71.0013 201.756 70.3792 203.534 70.3792 205.845ZM74.9121 205.845C74.9121 207.434 74.7454 208.822 73.2678 208.822C71.7901 208.822 71.6235 207.434 71.6235 205.845C71.6235 204.334 71.7901 202.912 73.2678 202.912C74.7454 202.912 74.9121 204.334 74.9121 205.845Z" fill="#9AA3AF"/>
<path d="M117.733 160H118.999V152.279H117.733V155.589H114.1V152.279H112.833V160H114.1V156.623H117.733V160ZM124.933 152.267H120.667V160H124.933V158.967H121.933V156.6H124.6V155.567H121.933V153.301H124.933V152.267ZM131.015 160H132.437L130.037 156.145L132.448 152.279H131.037L129.393 155.1L127.637 152.279H126.215L128.626 156.145L126.226 160H127.637L129.27 157.2L131.015 160Z" fill="#C2C8CF"/>
<path d="M113.026 180H114.239V175.814H117.519V174.828H114.239V171.695H118.278V170.709H113.026V180ZM119.743 180H120.957V175.814H124.236V174.828H120.957V171.695H124.996V170.709H119.743V180ZM126.461 180H127.674V175.814H130.953V174.828H127.674V171.695H131.713V170.709H126.461V180ZM133.178 180H134.391V175.814H137.67V174.828H134.391V171.695H138.43V170.709H133.178V180ZM139.895 180H141.108V175.814H144.387V174.828H141.108V171.695H145.147V170.709H139.895V180ZM146.612 180H147.825V175.814H151.104V174.828H147.825V171.695H151.864V170.709H146.612V180Z" fill="#5D6B7E"/>
<path d="M12.9328 154.589C12.9328 155.356 12.4884 155.9 11.4997 155.9H10.0998V153.312H11.4997C12.4884 153.312 12.9328 153.812 12.9328 154.589ZM8.83325 152.279V160H10.0998V156.911H11.0664L12.844 160H14.3549L12.444 156.8C13.7439 156.478 14.2327 155.5 14.2327 154.589C14.2327 153.334 13.3328 152.279 11.4997 152.279H8.83325ZM19.3748 152.179C17.1973 152.179 15.4308 153.812 15.4308 156.123C15.4308 158.445 17.1973 160.067 19.3748 160.067C21.4524 160.067 22.9633 158.545 23.1967 156.756V155.767H18.9415V156.778H21.8412C21.6524 158.078 20.7747 158.922 19.3748 158.922C17.8416 158.922 16.7306 157.822 16.7306 156.123C16.7306 154.423 17.8416 153.334 19.3748 153.334C20.2969 153.334 21.0302 153.723 21.4413 154.501H22.9633C22.3745 152.99 20.9858 152.179 19.3748 152.179ZM28.801 157.789C28.801 158.533 28.2788 158.967 27.4233 158.967H25.7124V156.556H27.3789C28.2232 156.556 28.801 157.023 28.801 157.789ZM28.601 154.423C28.601 155.134 28.101 155.523 27.2789 155.523H25.7124V153.312H27.2789C28.101 153.312 28.601 153.723 28.601 154.423ZM30.0675 157.922C30.0675 157 29.4009 156.178 28.5788 156.034C29.3231 155.767 29.8897 155.2 29.8897 154.267C29.8897 153.178 29.0232 152.279 27.39 152.279H24.4458V160H27.5344C29.112 160 30.0675 159.1 30.0675 157.922Z" fill="#C2C8CF"/>
<path d="M8.67983 179.893H15.0916V178.88H10.506C12.2256 177.481 14.8116 175.441 14.8116 173.042C14.8116 171.256 13.6386 170.189 11.8257 170.189C10.0928 170.189 8.7998 171.256 8.71982 173.308H9.89286C9.94618 172.095 10.586 171.229 11.839 171.229C13.1454 171.229 13.6119 172.029 13.6119 173.095C13.6119 175.068 11.2125 176.987 8.67983 179.027V179.893ZM16.8404 170.349V175.788H17.9868C18.3067 175.028 19.0132 174.521 19.9863 174.521C21.3859 174.521 22.0924 175.321 22.0924 176.694C22.0924 178.014 21.4392 179 19.9729 179C18.8399 179 18.0534 178.4 17.8268 177.387H16.6404C16.8804 178.947 18.0401 180.027 19.9596 180.027C22.2124 180.027 23.2521 178.534 23.2521 176.668C23.2521 175.175 22.5056 173.482 20.1596 173.482C19.2131 173.482 18.36 173.908 17.9601 174.455V171.415H22.6389V170.349H16.8404ZM25.2107 170.349V175.788H26.3571C26.677 175.028 27.3835 174.521 28.3566 174.521C29.7562 174.521 30.4627 175.321 30.4627 176.694C30.4627 178.014 29.8095 179 28.3432 179C27.2102 179 26.4237 178.4 26.1971 177.387H25.0107C25.2507 178.947 26.4104 180.027 28.3299 180.027C30.5827 180.027 31.6224 178.534 31.6224 176.668C31.6224 175.175 30.8759 173.482 28.5299 173.482C27.5834 173.482 26.7303 173.908 26.3304 174.455V171.415H31.0092V170.349H25.2107ZM32.3813 181.906H33.1944L34.6874 178.32H33.3544L32.3813 181.906ZM39.2842 179.893H45.6959V178.88H41.1104C42.8299 177.481 45.416 175.441 45.416 173.042C45.416 171.256 44.2429 170.189 42.43 170.189C40.6971 170.189 39.4041 171.256 39.3241 173.308H40.4972C40.5505 172.095 41.1903 171.229 42.4434 171.229C43.7497 171.229 44.2163 172.029 44.2163 173.095C44.2163 175.068 41.8169 176.987 39.2842 179.027V179.893ZM47.4447 170.349V175.788H48.5911C48.911 175.028 49.6175 174.521 50.5906 174.521C51.9903 174.521 52.6967 175.321 52.6967 176.694C52.6967 178.014 52.0436 179 50.5773 179C49.4442 179 48.6578 178.4 48.4311 177.387H47.2448C47.4847 178.947 48.6444 180.027 50.5639 180.027C52.8167 180.027 53.8565 178.534 53.8565 176.668C53.8565 175.175 53.11 173.482 50.7639 173.482C49.8175 173.482 48.9643 173.908 48.5644 174.455V171.415H53.2433V170.349H47.4447ZM55.815 170.349V175.788H56.9614C57.2813 175.028 57.9878 174.521 58.9609 174.521C60.3606 174.521 61.067 175.321 61.067 176.694C61.067 178.014 60.4139 179 58.9476 179C57.8145 179 57.0281 178.4 56.8014 177.387H55.6151C55.855 178.947 57.0147 180.027 58.9342 180.027C61.187 180.027 62.2268 178.534 62.2268 176.668C62.2268 175.175 61.4803 173.482 59.1342 173.482C58.1878 173.482 57.3346 173.908 56.9347 174.455V171.415H61.6136V170.349H55.815ZM62.9856 181.906H63.7988L65.2917 178.32H63.9587L62.9856 181.906ZM69.8885 179.893H76.3002V178.88H71.7147C73.4343 177.481 76.0203 175.441 76.0203 173.042C76.0203 171.256 74.8472 170.189 73.0344 170.189C71.3015 170.189 70.0085 171.256 69.9285 173.308H71.1015C71.1548 172.095 71.7947 171.229 73.0477 171.229C74.354 171.229 74.8206 172.029 74.8206 173.095C74.8206 175.068 72.4212 176.987 69.8885 179.027V179.893ZM78.049 170.349V175.788H79.1954C79.5153 175.028 80.2218 174.521 81.1949 174.521C82.5946 174.521 83.3011 175.321 83.3011 176.694C83.3011 178.014 82.6479 179 81.1816 179C80.0485 179 79.2621 178.4 79.0355 177.387H77.8491C78.089 178.947 79.2487 180.027 81.1683 180.027C83.421 180.027 84.4608 178.534 84.4608 176.668C84.4608 175.175 83.7143 173.482 81.3682 173.482C80.4218 173.482 79.5687 173.908 79.1688 174.455V171.415H83.8476V170.349H78.049ZM86.4193 170.349V175.788H87.5657C87.8856 175.028 88.5921 174.521 89.5652 174.521C90.9649 174.521 91.6714 175.321 91.6714 176.694C91.6714 178.014 91.0182 179 89.5519 179C88.4188 179 87.6324 178.4 87.4058 177.387H86.2194C86.4593 178.947 87.619 180.027 89.5386 180.027C91.7913 180.027 92.8311 178.534 92.8311 176.668C92.8311 175.175 92.0846 173.482 89.7385 173.482C88.7921 173.482 87.939 173.908 87.5391 174.455V171.415H92.2179V170.349H86.4193Z" fill="#5D6B7E"/>
</svg>
