<svg width="112" height="218" viewBox="0 0 112 218" fill="none" xmlns="http://www.w3.org/2000/svg">
<rect y="100" width="112" height="94" fill="#F9FAFA"/>
<path d="M0 4C0 1.79086 1.79086 0 4 0H108C110.209 0 112 1.79086 112 4V100H0V4Z" fill="#E1E4E7"/>
<path d="M13.9105 109.267V115.022L10.0998 109.267H8.83325V117H10.0998V111.234L13.9105 117H15.1771V109.267H13.9105ZM22.0509 117H23.3841L20.6177 109.267H19.1511L16.3848 117H17.7068L18.2623 115.422H21.4954L22.0509 117ZM21.1398 114.389H18.6179L19.8844 110.801L21.1398 114.389ZM24.5869 117H25.8534V111.712L28.2199 117H29.0975L31.4529 111.712V117H32.7194V109.279H31.364L28.6643 115.333L25.9534 109.279H24.5869V117ZM38.6503 109.267H34.3841V117H38.6503V115.967H35.6506V113.6H38.317V112.567H35.6506V110.301H38.6503V109.267Z" fill="#C2C8CF"/>
<path d="M9.02641 137H10.2394V130.108L13.3187 137H14.1718L17.2377 130.122V137H18.4507V127.776H17.1577L13.7452 135.4L10.3328 127.776H9.02641V137ZM20.5079 137H21.7209V129.695H20.5079V137ZM21.1344 128.509C21.5743 128.509 21.9342 128.149 21.9342 127.682C21.9342 127.216 21.5743 126.856 21.1344 126.856C20.6679 126.856 20.308 127.216 20.308 127.682C20.308 128.149 20.6679 128.509 21.1344 128.509ZM29.0404 135.014C28.987 132.401 24.7481 133.348 24.7481 131.615C24.7481 131.028 25.2813 130.602 26.1744 130.602C27.1475 130.602 27.7074 131.135 27.7607 131.868H28.9737C28.8937 130.442 27.8273 129.575 26.2144 129.575C24.5881 129.575 23.5351 130.495 23.5351 131.615C23.5351 134.334 27.854 133.388 27.854 135.014C27.854 135.614 27.3208 136.094 26.361 136.094C25.3346 136.094 24.7081 135.56 24.6415 134.854H23.3884C23.4684 136.187 24.6681 137.12 26.3744 137.12C27.9873 137.12 29.0404 136.214 29.0404 135.014ZM30.2995 133.334C30.2995 135.654 31.7792 137.12 33.8586 137.12C35.6715 137.12 36.8579 136.107 37.2311 134.654H35.9248C35.6582 135.574 34.9384 136.094 33.8586 136.094C32.5256 136.094 31.5392 135.147 31.5392 133.334C31.5392 131.548 32.5256 130.602 33.8586 130.602C34.9384 130.602 35.6715 131.161 35.9248 132.041H37.2311C36.8579 130.508 35.6715 129.575 33.8586 129.575C31.7792 129.575 30.2995 131.041 30.2995 133.334ZM38.8497 137H40.0627V132.961C40.0627 131.388 40.9158 130.615 42.1555 130.615C43.3819 130.615 44.195 131.375 44.195 132.868V137H45.3947V132.694C45.3947 130.602 44.1017 129.562 42.4754 129.562C41.449 129.562 40.5426 129.975 40.0627 130.748V127.136H38.8497V137ZM47.3762 137H48.5892V133.774L51.4552 137H53.1081L49.6556 133.334L53.0948 129.695H51.4019L48.5892 132.934V127.136H47.3762V137ZM53.7832 133.321C53.7832 135.587 55.2895 137.12 57.2357 137.12C58.582 137.12 59.5285 136.427 59.9684 135.64V137H61.1947V129.695H59.9684V131.028C59.5418 130.268 58.6087 129.575 57.249 129.575C55.2895 129.575 53.7832 131.041 53.7832 133.321ZM59.9684 133.334C59.9684 135.054 58.822 136.054 57.489 136.054C56.156 136.054 55.0229 135.04 55.0229 133.321C55.0229 131.601 56.156 130.628 57.489 130.628C58.822 130.628 59.9684 131.641 59.9684 133.334Z" fill="#5D6B7E"/>
<path d="M13.7328 160H14.9993V152.279H13.7328V155.589H10.0998V152.279H8.83325V160H10.0998V156.623H13.7328V160ZM20.9329 152.267H16.6667V160H20.9329V158.967H17.9332V156.6H20.5996V155.567H17.9332V153.301H20.9329V152.267ZM27.0147 160H28.4368L26.037 156.145L28.4479 152.279H27.0369L25.3926 155.1L23.6372 152.279H22.2152L24.626 156.145L22.2263 160H23.6372L25.2704 157.2L27.0147 160Z" fill="#C2C8CF"/>
<path d="M14.0252 170.696H9.02641V180H14.0252V179H10.2394V175.801H13.6253V174.801H10.2394V171.695H14.0252V170.696ZM16.6204 180H17.8468V170.362H15.3408V171.469H16.6204V180ZM25.1292 170.696H20.1304V180H25.1292V179H21.3434V175.801H24.7293V174.801H21.3434V171.695H25.1292V170.696ZM31.4035 180H32.6032V177.854H33.9362V176.801H32.6032V170.456H31.1503L26.4714 176.934V177.854H31.4035V180ZM27.8711 176.801L31.4568 171.722V176.801H27.8711ZM40.3467 170.696H35.348V180H40.3467V179H36.561V175.801H39.9468V174.801H36.561V171.695H40.3467V170.696ZM41.5957 170.389V171.429H46.741L42.982 180H44.2083L47.9141 171.309V170.389H41.5957Z" fill="#5D6B7E"/>
<path d="M0 194H112V214C112 216.209 110.209 218 108 218H4C1.79086 218 0 216.209 0 214V194Z" fill="#EDEFF1"/>
<path d="M13.9105 202.267V208.022L10.0998 202.267H8.83325V210H10.0998V204.234L13.9105 210H15.1771V202.267H13.9105ZM21.1065 202.267H16.8403V210H21.1065V208.967H18.1068V206.6H20.7732V205.567H18.1068V203.301H21.1065V202.267ZM22.6554 207.178C22.6554 209.145 24.033 210.078 25.6551 210.078C27.266 210.078 28.6881 209.145 28.6881 207.178V202.279H27.4216V207.2C27.4216 208.4 26.7439 208.967 25.6662 208.967C24.5996 208.967 23.9219 208.4 23.9219 207.2V202.279H22.6554V207.178ZM29.9372 203.312H32.0037V210H33.2702V203.312H35.3256V202.279H29.9372V203.312ZM40.7078 204.589C40.7078 205.356 40.2634 205.9 39.2746 205.9H37.8748V203.312H39.2746C40.2634 203.312 40.7078 203.812 40.7078 204.589ZM36.6082 202.279V210H37.8748V206.911H38.8414L40.619 210H42.1299L40.219 206.8C41.5189 206.478 42.0077 205.5 42.0077 204.589C42.0077 203.334 41.1078 202.279 39.2746 202.279H36.6082ZM48.8385 210H50.1717L47.4053 202.267H45.9388L43.1724 210H44.4945L45.05 208.422H48.283L48.8385 210ZM47.9275 207.389H45.4055L46.6721 203.801L47.9275 207.389ZM51.3746 202.279V210H55.252V208.978H52.6411V202.279H51.3746ZM56.1445 205.845C56.1445 208.2 56.7667 209.978 59.0331 209.978C61.2995 209.978 61.9217 208.2 61.9217 205.845C61.9217 203.534 61.2995 201.756 59.0331 201.756C56.7667 201.756 56.1445 203.534 56.1445 205.845ZM60.6774 205.845C60.6774 207.434 60.5107 208.822 59.0331 208.822C57.5555 208.822 57.3888 207.434 57.3888 205.845C57.3888 204.334 57.5555 202.912 59.0331 202.912C60.5107 202.912 60.6774 204.334 60.6774 205.845ZM63.2396 203.901H64.4728C64.5506 203.334 64.9617 202.801 65.8505 202.801C66.717 202.801 67.1726 203.267 67.1726 203.967C67.1726 204.834 66.4726 205.167 65.3283 205.178H65.0283V206.223H65.3172C66.6393 206.223 67.3281 206.589 67.3281 207.656C67.3281 208.411 66.8615 208.989 65.9171 208.989C64.9617 208.989 64.4062 208.411 64.3506 207.656H63.1285C63.2063 209.245 64.3951 210.044 65.9282 210.044C67.617 210.044 68.528 209.067 68.528 207.778C68.528 206.656 67.9836 205.956 67.1392 205.7V205.656C67.7725 205.445 68.3835 204.789 68.3835 203.823C68.3835 202.645 67.5059 201.712 65.8949 201.712C64.4173 201.712 63.3285 202.501 63.2396 203.901ZM69.8584 205.845C69.8584 208.2 70.4806 209.978 72.747 209.978C75.0134 209.978 75.6356 208.2 75.6356 205.845C75.6356 203.534 75.0134 201.756 72.747 201.756C70.4806 201.756 69.8584 203.534 69.8584 205.845ZM74.3913 205.845C74.3913 207.434 74.2246 208.822 72.747 208.822C71.2694 208.822 71.1027 207.434 71.1027 205.845C71.1027 204.334 71.2694 202.912 72.747 202.912C74.2246 202.912 74.3913 204.334 74.3913 205.845Z" fill="#9AA3AF"/>
</svg>
