<svg width="112" height="218" viewBox="0 0 112 218" fill="none" xmlns="http://www.w3.org/2000/svg">
<rect y="100" width="112" height="94" fill="#F9FAFA"/>
<path d="M0 4C0 1.79086 1.79086 0 4 0H108C110.209 0 112 1.79086 112 4V100H0V4Z" fill="#86909E"/>
<path d="M13.9105 109.267V115.022L10.0998 109.267H8.83325V117H10.0998V111.234L13.9105 117H15.1771V109.267H13.9105ZM22.0509 117H23.3841L20.6177 109.267H19.1511L16.3848 117H17.7068L18.2623 115.422H21.4954L22.0509 117ZM21.1398 114.389H18.6179L19.8844 110.801L21.1398 114.389ZM24.5869 117H25.8534V111.712L28.2199 117H29.0975L31.4529 111.712V117H32.7194V109.279H31.364L28.6643 115.333L25.9534 109.279H24.5869V117ZM38.6503 109.267H34.3841V117H38.6503V115.967H35.6506V113.6H38.317V112.567H35.6506V110.301H38.6503V109.267Z" fill="#C2C8CF"/>
<path d="M13.2387 127.602C10.626 127.602 8.57319 129.562 8.57319 132.348C8.57319 135.134 10.626 137.08 13.2387 137.08C15.7581 137.08 17.5843 135.227 17.7976 132.921V131.988H12.7988V132.974H16.5045C16.3179 134.814 15.0649 135.987 13.2387 135.987C11.2792 135.987 9.81288 134.574 9.81288 132.348C9.81288 130.108 11.2792 128.695 13.2387 128.695C14.545 128.695 15.5581 129.322 16.0647 130.402H17.5176C16.8245 128.615 15.1982 127.602 13.2387 127.602ZM20.6144 133.028C20.6144 131.335 21.4942 130.815 22.6539 130.815H22.9739V129.562C21.8141 129.562 21.0277 130.068 20.6144 130.882V129.695H19.4014V137H20.6144V133.028ZM23.9209 133.321C23.9209 135.587 25.4272 137.12 27.3734 137.12C28.7197 137.12 29.6661 136.427 30.106 135.64V137H31.3324V129.695H30.106V131.028C29.6795 130.268 28.7464 129.575 27.3867 129.575C25.4272 129.575 23.9209 131.041 23.9209 133.321ZM30.106 133.334C30.106 135.054 28.9597 136.054 27.6267 136.054C26.2937 136.054 25.1606 135.04 25.1606 133.321C25.1606 131.601 26.2937 130.628 27.6267 130.628C28.9597 130.628 30.106 131.641 30.106 133.334ZM36.1549 135.614L33.8622 129.695H32.5158L35.4618 136.92L34.0221 140.439H35.2752L39.6741 129.695H38.421L36.1549 135.614ZM43.994 132.348C43.994 135.134 46.0335 137.08 48.6329 137.08C50.6457 137.08 52.2453 136.08 52.9385 134.294H51.4855C50.9789 135.4 49.9925 136.027 48.6329 136.027C46.6867 136.027 45.2337 134.614 45.2337 132.348C45.2337 130.068 46.6867 128.655 48.6329 128.655C49.9925 128.655 50.9789 129.282 51.4855 130.402H52.9385C52.2453 128.602 50.6457 127.589 48.6329 127.589C46.0335 127.589 43.994 129.562 43.994 132.348ZM54.7441 137H55.9572V132.961C55.9572 131.388 56.8103 130.615 58.05 130.615C59.2763 130.615 60.0895 131.375 60.0895 132.868V137H61.2892V132.694C61.2892 130.602 59.9962 129.562 58.3699 129.562C57.3435 129.562 56.4371 129.975 55.9572 130.748V127.136H54.7441V137ZM62.8174 133.321C62.8174 135.587 64.3237 137.12 66.2699 137.12C67.6162 137.12 68.5627 136.427 69.0026 135.64V137H70.2289V129.695H69.0026V131.028C68.576 130.268 67.6429 129.575 66.2832 129.575C64.3237 129.575 62.8174 131.041 62.8174 133.321ZM69.0026 133.334C69.0026 135.054 67.8562 136.054 66.5232 136.054C65.1902 136.054 64.0571 135.04 64.0571 133.321C64.0571 131.601 65.1902 130.628 66.5232 130.628C67.8562 130.628 69.0026 131.641 69.0026 133.334ZM72.5454 135C72.5454 136.467 73.2786 137 74.5716 137H75.6646V135.974H74.7715C74.0251 135.974 73.7585 135.72 73.7585 135V130.695H75.6646V129.695H73.7585V127.856H72.5454V129.695H71.599V130.695H72.5454V135ZM80.2403 130.602C81.4933 130.602 82.5597 131.388 82.5464 132.814H77.9342C78.0675 131.388 79.0539 130.602 80.2403 130.602ZM83.6528 134.747H82.3464C82.0798 135.534 81.3867 136.094 80.2936 136.094C79.0539 136.094 78.0142 135.28 77.9209 133.801H83.7594C83.7861 133.548 83.7994 133.334 83.7994 133.068C83.7994 131.068 82.4131 129.575 80.2936 129.575C78.1608 129.575 76.6812 131.028 76.6812 133.334C76.6812 135.654 78.2141 137.12 80.2936 137.12C82.1065 137.12 83.2795 136.08 83.6528 134.747ZM84.9473 133.321C84.9473 135.587 86.4536 137.12 88.3998 137.12C89.7461 137.12 90.6926 136.427 91.1324 135.64V137H92.3588V129.695H91.1324V131.028C90.7059 130.268 89.7728 129.575 88.4131 129.575C86.4536 129.575 84.9473 131.041 84.9473 133.321ZM91.1324 133.334C91.1324 135.054 89.9861 136.054 88.6531 136.054C87.3201 136.054 86.187 135.04 86.187 133.321C86.187 131.601 87.3201 130.628 88.6531 130.628C89.9861 130.628 91.1324 131.641 91.1324 133.334ZM100.887 129.695H99.6741V133.707C99.6741 135.28 98.8343 136.054 97.5812 136.054C96.3549 136.054 95.5418 135.294 95.5418 133.814V129.695H94.3421V133.974C94.3421 136.067 95.6617 137.107 97.3413 137.107C98.3144 137.107 99.2075 136.68 99.6741 135.92V137H100.887V129.695Z" fill="#5D6B7E"/>
<path d="M13.7328 160H14.9993V152.279H13.7328V155.589H10.0998V152.279H8.83325V160H10.0998V156.623H13.7328V160ZM20.9329 152.267H16.6667V160H20.9329V158.967H17.9332V156.6H20.5996V155.567H17.9332V153.301H20.9329V152.267ZM27.0147 160H28.4368L26.037 156.145L28.4479 152.279H27.0369L25.3926 155.1L23.6372 152.279H22.2152L24.626 156.145L22.2263 160H23.6372L25.2704 157.2L27.0147 160Z" fill="#C2C8CF"/>
<path d="M10.586 174.988C9.50629 175.308 8.7998 176.188 8.7998 177.401C8.7998 179.147 10.1728 180.267 12.199 180.267C14.2384 180.267 15.6248 179.147 15.6248 177.401C15.6248 176.201 14.9183 175.321 13.8252 174.988C14.7716 174.615 15.3715 173.815 15.3715 172.775C15.3715 171.375 14.2918 170.216 12.199 170.216C10.1061 170.216 9.03974 171.362 9.03974 172.775C9.03974 173.855 9.5996 174.601 10.586 174.988ZM12.199 174.588C11.0259 174.588 10.2128 173.935 10.2128 172.935C10.2128 171.802 11.0126 171.229 12.199 171.229C13.412 171.229 14.1985 171.815 14.1985 172.922C14.1985 173.922 13.3853 174.588 12.199 174.588ZM12.199 175.521C13.4653 175.521 14.4251 176.121 14.4251 177.361C14.4251 178.48 13.5719 179.254 12.199 179.254C10.826 179.254 9.95951 178.494 9.95951 177.361C9.95951 176.081 10.9593 175.521 12.199 175.521ZM23.7275 172.655C23.5676 171.309 22.6345 170.162 20.7949 170.162C18.3555 170.162 17.3824 172.029 17.3824 175.055C17.3824 177.974 18.0623 180.027 20.9149 180.027C23.021 180.027 24.0608 178.587 24.0608 176.827C24.0608 174.801 22.8477 173.615 21.0482 173.615C19.9018 173.615 18.8487 174.148 18.4355 175.095C18.4222 172.229 19.2486 171.176 20.7816 171.176C21.8747 171.176 22.4212 171.722 22.6078 172.655H23.7275ZM20.7949 174.641C22.1812 174.641 22.8877 175.508 22.8877 176.867C22.8877 178.174 22.1013 179.014 20.8482 179.014C19.3286 179.014 18.5821 178.014 18.5821 176.734C18.5821 175.295 19.6885 174.641 20.7949 174.641ZM26.1371 177.414C26.2704 178.827 27.2035 180.013 29.1231 180.013C31.6558 180.013 32.3889 178.214 32.3889 175.001C32.3889 172.015 31.6291 170.176 29.0164 170.176C26.9369 170.176 25.8439 171.509 25.8439 173.348C25.8439 175.388 27.1635 176.494 28.9364 176.494C29.9762 176.494 30.9359 176.028 31.3225 175.215C31.3625 178.04 30.6027 179 29.1897 179C28.07 179 27.4301 178.414 27.2569 177.414H26.1371ZM29.1364 175.468C27.6967 175.468 27.0036 174.561 27.0036 173.322C27.0036 172.042 27.7901 171.189 29.0431 171.189C30.4294 171.189 31.1759 172.109 31.1759 173.415C31.1759 174.708 30.2961 175.468 29.1364 175.468ZM34.0936 175.081C34.0936 177.881 34.7867 180 37.4527 180C40.1054 180 40.7986 177.881 40.7986 175.081C40.7986 172.322 40.1054 170.216 37.4527 170.216C34.7867 170.216 34.0936 172.322 34.0936 175.081ZM39.5989 175.081C39.5989 177.161 39.3456 178.894 37.4527 178.894C35.5465 178.894 35.2933 177.161 35.2933 175.081C35.2933 173.082 35.5465 171.322 37.4527 171.322C39.3456 171.322 39.5989 173.082 39.5989 175.081ZM42.9038 177.414C43.0371 178.827 43.9702 180.013 45.8897 180.013C48.4224 180.013 49.1555 178.214 49.1555 175.001C49.1555 172.015 48.3957 170.176 45.7831 170.176C43.7036 170.176 42.6105 171.509 42.6105 173.348C42.6105 175.388 43.9302 176.494 45.7031 176.494C46.7428 176.494 47.7026 176.028 48.0891 175.215C48.1291 178.04 47.3693 179 45.9563 179C44.8366 179 44.1968 178.414 44.0235 177.414H42.9038ZM45.903 175.468C44.4634 175.468 43.7702 174.561 43.7702 173.322C43.7702 172.042 44.5567 171.189 45.8097 171.189C47.196 171.189 47.9425 172.109 47.9425 173.415C47.9425 174.708 47.0627 175.468 45.903 175.468ZM56.0589 170.696H51.0602V180H56.0589V179H52.2732V175.801H55.659V174.801H52.2732V171.695H56.0589V170.696Z" fill="#5D6B7E"/>
<path d="M0 194H112V214C112 216.209 110.209 218 108 218H4C1.79086 218 0 216.209 0 214V194Z" fill="#EDEFF1"/>
<path d="M13.9105 202.267V208.022L10.0998 202.267H8.83325V210H10.0998V204.234L13.9105 210H15.1771V202.267H13.9105ZM21.1065 202.267H16.8403V210H21.1065V208.967H18.1068V206.6H20.7732V205.567H18.1068V203.301H21.1065V202.267ZM22.6554 207.178C22.6554 209.145 24.033 210.078 25.6551 210.078C27.266 210.078 28.6881 209.145 28.6881 207.178V202.279H27.4216V207.2C27.4216 208.4 26.7439 208.967 25.6662 208.967C24.5996 208.967 23.9219 208.4 23.9219 207.2V202.279H22.6554V207.178ZM29.9372 203.312H32.0037V210H33.2702V203.312H35.3256V202.279H29.9372V203.312ZM40.7078 204.589C40.7078 205.356 40.2634 205.9 39.2746 205.9H37.8748V203.312H39.2746C40.2634 203.312 40.7078 203.812 40.7078 204.589ZM36.6082 202.279V210H37.8748V206.911H38.8414L40.619 210H42.1299L40.219 206.8C41.5189 206.478 42.0077 205.5 42.0077 204.589C42.0077 203.334 41.1078 202.279 39.2746 202.279H36.6082ZM48.8385 210H50.1717L47.4053 202.267H45.9388L43.1724 210H44.4945L45.05 208.422H48.283L48.8385 210ZM47.9275 207.389H45.4055L46.6721 203.801L47.9275 207.389ZM51.3746 202.279V210H55.252V208.978H52.6411V202.279H51.3746ZM56.0445 209.889H61.444V208.833H57.9221C59.222 207.645 61.2218 206.145 61.2218 204.178C61.2218 202.723 60.2885 201.734 58.6442 201.734C57.211 201.734 56.0778 202.59 56.0334 204.345H57.2555C57.2888 203.434 57.7666 202.812 58.6554 202.812C59.5997 202.812 59.9663 203.39 59.9663 204.234C59.9663 205.823 57.9554 207.289 56.0445 208.967V209.889ZM62.5566 205.845C62.5566 208.2 63.1788 209.978 65.4452 209.978C67.7116 209.978 68.3338 208.2 68.3338 205.845C68.3338 203.534 67.7116 201.756 65.4452 201.756C63.1788 201.756 62.5566 203.534 62.5566 205.845ZM67.0895 205.845C67.0895 207.434 66.9228 208.822 65.4452 208.822C63.9676 208.822 63.8009 207.434 63.8009 205.845C63.8009 204.334 63.9676 202.912 65.4452 202.912C66.9228 202.912 67.0895 204.334 67.0895 205.845ZM69.674 205.845C69.674 208.2 70.2961 209.978 72.5626 209.978C74.829 209.978 75.4512 208.2 75.4512 205.845C75.4512 203.534 74.829 201.756 72.5626 201.756C70.2961 201.756 69.674 203.534 69.674 205.845ZM74.2068 205.845C74.2068 207.434 74.0402 208.822 72.5626 208.822C71.0849 208.822 70.9183 207.434 70.9183 205.845C70.9183 204.334 71.0849 202.912 72.5626 202.912C74.0402 202.912 74.2068 204.334 74.2068 205.845Z" fill="#9AA3AF"/>
</svg>
