<svg width="112" height="218" viewBox="0 0 112 218" fill="none" xmlns="http://www.w3.org/2000/svg">
<rect y="100" width="112" height="94" fill="#F9FAFA"/>
<path d="M0 4C0 1.79086 1.79086 0 4 0H108C110.209 0 112 1.79086 112 4V100H0V4Z" fill="#C8CED4"/>
<path d="M13.9105 109.267V115.022L10.0998 109.267H8.83325V117H10.0998V111.234L13.9105 117H15.1771V109.267H13.9105ZM22.0509 117H23.3841L20.6177 109.267H19.1511L16.3848 117H17.7068L18.2623 115.422H21.4954L22.0509 117ZM21.1398 114.389H18.6179L19.8844 110.801L21.1398 114.389ZM24.5869 117H25.8534V111.712L28.2199 117H29.0975L31.4529 111.712V117H32.7194V109.279H31.364L28.6643 115.333L25.9534 109.279H24.5869V117ZM38.6503 109.267H34.3841V117H38.6503V115.967H35.6506V113.6H38.317V112.567H35.6506V110.301H38.6503V109.267Z" fill="#C2C8CF"/>
<path d="M9.02641 127.709V137H13.492V136.014H10.2394V127.709H9.02641ZM21.7118 133.334C21.7118 131.028 20.0988 129.575 18.0194 129.575C15.9532 129.575 14.327 131.028 14.327 133.334C14.327 135.654 15.8999 137.12 17.966 137.12C20.0455 137.12 21.7118 135.654 21.7118 133.334ZM15.5666 133.334C15.5666 131.495 16.7264 130.628 18.006 130.628C19.2591 130.628 20.4721 131.495 20.4721 133.334C20.4721 135.187 19.2324 136.054 17.966 136.054C16.6997 136.054 15.5666 135.187 15.5666 133.334ZM24.5197 131.055V127.136H23.3067V137H24.5197V135.654C24.9729 136.453 25.9194 137.12 27.2524 137.12C29.2119 137.12 30.7182 135.587 30.7182 133.321C30.7182 131.041 29.2252 129.575 27.2524 129.575C25.9594 129.575 24.9863 130.242 24.5197 131.055ZM29.4785 133.321C29.4785 135.04 28.3454 136.054 26.9991 136.054C25.6794 136.054 24.5197 135.054 24.5197 133.334C24.5197 131.641 25.6794 130.628 26.9991 130.628C28.3454 130.628 29.4785 131.601 29.4785 133.321ZM32.3149 137H33.5279V127.136H32.3149V137ZM42.5269 133.334C42.5269 131.028 40.914 129.575 38.8345 129.575C36.7683 129.575 35.1421 131.028 35.1421 133.334C35.1421 135.654 36.715 137.12 38.7812 137.12C40.8606 137.12 42.5269 135.654 42.5269 133.334ZM36.3818 133.334C36.3818 131.495 37.5415 130.628 38.8211 130.628C40.0742 130.628 41.2872 131.495 41.2872 133.334C41.2872 135.187 40.0475 136.054 38.7812 136.054C37.5148 136.054 36.3818 135.187 36.3818 133.334ZM44.1218 137H45.3348V127.136H44.1218V137ZM47.4022 137H48.6153V127.136H47.4022V137ZM53.4553 135.614L51.1625 129.695H49.8162L52.7621 136.92L51.3225 140.439H52.5755L56.9744 129.695H55.7214L53.4553 135.614Z" fill="#5D6B7E"/>
<path d="M13.7328 160H14.9993V152.279H13.7328V155.589H10.0998V152.279H8.83325V160H10.0998V156.623H13.7328V160ZM20.9329 152.267H16.6667V160H20.9329V158.967H17.9332V156.6H20.5996V155.567H17.9332V153.301H20.9329V152.267ZM27.0147 160H28.4368L26.037 156.145L28.4479 152.279H27.0369L25.3926 155.1L23.6372 152.279H22.2152L24.626 156.145L22.2263 160H23.6372L25.2704 157.2L27.0147 160Z" fill="#C2C8CF"/>
<path d="M8.57319 175.348C8.57319 178.134 10.6127 180.08 13.212 180.08C15.2249 180.08 16.8245 179.08 17.5176 177.294H16.0647C15.5581 178.4 14.5717 179.027 13.212 179.027C11.2659 179.027 9.81288 177.614 9.81288 175.348C9.81288 173.068 11.2659 171.655 13.212 171.655C14.5717 171.655 15.5581 172.282 16.0647 173.402H17.5176C16.8245 171.602 15.2249 170.589 13.212 170.589C10.6127 170.589 8.57319 172.562 8.57319 175.348ZM20.8829 174.988C19.8032 175.308 19.0967 176.188 19.0967 177.401C19.0967 179.147 20.4697 180.267 22.4959 180.267C24.5353 180.267 25.9217 179.147 25.9217 177.401C25.9217 176.201 25.2152 175.321 24.1221 174.988C25.0685 174.615 25.6684 173.815 25.6684 172.775C25.6684 171.375 24.5887 170.216 22.4959 170.216C20.403 170.216 19.3366 171.362 19.3366 172.775C19.3366 173.855 19.8965 174.601 20.8829 174.988ZM22.4959 174.588C21.3228 174.588 20.5097 173.935 20.5097 172.935C20.5097 171.802 21.3095 171.229 22.4959 171.229C23.7089 171.229 24.4954 171.815 24.4954 172.922C24.4954 173.922 23.6822 174.588 22.4959 174.588ZM22.4959 175.521C23.7622 175.521 24.722 176.121 24.722 177.361C24.722 178.48 23.8688 179.254 22.4959 179.254C21.1229 179.254 20.2564 178.494 20.2564 177.361C20.2564 176.081 21.2562 175.521 22.4959 175.521ZM27.2795 175.348C27.2795 178.134 29.3189 180.08 31.9183 180.08C33.9311 180.08 35.5307 179.08 36.2239 177.294H34.7709C34.2644 178.4 33.278 179.027 31.9183 179.027C29.9721 179.027 28.5191 177.614 28.5191 175.348C28.5191 173.068 29.9721 171.655 31.9183 171.655C33.278 171.655 34.2644 172.282 34.7709 173.402H36.2239C35.5307 171.602 33.9311 170.589 31.9183 170.589C29.3189 170.589 27.2795 172.562 27.2795 175.348ZM43.0283 170.696H38.0296V180H43.0283V179H39.2426V175.801H42.6284V174.801H39.2426V171.695H43.0283V170.696ZM47.7564 170.709H44.8638V180H47.7564C50.809 180 52.6885 178.254 52.6885 175.374C52.6885 172.495 50.809 170.709 47.7564 170.709ZM46.0768 179V171.695H47.7564C50.1825 171.695 51.4488 173.108 51.4488 175.374C51.4488 177.641 50.1825 179 47.7564 179H46.0768ZM58.7274 180H59.9271V177.854H61.2601V176.801H59.9271V170.456H58.4741L53.7953 176.934V177.854H58.7274V180ZM55.195 176.801L58.7807 171.722V176.801H55.195Z" fill="#5D6B7E"/>
<path d="M0 194H112V214C112 216.209 110.209 218 108 218H4C1.79086 218 0 216.209 0 214V194Z" fill="#EDEFF1"/>
<path d="M13.9105 202.267V208.022L10.0998 202.267H8.83325V210H10.0998V204.234L13.9105 210H15.1771V202.267H13.9105ZM21.1065 202.267H16.8403V210H21.1065V208.967H18.1068V206.6H20.7732V205.567H18.1068V203.301H21.1065V202.267ZM22.6554 207.178C22.6554 209.145 24.033 210.078 25.6551 210.078C27.266 210.078 28.6881 209.145 28.6881 207.178V202.279H27.4216V207.2C27.4216 208.4 26.7439 208.967 25.6662 208.967C24.5996 208.967 23.9219 208.4 23.9219 207.2V202.279H22.6554V207.178ZM29.9372 203.312H32.0037V210H33.2702V203.312H35.3256V202.279H29.9372V203.312ZM40.7078 204.589C40.7078 205.356 40.2634 205.9 39.2746 205.9H37.8748V203.312H39.2746C40.2634 203.312 40.7078 203.812 40.7078 204.589ZM36.6082 202.279V210H37.8748V206.911H38.8414L40.619 210H42.1299L40.219 206.8C41.5189 206.478 42.0077 205.5 42.0077 204.589C42.0077 203.334 41.1078 202.279 39.2746 202.279H36.6082ZM48.8385 210H50.1717L47.4053 202.267H45.9388L43.1724 210H44.4945L45.05 208.422H48.283L48.8385 210ZM47.9275 207.389H45.4055L46.6721 203.801L47.9275 207.389ZM51.3746 202.279V210H55.252V208.978H52.6411V202.279H51.3746ZM56.1445 205.845C56.1445 208.2 56.7667 209.978 59.0331 209.978C61.2995 209.978 61.9217 208.2 61.9217 205.845C61.9217 203.534 61.2995 201.756 59.0331 201.756C56.7667 201.756 56.1445 203.534 56.1445 205.845ZM60.6774 205.845C60.6774 207.434 60.5107 208.822 59.0331 208.822C57.5555 208.822 57.3888 207.434 57.3888 205.845C57.3888 204.334 57.5555 202.912 59.0331 202.912C60.5107 202.912 60.6774 204.334 60.6774 205.845ZM63.5951 201.879V206.556H64.795C65.0061 205.956 65.5061 205.545 66.2504 205.545C67.3059 205.545 67.828 206.145 67.828 207.2C67.828 208.2 67.3392 208.945 66.2504 208.945C65.395 208.945 64.8172 208.5 64.6506 207.811H63.4174C63.6062 209.078 64.5728 210 66.2393 210C68.1169 210 69.039 208.778 69.039 207.167C69.039 205.945 68.428 204.467 66.4393 204.467C65.7171 204.467 65.0617 204.801 64.7617 205.2V202.99H68.4835V201.879H63.5951ZM70.3575 205.845C70.3575 208.2 70.9796 209.978 73.2461 209.978C75.5125 209.978 76.1347 208.2 76.1347 205.845C76.1347 203.534 75.5125 201.756 73.2461 201.756C70.9796 201.756 70.3575 203.534 70.3575 205.845ZM74.8904 205.845C74.8904 207.434 74.7237 208.822 73.2461 208.822C71.7684 208.822 71.6018 207.434 71.6018 205.845C71.6018 204.334 71.7684 202.912 73.2461 202.912C74.7237 202.912 74.8904 204.334 74.8904 205.845Z" fill="#9AA3AF"/>
</svg>
