<svg width="112" height="218" viewBox="0 0 112 218" fill="none" xmlns="http://www.w3.org/2000/svg">
<rect y="100" width="112" height="94" fill="#F9FAFA"/>
<path d="M0 4C0 1.79086 1.79086 0 4 0H108C110.209 0 112 1.79086 112 4V100H0V4Z" fill="#202A38"/>
<path d="M13.9105 109.267V115.022L10.0998 109.267H8.83325V117H10.0998V111.234L13.9105 117H15.1771V109.267H13.9105ZM22.0509 117H23.3841L20.6177 109.267H19.1511L16.3848 117H17.7068L18.2623 115.422H21.4954L22.0509 117ZM21.1398 114.389H18.6179L19.8844 110.801L21.1398 114.389ZM24.5869 117H25.8534V111.712L28.2199 117H29.0975L31.4529 111.712V117H32.7194V109.279H31.364L28.6643 115.333L25.9534 109.279H24.5869V117ZM38.6503 109.267H34.3841V117H38.6503V115.967H35.6506V113.6H38.317V112.567H35.6506V110.301H38.6503V109.267Z" fill="#C2C8CF"/>
<path d="M12.4789 134.574C12.4789 135.347 12.0923 136.014 11.1326 136.014C10.1728 136.014 9.77289 135.334 9.75956 134.481H8.54653C8.54653 136.107 9.58627 137.093 11.1326 137.093C12.6655 137.093 13.7052 136.12 13.7052 134.574V127.709H12.4789V134.574ZM15.6417 133.321C15.6417 135.587 17.148 137.12 19.0942 137.12C20.4405 137.12 21.387 136.427 21.8269 135.64V137H23.0532V129.695H21.8269V131.028C21.4003 130.268 20.4672 129.575 19.1075 129.575C17.148 129.575 15.6417 131.041 15.6417 133.321ZM21.8269 133.334C21.8269 135.054 20.6805 136.054 19.3475 136.054C18.0145 136.054 16.8814 135.04 16.8814 133.321C16.8814 131.601 18.0145 130.628 19.3475 130.628C20.6805 130.628 21.8269 131.641 21.8269 133.334ZM26.3161 131.041V129.695H25.1031V140.466H26.3161V135.654C26.7694 136.4 27.7158 137.12 29.0488 137.12C31.0083 137.12 32.5146 135.587 32.5146 133.321C32.5146 131.041 31.0083 129.575 29.0488 129.575C27.7158 129.575 26.756 130.268 26.3161 131.041ZM31.2749 133.321C31.2749 135.04 30.1419 136.054 28.7955 136.054C27.4759 136.054 26.3161 135.054 26.3161 133.334C26.3161 131.641 27.4759 130.628 28.7955 130.628C30.1419 130.628 31.2749 131.601 31.2749 133.321ZM33.6581 133.321C33.6581 135.587 35.1644 137.12 37.1105 137.12C38.4569 137.12 39.4033 136.427 39.8432 135.64V137H41.0695V129.695H39.8432V131.028C39.4166 130.268 38.4835 129.575 37.1239 129.575C35.1644 129.575 33.6581 131.041 33.6581 133.321ZM39.8432 133.334C39.8432 135.054 38.6968 136.054 37.3638 136.054C36.0308 136.054 34.8978 135.04 34.8978 133.321C34.8978 131.601 36.0308 130.628 37.3638 130.628C38.6968 130.628 39.8432 131.641 39.8432 133.334ZM48.4648 137H49.6645V132.694C49.6645 130.602 48.3715 129.562 46.6786 129.562C45.6921 129.562 44.8124 129.975 44.3325 130.735V129.695H43.1194V137H44.3325V132.961C44.3325 131.388 45.1856 130.615 46.4253 130.615C47.6516 130.615 48.4648 131.375 48.4648 132.868V137ZM54.7519 130.602C56.0049 130.602 57.0713 131.388 57.0579 132.814H52.4458C52.5791 131.388 53.5655 130.602 54.7519 130.602ZM58.1643 134.747H56.858C56.5914 135.534 55.8982 136.094 54.8052 136.094C53.5655 136.094 52.5257 135.28 52.4324 133.801H58.271C58.2976 133.548 58.311 133.334 58.311 133.068C58.311 131.068 56.9246 129.575 54.8052 129.575C52.6724 129.575 51.1927 131.028 51.1927 133.334C51.1927 135.654 52.7257 137.12 54.8052 137.12C56.6181 137.12 57.7911 136.08 58.1643 134.747ZM65.1641 135.014C65.1108 132.401 60.8719 133.348 60.8719 131.615C60.8719 131.028 61.4051 130.602 62.2982 130.602C63.2713 130.602 63.8311 131.135 63.8845 131.868H65.0975C65.0175 130.442 63.9511 129.575 62.3382 129.575C60.7119 129.575 59.6589 130.495 59.6589 131.615C59.6589 134.334 63.9778 133.388 63.9778 135.014C63.9778 135.614 63.4446 136.094 62.4848 136.094C61.4584 136.094 60.8319 135.56 60.7652 134.854H59.5122C59.5922 136.187 60.7919 137.12 62.4981 137.12C64.1111 137.12 65.1641 136.214 65.1641 135.014ZM69.9824 130.602C71.2354 130.602 72.3018 131.388 72.2885 132.814H67.6763C67.8096 131.388 68.796 130.602 69.9824 130.602ZM73.3949 134.747H72.0886C71.822 135.534 71.1288 136.094 70.0357 136.094C68.796 136.094 67.7563 135.28 67.663 133.801H73.5015C73.5282 133.548 73.5415 133.334 73.5415 133.068C73.5415 131.068 72.1552 129.575 70.0357 129.575C67.9029 129.575 66.4233 131.028 66.4233 133.334C66.4233 135.654 67.9563 137.12 70.0357 137.12C71.8486 137.12 73.0217 136.08 73.3949 134.747ZM9.02641 158H10.2394V148.709H9.02641V158ZM17.6522 158H18.8519V153.694C18.8519 151.602 17.5589 150.562 15.8659 150.562C14.8795 150.562 13.9997 150.975 13.5199 151.735V150.695H12.3068V158H13.5199V153.961C13.5199 152.388 14.373 151.615 15.6127 151.615C16.839 151.615 17.6522 152.375 17.6522 153.868V158ZM20.3801 154.321C20.3801 156.587 21.8864 158.12 23.8459 158.12C25.1789 158.12 26.1254 157.44 26.5653 156.627V158H27.7916V148.136H26.5653V152.001C26.0587 151.162 25.0056 150.575 23.8593 150.575C21.8864 150.575 20.3801 152.041 20.3801 154.321ZM26.5653 154.334C26.5653 156.054 25.4189 157.054 24.0859 157.054C22.7529 157.054 21.6198 156.04 21.6198 154.321C21.6198 152.601 22.7529 151.628 24.0859 151.628C25.4189 151.628 26.5653 152.641 26.5653 154.334ZM29.8415 158H31.0545V150.695H29.8415V158ZM30.468 149.509C30.9079 149.509 31.2678 149.149 31.2678 148.682C31.2678 148.216 30.9079 147.856 30.468 147.856C30.0015 147.856 29.6416 148.216 29.6416 148.682C29.6416 149.149 30.0015 149.509 30.468 149.509ZM32.6687 154.321C32.6687 156.587 34.175 158.12 36.1345 158.12C37.4675 158.12 38.414 157.413 38.8538 156.627V158.16C38.8538 159.72 37.8808 160.546 36.5877 160.546C35.388 160.546 34.5216 159.946 34.255 159.066H33.0553C33.2952 160.626 34.6682 161.599 36.5877 161.599C38.7339 161.599 40.0802 160.173 40.0802 158.16V150.695H38.8538V152.028C38.4273 151.242 37.4675 150.575 36.1345 150.575C34.175 150.575 32.6687 152.041 32.6687 154.321ZM38.8538 154.334C38.8538 156.054 37.7075 157.054 36.3745 157.054C35.0415 157.054 33.9084 156.04 33.9084 154.321C33.9084 152.601 35.0415 151.628 36.3745 151.628C37.7075 151.628 38.8538 152.641 38.8538 154.334ZM49.0617 154.334C49.0617 152.028 47.4488 150.575 45.3693 150.575C43.3032 150.575 41.6769 152.028 41.6769 154.334C41.6769 156.654 43.2498 158.12 45.316 158.12C47.3955 158.12 49.0617 156.654 49.0617 154.334ZM42.9166 154.334C42.9166 152.495 44.0763 151.628 45.356 151.628C46.609 151.628 47.822 152.495 47.822 154.334C47.822 156.187 46.5823 157.054 45.316 157.054C44.0496 157.054 42.9166 156.187 42.9166 154.334Z" fill="#5D6B7E"/>
<path d="M13.7328 160H14.9993V152.279H13.7328V155.589H10.0998V152.279H8.83325V160H10.0998V156.623H13.7328V160ZM20.9329 152.267H16.6667V160H20.9329V158.967H17.9332V156.6H20.5996V155.567H17.9332V153.301H20.9329V152.267ZM27.0147 160H28.4368L26.037 156.145L28.4479 152.279H27.0369L25.3926 155.1L23.6372 152.279H22.2152L24.626 156.145L22.2263 160H23.6372L25.2704 157.2L27.0147 160Z" fill="#C2C8CF"/>
<path d="M8.67983 179.893H15.0916V178.88H10.506C12.2256 177.481 14.8116 175.441 14.8116 173.042C14.8116 171.256 13.6386 170.189 11.8257 170.189C10.0928 170.189 8.7998 171.256 8.71982 173.308H9.89286C9.94618 172.095 10.586 171.229 11.839 171.229C13.1454 171.229 13.6119 172.029 13.6119 173.095C13.6119 175.068 11.2125 176.987 8.67983 179.027V179.893ZM16.4938 175.081C16.4938 177.881 17.187 180 19.853 180C22.5056 180 23.1988 177.881 23.1988 175.081C23.1988 172.322 22.5056 170.216 19.853 170.216C17.187 170.216 16.4938 172.322 16.4938 175.081ZM21.9991 175.081C21.9991 177.161 21.7458 178.894 19.853 178.894C17.9468 178.894 17.6935 177.161 17.6935 175.081C17.6935 173.082 17.9468 171.322 19.853 171.322C21.7458 171.322 21.9991 173.082 21.9991 175.081ZM24.7175 179.893H31.1292V178.88H26.5437C28.2633 177.481 30.8493 175.441 30.8493 173.042C30.8493 171.256 29.6762 170.189 27.8634 170.189C26.1305 170.189 24.8375 171.256 24.7575 173.308H25.9305C25.9838 172.095 26.6237 171.229 27.8767 171.229C29.183 171.229 29.6496 172.029 29.6496 173.095C29.6496 175.068 27.2502 176.987 24.7175 179.027V179.893ZM38.9699 180H40.2495L36.9037 170.762H35.5041L32.1449 180H33.4246L34.1711 177.934H38.2234L38.9699 180ZM37.8768 176.947H34.5176L36.1972 172.255L37.8768 176.947ZM41.4869 172.788H42.6733C42.7933 171.855 43.4731 171.216 44.6062 171.216C45.7659 171.216 46.3791 171.855 46.3791 172.775C46.3791 173.895 45.5126 174.388 43.8997 174.401H43.5798V175.414H43.8863C45.6192 175.414 46.5657 175.934 46.5657 177.294C46.5657 178.28 45.9525 179.04 44.6595 179.04C43.3798 179.04 42.6333 178.254 42.5134 177.227H41.3403C41.4869 179.094 42.8466 180.067 44.6728 180.067C46.6856 180.067 47.7254 178.894 47.7254 177.401C47.7254 176.014 46.9656 175.188 45.8459 174.921V174.855C46.8589 174.628 47.5521 173.762 47.5521 172.655C47.5521 171.269 46.5257 170.176 44.6462 170.176C42.8599 170.176 41.6069 171.136 41.4869 172.788ZM51.1228 174.988C50.043 175.308 49.3365 176.188 49.3365 177.401C49.3365 179.147 50.7095 180.267 52.7357 180.267C54.7752 180.267 56.1615 179.147 56.1615 177.401C56.1615 176.201 55.455 175.321 54.3619 174.988C55.3084 174.615 55.9082 173.815 55.9082 172.775C55.9082 171.375 54.8285 170.216 52.7357 170.216C50.6429 170.216 49.5765 171.362 49.5765 172.775C49.5765 173.855 50.1363 174.601 51.1228 174.988ZM52.7357 174.588C51.5626 174.588 50.7495 173.935 50.7495 172.935C50.7495 171.802 51.5493 171.229 52.7357 171.229C53.9487 171.229 54.7352 171.815 54.7352 172.922C54.7352 173.922 53.9221 174.588 52.7357 174.588ZM52.7357 175.521C54.002 175.521 54.9618 176.121 54.9618 177.361C54.9618 178.48 54.1087 179.254 52.7357 179.254C51.3627 179.254 50.4962 178.494 50.4962 177.361C50.4962 176.081 51.496 175.521 52.7357 175.521Z" fill="#5D6B7E"/>
<path d="M0 194H112V214C112 216.209 110.209 218 108 218H4C1.79086 218 0 216.209 0 214V194Z" fill="#EDEFF1"/>
<path d="M13.9105 202.267V208.022L10.0998 202.267H8.83325V210H10.0998V204.234L13.9105 210H15.1771V202.267H13.9105ZM21.1065 202.267H16.8403V210H21.1065V208.967H18.1068V206.6H20.7732V205.567H18.1068V203.301H21.1065V202.267ZM22.6554 207.178C22.6554 209.145 24.033 210.078 25.6551 210.078C27.266 210.078 28.6881 209.145 28.6881 207.178V202.279H27.4216V207.2C27.4216 208.4 26.7439 208.967 25.6662 208.967C24.5996 208.967 23.9219 208.4 23.9219 207.2V202.279H22.6554V207.178ZM29.9372 203.312H32.0037V210H33.2702V203.312H35.3256V202.279H29.9372V203.312ZM40.7078 204.589C40.7078 205.356 40.2634 205.9 39.2746 205.9H37.8748V203.312H39.2746C40.2634 203.312 40.7078 203.812 40.7078 204.589ZM36.6082 202.279V210H37.8748V206.911H38.8414L40.619 210H42.1299L40.219 206.8C41.5189 206.478 42.0077 205.5 42.0077 204.589C42.0077 203.334 41.1078 202.279 39.2746 202.279H36.6082ZM48.8385 210H50.1717L47.4053 202.267H45.9388L43.1724 210H44.4945L45.05 208.422H48.283L48.8385 210ZM47.9275 207.389H45.4055L46.6721 203.801L47.9275 207.389ZM51.3746 202.279V210H55.252V208.978H52.6411V202.279H51.3746ZM57.511 205.767C56.7 206.067 56.1556 206.789 56.1556 207.767C56.1556 209.245 57.3555 210.2 59.022 210.2C60.6996 210.2 61.8995 209.245 61.8995 207.767C61.8995 206.8 61.3551 206.078 60.5329 205.767C61.1884 205.445 61.6884 204.812 61.6884 203.945C61.6884 202.778 60.8107 201.756 59.022 201.756C57.2333 201.756 56.3556 202.767 56.3556 203.945C56.3556 204.845 56.8222 205.423 57.511 205.767ZM59.022 205.367C58.1776 205.367 57.5777 204.845 57.5777 204.112C57.5777 203.256 58.1554 202.812 59.022 202.812C59.9108 202.812 60.4774 203.267 60.4774 204.101C60.4774 204.834 59.8663 205.367 59.022 205.367ZM59.022 206.323C59.9774 206.323 60.6552 206.811 60.6552 207.722C60.6552 208.533 60.0441 209.145 59.022 209.145C57.9888 209.145 57.3666 208.545 57.3666 207.722C57.3666 206.778 58.0887 206.323 59.022 206.323ZM63.2293 205.845C63.2293 208.2 63.8514 209.978 66.1179 209.978C68.3843 209.978 69.0065 208.2 69.0065 205.845C69.0065 203.534 68.3843 201.756 66.1179 201.756C63.8514 201.756 63.2293 203.534 63.2293 205.845ZM67.7622 205.845C67.7622 207.434 67.5955 208.822 66.1179 208.822C64.6403 208.822 64.4736 207.434 64.4736 205.845C64.4736 204.334 64.6403 202.912 66.1179 202.912C67.5955 202.912 67.7622 204.334 67.7622 205.845ZM70.3466 205.845C70.3466 208.2 70.9688 209.978 73.2352 209.978C75.5017 209.978 76.1238 208.2 76.1238 205.845C76.1238 203.534 75.5017 201.756 73.2352 201.756C70.9688 201.756 70.3466 203.534 70.3466 205.845ZM74.8795 205.845C74.8795 207.434 74.7129 208.822 73.2352 208.822C71.7576 208.822 71.5909 207.434 71.5909 205.845C71.5909 204.334 71.7576 202.912 73.2352 202.912C74.7129 202.912 74.8795 204.334 74.8795 205.845Z" fill="#9AA3AF"/>
</svg>
