<svg width="176" height="218" viewBox="0 0 176 218" fill="none" xmlns="http://www.w3.org/2000/svg">
<rect y="100" width="176" height="94" fill="#F9FAFA"/>
<path d="M0 194H176V214C176 216.209 174.209 218 172 218H4C1.79086 218 0 216.209 0 214V194Z" fill="#EDEFF1"/>
<path d="M0 4C0 1.79086 1.79086 0 4 0H172C174.209 0 176 1.79086 176 4V100H0V4Z" fill="#35465E"/>
<path d="M13.9105 109.267V115.022L10.0998 109.267H8.83325V117H10.0998V111.234L13.9105 117H15.1771V109.267H13.9105ZM22.0509 117H23.3841L20.6177 109.267H19.1511L16.3848 117H17.7068L18.2623 115.422H21.4954L22.0509 117ZM21.1398 114.389H18.6179L19.8844 110.801L21.1398 114.389ZM24.5869 117H25.8534V111.712L28.2199 117H29.0975L31.4529 111.712V117H32.7194V109.279H31.364L28.6643 115.333L25.9534 109.279H24.5869V117ZM38.6503 109.267H34.3841V117H38.6503V115.967H35.6506V113.6H38.317V112.567H35.6506V110.301H38.6503V109.267Z" fill="#C2C8CF"/>
<path d="M11.919 127.709H9.02641V137H11.919C14.9716 137 16.8511 135.254 16.8511 132.374C16.8511 129.495 14.9716 127.709 11.919 127.709ZM10.2394 136V128.695H11.919C14.3451 128.695 15.6114 130.108 15.6114 132.374C15.6114 134.641 14.3451 136 11.919 136H10.2394ZM17.9979 133.321C17.9979 135.587 19.5042 137.12 21.4504 137.12C22.7967 137.12 23.7431 136.427 24.183 135.64V137H25.4094V129.695H24.183V131.028C23.7565 130.268 22.8234 129.575 21.4637 129.575C19.5042 129.575 17.9979 131.041 17.9979 133.321ZM24.183 133.334C24.183 135.054 23.0367 136.054 21.7037 136.054C20.3707 136.054 19.2376 135.04 19.2376 133.321C19.2376 131.601 20.3707 130.628 21.7037 130.628C23.0367 130.628 24.183 131.641 24.183 133.334ZM28.6723 133.028C28.6723 131.335 29.5521 130.815 30.7118 130.815H31.0317V129.562C29.872 129.562 29.0856 130.068 28.6723 130.882V129.695H27.4593V137H28.6723V133.028ZM32.432 137H33.645V133.774L36.511 137H38.1639L34.7114 133.334L38.1506 129.695H36.4577L33.645 132.934V127.136H32.432V137ZM45.7387 127.709H42.8461V137H45.7387C48.7913 137 50.6708 135.254 50.6708 132.374C50.6708 129.495 48.7913 127.709 45.7387 127.709ZM44.0591 136V128.695H45.7387C48.1647 128.695 49.4311 130.108 49.4311 132.374C49.4311 134.641 48.1647 136 45.7387 136H44.0591ZM55.3767 130.602C56.6297 130.602 57.6961 131.388 57.6828 132.814H53.0706C53.2039 131.388 54.1903 130.602 55.3767 130.602ZM58.7892 134.747H57.4828C57.2162 135.534 56.5231 136.094 55.43 136.094C54.1903 136.094 53.1506 135.28 53.0573 133.801H58.8958C58.9225 133.548 58.9358 133.334 58.9358 133.068C58.9358 131.068 57.5495 129.575 55.43 129.575C53.2972 129.575 51.8176 131.028 51.8176 133.334C51.8176 135.654 53.3505 137.12 55.43 137.12C57.2429 137.12 58.4159 136.08 58.7892 134.747ZM65.8823 137H67.082V132.694C67.082 130.602 65.789 129.562 64.0961 129.562C63.1097 129.562 62.2299 129.975 61.75 130.735V129.695H60.537V137H61.75V132.961C61.75 131.388 62.6031 130.615 63.8428 130.615C65.0692 130.615 65.8823 131.375 65.8823 132.868V137ZM69.0635 137H70.2765V129.695H69.0635V137ZM69.69 128.509C70.1299 128.509 70.4898 128.149 70.4898 127.682C70.4898 127.216 70.1299 126.856 69.69 126.856C69.2234 126.856 68.8635 127.216 68.8635 127.682C68.8635 128.149 69.2234 128.509 69.69 128.509ZM82.8879 137H84.0876V132.694C84.0876 130.602 82.7946 129.562 81.1284 129.562C80.0087 129.562 78.9689 130.135 78.5424 131.188C78.0625 130.095 77.0627 129.562 75.863 129.562C74.9033 129.562 74.0368 129.975 73.5569 130.748V129.695H72.3439V137H73.5569V132.974C73.5569 131.401 74.3967 130.615 75.6231 130.615C76.8228 130.615 77.6226 131.375 77.6226 132.868V137H78.8223V132.974C78.8223 131.401 79.6621 130.615 80.8884 130.615C82.0881 130.615 82.8879 131.375 82.8879 132.868V137Z" fill="#5D6B7E"/>
<path d="M13.9105 202.267V208.022L10.0998 202.267H8.83325V210H10.0998V204.234L13.9105 210H15.1771V202.267H13.9105ZM21.1065 202.267H16.8403V210H21.1065V208.967H18.1068V206.6H20.7732V205.567H18.1068V203.301H21.1065V202.267ZM22.6554 207.178C22.6554 209.145 24.033 210.078 25.6551 210.078C27.266 210.078 28.6881 209.145 28.6881 207.178V202.279H27.4216V207.2C27.4216 208.4 26.7439 208.967 25.6662 208.967C24.5996 208.967 23.9219 208.4 23.9219 207.2V202.279H22.6554V207.178ZM29.9372 203.312H32.0037V210H33.2702V203.312H35.3256V202.279H29.9372V203.312ZM40.7078 204.589C40.7078 205.356 40.2634 205.9 39.2746 205.9H37.8748V203.312H39.2746C40.2634 203.312 40.7078 203.812 40.7078 204.589ZM36.6082 202.279V210H37.8748V206.911H38.8414L40.619 210H42.1299L40.219 206.8C41.5189 206.478 42.0077 205.5 42.0077 204.589C42.0077 203.334 41.1078 202.279 39.2746 202.279H36.6082ZM48.8385 210H50.1717L47.4053 202.267H45.9388L43.1724 210H44.4945L45.05 208.422H48.283L48.8385 210ZM47.9275 207.389H45.4055L46.6721 203.801L47.9275 207.389ZM51.3746 202.279V210H55.252V208.978H52.6411V202.279H51.3746ZM61.6662 203.778C61.5328 202.701 60.744 201.701 59.1664 201.701C57.1444 201.701 56.3 203.234 56.3 205.767C56.3 208.345 56.9111 210 59.2664 210C60.9996 210 61.9217 208.833 61.9217 207.3C61.9217 205.612 60.8885 204.634 59.433 204.634C58.5887 204.634 57.7888 204.989 57.3888 205.656C57.4221 203.534 58.011 202.756 59.1553 202.756C59.9552 202.756 60.3441 203.123 60.4996 203.778H61.6662ZM59.1553 205.7C60.2219 205.7 60.7107 206.389 60.7107 207.356C60.7107 208.311 60.133 208.945 59.1997 208.945C58.1221 208.945 57.5332 208.278 57.5332 207.278C57.5332 206.2 58.3221 205.7 59.1553 205.7ZM63.2727 205.845C63.2727 208.2 63.8948 209.978 66.1613 209.978C68.4277 209.978 69.0499 208.2 69.0499 205.845C69.0499 203.534 68.4277 201.756 66.1613 201.756C63.8948 201.756 63.2727 203.534 63.2727 205.845ZM67.8056 205.845C67.8056 207.434 67.6389 208.822 66.1613 208.822C64.6837 208.822 64.517 207.434 64.517 205.845C64.517 204.334 64.6837 202.912 66.1613 202.912C67.6389 202.912 67.8056 204.334 67.8056 205.845ZM70.39 205.845C70.39 208.2 71.0122 209.978 73.2786 209.978C75.5451 209.978 76.1672 208.2 76.1672 205.845C76.1672 203.534 75.5451 201.756 73.2786 201.756C71.0122 201.756 70.39 203.534 70.39 205.845ZM74.9229 205.845C74.9229 207.434 74.7563 208.822 73.2786 208.822C71.801 208.822 71.6343 207.434 71.6343 205.845C71.6343 204.334 71.801 202.912 73.2786 202.912C74.7563 202.912 74.9229 204.334 74.9229 205.845Z" fill="#9AA3AF"/>
<path d="M117.733 160H118.999V152.279H117.733V155.589H114.1V152.279H112.833V160H114.1V156.623H117.733V160ZM124.933 152.267H120.667V160H124.933V158.967H121.933V156.6H124.6V155.567H121.933V153.301H124.933V152.267ZM131.015 160H132.437L130.037 156.145L132.448 152.279H131.037L129.393 155.1L127.637 152.279H126.215L128.626 156.145L126.226 160H127.637L129.27 157.2L131.015 160Z" fill="#C2C8CF"/>
<path d="M112.8 172.788H113.986C114.106 171.855 114.786 171.216 115.919 171.216C117.079 171.216 117.692 171.855 117.692 172.775C117.692 173.895 116.825 174.388 115.213 174.401H114.893V175.414H115.199C116.932 175.414 117.879 175.934 117.879 177.294C117.879 178.28 117.265 179.04 115.972 179.04C114.693 179.04 113.946 178.254 113.826 177.227H112.653C112.8 179.094 114.159 180.067 115.986 180.067C117.999 180.067 119.038 178.894 119.038 177.401C119.038 176.014 118.278 175.188 117.159 174.921V174.855C118.172 174.628 118.865 173.762 118.865 172.655C118.865 171.269 117.839 170.176 115.959 170.176C114.173 170.176 112.92 171.136 112.8 172.788ZM121.023 170.349V175.788H122.169C122.489 175.028 123.195 174.521 124.169 174.521C125.568 174.521 126.275 175.321 126.275 176.694C126.275 178.014 125.621 179 124.155 179C123.022 179 122.236 178.4 122.009 177.387H120.823C121.063 178.947 122.222 180.027 124.142 180.027C126.395 180.027 127.434 178.534 127.434 176.668C127.434 175.175 126.688 173.482 124.342 173.482C123.395 173.482 122.542 173.908 122.142 174.455V171.415H126.821V170.349H121.023ZM133.685 180H134.885V177.854H136.218V176.801H134.885V170.456H133.432L128.753 176.934V177.854H133.685V180ZM130.153 176.801L133.739 171.722V176.801H130.153ZM143.921 172.655C143.761 171.309 142.828 170.162 140.989 170.162C138.549 170.162 137.576 172.029 137.576 175.055C137.576 177.974 138.256 180.027 141.109 180.027C143.215 180.027 144.255 178.587 144.255 176.827C144.255 174.801 143.042 173.615 141.242 173.615C140.096 173.615 139.043 174.148 138.629 175.095C138.616 172.229 139.443 171.176 140.975 171.176C142.069 171.176 142.615 171.722 142.802 172.655H143.921ZM140.989 174.641C142.375 174.641 143.082 175.508 143.082 176.867C143.082 178.174 142.295 179.014 141.042 179.014C139.522 179.014 138.776 178.014 138.776 176.734C138.776 175.295 139.882 174.641 140.989 174.641ZM146.238 170.349V175.788H147.384C147.704 175.028 148.41 174.521 149.384 174.521C150.783 174.521 151.49 175.321 151.49 176.694C151.49 178.014 150.837 179 149.37 179C148.237 179 147.451 178.4 147.224 177.387H146.038C146.278 178.947 147.437 180.027 149.357 180.027C151.61 180.027 152.649 178.534 152.649 176.668C152.649 175.175 151.903 173.482 149.557 173.482C148.61 173.482 147.757 173.908 147.357 174.455V171.415H152.036V170.349H146.238ZM159.46 170.696H154.461V180H159.46V179H155.674V175.801H159.06V174.801H155.674V171.695H159.46V170.696Z" fill="#5D6B7E"/>
<path d="M12.9328 154.589C12.9328 155.356 12.4884 155.9 11.4997 155.9H10.0998V153.312H11.4997C12.4884 153.312 12.9328 153.812 12.9328 154.589ZM8.83325 152.279V160H10.0998V156.911H11.0664L12.844 160H14.3549L12.444 156.8C13.7439 156.478 14.2327 155.5 14.2327 154.589C14.2327 153.334 13.3328 152.279 11.4997 152.279H8.83325ZM19.3748 152.179C17.1973 152.179 15.4308 153.812 15.4308 156.123C15.4308 158.445 17.1973 160.067 19.3748 160.067C21.4524 160.067 22.9633 158.545 23.1967 156.756V155.767H18.9415V156.778H21.8412C21.6524 158.078 20.7747 158.922 19.3748 158.922C17.8416 158.922 16.7306 157.822 16.7306 156.123C16.7306 154.423 17.8416 153.334 19.3748 153.334C20.2969 153.334 21.0302 153.723 21.4413 154.501H22.9633C22.3745 152.99 20.9858 152.179 19.3748 152.179ZM28.801 157.789C28.801 158.533 28.2788 158.967 27.4233 158.967H25.7124V156.556H27.3789C28.2232 156.556 28.801 157.023 28.801 157.789ZM28.601 154.423C28.601 155.134 28.101 155.523 27.2789 155.523H25.7124V153.312H27.2789C28.101 153.312 28.601 153.723 28.601 154.423ZM30.0675 157.922C30.0675 157 29.4009 156.178 28.5788 156.034C29.3231 155.767 29.8897 155.2 29.8897 154.267C29.8897 153.178 29.0232 152.279 27.39 152.279H24.4458V160H27.5344C29.112 160 30.0675 159.1 30.0675 157.922Z" fill="#C2C8CF"/>
<path d="M9.17304 170.349V175.788H10.3194C10.6393 175.028 11.3458 174.521 12.3189 174.521C13.7186 174.521 14.4251 175.321 14.4251 176.694C14.4251 178.014 13.7719 179 12.3056 179C11.1725 179 10.3861 178.4 10.1595 177.387H8.97309C9.21303 178.947 10.3727 180.027 12.2923 180.027C14.545 180.027 15.5848 178.534 15.5848 176.668C15.5848 175.175 14.8383 173.482 12.4922 173.482C11.5458 173.482 10.6927 173.908 10.2928 174.455V171.415H14.9716V170.349H9.17304ZM17.1701 172.788H18.3565C18.4764 171.855 19.1563 171.216 20.2893 171.216C21.449 171.216 22.0622 171.855 22.0622 172.775C22.0622 173.895 21.1958 174.388 19.5828 174.401H19.2629V175.414H19.5695C21.3024 175.414 22.2488 175.934 22.2488 177.294C22.2488 178.28 21.6357 179.04 20.3426 179.04C19.063 179.04 18.3165 178.254 18.1965 177.227H17.0235C17.1701 179.094 18.5298 180.067 20.356 180.067C22.3688 180.067 23.4085 178.894 23.4085 177.401C23.4085 176.014 22.6487 175.188 21.529 174.921V174.855C22.5421 174.628 23.2353 173.762 23.2353 172.655C23.2353 171.269 22.2088 170.176 20.3293 170.176C18.5431 170.176 17.2901 171.136 17.1701 172.788ZM24.1932 181.906H25.0064L26.4993 178.32H25.1663L24.1932 181.906ZM30.8562 170.389V171.429H36.0015L32.2425 180H33.4688L37.1746 171.309V170.389H30.8562ZM38.5196 175.081C38.5196 177.881 39.2127 180 41.8787 180C44.5314 180 45.2245 177.881 45.2245 175.081C45.2245 172.322 44.5314 170.216 41.8787 170.216C39.2127 170.216 38.5196 172.322 38.5196 175.081ZM44.0248 175.081C44.0248 177.161 43.7716 178.894 41.8787 178.894C39.9725 178.894 39.7193 177.161 39.7193 175.081C39.7193 173.082 39.9725 171.322 41.8787 171.322C43.7716 171.322 44.0248 173.082 44.0248 175.081ZM46.0367 181.906H46.8499L48.3428 178.32H47.0098L46.0367 181.906ZM53.5261 177.414C53.6594 178.827 54.5925 180.013 56.512 180.013C59.0447 180.013 59.7779 178.214 59.7779 175.001C59.7779 172.015 59.0181 170.176 56.4054 170.176C54.3259 170.176 53.2329 171.509 53.2329 173.348C53.2329 175.388 54.5525 176.494 56.3254 176.494C57.3652 176.494 58.3249 176.028 58.7115 175.215C58.7515 178.04 57.9917 179 56.5787 179C55.459 179 54.8191 178.414 54.6458 177.414H53.5261ZM56.5254 175.468C55.0857 175.468 54.3926 174.561 54.3926 173.322C54.3926 172.042 55.179 171.189 56.4321 171.189C57.8184 171.189 58.5649 172.109 58.5649 173.415C58.5649 174.708 57.6851 175.468 56.5254 175.468ZM66.1214 180H67.3211V177.854H68.6541V176.801H67.3211V170.456H65.8681L61.1893 176.934V177.854H66.1214V180ZM62.589 176.801L66.1747 171.722V176.801H62.589Z" fill="#5D6B7E"/>
</svg>
