<svg width="112" height="218" viewBox="0 0 112 218" fill="none" xmlns="http://www.w3.org/2000/svg">
<rect y="100" width="112" height="94" fill="#F9FAFA"/>
<path d="M0 4C0 1.79086 1.79086 0 4 0H108C110.209 0 112 1.79086 112 4V100H0V4Z" fill="#49596E"/>
<path d="M13.9105 109.267V115.022L10.0998 109.267H8.83325V117H10.0998V111.234L13.9105 117H15.1771V109.267H13.9105ZM22.0509 117H23.3841L20.6177 109.267H19.1511L16.3848 117H17.7068L18.2623 115.422H21.4954L22.0509 117ZM21.1398 114.389H18.6179L19.8844 110.801L21.1398 114.389ZM24.5869 117H25.8534V111.712L28.2199 117H29.0975L31.4529 111.712V117H32.7194V109.279H31.364L28.6643 115.333L25.9534 109.279H24.5869V117ZM38.6503 109.267H34.3841V117H38.6503V115.967H35.6506V113.6H38.317V112.567H35.6506V110.301H38.6503V109.267Z" fill="#C2C8CF"/>
<path d="M15.0649 134.467C15.0649 131.028 10.0528 132.521 10.0528 130.122C10.0528 129.122 10.8393 128.602 11.839 128.629C12.9721 128.642 13.5586 129.349 13.6386 129.975H14.9716C14.825 128.562 13.6653 127.589 11.8924 127.589C10.0528 127.589 8.81313 128.629 8.81313 130.162C8.81313 133.614 13.8385 132.015 13.8385 134.521C13.8385 135.4 13.1454 136.067 11.9723 136.067C10.6793 136.067 10.1328 135.294 10.0528 134.521H8.75981C8.78647 136.054 10.1061 137.093 11.9723 137.093C13.9852 137.093 15.0649 135.787 15.0649 134.467ZM16.85 137H18.063V132.961C18.063 131.388 18.9161 130.615 20.1558 130.615C21.3822 130.615 22.1953 131.375 22.1953 132.868V137H23.395V132.694C23.395 130.602 22.102 129.562 20.4757 129.562C19.4493 129.562 18.5429 129.975 18.063 130.748V127.136H16.85V137ZM31.8549 129.695H30.6418V133.707C30.6418 135.28 29.802 136.054 28.549 136.054C27.3227 136.054 26.5095 135.294 26.5095 133.814V129.695H25.3098V133.974C25.3098 136.067 26.6295 137.107 28.3091 137.107C29.2822 137.107 30.1753 136.68 30.6418 135.92V137H31.8549V129.695ZM34.1696 135C34.1696 136.467 34.9028 137 36.1958 137H37.2888V135.974H36.3957C35.6492 135.974 35.3826 135.72 35.3826 135V130.695H37.2888V129.695H35.3826V127.856H34.1696V129.695H33.2232V130.695H34.1696V135ZM39.0252 135C39.0252 136.467 39.7583 137 41.0513 137H42.1444V135.974H41.2513C40.5048 135.974 40.2382 135.72 40.2382 135V130.695H42.1444V129.695H40.2382V127.856H39.0252V129.695H38.0787V130.695H39.0252V135ZM43.6141 137H44.8271V127.136H43.6141V137ZM50.0004 130.602C51.2535 130.602 52.3199 131.388 52.3065 132.814H47.6943C47.8276 131.388 48.8141 130.602 50.0004 130.602ZM53.4129 134.747H52.1066C51.84 135.534 51.1468 136.094 50.0538 136.094C48.8141 136.094 47.7743 135.28 47.681 133.801H53.5196C53.5462 133.548 53.5595 133.334 53.5595 133.068C53.5595 131.068 52.1732 129.575 50.0538 129.575C47.921 129.575 46.4413 131.028 46.4413 133.334C46.4413 135.654 47.9743 137.12 50.0538 137.12C51.8666 137.12 53.0397 136.08 53.4129 134.747ZM62.9268 127.602C60.3141 127.602 58.2613 129.562 58.2613 132.348C58.2613 135.134 60.3141 137.08 62.9268 137.08C65.4462 137.08 67.2724 135.227 67.4856 132.921V131.988H62.4869V132.974H66.1926C66.006 134.814 64.753 135.987 62.9268 135.987C60.9673 135.987 59.501 134.574 59.501 132.348C59.501 130.108 60.9673 128.695 62.9268 128.695C64.2331 128.695 65.2462 129.322 65.7527 130.402H67.2057C66.5126 128.615 64.8863 127.602 62.9268 127.602ZM70.3025 133.028C70.3025 131.335 71.1823 130.815 72.342 130.815H72.662V129.562C71.5022 129.562 70.7158 130.068 70.3025 130.882V129.695H69.0895V137H70.3025V133.028ZM73.609 133.321C73.609 135.587 75.1153 137.12 77.0615 137.12C78.4078 137.12 79.3542 136.427 79.7941 135.64V137H81.0205V129.695H79.7941V131.028C79.3676 130.268 78.4345 129.575 77.0748 129.575C75.1153 129.575 73.609 131.041 73.609 133.321ZM79.7941 133.334C79.7941 135.054 78.6478 136.054 77.3148 136.054C75.9818 136.054 74.8487 135.04 74.8487 133.321C74.8487 131.601 75.9818 130.628 77.3148 130.628C78.6478 130.628 79.7941 131.641 79.7941 133.334ZM85.843 135.614L83.5503 129.695H82.2039L85.1499 136.92L83.7102 140.439H84.9633L89.3622 129.695H88.1091L85.843 135.614Z" fill="#5D6B7E"/>
<path d="M13.7328 160H14.9993V152.279H13.7328V155.589H10.0998V152.279H8.83325V160H10.0998V156.623H13.7328V160ZM20.9329 152.267H16.6667V160H20.9329V158.967H17.9332V156.6H20.5996V155.567H17.9332V153.301H20.9329V152.267ZM27.0147 160H28.4368L26.037 156.145L28.4479 152.279H27.0369L25.3926 155.1L23.6372 152.279H22.2152L24.626 156.145L22.2263 160H23.6372L25.2704 157.2L27.0147 160Z" fill="#C2C8CF"/>
<path d="M13.4653 180H14.665V177.854H15.998V176.801H14.665V170.456H13.212L8.5332 176.934V177.854H13.4653V180ZM9.93285 176.801L13.5186 171.722V176.801H9.93285ZM17.6497 177.414C17.783 178.827 18.7161 180.013 20.6356 180.013C23.1683 180.013 23.9014 178.214 23.9014 175.001C23.9014 172.015 23.1416 170.176 20.529 170.176C18.4495 170.176 17.3564 171.509 17.3564 173.348C17.3564 175.388 18.6761 176.494 20.449 176.494C21.4887 176.494 22.4485 176.028 22.835 175.215C22.875 178.04 22.1152 179 20.7022 179C19.5825 179 18.9427 178.414 18.7694 177.414H17.6497ZM20.6489 175.468C19.2093 175.468 18.5161 174.561 18.5161 173.322C18.5161 172.042 19.3026 171.189 20.5556 171.189C21.9419 171.189 22.6884 172.109 22.6884 173.415C22.6884 174.708 21.8086 175.468 20.6489 175.468ZM25.9527 170.349V175.788H27.0991C27.419 175.028 28.1255 174.521 29.0986 174.521C30.4982 174.521 31.2047 175.321 31.2047 176.694C31.2047 178.014 30.5515 179 29.0852 179C27.9522 179 27.1657 178.4 26.9391 177.387H25.7527C25.9927 178.947 27.1524 180.027 29.0719 180.027C31.3247 180.027 32.3644 178.534 32.3644 176.668C32.3644 175.175 31.6179 173.482 29.2719 173.482C28.3254 173.482 27.4723 173.908 27.0724 174.455V171.415H31.7512V170.349H25.9527ZM34.4163 177.414C34.5496 178.827 35.4827 180.013 37.4022 180.013C39.9349 180.013 40.6681 178.214 40.6681 175.001C40.6681 172.015 39.9083 170.176 37.2956 170.176C35.2161 170.176 34.123 171.509 34.123 173.348C34.123 175.388 35.4427 176.494 37.2156 176.494C38.2553 176.494 39.2151 176.028 39.6017 175.215C39.6417 178.04 38.8819 179 37.4689 179C36.3492 179 35.7093 178.414 35.536 177.414H34.4163ZM37.4156 175.468C35.9759 175.468 35.2828 174.561 35.2828 173.322C35.2828 172.042 36.0692 171.189 37.3222 171.189C38.7086 171.189 39.455 172.109 39.455 173.415C39.455 174.708 38.5753 175.468 37.4156 175.468ZM48.8645 172.655C48.7045 171.309 47.7714 170.162 45.9319 170.162C43.4925 170.162 42.5194 172.029 42.5194 175.055C42.5194 177.974 43.1992 180.027 46.0518 180.027C48.158 180.027 49.1977 178.587 49.1977 176.827C49.1977 174.801 47.9847 173.615 46.1851 173.615C45.0388 173.615 43.9857 174.148 43.5725 175.095C43.5591 172.229 44.3856 171.176 45.9185 171.176C47.0116 171.176 47.5581 171.722 47.7447 172.655H48.8645ZM45.9319 174.641C47.3182 174.641 48.0247 175.508 48.0247 176.867C48.0247 178.174 47.2382 179.014 45.9852 179.014C44.4656 179.014 43.7191 178.014 43.7191 176.734C43.7191 175.295 44.8255 174.641 45.9319 174.641ZM56.0329 170.696H51.0341V180H56.0329V179H52.2472V175.801H55.633V174.801H52.2472V171.695H56.0329V170.696Z" fill="#5D6B7E"/>
<path d="M0 194H112V214C112 216.209 110.209 218 108 218H4C1.79086 218 0 216.209 0 214V194Z" fill="#EDEFF1"/>
<path d="M13.9105 202.267V208.022L10.0998 202.267H8.83325V210H10.0998V204.234L13.9105 210H15.1771V202.267H13.9105ZM21.1065 202.267H16.8403V210H21.1065V208.967H18.1068V206.6H20.7732V205.567H18.1068V203.301H21.1065V202.267ZM22.6554 207.178C22.6554 209.145 24.033 210.078 25.6551 210.078C27.266 210.078 28.6881 209.145 28.6881 207.178V202.279H27.4216V207.2C27.4216 208.4 26.7439 208.967 25.6662 208.967C24.5996 208.967 23.9219 208.4 23.9219 207.2V202.279H22.6554V207.178ZM29.9372 203.312H32.0037V210H33.2702V203.312H35.3256V202.279H29.9372V203.312ZM40.7078 204.589C40.7078 205.356 40.2634 205.9 39.2746 205.9H37.8748V203.312H39.2746C40.2634 203.312 40.7078 203.812 40.7078 204.589ZM36.6082 202.279V210H37.8748V206.911H38.8414L40.619 210H42.1299L40.219 206.8C41.5189 206.478 42.0077 205.5 42.0077 204.589C42.0077 203.334 41.1078 202.279 39.2746 202.279H36.6082ZM48.8385 210H50.1717L47.4053 202.267H45.9388L43.1724 210H44.4945L45.05 208.422H48.283L48.8385 210ZM47.9275 207.389H45.4055L46.6721 203.801L47.9275 207.389ZM51.3746 202.279V210H55.252V208.978H52.6411V202.279H51.3746ZM56.4778 201.879V206.556H57.6777C57.8888 205.956 58.3887 205.545 59.1331 205.545C60.1885 205.545 60.7107 206.145 60.7107 207.2C60.7107 208.2 60.2219 208.945 59.1331 208.945C58.2776 208.945 57.6999 208.5 57.5332 207.811H56.3C56.4889 209.078 57.4555 210 59.122 210C60.9996 210 61.9217 208.778 61.9217 207.167C61.9217 205.945 61.3106 204.467 59.322 204.467C58.5998 204.467 57.9443 204.801 57.6443 205.2V202.99H61.3662V201.879H56.4778ZM63.2401 205.845C63.2401 208.2 63.8623 209.978 66.1287 209.978C68.3952 209.978 69.0173 208.2 69.0173 205.845C69.0173 203.534 68.3952 201.756 66.1287 201.756C63.8623 201.756 63.2401 203.534 63.2401 205.845ZM67.773 205.845C67.773 207.434 67.6064 208.822 66.1287 208.822C64.6511 208.822 64.4845 207.434 64.4845 205.845C64.4845 204.334 64.6511 202.912 66.1287 202.912C67.6064 202.912 67.773 204.334 67.773 205.845ZM70.3575 205.845C70.3575 208.2 70.9796 209.978 73.2461 209.978C75.5125 209.978 76.1347 208.2 76.1347 205.845C76.1347 203.534 75.5125 201.756 73.2461 201.756C70.9796 201.756 70.3575 203.534 70.3575 205.845ZM74.8904 205.845C74.8904 207.434 74.7237 208.822 73.2461 208.822C71.7684 208.822 71.6018 207.434 71.6018 205.845C71.6018 204.334 71.7684 202.912 73.2461 202.912C74.7237 202.912 74.8904 204.334 74.8904 205.845Z" fill="#9AA3AF"/>
</svg>
