<svg width="112" height="218" viewBox="0 0 112 218" fill="none" xmlns="http://www.w3.org/2000/svg">
<rect y="100" width="112" height="94" fill="#F9FAFA"/>
<path d="M0 4C0 1.79086 1.79086 0 4 0H108C110.209 0 112 1.79086 112 4V100H0V4Z" fill="#F9FAFA"/>
<path d="M13.9105 109.267V115.022L10.0998 109.267H8.83325V117H10.0998V111.234L13.9105 117H15.1771V109.267H13.9105ZM22.0509 117H23.3841L20.6177 109.267H19.1511L16.3848 117H17.7068L18.2623 115.422H21.4954L22.0509 117ZM21.1398 114.389H18.6179L19.8844 110.801L21.1398 114.389ZM24.5869 117H25.8534V111.712L28.2199 117H29.0975L31.4529 111.712V117H32.7194V109.279H31.364L28.6643 115.333L25.9534 109.279H24.5869V117ZM38.6503 109.267H34.3841V117H38.6503V115.967H35.6506V113.6H38.317V112.567H35.6506V110.301H38.6503V109.267Z" fill="#C2C8CF"/>
<path d="M9.02641 137H10.2394V127.709H9.02641V137ZM17.5589 135.014C17.5055 132.401 13.2666 133.348 13.2666 131.615C13.2666 131.028 13.7998 130.602 14.6929 130.602C15.666 130.602 16.2259 131.135 16.2792 131.868H17.4922C17.4122 130.442 16.3458 129.575 14.7329 129.575C13.1066 129.575 12.0536 130.495 12.0536 131.615C12.0536 134.334 16.3725 133.388 16.3725 135.014C16.3725 135.614 15.8393 136.094 14.8795 136.094C13.8531 136.094 13.2266 135.56 13.16 134.854H11.9069C11.9869 136.187 13.1866 137.12 14.8929 137.12C16.5058 137.12 17.5589 136.214 17.5589 135.014ZM18.818 133.321C18.818 135.587 20.3243 137.12 22.2705 137.12C23.6168 137.12 24.5633 136.427 25.0031 135.64V137H26.2295V129.695H25.0031V131.028C24.5766 130.268 23.6435 129.575 22.2838 129.575C20.3243 129.575 18.818 131.041 18.818 133.321ZM25.0031 133.334C25.0031 135.054 23.8568 136.054 22.5238 136.054C21.1908 136.054 20.0577 135.04 20.0577 133.321C20.0577 131.601 21.1908 130.628 22.5238 130.628C23.8568 130.628 25.0031 131.641 25.0031 133.334ZM29.4924 131.055V127.136H28.2794V137H29.4924V135.654C29.9457 136.453 30.8921 137.12 32.2251 137.12C34.1846 137.12 35.6909 135.587 35.6909 133.321C35.6909 131.041 34.1979 129.575 32.2251 129.575C30.9321 129.575 29.959 130.242 29.4924 131.055ZM34.4512 133.321C34.4512 135.04 33.3181 136.054 31.9718 136.054C30.6521 136.054 29.4924 135.054 29.4924 133.334C29.4924 131.641 30.6521 130.628 31.9718 130.628C33.3181 130.628 34.4512 131.601 34.4512 133.321ZM40.3935 130.602C41.6465 130.602 42.7129 131.388 42.6996 132.814H38.0874C38.2207 131.388 39.2071 130.602 40.3935 130.602ZM43.8059 134.747H42.4996C42.233 135.534 41.5398 136.094 40.4468 136.094C39.2071 136.094 38.1674 135.28 38.074 133.801H43.9126C43.9392 133.548 43.9526 133.334 43.9526 133.068C43.9526 131.068 42.5663 129.575 40.4468 129.575C38.314 129.575 36.8344 131.028 36.8344 133.334C36.8344 135.654 38.3673 137.12 40.4468 137.12C42.2597 137.12 43.4327 136.08 43.8059 134.747ZM45.5537 137H46.7668V127.136H45.5537V137ZM48.8342 137H50.0472V127.136H48.8342V137ZM52.1146 137H53.3276V129.695H52.1146V137ZM52.7411 128.509C53.181 128.509 53.5409 128.149 53.5409 127.682C53.5409 127.216 53.181 126.856 52.7411 126.856C52.2746 126.856 51.9146 127.216 51.9146 127.682C51.9146 128.149 52.2746 128.509 52.7411 128.509ZM60.7404 137H61.9401V132.694C61.9401 130.602 60.647 129.562 58.9541 129.562C57.9677 129.562 57.0879 129.975 56.6081 130.735V129.695H55.395V137H56.6081V132.961C56.6081 131.388 57.4612 130.615 58.7009 130.615C59.9272 130.615 60.7404 131.375 60.7404 132.868V137ZM67.0274 130.602C68.2804 130.602 69.3468 131.388 69.3335 132.814H64.7213C64.8546 131.388 65.8411 130.602 67.0274 130.602ZM70.4399 134.747H69.1336C68.867 135.534 68.1738 136.094 67.0807 136.094C65.8411 136.094 64.8013 135.28 64.708 133.801H70.5465C70.5732 133.548 70.5865 133.334 70.5865 133.068C70.5865 131.068 69.2002 129.575 67.0807 129.575C64.9479 129.575 63.4683 131.028 63.4683 133.334C63.4683 135.654 65.0013 137.12 67.0807 137.12C68.8936 137.12 70.0667 136.08 70.4399 134.747Z" fill="#5D6B7E"/>
<path d="M13.7328 160H14.9993V152.279H13.7328V155.589H10.0998V152.279H8.83325V160H10.0998V156.623H13.7328V160ZM20.9329 152.267H16.6667V160H20.9329V158.967H17.9332V156.6H20.5996V155.567H17.9332V153.301H20.9329V152.267ZM27.0147 160H28.4368L26.037 156.145L28.4479 152.279H27.0369L25.3926 155.1L23.6372 152.279H22.2152L24.626 156.145L22.2263 160H23.6372L25.2704 157.2L27.0147 160Z" fill="#C2C8CF"/>
<path d="M9.02641 180H10.2394V175.814H13.5186V174.828H10.2394V171.695H14.2784V170.709H9.02641V180ZM15.9834 177.414C16.1167 178.827 17.0498 180.013 18.9693 180.013C21.502 180.013 22.2352 178.214 22.2352 175.001C22.2352 172.015 21.4754 170.176 18.8627 170.176C16.7832 170.176 15.6902 171.509 15.6902 173.348C15.6902 175.388 17.0098 176.494 18.7827 176.494C19.8225 176.494 20.7822 176.028 21.1688 175.215C21.2088 178.04 20.449 179 19.036 179C17.9163 179 17.2764 178.414 17.1031 177.414H15.9834ZM18.9827 175.468C17.543 175.468 16.8499 174.561 16.8499 173.322C16.8499 172.042 17.6363 171.189 18.8894 171.189C20.2757 171.189 21.0222 172.109 21.0222 173.415C21.0222 174.708 20.1424 175.468 18.9827 175.468ZM24.1398 180H25.3528V175.814H28.632V174.828H25.3528V171.695H29.3918V170.709H24.1398V180ZM37.0953 180H38.375L35.0292 170.762H33.6295L30.2704 180H31.55L32.2965 177.934H36.3488L37.0953 180ZM36.0023 176.947H32.6431L34.3227 172.255L36.0023 176.947ZM39.839 180H41.052V175.814H44.3312V174.828H41.052V171.695H45.091V170.709H39.839V180ZM52.7945 180H54.0742L50.7284 170.762H49.3287L45.9696 180H47.2492L47.9957 177.934H52.048L52.7945 180ZM51.7015 176.947H48.3423L50.0219 172.255L51.7015 176.947Z" fill="#5D6B7E"/>
<path d="M0 194H112V214C112 216.209 110.209 218 108 218H4C1.79086 218 0 216.209 0 214V194Z" fill="#EDEFF1"/>
<path d="M13.9105 202.267V208.022L10.0998 202.267H8.83325V210H10.0998V204.234L13.9105 210H15.1771V202.267H13.9105ZM21.1065 202.267H16.8403V210H21.1065V208.967H18.1068V206.6H20.7732V205.567H18.1068V203.301H21.1065V202.267ZM22.6554 207.178C22.6554 209.145 24.033 210.078 25.6551 210.078C27.266 210.078 28.6881 209.145 28.6881 207.178V202.279H27.4216V207.2C27.4216 208.4 26.7439 208.967 25.6662 208.967C24.5996 208.967 23.9219 208.4 23.9219 207.2V202.279H22.6554V207.178ZM29.9372 203.312H32.0037V210H33.2702V203.312H35.3256V202.279H29.9372V203.312ZM40.7078 204.589C40.7078 205.356 40.2634 205.9 39.2746 205.9H37.8748V203.312H39.2746C40.2634 203.312 40.7078 203.812 40.7078 204.589ZM36.6082 202.279V210H37.8748V206.911H38.8414L40.619 210H42.1299L40.219 206.8C41.5189 206.478 42.0077 205.5 42.0077 204.589C42.0077 203.334 41.1078 202.279 39.2746 202.279H36.6082ZM48.8385 210H50.1717L47.4053 202.267H45.9388L43.1724 210H44.4945L45.05 208.422H48.283L48.8385 210ZM47.9275 207.389H45.4055L46.6721 203.801L47.9275 207.389ZM51.3746 202.279V210H55.252V208.978H52.6411V202.279H51.3746ZM56.1445 205.845C56.1445 208.2 56.7667 209.978 59.0331 209.978C61.2995 209.978 61.9217 208.2 61.9217 205.845C61.9217 203.534 61.2995 201.756 59.0331 201.756C56.7667 201.756 56.1445 203.534 56.1445 205.845ZM60.6774 205.845C60.6774 207.434 60.5107 208.822 59.0331 208.822C57.5555 208.822 57.3888 207.434 57.3888 205.845C57.3888 204.334 57.5555 202.912 59.0331 202.912C60.5107 202.912 60.6774 204.334 60.6774 205.845ZM64.1284 210H65.4061V201.901H63.0952V203.056H64.1284V210ZM67.146 205.845C67.146 208.2 67.7682 209.978 70.0346 209.978C72.301 209.978 72.9232 208.2 72.9232 205.845C72.9232 203.534 72.301 201.756 70.0346 201.756C67.7682 201.756 67.146 203.534 67.146 205.845ZM71.6789 205.845C71.6789 207.434 71.5122 208.822 70.0346 208.822C68.557 208.822 68.3903 207.434 68.3903 205.845C68.3903 204.334 68.557 202.912 70.0346 202.912C71.5122 202.912 71.6789 204.334 71.6789 205.845Z" fill="#9AA3AF"/>
</svg>
