<svg width="112" height="218" viewBox="0 0 112 218" fill="none" xmlns="http://www.w3.org/2000/svg">
<rect y="100" width="112" height="94" fill="#F9FAFA"/>
<path d="M0 4C0 1.79086 1.79086 0 4 0H108C110.209 0 112 1.79086 112 4V100H0V4Z" fill="#2A384B"/>
<path d="M13.9105 109.267V115.022L10.0998 109.267H8.83325V117H10.0998V111.234L13.9105 117H15.1771V109.267H13.9105ZM22.0509 117H23.3841L20.6177 109.267H19.1511L16.3848 117H17.7068L18.2623 115.422H21.4954L22.0509 117ZM21.1398 114.389H18.6179L19.8844 110.801L21.1398 114.389ZM24.5869 117H25.8534V111.712L28.2199 117H29.0975L31.4529 111.712V117H32.7194V109.279H31.364L28.6643 115.333L25.9534 109.279H24.5869V117ZM38.6503 109.267H34.3841V117H38.6503V115.967H35.6506V113.6H38.317V112.567H35.6506V110.301H38.6503V109.267Z" fill="#C2C8CF"/>
<path d="M15.0649 134.467C15.0649 131.028 10.0528 132.521 10.0528 130.122C10.0528 129.122 10.8393 128.602 11.839 128.629C12.9721 128.642 13.5586 129.349 13.6386 129.975H14.9716C14.825 128.562 13.6653 127.589 11.8924 127.589C10.0528 127.589 8.81313 128.629 8.81313 130.162C8.81313 133.614 13.8385 132.015 13.8385 134.521C13.8385 135.4 13.1454 136.067 11.9723 136.067C10.6793 136.067 10.1328 135.294 10.0528 134.521H8.75981C8.78647 136.054 10.1061 137.093 11.9723 137.093C13.9852 137.093 15.0649 135.787 15.0649 134.467ZM16.85 137H18.063V132.961C18.063 131.388 18.9161 130.615 20.1558 130.615C21.3822 130.615 22.1953 131.375 22.1953 132.868V137H23.395V132.694C23.395 130.602 22.102 129.562 20.4757 129.562C19.4493 129.562 18.5429 129.975 18.063 130.748V127.136H16.85V137ZM31.8549 129.695H30.6418V133.707C30.6418 135.28 29.802 136.054 28.549 136.054C27.3227 136.054 26.5095 135.294 26.5095 133.814V129.695H25.3098V133.974C25.3098 136.067 26.6295 137.107 28.3091 137.107C29.2822 137.107 30.1753 136.68 30.6418 135.92V137H31.8549V129.695ZM34.1696 135C34.1696 136.467 34.9028 137 36.1958 137H37.2888V135.974H36.3957C35.6492 135.974 35.3826 135.72 35.3826 135V130.695H37.2888V129.695H35.3826V127.856H34.1696V129.695H33.2232V130.695H34.1696V135ZM39.0252 135C39.0252 136.467 39.7583 137 41.0513 137H42.1444V135.974H41.2513C40.5048 135.974 40.2382 135.72 40.2382 135V130.695H42.1444V129.695H40.2382V127.856H39.0252V129.695H38.0787V130.695H39.0252V135ZM43.6141 137H44.8271V127.136H43.6141V137ZM50.0004 130.602C51.2535 130.602 52.3199 131.388 52.3065 132.814H47.6943C47.8276 131.388 48.8141 130.602 50.0004 130.602ZM53.4129 134.747H52.1066C51.84 135.534 51.1468 136.094 50.0538 136.094C48.8141 136.094 47.7743 135.28 47.681 133.801H53.5196C53.5462 133.548 53.5595 133.334 53.5595 133.068C53.5595 131.068 52.1732 129.575 50.0538 129.575C47.921 129.575 46.4413 131.028 46.4413 133.334C46.4413 135.654 47.9743 137.12 50.0538 137.12C51.8666 137.12 53.0397 136.08 53.4129 134.747ZM62.9268 127.602C60.3141 127.602 58.2613 129.562 58.2613 132.348C58.2613 135.134 60.3141 137.08 62.9268 137.08C65.4462 137.08 67.2724 135.227 67.4856 132.921V131.988H62.4869V132.974H66.1926C66.006 134.814 64.753 135.987 62.9268 135.987C60.9673 135.987 59.501 134.574 59.501 132.348C59.501 130.108 60.9673 128.695 62.9268 128.695C64.2331 128.695 65.2462 129.322 65.7527 130.402H67.2057C66.5126 128.615 64.8863 127.602 62.9268 127.602ZM70.3025 133.028C70.3025 131.335 71.1823 130.815 72.342 130.815H72.662V129.562C71.5022 129.562 70.7158 130.068 70.3025 130.882V129.695H69.0895V137H70.3025V133.028ZM73.609 133.321C73.609 135.587 75.1153 137.12 77.0615 137.12C78.4078 137.12 79.3542 136.427 79.7941 135.64V137H81.0205V129.695H79.7941V131.028C79.3676 130.268 78.4345 129.575 77.0748 129.575C75.1153 129.575 73.609 131.041 73.609 133.321ZM79.7941 133.334C79.7941 135.054 78.6478 136.054 77.3148 136.054C75.9818 136.054 74.8487 135.04 74.8487 133.321C74.8487 131.601 75.9818 130.628 77.3148 130.628C78.6478 130.628 79.7941 131.641 79.7941 133.334ZM85.843 135.614L83.5503 129.695H82.2039L85.1499 136.92L83.7102 140.439H84.9633L89.3622 129.695H88.1091L85.843 135.614Z" fill="#5D6B7E"/>
<path d="M13.7328 160H14.9993V152.279H13.7328V155.589H10.0998V152.279H8.83325V160H10.0998V156.623H13.7328V160ZM20.9329 152.267H16.6667V160H20.9329V158.967H17.9332V156.6H20.5996V155.567H17.9332V153.301H20.9329V152.267ZM27.0147 160H28.4368L26.037 156.145L28.4479 152.279H27.0369L25.3926 155.1L23.6372 152.279H22.2152L24.626 156.145L22.2263 160H23.6372L25.2704 157.2L27.0147 160Z" fill="#C2C8CF"/>
<path d="M8.67983 179.893H15.0916V178.88H10.506C12.2256 177.481 14.8116 175.441 14.8116 173.042C14.8116 171.256 13.6386 170.189 11.8257 170.189C10.0928 170.189 8.7998 171.256 8.71982 173.308H9.89286C9.94618 172.095 10.586 171.229 11.839 171.229C13.1454 171.229 13.6119 172.029 13.6119 173.095C13.6119 175.068 11.2125 176.987 8.67983 179.027V179.893ZM22.9322 180H24.2119L20.8661 170.762H19.4664L16.1072 180H17.3869L18.1334 177.934H22.1857L22.9322 180ZM21.8391 176.947H18.48L20.1596 172.255L21.8391 176.947ZM25.4493 172.788H26.6357C26.7556 171.855 27.4355 171.216 28.5685 171.216C29.7282 171.216 30.3414 171.855 30.3414 172.775C30.3414 173.895 29.4749 174.388 27.862 174.401H27.5421V175.414H27.8487C29.5816 175.414 30.528 175.934 30.528 177.294C30.528 178.28 29.9148 179.04 28.6218 179.04C27.3421 179.04 26.5957 178.254 26.4757 177.227H25.3027C25.4493 179.094 26.8089 180.067 28.6352 180.067C30.648 180.067 31.6877 178.894 31.6877 177.401C31.6877 176.014 30.9279 175.188 29.8082 174.921V174.855C30.8213 174.628 31.5144 173.762 31.5144 172.655C31.5144 171.269 30.488 170.176 28.6085 170.176C26.8223 170.176 25.5693 171.136 25.4493 172.788ZM35.0851 174.988C34.0054 175.308 33.2989 176.188 33.2989 177.401C33.2989 179.147 34.6719 180.267 36.698 180.267C38.7375 180.267 40.1238 179.147 40.1238 177.401C40.1238 176.201 39.4174 175.321 38.3243 174.988C39.2707 174.615 39.8706 173.815 39.8706 172.775C39.8706 171.375 38.7908 170.216 36.698 170.216C34.6052 170.216 33.5388 171.362 33.5388 172.775C33.5388 173.855 34.0987 174.601 35.0851 174.988ZM36.698 174.588C35.525 174.588 34.7119 173.935 34.7119 172.935C34.7119 171.802 35.5117 171.229 36.698 171.229C37.9111 171.229 38.6975 171.815 38.6975 172.922C38.6975 173.922 37.8844 174.588 36.698 174.588ZM36.698 175.521C37.9644 175.521 38.9241 176.121 38.9241 177.361C38.9241 178.48 38.071 179.254 36.698 179.254C35.325 179.254 34.4586 178.494 34.4586 177.361C34.4586 176.081 35.4583 175.521 36.698 175.521ZM46.3737 180H47.5734V177.854H48.9064V176.801H47.5734V170.456H46.1205L41.4416 176.934V177.854H46.3737V180ZM42.8413 176.801L46.4271 171.722V176.801H42.8413ZM55.5968 177.387C55.5968 178.4 54.877 179 53.6773 179H51.5312V175.721H53.6373C54.8237 175.721 55.5968 176.361 55.5968 177.387ZM55.3569 173.215C55.3569 174.161 54.7037 174.721 53.5707 174.721H51.5312V171.709H53.544C54.7304 171.709 55.3569 172.295 55.3569 173.215ZM56.8099 177.507C56.8099 176.361 55.9834 175.388 54.9703 175.215C55.8634 174.921 56.5966 174.241 56.5966 173.068C56.5966 171.775 55.6102 170.709 53.6507 170.709H50.3182V180H53.784C55.7035 180 56.8099 178.907 56.8099 177.507Z" fill="#5D6B7E"/>
<path d="M0 194H112V214C112 216.209 110.209 218 108 218H4C1.79086 218 0 216.209 0 214V194Z" fill="#EDEFF1"/>
<path d="M13.9105 202.267V208.022L10.0998 202.267H8.83325V210H10.0998V204.234L13.9105 210H15.1771V202.267H13.9105ZM21.1065 202.267H16.8403V210H21.1065V208.967H18.1068V206.6H20.7732V205.567H18.1068V203.301H21.1065V202.267ZM22.6554 207.178C22.6554 209.145 24.033 210.078 25.6551 210.078C27.266 210.078 28.6881 209.145 28.6881 207.178V202.279H27.4216V207.2C27.4216 208.4 26.7439 208.967 25.6662 208.967C24.5996 208.967 23.9219 208.4 23.9219 207.2V202.279H22.6554V207.178ZM29.9372 203.312H32.0037V210H33.2702V203.312H35.3256V202.279H29.9372V203.312ZM40.7078 204.589C40.7078 205.356 40.2634 205.9 39.2746 205.9H37.8748V203.312H39.2746C40.2634 203.312 40.7078 203.812 40.7078 204.589ZM36.6082 202.279V210H37.8748V206.911H38.8414L40.619 210H42.1299L40.219 206.8C41.5189 206.478 42.0077 205.5 42.0077 204.589C42.0077 203.334 41.1078 202.279 39.2746 202.279H36.6082ZM48.8385 210H50.1717L47.4053 202.267H45.9388L43.1724 210H44.4945L45.05 208.422H48.283L48.8385 210ZM47.9275 207.389H45.4055L46.6721 203.801L47.9275 207.389ZM51.3746 202.279V210H55.252V208.978H52.6411V202.279H51.3746ZM55.9223 201.934V203.012H60.033L56.9111 210H58.1887L61.2773 202.878V201.934H55.9223ZM62.3613 205.845C62.3613 208.2 62.9835 209.978 65.2499 209.978C67.5164 209.978 68.1385 208.2 68.1385 205.845C68.1385 203.534 67.5164 201.756 65.2499 201.756C62.9835 201.756 62.3613 203.534 62.3613 205.845ZM66.8942 205.845C66.8942 207.434 66.7275 208.822 65.2499 208.822C63.7723 208.822 63.6056 207.434 63.6056 205.845C63.6056 204.334 63.7723 202.912 65.2499 202.912C66.7275 202.912 66.8942 204.334 66.8942 205.845ZM69.4787 205.845C69.4787 208.2 70.1008 209.978 72.3673 209.978C74.6337 209.978 75.2559 208.2 75.2559 205.845C75.2559 203.534 74.6337 201.756 72.3673 201.756C70.1008 201.756 69.4787 203.534 69.4787 205.845ZM74.0115 205.845C74.0115 207.434 73.8449 208.822 72.3673 208.822C70.8896 208.822 70.723 207.434 70.723 205.845C70.723 204.334 70.8896 202.912 72.3673 202.912C73.8449 202.912 74.0115 204.334 74.0115 205.845Z" fill="#9AA3AF"/>
</svg>
