<svg width="112" height="218" viewBox="0 0 112 218" fill="none" xmlns="http://www.w3.org/2000/svg">
<rect y="100" width="112" height="94" fill="#F9FAFA"/>
<path d="M0 4C0 1.79086 1.79086 0 4 0H108C110.209 0 112 1.79086 112 4V100H0V4Z" fill="#AEB5BF"/>
<path d="M13.9105 109.267V115.022L10.0998 109.267H8.83325V117H10.0998V111.234L13.9105 117H15.1771V109.267H13.9105ZM22.0509 117H23.3841L20.6177 109.267H19.1511L16.3848 117H17.7068L18.2623 115.422H21.4954L22.0509 117ZM21.1398 114.389H18.6179L19.8844 110.801L21.1398 114.389ZM24.5869 117H25.8534V111.712L28.2199 117H29.0975L31.4529 111.712V117H32.7194V109.279H31.364L28.6643 115.333L25.9534 109.279H24.5869V117ZM38.6503 109.267H34.3841V117H38.6503V115.967H35.6506V113.6H38.317V112.567H35.6506V110.301H38.6503V109.267Z" fill="#C2C8CF"/>
<path d="M15.2649 137H16.5445L13.1987 127.762H11.7991L8.43989 137H9.71957L10.4661 134.934H14.5184L15.2649 137ZM14.1718 133.947H10.8126L12.4922 129.255L14.1718 133.947ZM18.0085 137H19.2216V127.136H18.0085V137ZM27.7673 129.695H26.5543V133.707C26.5543 135.28 25.7145 136.054 24.4615 136.054C23.2351 136.054 22.422 135.294 22.422 133.814V129.695H21.2223V133.974C21.2223 136.067 22.542 137.107 24.2216 137.107C25.1947 137.107 26.0878 136.68 26.5543 135.92V137H27.7673V129.695ZM40.3595 137H41.5592V132.694C41.5592 130.602 40.2662 129.562 38.6 129.562C37.4802 129.562 36.4405 130.135 36.0139 131.188C35.5341 130.095 34.5343 129.562 33.3346 129.562C32.3748 129.562 31.5084 129.975 31.0285 130.748V129.695H29.8155V137H31.0285V132.974C31.0285 131.401 31.8683 130.615 33.0947 130.615C34.2944 130.615 35.0942 131.375 35.0942 132.868V137H36.2939V132.974C36.2939 131.401 37.1337 130.615 38.36 130.615C39.5597 130.615 40.3595 131.375 40.3595 132.868V137ZM43.549 137H44.7621V129.695H43.549V137ZM44.1755 128.509C44.6154 128.509 44.9753 128.149 44.9753 127.682C44.9753 127.216 44.6154 126.856 44.1755 126.856C43.709 126.856 43.3491 127.216 43.3491 127.682C43.3491 128.149 43.709 128.509 44.1755 128.509ZM52.1748 137H53.3745V132.694C53.3745 130.602 52.0815 129.562 50.3886 129.562C49.4021 129.562 48.5224 129.975 48.0425 130.735V129.695H46.8295V137H48.0425V132.961C48.0425 131.388 48.8956 130.615 50.1353 130.615C51.3617 130.615 52.1748 131.375 52.1748 132.868V137ZM55.356 137H56.569V129.695H55.356V137ZM55.9825 128.509C56.4224 128.509 56.7823 128.149 56.7823 127.682C56.7823 127.216 56.4224 126.856 55.9825 126.856C55.5159 126.856 55.156 127.216 55.156 127.682C55.156 128.149 55.5159 128.509 55.9825 128.509ZM65.1148 129.695H63.9018V133.707C63.9018 135.28 63.062 136.054 61.8089 136.054C60.5826 136.054 59.7695 135.294 59.7695 133.814V129.695H58.5698V133.974C58.5698 136.067 59.8894 137.107 61.569 137.107C62.5421 137.107 63.4352 136.68 63.9018 135.92V137H65.1148V129.695ZM77.7069 137H78.9066V132.694C78.9066 130.602 77.6136 129.562 75.9474 129.562C74.8277 129.562 73.7879 130.135 73.3614 131.188C72.8815 130.095 71.8817 129.562 70.682 129.562C69.7223 129.562 68.8558 129.975 68.3759 130.748V129.695H67.1629V137H68.3759V132.974C68.3759 131.401 69.2157 130.615 70.4421 130.615C71.6418 130.615 72.4416 131.375 72.4416 132.868V137H73.6413V132.974C73.6413 131.401 74.4811 130.615 75.7074 130.615C76.9071 130.615 77.7069 131.375 77.7069 132.868V137Z" fill="#5D6B7E"/>
<path d="M13.7328 160H14.9993V152.279H13.7328V155.589H10.0998V152.279H8.83325V160H10.0998V156.623H13.7328V160ZM20.9329 152.267H16.6667V160H20.9329V158.967H17.9332V156.6H20.5996V155.567H17.9332V153.301H20.9329V152.267ZM27.0147 160H28.4368L26.037 156.145L28.4479 152.279H27.0369L25.3926 155.1L23.6372 152.279H22.2152L24.626 156.145L22.2263 160H23.6372L25.2704 157.2L27.0147 160Z" fill="#C2C8CF"/>
<path d="M15.2649 180H16.5445L13.1987 170.762H11.7991L8.43989 180H9.71957L10.4661 177.934H14.5184L15.2649 180ZM14.1718 176.947H10.8126L12.4922 172.255L14.1718 176.947ZM23.0073 170.696H18.0085V180H23.0073V179H19.2216V175.801H22.6074V174.801H19.2216V171.695H23.0073V170.696ZM30.1214 177.387C30.1214 178.4 29.4016 179 28.2019 179H26.0558V175.721H28.1619C29.3483 175.721 30.1214 176.361 30.1214 177.387ZM29.8815 173.215C29.8815 174.161 29.2283 174.721 28.0953 174.721H26.0558V171.709H28.0686C29.255 171.709 29.8815 172.295 29.8815 173.215ZM31.3345 177.507C31.3345 176.361 30.508 175.388 29.4949 175.215C30.388 174.921 31.1212 174.241 31.1212 173.068C31.1212 171.775 30.1348 170.709 28.1753 170.709H24.8428V180H28.3086C30.2281 180 31.3345 178.907 31.3345 177.507ZM33.1644 170.349V175.788H34.3108C34.6307 175.028 35.3372 174.521 36.3103 174.521C37.71 174.521 38.4165 175.321 38.4165 176.694C38.4165 178.014 37.7633 179 36.297 179C35.1639 179 34.3775 178.4 34.1509 177.387H32.9645C33.2044 178.947 34.3641 180.027 36.2837 180.027C38.5364 180.027 39.5762 178.534 39.5762 176.668C39.5762 175.175 38.8297 173.482 36.4836 173.482C35.5372 173.482 34.6841 173.908 34.2842 174.455V171.415H38.963V170.349H33.1644ZM46.6668 177.387C46.6668 178.4 45.947 179 44.7473 179H42.6011V175.721H44.7073C45.8937 175.721 46.6668 176.361 46.6668 177.387ZM46.4269 173.215C46.4269 174.161 45.7737 174.721 44.6406 174.721H42.6011V171.709H44.614C45.8003 171.709 46.4269 172.295 46.4269 173.215ZM47.8798 177.507C47.8798 176.361 47.0534 175.388 46.0403 175.215C46.9334 174.921 47.6665 174.241 47.6665 173.068C47.6665 171.775 46.6801 170.709 44.7206 170.709H41.3881V180H44.8539C46.7734 180 47.8798 178.907 47.8798 177.507ZM49.5631 180H50.7762V175.814H54.0554V174.828H50.7762V171.695H54.8152V170.709H49.5631V180Z" fill="#5D6B7E"/>
<path d="M0 194H112V214C112 216.209 110.209 218 108 218H4C1.79086 218 0 216.209 0 214V194Z" fill="#EDEFF1"/>
<path d="M13.9105 202.267V208.022L10.0998 202.267H8.83325V210H10.0998V204.234L13.9105 210H15.1771V202.267H13.9105ZM21.1065 202.267H16.8403V210H21.1065V208.967H18.1068V206.6H20.7732V205.567H18.1068V203.301H21.1065V202.267ZM22.6554 207.178C22.6554 209.145 24.033 210.078 25.6551 210.078C27.266 210.078 28.6881 209.145 28.6881 207.178V202.279H27.4216V207.2C27.4216 208.4 26.7439 208.967 25.6662 208.967C24.5996 208.967 23.9219 208.4 23.9219 207.2V202.279H22.6554V207.178ZM29.9372 203.312H32.0037V210H33.2702V203.312H35.3256V202.279H29.9372V203.312ZM40.7078 204.589C40.7078 205.356 40.2634 205.9 39.2746 205.9H37.8748V203.312H39.2746C40.2634 203.312 40.7078 203.812 40.7078 204.589ZM36.6082 202.279V210H37.8748V206.911H38.8414L40.619 210H42.1299L40.219 206.8C41.5189 206.478 42.0077 205.5 42.0077 204.589C42.0077 203.334 41.1078 202.279 39.2746 202.279H36.6082ZM48.8385 210H50.1717L47.4053 202.267H45.9388L43.1724 210H44.4945L45.05 208.422H48.283L48.8385 210ZM47.9275 207.389H45.4055L46.6721 203.801L47.9275 207.389ZM51.3746 202.279V210H55.252V208.978H52.6411V202.279H51.3746ZM56.1445 205.845C56.1445 208.2 56.7667 209.978 59.0331 209.978C61.2995 209.978 61.9217 208.2 61.9217 205.845C61.9217 203.534 61.2995 201.756 59.0331 201.756C56.7667 201.756 56.1445 203.534 56.1445 205.845ZM60.6774 205.845C60.6774 207.434 60.5107 208.822 59.0331 208.822C57.5555 208.822 57.3888 207.434 57.3888 205.845C57.3888 204.334 57.5555 202.912 59.0331 202.912C60.5107 202.912 60.6774 204.334 60.6774 205.845ZM64.6284 205.767C63.8173 206.067 63.2729 206.789 63.2729 207.767C63.2729 209.245 64.4728 210.2 66.1393 210.2C67.8169 210.2 69.0168 209.245 69.0168 207.767C69.0168 206.8 68.4724 206.078 67.6503 205.767C68.3058 205.445 68.8057 204.812 68.8057 203.945C68.8057 202.778 67.928 201.756 66.1393 201.756C64.3506 201.756 63.4729 202.767 63.4729 203.945C63.4729 204.845 63.9395 205.423 64.6284 205.767ZM66.1393 205.367C65.295 205.367 64.695 204.845 64.695 204.112C64.695 203.256 65.2727 202.812 66.1393 202.812C67.0281 202.812 67.5947 203.267 67.5947 204.101C67.5947 204.834 66.9837 205.367 66.1393 205.367ZM66.1393 206.323C67.0948 206.323 67.7725 206.811 67.7725 207.722C67.7725 208.533 67.1614 209.145 66.1393 209.145C65.1061 209.145 64.4839 208.545 64.4839 207.722C64.4839 206.778 65.2061 206.323 66.1393 206.323ZM70.3466 205.845C70.3466 208.2 70.9688 209.978 73.2352 209.978C75.5017 209.978 76.1238 208.2 76.1238 205.845C76.1238 203.534 75.5017 201.756 73.2352 201.756C70.9688 201.756 70.3466 203.534 70.3466 205.845ZM74.8795 205.845C74.8795 207.434 74.7129 208.822 73.2352 208.822C71.7576 208.822 71.5909 207.434 71.5909 205.845C71.5909 204.334 71.7576 202.912 73.2352 202.912C74.7129 202.912 74.8795 204.334 74.8795 205.845Z" fill="#9AA3AF"/>
</svg>
