<svg width="112" height="218" viewBox="0 0 112 218" fill="none" xmlns="http://www.w3.org/2000/svg">
<rect y="100" width="112" height="94" fill="#F9FAFA"/>
<path d="M4 0.5H108C109.933 0.5 111.5 2.067 111.5 4V99.5H0.5V4C0.5 2.06701 2.067 0.5 4 0.5Z" fill="white" stroke="#EDEFF1"/>
<path d="M13.9105 109.267V115.022L10.0998 109.267H8.83325V117H10.0998V111.234L13.9105 117H15.1771V109.267H13.9105ZM22.0509 117H23.3841L20.6177 109.267H19.1511L16.3848 117H17.7068L18.2623 115.422H21.4954L22.0509 117ZM21.1398 114.389H18.6179L19.8844 110.801L21.1398 114.389ZM24.5869 117H25.8534V111.712L28.2199 117H29.0975L31.4529 111.712V117H32.7194V109.279H31.364L28.6643 115.333L25.9534 109.279H24.5869V117ZM38.6503 109.267H34.3841V117H38.6503V115.967H35.6506V113.6H38.317V112.567H35.6506V110.301H38.6503V109.267Z" fill="#C2C8CF"/>
<path d="M10.9059 137.013L12.2523 137L14.4917 129.522L16.6512 137H18.0108L20.7035 127.709H19.3972L17.3577 135.56L15.2249 127.709H13.8652L11.6258 135.587L9.5996 127.709H8.30659L10.9059 137.013ZM22.031 137H23.244V132.961C23.244 131.388 24.0971 130.615 25.3368 130.615C26.5632 130.615 27.3763 131.375 27.3763 132.868V137H28.576V132.694C28.576 130.602 27.283 129.562 25.6567 129.562C24.6303 129.562 23.7239 129.975 23.244 130.748V127.136H22.031V137ZM30.5575 137H31.7705V129.695H30.5575V137ZM31.184 128.509C31.6239 128.509 31.9838 128.149 31.9838 127.682C31.9838 127.216 31.6239 126.856 31.184 126.856C30.7174 126.856 30.3575 127.216 30.3575 127.682C30.3575 128.149 30.7174 128.509 31.184 128.509ZM34.1045 135C34.1045 136.467 34.8377 137 36.1307 137H37.2237V135.974H36.3306C35.5841 135.974 35.3175 135.72 35.3175 135V130.695H37.2237V129.695H35.3175V127.856H34.1045V129.695H33.1581V130.695H34.1045V135ZM41.7994 130.602C43.0524 130.602 44.1188 131.388 44.1055 132.814H39.4933C39.6266 131.388 40.613 130.602 41.7994 130.602ZM45.2118 134.747H43.9055C43.6389 135.534 42.9457 136.094 41.8527 136.094C40.613 136.094 39.5733 135.28 39.4799 133.801H45.3185C45.3451 133.548 45.3585 133.334 45.3585 133.068C45.3585 131.068 43.9722 129.575 41.8527 129.575C39.7199 129.575 38.2403 131.028 38.2403 133.334C38.2403 135.654 39.7732 137.12 41.8527 137.12C43.6656 137.12 44.8386 136.08 45.2118 134.747Z" fill="#5D6B7E"/>
<path d="M13.7328 160H14.9993V152.279H13.7328V155.589H10.0998V152.279H8.83325V160H10.0998V156.623H13.7328V160ZM20.9329 152.267H16.6667V160H20.9329V158.967H17.9332V156.6H20.5996V155.567H17.9332V153.301H20.9329V152.267ZM27.0147 160H28.4368L26.037 156.145L28.4479 152.279H27.0369L25.3926 155.1L23.6372 152.279H22.2152L24.626 156.145L22.2263 160H23.6372L25.2704 157.2L27.0147 160Z" fill="#C2C8CF"/>
<path d="M9.02641 180H10.2394V175.814H13.5186V174.828H10.2394V171.695H14.2784V170.709H9.02641V180ZM15.7435 180H16.9565V175.814H20.2357V174.828H16.9565V171.695H20.9955V170.709H15.7435V180ZM22.4606 180H23.6736V175.814H26.9528V174.828H23.6736V171.695H27.7126V170.709H22.4606V180ZM29.1776 180H30.3907V175.814H33.6698V174.828H30.3907V171.695H34.4296V170.709H29.1776V180ZM35.8947 180H37.1077V175.814H40.3869V174.828H37.1077V171.695H41.1467V170.709H35.8947V180ZM42.6118 180H43.8248V175.814H47.104V174.828H43.8248V171.695H47.8638V170.709H42.6118V180Z" fill="#5D6B7E"/>
<path d="M0 194H112V214C112 216.209 110.209 218 108 218H4C1.79086 218 0 216.209 0 214V194Z" fill="#EDEFF1"/>
<path d="M13.9105 202.267V208.022L10.0998 202.267H8.83325V210H10.0998V204.234L13.9105 210H15.1771V202.267H13.9105ZM21.1065 202.267H16.8403V210H21.1065V208.967H18.1068V206.6H20.7732V205.567H18.1068V203.301H21.1065V202.267ZM22.6554 207.178C22.6554 209.145 24.033 210.078 25.6551 210.078C27.266 210.078 28.6881 209.145 28.6881 207.178V202.279H27.4216V207.2C27.4216 208.4 26.7439 208.967 25.6662 208.967C24.5996 208.967 23.9219 208.4 23.9219 207.2V202.279H22.6554V207.178ZM29.9372 203.312H32.0037V210H33.2702V203.312H35.3256V202.279H29.9372V203.312ZM40.7078 204.589C40.7078 205.356 40.2634 205.9 39.2746 205.9H37.8748V203.312H39.2746C40.2634 203.312 40.7078 203.812 40.7078 204.589ZM36.6082 202.279V210H37.8748V206.911H38.8414L40.619 210H42.1299L40.219 206.8C41.5189 206.478 42.0077 205.5 42.0077 204.589C42.0077 203.334 41.1078 202.279 39.2746 202.279H36.6082ZM48.8385 210H50.1717L47.4053 202.267H45.9388L43.1724 210H44.4945L45.05 208.422H48.283L48.8385 210ZM47.9275 207.389H45.4055L46.6721 203.801L47.9275 207.389ZM51.3746 202.279V210H55.252V208.978H52.6411V202.279H51.3746ZM56.1445 205.845C56.1445 208.2 56.7667 209.978 59.0331 209.978C61.2995 209.978 61.9217 208.2 61.9217 205.845C61.9217 203.534 61.2995 201.756 59.0331 201.756C56.7667 201.756 56.1445 203.534 56.1445 205.845ZM60.6774 205.845C60.6774 207.434 60.5107 208.822 59.0331 208.822C57.5555 208.822 57.3888 207.434 57.3888 205.845C57.3888 204.334 57.5555 202.912 59.0331 202.912C60.5107 202.912 60.6774 204.334 60.6774 205.845ZM63.2618 205.845C63.2618 208.2 63.884 209.978 66.1504 209.978C68.4169 209.978 69.039 208.2 69.039 205.845C69.039 203.534 68.4169 201.756 66.1504 201.756C63.884 201.756 63.2618 203.534 63.2618 205.845ZM67.7947 205.845C67.7947 207.434 67.6281 208.822 66.1504 208.822C64.6728 208.822 64.5062 207.434 64.5062 205.845C64.5062 204.334 64.6728 202.912 66.1504 202.912C67.6281 202.912 67.7947 204.334 67.7947 205.845ZM70.3792 205.845C70.3792 208.2 71.0013 209.978 73.2678 209.978C75.5342 209.978 76.1564 208.2 76.1564 205.845C76.1564 203.534 75.5342 201.756 73.2678 201.756C71.0013 201.756 70.3792 203.534 70.3792 205.845ZM74.9121 205.845C74.9121 207.434 74.7454 208.822 73.2678 208.822C71.7901 208.822 71.6235 207.434 71.6235 205.845C71.6235 204.334 71.7901 202.912 73.2678 202.912C74.7454 202.912 74.9121 204.334 74.9121 205.845Z" fill="#9AA3AF"/>
</svg>
