<svg width="112" height="218" viewBox="0 0 112 218" fill="none" xmlns="http://www.w3.org/2000/svg">
<rect y="100" width="112" height="94" fill="#F9FAFA"/>
<path d="M0 4C0 1.79086 1.79086 0 4 0H108C110.209 0 112 1.79086 112 4V100H0V4Z" fill="#D4D9DD"/>
<path d="M13.9105 109.267V115.022L10.0998 109.267H8.83325V117H10.0998V111.234L13.9105 117H15.1771V109.267H13.9105ZM22.0509 117H23.3841L20.6177 109.267H19.1511L16.3848 117H17.7068L18.2623 115.422H21.4954L22.0509 117ZM21.1398 114.389H18.6179L19.8844 110.801L21.1398 114.389ZM24.5869 117H25.8534V111.712L28.2199 117H29.0975L31.4529 111.712V117H32.7194V109.279H31.364L28.6643 115.333L25.9534 109.279H24.5869V117ZM38.6503 109.267H34.3841V117H38.6503V115.967H35.6506V113.6H38.317V112.567H35.6506V110.301H38.6503V109.267Z" fill="#C2C8CF"/>
<path d="M9.02641 127.709V137H13.492V136.014H10.2394V127.709H9.02641ZM21.7118 133.334C21.7118 131.028 20.0988 129.575 18.0194 129.575C15.9532 129.575 14.327 131.028 14.327 133.334C14.327 135.654 15.8999 137.12 17.966 137.12C20.0455 137.12 21.7118 135.654 21.7118 133.334ZM15.5666 133.334C15.5666 131.495 16.7264 130.628 18.006 130.628C19.2591 130.628 20.4721 131.495 20.4721 133.334C20.4721 135.187 19.2324 136.054 17.966 136.054C16.6997 136.054 15.5666 135.187 15.5666 133.334ZM24.5197 131.055V127.136H23.3067V137H24.5197V135.654C24.9729 136.453 25.9194 137.12 27.2524 137.12C29.2119 137.12 30.7182 135.587 30.7182 133.321C30.7182 131.041 29.2252 129.575 27.2524 129.575C25.9594 129.575 24.9863 130.242 24.5197 131.055ZM29.4785 133.321C29.4785 135.04 28.3454 136.054 26.9991 136.054C25.6794 136.054 24.5197 135.054 24.5197 133.334C24.5197 131.641 25.6794 130.628 26.9991 130.628C28.3454 130.628 29.4785 131.601 29.4785 133.321ZM32.3149 137H33.5279V127.136H32.3149V137ZM42.5269 133.334C42.5269 131.028 40.914 129.575 38.8345 129.575C36.7683 129.575 35.1421 131.028 35.1421 133.334C35.1421 135.654 36.715 137.12 38.7812 137.12C40.8606 137.12 42.5269 135.654 42.5269 133.334ZM36.3818 133.334C36.3818 131.495 37.5415 130.628 38.8211 130.628C40.0742 130.628 41.2872 131.495 41.2872 133.334C41.2872 135.187 40.0475 136.054 38.7812 136.054C37.5148 136.054 36.3818 135.187 36.3818 133.334ZM44.1218 137H45.3348V127.136H44.1218V137ZM47.4022 137H48.6153V127.136H47.4022V137ZM53.4553 135.614L51.1625 129.695H49.8162L52.7621 136.92L51.3225 140.439H52.5755L56.9744 129.695H55.7214L53.4553 135.614Z" fill="#5D6B7E"/>
<path d="M13.7328 160H14.9993V152.279H13.7328V155.589H10.0998V152.279H8.83325V160H10.0998V156.623H13.7328V160ZM20.9329 152.267H16.6667V160H20.9329V158.967H17.9332V156.6H20.5996V155.567H17.9332V153.301H20.9329V152.267ZM27.0147 160H28.4368L26.037 156.145L28.4479 152.279H27.0369L25.3926 155.1L23.6372 152.279H22.2152L24.626 156.145L22.2263 160H23.6372L25.2704 157.2L27.0147 160Z" fill="#407EC9"/>
<path d="M11.919 170.709H9.02641V180H11.919C14.9716 180 16.8511 178.254 16.8511 175.374C16.8511 172.495 14.9716 170.709 11.919 170.709ZM10.2394 179V171.695H11.919C14.3451 171.695 15.6114 173.108 15.6114 175.374C15.6114 177.641 14.3451 179 11.919 179H10.2394ZM22.89 180H24.0897V177.854H25.4227V176.801H24.0897V170.456H22.6368L17.9579 176.934V177.854H22.89V180ZM19.3576 176.801L22.9433 171.722V176.801H19.3576ZM29.7271 170.709H26.8345V180H29.7271C32.7796 180 34.6592 178.254 34.6592 175.374C34.6592 172.495 32.7796 170.709 29.7271 170.709ZM28.0475 179V171.695H29.7271C32.1531 171.695 33.4195 173.108 33.4195 175.374C33.4195 177.641 32.1531 179 29.7271 179H28.0475ZM36.4991 177.414C36.6324 178.827 37.5655 180.013 39.485 180.013C42.0177 180.013 42.7509 178.214 42.7509 175.001C42.7509 172.015 41.9911 170.176 39.3784 170.176C37.2989 170.176 36.2059 171.509 36.2059 173.348C36.2059 175.388 37.5255 176.494 39.2984 176.494C40.3382 176.494 41.2979 176.028 41.6845 175.215C41.7245 178.04 40.9647 179 39.5517 179C38.432 179 37.7921 178.414 37.6188 177.414H36.4991ZM39.4984 175.468C38.0587 175.468 37.3656 174.561 37.3656 173.322C37.3656 172.042 38.152 171.189 39.4051 171.189C40.7914 171.189 41.5379 172.109 41.5379 173.415C41.5379 174.708 40.6581 175.468 39.4984 175.468ZM47.5481 170.709H44.6555V180H47.5481C50.6007 180 52.4802 178.254 52.4802 175.374C52.4802 172.495 50.6007 170.709 47.5481 170.709ZM45.8686 179V171.695H47.5481C49.9742 171.695 51.2405 173.108 51.2405 175.374C51.2405 177.641 49.9742 179 47.5481 179H45.8686ZM56.9729 170.709H54.0802V180H56.9729C60.0254 180 61.905 178.254 61.905 175.374C61.905 172.495 60.0254 170.709 56.9729 170.709ZM55.2933 179V171.695H56.9729C59.3989 171.695 60.6653 173.108 60.6653 175.374C60.6653 177.641 59.3989 179 56.9729 179H55.2933Z" fill="#5D6B7E"/>
<path d="M0 194H112V214C112 216.209 110.209 218 108 218H4C1.79086 218 0 216.209 0 214V194Z" fill="#EDEFF1"/>
<path d="M13.9105 202.267V208.022L10.0998 202.267H8.83325V210H10.0998V204.234L13.9105 210H15.1771V202.267H13.9105ZM21.1065 202.267H16.8403V210H21.1065V208.967H18.1068V206.6H20.7732V205.567H18.1068V203.301H21.1065V202.267ZM22.6554 207.178C22.6554 209.145 24.033 210.078 25.6551 210.078C27.266 210.078 28.6881 209.145 28.6881 207.178V202.279H27.4216V207.2C27.4216 208.4 26.7439 208.967 25.6662 208.967C24.5996 208.967 23.9219 208.4 23.9219 207.2V202.279H22.6554V207.178ZM29.9372 203.312H32.0037V210H33.2702V203.312H35.3256V202.279H29.9372V203.312ZM40.7078 204.589C40.7078 205.356 40.2634 205.9 39.2746 205.9H37.8748V203.312H39.2746C40.2634 203.312 40.7078 203.812 40.7078 204.589ZM36.6082 202.279V210H37.8748V206.911H38.8414L40.619 210H42.1299L40.219 206.8C41.5189 206.478 42.0077 205.5 42.0077 204.589C42.0077 203.334 41.1078 202.279 39.2746 202.279H36.6082ZM48.8385 210H50.1717L47.4053 202.267H45.9388L43.1724 210H44.4945L45.05 208.422H48.283L48.8385 210ZM47.9275 207.389H45.4055L46.6721 203.801L47.9275 207.389ZM51.3746 202.279V210H55.252V208.978H52.6411V202.279H51.3746ZM56.1445 205.845C56.1445 208.2 56.7667 209.978 59.0331 209.978C61.2995 209.978 61.9217 208.2 61.9217 205.845C61.9217 203.534 61.2995 201.756 59.0331 201.756C56.7667 201.756 56.1445 203.534 56.1445 205.845ZM60.6774 205.845C60.6774 207.434 60.5107 208.822 59.0331 208.822C57.5555 208.822 57.3888 207.434 57.3888 205.845C57.3888 204.334 57.5555 202.912 59.0331 202.912C60.5107 202.912 60.6774 204.334 60.6774 205.845ZM67.1281 210H68.3724V208.311H69.4057V207.211H68.3724V202.001H66.8393L63.1063 207.356V208.311H67.1281V210ZM64.5617 207.211L67.1837 203.29V207.211H64.5617ZM70.4551 205.845C70.4551 208.2 71.0773 209.978 73.3437 209.978C75.6102 209.978 76.2323 208.2 76.2323 205.845C76.2323 203.534 75.6102 201.756 73.3437 201.756C71.0773 201.756 70.4551 203.534 70.4551 205.845ZM74.988 205.845C74.988 207.434 74.8214 208.822 73.3437 208.822C71.8661 208.822 71.6994 207.434 71.6994 205.845C71.6994 204.334 71.8661 202.912 73.3437 202.912C74.8214 202.912 74.988 204.334 74.988 205.845Z" fill="#9AA3AF"/>
</svg>
