<svg width="112" height="218" viewBox="0 0 112 218" fill="none" xmlns="http://www.w3.org/2000/svg">
<rect y="100" width="112" height="94" fill="#F9FAFA"/>
<path d="M0 4C0 1.79086 1.79086 0 4 0H108C110.209 0 112 1.79086 112 4V100H0V4Z" fill="#9AA3AF"/>
<path d="M13.9105 109.267V115.022L10.0998 109.267H8.83325V117H10.0998V111.234L13.9105 117H15.1771V109.267H13.9105ZM22.0509 117H23.3841L20.6177 109.267H19.1511L16.3848 117H17.7068L18.2623 115.422H21.4954L22.0509 117ZM21.1398 114.389H18.6179L19.8844 110.801L21.1398 114.389ZM24.5869 117H25.8534V111.712L28.2199 117H29.0975L31.4529 111.712V117H32.7194V109.279H31.364L28.6643 115.333L25.9534 109.279H24.5869V117ZM38.6503 109.267H34.3841V117H38.6503V115.967H35.6506V113.6H38.317V112.567H35.6506V110.301H38.6503V109.267Z" fill="#C2C8CF"/>
<path d="M15.2649 137H16.5445L13.1987 127.762H11.7991L8.43989 137H9.71957L10.4661 134.934H14.5184L15.2649 137ZM14.1718 133.947H10.8126L12.4922 129.255L14.1718 133.947ZM18.0085 137H19.2216V127.136H18.0085V137ZM27.7673 129.695H26.5543V133.707C26.5543 135.28 25.7145 136.054 24.4615 136.054C23.2351 136.054 22.422 135.294 22.422 133.814V129.695H21.2223V133.974C21.2223 136.067 22.542 137.107 24.2216 137.107C25.1947 137.107 26.0878 136.68 26.5543 135.92V137H27.7673V129.695ZM40.3595 137H41.5592V132.694C41.5592 130.602 40.2662 129.562 38.6 129.562C37.4802 129.562 36.4405 130.135 36.0139 131.188C35.5341 130.095 34.5343 129.562 33.3346 129.562C32.3748 129.562 31.5084 129.975 31.0285 130.748V129.695H29.8155V137H31.0285V132.974C31.0285 131.401 31.8683 130.615 33.0947 130.615C34.2944 130.615 35.0942 131.375 35.0942 132.868V137H36.2939V132.974C36.2939 131.401 37.1337 130.615 38.36 130.615C39.5597 130.615 40.3595 131.375 40.3595 132.868V137ZM43.549 137H44.7621V129.695H43.549V137ZM44.1755 128.509C44.6154 128.509 44.9753 128.149 44.9753 127.682C44.9753 127.216 44.6154 126.856 44.1755 126.856C43.709 126.856 43.3491 127.216 43.3491 127.682C43.3491 128.149 43.709 128.509 44.1755 128.509ZM52.1748 137H53.3745V132.694C53.3745 130.602 52.0815 129.562 50.3886 129.562C49.4021 129.562 48.5224 129.975 48.0425 130.735V129.695H46.8295V137H48.0425V132.961C48.0425 131.388 48.8956 130.615 50.1353 130.615C51.3617 130.615 52.1748 131.375 52.1748 132.868V137ZM55.356 137H56.569V129.695H55.356V137ZM55.9825 128.509C56.4224 128.509 56.7823 128.149 56.7823 127.682C56.7823 127.216 56.4224 126.856 55.9825 126.856C55.5159 126.856 55.156 127.216 55.156 127.682C55.156 128.149 55.5159 128.509 55.9825 128.509ZM65.1148 129.695H63.9018V133.707C63.9018 135.28 63.062 136.054 61.8089 136.054C60.5826 136.054 59.7695 135.294 59.7695 133.814V129.695H58.5698V133.974C58.5698 136.067 59.8894 137.107 61.569 137.107C62.5421 137.107 63.4352 136.68 63.9018 135.92V137H65.1148V129.695ZM77.7069 137H78.9066V132.694C78.9066 130.602 77.6136 129.562 75.9474 129.562C74.8277 129.562 73.7879 130.135 73.3614 131.188C72.8815 130.095 71.8817 129.562 70.682 129.562C69.7223 129.562 68.8558 129.975 68.3759 130.748V129.695H67.1629V137H68.3759V132.974C68.3759 131.401 69.2157 130.615 70.4421 130.615C71.6418 130.615 72.4416 131.375 72.4416 132.868V137H73.6413V132.974C73.6413 131.401 74.4811 130.615 75.7074 130.615C76.9071 130.615 77.7069 131.375 77.7069 132.868V137Z" fill="#5D6B7E"/>
<path d="M13.7328 160H14.9993V152.279H13.7328V155.589H10.0998V152.279H8.83325V160H10.0998V156.623H13.7328V160ZM20.9329 152.267H16.6667V160H20.9329V158.967H17.9332V156.6H20.5996V155.567H17.9332V153.301H20.9329V152.267ZM27.0147 160H28.4368L26.037 156.145L28.4479 152.279H27.0369L25.3926 155.1L23.6372 152.279H22.2152L24.626 156.145L22.2263 160H23.6372L25.2704 157.2L27.0147 160Z" fill="#C2C8CF"/>
<path d="M9.26635 177.414C9.39965 178.827 10.3328 180.013 12.2523 180.013C14.785 180.013 15.5181 178.214 15.5181 175.001C15.5181 172.015 14.7583 170.176 12.1456 170.176C10.0662 170.176 8.97309 171.509 8.97309 173.348C8.97309 175.388 10.2928 176.494 12.0657 176.494C13.1054 176.494 14.0652 176.028 14.4517 175.215C14.4917 178.04 13.7319 179 12.3189 179C11.1992 179 10.5594 178.414 10.3861 177.414H9.26635ZM12.2656 175.468C10.826 175.468 10.1328 174.561 10.1328 173.322C10.1328 172.042 10.9193 171.189 12.1723 171.189C13.5586 171.189 14.3051 172.109 14.3051 173.415C14.3051 174.708 13.4253 175.468 12.2656 175.468ZM23.6612 180H24.9409L21.595 170.762H20.1954L16.8362 180H18.1159L18.8624 177.934H22.9147L23.6612 180ZM22.5681 176.947H19.209L20.8885 172.255L22.5681 176.947ZM32.6433 180H33.923L30.5772 170.762H29.1775L25.8184 180H27.098L27.8445 177.934H31.8968L32.6433 180ZM31.5503 176.947H28.1911L29.8707 172.255L31.5503 176.947ZM35.1604 172.788H36.3468C36.4667 171.855 37.1466 171.216 38.2796 171.216C39.4393 171.216 40.0525 171.855 40.0525 172.775C40.0525 173.895 39.1861 174.388 37.5731 174.401H37.2532V175.414H37.5598C39.2927 175.414 40.2391 175.934 40.2391 177.294C40.2391 178.28 39.6259 179.04 38.3329 179.04C37.0533 179.04 36.3068 178.254 36.1868 177.227H35.0138C35.1604 179.094 36.5201 180.067 38.3463 180.067C40.3591 180.067 41.3988 178.894 41.3988 177.401C41.3988 176.014 40.639 175.188 39.5193 174.921V174.855C40.5324 174.628 41.2255 173.762 41.2255 172.655C41.2255 171.269 40.1991 170.176 38.3196 170.176C36.5334 170.176 35.2804 171.136 35.1604 172.788ZM49.475 180H50.7547L47.4089 170.762H46.0092L42.6501 180H43.9298L44.6762 177.934H48.7286L49.475 180ZM48.382 176.947H45.0228L46.7024 172.255L48.382 176.947ZM52.2187 180H53.4318V175.814H56.7109V174.828H53.4318V171.695H57.4708V170.709H52.2187V180Z" fill="#5D6B7E"/>
<path d="M0 194H112V214C112 216.209 110.209 218 108 218H4C1.79086 218 0 216.209 0 214V194Z" fill="#EDEFF1"/>
<path d="M13.9105 202.267V208.022L10.0998 202.267H8.83325V210H10.0998V204.234L13.9105 210H15.1771V202.267H13.9105ZM21.1065 202.267H16.8403V210H21.1065V208.967H18.1068V206.6H20.7732V205.567H18.1068V203.301H21.1065V202.267ZM22.6554 207.178C22.6554 209.145 24.033 210.078 25.6551 210.078C27.266 210.078 28.6881 209.145 28.6881 207.178V202.279H27.4216V207.2C27.4216 208.4 26.7439 208.967 25.6662 208.967C24.5996 208.967 23.9219 208.4 23.9219 207.2V202.279H22.6554V207.178ZM29.9372 203.312H32.0037V210H33.2702V203.312H35.3256V202.279H29.9372V203.312ZM40.7078 204.589C40.7078 205.356 40.2634 205.9 39.2746 205.9H37.8748V203.312H39.2746C40.2634 203.312 40.7078 203.812 40.7078 204.589ZM36.6082 202.279V210H37.8748V206.911H38.8414L40.619 210H42.1299L40.219 206.8C41.5189 206.478 42.0077 205.5 42.0077 204.589C42.0077 203.334 41.1078 202.279 39.2746 202.279H36.6082ZM48.8385 210H50.1717L47.4053 202.267H45.9388L43.1724 210H44.4945L45.05 208.422H48.283L48.8385 210ZM47.9275 207.389H45.4055L46.6721 203.801L47.9275 207.389ZM51.3746 202.279V210H55.252V208.978H52.6411V202.279H51.3746ZM57.0111 210H58.2887V201.901H55.9778V203.056H57.0111V210ZM60.0286 205.845C60.0286 208.2 60.6508 209.978 62.9172 209.978C65.1837 209.978 65.8058 208.2 65.8058 205.845C65.8058 203.534 65.1837 201.756 62.9172 201.756C60.6508 201.756 60.0286 203.534 60.0286 205.845ZM64.5615 205.845C64.5615 207.434 64.3949 208.822 62.9172 208.822C61.4396 208.822 61.273 207.434 61.273 205.845C61.273 204.334 61.4396 202.912 62.9172 202.912C64.3949 202.912 64.5615 204.334 64.5615 205.845ZM67.146 205.845C67.146 208.2 67.7682 209.978 70.0346 209.978C72.301 209.978 72.9232 208.2 72.9232 205.845C72.9232 203.534 72.301 201.756 70.0346 201.756C67.7682 201.756 67.146 203.534 67.146 205.845ZM71.6789 205.845C71.6789 207.434 71.5122 208.822 70.0346 208.822C68.557 208.822 68.3903 207.434 68.3903 205.845C68.3903 204.334 68.557 202.912 70.0346 202.912C71.5122 202.912 71.6789 204.334 71.6789 205.845Z" fill="#9AA3AF"/>
</svg>
