<svg width="112" height="218" viewBox="0 0 112 218" fill="none" xmlns="http://www.w3.org/2000/svg">
<rect y="100" width="112" height="94" fill="#F9FAFA"/>
<path d="M0 4C0 1.79086 1.79086 0 4 0H108C110.209 0 112 1.79086 112 4V100H0V4Z" fill="#727E8E"/>
<path d="M13.9105 109.267V115.022L10.0998 109.267H8.83325V117H10.0998V111.234L13.9105 117H15.1771V109.267H13.9105ZM22.0509 117H23.3841L20.6177 109.267H19.1511L16.3848 117H17.7068L18.2623 115.422H21.4954L22.0509 117ZM21.1398 114.389H18.6179L19.8844 110.801L21.1398 114.389ZM24.5869 117H25.8534V111.712L28.2199 117H29.0975L31.4529 111.712V117H32.7194V109.279H31.364L28.6643 115.333L25.9534 109.279H24.5869V117ZM38.6503 109.267H34.3841V117H38.6503V115.967H35.6506V113.6H38.317V112.567H35.6506V110.301H38.6503V109.267Z" fill="#C2C8CF"/>
<path d="M13.9985 130.442C13.9985 131.481 13.3987 132.228 12.0257 132.228H10.2394V128.709H12.0257C13.412 128.709 13.9985 129.389 13.9985 130.442ZM9.02641 127.709V137H10.2394V133.201H11.7057L13.9185 137H15.3715L13.0387 133.108C14.5984 132.761 15.2515 131.628 15.2515 130.442C15.2515 128.922 14.2118 127.709 12.0257 127.709H9.02641ZM24.068 133.334C24.068 131.028 22.455 129.575 20.3756 129.575C18.3094 129.575 16.6831 131.028 16.6831 133.334C16.6831 135.654 18.2561 137.12 20.3222 137.12C22.4017 137.12 24.068 135.654 24.068 133.334ZM17.9228 133.334C17.9228 131.495 19.0825 130.628 20.3622 130.628C21.6152 130.628 22.8283 131.495 22.8283 133.334C22.8283 135.187 21.5886 136.054 20.3222 136.054C19.0559 136.054 17.9228 135.187 17.9228 133.334ZM36.2069 137H37.4066V132.694C37.4066 130.602 36.1136 129.562 34.4473 129.562C33.3276 129.562 32.2879 130.135 31.8613 131.188C31.3814 130.095 30.3817 129.562 29.182 129.562C28.2222 129.562 27.3558 129.975 26.8759 130.748V129.695H25.6629V137H26.8759V132.974C26.8759 131.401 27.7157 130.615 28.9421 130.615C30.1418 130.615 30.9416 131.375 30.9416 132.868V137H32.1413V132.974C32.1413 131.401 32.981 130.615 34.2074 130.615C35.4071 130.615 36.2069 131.375 36.2069 132.868V137ZM38.9432 133.321C38.9432 135.587 40.4495 137.12 42.3957 137.12C43.742 137.12 44.6884 136.427 45.1283 135.64V137H46.3547V129.695H45.1283V131.028C44.7018 130.268 43.7687 129.575 42.409 129.575C40.4495 129.575 38.9432 131.041 38.9432 133.321ZM45.1283 133.334C45.1283 135.054 43.9819 136.054 42.6489 136.054C41.3159 136.054 40.1829 135.04 40.1829 133.321C40.1829 131.601 41.3159 130.628 42.6489 130.628C43.9819 130.628 45.1283 131.641 45.1283 133.334ZM53.7499 137H54.9496V132.694C54.9496 130.602 53.6566 129.562 51.9637 129.562C50.9773 129.562 50.0975 129.975 49.6176 130.735V129.695H48.4046V137H49.6176V132.961C49.6176 131.388 50.4707 130.615 51.7104 130.615C52.9368 130.615 53.7499 131.375 53.7499 132.868V137ZM66.5234 134.467C66.5234 131.028 61.5113 132.521 61.5113 130.122C61.5113 129.122 62.2978 128.602 63.2975 128.629C64.4306 128.642 65.0171 129.349 65.0971 129.975H66.4301C66.2834 128.562 65.1237 127.589 63.3508 127.589C61.5113 127.589 60.2716 128.629 60.2716 130.162C60.2716 133.614 65.297 132.015 65.297 134.521C65.297 135.4 64.6039 136.067 63.4308 136.067C62.1378 136.067 61.5913 135.294 61.5113 134.521H60.2183C60.245 136.054 61.5646 137.093 63.4308 137.093C65.4437 137.093 66.5234 135.787 66.5234 134.467ZM68.3085 137H69.5215V129.695H68.3085V137ZM68.935 128.509C69.3749 128.509 69.7348 128.149 69.7348 127.682C69.7348 127.216 69.3749 126.856 68.935 126.856C68.4684 126.856 68.1085 127.216 68.1085 127.682C68.1085 128.149 68.4684 128.509 68.935 128.509ZM71.5889 137H72.8019V127.136H71.5889V137ZM74.0029 129.695L76.8688 137H78.2818L81.1478 129.695H79.8547L77.5886 135.88L75.3092 129.695H74.0029ZM85.4473 130.602C86.7003 130.602 87.7667 131.388 87.7534 132.814H83.1412C83.2745 131.388 84.2609 130.602 85.4473 130.602ZM88.8598 134.747H87.5534C87.2868 135.534 86.5937 136.094 85.5006 136.094C84.2609 136.094 83.2212 135.28 83.1279 133.801H88.9664C88.9931 133.548 89.0064 133.334 89.0064 133.068C89.0064 131.068 87.6201 129.575 85.5006 129.575C83.3678 129.575 81.8882 131.028 81.8882 133.334C81.8882 135.654 83.4211 137.12 85.5006 137.12C87.3135 137.12 88.4865 136.08 88.8598 134.747ZM91.8206 133.028C91.8206 131.335 92.7004 130.815 93.8601 130.815H94.18V129.562C93.0203 129.562 92.2338 130.068 91.8206 130.882V129.695H90.6076V137H91.8206V133.028Z" fill="#5D6B7E"/>
<path d="M13.7328 160H14.9993V152.279H13.7328V155.589H10.0998V152.279H8.83325V160H10.0998V156.623H13.7328V160ZM20.9329 152.267H16.6667V160H20.9329V158.967H17.9332V156.6H20.5996V155.567H17.9332V153.301H20.9329V152.267ZM27.0147 160H28.4368L26.037 156.145L28.4479 152.279H27.0369L25.3926 155.1L23.6372 152.279H22.2152L24.626 156.145L22.2263 160H23.6372L25.2704 157.2L27.0147 160Z" fill="#C2C8CF"/>
<path d="M8.43989 170.389V171.429H13.5853L9.82621 180H11.0526L14.7583 171.309V170.389H8.43989ZM15.9567 179.893H22.3684V178.88H17.7829C19.5024 177.481 22.0885 175.441 22.0885 173.042C22.0885 171.256 20.9154 170.189 19.1025 170.189C17.3696 170.189 16.0766 171.256 15.9966 173.308H17.1697C17.223 172.095 17.8628 171.229 19.1159 171.229C20.4222 171.229 20.8888 172.029 20.8888 173.095C20.8888 175.068 18.4894 176.987 15.9567 179.027V179.893ZM23.3841 170.389V171.429H28.5294L24.7704 180H25.9967L29.7025 171.309V170.389H23.3841ZM36.2462 170.696H31.2474V180H36.2462V179H32.4604V175.801H35.8463V174.801H32.4604V171.695H36.2462V170.696ZM39.6413 174.988C38.5615 175.308 37.855 176.188 37.855 177.401C37.855 179.147 39.228 180.267 41.2542 180.267C43.2937 180.267 44.68 179.147 44.68 177.401C44.68 176.201 43.9735 175.321 42.8804 174.988C43.8269 174.615 44.4267 173.815 44.4267 172.775C44.4267 171.375 43.347 170.216 41.2542 170.216C39.1614 170.216 38.095 171.362 38.095 172.775C38.095 173.855 38.6548 174.601 39.6413 174.988ZM41.2542 174.588C40.0811 174.588 39.268 173.935 39.268 172.935C39.268 171.802 40.0678 171.229 41.2542 171.229C42.4672 171.229 43.2537 171.815 43.2537 172.922C43.2537 173.922 42.4406 174.588 41.2542 174.588ZM41.2542 175.521C42.5205 175.521 43.4803 176.121 43.4803 177.361C43.4803 178.48 42.6272 179.254 41.2542 179.254C39.8812 179.254 39.0147 178.494 39.0147 177.361C39.0147 176.081 40.0145 175.521 41.2542 175.521ZM51.4897 170.696H46.491V180H51.4897V179H47.704V175.801H51.0898V174.801H47.704V171.695H51.4897V170.696Z" fill="#5D6B7E"/>
<path d="M0 194H112V214C112 216.209 110.209 218 108 218H4C1.79086 218 0 216.209 0 214V194Z" fill="#EDEFF1"/>
<path d="M13.9105 202.267V208.022L10.0998 202.267H8.83325V210H10.0998V204.234L13.9105 210H15.1771V202.267H13.9105ZM21.1065 202.267H16.8403V210H21.1065V208.967H18.1068V206.6H20.7732V205.567H18.1068V203.301H21.1065V202.267ZM22.6554 207.178C22.6554 209.145 24.033 210.078 25.6551 210.078C27.266 210.078 28.6881 209.145 28.6881 207.178V202.279H27.4216V207.2C27.4216 208.4 26.7439 208.967 25.6662 208.967C24.5996 208.967 23.9219 208.4 23.9219 207.2V202.279H22.6554V207.178ZM29.9372 203.312H32.0037V210H33.2702V203.312H35.3256V202.279H29.9372V203.312ZM40.7078 204.589C40.7078 205.356 40.2634 205.9 39.2746 205.9H37.8748V203.312H39.2746C40.2634 203.312 40.7078 203.812 40.7078 204.589ZM36.6082 202.279V210H37.8748V206.911H38.8414L40.619 210H42.1299L40.219 206.8C41.5189 206.478 42.0077 205.5 42.0077 204.589C42.0077 203.334 41.1078 202.279 39.2746 202.279H36.6082ZM48.8385 210H50.1717L47.4053 202.267H45.9388L43.1724 210H44.4945L45.05 208.422H48.283L48.8385 210ZM47.9275 207.389H45.4055L46.6721 203.801L47.9275 207.389ZM51.3746 202.279V210H55.252V208.978H52.6411V202.279H51.3746ZM56.1223 203.901H57.3555C57.4333 203.334 57.8443 202.801 58.7331 202.801C59.5997 202.801 60.0552 203.267 60.0552 203.967C60.0552 204.834 59.3553 205.167 58.211 205.178H57.911V206.223H58.1998C59.5219 206.223 60.2108 206.589 60.2108 207.656C60.2108 208.411 59.7441 208.989 58.7998 208.989C57.8443 208.989 57.2888 208.411 57.2333 207.656H56.0112C56.0889 209.245 57.2777 210.044 58.8109 210.044C60.4996 210.044 61.4106 209.067 61.4106 207.778C61.4106 206.656 60.8662 205.956 60.0219 205.7V205.656C60.6552 205.445 61.2662 204.789 61.2662 203.823C61.2662 202.645 60.3885 201.712 58.7776 201.712C57.2999 201.712 56.2111 202.501 56.1223 203.901ZM62.7411 205.845C62.7411 208.2 63.3632 209.978 65.6297 209.978C67.8961 209.978 68.5183 208.2 68.5183 205.845C68.5183 203.534 67.8961 201.756 65.6297 201.756C63.3632 201.756 62.7411 203.534 62.7411 205.845ZM67.2739 205.845C67.2739 207.434 67.1073 208.822 65.6297 208.822C64.152 208.822 63.9854 207.434 63.9854 205.845C63.9854 204.334 64.152 202.912 65.6297 202.912C67.1073 202.912 67.2739 204.334 67.2739 205.845ZM69.8584 205.845C69.8584 208.2 70.4806 209.978 72.747 209.978C75.0134 209.978 75.6356 208.2 75.6356 205.845C75.6356 203.534 75.0134 201.756 72.747 201.756C70.4806 201.756 69.8584 203.534 69.8584 205.845ZM74.3913 205.845C74.3913 207.434 74.2246 208.822 72.747 208.822C71.2694 208.822 71.1027 207.434 71.1027 205.845C71.1027 204.334 71.2694 202.912 72.747 202.912C74.2246 202.912 74.3913 204.334 74.3913 205.845Z" fill="#9AA3AF"/>
</svg>
