<svg width="112" height="218" viewBox="0 0 112 218" fill="none" xmlns="http://www.w3.org/2000/svg">
<rect y="100" width="112" height="94" fill="#F9FAFA"/>
<path d="M0 4C0 1.79086 1.79086 0 4 0H108C110.209 0 112 1.79086 112 4V100H0V4Z" fill="#5D6B7E"/>
<path d="M13.9105 109.267V115.022L10.0998 109.267H8.83325V117H10.0998V111.234L13.9105 117H15.1771V109.267H13.9105ZM22.0509 117H23.3841L20.6177 109.267H19.1511L16.3848 117H17.7068L18.2623 115.422H21.4954L22.0509 117ZM21.1398 114.389H18.6179L19.8844 110.801L21.1398 114.389ZM24.5869 117H25.8534V111.712L28.2199 117H29.0975L31.4529 111.712V117H32.7194V109.279H31.364L28.6643 115.333L25.9534 109.279H24.5869V117ZM38.6503 109.267H34.3841V117H38.6503V115.967H35.6506V113.6H38.317V112.567H35.6506V110.301H38.6503V109.267Z" fill="#C2C8CF"/>
<path d="M15.0649 134.467C15.0649 131.028 10.0528 132.521 10.0528 130.122C10.0528 129.122 10.8393 128.602 11.839 128.629C12.9721 128.642 13.5586 129.349 13.6386 129.975H14.9716C14.825 128.562 13.6653 127.589 11.8924 127.589C10.0528 127.589 8.81313 128.629 8.81313 130.162C8.81313 133.614 13.8385 132.015 13.8385 134.521C13.8385 135.4 13.1454 136.067 11.9723 136.067C10.6793 136.067 10.1328 135.294 10.0528 134.521H8.75981C8.78647 136.054 10.1061 137.093 11.9723 137.093C13.9852 137.093 15.0649 135.787 15.0649 134.467ZM16.85 137H18.063V127.136H16.85V137ZM19.6772 133.321C19.6772 135.587 21.1835 137.12 23.1297 137.12C24.476 137.12 25.4224 136.427 25.8623 135.64V137H27.0887V129.695H25.8623V131.028C25.4357 130.268 24.5026 129.575 23.143 129.575C21.1835 129.575 19.6772 131.041 19.6772 133.321ZM25.8623 133.334C25.8623 135.054 24.7159 136.054 23.3829 136.054C22.0499 136.054 20.9169 135.04 20.9169 133.321C20.9169 131.601 22.0499 130.628 23.3829 130.628C24.7159 130.628 25.8623 131.641 25.8623 133.334ZM29.4052 135C29.4052 136.467 30.1383 137 31.4313 137H32.5244V135.974H31.6313C30.8848 135.974 30.6182 135.72 30.6182 135V130.695H32.5244V129.695H30.6182V127.856H29.4052V129.695H28.4587V130.695H29.4052V135ZM37.1 130.602C38.353 130.602 39.4194 131.388 39.4061 132.814H34.7939C34.9272 131.388 35.9136 130.602 37.1 130.602ZM40.5125 134.747H39.2062C38.9396 135.534 38.2464 136.094 37.1533 136.094C35.9136 136.094 34.8739 135.28 34.7806 133.801H40.6191C40.6458 133.548 40.6591 133.334 40.6591 133.068C40.6591 131.068 39.2728 129.575 37.1533 129.575C35.0205 129.575 33.5409 131.028 33.5409 133.334C33.5409 135.654 35.0739 137.12 37.1533 137.12C38.9662 137.12 40.1393 136.08 40.5125 134.747ZM50.0264 127.602C47.4137 127.602 45.3609 129.562 45.3609 132.348C45.3609 135.134 47.4137 137.08 50.0264 137.08C52.5457 137.08 54.3719 135.227 54.5852 132.921V131.988H49.5865V132.974H53.2922C53.1056 134.814 51.8526 135.987 50.0264 135.987C48.0669 135.987 46.6006 134.574 46.6006 132.348C46.6006 130.108 48.0669 128.695 50.0264 128.695C51.3327 128.695 52.3458 129.322 52.8523 130.402H54.3053C53.6121 128.615 51.9859 127.602 50.0264 127.602ZM57.4021 133.028C57.4021 131.335 58.2819 130.815 59.4416 130.815H59.7615V129.562C58.6018 129.562 57.8154 130.068 57.4021 130.882V129.695H56.1891V137H57.4021V133.028ZM60.7086 133.321C60.7086 135.587 62.2149 137.12 64.1611 137.12C65.5074 137.12 66.4538 136.427 66.8937 135.64V137H68.1201V129.695H66.8937V131.028C66.4671 130.268 65.534 129.575 64.1744 129.575C62.2149 129.575 60.7086 131.041 60.7086 133.321ZM66.8937 133.334C66.8937 135.054 65.7473 136.054 64.4143 136.054C63.0813 136.054 61.9483 135.04 61.9483 133.321C61.9483 131.601 63.0813 130.628 64.4143 130.628C65.7473 130.628 66.8937 131.641 66.8937 133.334ZM72.9426 135.614L70.6499 129.695H69.3035L72.2495 136.92L70.8098 140.439H72.0628L76.4617 129.695H75.2087L72.9426 135.614Z" fill="#5D6B7E"/>
<path d="M13.7328 160H14.9993V152.279H13.7328V155.589H10.0998V152.279H8.83325V160H10.0998V156.623H13.7328V160ZM20.9329 152.267H16.6667V160H20.9329V158.967H17.9332V156.6H20.5996V155.567H17.9332V153.301H20.9329V152.267ZM27.0147 160H28.4368L26.037 156.145L28.4479 152.279H27.0369L25.3926 155.1L23.6372 152.279H22.2152L24.626 156.145L22.2263 160H23.6372L25.2704 157.2L27.0147 160Z" fill="#C2C8CF"/>
<path d="M9.17304 170.349V175.788H10.3194C10.6393 175.028 11.3458 174.521 12.3189 174.521C13.7186 174.521 14.4251 175.321 14.4251 176.694C14.4251 178.014 13.7719 179 12.3056 179C11.1725 179 10.3861 178.4 10.1595 177.387H8.97309C9.21303 178.947 10.3727 180.027 12.2923 180.027C14.545 180.027 15.5848 178.534 15.5848 176.668C15.5848 175.175 14.8383 173.482 12.4922 173.482C11.5458 173.482 10.6927 173.908 10.2928 174.455V171.415H14.9716V170.349H9.17304ZM20.2893 170.709H17.3967V180H20.2893C23.3419 180 25.2214 178.254 25.2214 175.374C25.2214 172.495 23.3419 170.709 20.2893 170.709ZM18.6097 179V171.695H20.2893C22.7154 171.695 23.9817 173.108 23.9817 175.374C23.9817 177.641 22.7154 179 20.2893 179H18.6097ZM33.1132 172.655C32.9532 171.309 32.0201 170.162 30.1806 170.162C27.7412 170.162 26.7681 172.029 26.7681 175.055C26.7681 177.974 27.4479 180.027 30.3006 180.027C32.4067 180.027 33.4464 178.587 33.4464 176.827C33.4464 174.801 32.2334 173.615 30.4339 173.615C29.2875 173.615 28.2344 174.148 27.8212 175.095C27.8079 172.229 28.6343 171.176 30.1673 171.176C31.2603 171.176 31.8069 171.722 31.9935 172.655H33.1132ZM30.1806 174.641C31.5669 174.641 32.2734 175.508 32.2734 176.867C32.2734 178.174 31.4869 179.014 30.2339 179.014C28.7143 179.014 27.9678 178.014 27.9678 176.734C27.9678 175.295 29.0742 174.641 30.1806 174.641ZM40.5615 177.387C40.5615 178.4 39.8417 179 38.642 179H36.4959V175.721H38.602C39.7884 175.721 40.5615 176.361 40.5615 177.387ZM40.3216 173.215C40.3216 174.161 39.6684 174.721 38.5354 174.721H36.4959V171.709H38.5087C39.6951 171.709 40.3216 172.295 40.3216 173.215ZM41.7746 177.507C41.7746 176.361 40.9481 175.388 39.935 175.215C40.8281 174.921 41.5613 174.241 41.5613 173.068C41.5613 171.775 40.5749 170.709 38.6154 170.709H35.2829V180H38.7487C40.6682 180 41.7746 178.907 41.7746 177.507ZM42.8714 170.389V171.429H48.0168L44.2577 180H45.4841L49.1898 171.309V170.389H42.8714ZM55.7335 170.696H50.7347V180H55.7335V179H51.9478V175.801H55.3336V174.801H51.9478V171.695H55.7335V170.696Z" fill="#5D6B7E"/>
<path d="M0 194H112V214C112 216.209 110.209 218 108 218H4C1.79086 218 0 216.209 0 214V194Z" fill="#EDEFF1"/>
<path d="M13.9105 202.267V208.022L10.0998 202.267H8.83325V210H10.0998V204.234L13.9105 210H15.1771V202.267H13.9105ZM21.1065 202.267H16.8403V210H21.1065V208.967H18.1068V206.6H20.7732V205.567H18.1068V203.301H21.1065V202.267ZM22.6554 207.178C22.6554 209.145 24.033 210.078 25.6551 210.078C27.266 210.078 28.6881 209.145 28.6881 207.178V202.279H27.4216V207.2C27.4216 208.4 26.7439 208.967 25.6662 208.967C24.5996 208.967 23.9219 208.4 23.9219 207.2V202.279H22.6554V207.178ZM29.9372 203.312H32.0037V210H33.2702V203.312H35.3256V202.279H29.9372V203.312ZM40.7078 204.589C40.7078 205.356 40.2634 205.9 39.2746 205.9H37.8748V203.312H39.2746C40.2634 203.312 40.7078 203.812 40.7078 204.589ZM36.6082 202.279V210H37.8748V206.911H38.8414L40.619 210H42.1299L40.219 206.8C41.5189 206.478 42.0077 205.5 42.0077 204.589C42.0077 203.334 41.1078 202.279 39.2746 202.279H36.6082ZM48.8385 210H50.1717L47.4053 202.267H45.9388L43.1724 210H44.4945L45.05 208.422H48.283L48.8385 210ZM47.9275 207.389H45.4055L46.6721 203.801L47.9275 207.389ZM51.3746 202.279V210H55.252V208.978H52.6411V202.279H51.3746ZM60.0108 210H61.2551V208.311H62.2883V207.211H61.2551V202.001H59.7219L55.989 207.356V208.311H60.0108V210ZM57.4444 207.211L60.0663 203.29V207.211H57.4444ZM63.3378 205.845C63.3378 208.2 63.9599 209.978 66.2264 209.978C68.4928 209.978 69.115 208.2 69.115 205.845C69.115 203.534 68.4928 201.756 66.2264 201.756C63.9599 201.756 63.3378 203.534 63.3378 205.845ZM67.8707 205.845C67.8707 207.434 67.704 208.822 66.2264 208.822C64.7488 208.822 64.5821 207.434 64.5821 205.845C64.5821 204.334 64.7488 202.912 66.2264 202.912C67.704 202.912 67.8707 204.334 67.8707 205.845ZM70.4551 205.845C70.4551 208.2 71.0773 209.978 73.3437 209.978C75.6102 209.978 76.2323 208.2 76.2323 205.845C76.2323 203.534 75.6102 201.756 73.3437 201.756C71.0773 201.756 70.4551 203.534 70.4551 205.845ZM74.988 205.845C74.988 207.434 74.8214 208.822 73.3437 208.822C71.8661 208.822 71.6994 207.434 71.6994 205.845C71.6994 204.334 71.8661 202.912 73.3437 202.912C74.8214 202.912 74.988 204.334 74.988 205.845Z" fill="#9AA3AF"/>
</svg>
