<svg width="112" height="218" viewBox="0 0 112 218" fill="none" xmlns="http://www.w3.org/2000/svg">
<rect y="100" width="112" height="94" fill="#F9FAFA"/>
<path d="M0 4C0 1.79086 1.79086 0 4 0H108C110.209 0 112 1.79086 112 4V100H0V4Z" fill="#35465E"/>
<path d="M13.9105 109.267V115.022L10.0998 109.267H8.83325V117H10.0998V111.234L13.9105 117H15.1771V109.267H13.9105ZM22.0509 117H23.3841L20.6177 109.267H19.1511L16.3848 117H17.7068L18.2623 115.422H21.4954L22.0509 117ZM21.1398 114.389H18.6179L19.8844 110.801L21.1398 114.389ZM24.5869 117H25.8534V111.712L28.2199 117H29.0975L31.4529 111.712V117H32.7194V109.279H31.364L28.6643 115.333L25.9534 109.279H24.5869V117ZM38.6503 109.267H34.3841V117H38.6503V115.967H35.6506V113.6H38.317V112.567H35.6506V110.301H38.6503V109.267Z" fill="#C2C8CF"/>
<path d="M15.0649 134.467C15.0649 131.028 10.0528 132.521 10.0528 130.122C10.0528 129.122 10.8393 128.602 11.839 128.629C12.9721 128.642 13.5586 129.349 13.6386 129.975H14.9716C14.825 128.562 13.6653 127.589 11.8924 127.589C10.0528 127.589 8.81313 128.629 8.81313 130.162C8.81313 133.614 13.8385 132.015 13.8385 134.521C13.8385 135.4 13.1454 136.067 11.9723 136.067C10.6793 136.067 10.1328 135.294 10.0528 134.521H8.75981C8.78647 136.054 10.1061 137.093 11.9723 137.093C13.9852 137.093 15.0649 135.787 15.0649 134.467ZM16.85 137H18.063V132.961C18.063 131.388 18.9161 130.615 20.1558 130.615C21.3822 130.615 22.1953 131.375 22.1953 132.868V137H23.395V132.694C23.395 130.602 22.102 129.562 20.4757 129.562C19.4493 129.562 18.5429 129.975 18.063 130.748V127.136H16.85V137ZM31.8549 129.695H30.6418V133.707C30.6418 135.28 29.802 136.054 28.549 136.054C27.3227 136.054 26.5095 135.294 26.5095 133.814V129.695H25.3098V133.974C25.3098 136.067 26.6295 137.107 28.3091 137.107C29.2822 137.107 30.1753 136.68 30.6418 135.92V137H31.8549V129.695ZM34.1696 135C34.1696 136.467 34.9028 137 36.1958 137H37.2888V135.974H36.3957C35.6492 135.974 35.3826 135.72 35.3826 135V130.695H37.2888V129.695H35.3826V127.856H34.1696V129.695H33.2232V130.695H34.1696V135ZM39.0252 135C39.0252 136.467 39.7583 137 41.0513 137H42.1444V135.974H41.2513C40.5048 135.974 40.2382 135.72 40.2382 135V130.695H42.1444V129.695H40.2382V127.856H39.0252V129.695H38.0787V130.695H39.0252V135ZM43.6141 137H44.8271V127.136H43.6141V137ZM50.0004 130.602C51.2535 130.602 52.3199 131.388 52.3065 132.814H47.6943C47.8276 131.388 48.8141 130.602 50.0004 130.602ZM53.4129 134.747H52.1066C51.84 135.534 51.1468 136.094 50.0538 136.094C48.8141 136.094 47.7743 135.28 47.681 133.801H53.5196C53.5462 133.548 53.5595 133.334 53.5595 133.068C53.5595 131.068 52.1732 129.575 50.0538 129.575C47.921 129.575 46.4413 131.028 46.4413 133.334C46.4413 135.654 47.9743 137.12 50.0538 137.12C51.8666 137.12 53.0397 136.08 53.4129 134.747ZM62.9268 127.602C60.3141 127.602 58.2613 129.562 58.2613 132.348C58.2613 135.134 60.3141 137.08 62.9268 137.08C65.4462 137.08 67.2724 135.227 67.4856 132.921V131.988H62.4869V132.974H66.1926C66.006 134.814 64.753 135.987 62.9268 135.987C60.9673 135.987 59.501 134.574 59.501 132.348C59.501 130.108 60.9673 128.695 62.9268 128.695C64.2331 128.695 65.2462 129.322 65.7527 130.402H67.2057C66.5126 128.615 64.8863 127.602 62.9268 127.602ZM70.3025 133.028C70.3025 131.335 71.1823 130.815 72.342 130.815H72.662V129.562C71.5022 129.562 70.7158 130.068 70.3025 130.882V129.695H69.0895V137H70.3025V133.028ZM73.609 133.321C73.609 135.587 75.1153 137.12 77.0615 137.12C78.4078 137.12 79.3542 136.427 79.7941 135.64V137H81.0205V129.695H79.7941V131.028C79.3676 130.268 78.4345 129.575 77.0748 129.575C75.1153 129.575 73.609 131.041 73.609 133.321ZM79.7941 133.334C79.7941 135.054 78.6478 136.054 77.3148 136.054C75.9818 136.054 74.8487 135.04 74.8487 133.321C74.8487 131.601 75.9818 130.628 77.3148 130.628C78.6478 130.628 79.7941 131.641 79.7941 133.334ZM85.843 135.614L83.5503 129.695H82.2039L85.1499 136.92L83.7102 140.439H84.9633L89.3622 129.695H88.1091L85.843 135.614Z" fill="#5D6B7E"/>
<path d="M13.7328 160H14.9993V152.279H13.7328V155.589H10.0998V152.279H8.83325V160H10.0998V156.623H13.7328V160ZM20.9329 152.267H16.6667V160H20.9329V158.967H17.9332V156.6H20.5996V155.567H17.9332V153.301H20.9329V152.267ZM27.0147 160H28.4368L26.037 156.145L28.4479 152.279H27.0369L25.3926 155.1L23.6372 152.279H22.2152L24.626 156.145L22.2263 160H23.6372L25.2704 157.2L27.0147 160Z" fill="#C2C8CF"/>
<path d="M8.7998 172.788H9.98617C10.1061 171.855 10.786 171.216 11.919 171.216C13.0787 171.216 13.6919 171.855 13.6919 172.775C13.6919 173.895 12.8255 174.388 11.2125 174.401H10.8926V175.414H11.1992C12.9321 175.414 13.8785 175.934 13.8785 177.294C13.8785 178.28 13.2654 179.04 11.9723 179.04C10.6927 179.04 9.94618 178.254 9.82621 177.227H8.65317C8.7998 179.094 10.1595 180.067 11.9857 180.067C13.9985 180.067 15.0382 178.894 15.0382 177.401C15.0382 176.014 14.2784 175.188 13.1587 174.921V174.855C14.1718 174.628 14.865 173.762 14.865 172.655C14.865 171.269 13.8385 170.176 11.959 170.176C10.1728 170.176 8.91977 171.136 8.7998 172.788ZM17.0226 170.349V175.788H18.169C18.4889 175.028 19.1954 174.521 20.1685 174.521C21.5682 174.521 22.2747 175.321 22.2747 176.694C22.2747 178.014 21.6215 179 20.1552 179C19.0221 179 18.2357 178.4 18.0091 177.387H16.8227C17.0626 178.947 18.2223 180.027 20.1419 180.027C22.3946 180.027 23.4344 178.534 23.4344 176.668C23.4344 175.175 22.6879 173.482 20.3418 173.482C19.3954 173.482 18.5423 173.908 18.1424 174.455V171.415H22.8212V170.349H17.0226ZM29.6852 180H30.8849V177.854H32.2179V176.801H30.8849V170.456H29.4319L24.7531 176.934V177.854H29.6852V180ZM26.1528 176.801L29.7385 171.722V176.801H26.1528ZM39.9214 172.655C39.7614 171.309 38.8283 170.162 36.9888 170.162C34.5494 170.162 33.5763 172.029 33.5763 175.055C33.5763 177.974 34.2561 180.027 37.1088 180.027C39.2149 180.027 40.2546 178.587 40.2546 176.827C40.2546 174.801 39.0416 173.615 37.2421 173.615C36.0957 173.615 35.0426 174.148 34.6294 175.095C34.6161 172.229 35.4425 171.176 36.9755 171.176C38.0685 171.176 38.6151 171.722 38.8017 172.655H39.9214ZM36.9888 174.641C38.3751 174.641 39.0816 175.508 39.0816 176.867C39.0816 178.174 38.2951 179.014 37.0421 179.014C35.5225 179.014 34.776 178.014 34.776 176.734C34.776 175.295 35.8824 174.641 36.9888 174.641ZM42.2377 170.349V175.788H43.3841C43.704 175.028 44.4105 174.521 45.3836 174.521C46.7832 174.521 47.4897 175.321 47.4897 176.694C47.4897 178.014 46.8365 179 45.3702 179C44.2372 179 43.4507 178.4 43.2241 177.387H42.0377C42.2777 178.947 43.4374 180.027 45.3569 180.027C47.6097 180.027 48.6494 178.534 48.6494 176.668C48.6494 175.175 47.9029 173.482 45.5569 173.482C44.6104 173.482 43.7573 173.908 43.3574 174.455V171.415H48.0362V170.349H42.2377ZM55.4601 170.696H50.4614V180H55.4601V179H51.6744V175.801H55.0602V174.801H51.6744V171.695H55.4601V170.696Z" fill="#5D6B7E"/>
<path d="M0 194H112V214C112 216.209 110.209 218 108 218H4C1.79086 218 0 216.209 0 214V194Z" fill="#EDEFF1"/>
<path d="M13.9105 202.267V208.022L10.0998 202.267H8.83325V210H10.0998V204.234L13.9105 210H15.1771V202.267H13.9105ZM21.1065 202.267H16.8403V210H21.1065V208.967H18.1068V206.6H20.7732V205.567H18.1068V203.301H21.1065V202.267ZM22.6554 207.178C22.6554 209.145 24.033 210.078 25.6551 210.078C27.266 210.078 28.6881 209.145 28.6881 207.178V202.279H27.4216V207.2C27.4216 208.4 26.7439 208.967 25.6662 208.967C24.5996 208.967 23.9219 208.4 23.9219 207.2V202.279H22.6554V207.178ZM29.9372 203.312H32.0037V210H33.2702V203.312H35.3256V202.279H29.9372V203.312ZM40.7078 204.589C40.7078 205.356 40.2634 205.9 39.2746 205.9H37.8748V203.312H39.2746C40.2634 203.312 40.7078 203.812 40.7078 204.589ZM36.6082 202.279V210H37.8748V206.911H38.8414L40.619 210H42.1299L40.219 206.8C41.5189 206.478 42.0077 205.5 42.0077 204.589C42.0077 203.334 41.1078 202.279 39.2746 202.279H36.6082ZM48.8385 210H50.1717L47.4053 202.267H45.9388L43.1724 210H44.4945L45.05 208.422H48.283L48.8385 210ZM47.9275 207.389H45.4055L46.6721 203.801L47.9275 207.389ZM51.3746 202.279V210H55.252V208.978H52.6411V202.279H51.3746ZM61.6662 203.778C61.5328 202.701 60.744 201.701 59.1664 201.701C57.1444 201.701 56.3 203.234 56.3 205.767C56.3 208.345 56.9111 210 59.2664 210C60.9996 210 61.9217 208.833 61.9217 207.3C61.9217 205.612 60.8885 204.634 59.433 204.634C58.5887 204.634 57.7888 204.989 57.3888 205.656C57.4221 203.534 58.011 202.756 59.1553 202.756C59.9552 202.756 60.3441 203.123 60.4996 203.778H61.6662ZM59.1553 205.7C60.2219 205.7 60.7107 206.389 60.7107 207.356C60.7107 208.311 60.133 208.945 59.1997 208.945C58.1221 208.945 57.5332 208.278 57.5332 207.278C57.5332 206.2 58.3221 205.7 59.1553 205.7ZM63.2727 205.845C63.2727 208.2 63.8948 209.978 66.1613 209.978C68.4277 209.978 69.0499 208.2 69.0499 205.845C69.0499 203.534 68.4277 201.756 66.1613 201.756C63.8948 201.756 63.2727 203.534 63.2727 205.845ZM67.8056 205.845C67.8056 207.434 67.6389 208.822 66.1613 208.822C64.6837 208.822 64.517 207.434 64.517 205.845C64.517 204.334 64.6837 202.912 66.1613 202.912C67.6389 202.912 67.8056 204.334 67.8056 205.845ZM70.39 205.845C70.39 208.2 71.0122 209.978 73.2786 209.978C75.5451 209.978 76.1672 208.2 76.1672 205.845C76.1672 203.534 75.5451 201.756 73.2786 201.756C71.0122 201.756 70.39 203.534 70.39 205.845ZM74.9229 205.845C74.9229 207.434 74.7563 208.822 73.2786 208.822C71.801 208.822 71.6343 207.434 71.6343 205.845C71.6343 204.334 71.801 202.912 73.2786 202.912C74.7563 202.912 74.9229 204.334 74.9229 205.845Z" fill="#9AA3AF"/>
</svg>
