<svg width="112" height="218" viewBox="0 0 112 218" fill="none" xmlns="http://www.w3.org/2000/svg">
<rect y="100" width="112" height="94" fill="#F9FAFA"/>
<path d="M0 4C0 1.79086 1.79086 0 4 0H108C110.209 0 112 1.79086 112 4V100H0V4Z" fill="#1B232F"/>
<path d="M13.9105 109.267V115.022L10.0998 109.267H8.83325V117H10.0998V111.234L13.9105 117H15.1771V109.267H13.9105ZM22.0509 117H23.3841L20.6177 109.267H19.1511L16.3848 117H17.7068L18.2623 115.422H21.4954L22.0509 117ZM21.1398 114.389H18.6179L19.8844 110.801L21.1398 114.389ZM24.5869 117H25.8534V111.712L28.2199 117H29.0975L31.4529 111.712V117H32.7194V109.279H31.364L28.6643 115.333L25.9534 109.279H24.5869V117ZM38.6503 109.267H34.3841V117H38.6503V115.967H35.6506V113.6H38.317V112.567H35.6506V110.301H38.6503V109.267Z" fill="#C2C8CF"/>
<path d="M14.0252 127.696H9.02641V137H14.0252V136H10.2394V132.801H13.6253V131.801H10.2394V128.695H14.0252V127.696ZM17.0737 131.055V127.136H15.8606V137H17.0737V135.654C17.5269 136.453 18.4733 137.12 19.8063 137.12C21.7658 137.12 23.2721 135.587 23.2721 133.321C23.2721 131.041 21.7792 129.575 19.8063 129.575C18.5133 129.575 17.5402 130.242 17.0737 131.055ZM22.0324 133.321C22.0324 135.04 20.8994 136.054 19.553 136.054C18.2334 136.054 17.0737 135.054 17.0737 133.334C17.0737 131.641 18.2334 130.628 19.553 130.628C20.8994 130.628 22.0324 131.601 22.0324 133.321ZM31.8004 133.334C31.8004 131.028 30.1875 129.575 28.108 129.575C26.0418 129.575 24.4156 131.028 24.4156 133.334C24.4156 135.654 25.9885 137.12 28.0547 137.12C30.1342 137.12 31.8004 135.654 31.8004 133.334ZM25.6553 133.334C25.6553 131.495 26.815 130.628 28.0947 130.628C29.3477 130.628 30.5607 131.495 30.5607 133.334C30.5607 135.187 29.321 136.054 28.0547 136.054C26.7883 136.054 25.6553 135.187 25.6553 133.334ZM38.7406 137H39.9403V132.694C39.9403 130.602 38.6473 129.562 36.9544 129.562C35.968 129.562 35.0882 129.975 34.6083 130.735V129.695H33.3953V137H34.6083V132.961C34.6083 131.388 35.4615 130.615 36.7012 130.615C37.9275 130.615 38.7406 131.375 38.7406 132.868V137ZM44.6945 135.614L42.4017 129.695H41.0554L44.0013 136.92L42.5617 140.439H43.8147L48.2136 129.695H46.9606L44.6945 135.614ZM52.5336 132.348C52.5336 135.134 54.573 137.08 57.1724 137.08C59.1852 137.08 60.7848 136.08 61.478 134.294H60.025C59.5185 135.4 58.5321 136.027 57.1724 136.027C55.2262 136.027 53.7732 134.614 53.7732 132.348C53.7732 130.068 55.2262 128.655 57.1724 128.655C58.5321 128.655 59.5185 129.282 60.025 130.402H61.478C60.7848 128.602 59.1852 127.589 57.1724 127.589C54.573 127.589 52.5336 129.562 52.5336 132.348ZM63.2837 137H64.4967V127.136H63.2837V137ZM66.1109 133.321C66.1109 135.587 67.6172 137.12 69.5634 137.12C70.9097 137.12 71.8561 136.427 72.296 135.64V137H73.5224V129.695H72.296V131.028C71.8694 130.268 70.9363 129.575 69.5767 129.575C67.6172 129.575 66.1109 131.041 66.1109 133.321ZM72.296 133.334C72.296 135.054 71.1496 136.054 69.8166 136.054C68.4836 136.054 67.3506 135.04 67.3506 133.321C67.3506 131.601 68.4836 130.628 69.8166 130.628C71.1496 130.628 72.296 131.641 72.296 133.334ZM78.3449 135.614L76.0522 129.695H74.7058L77.6518 136.92L76.2121 140.439H77.4651L81.864 129.695H80.611L78.3449 135.614Z" fill="#5D6B7E"/>
<path d="M13.7328 160H14.9993V152.279H13.7328V155.589H10.0998V152.279H8.83325V160H10.0998V156.623H13.7328V160ZM20.9329 152.267H16.6667V160H20.9329V158.967H17.9332V156.6H20.5996V155.567H17.9332V153.301H20.9329V152.267ZM27.0147 160H28.4368L26.037 156.145L28.4479 152.279H27.0369L25.3926 155.1L23.6372 152.279H22.2152L24.626 156.145L22.2263 160H23.6372L25.2704 157.2L27.0147 160Z" fill="#C2C8CF"/>
<path d="M9.78622 180H11.0126V170.362H8.50654V171.469H9.78622V180ZM18.5749 177.387C18.5749 178.4 17.855 179 16.6553 179H14.5092V175.721H16.6153C17.8017 175.721 18.5749 176.361 18.5749 177.387ZM18.3349 173.215C18.3349 174.161 17.6817 174.721 16.5487 174.721H14.5092V171.709H16.522C17.7084 171.709 18.3349 172.295 18.3349 173.215ZM19.7879 177.507C19.7879 176.361 18.9614 175.388 17.9483 175.215C18.8415 174.921 19.5746 174.241 19.5746 173.068C19.5746 171.775 18.5882 170.709 16.6287 170.709H13.2962V180H16.762C18.6815 180 19.7879 178.907 19.7879 177.507ZM21.1246 179.893H27.5364V178.88H22.9508C24.6704 177.481 27.2564 175.441 27.2564 173.042C27.2564 171.256 26.0834 170.189 24.2705 170.189C22.5376 170.189 21.2446 171.256 21.1646 173.308H22.3377C22.391 172.095 23.0308 171.229 24.2838 171.229C25.5902 171.229 26.0567 172.029 26.0567 173.095C26.0567 175.068 23.6573 176.987 21.1246 179.027V179.893ZM28.912 172.788H30.0983C30.2183 171.855 30.8981 171.216 32.0312 171.216C33.1909 171.216 33.8041 171.855 33.8041 172.775C33.8041 173.895 32.9376 174.388 31.3247 174.401H31.0048V175.414H31.3114C33.0443 175.414 33.9907 175.934 33.9907 177.294C33.9907 178.28 33.3775 179.04 32.0845 179.04C30.8048 179.04 30.0583 178.254 29.9384 177.227H28.7653C28.912 179.094 30.2716 180.067 32.0978 180.067C34.1107 180.067 35.1504 178.894 35.1504 177.401C35.1504 176.014 34.3906 175.188 33.2709 174.921V174.855C34.2839 174.628 34.9771 173.762 34.9771 172.655C34.9771 171.269 33.9507 170.176 32.0712 170.176C30.2849 170.176 29.0319 171.136 28.912 172.788ZM36.6416 179.893H43.0533V178.88H38.4678C40.1874 177.481 42.7734 175.441 42.7734 173.042C42.7734 171.256 41.6003 170.189 39.7875 170.189C38.0546 170.189 36.7616 171.256 36.6816 173.308H37.8546C37.9079 172.095 38.5478 171.229 39.8008 171.229C41.1071 171.229 41.5737 172.029 41.5737 173.095C41.5737 175.068 39.1743 176.987 36.6416 179.027V179.893ZM44.6555 180H45.8686V175.814H49.1477V174.828H45.8686V171.695H49.9075V170.709H44.6555V180Z" fill="#5D6B7E"/>
<path d="M0 194H112V214C112 216.209 110.209 218 108 218H4C1.79086 218 0 216.209 0 214V194Z" fill="#EDEFF1"/>
<path d="M13.9105 202.267V208.022L10.0998 202.267H8.83325V210H10.0998V204.234L13.9105 210H15.1771V202.267H13.9105ZM21.1065 202.267H16.8403V210H21.1065V208.967H18.1068V206.6H20.7732V205.567H18.1068V203.301H21.1065V202.267ZM22.6554 207.178C22.6554 209.145 24.033 210.078 25.6551 210.078C27.266 210.078 28.6881 209.145 28.6881 207.178V202.279H27.4216V207.2C27.4216 208.4 26.7439 208.967 25.6662 208.967C24.5996 208.967 23.9219 208.4 23.9219 207.2V202.279H22.6554V207.178ZM29.9372 203.312H32.0037V210H33.2702V203.312H35.3256V202.279H29.9372V203.312ZM40.7078 204.589C40.7078 205.356 40.2634 205.9 39.2746 205.9H37.8748V203.312H39.2746C40.2634 203.312 40.7078 203.812 40.7078 204.589ZM36.6082 202.279V210H37.8748V206.911H38.8414L40.619 210H42.1299L40.219 206.8C41.5189 206.478 42.0077 205.5 42.0077 204.589C42.0077 203.334 41.1078 202.279 39.2746 202.279H36.6082ZM48.8385 210H50.1717L47.4053 202.267H45.9388L43.1724 210H44.4945L45.05 208.422H48.283L48.8385 210ZM47.9275 207.389H45.4055L46.6721 203.801L47.9275 207.389ZM51.3746 202.279V210H55.252V208.978H52.6411V202.279H51.3746ZM56.5556 207.8C56.6556 208.956 57.4333 209.989 59.1109 209.989C61.2329 209.989 61.8106 208.533 61.8106 205.8C61.8106 203.145 61.1107 201.712 59.022 201.712C57.3222 201.712 56.3334 202.778 56.3334 204.389C56.3334 206.1 57.4888 206.978 58.9109 206.978C59.6441 206.978 60.3441 206.7 60.7107 206.189C60.7107 208.256 60.1996 208.933 59.1886 208.933C58.3443 208.933 57.8665 208.522 57.7221 207.8H56.5556ZM59.1331 205.912C58.011 205.912 57.5443 205.189 57.5443 204.356C57.5443 203.423 58.111 202.767 59.0553 202.767C59.9774 202.767 60.5663 203.356 60.5663 204.389C60.5663 205.3 60.033 205.912 59.1331 205.912ZM63.1967 205.845C63.1967 208.2 63.8189 209.978 66.0853 209.978C68.3518 209.978 68.9739 208.2 68.9739 205.845C68.9739 203.534 68.3518 201.756 66.0853 201.756C63.8189 201.756 63.1967 203.534 63.1967 205.845ZM67.7296 205.845C67.7296 207.434 67.563 208.822 66.0853 208.822C64.6077 208.822 64.4411 207.434 64.4411 205.845C64.4411 204.334 64.6077 202.912 66.0853 202.912C67.563 202.912 67.7296 204.334 67.7296 205.845ZM70.3141 205.845C70.3141 208.2 70.9362 209.978 73.2027 209.978C75.4691 209.978 76.0913 208.2 76.0913 205.845C76.0913 203.534 75.4691 201.756 73.2027 201.756C70.9362 201.756 70.3141 203.534 70.3141 205.845ZM74.847 205.845C74.847 207.434 74.6803 208.822 73.2027 208.822C71.725 208.822 71.5584 207.434 71.5584 205.845C71.5584 204.334 71.725 202.912 73.2027 202.912C74.6803 202.912 74.847 204.334 74.847 205.845Z" fill="#9AA3AF"/>
</svg>
