<svg width="112" height="218" viewBox="0 0 112 218" fill="none" xmlns="http://www.w3.org/2000/svg">
<rect y="100" width="112" height="94" fill="#F9FAFA"/>
<path d="M0 4C0 1.79086 1.79086 0 4 0H108C110.209 0 112 1.79086 112 4V100H0V4Z" fill="#C2C8CF"/>
<path d="M13.9105 109.267V115.022L10.0998 109.267H8.83325V117H10.0998V111.234L13.9105 117H15.1771V109.267H13.9105ZM22.0509 117H23.3841L20.6177 109.267H19.1511L16.3848 117H17.7068L18.2623 115.422H21.4954L22.0509 117ZM21.1398 114.389H18.6179L19.8844 110.801L21.1398 114.389ZM24.5869 117H25.8534V111.712L28.2199 117H29.0975L31.4529 111.712V117H32.7194V109.279H31.364L28.6643 115.333L25.9534 109.279H24.5869V117ZM38.6503 109.267H34.3841V117H38.6503V115.967H35.6506V113.6H38.317V112.567H35.6506V110.301H38.6503V109.267Z" fill="#C2C8CF"/>
<path d="M15.2649 137H16.5445L13.1987 127.762H11.7991L8.43989 137H9.71957L10.4661 134.934H14.5184L15.2649 137ZM14.1718 133.947H10.8126L12.4922 129.255L14.1718 133.947ZM18.0085 137H19.2216V127.136H18.0085V137ZM27.7673 129.695H26.5543V133.707C26.5543 135.28 25.7145 136.054 24.4615 136.054C23.2351 136.054 22.422 135.294 22.422 133.814V129.695H21.2223V133.974C21.2223 136.067 22.542 137.107 24.2216 137.107C25.1947 137.107 26.0878 136.68 26.5543 135.92V137H27.7673V129.695ZM40.3595 137H41.5592V132.694C41.5592 130.602 40.2662 129.562 38.6 129.562C37.4802 129.562 36.4405 130.135 36.0139 131.188C35.5341 130.095 34.5343 129.562 33.3346 129.562C32.3748 129.562 31.5084 129.975 31.0285 130.748V129.695H29.8155V137H31.0285V132.974C31.0285 131.401 31.8683 130.615 33.0947 130.615C34.2944 130.615 35.0942 131.375 35.0942 132.868V137H36.2939V132.974C36.2939 131.401 37.1337 130.615 38.36 130.615C39.5597 130.615 40.3595 131.375 40.3595 132.868V137ZM43.549 137H44.7621V129.695H43.549V137ZM44.1755 128.509C44.6154 128.509 44.9753 128.149 44.9753 127.682C44.9753 127.216 44.6154 126.856 44.1755 126.856C43.709 126.856 43.3491 127.216 43.3491 127.682C43.3491 128.149 43.709 128.509 44.1755 128.509ZM52.1748 137H53.3745V132.694C53.3745 130.602 52.0815 129.562 50.3886 129.562C49.4021 129.562 48.5224 129.975 48.0425 130.735V129.695H46.8295V137H48.0425V132.961C48.0425 131.388 48.8956 130.615 50.1353 130.615C51.3617 130.615 52.1748 131.375 52.1748 132.868V137ZM55.356 137H56.569V129.695H55.356V137ZM55.9825 128.509C56.4224 128.509 56.7823 128.149 56.7823 127.682C56.7823 127.216 56.4224 126.856 55.9825 126.856C55.5159 126.856 55.156 127.216 55.156 127.682C55.156 128.149 55.5159 128.509 55.9825 128.509ZM65.1148 129.695H63.9018V133.707C63.9018 135.28 63.062 136.054 61.8089 136.054C60.5826 136.054 59.7695 135.294 59.7695 133.814V129.695H58.5698V133.974C58.5698 136.067 59.8894 137.107 61.569 137.107C62.5421 137.107 63.4352 136.68 63.9018 135.92V137H65.1148V129.695ZM77.7069 137H78.9066V132.694C78.9066 130.602 77.6136 129.562 75.9474 129.562C74.8277 129.562 73.7879 130.135 73.3614 131.188C72.8815 130.095 71.8817 129.562 70.682 129.562C69.7223 129.562 68.8558 129.975 68.3759 130.748V129.695H67.1629V137H68.3759V132.974C68.3759 131.401 69.2157 130.615 70.4421 130.615C71.6418 130.615 72.4416 131.375 72.4416 132.868V137H73.6413V132.974C73.6413 131.401 74.4811 130.615 75.7074 130.615C76.9071 130.615 77.7069 131.375 77.7069 132.868V137Z" fill="#5D6B7E"/>
<path d="M13.7328 160H14.9993V152.279H13.7328V155.589H10.0998V152.279H8.83325V160H10.0998V156.623H13.7328V160ZM20.9329 152.267H16.6667V160H20.9329V158.967H17.9332V156.6H20.5996V155.567H17.9332V153.301H20.9329V152.267ZM27.0147 160H28.4368L26.037 156.145L28.4479 152.279H27.0369L25.3926 155.1L23.6372 152.279H22.2152L24.626 156.145L22.2263 160H23.6372L25.2704 157.2L27.0147 160Z" fill="#C2C8CF"/>
<path d="M8.57319 175.348C8.57319 178.134 10.6127 180.08 13.212 180.08C15.2249 180.08 16.8245 179.08 17.5176 177.294H16.0647C15.5581 178.4 14.5717 179.027 13.212 179.027C11.2659 179.027 9.81288 177.614 9.81288 175.348C9.81288 173.068 11.2659 171.655 13.212 171.655C14.5717 171.655 15.5581 172.282 16.0647 173.402H17.5176C16.8245 171.602 15.2249 170.589 13.212 170.589C10.6127 170.589 8.57319 172.562 8.57319 175.348ZM18.9767 179.893H25.3885V178.88H20.8029C22.5225 177.481 25.1085 175.441 25.1085 173.042C25.1085 171.256 23.9355 170.189 22.1226 170.189C20.3897 170.189 19.0967 171.256 19.0167 173.308H20.1898C20.2431 172.095 20.8829 171.229 22.1359 171.229C23.4423 171.229 23.9088 172.029 23.9088 173.095C23.9088 175.068 21.5094 176.987 18.9767 179.027V179.893ZM26.5374 175.348C26.5374 178.134 28.5769 180.08 31.1763 180.08C33.1891 180.08 34.7887 179.08 35.4819 177.294H34.0289C33.5224 178.4 32.5359 179.027 31.1763 179.027C29.2301 179.027 27.7771 177.614 27.7771 175.348C27.7771 173.068 29.2301 171.655 31.1763 171.655C32.5359 171.655 33.5224 172.282 34.0289 173.402H35.4819C34.7887 171.602 33.1891 170.589 31.1763 170.589C28.5769 170.589 26.5374 172.562 26.5374 175.348ZM38.8472 174.988C37.7675 175.308 37.061 176.188 37.061 177.401C37.061 179.147 38.434 180.267 40.4601 180.267C42.4996 180.267 43.8859 179.147 43.8859 177.401C43.8859 176.201 43.1794 175.321 42.0864 174.988C43.0328 174.615 43.6327 173.815 43.6327 172.775C43.6327 171.375 42.5529 170.216 40.4601 170.216C38.3673 170.216 37.3009 171.362 37.3009 172.775C37.3009 173.855 37.8608 174.601 38.8472 174.988ZM40.4601 174.588C39.2871 174.588 38.4739 173.935 38.4739 172.935C38.4739 171.802 39.2737 171.229 40.4601 171.229C41.6731 171.229 42.4596 171.815 42.4596 172.922C42.4596 173.922 41.6465 174.588 40.4601 174.588ZM40.4601 175.521C41.7265 175.521 42.6862 176.121 42.6862 177.361C42.6862 178.48 41.8331 179.254 40.4601 179.254C39.0871 179.254 38.2207 178.494 38.2207 177.361C38.2207 176.081 39.2204 175.521 40.4601 175.521ZM45.2437 175.348C45.2437 178.134 47.2832 180.08 49.8825 180.08C51.8954 180.08 53.495 179.08 54.1881 177.294H52.7352C52.2286 178.4 51.2422 179.027 49.8825 179.027C47.9364 179.027 46.4834 177.614 46.4834 175.348C46.4834 173.068 47.9364 171.655 49.8825 171.655C51.2422 171.655 52.2286 172.282 52.7352 173.402H54.1881C53.495 171.602 51.8954 170.589 49.8825 170.589C47.2832 170.589 45.2437 172.562 45.2437 175.348ZM55.9938 180H57.2069V175.814H60.486V174.828H57.2069V171.695H61.2459V170.709H55.9938V180Z" fill="#5D6B7E"/>
<path d="M0 194H112V214C112 216.209 110.209 218 108 218H4C1.79086 218 0 216.209 0 214V194Z" fill="#EDEFF1"/>
<path d="M13.9105 202.267V208.022L10.0998 202.267H8.83325V210H10.0998V204.234L13.9105 210H15.1771V202.267H13.9105ZM21.1065 202.267H16.8403V210H21.1065V208.967H18.1068V206.6H20.7732V205.567H18.1068V203.301H21.1065V202.267ZM22.6554 207.178C22.6554 209.145 24.033 210.078 25.6551 210.078C27.266 210.078 28.6881 209.145 28.6881 207.178V202.279H27.4216V207.2C27.4216 208.4 26.7439 208.967 25.6662 208.967C24.5996 208.967 23.9219 208.4 23.9219 207.2V202.279H22.6554V207.178ZM29.9372 203.312H32.0037V210H33.2702V203.312H35.3256V202.279H29.9372V203.312ZM40.7078 204.589C40.7078 205.356 40.2634 205.9 39.2746 205.9H37.8748V203.312H39.2746C40.2634 203.312 40.7078 203.812 40.7078 204.589ZM36.6082 202.279V210H37.8748V206.911H38.8414L40.619 210H42.1299L40.219 206.8C41.5189 206.478 42.0077 205.5 42.0077 204.589C42.0077 203.334 41.1078 202.279 39.2746 202.279H36.6082ZM48.8385 210H50.1717L47.4053 202.267H45.9388L43.1724 210H44.4945L45.05 208.422H48.283L48.8385 210ZM47.9275 207.389H45.4055L46.6721 203.801L47.9275 207.389ZM51.3746 202.279V210H55.252V208.978H52.6411V202.279H51.3746ZM56.1445 205.845C56.1445 208.2 56.7667 209.978 59.0331 209.978C61.2995 209.978 61.9217 208.2 61.9217 205.845C61.9217 203.534 61.2995 201.756 59.0331 201.756C56.7667 201.756 56.1445 203.534 56.1445 205.845ZM60.6774 205.845C60.6774 207.434 60.5107 208.822 59.0331 208.822C57.5555 208.822 57.3888 207.434 57.3888 205.845C57.3888 204.334 57.5555 202.912 59.0331 202.912C60.5107 202.912 60.6774 204.334 60.6774 205.845ZM68.7835 203.778C68.6502 202.701 67.8614 201.701 66.2838 201.701C64.2617 201.701 63.4174 203.234 63.4174 205.767C63.4174 208.345 64.0284 210 66.3837 210C68.1169 210 69.039 208.833 69.039 207.3C69.039 205.612 68.0058 204.634 66.5504 204.634C65.706 204.634 64.9061 204.989 64.5062 205.656C64.5395 203.534 65.1283 202.756 66.2726 202.756C67.0726 202.756 67.4614 203.123 67.617 203.778H68.7835ZM66.2726 205.7C67.3392 205.7 67.828 206.389 67.828 207.356C67.828 208.311 67.2503 208.945 66.3171 208.945C65.2394 208.945 64.6506 208.278 64.6506 207.278C64.6506 206.2 65.4394 205.7 66.2726 205.7ZM70.39 205.845C70.39 208.2 71.0122 209.978 73.2786 209.978C75.5451 209.978 76.1672 208.2 76.1672 205.845C76.1672 203.534 75.5451 201.756 73.2786 201.756C71.0122 201.756 70.39 203.534 70.39 205.845ZM74.9229 205.845C74.9229 207.434 74.7563 208.822 73.2786 208.822C71.801 208.822 71.6343 207.434 71.6343 205.845C71.6343 204.334 71.801 202.912 73.2786 202.912C74.7563 202.912 74.9229 204.334 74.9229 205.845Z" fill="#9AA3AF"/>
</svg>
