<svg width="112" height="218" viewBox="0 0 112 218" fill="none" xmlns="http://www.w3.org/2000/svg">
<rect y="100" width="112" height="94" fill="#F9FAFA"/>
<path d="M0 4C0 1.79086 1.79086 0 4 0H108C110.209 0 112 1.79086 112 4V100H0V4Z" fill="#FFB733"/>
<path d="M13.9105 109.267V115.022L10.0998 109.267H8.83325V117H10.0998V111.234L13.9105 117H15.1771V109.267H13.9105ZM22.0509 117H23.3841L20.6177 109.267H19.1511L16.3848 117H17.7068L18.2623 115.422H21.4954L22.0509 117ZM21.1398 114.389H18.6179L19.8844 110.801L21.1398 114.389ZM24.5869 117H25.8534V111.712L28.2199 117H29.0975L31.4529 111.712V117H32.7194V109.279H31.364L28.6643 115.333L25.9534 109.279H24.5869V117ZM38.6503 109.267H34.3841V117H38.6503V115.967H35.6506V113.6H38.317V112.567H35.6506V110.301H38.6503V109.267Z" fill="#C2C8CF"/>
<path d="M15.0649 134.467C15.0649 131.028 10.0528 132.521 10.0528 130.122C10.0528 129.122 10.8393 128.602 11.839 128.629C12.9721 128.642 13.5586 129.349 13.6386 129.975H14.9716C14.825 128.562 13.6653 127.589 11.8924 127.589C10.0528 127.589 8.81313 128.629 8.81313 130.162C8.81313 133.614 13.8385 132.015 13.8385 134.521C13.8385 135.4 13.1454 136.067 11.9723 136.067C10.6793 136.067 10.1328 135.294 10.0528 134.521H8.75981C8.78647 136.054 10.1061 137.093 11.9723 137.093C13.9852 137.093 15.0649 135.787 15.0649 134.467ZM23.3284 129.695H22.1153V133.707C22.1153 135.28 21.2755 136.054 20.0225 136.054C18.7962 136.054 17.983 135.294 17.983 133.814V129.695H16.7833V133.974C16.7833 136.067 18.103 137.107 19.7826 137.107C20.7557 137.107 21.6488 136.68 22.1153 135.92V137H23.3284V129.695ZM26.5895 131.055V127.136H25.3765V137H26.5895V135.654C27.0427 136.453 27.9892 137.12 29.3222 137.12C31.2817 137.12 32.788 135.587 32.788 133.321C32.788 131.041 31.295 129.575 29.3222 129.575C28.0292 129.575 27.0561 130.242 26.5895 131.055ZM31.5483 133.321C31.5483 135.04 30.4152 136.054 29.0689 136.054C27.7492 136.054 26.5895 135.054 26.5895 133.334C26.5895 131.641 27.7492 130.628 29.0689 130.628C30.4152 130.628 31.5483 131.601 31.5483 133.321ZM33.9314 133.321C33.9314 135.587 35.4377 137.12 37.3972 137.12C38.7302 137.12 39.6767 136.413 40.1166 135.627V137.16C40.1166 138.72 39.1435 139.546 37.8505 139.546C36.6508 139.546 35.7843 138.946 35.5177 138.066H34.318C34.5579 139.626 35.9309 140.599 37.8505 140.599C39.9966 140.599 41.3429 139.173 41.3429 137.16V129.695H40.1166V131.028C39.69 130.242 38.7302 129.575 37.3972 129.575C35.4377 129.575 33.9314 131.041 33.9314 133.321ZM40.1166 133.334C40.1166 135.054 38.9702 136.054 37.6372 136.054C36.3042 136.054 35.1711 135.04 35.1711 133.321C35.1711 131.601 36.3042 130.628 37.6372 130.628C38.9702 130.628 40.1166 131.641 40.1166 133.334ZM43.3928 137H44.6058V127.136H43.3928V137ZM53.6048 133.334C53.6048 131.028 51.9919 129.575 49.9124 129.575C47.8463 129.575 46.22 131.028 46.22 133.334C46.22 135.654 47.793 137.12 49.8591 137.12C51.9386 137.12 53.6048 135.654 53.6048 133.334ZM47.4597 133.334C47.4597 131.495 48.6194 130.628 49.8991 130.628C51.1521 130.628 52.3652 131.495 52.3652 133.334C52.3652 135.187 51.1255 136.054 49.8591 136.054C48.5928 136.054 47.4597 135.187 47.4597 133.334ZM56.6261 137H57.8791L59.6387 131.201L61.3982 137H62.6512L64.9307 129.695H63.731L62.078 135.84L60.3052 129.695H59.0655L57.2526 135.827L55.573 129.695H54.3333L56.6261 137Z" fill="#5D6B7E"/>
<path d="M13.7328 160H14.9993V152.279H13.7328V155.589H10.0998V152.279H8.83325V160H10.0998V156.623H13.7328V160ZM20.9329 152.267H16.6667V160H20.9329V158.967H17.9332V156.6H20.5996V155.567H17.9332V153.301H20.9329V152.267ZM27.0147 160H28.4368L26.037 156.145L28.4479 152.279H27.0369L25.3926 155.1L23.6372 152.279H22.2152L24.626 156.145L22.2263 160H23.6372L25.2704 157.2L27.0147 160Z" fill="#C2C8CF"/>
<path d="M9.02641 180H10.2394V175.814H13.5186V174.828H10.2394V171.695H14.2784V170.709H9.02641V180ZM15.7435 180H16.9565V175.814H20.2357V174.828H16.9565V171.695H20.9955V170.709H15.7435V180ZM27.7392 177.387C27.7392 178.4 27.0194 179 25.8197 179H23.6736V175.721H25.7797C26.9661 175.721 27.7392 176.361 27.7392 177.387ZM27.4993 173.215C27.4993 174.161 26.8461 174.721 25.7131 174.721H23.6736V171.709H25.6864C26.8728 171.709 27.4993 172.295 27.4993 173.215ZM28.9523 177.507C28.9523 176.361 28.1258 175.388 27.1127 175.215C28.0058 174.921 28.739 174.241 28.739 173.068C28.739 171.775 27.7526 170.709 25.7931 170.709H22.4606V180H25.9264C27.8459 180 28.9523 178.907 28.9523 177.507ZM30.0491 170.389V171.429H35.1945L31.4354 180H32.6618L36.3675 171.309V170.389H30.0491ZM37.6858 172.788H38.8722C38.9921 171.855 39.672 171.216 40.805 171.216C41.9647 171.216 42.5779 171.855 42.5779 172.775C42.5779 173.895 41.7115 174.388 40.0985 174.401H39.7786V175.414H40.0852C41.8181 175.414 42.7645 175.934 42.7645 177.294C42.7645 178.28 42.1514 179.04 40.8583 179.04C39.5787 179.04 38.8322 178.254 38.7122 177.227H37.5392C37.6858 179.094 39.0455 180.067 40.8717 180.067C42.8845 180.067 43.9242 178.894 43.9242 177.401C43.9242 176.014 43.1644 175.188 42.0447 174.921V174.855C43.0578 174.628 43.751 173.762 43.751 172.655C43.751 171.269 42.7245 170.176 40.845 170.176C39.0588 170.176 37.8058 171.136 37.6858 172.788ZM45.5354 172.788H46.7218C46.8417 171.855 47.5216 171.216 48.6546 171.216C49.8143 171.216 50.4275 171.855 50.4275 172.775C50.4275 173.895 49.5611 174.388 47.9481 174.401H47.6282V175.414H47.9348C49.6677 175.414 50.6141 175.934 50.6141 177.294C50.6141 178.28 50.001 179.04 48.7079 179.04C47.4283 179.04 46.6818 178.254 46.5618 177.227H45.3888C45.5354 179.094 46.8951 180.067 48.7213 180.067C50.7341 180.067 51.7738 178.894 51.7738 177.401C51.7738 176.014 51.014 175.188 49.8943 174.921V174.855C50.9074 174.628 51.6006 173.762 51.6006 172.655C51.6006 171.269 50.5741 170.176 48.6946 170.176C46.9084 170.176 45.6554 171.136 45.5354 172.788Z" fill="#5D6B7E"/>
<path d="M0 194H112V214C112 216.209 110.209 218 108 218H4C1.79086 218 0 216.209 0 214V194Z" fill="#EDEFF1"/>
<path d="M16.2992 206.123C16.2992 203.812 14.5549 202.179 12.3551 202.179C10.1776 202.179 8.41107 203.812 8.41107 206.123C8.41107 208.445 10.1776 210.078 12.3551 210.078C14.5549 210.078 16.2992 208.445 16.2992 206.123ZM9.71094 206.123C9.71094 204.378 10.8219 203.29 12.3551 203.29C13.8883 203.29 14.9993 204.378 14.9993 206.123C14.9993 207.867 13.8883 208.978 12.3551 208.978C10.8219 208.978 9.71094 207.867 9.71094 206.123ZM18.812 205.834V203.312H20.2119C21.2007 203.312 21.6451 203.778 21.6451 204.578C21.6451 205.356 21.2007 205.834 20.2119 205.834H18.812ZM22.9449 204.578C22.9449 203.323 22.045 202.279 20.2119 202.279H17.5455V210H18.812V206.867H20.2119C22.2228 206.867 22.9449 205.678 22.9449 204.578ZM23.7529 203.312H25.8194V210H27.0859V203.312H29.1413V202.279H23.7529V203.312ZM30.424 210H31.6905V202.279H30.424V210ZM38.4306 202.267V208.022L34.6199 202.267H33.3534V210H34.6199V204.234L38.4306 210H39.6972V202.267H38.4306ZM41.1715 203.901H42.4047C42.4825 203.334 42.8936 202.801 43.7824 202.801C44.6489 202.801 45.1044 203.267 45.1044 203.967C45.1044 204.834 44.4045 205.167 43.2602 205.178H42.9602V206.223H43.2491C44.5712 206.223 45.26 206.589 45.26 207.656C45.26 208.411 44.7934 208.989 43.849 208.989C42.8936 208.989 42.3381 208.411 42.2825 207.656H41.0604C41.1382 209.245 42.3269 210.044 43.8601 210.044C45.5488 210.044 46.4599 209.067 46.4599 207.778C46.4599 206.656 45.9155 205.956 45.0711 205.7V205.656C45.7044 205.445 46.3154 204.789 46.3154 203.823C46.3154 202.645 45.4377 201.712 43.8268 201.712C42.3492 201.712 41.2604 202.501 41.1715 203.901ZM47.7903 205.845C47.7903 208.2 48.4125 209.978 50.6789 209.978C52.9453 209.978 53.5675 208.2 53.5675 205.845C53.5675 203.534 52.9453 201.756 50.6789 201.756C48.4125 201.756 47.7903 203.534 47.7903 205.845ZM52.3232 205.845C52.3232 207.434 52.1565 208.822 50.6789 208.822C49.2013 208.822 49.0346 207.434 49.0346 205.845C49.0346 204.334 49.2013 202.912 50.6789 202.912C52.1565 202.912 52.3232 204.334 52.3232 205.845ZM54.9076 205.845C54.9076 208.2 55.5298 209.978 57.7962 209.978C60.0627 209.978 60.6848 208.2 60.6848 205.845C60.6848 203.534 60.0627 201.756 57.7962 201.756C55.5298 201.756 54.9076 203.534 54.9076 205.845ZM59.4405 205.845C59.4405 207.434 59.2739 208.822 57.7962 208.822C56.3186 208.822 56.152 207.434 56.152 205.845C56.152 204.334 56.3186 202.912 57.7962 202.912C59.2739 202.912 59.4405 204.334 59.4405 205.845Z" fill="#9AA3AF"/>
</svg>
