<svg width="112" height="218" viewBox="0 0 112 218" fill="none" xmlns="http://www.w3.org/2000/svg">
<rect y="100" width="112" height="94" fill="#F9FAFA"/>
<path d="M0 4C0 1.79086 1.79086 0 4 0H108C110.209 0 112 1.79086 112 4V100H0V4Z" fill="#FFC966"/>
<path d="M13.9105 109.267V115.022L10.0998 109.267H8.83325V117H10.0998V111.234L13.9105 117H15.1771V109.267H13.9105ZM22.0509 117H23.3841L20.6177 109.267H19.1511L16.3848 117H17.7068L18.2623 115.422H21.4954L22.0509 117ZM21.1398 114.389H18.6179L19.8844 110.801L21.1398 114.389ZM24.5869 117H25.8534V111.712L28.2199 117H29.0975L31.4529 111.712V117H32.7194V109.279H31.364L28.6643 115.333L25.9534 109.279H24.5869V117ZM38.6503 109.267H34.3841V117H38.6503V115.967H35.6506V113.6H38.317V112.567H35.6506V110.301H38.6503V109.267Z" fill="#C2C8CF"/>
<path d="M13.2387 127.602C10.626 127.602 8.57319 129.562 8.57319 132.348C8.57319 135.134 10.626 137.08 13.2387 137.08C15.7581 137.08 17.5843 135.227 17.7976 132.921V131.988H12.7988V132.974H16.5045C16.3179 134.814 15.0649 135.987 13.2387 135.987C11.2792 135.987 9.81288 134.574 9.81288 132.348C9.81288 130.108 11.2792 128.695 13.2387 128.695C14.545 128.695 15.5581 129.322 16.0647 130.402H17.5176C16.8245 128.615 15.1982 127.602 13.2387 127.602ZM26.333 133.334C26.333 131.028 24.7201 129.575 22.6406 129.575C20.5745 129.575 18.9482 131.028 18.9482 133.334C18.9482 135.654 20.5211 137.12 22.5873 137.12C24.6668 137.12 26.333 135.654 26.333 133.334ZM20.1879 133.334C20.1879 131.495 21.3476 130.628 22.6273 130.628C23.8803 130.628 25.0933 131.495 25.0933 133.334C25.0933 135.187 23.8536 136.054 22.5873 136.054C21.3209 136.054 20.1879 135.187 20.1879 133.334ZM27.9279 137H29.141V127.136H27.9279V137ZM30.7551 133.321C30.7551 135.587 32.2614 137.12 34.2209 137.12C35.5539 137.12 36.5004 136.44 36.9403 135.627V137H38.1666V127.136H36.9403V131.001C36.4337 130.162 35.3807 129.575 34.2343 129.575C32.2614 129.575 30.7551 131.041 30.7551 133.321ZM36.9403 133.334C36.9403 135.054 35.7939 136.054 34.4609 136.054C33.1279 136.054 31.9948 135.04 31.9948 133.321C31.9948 131.601 33.1279 130.628 34.4609 130.628C35.7939 130.628 36.9403 131.641 36.9403 133.334ZM43.3224 130.602C44.5754 130.602 45.6418 131.388 45.6285 132.814H41.0163C41.1496 131.388 42.136 130.602 43.3224 130.602ZM46.7349 134.747H45.4286C45.162 135.534 44.4688 136.094 43.3757 136.094C42.136 136.094 41.0963 135.28 41.003 133.801H46.8415C46.8682 133.548 46.8815 133.334 46.8815 133.068C46.8815 131.068 45.4952 129.575 43.3757 129.575C41.2429 129.575 39.7633 131.028 39.7633 133.334C39.7633 135.654 41.2963 137.12 43.3757 137.12C45.1886 137.12 46.3617 136.08 46.7349 134.747ZM53.828 137H55.0277V132.694C55.0277 130.602 53.7347 129.562 52.0418 129.562C51.0554 129.562 50.1756 129.975 49.6957 130.735V129.695H48.4827V137H49.6957V132.961C49.6957 131.388 50.5488 130.615 51.7885 130.615C53.0149 130.615 53.828 131.375 53.828 132.868V137ZM59.9898 128.695H62.5358V137H63.7489V128.695H66.2816V127.709H59.9898V128.695ZM67.3215 133.321C67.3215 135.587 68.8278 137.12 70.774 137.12C72.1203 137.12 73.0667 136.427 73.5066 135.64V137H74.733V129.695H73.5066V131.028C73.0801 130.268 72.147 129.575 70.7873 129.575C68.8278 129.575 67.3215 131.041 67.3215 133.321ZM73.5066 133.334C73.5066 135.054 72.3603 136.054 71.0273 136.054C69.6943 136.054 68.5612 135.04 68.5612 133.321C68.5612 131.601 69.6943 130.628 71.0273 130.628C72.3603 130.628 73.5066 131.641 73.5066 133.334ZM76.7829 137H77.9959V129.695H76.7829V137ZM77.4094 128.509C77.8493 128.509 78.2092 128.149 78.2092 127.682C78.2092 127.216 77.8493 126.856 77.4094 126.856C76.9429 126.856 76.583 127.216 76.583 127.682C76.583 128.149 76.9429 128.509 77.4094 128.509ZM85.4087 137H86.6084V132.694C86.6084 130.602 85.3154 129.562 83.6224 129.562C82.636 129.562 81.7562 129.975 81.2764 130.735V129.695H80.0633V137H81.2764V132.961C81.2764 131.388 82.1295 130.615 83.3692 130.615C84.5955 130.615 85.4087 131.375 85.4087 132.868V137ZM95.5214 133.334C95.5214 131.028 93.9085 129.575 91.829 129.575C89.7629 129.575 88.1366 131.028 88.1366 133.334C88.1366 135.654 89.7096 137.12 91.7757 137.12C93.8552 137.12 95.5214 135.654 95.5214 133.334ZM89.3763 133.334C89.3763 131.495 90.536 130.628 91.8157 130.628C93.0687 130.628 94.2818 131.495 94.2818 133.334C94.2818 135.187 93.0421 136.054 91.7757 136.054C90.5094 136.054 89.3763 135.187 89.3763 133.334ZM97.1164 137H98.3294V129.695H97.1164V137ZM97.7429 128.509C98.1828 128.509 98.5427 128.149 98.5427 127.682C98.5427 127.216 98.1828 126.856 97.7429 126.856C97.2763 126.856 96.9164 127.216 96.9164 127.682C96.9164 128.149 97.2763 128.509 97.7429 128.509Z" fill="#5D6B7E"/>
<path d="M13.7328 160H14.9993V152.279H13.7328V155.589H10.0998V152.279H8.83325V160H10.0998V156.623H13.7328V160ZM20.9329 152.267H16.6667V160H20.9329V158.967H17.9332V156.6H20.5996V155.567H17.9332V153.301H20.9329V152.267ZM27.0147 160H28.4368L26.037 156.145L28.4479 152.279H27.0369L25.3926 155.1L23.6372 152.279H22.2152L24.626 156.145L22.2263 160H23.6372L25.2704 157.2L27.0147 160Z" fill="#C2C8CF"/>
<path d="M9.02641 180H10.2394V175.814H13.5186V174.828H10.2394V171.695H14.2784V170.709H9.02641V180ZM15.7435 180H16.9565V175.814H20.2357V174.828H16.9565V171.695H20.9955V170.709H15.7435V180ZM22.0073 175.348C22.0073 178.134 24.0468 180.08 26.6462 180.08C28.659 180.08 30.2586 179.08 30.9518 177.294H29.4988C28.9923 178.4 28.0058 179.027 26.6462 179.027C24.7 179.027 23.247 177.614 23.247 175.348C23.247 173.068 24.7 171.655 26.6462 171.655C28.0058 171.655 28.9923 172.282 29.4988 173.402H30.9518C30.2586 171.602 28.659 170.589 26.6462 170.589C24.0468 170.589 22.0073 172.562 22.0073 175.348ZM32.9974 177.414C33.1307 178.827 34.0638 180.013 35.9833 180.013C38.516 180.013 39.2492 178.214 39.2492 175.001C39.2492 172.015 38.4894 170.176 35.8767 170.176C33.7972 170.176 32.7041 171.509 32.7041 173.348C32.7041 175.388 34.0238 176.494 35.7967 176.494C36.8364 176.494 37.7962 176.028 38.1828 175.215C38.2228 178.04 37.4629 179 36.05 179C34.9302 179 34.2904 178.414 34.1171 177.414H32.9974ZM35.9966 175.468C34.557 175.468 33.8638 174.561 33.8638 173.322C33.8638 172.042 34.6503 171.189 35.9033 171.189C37.2897 171.189 38.0361 172.109 38.0361 173.415C38.0361 174.708 37.1564 175.468 35.9966 175.468ZM47.4456 172.655C47.2856 171.309 46.3525 170.162 44.513 170.162C42.0736 170.162 41.1005 172.029 41.1005 175.055C41.1005 177.974 41.7803 180.027 44.6329 180.027C46.7391 180.027 47.7788 178.587 47.7788 176.827C47.7788 174.801 46.5658 173.615 44.7662 173.615C43.6198 173.615 42.5668 174.148 42.1535 175.095C42.1402 172.229 42.9667 171.176 44.4996 171.176C45.5927 171.176 46.1392 171.722 46.3258 172.655H47.4456ZM44.513 174.641C45.8993 174.641 46.6058 175.508 46.6058 176.867C46.6058 178.174 45.8193 179.014 44.5663 179.014C43.0467 179.014 42.3002 178.014 42.3002 176.734C42.3002 175.295 43.4066 174.641 44.513 174.641ZM55.907 172.655C55.747 171.309 54.8139 170.162 52.9744 170.162C50.535 170.162 49.5619 172.029 49.5619 175.055C49.5619 177.974 50.2417 180.027 53.0943 180.027C55.2005 180.027 56.2402 178.587 56.2402 176.827C56.2402 174.801 55.0272 173.615 53.2276 173.615C52.0813 173.615 51.0282 174.148 50.615 175.095C50.6016 172.229 51.4281 171.176 52.961 171.176C54.0541 171.176 54.6006 171.722 54.7873 172.655H55.907ZM52.9744 174.641C54.3607 174.641 55.0672 175.508 55.0672 176.867C55.0672 178.174 54.2807 179.014 53.0277 179.014C51.5081 179.014 50.7616 178.014 50.7616 176.734C50.7616 175.295 51.868 174.641 52.9744 174.641Z" fill="#5D6B7E"/>
<path d="M0 194H112V214C112 216.209 110.209 218 108 218H4C1.79086 218 0 216.209 0 214V194Z" fill="#EDEFF1"/>
<path d="M16.2992 206.123C16.2992 203.812 14.5549 202.179 12.3551 202.179C10.1776 202.179 8.41107 203.812 8.41107 206.123C8.41107 208.445 10.1776 210.078 12.3551 210.078C14.5549 210.078 16.2992 208.445 16.2992 206.123ZM9.71094 206.123C9.71094 204.378 10.8219 203.29 12.3551 203.29C13.8883 203.29 14.9993 204.378 14.9993 206.123C14.9993 207.867 13.8883 208.978 12.3551 208.978C10.8219 208.978 9.71094 207.867 9.71094 206.123ZM18.812 205.834V203.312H20.2119C21.2007 203.312 21.6451 203.778 21.6451 204.578C21.6451 205.356 21.2007 205.834 20.2119 205.834H18.812ZM22.9449 204.578C22.9449 203.323 22.045 202.279 20.2119 202.279H17.5455V210H18.812V206.867H20.2119C22.2228 206.867 22.9449 205.678 22.9449 204.578ZM23.7529 203.312H25.8194V210H27.0859V203.312H29.1413V202.279H23.7529V203.312ZM30.424 210H31.6905V202.279H30.424V210ZM38.4306 202.267V208.022L34.6199 202.267H33.3534V210H34.6199V204.234L38.4306 210H39.6972V202.267H38.4306ZM41.0937 209.889H46.4932V208.833H42.9713C44.2712 207.645 46.271 206.145 46.271 204.178C46.271 202.723 45.3378 201.734 43.6935 201.734C42.2603 201.734 41.1271 202.59 41.0826 204.345H42.3047C42.3381 203.434 42.8158 202.812 43.7046 202.812C44.6489 202.812 45.0156 203.39 45.0156 204.234C45.0156 205.823 43.0047 207.289 41.0937 208.967V209.889ZM47.6058 205.845C47.6058 208.2 48.228 209.978 50.4944 209.978C52.7609 209.978 53.383 208.2 53.383 205.845C53.383 203.534 52.7609 201.756 50.4944 201.756C48.228 201.756 47.6058 203.534 47.6058 205.845ZM52.1387 205.845C52.1387 207.434 51.9721 208.822 50.4944 208.822C49.0168 208.822 48.8502 207.434 48.8502 205.845C48.8502 204.334 49.0168 202.912 50.4944 202.912C51.9721 202.912 52.1387 204.334 52.1387 205.845ZM54.7232 205.845C54.7232 208.2 55.3454 209.978 57.6118 209.978C59.8782 209.978 60.5004 208.2 60.5004 205.845C60.5004 203.534 59.8782 201.756 57.6118 201.756C55.3454 201.756 54.7232 203.534 54.7232 205.845ZM59.2561 205.845C59.2561 207.434 59.0894 208.822 57.6118 208.822C56.1342 208.822 55.9675 207.434 55.9675 205.845C55.9675 204.334 56.1342 202.912 57.6118 202.912C59.0894 202.912 59.2561 204.334 59.2561 205.845Z" fill="#9AA3AF"/>
</svg>
