<svg width="112" height="218" viewBox="0 0 112 218" fill="none" xmlns="http://www.w3.org/2000/svg">
<rect y="100" width="112" height="94" fill="#F9FAFA"/>
<path d="M0 4C0 1.79086 1.79086 0 4 0H108C110.209 0 112 1.79086 112 4V100H0V4Z" fill="#FFDB99"/>
<path d="M13.9105 109.267V115.022L10.0998 109.267H8.83325V117H10.0998V111.234L13.9105 117H15.1771V109.267H13.9105ZM22.0509 117H23.3841L20.6177 109.267H19.1511L16.3848 117H17.7068L18.2623 115.422H21.4954L22.0509 117ZM21.1398 114.389H18.6179L19.8844 110.801L21.1398 114.389ZM24.5869 117H25.8534V111.712L28.2199 117H29.0975L31.4529 111.712V117H32.7194V109.279H31.364L28.6643 115.333L25.9534 109.279H24.5869V117ZM38.6503 109.267H34.3841V117H38.6503V115.967H35.6506V113.6H38.317V112.567H35.6506V110.301H38.6503V109.267Z" fill="#C2C8CF"/>
<path d="M8.57319 132.348C8.57319 135.134 10.6127 137.08 13.212 137.08C15.2249 137.08 16.8245 136.08 17.5176 134.294H16.0647C15.5581 135.4 14.5717 136.027 13.212 136.027C11.2659 136.027 9.81288 134.614 9.81288 132.348C9.81288 130.068 11.2659 128.655 13.212 128.655C14.5717 128.655 15.5581 129.282 16.0647 130.402H17.5176C16.8245 128.602 15.2249 127.589 13.212 127.589C10.6127 127.589 8.57319 129.562 8.57319 132.348ZM20.5363 133.028C20.5363 131.335 21.4161 130.815 22.5758 130.815H22.8958V129.562C21.736 129.562 20.9496 130.068 20.5363 130.882V129.695H19.3233V137H20.5363V133.028ZM27.4019 130.602C28.6549 130.602 29.7213 131.388 29.708 132.814H25.0958C25.2291 131.388 26.2155 130.602 27.4019 130.602ZM30.8144 134.747H29.5081C29.2415 135.534 28.5483 136.094 27.4552 136.094C26.2155 136.094 25.1758 135.28 25.0825 133.801H30.921C30.9477 133.548 30.961 133.334 30.961 133.068C30.961 131.068 29.5747 129.575 27.4552 129.575C25.3224 129.575 23.8428 131.028 23.8428 133.334C23.8428 135.654 25.3758 137.12 27.4552 137.12C29.2681 137.12 30.4412 136.08 30.8144 134.747ZM32.109 133.321C32.109 135.587 33.6153 137.12 35.5614 137.12C36.9078 137.12 37.8542 136.427 38.2941 135.64V137H39.5205V129.695H38.2941V131.028C37.8675 130.268 36.9344 129.575 35.5748 129.575C33.6153 129.575 32.109 131.041 32.109 133.321ZM38.2941 133.334C38.2941 135.054 37.1477 136.054 35.8147 136.054C34.4817 136.054 33.3487 135.04 33.3487 133.321C33.3487 131.601 34.4817 130.628 35.8147 130.628C37.1477 130.628 38.2941 131.641 38.2941 133.334ZM52.1144 137H53.3141V132.694C53.3141 130.602 52.0211 129.562 50.3548 129.562C49.2351 129.562 48.1954 130.135 47.7688 131.188C47.2889 130.095 46.2892 129.562 45.0895 129.562C44.1297 129.562 43.2633 129.975 42.7834 130.748V129.695H41.5704V137H42.7834V132.974C42.7834 131.401 43.6232 130.615 44.8495 130.615C46.0492 130.615 46.849 131.375 46.849 132.868V137H48.0487V132.974C48.0487 131.401 48.8885 130.615 50.1149 130.615C51.3146 130.615 52.1144 131.375 52.1144 132.868V137ZM64.1364 134.387C64.1364 135.4 63.4166 136 62.2169 136H60.0707V132.721H62.1769C63.3632 132.721 64.1364 133.361 64.1364 134.387ZM63.8964 130.215C63.8964 131.161 63.2433 131.721 62.1102 131.721H60.0707V128.709H62.0836C63.2699 128.709 63.8964 129.295 63.8964 130.215ZM65.3494 134.507C65.3494 133.361 64.523 132.388 63.5099 132.215C64.403 131.921 65.1361 131.241 65.1361 130.068C65.1361 128.775 64.1497 127.709 62.1902 127.709H58.8577V137H62.3235C64.243 137 65.3494 135.907 65.3494 134.507ZM68.2458 133.028C68.2458 131.335 69.1255 130.815 70.2853 130.815H70.6052V129.562C69.4455 129.562 68.659 130.068 68.2458 130.882V129.695H67.0327V137H68.2458V133.028ZM78.4838 129.695H77.2708V133.707C77.2708 135.28 76.431 136.054 75.178 136.054C73.9516 136.054 73.1385 135.294 73.1385 133.814V129.695H71.9388V133.974C71.9388 136.067 73.2585 137.107 74.9381 137.107C75.9111 137.107 76.8043 136.68 77.2708 135.92V137H78.4838V129.695ZM80.532 137H81.745V127.136H80.532V137ZM86.9183 130.602C88.1713 130.602 89.2377 131.388 89.2244 132.814H84.6122C84.7455 131.388 85.7319 130.602 86.9183 130.602ZM90.3308 134.747H89.0244C88.7578 135.534 88.0647 136.094 86.9716 136.094C85.7319 136.094 84.6922 135.28 84.5989 133.801H90.4374C90.4641 133.548 90.4774 133.334 90.4774 133.068C90.4774 131.068 89.0911 129.575 86.9716 129.575C84.8388 129.575 83.3592 131.028 83.3592 133.334C83.3592 135.654 84.8921 137.12 86.9716 137.12C88.7845 137.12 89.9575 136.08 90.3308 134.747ZM95.1844 130.602C96.4375 130.602 97.5039 131.388 97.4905 132.814H92.8784C93.0117 131.388 93.9981 130.602 95.1844 130.602ZM98.5969 134.747H97.2906C97.024 135.534 96.3308 136.094 95.2378 136.094C93.9981 136.094 92.9583 135.28 92.865 133.801H98.7036C98.7302 133.548 98.7436 133.334 98.7436 133.068C98.7436 131.068 97.3572 129.575 95.2378 129.575C93.105 129.575 91.6253 131.028 91.6253 133.334C91.6253 135.654 93.1583 137.12 95.2378 137.12C97.0506 137.12 98.2237 136.08 98.5969 134.747Z" fill="#5D6B7E"/>
<path d="M13.7328 160H14.9993V152.279H13.7328V155.589H10.0998V152.279H8.83325V160H10.0998V156.623H13.7328V160ZM20.9329 152.267H16.6667V160H20.9329V158.967H17.9332V156.6H20.5996V155.567H17.9332V153.301H20.9329V152.267ZM27.0147 160H28.4368L26.037 156.145L28.4479 152.279H27.0369L25.3926 155.1L23.6372 152.279H22.2152L24.626 156.145L22.2263 160H23.6372L25.2704 157.2L27.0147 160Z" fill="#C2C8CF"/>
<path d="M9.02641 180H10.2394V175.814H13.5186V174.828H10.2394V171.695H14.2784V170.709H9.02641V180ZM15.7435 180H16.9565V175.814H20.2357V174.828H16.9565V171.695H20.9955V170.709H15.7435V180ZM25.3532 170.709H22.4606V180H25.3532C28.4057 180 30.2853 178.254 30.2853 175.374C30.2853 172.495 28.4057 170.709 25.3532 170.709ZM23.6736 179V171.695H25.3532C27.7792 171.695 29.0456 173.108 29.0456 175.374C29.0456 177.641 27.7792 179 25.3532 179H23.6736ZM37.164 177.387C37.164 178.4 36.4441 179 35.2444 179H33.0983V175.721H35.2044C36.3908 175.721 37.164 176.361 37.164 177.387ZM36.924 173.215C36.924 174.161 36.2708 174.721 35.1378 174.721H33.0983V171.709H35.1111C36.2975 171.709 36.924 172.295 36.924 173.215ZM38.377 177.507C38.377 176.361 37.5505 175.388 36.5374 175.215C37.4306 174.921 38.1637 174.241 38.1637 173.068C38.1637 171.775 37.1773 170.709 35.2178 170.709H31.8853V180H35.3511C37.2706 180 38.377 178.907 38.377 177.507ZM40.3003 177.414C40.4336 178.827 41.3667 180.013 43.2862 180.013C45.8189 180.013 46.552 178.214 46.552 175.001C46.552 172.015 45.7922 170.176 43.1795 170.176C41.1001 170.176 40.007 171.509 40.007 173.348C40.007 175.388 41.3267 176.494 43.0996 176.494C44.1393 176.494 45.0991 176.028 45.4856 175.215C45.5256 178.04 44.7658 179 43.3528 179C42.2331 179 41.5933 178.414 41.42 177.414H40.3003ZM43.2995 175.468C41.8599 175.468 41.1667 174.561 41.1667 173.322C41.1667 172.042 41.9532 171.189 43.2062 171.189C44.5925 171.189 45.339 172.109 45.339 173.415C45.339 174.708 44.4592 175.468 43.2995 175.468ZM48.6966 177.414C48.8299 178.827 49.763 180.013 51.6825 180.013C54.2152 180.013 54.9484 178.214 54.9484 175.001C54.9484 172.015 54.1886 170.176 51.5759 170.176C49.4964 170.176 48.4033 171.509 48.4033 173.348C48.4033 175.388 49.723 176.494 51.4959 176.494C52.5356 176.494 53.4954 176.028 53.882 175.215C53.922 178.04 53.1621 179 51.7492 179C50.6294 179 49.9896 178.414 49.8163 177.414H48.6966ZM51.6958 175.468C50.2562 175.468 49.563 174.561 49.563 173.322C49.563 172.042 50.3495 171.189 51.6025 171.189C52.9889 171.189 53.7353 172.109 53.7353 173.415C53.7353 174.708 52.8556 175.468 51.6958 175.468Z" fill="#5D6B7E"/>
<path d="M0 194H112V214C112 216.209 110.209 218 108 218H4C1.79086 218 0 216.209 0 214V194Z" fill="#EDEFF1"/>
<path d="M16.2992 206.123C16.2992 203.812 14.5549 202.179 12.3551 202.179C10.1776 202.179 8.41107 203.812 8.41107 206.123C8.41107 208.445 10.1776 210.078 12.3551 210.078C14.5549 210.078 16.2992 208.445 16.2992 206.123ZM9.71094 206.123C9.71094 204.378 10.8219 203.29 12.3551 203.29C13.8883 203.29 14.9993 204.378 14.9993 206.123C14.9993 207.867 13.8883 208.978 12.3551 208.978C10.8219 208.978 9.71094 207.867 9.71094 206.123ZM18.812 205.834V203.312H20.2119C21.2007 203.312 21.6451 203.778 21.6451 204.578C21.6451 205.356 21.2007 205.834 20.2119 205.834H18.812ZM22.9449 204.578C22.9449 203.323 22.045 202.279 20.2119 202.279H17.5455V210H18.812V206.867H20.2119C22.2228 206.867 22.9449 205.678 22.9449 204.578ZM23.7529 203.312H25.8194V210H27.0859V203.312H29.1413V202.279H23.7529V203.312ZM30.424 210H31.6905V202.279H30.424V210ZM38.4306 202.267V208.022L34.6199 202.267H33.3534V210H34.6199V204.234L38.4306 210H39.6972V202.267H38.4306ZM42.0603 210H43.338V201.901H41.0271V203.056H42.0603V210ZM45.0779 205.845C45.0779 208.2 45.7 209.978 47.9665 209.978C50.2329 209.978 50.8551 208.2 50.8551 205.845C50.8551 203.534 50.2329 201.756 47.9665 201.756C45.7 201.756 45.0779 203.534 45.0779 205.845ZM49.6108 205.845C49.6108 207.434 49.4441 208.822 47.9665 208.822C46.4889 208.822 46.3222 207.434 46.3222 205.845C46.3222 204.334 46.4889 202.912 47.9665 202.912C49.4441 202.912 49.6108 204.334 49.6108 205.845ZM52.1952 205.845C52.1952 208.2 52.8174 209.978 55.0838 209.978C57.3503 209.978 57.9724 208.2 57.9724 205.845C57.9724 203.534 57.3503 201.756 55.0838 201.756C52.8174 201.756 52.1952 203.534 52.1952 205.845ZM56.7281 205.845C56.7281 207.434 56.5615 208.822 55.0838 208.822C53.6062 208.822 53.4396 207.434 53.4396 205.845C53.4396 204.334 53.6062 202.912 55.0838 202.912C56.5615 202.912 56.7281 204.334 56.7281 205.845Z" fill="#9AA3AF"/>
</svg>
