<svg width="112" height="218" viewBox="0 0 112 218" fill="none" xmlns="http://www.w3.org/2000/svg">
<rect y="100" width="112" height="94" fill="#F9FAFA"/>
<path d="M0 4C0 1.79086 1.79086 0 4 0H108C110.209 0 112 1.79086 112 4V100H0V4Z" fill="#D97C21"/>
<path d="M13.9105 109.267V115.022L10.0998 109.267H8.83325V117H10.0998V111.234L13.9105 117H15.1771V109.267H13.9105ZM22.0509 117H23.3841L20.6177 109.267H19.1511L16.3848 117H17.7068L18.2623 115.422H21.4954L22.0509 117ZM21.1398 114.389H18.6179L19.8844 110.801L21.1398 114.389ZM24.5869 117H25.8534V111.712L28.2199 117H29.0975L31.4529 111.712V117H32.7194V109.279H31.364L28.6643 115.333L25.9534 109.279H24.5869V117ZM38.6503 109.267H34.3841V117H38.6503V115.967H35.6506V113.6H38.317V112.567H35.6506V110.301H38.6503V109.267Z" fill="#C2C8CF"/>
<path d="M8.57319 132.348C8.57319 135.134 10.6127 137.08 13.212 137.08C15.2249 137.08 16.8245 136.08 17.5176 134.294H16.0647C15.5581 135.4 14.5717 136.027 13.212 136.027C11.2659 136.027 9.81288 134.614 9.81288 132.348C9.81288 130.068 11.2659 128.655 13.212 128.655C14.5717 128.655 15.5581 129.282 16.0647 130.402H17.5176C16.8245 128.602 15.2249 127.589 13.212 127.589C10.6127 127.589 8.57319 129.562 8.57319 132.348ZM19.3233 137H20.5363V132.961C20.5363 131.388 21.3895 130.615 22.6292 130.615C23.8555 130.615 24.6686 131.375 24.6686 132.868V137H25.8683V132.694C25.8683 130.602 24.5753 129.562 22.9491 129.562C21.9227 129.562 21.0162 129.975 20.5363 130.748V127.136H19.3233V137ZM30.9557 130.602C32.2087 130.602 33.2751 131.388 33.2618 132.814H28.6496C28.7829 131.388 29.7693 130.602 30.9557 130.602ZM34.3682 134.747H33.0619C32.7953 135.534 32.1021 136.094 31.009 136.094C29.7693 136.094 28.7296 135.28 28.6363 133.801H34.4748C34.5015 133.548 34.5148 133.334 34.5148 133.068C34.5148 131.068 33.1285 129.575 31.009 129.575C28.8762 129.575 27.3966 131.028 27.3966 133.334C27.3966 135.654 28.9296 137.12 31.009 137.12C32.8219 137.12 33.995 136.08 34.3682 134.747ZM36.116 137H37.329V127.136H36.116V137ZM44.6484 135.014C44.5951 132.401 40.3562 133.348 40.3562 131.615C40.3562 131.028 40.8894 130.602 41.7825 130.602C42.7556 130.602 43.3154 131.135 43.3688 131.868H44.5818C44.5018 130.442 43.4354 129.575 41.8225 129.575C40.1962 129.575 39.1432 130.495 39.1432 131.615C39.1432 134.334 43.4621 133.388 43.4621 135.014C43.4621 135.614 42.9289 136.094 41.9691 136.094C40.9427 136.094 40.3162 135.56 40.2495 134.854H38.9965C39.0765 136.187 40.2762 137.12 41.9824 137.12C43.5954 137.12 44.6484 136.214 44.6484 135.014ZM49.4667 130.602C50.7197 130.602 51.7861 131.388 51.7728 132.814H47.1606C47.2939 131.388 48.2803 130.602 49.4667 130.602ZM52.8792 134.747H51.5729C51.3063 135.534 50.6131 136.094 49.52 136.094C48.2803 136.094 47.2406 135.28 47.1473 133.801H52.9858C53.0125 133.548 53.0258 133.334 53.0258 133.068C53.0258 131.068 51.6395 129.575 49.52 129.575C47.3872 129.575 45.9076 131.028 45.9076 133.334C45.9076 135.654 47.4406 137.12 49.52 137.12C51.3329 137.12 52.506 136.08 52.8792 134.747ZM54.1738 133.321C54.1738 135.587 55.6801 137.12 57.6262 137.12C58.9726 137.12 59.919 136.427 60.3589 135.64V137H61.5852V129.695H60.3589V131.028C59.9323 130.268 58.9992 129.575 57.6396 129.575C55.6801 129.575 54.1738 131.041 54.1738 133.321ZM60.3589 133.334C60.3589 135.054 59.2125 136.054 57.8795 136.054C56.5465 136.054 55.4135 135.04 55.4135 133.321C55.4135 131.601 56.5465 130.628 57.8795 130.628C59.2125 130.628 60.3589 131.641 60.3589 133.334ZM71.4012 127.602C68.7886 127.602 66.7357 129.562 66.7357 132.348C66.7357 135.134 68.7886 137.08 71.4012 137.08C73.9206 137.08 75.7468 135.227 75.9601 132.921V131.988H70.9613V132.974H74.6671C74.4805 134.814 73.2274 135.987 71.4012 135.987C69.4417 135.987 67.9754 134.574 67.9754 132.348C67.9754 130.108 69.4417 128.695 71.4012 128.695C72.7076 128.695 73.7207 129.322 74.2272 130.402H75.6802C74.987 128.615 73.3607 127.602 71.4012 127.602ZM80.6699 130.602C81.9229 130.602 82.9893 131.388 82.9759 132.814H78.3638C78.4971 131.388 79.4835 130.602 80.6699 130.602ZM84.0823 134.747H82.776C82.5094 135.534 81.8162 136.094 80.7232 136.094C79.4835 136.094 78.4437 135.28 78.3504 133.801H84.189C84.2156 133.548 84.229 133.334 84.229 133.068C84.229 131.068 82.8426 129.575 80.7232 129.575C78.5904 129.575 77.1107 131.028 77.1107 133.334C77.1107 135.654 78.6437 137.12 80.7232 137.12C82.5361 137.12 83.7091 136.08 84.0823 134.747ZM96.3742 137H97.5739V132.694C97.5739 130.602 96.2808 129.562 94.6146 129.562C93.4949 129.562 92.4551 130.135 92.0286 131.188C91.5487 130.095 90.5489 129.562 89.3492 129.562C88.3895 129.562 87.523 129.975 87.0432 130.748V129.695H85.8301V137H87.0432V132.974C87.0432 131.401 87.8829 130.615 89.1093 130.615C90.309 130.615 91.1088 131.375 91.1088 132.868V137H92.3085V132.974C92.3085 131.401 93.1483 130.615 94.3747 130.615C95.5744 130.615 96.3742 131.375 96.3742 132.868V137Z" fill="#5D6B7E"/>
<path d="M13.7328 160H14.9993V152.279H13.7328V155.589H10.0998V152.279H8.83325V160H10.0998V156.623H13.7328V160ZM20.9329 152.267H16.6667V160H20.9329V158.967H17.9332V156.6H20.5996V155.567H17.9332V153.301H20.9329V152.267ZM27.0147 160H28.4368L26.037 156.145L28.4479 152.279H27.0369L25.3926 155.1L23.6372 152.279H22.2152L24.626 156.145L22.2263 160H23.6372L25.2704 157.2L27.0147 160Z" fill="#C2C8CF"/>
<path d="M11.919 170.709H9.02641V180H11.919C14.9716 180 16.8511 178.254 16.8511 175.374C16.8511 172.495 14.9716 170.709 11.919 170.709ZM10.2394 179V171.695H11.919C14.3451 171.695 15.6114 173.108 15.6114 175.374C15.6114 177.641 14.3451 179 11.919 179H10.2394ZM18.6911 177.414C18.8244 178.827 19.7575 180.013 21.677 180.013C24.2097 180.013 24.9428 178.214 24.9428 175.001C24.9428 172.015 24.183 170.176 21.5704 170.176C19.4909 170.176 18.3978 171.509 18.3978 173.348C18.3978 175.388 19.7175 176.494 21.4904 176.494C22.5301 176.494 23.4899 176.028 23.8764 175.215C23.9164 178.04 23.1566 179 21.7436 179C20.6239 179 19.9841 178.414 19.8108 177.414H18.6911ZM21.6903 175.468C20.2507 175.468 19.5575 174.561 19.5575 173.322C19.5575 172.042 20.344 171.189 21.597 171.189C22.9833 171.189 23.7298 172.109 23.7298 173.415C23.7298 174.708 22.85 175.468 21.6903 175.468ZM26.261 170.389V171.429H31.4063L27.6473 180H28.8736L32.5794 171.309V170.389H26.261ZM33.6711 175.348C33.6711 178.134 35.7106 180.08 38.3099 180.08C40.3227 180.08 41.9223 179.08 42.6155 177.294H41.1625C40.656 178.4 39.6696 179.027 38.3099 179.027C36.3637 179.027 34.9108 177.614 34.9108 175.348C34.9108 173.068 36.3637 171.655 38.3099 171.655C39.6696 171.655 40.656 172.282 41.1625 173.402H42.6155C41.9223 171.602 40.3227 170.589 38.3099 170.589C35.7106 170.589 33.6711 172.562 33.6711 175.348ZM44.0746 179.893H50.4864V178.88H45.9008C47.6204 177.481 50.2064 175.441 50.2064 173.042C50.2064 171.256 49.0334 170.189 47.2205 170.189C45.4876 170.189 44.1946 171.256 44.1146 173.308H45.2877C45.341 172.095 45.9808 171.229 47.2338 171.229C48.5402 171.229 49.0067 172.029 49.0067 173.095C49.0067 175.068 46.6073 176.987 44.0746 179.027V179.893ZM52.8484 180H54.0747V170.362H51.5687V171.469H52.8484V180Z" fill="#5D6B7E"/>
<path d="M0 194H112V214C112 216.209 110.209 218 108 218H4C1.79086 218 0 216.209 0 214V194Z" fill="#EDEFF1"/>
<path d="M16.2992 206.123C16.2992 203.812 14.5549 202.179 12.3551 202.179C10.1776 202.179 8.41107 203.812 8.41107 206.123C8.41107 208.445 10.1776 210.078 12.3551 210.078C14.5549 210.078 16.2992 208.445 16.2992 206.123ZM9.71094 206.123C9.71094 204.378 10.8219 203.29 12.3551 203.29C13.8883 203.29 14.9993 204.378 14.9993 206.123C14.9993 207.867 13.8883 208.978 12.3551 208.978C10.8219 208.978 9.71094 207.867 9.71094 206.123ZM18.812 205.834V203.312H20.2119C21.2007 203.312 21.6451 203.778 21.6451 204.578C21.6451 205.356 21.2007 205.834 20.2119 205.834H18.812ZM22.9449 204.578C22.9449 203.323 22.045 202.279 20.2119 202.279H17.5455V210H18.812V206.867H20.2119C22.2228 206.867 22.9449 205.678 22.9449 204.578ZM23.7529 203.312H25.8194V210H27.0859V203.312H29.1413V202.279H23.7529V203.312ZM30.424 210H31.6905V202.279H30.424V210ZM38.4306 202.267V208.022L34.6199 202.267H33.3534V210H34.6199V204.234L38.4306 210H39.6972V202.267H38.4306ZM46.7154 203.778C46.5821 202.701 45.7933 201.701 44.2156 201.701C42.1936 201.701 41.3493 203.234 41.3493 205.767C41.3493 208.345 41.9603 210 44.3156 210C46.0488 210 46.9709 208.833 46.9709 207.3C46.9709 205.612 45.9377 204.634 44.4823 204.634C43.6379 204.634 42.838 204.989 42.438 205.656C42.4714 203.534 43.0602 202.756 44.2045 202.756C45.0045 202.756 45.3933 203.123 45.5488 203.778H46.7154ZM44.2045 205.7C45.2711 205.7 45.7599 206.389 45.7599 207.356C45.7599 208.311 45.1822 208.945 44.249 208.945C43.1713 208.945 42.5825 208.278 42.5825 207.278C42.5825 206.2 43.3713 205.7 44.2045 205.7ZM48.3219 205.845C48.3219 208.2 48.9441 209.978 51.2105 209.978C53.477 209.978 54.0991 208.2 54.0991 205.845C54.0991 203.534 53.477 201.756 51.2105 201.756C48.9441 201.756 48.3219 203.534 48.3219 205.845ZM52.8548 205.845C52.8548 207.434 52.6881 208.822 51.2105 208.822C49.7329 208.822 49.5662 207.434 49.5662 205.845C49.5662 204.334 49.7329 202.912 51.2105 202.912C52.6881 202.912 52.8548 204.334 52.8548 205.845ZM55.4393 205.845C55.4393 208.2 56.0614 209.978 58.3279 209.978C60.5943 209.978 61.2165 208.2 61.2165 205.845C61.2165 203.534 60.5943 201.756 58.3279 201.756C56.0614 201.756 55.4393 203.534 55.4393 205.845ZM59.9721 205.845C59.9721 207.434 59.8055 208.822 58.3279 208.822C56.8502 208.822 56.6836 207.434 56.6836 205.845C56.6836 204.334 56.8502 202.912 58.3279 202.912C59.8055 202.912 59.9721 204.334 59.9721 205.845Z" fill="#9AA3AF"/>
</svg>
