<svg width="112" height="218" viewBox="0 0 112 218" fill="none" xmlns="http://www.w3.org/2000/svg">
<rect y="100" width="112" height="94" fill="#F9FAFA"/>
<path d="M0 4C0 1.79086 1.79086 0 4 0H108C110.209 0 112 1.79086 112 4V100H0V4Z" fill="#FFA500"/>
<path d="M13.9105 109.267V115.022L10.0998 109.267H8.83325V117H10.0998V111.234L13.9105 117H15.1771V109.267H13.9105ZM22.0509 117H23.3841L20.6177 109.267H19.1511L16.3848 117H17.7068L18.2623 115.422H21.4954L22.0509 117ZM21.1398 114.389H18.6179L19.8844 110.801L21.1398 114.389ZM24.5869 117H25.8534V111.712L28.2199 117H29.0975L31.4529 111.712V117H32.7194V109.279H31.364L28.6643 115.333L25.9534 109.279H24.5869V117ZM38.6503 109.267H34.3841V117H38.6503V115.967H35.6506V113.6H38.317V112.567H35.6506V110.301H38.6503V109.267Z" fill="#C2C8CF"/>
<path d="M15.0649 134.467C15.0649 131.028 10.0528 132.521 10.0528 130.122C10.0528 129.122 10.8393 128.602 11.839 128.629C12.9721 128.642 13.5586 129.349 13.6386 129.975H14.9716C14.825 128.562 13.6653 127.589 11.8924 127.589C10.0528 127.589 8.81313 128.629 8.81313 130.162C8.81313 133.614 13.8385 132.015 13.8385 134.521C13.8385 135.4 13.1454 136.067 11.9723 136.067C10.6793 136.067 10.1328 135.294 10.0528 134.521H8.75981C8.78647 136.054 10.1061 137.093 11.9723 137.093C13.9852 137.093 15.0649 135.787 15.0649 134.467ZM16.3968 133.321C16.3968 135.587 17.903 137.12 19.8492 137.12C21.1956 137.12 22.142 136.427 22.5819 135.64V137H23.8082V129.695H22.5819V131.028C22.1553 130.268 21.2222 129.575 19.8626 129.575C17.903 129.575 16.3968 131.041 16.3968 133.321ZM22.5819 133.334C22.5819 135.054 21.4355 136.054 20.1025 136.054C18.7695 136.054 17.6364 135.04 17.6364 133.321C17.6364 131.601 18.7695 130.628 20.1025 130.628C21.4355 130.628 22.5819 131.641 22.5819 133.334ZM26.0847 137H27.2978V130.695H28.8307V129.695H27.2978V129.175C27.2978 128.229 27.6577 127.829 28.7507 127.829V126.816C26.8846 126.816 26.0847 127.549 26.0847 129.175V129.695H25.1383V130.695H26.0847V137ZM30.4717 137H31.6847V130.695H33.2177V129.695H31.6847V129.175C31.6847 128.229 32.0446 127.829 33.1377 127.829V126.816C31.2715 126.816 30.4717 127.549 30.4717 129.175V129.695H29.5252V130.695H30.4717V137ZM35.845 133.028C35.845 131.335 36.7248 130.815 37.8845 130.815H38.2044V129.562C37.0447 129.562 36.2582 130.068 35.845 130.882V129.695H34.632V137H35.845V133.028ZM46.5363 133.334C46.5363 131.028 44.9234 129.575 42.8439 129.575C40.7777 129.575 39.1515 131.028 39.1515 133.334C39.1515 135.654 40.7244 137.12 42.7906 137.12C44.8701 137.12 46.5363 135.654 46.5363 133.334ZM40.3912 133.334C40.3912 131.495 41.5509 130.628 42.8306 130.628C44.0836 130.628 45.2966 131.495 45.2966 133.334C45.2966 135.187 44.0569 136.054 42.7906 136.054C41.5242 136.054 40.3912 135.187 40.3912 133.334ZM53.4765 137H54.6762V132.694C54.6762 130.602 53.3832 129.562 51.6903 129.562C50.7039 129.562 49.8241 129.975 49.3442 130.735V129.695H48.1312V137H49.3442V132.961C49.3442 131.388 50.1974 130.615 51.4371 130.615C52.6634 130.615 53.4765 131.375 53.4765 132.868V137Z" fill="#5D6B7E"/>
<path d="M13.7328 160H14.9993V152.279H13.7328V155.589H10.0998V152.279H8.83325V160H10.0998V156.623H13.7328V160ZM20.9329 152.267H16.6667V160H20.9329V158.967H17.9332V156.6H20.5996V155.567H17.9332V153.301H20.9329V152.267ZM27.0147 160H28.4368L26.037 156.145L28.4479 152.279H27.0369L25.3926 155.1L23.6372 152.279H22.2152L24.626 156.145L22.2263 160H23.6372L25.2704 157.2L27.0147 160Z" fill="#C2C8CF"/>
<path d="M9.02641 180H10.2394V175.814H13.5186V174.828H10.2394V171.695H14.2784V170.709H9.02641V180ZM15.7435 180H16.9565V175.814H20.2357V174.828H16.9565V171.695H20.9955V170.709H15.7435V180ZM28.699 180H29.9787L26.6328 170.762H25.2332L21.874 180H23.1537L23.9002 177.934H27.9525L28.699 180ZM27.6059 176.947H24.2468L25.9264 172.255L27.6059 176.947ZM31.5893 170.349V175.788H32.7357C33.0556 175.028 33.7621 174.521 34.7352 174.521C36.1348 174.521 36.8413 175.321 36.8413 176.694C36.8413 178.014 36.1882 179 34.7219 179C33.5888 179 32.8023 178.4 32.5757 177.387H31.3894C31.6293 178.947 32.789 180.027 34.7085 180.027C36.9613 180.027 38.001 178.534 38.001 176.668C38.001 175.175 37.2546 173.482 34.9085 173.482C33.962 173.482 33.1089 173.908 32.709 174.455V171.415H37.3879V170.349H31.5893ZM39.613 175.081C39.613 177.881 40.3062 180 42.9722 180C45.6249 180 46.318 177.881 46.318 175.081C46.318 172.322 45.6249 170.216 42.9722 170.216C40.3062 170.216 39.613 172.322 39.613 175.081ZM45.1183 175.081C45.1183 177.161 44.8651 178.894 42.9722 178.894C41.066 178.894 40.8127 177.161 40.8127 175.081C40.8127 173.082 41.066 171.322 42.9722 171.322C44.8651 171.322 45.1183 173.082 45.1183 175.081ZM47.9833 175.081C47.9833 177.881 48.6765 180 51.3425 180C53.9952 180 54.6883 177.881 54.6883 175.081C54.6883 172.322 53.9952 170.216 51.3425 170.216C48.6765 170.216 47.9833 172.322 47.9833 175.081ZM53.4886 175.081C53.4886 177.161 53.2354 178.894 51.3425 178.894C49.4363 178.894 49.183 177.161 49.183 175.081C49.183 173.082 49.4363 171.322 51.3425 171.322C53.2354 171.322 53.4886 173.082 53.4886 175.081Z" fill="#5D6B7E"/>
<path d="M0 194H112V214C112 216.209 110.209 218 108 218H4C1.79086 218 0 216.209 0 214V194Z" fill="#EDEFF1"/>
<path d="M16.2992 206.123C16.2992 203.812 14.5549 202.179 12.3551 202.179C10.1776 202.179 8.41107 203.812 8.41107 206.123C8.41107 208.445 10.1776 210.078 12.3551 210.078C14.5549 210.078 16.2992 208.445 16.2992 206.123ZM9.71094 206.123C9.71094 204.378 10.8219 203.29 12.3551 203.29C13.8883 203.29 14.9993 204.378 14.9993 206.123C14.9993 207.867 13.8883 208.978 12.3551 208.978C10.8219 208.978 9.71094 207.867 9.71094 206.123ZM18.812 205.834V203.312H20.2119C21.2007 203.312 21.6451 203.778 21.6451 204.578C21.6451 205.356 21.2007 205.834 20.2119 205.834H18.812ZM22.9449 204.578C22.9449 203.323 22.045 202.279 20.2119 202.279H17.5455V210H18.812V206.867H20.2119C22.2228 206.867 22.9449 205.678 22.9449 204.578ZM23.7529 203.312H25.8194V210H27.0859V203.312H29.1413V202.279H23.7529V203.312ZM30.424 210H31.6905V202.279H30.424V210ZM38.4306 202.267V208.022L34.6199 202.267H33.3534V210H34.6199V204.234L38.4306 210H39.6972V202.267H38.4306ZM45.06 210H46.3043V208.311H47.3376V207.211H46.3043V202.001H44.7711L41.0382 207.356V208.311H45.06V210ZM42.4936 207.211L45.1156 203.29V207.211H42.4936ZM48.387 205.845C48.387 208.2 49.0092 209.978 51.2756 209.978C53.5421 209.978 54.1642 208.2 54.1642 205.845C54.1642 203.534 53.5421 201.756 51.2756 201.756C49.0092 201.756 48.387 203.534 48.387 205.845ZM52.9199 205.845C52.9199 207.434 52.7532 208.822 51.2756 208.822C49.798 208.822 49.6313 207.434 49.6313 205.845C49.6313 204.334 49.798 202.912 51.2756 202.912C52.7532 202.912 52.9199 204.334 52.9199 205.845ZM55.5044 205.845C55.5044 208.2 56.1265 209.978 58.393 209.978C60.6594 209.978 61.2816 208.2 61.2816 205.845C61.2816 203.534 60.6594 201.756 58.393 201.756C56.1265 201.756 55.5044 203.534 55.5044 205.845ZM60.0372 205.845C60.0372 207.434 59.8706 208.822 58.393 208.822C56.9153 208.822 56.7487 207.434 56.7487 205.845C56.7487 204.334 56.9153 202.912 58.393 202.912C59.8706 202.912 60.0372 204.334 60.0372 205.845Z" fill="#9AA3AF"/>
</svg>
