<svg width="176" height="218" viewBox="0 0 176 218" fill="none" xmlns="http://www.w3.org/2000/svg">
<rect y="100" width="176" height="94" fill="#F9FAFA"/>
<path d="M0 194H176V214C176 216.209 174.209 218 172 218H4C1.79086 218 0 216.209 0 214V194Z" fill="#EDEFF1"/>
<path d="M0 4C0 1.79086 1.79086 0 4 0H172C174.209 0 176 1.79086 176 4V100H0V4Z" fill="#FFA500"/>
<path d="M13.9105 109.267V115.022L10.0998 109.267H8.83325V117H10.0998V111.234L13.9105 117H15.1771V109.267H13.9105ZM22.0509 117H23.3841L20.6177 109.267H19.1511L16.3848 117H17.7068L18.2623 115.422H21.4954L22.0509 117ZM21.1398 114.389H18.6179L19.8844 110.801L21.1398 114.389ZM24.5869 117H25.8534V111.712L28.2199 117H29.0975L31.4529 111.712V117H32.7194V109.279H31.364L28.6643 115.333L25.9534 109.279H24.5869V117ZM38.6503 109.267H34.3841V117H38.6503V115.967H35.6506V113.6H38.317V112.567H35.6506V110.301H38.6503V109.267Z" fill="#C2C8CF"/>
<path d="M15.0649 134.467C15.0649 131.028 10.0528 132.521 10.0528 130.122C10.0528 129.122 10.8393 128.602 11.839 128.629C12.9721 128.642 13.5586 129.349 13.6386 129.975H14.9716C14.825 128.562 13.6653 127.589 11.8924 127.589C10.0528 127.589 8.81313 128.629 8.81313 130.162C8.81313 133.614 13.8385 132.015 13.8385 134.521C13.8385 135.4 13.1454 136.067 11.9723 136.067C10.6793 136.067 10.1328 135.294 10.0528 134.521H8.75981C8.78647 136.054 10.1061 137.093 11.9723 137.093C13.9852 137.093 15.0649 135.787 15.0649 134.467ZM16.3968 133.321C16.3968 135.587 17.903 137.12 19.8492 137.12C21.1956 137.12 22.142 136.427 22.5819 135.64V137H23.8082V129.695H22.5819V131.028C22.1553 130.268 21.2222 129.575 19.8626 129.575C17.903 129.575 16.3968 131.041 16.3968 133.321ZM22.5819 133.334C22.5819 135.054 21.4355 136.054 20.1025 136.054C18.7695 136.054 17.6364 135.04 17.6364 133.321C17.6364 131.601 18.7695 130.628 20.1025 130.628C21.4355 130.628 22.5819 131.641 22.5819 133.334ZM26.0847 137H27.2978V130.695H28.8307V129.695H27.2978V129.175C27.2978 128.229 27.6577 127.829 28.7507 127.829V126.816C26.8846 126.816 26.0847 127.549 26.0847 129.175V129.695H25.1383V130.695H26.0847V137ZM30.4717 137H31.6847V130.695H33.2177V129.695H31.6847V129.175C31.6847 128.229 32.0446 127.829 33.1377 127.829V126.816C31.2715 126.816 30.4717 127.549 30.4717 129.175V129.695H29.5252V130.695H30.4717V137ZM35.845 133.028C35.845 131.335 36.7248 130.815 37.8845 130.815H38.2044V129.562C37.0447 129.562 36.2582 130.068 35.845 130.882V129.695H34.632V137H35.845V133.028ZM46.5363 133.334C46.5363 131.028 44.9234 129.575 42.8439 129.575C40.7777 129.575 39.1515 131.028 39.1515 133.334C39.1515 135.654 40.7244 137.12 42.7906 137.12C44.8701 137.12 46.5363 135.654 46.5363 133.334ZM40.3912 133.334C40.3912 131.495 41.5509 130.628 42.8306 130.628C44.0836 130.628 45.2966 131.495 45.2966 133.334C45.2966 135.187 44.0569 136.054 42.7906 136.054C41.5242 136.054 40.3912 135.187 40.3912 133.334ZM53.4765 137H54.6762V132.694C54.6762 130.602 53.3832 129.562 51.6903 129.562C50.7039 129.562 49.8241 129.975 49.3442 130.735V129.695H48.1312V137H49.3442V132.961C49.3442 131.388 50.1974 130.615 51.4371 130.615C52.6634 130.615 53.4765 131.375 53.4765 132.868V137Z" fill="#5D6B7E"/>
<path d="M16.2992 206.123C16.2992 203.812 14.5549 202.179 12.3551 202.179C10.1776 202.179 8.41107 203.812 8.41107 206.123C8.41107 208.445 10.1776 210.078 12.3551 210.078C14.5549 210.078 16.2992 208.445 16.2992 206.123ZM9.71094 206.123C9.71094 204.378 10.8219 203.29 12.3551 203.29C13.8883 203.29 14.9993 204.378 14.9993 206.123C14.9993 207.867 13.8883 208.978 12.3551 208.978C10.8219 208.978 9.71094 207.867 9.71094 206.123ZM18.812 205.834V203.312H20.2119C21.2007 203.312 21.6451 203.778 21.6451 204.578C21.6451 205.356 21.2007 205.834 20.2119 205.834H18.812ZM22.9449 204.578C22.9449 203.323 22.045 202.279 20.2119 202.279H17.5455V210H18.812V206.867H20.2119C22.2228 206.867 22.9449 205.678 22.9449 204.578ZM23.7529 203.312H25.8194V210H27.0859V203.312H29.1413V202.279H23.7529V203.312ZM30.424 210H31.6905V202.279H30.424V210ZM38.4306 202.267V208.022L34.6199 202.267H33.3534V210H34.6199V204.234L38.4306 210H39.6972V202.267H38.4306ZM45.06 210H46.3043V208.311H47.3376V207.211H46.3043V202.001H44.7711L41.0382 207.356V208.311H45.06V210ZM42.4936 207.211L45.1156 203.29V207.211H42.4936ZM48.387 205.845C48.387 208.2 49.0092 209.978 51.2756 209.978C53.5421 209.978 54.1642 208.2 54.1642 205.845C54.1642 203.534 53.5421 201.756 51.2756 201.756C49.0092 201.756 48.387 203.534 48.387 205.845ZM52.9199 205.845C52.9199 207.434 52.7532 208.822 51.2756 208.822C49.798 208.822 49.6313 207.434 49.6313 205.845C49.6313 204.334 49.798 202.912 51.2756 202.912C52.7532 202.912 52.9199 204.334 52.9199 205.845ZM55.5044 205.845C55.5044 208.2 56.1265 209.978 58.393 209.978C60.6594 209.978 61.2816 208.2 61.2816 205.845C61.2816 203.534 60.6594 201.756 58.393 201.756C56.1265 201.756 55.5044 203.534 55.5044 205.845ZM60.0372 205.845C60.0372 207.434 59.8706 208.822 58.393 208.822C56.9153 208.822 56.7487 207.434 56.7487 205.845C56.7487 204.334 56.9153 202.912 58.393 202.912C59.8706 202.912 60.0372 204.334 60.0372 205.845Z" fill="#9AA3AF"/>
<path d="M117.733 160H118.999V152.279H117.733V155.589H114.1V152.279H112.833V160H114.1V156.623H117.733V160ZM124.933 152.267H120.667V160H124.933V158.967H121.933V156.6H124.6V155.567H121.933V153.301H124.933V152.267ZM131.015 160H132.437L130.037 156.145L132.448 152.279H131.037L129.393 155.1L127.637 152.279H126.215L128.626 156.145L126.226 160H127.637L129.27 157.2L131.015 160Z" fill="#C2C8CF"/>
<path d="M113.026 180H114.239V175.814H117.519V174.828H114.239V171.695H118.278V170.709H113.026V180ZM119.743 180H120.957V175.814H124.236V174.828H120.957V171.695H124.996V170.709H119.743V180ZM132.699 180H133.979L130.633 170.762H129.233L125.874 180H127.154L127.9 177.934H131.953L132.699 180ZM131.606 176.947H128.247L129.926 172.255L131.606 176.947ZM135.589 170.349V175.788H136.736C137.056 175.028 137.762 174.521 138.735 174.521C140.135 174.521 140.841 175.321 140.841 176.694C140.841 178.014 140.188 179 138.722 179C137.589 179 136.802 178.4 136.576 177.387H135.389C135.629 178.947 136.789 180.027 138.709 180.027C140.961 180.027 142.001 178.534 142.001 176.668C142.001 175.175 141.255 173.482 138.908 173.482C137.962 173.482 137.109 173.908 136.709 174.455V171.415H141.388V170.349H135.589ZM143.613 175.081C143.613 177.881 144.306 180 146.972 180C149.625 180 150.318 177.881 150.318 175.081C150.318 172.322 149.625 170.216 146.972 170.216C144.306 170.216 143.613 172.322 143.613 175.081ZM149.118 175.081C149.118 177.161 148.865 178.894 146.972 178.894C145.066 178.894 144.813 177.161 144.813 175.081C144.813 173.082 145.066 171.322 146.972 171.322C148.865 171.322 149.118 173.082 149.118 175.081ZM151.983 175.081C151.983 177.881 152.676 180 155.342 180C157.995 180 158.688 177.881 158.688 175.081C158.688 172.322 157.995 170.216 155.342 170.216C152.676 170.216 151.983 172.322 151.983 175.081ZM157.489 175.081C157.489 177.161 157.235 178.894 155.342 178.894C153.436 178.894 153.183 177.161 153.183 175.081C153.183 173.082 153.436 171.322 155.342 171.322C157.235 171.322 157.489 173.082 157.489 175.081Z" fill="#5D6B7E"/>
<path d="M12.9328 154.589C12.9328 155.356 12.4884 155.9 11.4997 155.9H10.0998V153.312H11.4997C12.4884 153.312 12.9328 153.812 12.9328 154.589ZM8.83325 152.279V160H10.0998V156.911H11.0664L12.844 160H14.3549L12.444 156.8C13.7439 156.478 14.2327 155.5 14.2327 154.589C14.2327 153.334 13.3328 152.279 11.4997 152.279H8.83325ZM19.3748 152.179C17.1973 152.179 15.4308 153.812 15.4308 156.123C15.4308 158.445 17.1973 160.067 19.3748 160.067C21.4524 160.067 22.9633 158.545 23.1967 156.756V155.767H18.9415V156.778H21.8412C21.6524 158.078 20.7747 158.922 19.3748 158.922C17.8416 158.922 16.7306 157.822 16.7306 156.123C16.7306 154.423 17.8416 153.334 19.3748 153.334C20.2969 153.334 21.0302 153.723 21.4413 154.501H22.9633C22.3745 152.99 20.9858 152.179 19.3748 152.179ZM28.801 157.789C28.801 158.533 28.2788 158.967 27.4233 158.967H25.7124V156.556H27.3789C28.2232 156.556 28.801 157.023 28.801 157.789ZM28.601 154.423C28.601 155.134 28.101 155.523 27.2789 155.523H25.7124V153.312H27.2789C28.101 153.312 28.601 153.723 28.601 154.423ZM30.0675 157.922C30.0675 157 29.4009 156.178 28.5788 156.034C29.3231 155.767 29.8897 155.2 29.8897 154.267C29.8897 153.178 29.0232 152.279 27.39 152.279H24.4458V160H27.5344C29.112 160 30.0675 159.1 30.0675 157.922Z" fill="#C2C8CF"/>
<path d="M8.67983 179.893H15.0916V178.88H10.506C12.2256 177.481 14.8116 175.441 14.8116 173.042C14.8116 171.256 13.6386 170.189 11.8257 170.189C10.0928 170.189 8.7998 171.256 8.71982 173.308H9.89286C9.94618 172.095 10.586 171.229 11.839 171.229C13.1454 171.229 13.6119 172.029 13.6119 173.095C13.6119 175.068 11.2125 176.987 8.67983 179.027V179.893ZM16.8404 170.349V175.788H17.9868C18.3067 175.028 19.0132 174.521 19.9863 174.521C21.3859 174.521 22.0924 175.321 22.0924 176.694C22.0924 178.014 21.4392 179 19.9729 179C18.8399 179 18.0534 178.4 17.8268 177.387H16.6404C16.8804 178.947 18.0401 180.027 19.9596 180.027C22.2124 180.027 23.2521 178.534 23.2521 176.668C23.2521 175.175 22.5056 173.482 20.1596 173.482C19.2131 173.482 18.36 173.908 17.9601 174.455V171.415H22.6389V170.349H16.8404ZM25.2107 170.349V175.788H26.3571C26.677 175.028 27.3835 174.521 28.3566 174.521C29.7562 174.521 30.4627 175.321 30.4627 176.694C30.4627 178.014 29.8095 179 28.3432 179C27.2102 179 26.4237 178.4 26.1971 177.387H25.0107C25.2507 178.947 26.4104 180.027 28.3299 180.027C30.5827 180.027 31.6224 178.534 31.6224 176.668C31.6224 175.175 30.8759 173.482 28.5299 173.482C27.5834 173.482 26.7303 173.908 26.3304 174.455V171.415H31.0092V170.349H25.2107ZM32.3813 181.906H33.1944L34.6874 178.32H33.3544L32.3813 181.906ZM40.3905 180H41.6169V170.362H39.1109V171.469H40.3905V180ZM50.1923 172.655C50.0323 171.309 49.0992 170.162 47.2597 170.162C44.8203 170.162 43.8472 172.029 43.8472 175.055C43.8472 177.974 44.527 180.027 47.3796 180.027C49.4858 180.027 50.5255 178.587 50.5255 176.827C50.5255 174.801 49.3125 173.615 47.5129 173.615C46.3666 173.615 45.3135 174.148 44.9003 175.095C44.8869 172.229 45.7134 171.176 47.2463 171.176C48.3394 171.176 48.8859 171.722 49.0725 172.655H50.1923ZM47.2597 174.641C48.646 174.641 49.3525 175.508 49.3525 176.867C49.3525 178.174 48.566 179.014 47.313 179.014C45.7934 179.014 45.0469 178.014 45.0469 176.734C45.0469 175.295 46.1533 174.641 47.2597 174.641ZM52.5086 170.349V175.788H53.6549C53.9749 175.028 54.6813 174.521 55.6544 174.521C57.0541 174.521 57.7606 175.321 57.7606 176.694C57.7606 178.014 57.1074 179 55.6411 179C54.5081 179 53.7216 178.4 53.495 177.387H52.3086C52.5485 178.947 53.7083 180.027 55.6278 180.027C57.8805 180.027 58.9203 178.534 58.9203 176.668C58.9203 175.175 58.1738 173.482 55.8277 173.482C54.8813 173.482 54.0282 173.908 53.6283 174.455V171.415H58.3071V170.349H52.5086ZM59.6792 181.906H60.4923L61.9853 178.32H60.6523L59.6792 181.906ZM66.7286 175.081C66.7286 177.881 67.4218 180 70.0878 180C72.7405 180 73.4336 177.881 73.4336 175.081C73.4336 172.322 72.7405 170.216 70.0878 170.216C67.4218 170.216 66.7286 172.322 66.7286 175.081ZM72.2339 175.081C72.2339 177.161 71.9807 178.894 70.0878 178.894C68.1816 178.894 67.9283 177.161 67.9283 175.081C67.9283 173.082 68.1816 171.322 70.0878 171.322C71.9807 171.322 72.2339 173.082 72.2339 175.081Z" fill="#5D6B7E"/>
</svg>
