<svg width="112" height="218" viewBox="0 0 112 218" fill="none" xmlns="http://www.w3.org/2000/svg">
<rect y="100" width="112" height="94" fill="#F9FAFA"/>
<path d="M0 4C0 1.79086 1.79086 0 4 0H108C110.209 0 112 1.79086 112 4V100H0V4Z" fill="#D98921"/>
<path d="M13.9105 109.267V115.022L10.0998 109.267H8.83325V117H10.0998V111.234L13.9105 117H15.1771V109.267H13.9105ZM22.0509 117H23.3841L20.6177 109.267H19.1511L16.3848 117H17.7068L18.2623 115.422H21.4954L22.0509 117ZM21.1398 114.389H18.6179L19.8844 110.801L21.1398 114.389ZM24.5869 117H25.8534V111.712L28.2199 117H29.0975L31.4529 111.712V117H32.7194V109.279H31.364L28.6643 115.333L25.9534 109.279H24.5869V117ZM38.6503 109.267H34.3841V117H38.6503V115.967H35.6506V113.6H38.317V112.567H35.6506V110.301H38.6503V109.267Z" fill="#C2C8CF"/>
<path d="M10.2394 132.121V128.709H12.0257C13.412 128.709 13.9985 129.349 13.9985 130.428C13.9985 131.468 13.412 132.121 12.0257 132.121H10.2394ZM15.2382 130.428C15.2382 128.909 14.2118 127.709 12.0257 127.709H9.02641V137H10.2394V133.121H12.0257C14.3318 133.121 15.2382 131.841 15.2382 130.428ZM16.7458 137H17.9589V129.695H16.7458V137ZM17.3723 128.509C17.8122 128.509 18.1721 128.149 18.1721 127.682C18.1721 127.216 17.8122 126.856 17.3723 126.856C16.9058 126.856 16.5459 127.216 16.5459 127.682C16.5459 128.149 16.9058 128.509 17.3723 128.509ZM21.2393 133.028C21.2393 131.335 22.1191 130.815 23.2788 130.815H23.5987V129.562C22.439 129.562 21.6525 130.068 21.2393 130.882V129.695H20.0263V137H21.2393V133.028ZM24.5458 133.321C24.5458 135.587 26.052 137.12 27.9982 137.12C29.3446 137.12 30.291 136.427 30.7309 135.64V137H31.9572V129.695H30.7309V131.028C30.3043 130.268 29.3712 129.575 28.0116 129.575C26.052 129.575 24.5458 131.041 24.5458 133.321ZM30.7309 133.334C30.7309 135.054 29.5845 136.054 28.2515 136.054C26.9185 136.054 25.7854 135.04 25.7854 133.321C25.7854 131.601 26.9185 130.628 28.2515 130.628C29.5845 130.628 30.7309 131.641 30.7309 133.334ZM34.2737 135C34.2737 136.467 35.0069 137 36.2999 137H37.393V135.974H36.4999C35.7534 135.974 35.4868 135.72 35.4868 135V130.695H37.393V129.695H35.4868V127.856H34.2737V129.695H33.3273V130.695H34.2737V135ZM41.9686 130.602C43.2216 130.602 44.288 131.388 44.2747 132.814H39.6625C39.7958 131.388 40.7822 130.602 41.9686 130.602ZM45.3811 134.747H44.0747C43.8081 135.534 43.115 136.094 42.0219 136.094C40.7822 136.094 39.7425 135.28 39.6492 133.801H45.4877C45.5144 133.548 45.5277 133.334 45.5277 133.068C45.5277 131.068 44.1414 129.575 42.0219 129.575C39.8891 129.575 38.4095 131.028 38.4095 133.334C38.4095 135.654 39.9424 137.12 42.0219 137.12C43.8348 137.12 45.0078 136.08 45.3811 134.747ZM54.8949 127.602C52.2823 127.602 50.2294 129.562 50.2294 132.348C50.2294 135.134 52.2823 137.08 54.8949 137.08C57.4143 137.08 59.2405 135.227 59.4538 132.921V131.988H54.4551V132.974H58.1608C57.9742 134.814 56.7212 135.987 54.8949 135.987C52.9354 135.987 51.4691 134.574 51.4691 132.348C51.4691 130.108 52.9354 128.695 54.8949 128.695C56.2013 128.695 57.2144 129.322 57.7209 130.402H59.1739C58.4807 128.615 56.8545 127.602 54.8949 127.602ZM67.9893 133.334C67.9893 131.028 66.3763 129.575 64.2969 129.575C62.2307 129.575 60.6044 131.028 60.6044 133.334C60.6044 135.654 62.1774 137.12 64.2435 137.12C66.323 137.12 67.9893 135.654 67.9893 133.334ZM61.8441 133.334C61.8441 131.495 63.0038 130.628 64.2835 130.628C65.5365 130.628 66.7496 131.495 66.7496 133.334C66.7496 135.187 65.5099 136.054 64.2435 136.054C62.9772 136.054 61.8441 135.187 61.8441 133.334ZM69.5842 137H70.7972V127.136H69.5842V137ZM72.4114 133.321C72.4114 135.587 73.9177 137.12 75.8772 137.12C77.2102 137.12 78.1566 136.44 78.5965 135.627V137H79.8229V127.136H78.5965V131.001C78.09 130.162 77.0369 129.575 75.8905 129.575C73.9177 129.575 72.4114 131.041 72.4114 133.321ZM78.5965 133.334C78.5965 135.054 77.4501 136.054 76.1171 136.054C74.7841 136.054 73.6511 135.04 73.6511 133.321C73.6511 131.601 74.7841 130.628 76.1171 130.628C77.4501 130.628 78.5965 131.641 78.5965 133.334Z" fill="#5D6B7E"/>
<path d="M13.7328 160H14.9993V152.279H13.7328V155.589H10.0998V152.279H8.83325V160H10.0998V156.623H13.7328V160ZM20.9329 152.267H16.6667V160H20.9329V158.967H17.9332V156.6H20.5996V155.567H17.9332V153.301H20.9329V152.267ZM27.0147 160H28.4368L26.037 156.145L28.4479 152.279H27.0369L25.3926 155.1L23.6372 152.279H22.2152L24.626 156.145L22.2263 160H23.6372L25.2704 157.2L27.0147 160Z" fill="#C2C8CF"/>
<path d="M11.919 170.709H9.02641V180H11.919C14.9716 180 16.8511 178.254 16.8511 175.374C16.8511 172.495 14.9716 170.709 11.919 170.709ZM10.2394 179V171.695H11.919C14.3451 171.695 15.6114 173.108 15.6114 175.374C15.6114 177.641 14.3451 179 11.919 179H10.2394ZM18.6911 177.414C18.8244 178.827 19.7575 180.013 21.677 180.013C24.2097 180.013 24.9428 178.214 24.9428 175.001C24.9428 172.015 24.183 170.176 21.5704 170.176C19.4909 170.176 18.3978 171.509 18.3978 173.348C18.3978 175.388 19.7175 176.494 21.4904 176.494C22.5301 176.494 23.4899 176.028 23.8764 175.215C23.9164 178.04 23.1566 179 21.7436 179C20.6239 179 19.9841 178.414 19.8108 177.414H18.6911ZM21.6903 175.468C20.2507 175.468 19.5575 174.561 19.5575 173.322C19.5575 172.042 20.344 171.189 21.597 171.189C22.9833 171.189 23.7298 172.109 23.7298 173.415C23.7298 174.708 22.85 175.468 21.6903 175.468ZM28.4071 174.988C27.3274 175.308 26.6209 176.188 26.6209 177.401C26.6209 179.147 27.9939 180.267 30.02 180.267C32.0595 180.267 33.4458 179.147 33.4458 177.401C33.4458 176.201 32.7393 175.321 31.6463 174.988C32.5927 174.615 33.1926 173.815 33.1926 172.775C33.1926 171.375 32.1128 170.216 30.02 170.216C27.9272 170.216 26.8608 171.362 26.8608 172.775C26.8608 173.855 27.4207 174.601 28.4071 174.988ZM30.02 174.588C28.847 174.588 28.0338 173.935 28.0338 172.935C28.0338 171.802 28.8336 171.229 30.02 171.229C31.233 171.229 32.0195 171.815 32.0195 172.922C32.0195 173.922 31.2064 174.588 30.02 174.588ZM30.02 175.521C31.2864 175.521 32.2461 176.121 32.2461 177.361C32.2461 178.48 31.393 179.254 30.02 179.254C28.647 179.254 27.7806 178.494 27.7806 177.361C27.7806 176.081 28.7803 175.521 30.02 175.521ZM35.4968 177.414C35.6301 178.827 36.5632 180.013 38.4827 180.013C41.0154 180.013 41.7485 178.214 41.7485 175.001C41.7485 172.015 40.9887 170.176 38.376 170.176C36.2966 170.176 35.2035 171.509 35.2035 173.348C35.2035 175.388 36.5232 176.494 38.2961 176.494C39.3358 176.494 40.2956 176.028 40.6821 175.215C40.7221 178.04 39.9623 179 38.5493 179C37.4296 179 36.7898 178.414 36.6165 177.414H35.4968ZM38.496 175.468C37.0564 175.468 36.3632 174.561 36.3632 173.322C36.3632 172.042 37.1497 171.189 38.4027 171.189C39.789 171.189 40.5355 172.109 40.5355 173.415C40.5355 174.708 39.6557 175.468 38.496 175.468ZM43.3066 179.893H49.7183V178.88H45.1328C46.8524 177.481 49.4384 175.441 49.4384 173.042C49.4384 171.256 48.2653 170.189 46.4525 170.189C44.7196 170.189 43.4266 171.256 43.3466 173.308H44.5196C44.5729 172.095 45.2128 171.229 46.4658 171.229C47.7721 171.229 48.2387 172.029 48.2387 173.095C48.2387 175.068 45.8393 176.987 43.3066 179.027V179.893ZM52.0803 180H53.3067V170.362H50.8006V171.469H52.0803V180Z" fill="#5D6B7E"/>
<path d="M0 194H112V214C112 216.209 110.209 218 108 218H4C1.79086 218 0 216.209 0 214V194Z" fill="#EDEFF1"/>
<path d="M16.2992 206.123C16.2992 203.812 14.5549 202.179 12.3551 202.179C10.1776 202.179 8.41107 203.812 8.41107 206.123C8.41107 208.445 10.1776 210.078 12.3551 210.078C14.5549 210.078 16.2992 208.445 16.2992 206.123ZM9.71094 206.123C9.71094 204.378 10.8219 203.29 12.3551 203.29C13.8883 203.29 14.9993 204.378 14.9993 206.123C14.9993 207.867 13.8883 208.978 12.3551 208.978C10.8219 208.978 9.71094 207.867 9.71094 206.123ZM18.812 205.834V203.312H20.2119C21.2007 203.312 21.6451 203.778 21.6451 204.578C21.6451 205.356 21.2007 205.834 20.2119 205.834H18.812ZM22.9449 204.578C22.9449 203.323 22.045 202.279 20.2119 202.279H17.5455V210H18.812V206.867H20.2119C22.2228 206.867 22.9449 205.678 22.9449 204.578ZM23.7529 203.312H25.8194V210H27.0859V203.312H29.1413V202.279H23.7529V203.312ZM30.424 210H31.6905V202.279H30.424V210ZM38.4306 202.267V208.022L34.6199 202.267H33.3534V210H34.6199V204.234L38.4306 210H39.6972V202.267H38.4306ZM41.527 201.879V206.556H42.7269C42.938 205.956 43.4379 205.545 44.1823 205.545C45.2378 205.545 45.7599 206.145 45.7599 207.2C45.7599 208.2 45.2711 208.945 44.1823 208.945C43.3268 208.945 42.7491 208.5 42.5825 207.811H41.3493C41.5381 209.078 42.5047 210 44.1712 210C46.0488 210 46.9709 208.778 46.9709 207.167C46.9709 205.945 46.3599 204.467 44.3712 204.467C43.649 204.467 42.9935 204.801 42.6936 205.2V202.99H46.4154V201.879H41.527ZM48.2894 205.845C48.2894 208.2 48.9115 209.978 51.178 209.978C53.4444 209.978 54.0666 208.2 54.0666 205.845C54.0666 203.534 53.4444 201.756 51.178 201.756C48.9115 201.756 48.2894 203.534 48.2894 205.845ZM52.8223 205.845C52.8223 207.434 52.6556 208.822 51.178 208.822C49.7003 208.822 49.5337 207.434 49.5337 205.845C49.5337 204.334 49.7003 202.912 51.178 202.912C52.6556 202.912 52.8223 204.334 52.8223 205.845ZM55.4067 205.845C55.4067 208.2 56.0289 209.978 58.2953 209.978C60.5618 209.978 61.1839 208.2 61.1839 205.845C61.1839 203.534 60.5618 201.756 58.2953 201.756C56.0289 201.756 55.4067 203.534 55.4067 205.845ZM59.9396 205.845C59.9396 207.434 59.7729 208.822 58.2953 208.822C56.8177 208.822 56.651 207.434 56.651 205.845C56.651 204.334 56.8177 202.912 58.2953 202.912C59.7729 202.912 59.9396 204.334 59.9396 205.845Z" fill="#9AA3AF"/>
</svg>
