<svg width="112" height="218" viewBox="0 0 112 218" fill="none" xmlns="http://www.w3.org/2000/svg">
<rect y="100" width="112" height="94" fill="#F9FAFA"/>
<path d="M0 4C0 1.79086 1.79086 0 4 0H108C110.209 0 112 1.79086 112 4V100H0V4Z" fill="#355787"/>
<path d="M13.9105 109.267V115.022L10.0998 109.267H8.83325V117H10.0998V111.234L13.9105 117H15.1771V109.267H13.9105ZM22.0509 117H23.3841L20.6177 109.267H19.1511L16.3848 117H17.7068L18.2623 115.422H21.4954L22.0509 117ZM21.1398 114.389H18.6179L19.8844 110.801L21.1398 114.389ZM24.5869 117H25.8534V111.712L28.2199 117H29.0975L31.4529 111.712V117H32.7194V109.279H31.364L28.6643 115.333L25.9534 109.279H24.5869V117ZM38.6503 109.267H34.3841V117H38.6503V115.967H35.6506V113.6H38.317V112.567H35.6506V110.301H38.6503V109.267Z" fill="#C2C8CF"/>
<path d="M8.57319 132.348C8.57319 135.134 10.6127 137.08 13.212 137.08C15.2249 137.08 16.8245 136.08 17.5176 134.294H16.0647C15.5581 135.4 14.5717 136.027 13.212 136.027C11.2659 136.027 9.81288 134.614 9.81288 132.348C9.81288 130.068 11.2659 128.655 13.212 128.655C14.5717 128.655 15.5581 129.282 16.0647 130.402H17.5176C16.8245 128.602 15.2249 127.589 13.212 127.589C10.6127 127.589 8.57319 129.562 8.57319 132.348ZM19.3233 137H20.5363V132.961C20.5363 131.388 21.3895 130.615 22.6292 130.615C23.8555 130.615 24.6686 131.375 24.6686 132.868V137H25.8683V132.694C25.8683 130.602 24.5753 129.562 22.9491 129.562C21.9227 129.562 21.0162 129.975 20.5363 130.748V127.136H19.3233V137ZM27.3966 133.321C27.3966 135.587 28.9029 137.12 30.8491 137.12C32.1954 137.12 33.1418 136.427 33.5817 135.64V137H34.8081V129.695H33.5817V131.028C33.1552 130.268 32.2221 129.575 30.8624 129.575C28.9029 129.575 27.3966 131.041 27.3966 133.321ZM33.5817 133.334C33.5817 135.054 32.4353 136.054 31.1023 136.054C29.7693 136.054 28.6363 135.04 28.6363 133.321C28.6363 131.601 29.7693 130.628 31.1023 130.628C32.4353 130.628 33.5817 131.641 33.5817 133.334ZM47.402 137H48.6017V132.694C48.6017 130.602 47.3087 129.562 45.6425 129.562C44.5227 129.562 43.483 130.135 43.0564 131.188C42.5766 130.095 41.5768 129.562 40.3771 129.562C39.4174 129.562 38.5509 129.975 38.071 130.748V129.695H36.858V137H38.071V132.974C38.071 131.401 38.9108 130.615 40.1372 130.615C41.3369 130.615 42.1367 131.375 42.1367 132.868V137H43.3364V132.974C43.3364 131.401 44.1762 130.615 45.4025 130.615C46.6022 130.615 47.402 131.375 47.402 132.868V137ZM51.8046 131.055V127.136H50.5915V137H51.8046V135.654C52.2578 136.453 53.2042 137.12 54.5372 137.12C56.4967 137.12 58.003 135.587 58.003 133.321C58.003 131.041 56.5101 129.575 54.5372 129.575C53.2442 129.575 52.2711 130.242 51.8046 131.055ZM56.7633 133.321C56.7633 135.04 55.6303 136.054 54.2839 136.054C52.9643 136.054 51.8046 135.054 51.8046 133.334C51.8046 131.641 52.9643 130.628 54.2839 130.628C55.6303 130.628 56.7633 131.601 56.7633 133.321ZM60.8127 133.028C60.8127 131.335 61.6925 130.815 62.8522 130.815H63.1721V129.562C62.0124 129.562 61.226 130.068 60.8127 130.882V129.695H59.5997V137H60.8127V133.028ZM64.1192 133.321C64.1192 135.587 65.6255 137.12 67.5717 137.12C68.918 137.12 69.8644 136.427 70.3043 135.64V137H71.5307V129.695H70.3043V131.028C69.8778 130.268 68.9447 129.575 67.585 129.575C65.6255 129.575 64.1192 131.041 64.1192 133.321ZM70.3043 133.334C70.3043 135.054 69.1579 136.054 67.8249 136.054C66.4919 136.054 65.3589 135.04 65.3589 133.321C65.3589 131.601 66.4919 130.628 67.8249 130.628C69.1579 130.628 70.3043 131.641 70.3043 133.334ZM76.3532 135.614L74.0605 129.695H72.7141L75.6601 136.92L74.2204 140.439H75.4734L79.8723 129.695H78.6193L76.3532 135.614Z" fill="#5D6B7E"/>
<path d="M13.7328 160H14.9993V152.279H13.7328V155.589H10.0998V152.279H8.83325V160H10.0998V156.623H13.7328V160ZM20.9329 152.267H16.6667V160H20.9329V158.967H17.9332V156.6H20.5996V155.567H17.9332V153.301H20.9329V152.267ZM27.0147 160H28.4368L26.037 156.145L28.4479 152.279H27.0369L25.3926 155.1L23.6372 152.279H22.2152L24.626 156.145L22.2263 160H23.6372L25.2704 157.2L27.0147 160Z" fill="#C2C8CF"/>
<path d="M8.7998 172.788H9.98617C10.1061 171.855 10.786 171.216 11.919 171.216C13.0787 171.216 13.6919 171.855 13.6919 172.775C13.6919 173.895 12.8255 174.388 11.2125 174.401H10.8926V175.414H11.1992C12.9321 175.414 13.8785 175.934 13.8785 177.294C13.8785 178.28 13.2654 179.04 11.9723 179.04C10.6927 179.04 9.94618 178.254 9.82621 177.227H8.65317C8.7998 179.094 10.1595 180.067 11.9857 180.067C13.9985 180.067 15.0382 178.894 15.0382 177.401C15.0382 176.014 14.2784 175.188 13.1587 174.921V174.855C14.1718 174.628 14.865 173.762 14.865 172.655C14.865 171.269 13.8385 170.176 11.959 170.176C10.1728 170.176 8.91977 171.136 8.7998 172.788ZM17.0226 170.349V175.788H18.169C18.4889 175.028 19.1954 174.521 20.1685 174.521C21.5682 174.521 22.2747 175.321 22.2747 176.694C22.2747 178.014 21.6215 179 20.1552 179C19.0221 179 18.2357 178.4 18.0091 177.387H16.8227C17.0626 178.947 18.2223 180.027 20.1419 180.027C22.3946 180.027 23.4344 178.534 23.4344 176.668C23.4344 175.175 22.6879 173.482 20.3418 173.482C19.3954 173.482 18.5423 173.908 18.1424 174.455V171.415H22.8212V170.349H17.0226ZM25.3929 170.349V175.788H26.5393C26.8592 175.028 27.5657 174.521 28.5388 174.521C29.9385 174.521 30.645 175.321 30.645 176.694C30.645 178.014 29.9918 179 28.5255 179C27.3924 179 26.606 178.4 26.3794 177.387H25.193C25.4329 178.947 26.5926 180.027 28.5122 180.027C30.7649 180.027 31.8047 178.534 31.8047 176.668C31.8047 175.175 31.0582 173.482 28.7121 173.482C27.7657 173.482 26.9126 173.908 26.5127 174.455V171.415H31.1915V170.349H25.3929ZM33.0301 170.389V171.429H38.1755L34.4164 180H35.6428L39.3485 171.309V170.389H33.0301ZM42.4531 174.988C41.3733 175.308 40.6668 176.188 40.6668 177.401C40.6668 179.147 42.0398 180.267 44.066 180.267C46.1055 180.267 47.4918 179.147 47.4918 177.401C47.4918 176.201 46.7853 175.321 45.6922 174.988C46.6387 174.615 47.2385 173.815 47.2385 172.775C47.2385 171.375 46.1588 170.216 44.066 170.216C41.9732 170.216 40.9068 171.362 40.9068 172.775C40.9068 173.855 41.4666 174.601 42.4531 174.988ZM44.066 174.588C42.8929 174.588 42.0798 173.935 42.0798 172.935C42.0798 171.802 42.8796 171.229 44.066 171.229C45.279 171.229 46.0655 171.815 46.0655 172.922C46.0655 173.922 45.2524 174.588 44.066 174.588ZM44.066 175.521C45.3323 175.521 46.2921 176.121 46.2921 177.361C46.2921 178.48 45.439 179.254 44.066 179.254C42.693 179.254 41.8265 178.494 41.8265 177.361C41.8265 176.081 42.8263 175.521 44.066 175.521ZM48.7163 170.389V171.429H53.8617L50.1026 180H51.329L55.0347 171.309V170.389H48.7163Z" fill="#5D6B7E"/>
<path d="M0 194H112V214C112 216.209 110.209 218 108 218H4C1.79086 218 0 216.209 0 214V194Z" fill="#EDEFF1"/>
<path d="M10.0998 205.834V203.312H11.4997C12.4884 203.312 12.9328 203.778 12.9328 204.578C12.9328 205.356 12.4884 205.834 11.4997 205.834H10.0998ZM14.2327 204.578C14.2327 203.323 13.3328 202.279 11.4997 202.279H8.83325V210H10.0998V206.867H11.4997C13.5106 206.867 14.2327 205.678 14.2327 204.578ZM20.6513 210H21.9845L19.2181 202.267H17.7515L14.9852 210H16.3072L16.8627 208.422H20.0958L20.6513 210ZM19.7402 207.389H17.2183L18.4848 203.801L19.7402 207.389ZM26.7092 202.179C24.5316 202.179 22.7651 203.812 22.7651 206.123C22.7651 208.445 24.5316 210.067 26.7092 210.067C28.7867 210.067 30.2977 208.545 30.531 206.756V205.767H26.2759V206.778H29.1756C28.9867 208.078 28.109 208.922 26.7092 208.922C25.176 208.922 24.065 207.822 24.065 206.123C24.065 204.423 25.176 203.334 26.7092 203.334C27.6313 203.334 28.3645 203.723 28.7756 204.501H30.2977C29.7089 202.99 28.3201 202.179 26.7092 202.179ZM36.0464 202.267H31.7802V210H36.0464V208.967H33.0467V206.6H35.7131V205.567H33.0467V203.301H36.0464V202.267ZM37.7731 201.879V206.556H38.9729C39.184 205.956 39.684 205.545 40.4284 205.545C41.4838 205.545 42.006 206.145 42.006 207.2C42.006 208.2 41.5171 208.945 40.4284 208.945C39.5729 208.945 38.9952 208.5 38.8285 207.811H37.5953C37.7842 209.078 38.7507 210 40.4172 210C42.2948 210 43.217 208.778 43.217 207.167C43.217 205.945 42.6059 204.467 40.6172 204.467C39.8951 204.467 39.2396 204.801 38.9396 205.2V202.99H42.6615V201.879H37.7731ZM44.5354 205.845C44.5354 208.2 45.1576 209.978 47.424 209.978C49.6904 209.978 50.3126 208.2 50.3126 205.845C50.3126 203.534 49.6904 201.756 47.424 201.756C45.1576 201.756 44.5354 203.534 44.5354 205.845ZM49.0683 205.845C49.0683 207.434 48.9016 208.822 47.424 208.822C45.9464 208.822 45.7797 207.434 45.7797 205.845C45.7797 204.334 45.9464 202.912 47.424 202.912C48.9016 202.912 49.0683 204.334 49.0683 205.845ZM51.6528 205.845C51.6528 208.2 52.2749 209.978 54.5414 209.978C56.8078 209.978 57.43 208.2 57.43 205.845C57.43 203.534 56.8078 201.756 54.5414 201.756C52.2749 201.756 51.6528 203.534 51.6528 205.845ZM56.1856 205.845C56.1856 207.434 56.019 208.822 54.5414 208.822C53.0637 208.822 52.8971 207.434 52.8971 205.845C52.8971 204.334 53.0637 202.912 54.5414 202.912C56.019 202.912 56.1856 204.334 56.1856 205.845Z" fill="#9AA3AF"/>
</svg>
