<svg width="176" height="218" viewBox="0 0 176 218" fill="none" xmlns="http://www.w3.org/2000/svg">
<rect y="100" width="176" height="94" fill="#F9FAFA"/>
<path d="M0 194H176V214C176 216.209 174.209 218 172 218H4C1.79086 218 0 216.209 0 214V194Z" fill="#EDEFF1"/>
<path d="M0 4C0 1.79086 1.79086 0 4 0H172C174.209 0 176 1.79086 176 4V100H0V4Z" fill="#426DA9"/>
<path d="M13.9105 109.267V115.022L10.0998 109.267H8.83325V117H10.0998V111.234L13.9105 117H15.1771V109.267H13.9105ZM22.0509 117H23.3841L20.6177 109.267H19.1511L16.3848 117H17.7068L18.2623 115.422H21.4954L22.0509 117ZM21.1398 114.389H18.6179L19.8844 110.801L21.1398 114.389ZM24.5869 117H25.8534V111.712L28.2199 117H29.0975L31.4529 111.712V117H32.7194V109.279H31.364L28.6643 115.333L25.9534 109.279H24.5869V117ZM38.6503 109.267H34.3841V117H38.6503V115.967H35.6506V113.6H38.317V112.567H35.6506V110.301H38.6503V109.267Z" fill="#C2C8CF"/>
<path d="M15.0649 134.467C15.0649 131.028 10.0528 132.521 10.0528 130.122C10.0528 129.122 10.8393 128.602 11.839 128.629C12.9721 128.642 13.5586 129.349 13.6386 129.975H14.9716C14.825 128.562 13.6653 127.589 11.8924 127.589C10.0528 127.589 8.81313 128.629 8.81313 130.162C8.81313 133.614 13.8385 132.015 13.8385 134.521C13.8385 135.4 13.1454 136.067 11.9723 136.067C10.6793 136.067 10.1328 135.294 10.0528 134.521H8.75981C8.78647 136.054 10.1061 137.093 11.9723 137.093C13.9852 137.093 15.0649 135.787 15.0649 134.467ZM16.3968 133.321C16.3968 135.587 17.903 137.12 19.8492 137.12C21.1956 137.12 22.142 136.427 22.5819 135.64V137H23.8082V129.695H22.5819V131.028C22.1553 130.268 21.2222 129.575 19.8626 129.575C17.903 129.575 16.3968 131.041 16.3968 133.321ZM22.5819 133.334C22.5819 135.054 21.4355 136.054 20.1025 136.054C18.7695 136.054 17.6364 135.04 17.6364 133.321C17.6364 131.601 18.7695 130.628 20.1025 130.628C21.4355 130.628 22.5819 131.641 22.5819 133.334ZM31.2035 137H32.4032V132.694C32.4032 130.602 31.1102 129.562 29.4173 129.562C28.4308 129.562 27.5511 129.975 27.0712 130.735V129.695H25.8581V137H27.0712V132.961C27.0712 131.388 27.9243 130.615 29.164 130.615C30.3903 130.615 31.2035 131.375 31.2035 132.868V137ZM37.9385 137H39.1515V130.108L42.2307 137H43.0838L46.1497 130.122V137H47.3628V127.776H46.0698L42.6573 135.4L39.2448 127.776H37.9385V137ZM48.9667 133.321C48.9667 135.587 50.473 137.12 52.4192 137.12C53.7655 137.12 54.712 136.427 55.1519 135.64V137H56.3782V129.695H55.1519V131.028C54.7253 130.268 53.7922 129.575 52.4325 129.575C50.473 129.575 48.9667 131.041 48.9667 133.321ZM55.1519 133.334C55.1519 135.054 54.0055 136.054 52.6725 136.054C51.3395 136.054 50.2064 135.04 50.2064 133.321C50.2064 131.601 51.3395 130.628 52.6725 130.628C54.0055 130.628 55.1519 131.641 55.1519 133.334ZM59.6412 133.028C59.6412 131.335 60.5209 130.815 61.6806 130.815H62.0006V129.562C60.8409 129.562 60.0544 130.068 59.6412 130.882V129.695H58.4281V137H59.6412V133.028ZM63.4008 137H64.6139V129.695H63.4008V137ZM64.0273 128.509C64.4672 128.509 64.8271 128.149 64.8271 127.682C64.8271 127.216 64.4672 126.856 64.0273 126.856C63.5608 126.856 63.2009 127.216 63.2009 127.682C63.2009 128.149 63.5608 128.509 64.0273 128.509ZM72.0266 137H73.2263V132.694C73.2263 130.602 71.9333 129.562 70.2404 129.562C69.254 129.562 68.3742 129.975 67.8943 130.735V129.695H66.6813V137H67.8943V132.961C67.8943 131.388 68.7474 130.615 69.9871 130.615C71.2135 130.615 72.0266 131.375 72.0266 132.868V137ZM82.1394 133.334C82.1394 131.028 80.5264 129.575 78.447 129.575C76.3808 129.575 74.7546 131.028 74.7546 133.334C74.7546 135.654 76.3275 137.12 78.3936 137.12C80.4731 137.12 82.1394 135.654 82.1394 133.334ZM75.9942 133.334C75.9942 131.495 77.154 130.628 78.4336 130.628C79.6867 130.628 80.8997 131.495 80.8997 133.334C80.8997 135.187 79.66 136.054 78.3936 136.054C77.1273 136.054 75.9942 135.187 75.9942 133.334Z" fill="#5D6B7E"/>
<path d="M10.0998 205.834V203.312H11.4997C12.4884 203.312 12.9328 203.778 12.9328 204.578C12.9328 205.356 12.4884 205.834 11.4997 205.834H10.0998ZM14.2327 204.578C14.2327 203.323 13.3328 202.279 11.4997 202.279H8.83325V210H10.0998V206.867H11.4997C13.5106 206.867 14.2327 205.678 14.2327 204.578ZM20.6513 210H21.9845L19.2181 202.267H17.7515L14.9852 210H16.3072L16.8627 208.422H20.0958L20.6513 210ZM19.7402 207.389H17.2183L18.4848 203.801L19.7402 207.389ZM26.7092 202.179C24.5316 202.179 22.7651 203.812 22.7651 206.123C22.7651 208.445 24.5316 210.067 26.7092 210.067C28.7867 210.067 30.2977 208.545 30.531 206.756V205.767H26.2759V206.778H29.1756C28.9867 208.078 28.109 208.922 26.7092 208.922C25.176 208.922 24.065 207.822 24.065 206.123C24.065 204.423 25.176 203.334 26.7092 203.334C27.6313 203.334 28.3645 203.723 28.7756 204.501H30.2977C29.7089 202.99 28.3201 202.179 26.7092 202.179ZM36.0464 202.267H31.7802V210H36.0464V208.967H33.0467V206.6H35.7131V205.567H33.0467V203.301H36.0464V202.267ZM41.306 210H42.5504V208.311H43.5836V207.211H42.5504V202.001H41.0172L37.2842 207.356V208.311H41.306V210ZM38.7396 207.211L41.3616 203.29V207.211H38.7396ZM44.6331 205.845C44.6331 208.2 45.2552 209.978 47.5217 209.978C49.7881 209.978 50.4103 208.2 50.4103 205.845C50.4103 203.534 49.7881 201.756 47.5217 201.756C45.2552 201.756 44.6331 203.534 44.6331 205.845ZM49.1659 205.845C49.1659 207.434 48.9993 208.822 47.5217 208.822C46.044 208.822 45.8774 207.434 45.8774 205.845C45.8774 204.334 46.044 202.912 47.5217 202.912C48.9993 202.912 49.1659 204.334 49.1659 205.845ZM51.7504 205.845C51.7504 208.2 52.3726 209.978 54.639 209.978C56.9054 209.978 57.5276 208.2 57.5276 205.845C57.5276 203.534 56.9054 201.756 54.639 201.756C52.3726 201.756 51.7504 203.534 51.7504 205.845ZM56.2833 205.845C56.2833 207.434 56.1166 208.822 54.639 208.822C53.1614 208.822 52.9947 207.434 52.9947 205.845C52.9947 204.334 53.1614 202.912 54.639 202.912C56.1166 202.912 56.2833 204.334 56.2833 205.845Z" fill="#9AA3AF"/>
<path d="M117.733 160H118.999V152.279H117.733V155.589H114.1V152.279H112.833V160H114.1V156.623H117.733V160ZM124.933 152.267H120.667V160H124.933V158.967H121.933V156.6H124.6V155.567H121.933V153.301H124.933V152.267ZM131.015 160H132.437L130.037 156.145L132.448 152.279H131.037L129.393 155.1L127.637 152.279H126.215L128.626 156.145L126.226 160H127.637L129.27 157.2L131.015 160Z" fill="#C2C8CF"/>
<path d="M117.465 180H118.665V177.854H119.998V176.801H118.665V170.456H117.212L112.533 176.934V177.854H117.465V180ZM113.933 176.801L117.519 171.722V176.801H113.933ZM121.063 179.893H127.475V178.88H122.889C124.609 177.481 127.195 175.441 127.195 173.042C127.195 171.256 126.022 170.189 124.209 170.189C122.476 170.189 121.183 171.256 121.103 173.308H122.276C122.33 172.095 122.969 171.229 124.222 171.229C125.529 171.229 125.995 172.029 125.995 173.095C125.995 175.068 123.596 176.987 121.063 179.027V179.893ZM135.369 172.655C135.209 171.309 134.276 170.162 132.436 170.162C129.997 170.162 129.024 172.029 129.024 175.055C129.024 177.974 129.704 180.027 132.556 180.027C134.662 180.027 135.702 178.587 135.702 176.827C135.702 174.801 134.489 173.615 132.69 173.615C131.543 173.615 130.49 174.148 130.077 175.095C130.064 172.229 130.89 171.176 132.423 171.176C133.516 171.176 134.063 171.722 134.249 172.655H135.369ZM132.436 174.641C133.823 174.641 134.529 175.508 134.529 176.867C134.529 178.174 133.743 179.014 132.49 179.014C130.97 179.014 130.223 178.014 130.223 176.734C130.223 175.295 131.33 174.641 132.436 174.641ZM140.431 170.709H137.539V180H140.431C143.484 180 145.363 178.254 145.363 175.374C145.363 172.495 143.484 170.709 140.431 170.709ZM138.752 179V171.695H140.431C142.857 171.695 144.124 173.108 144.124 175.374C144.124 177.641 142.857 179 140.431 179H138.752ZM153.202 180H154.481L151.136 170.762H149.736L146.377 180H147.656L148.403 177.934H152.455L153.202 180ZM152.109 176.947H148.749L150.429 172.255L152.109 176.947ZM156.185 177.414C156.319 178.827 157.252 180.013 159.171 180.013C161.704 180.013 162.437 178.214 162.437 175.001C162.437 172.015 161.677 170.176 159.065 170.176C156.985 170.176 155.892 171.509 155.892 173.348C155.892 175.388 157.212 176.494 158.985 176.494C160.024 176.494 160.984 176.028 161.371 175.215C161.411 178.04 160.651 179 159.238 179C158.118 179 157.478 178.414 157.305 177.414H156.185ZM159.185 175.468C157.745 175.468 157.052 174.561 157.052 173.322C157.052 172.042 157.838 171.189 159.091 171.189C160.478 171.189 161.224 172.109 161.224 173.415C161.224 174.708 160.344 175.468 159.185 175.468Z" fill="#5D6B7E"/>
<path d="M12.9328 154.589C12.9328 155.356 12.4884 155.9 11.4997 155.9H10.0998V153.312H11.4997C12.4884 153.312 12.9328 153.812 12.9328 154.589ZM8.83325 152.279V160H10.0998V156.911H11.0664L12.844 160H14.3549L12.444 156.8C13.7439 156.478 14.2327 155.5 14.2327 154.589C14.2327 153.334 13.3328 152.279 11.4997 152.279H8.83325ZM19.3748 152.179C17.1973 152.179 15.4308 153.812 15.4308 156.123C15.4308 158.445 17.1973 160.067 19.3748 160.067C21.4524 160.067 22.9633 158.545 23.1967 156.756V155.767H18.9415V156.778H21.8412C21.6524 158.078 20.7747 158.922 19.3748 158.922C17.8416 158.922 16.7306 157.822 16.7306 156.123C16.7306 154.423 17.8416 153.334 19.3748 153.334C20.2969 153.334 21.0302 153.723 21.4413 154.501H22.9633C22.3745 152.99 20.9858 152.179 19.3748 152.179ZM28.801 157.789C28.801 158.533 28.2788 158.967 27.4233 158.967H25.7124V156.556H27.3789C28.2232 156.556 28.801 157.023 28.801 157.789ZM28.601 154.423C28.601 155.134 28.101 155.523 27.2789 155.523H25.7124V153.312H27.2789C28.101 153.312 28.601 153.723 28.601 154.423ZM30.0675 157.922C30.0675 157 29.4009 156.178 28.5788 156.034C29.3231 155.767 29.8897 155.2 29.8897 154.267C29.8897 153.178 29.0232 152.279 27.39 152.279H24.4458V160H27.5344C29.112 160 30.0675 159.1 30.0675 157.922Z" fill="#C2C8CF"/>
<path d="M15.3182 172.655C15.1582 171.309 14.2251 170.162 12.3856 170.162C9.94618 170.162 8.97309 172.029 8.97309 175.055C8.97309 177.974 9.65292 180.027 12.5055 180.027C14.6117 180.027 15.6514 178.587 15.6514 176.827C15.6514 174.801 14.4384 173.615 12.6388 173.615C11.4925 173.615 10.4394 174.148 10.0262 175.095C10.0128 172.229 10.8393 171.176 12.3722 171.176C13.4653 171.176 14.0118 171.722 14.1985 172.655H15.3182ZM12.3856 174.641C13.7719 174.641 14.4784 175.508 14.4784 176.867C14.4784 178.174 13.6919 179.014 12.4389 179.014C10.9193 179.014 10.1728 178.014 10.1728 176.734C10.1728 175.295 11.2792 174.641 12.3856 174.641ZM23.7796 172.655C23.6196 171.309 22.6865 170.162 20.847 170.162C18.4076 170.162 17.4345 172.029 17.4345 175.055C17.4345 177.974 18.1143 180.027 20.967 180.027C23.0731 180.027 24.1128 178.587 24.1128 176.827C24.1128 174.801 22.8998 173.615 21.1003 173.615C19.9539 173.615 18.9008 174.148 18.4876 175.095C18.4743 172.229 19.3007 171.176 20.8337 171.176C21.9267 171.176 22.4733 171.722 22.6599 172.655H23.7796ZM20.847 174.641C22.2333 174.641 22.9398 175.508 22.9398 176.867C22.9398 178.174 22.1533 179.014 20.9003 179.014C19.3807 179.014 18.6342 178.014 18.6342 176.734C18.6342 175.295 19.7406 174.641 20.847 174.641ZM24.8962 181.906H25.7093L27.2023 178.32H25.8693L24.8962 181.906ZM32.9054 180H34.1318V170.362H31.6258V171.469H32.9054V180ZM36.2154 175.081C36.2154 177.881 36.9086 180 39.5746 180C42.2273 180 42.9204 177.881 42.9204 175.081C42.9204 172.322 42.2273 170.216 39.5746 170.216C36.9086 170.216 36.2154 172.322 36.2154 175.081ZM41.7207 175.081C41.7207 177.161 41.4675 178.894 39.5746 178.894C37.6684 178.894 37.4151 177.161 37.4151 175.081C37.4151 173.082 37.6684 171.322 39.5746 171.322C41.4675 171.322 41.7207 173.082 41.7207 175.081ZM45.0256 177.414C45.1589 178.827 46.092 180.013 48.0116 180.013C50.5443 180.013 51.2774 178.214 51.2774 175.001C51.2774 172.015 50.5176 170.176 47.9049 170.176C45.8254 170.176 44.7324 171.509 44.7324 173.348C44.7324 175.388 46.052 176.494 47.8249 176.494C48.8647 176.494 49.8244 176.028 50.211 175.215C50.251 178.04 49.4912 179 48.0782 179C46.9585 179 46.3186 178.414 46.1454 177.414H45.0256ZM48.0249 175.468C46.5852 175.468 45.8921 174.561 45.8921 173.322C45.8921 172.042 46.6786 171.189 47.9316 171.189C49.3179 171.189 50.0644 172.109 50.0644 173.415C50.0644 174.708 49.1846 175.468 48.0249 175.468ZM52.129 181.906H52.9421L54.4351 178.32H53.1021L52.129 181.906ZM60.1382 180H61.3646V170.362H58.8585V171.469H60.1382V180ZM69.9399 172.655C69.78 171.309 68.8469 170.162 67.0073 170.162C64.5679 170.162 63.5948 172.029 63.5948 175.055C63.5948 177.974 64.2747 180.027 67.1273 180.027C69.2334 180.027 70.2732 178.587 70.2732 176.827C70.2732 174.801 69.0601 173.615 67.2606 173.615C66.1142 173.615 65.0611 174.148 64.6479 175.095C64.6346 172.229 65.461 171.176 66.994 171.176C68.0871 171.176 68.6336 171.722 68.8202 172.655H69.9399ZM67.0073 174.641C68.3936 174.641 69.1001 175.508 69.1001 176.867C69.1001 178.174 68.3137 179.014 67.0606 179.014C65.541 179.014 64.7945 178.014 64.7945 176.734C64.7945 175.295 65.9009 174.641 67.0073 174.641ZM72.3495 177.414C72.4828 178.827 73.4159 180.013 75.3355 180.013C77.8682 180.013 78.6013 178.214 78.6013 175.001C78.6013 172.015 77.8415 170.176 75.2288 170.176C73.1493 170.176 72.0563 171.509 72.0563 173.348C72.0563 175.388 73.3759 176.494 75.1488 176.494C76.1886 176.494 77.1483 176.028 77.5349 175.215C77.5749 178.04 76.8151 179 75.4021 179C74.2824 179 73.6425 178.414 73.4693 177.414H72.3495ZM75.3488 175.468C73.9091 175.468 73.216 174.561 73.216 173.322C73.216 172.042 74.0025 171.189 75.2555 171.189C76.6418 171.189 77.3883 172.109 77.3883 173.415C77.3883 174.708 76.5085 175.468 75.3488 175.468Z" fill="#5D6B7E"/>
</svg>
