<svg width="112" height="218" viewBox="0 0 112 218" fill="none" xmlns="http://www.w3.org/2000/svg">
<rect y="100" width="112" height="94" fill="#F9FAFA"/>
<path d="M0 4C0 1.79086 1.79086 0 4 0H108C110.209 0 112 1.79086 112 4V100H0V4Z" fill="#688ABA"/>
<path d="M13.9105 109.267V115.022L10.0998 109.267H8.83325V117H10.0998V111.234L13.9105 117H15.1771V109.267H13.9105ZM22.0509 117H23.3841L20.6177 109.267H19.1511L16.3848 117H17.7068L18.2623 115.422H21.4954L22.0509 117ZM21.1398 114.389H18.6179L19.8844 110.801L21.1398 114.389ZM24.5869 117H25.8534V111.712L28.2199 117H29.0975L31.4529 111.712V117H32.7194V109.279H31.364L28.6643 115.333L25.9534 109.279H24.5869V117ZM38.6503 109.267H34.3841V117H38.6503V115.967H35.6506V113.6H38.317V112.567H35.6506V110.301H38.6503V109.267Z" fill="#C2C8CF"/>
<path d="M15.0649 134.467C15.0649 131.028 10.0528 132.521 10.0528 130.122C10.0528 129.122 10.8393 128.602 11.839 128.629C12.9721 128.642 13.5586 129.349 13.6386 129.975H14.9716C14.825 128.562 13.6653 127.589 11.8924 127.589C10.0528 127.589 8.81313 128.629 8.81313 130.162C8.81313 133.614 13.8385 132.015 13.8385 134.521C13.8385 135.4 13.1454 136.067 11.9723 136.067C10.6793 136.067 10.1328 135.294 10.0528 134.521H8.75981C8.78647 136.054 10.1061 137.093 11.9723 137.093C13.9852 137.093 15.0649 135.787 15.0649 134.467ZM16.85 137H18.063V132.961C18.063 131.388 18.9161 130.615 20.1558 130.615C21.3822 130.615 22.1953 131.375 22.1953 132.868V137H23.395V132.694C23.395 130.602 22.102 129.562 20.4757 129.562C19.4493 129.562 18.5429 129.975 18.063 130.748V127.136H16.85V137ZM25.3765 137H26.5895V129.695H25.3765V137ZM26.003 128.509C26.4429 128.509 26.8028 128.149 26.8028 127.682C26.8028 127.216 26.4429 126.856 26.003 126.856C25.5364 126.856 25.1765 127.216 25.1765 127.682C25.1765 128.149 25.5364 128.509 26.003 128.509ZM29.8699 131.041V129.695H28.6569V140.466H29.8699V135.654C30.3232 136.4 31.2696 137.12 32.6026 137.12C34.5621 137.12 36.0684 135.587 36.0684 133.321C36.0684 131.041 34.5621 129.575 32.6026 129.575C31.2696 129.575 30.3098 130.268 29.8699 131.041ZM34.8287 133.321C34.8287 135.04 33.6957 136.054 32.3493 136.054C31.0297 136.054 29.8699 135.054 29.8699 133.334C29.8699 131.641 31.0297 130.628 32.3493 130.628C33.6957 130.628 34.8287 131.601 34.8287 133.321ZM40.7657 132.348C40.7657 135.134 42.8052 137.08 45.4045 137.08C47.4173 137.08 49.0169 136.08 49.7101 134.294H48.2571C47.7506 135.4 46.7642 136.027 45.4045 136.027C43.4583 136.027 42.0054 134.614 42.0054 132.348C42.0054 130.068 43.4583 128.655 45.4045 128.655C46.7642 128.655 47.7506 129.282 48.2571 130.402H49.7101C49.0169 128.602 47.4173 127.589 45.4045 127.589C42.8052 127.589 40.7657 129.562 40.7657 132.348ZM58.4474 133.334C58.4474 131.028 56.8345 129.575 54.755 129.575C52.6888 129.575 51.0626 131.028 51.0626 133.334C51.0626 135.654 52.6355 137.12 54.7017 137.12C56.7811 137.12 58.4474 135.654 58.4474 133.334ZM52.3023 133.334C52.3023 131.495 53.462 130.628 54.7416 130.628C55.9947 130.628 57.2077 131.495 57.2077 133.334C57.2077 135.187 55.968 136.054 54.7017 136.054C53.4353 136.054 52.3023 135.187 52.3023 133.334ZM59.1759 129.695L62.0418 137H63.4548L66.3207 129.695H65.0277L62.7616 135.88L60.4822 129.695H59.1759ZM70.6203 130.602C71.8733 130.602 72.9397 131.388 72.9264 132.814H68.3142C68.4475 131.388 69.4339 130.602 70.6203 130.602ZM74.0328 134.747H72.7264C72.4598 135.534 71.7667 136.094 70.6736 136.094C69.4339 136.094 68.3942 135.28 68.3009 133.801H74.1394C74.1661 133.548 74.1794 133.334 74.1794 133.068C74.1794 131.068 72.7931 129.575 70.6736 129.575C68.5408 129.575 67.0612 131.028 67.0612 133.334C67.0612 135.654 68.5941 137.12 70.6736 137.12C72.4865 137.12 73.6595 136.08 74.0328 134.747Z" fill="#5D6B7E"/>
<path d="M13.7328 160H14.9993V152.279H13.7328V155.589H10.0998V152.279H8.83325V160H10.0998V156.623H13.7328V160ZM20.9329 152.267H16.6667V160H20.9329V158.967H17.9332V156.6H20.5996V155.567H17.9332V153.301H20.9329V152.267ZM27.0147 160H28.4368L26.037 156.145L28.4479 152.279H27.0369L25.3926 155.1L23.6372 152.279H22.2152L24.626 156.145L22.2263 160H23.6372L25.2704 157.2L27.0147 160Z" fill="#C2C8CF"/>
<path d="M15.3182 172.655C15.1582 171.309 14.2251 170.162 12.3856 170.162C9.94618 170.162 8.97309 172.029 8.97309 175.055C8.97309 177.974 9.65292 180.027 12.5055 180.027C14.6117 180.027 15.6514 178.587 15.6514 176.827C15.6514 174.801 14.4384 173.615 12.6388 173.615C11.4925 173.615 10.4394 174.148 10.0262 175.095C10.0128 172.229 10.8393 171.176 12.3722 171.176C13.4653 171.176 14.0118 171.722 14.1985 172.655H15.3182ZM12.3856 174.641C13.7719 174.641 14.4784 175.508 14.4784 176.867C14.4784 178.174 13.6919 179.014 12.4389 179.014C10.9193 179.014 10.1728 178.014 10.1728 176.734C10.1728 175.295 11.2792 174.641 12.3856 174.641ZM19.0474 174.988C17.9677 175.308 17.2612 176.188 17.2612 177.401C17.2612 179.147 18.6342 180.267 20.6604 180.267C22.6999 180.267 24.0862 179.147 24.0862 177.401C24.0862 176.201 23.3797 175.321 22.2866 174.988C23.2331 174.615 23.8329 173.815 23.8329 172.775C23.8329 171.375 22.7532 170.216 20.6604 170.216C18.5676 170.216 17.5012 171.362 17.5012 172.775C17.5012 173.855 18.061 174.601 19.0474 174.988ZM20.6604 174.588C19.4873 174.588 18.6742 173.935 18.6742 172.935C18.6742 171.802 19.474 171.229 20.6604 171.229C21.8734 171.229 22.6599 171.815 22.6599 172.922C22.6599 173.922 21.8467 174.588 20.6604 174.588ZM20.6604 175.521C21.9267 175.521 22.8865 176.121 22.8865 177.361C22.8865 178.48 22.0334 179.254 20.6604 179.254C19.2874 179.254 18.4209 178.494 18.4209 177.361C18.4209 176.081 19.4207 175.521 20.6604 175.521ZM27.4568 174.988C26.3771 175.308 25.6706 176.188 25.6706 177.401C25.6706 179.147 27.0436 180.267 29.0697 180.267C31.1092 180.267 32.4955 179.147 32.4955 177.401C32.4955 176.201 31.7891 175.321 30.696 174.988C31.6424 174.615 32.2423 173.815 32.2423 172.775C32.2423 171.375 31.1625 170.216 29.0697 170.216C26.9769 170.216 25.9105 171.362 25.9105 172.775C25.9105 173.855 26.4704 174.601 27.4568 174.988ZM29.0697 174.588C27.8967 174.588 27.0836 173.935 27.0836 172.935C27.0836 171.802 27.8834 171.229 29.0697 171.229C30.2828 171.229 31.0692 171.815 31.0692 172.922C31.0692 173.922 30.2561 174.588 29.0697 174.588ZM29.0697 175.521C30.3361 175.521 31.2958 176.121 31.2958 177.361C31.2958 178.48 30.4427 179.254 29.0697 179.254C27.6967 179.254 26.8303 178.494 26.8303 177.361C26.8303 176.081 27.83 175.521 29.0697 175.521ZM40.545 180H41.8247L38.4788 170.762H37.0792L33.72 180H34.9997L35.7462 177.934H39.7985L40.545 180ZM39.4519 176.947H36.0928L37.7723 172.255L39.4519 176.947ZM48.5674 177.387C48.5674 178.4 47.8475 179 46.6478 179H44.5017V175.721H46.6078C47.7942 175.721 48.5674 176.361 48.5674 177.387ZM48.3274 173.215C48.3274 174.161 47.6742 174.721 46.5412 174.721H44.5017V171.709H46.5145C47.7009 171.709 48.3274 172.295 48.3274 173.215ZM49.7804 177.507C49.7804 176.361 48.9539 175.388 47.9408 175.215C48.834 174.921 49.5671 174.241 49.5671 173.068C49.5671 171.775 48.5807 170.709 46.6212 170.709H43.2887V180H46.7545C48.674 180 49.7804 178.907 49.7804 177.507ZM57.7022 180H58.9818L55.636 170.762H54.2364L50.8772 180H52.1569L52.9034 177.934H56.9557L57.7022 180ZM56.6091 176.947H53.2499L54.9295 172.255L56.6091 176.947Z" fill="#5D6B7E"/>
<path d="M0 194H112V214C112 216.209 110.209 218 108 218H4C1.79086 218 0 216.209 0 214V194Z" fill="#EDEFF1"/>
<path d="M10.0998 205.834V203.312H11.4997C12.4884 203.312 12.9328 203.778 12.9328 204.578C12.9328 205.356 12.4884 205.834 11.4997 205.834H10.0998ZM14.2327 204.578C14.2327 203.323 13.3328 202.279 11.4997 202.279H8.83325V210H10.0998V206.867H11.4997C13.5106 206.867 14.2327 205.678 14.2327 204.578ZM20.6513 210H21.9845L19.2181 202.267H17.7515L14.9852 210H16.3072L16.8627 208.422H20.0958L20.6513 210ZM19.7402 207.389H17.2183L18.4848 203.801L19.7402 207.389ZM26.7092 202.179C24.5316 202.179 22.7651 203.812 22.7651 206.123C22.7651 208.445 24.5316 210.067 26.7092 210.067C28.7867 210.067 30.2977 208.545 30.531 206.756V205.767H26.2759V206.778H29.1756C28.9867 208.078 28.109 208.922 26.7092 208.922C25.176 208.922 24.065 207.822 24.065 206.123C24.065 204.423 25.176 203.334 26.7092 203.334C27.6313 203.334 28.3645 203.723 28.7756 204.501H30.2977C29.7089 202.99 28.3201 202.179 26.7092 202.179ZM36.0464 202.267H31.7802V210H36.0464V208.967H33.0467V206.6H35.7131V205.567H33.0467V203.301H36.0464V202.267ZM37.4175 203.901H38.6508C38.7285 203.334 39.1396 202.801 40.0284 202.801C40.895 202.801 41.3505 203.267 41.3505 203.967C41.3505 204.834 40.6506 205.167 39.5062 205.178H39.2063V206.223H39.4951C40.8172 206.223 41.506 206.589 41.506 207.656C41.506 208.411 41.0394 208.989 40.0951 208.989C39.1396 208.989 38.5841 208.411 38.5285 207.656H37.3064C37.3842 209.245 38.573 210.044 40.1062 210.044C41.7949 210.044 42.7059 209.067 42.7059 207.778C42.7059 206.656 42.1615 205.956 41.3172 205.7V205.656C41.9504 205.445 42.5615 204.789 42.5615 203.823C42.5615 202.645 41.6838 201.712 40.0728 201.712C38.5952 201.712 37.5064 202.501 37.4175 203.901ZM44.0363 205.845C44.0363 208.2 44.6585 209.978 46.9249 209.978C49.1914 209.978 49.8135 208.2 49.8135 205.845C49.8135 203.534 49.1914 201.756 46.9249 201.756C44.6585 201.756 44.0363 203.534 44.0363 205.845ZM48.5692 205.845C48.5692 207.434 48.4026 208.822 46.9249 208.822C45.4473 208.822 45.2806 207.434 45.2806 205.845C45.2806 204.334 45.4473 202.912 46.9249 202.912C48.4026 202.912 48.5692 204.334 48.5692 205.845ZM51.1537 205.845C51.1537 208.2 51.7758 209.978 54.0423 209.978C56.3087 209.978 56.9309 208.2 56.9309 205.845C56.9309 203.534 56.3087 201.756 54.0423 201.756C51.7758 201.756 51.1537 203.534 51.1537 205.845ZM55.6865 205.845C55.6865 207.434 55.5199 208.822 54.0423 208.822C52.5646 208.822 52.398 207.434 52.398 205.845C52.398 204.334 52.5646 202.912 54.0423 202.912C55.5199 202.912 55.6865 204.334 55.6865 205.845Z" fill="#9AA3AF"/>
</svg>
