<svg width="112" height="218" viewBox="0 0 112 218" fill="none" xmlns="http://www.w3.org/2000/svg">
<rect y="100" width="112" height="94" fill="#F9FAFA"/>
<path d="M0 4C0 1.79086 1.79086 0 4 0H108C110.209 0 112 1.79086 112 4V100H0V4Z" fill="#426DA9"/>
<path d="M13.9105 109.267V115.022L10.0998 109.267H8.83325V117H10.0998V111.234L13.9105 117H15.1771V109.267H13.9105ZM22.0509 117H23.3841L20.6177 109.267H19.1511L16.3848 117H17.7068L18.2623 115.422H21.4954L22.0509 117ZM21.1398 114.389H18.6179L19.8844 110.801L21.1398 114.389ZM24.5869 117H25.8534V111.712L28.2199 117H29.0975L31.4529 111.712V117H32.7194V109.279H31.364L28.6643 115.333L25.9534 109.279H24.5869V117ZM38.6503 109.267H34.3841V117H38.6503V115.967H35.6506V113.6H38.317V112.567H35.6506V110.301H38.6503V109.267Z" fill="#C2C8CF"/>
<path d="M15.0649 134.467C15.0649 131.028 10.0528 132.521 10.0528 130.122C10.0528 129.122 10.8393 128.602 11.839 128.629C12.9721 128.642 13.5586 129.349 13.6386 129.975H14.9716C14.825 128.562 13.6653 127.589 11.8924 127.589C10.0528 127.589 8.81313 128.629 8.81313 130.162C8.81313 133.614 13.8385 132.015 13.8385 134.521C13.8385 135.4 13.1454 136.067 11.9723 136.067C10.6793 136.067 10.1328 135.294 10.0528 134.521H8.75981C8.78647 136.054 10.1061 137.093 11.9723 137.093C13.9852 137.093 15.0649 135.787 15.0649 134.467ZM16.3968 133.321C16.3968 135.587 17.903 137.12 19.8492 137.12C21.1956 137.12 22.142 136.427 22.5819 135.64V137H23.8082V129.695H22.5819V131.028C22.1553 130.268 21.2222 129.575 19.8626 129.575C17.903 129.575 16.3968 131.041 16.3968 133.321ZM22.5819 133.334C22.5819 135.054 21.4355 136.054 20.1025 136.054C18.7695 136.054 17.6364 135.04 17.6364 133.321C17.6364 131.601 18.7695 130.628 20.1025 130.628C21.4355 130.628 22.5819 131.641 22.5819 133.334ZM31.2035 137H32.4032V132.694C32.4032 130.602 31.1102 129.562 29.4173 129.562C28.4308 129.562 27.5511 129.975 27.0712 130.735V129.695H25.8581V137H27.0712V132.961C27.0712 131.388 27.9243 130.615 29.164 130.615C30.3903 130.615 31.2035 131.375 31.2035 132.868V137ZM37.9385 137H39.1515V130.108L42.2307 137H43.0838L46.1497 130.122V137H47.3628V127.776H46.0698L42.6573 135.4L39.2448 127.776H37.9385V137ZM48.9667 133.321C48.9667 135.587 50.473 137.12 52.4192 137.12C53.7655 137.12 54.712 136.427 55.1519 135.64V137H56.3782V129.695H55.1519V131.028C54.7253 130.268 53.7922 129.575 52.4325 129.575C50.473 129.575 48.9667 131.041 48.9667 133.321ZM55.1519 133.334C55.1519 135.054 54.0055 136.054 52.6725 136.054C51.3395 136.054 50.2064 135.04 50.2064 133.321C50.2064 131.601 51.3395 130.628 52.6725 130.628C54.0055 130.628 55.1519 131.641 55.1519 133.334ZM59.6412 133.028C59.6412 131.335 60.5209 130.815 61.6806 130.815H62.0006V129.562C60.8409 129.562 60.0544 130.068 59.6412 130.882V129.695H58.4281V137H59.6412V133.028ZM63.4008 137H64.6139V129.695H63.4008V137ZM64.0273 128.509C64.4672 128.509 64.8271 128.149 64.8271 127.682C64.8271 127.216 64.4672 126.856 64.0273 126.856C63.5608 126.856 63.2009 127.216 63.2009 127.682C63.2009 128.149 63.5608 128.509 64.0273 128.509ZM72.0266 137H73.2263V132.694C73.2263 130.602 71.9333 129.562 70.2404 129.562C69.254 129.562 68.3742 129.975 67.8943 130.735V129.695H66.6813V137H67.8943V132.961C67.8943 131.388 68.7474 130.615 69.9871 130.615C71.2135 130.615 72.0266 131.375 72.0266 132.868V137ZM82.1394 133.334C82.1394 131.028 80.5264 129.575 78.447 129.575C76.3808 129.575 74.7546 131.028 74.7546 133.334C74.7546 135.654 76.3275 137.12 78.3936 137.12C80.4731 137.12 82.1394 135.654 82.1394 133.334ZM75.9942 133.334C75.9942 131.495 77.154 130.628 78.4336 130.628C79.6867 130.628 80.8997 131.495 80.8997 133.334C80.8997 135.187 79.66 136.054 78.3936 136.054C77.1273 136.054 75.9942 135.187 75.9942 133.334Z" fill="#5D6B7E"/>
<path d="M13.7328 160H14.9993V152.279H13.7328V155.589H10.0998V152.279H8.83325V160H10.0998V156.623H13.7328V160ZM20.9329 152.267H16.6667V160H20.9329V158.967H17.9332V156.6H20.5996V155.567H17.9332V153.301H20.9329V152.267ZM27.0147 160H28.4368L26.037 156.145L28.4479 152.279H27.0369L25.3926 155.1L23.6372 152.279H22.2152L24.626 156.145L22.2263 160H23.6372L25.2704 157.2L27.0147 160Z" fill="#C2C8CF"/>
<path d="M13.4653 180H14.665V177.854H15.998V176.801H14.665V170.456H13.212L8.5332 176.934V177.854H13.4653V180ZM9.93285 176.801L13.5186 171.722V176.801H9.93285ZM17.0631 179.893H23.4749V178.88H18.8894C20.6089 177.481 23.195 175.441 23.195 173.042C23.195 171.256 22.0219 170.189 20.209 170.189C18.4761 170.189 17.1831 171.256 17.1031 173.308H18.2762C18.3295 172.095 18.9693 171.229 20.2224 171.229C21.5287 171.229 21.9953 172.029 21.9953 173.095C21.9953 175.068 19.5958 176.987 17.0631 179.027V179.893ZM31.3688 172.655C31.2089 171.309 30.2758 170.162 28.4362 170.162C25.9969 170.162 25.0238 172.029 25.0238 175.055C25.0238 177.974 25.7036 180.027 28.5562 180.027C30.6624 180.027 31.7021 178.587 31.7021 176.827C31.7021 174.801 30.4891 173.615 28.6895 173.615C27.5431 173.615 26.4901 174.148 26.0768 175.095C26.0635 172.229 26.89 171.176 28.4229 171.176C29.516 171.176 30.0625 171.722 30.2491 172.655H31.3688ZM28.4362 174.641C29.8226 174.641 30.5291 175.508 30.5291 176.867C30.5291 178.174 29.7426 179.014 28.4896 179.014C26.9699 179.014 26.2235 178.014 26.2235 176.734C26.2235 175.295 27.3299 174.641 28.4362 174.641ZM36.4311 170.709H33.5385V180H36.4311C39.4837 180 41.3632 178.254 41.3632 175.374C41.3632 172.495 39.4837 170.709 36.4311 170.709ZM34.7515 179V171.695H36.4311C38.8572 171.695 40.1235 173.108 40.1235 175.374C40.1235 177.641 38.8572 179 36.4311 179H34.7515ZM49.2017 180H50.4814L47.1355 170.762H45.7359L42.3767 180H43.6564L44.4029 177.934H48.4552L49.2017 180ZM48.1086 176.947H44.7495L46.429 172.255L48.1086 176.947ZM52.1853 177.414C52.3186 178.827 53.2517 180.013 55.1712 180.013C57.7039 180.013 58.4371 178.214 58.4371 175.001C58.4371 172.015 57.6773 170.176 55.0646 170.176C52.9851 170.176 51.892 171.509 51.892 173.348C51.892 175.388 53.2117 176.494 54.9846 176.494C56.0243 176.494 56.9841 176.028 57.3707 175.215C57.4107 178.04 56.6509 179 55.2379 179C54.1182 179 53.4783 178.414 53.305 177.414H52.1853ZM55.1846 175.468C53.7449 175.468 53.0518 174.561 53.0518 173.322C53.0518 172.042 53.8382 171.189 55.0912 171.189C56.4776 171.189 57.224 172.109 57.224 173.415C57.224 174.708 56.3443 175.468 55.1846 175.468Z" fill="#5D6B7E"/>
<path d="M0 194H112V214C112 216.209 110.209 218 108 218H4C1.79086 218 0 216.209 0 214V194Z" fill="#EDEFF1"/>
<path d="M10.0998 205.834V203.312H11.4997C12.4884 203.312 12.9328 203.778 12.9328 204.578C12.9328 205.356 12.4884 205.834 11.4997 205.834H10.0998ZM14.2327 204.578C14.2327 203.323 13.3328 202.279 11.4997 202.279H8.83325V210H10.0998V206.867H11.4997C13.5106 206.867 14.2327 205.678 14.2327 204.578ZM20.6513 210H21.9845L19.2181 202.267H17.7515L14.9852 210H16.3072L16.8627 208.422H20.0958L20.6513 210ZM19.7402 207.389H17.2183L18.4848 203.801L19.7402 207.389ZM26.7092 202.179C24.5316 202.179 22.7651 203.812 22.7651 206.123C22.7651 208.445 24.5316 210.067 26.7092 210.067C28.7867 210.067 30.2977 208.545 30.531 206.756V205.767H26.2759V206.778H29.1756C28.9867 208.078 28.109 208.922 26.7092 208.922C25.176 208.922 24.065 207.822 24.065 206.123C24.065 204.423 25.176 203.334 26.7092 203.334C27.6313 203.334 28.3645 203.723 28.7756 204.501H30.2977C29.7089 202.99 28.3201 202.179 26.7092 202.179ZM36.0464 202.267H31.7802V210H36.0464V208.967H33.0467V206.6H35.7131V205.567H33.0467V203.301H36.0464V202.267ZM41.306 210H42.5504V208.311H43.5836V207.211H42.5504V202.001H41.0172L37.2842 207.356V208.311H41.306V210ZM38.7396 207.211L41.3616 203.29V207.211H38.7396ZM44.6331 205.845C44.6331 208.2 45.2552 209.978 47.5217 209.978C49.7881 209.978 50.4103 208.2 50.4103 205.845C50.4103 203.534 49.7881 201.756 47.5217 201.756C45.2552 201.756 44.6331 203.534 44.6331 205.845ZM49.1659 205.845C49.1659 207.434 48.9993 208.822 47.5217 208.822C46.044 208.822 45.8774 207.434 45.8774 205.845C45.8774 204.334 46.044 202.912 47.5217 202.912C48.9993 202.912 49.1659 204.334 49.1659 205.845ZM51.7504 205.845C51.7504 208.2 52.3726 209.978 54.639 209.978C56.9054 209.978 57.5276 208.2 57.5276 205.845C57.5276 203.534 56.9054 201.756 54.639 201.756C52.3726 201.756 51.7504 203.534 51.7504 205.845ZM56.2833 205.845C56.2833 207.434 56.1166 208.822 54.639 208.822C53.1614 208.822 52.9947 207.434 52.9947 205.845C52.9947 204.334 53.1614 202.912 54.639 202.912C56.1166 202.912 56.2833 204.334 56.2833 205.845Z" fill="#9AA3AF"/>
</svg>
