<svg width="112" height="218" viewBox="0 0 112 218" fill="none" xmlns="http://www.w3.org/2000/svg">
<rect y="100" width="112" height="94" fill="#F9FAFA"/>
<path d="M0 4C0 1.79086 1.79086 0 4 0H108C110.209 0 112 1.79086 112 4V100H0V4Z" fill="#284165"/>
<path d="M13.9105 109.267V115.022L10.0998 109.267H8.83325V117H10.0998V111.234L13.9105 117H15.1771V109.267H13.9105ZM22.0509 117H23.3841L20.6177 109.267H19.1511L16.3848 117H17.7068L18.2623 115.422H21.4954L22.0509 117ZM21.1398 114.389H18.6179L19.8844 110.801L21.1398 114.389ZM24.5869 117H25.8534V111.712L28.2199 117H29.0975L31.4529 111.712V117H32.7194V109.279H31.364L28.6643 115.333L25.9534 109.279H24.5869V117ZM38.6503 109.267H34.3841V117H38.6503V115.967H35.6506V113.6H38.317V112.567H35.6506V110.301H38.6503V109.267Z" fill="#C2C8CF"/>
<path d="M11.919 127.709H9.02641V137H11.919C14.9716 137 16.8511 135.254 16.8511 132.374C16.8511 129.495 14.9716 127.709 11.919 127.709ZM10.2394 136V128.695H11.919C14.3451 128.695 15.6114 130.108 15.6114 132.374C15.6114 134.641 14.3451 136 11.919 136H10.2394ZM21.557 130.602C22.81 130.602 23.8764 131.388 23.8631 132.814H19.2509C19.3842 131.388 20.3707 130.602 21.557 130.602ZM24.9695 134.747H23.6632C23.3966 135.534 22.7034 136.094 21.6103 136.094C20.3707 136.094 19.3309 135.28 19.2376 133.801H25.0761C25.1028 133.548 25.1161 133.334 25.1161 133.068C25.1161 131.068 23.7298 129.575 21.6103 129.575C19.4775 129.575 17.9979 131.028 17.9979 133.334C17.9979 135.654 19.5309 137.12 21.6103 137.12C23.4232 137.12 24.5963 136.08 24.9695 134.747ZM29.8232 130.602C31.0762 130.602 32.1426 131.388 32.1293 132.814H27.5171C27.6504 131.388 28.6368 130.602 29.8232 130.602ZM33.2357 134.747H31.9293C31.6627 135.534 30.9696 136.094 29.8765 136.094C28.6368 136.094 27.5971 135.28 27.5038 133.801H33.3423C33.369 133.548 33.3823 133.334 33.3823 133.068C33.3823 131.068 31.996 129.575 29.8765 129.575C27.7437 129.575 26.2641 131.028 26.2641 133.334C26.2641 135.654 27.797 137.12 29.8765 137.12C31.6894 137.12 32.8624 136.08 33.2357 134.747ZM36.1965 131.041V129.695H34.9835V140.466H36.1965V135.654C36.6497 136.4 37.5961 137.12 38.9291 137.12C40.8887 137.12 42.3949 135.587 42.3949 133.321C42.3949 131.041 40.8887 129.575 38.9291 129.575C37.5961 129.575 36.6364 130.268 36.1965 131.041ZM41.1553 133.321C41.1553 135.04 40.0222 136.054 38.6759 136.054C37.3562 136.054 36.1965 135.054 36.1965 133.334C36.1965 131.641 37.3562 130.628 38.6759 130.628C40.0222 130.628 41.1553 131.601 41.1553 133.321ZM14.0652 158H15.6514L11.3992 153.361L15.6114 148.709H14.0785L10.2394 153.015V148.709H9.02641V158H10.2394V153.761L14.0652 158ZM23.9378 154.334C23.9378 152.028 22.3249 150.575 20.2454 150.575C18.1792 150.575 16.553 152.028 16.553 154.334C16.553 156.654 18.1259 158.12 20.1921 158.12C22.2715 158.12 23.9378 156.654 23.9378 154.334ZM17.7927 154.334C17.7927 152.495 18.9524 151.628 20.232 151.628C21.4851 151.628 22.6981 152.495 22.6981 154.334C22.6981 156.187 21.4584 157.054 20.1921 157.054C18.9257 157.054 17.7927 156.187 17.7927 154.334ZM25.0795 154.321C25.0795 156.587 26.5858 158.12 28.532 158.12C29.8783 158.12 30.8247 157.427 31.2646 156.64V158H32.491V150.695H31.2646V152.028C30.838 151.268 29.9049 150.575 28.5453 150.575C26.5858 150.575 25.0795 152.041 25.0795 154.321ZM31.2646 154.334C31.2646 156.054 30.1182 157.054 28.7852 157.054C27.4522 157.054 26.3192 156.04 26.3192 154.321C26.3192 152.601 27.4522 151.628 28.7852 151.628C30.1182 151.628 31.2646 152.641 31.2646 154.334ZM45.0849 158H46.2846V153.694C46.2846 151.602 44.9916 150.562 43.3253 150.562C42.2056 150.562 41.1659 151.135 40.7393 152.188C40.2594 151.095 39.2597 150.562 38.06 150.562C37.1002 150.562 36.2338 150.975 35.7539 151.748V150.695H34.5409V158H35.7539V153.974C35.7539 152.401 36.5937 151.615 37.82 151.615C39.0197 151.615 39.8195 152.375 39.8195 153.868V158H41.0192V153.974C41.0192 152.401 41.859 151.615 43.0854 151.615C44.2851 151.615 45.0849 152.375 45.0849 153.868V158ZM47.8212 154.321C47.8212 156.587 49.3275 158.12 51.2737 158.12C52.62 158.12 53.5664 157.427 54.0063 156.64V158H55.2327V150.695H54.0063V152.028C53.5798 151.268 52.6467 150.575 51.287 150.575C49.3275 150.575 47.8212 152.041 47.8212 154.321ZM54.0063 154.334C54.0063 156.054 52.8599 157.054 51.5269 157.054C50.1939 157.054 49.0609 156.04 49.0609 154.321C49.0609 152.601 50.1939 151.628 51.5269 151.628C52.8599 151.628 54.0063 152.641 54.0063 154.334ZM58.4956 154.028C58.4956 152.335 59.3754 151.815 60.5351 151.815H60.855V150.562C59.6953 150.562 58.9088 151.068 58.4956 151.882V150.695H57.2826V158H58.4956V154.028ZM68.7337 150.695H67.5206V154.707C67.5206 156.28 66.6808 157.054 65.4278 157.054C64.2015 157.054 63.3883 156.294 63.3883 154.814V150.695H62.1886V154.974C62.1886 157.067 63.5083 158.107 65.1879 158.107C66.161 158.107 67.0541 157.68 67.5206 156.92V158H68.7337V150.695Z" fill="#5D6B7E"/>
<path d="M13.7328 160H14.9993V152.279H13.7328V155.589H10.0998V152.279H8.83325V160H10.0998V156.623H13.7328V160ZM20.9329 152.267H16.6667V160H20.9329V158.967H17.9332V156.6H20.5996V155.567H17.9332V153.301H20.9329V152.267ZM27.0147 160H28.4368L26.037 156.145L28.4479 152.279H27.0369L25.3926 155.1L23.6372 152.279H22.2152L24.626 156.145L22.2263 160H23.6372L25.2704 157.2L27.0147 160Z" fill="#C2C8CF"/>
<path d="M8.67983 179.893H15.0916V178.88H10.506C12.2256 177.481 14.8116 175.441 14.8116 173.042C14.8116 171.256 13.6386 170.189 11.8257 170.189C10.0928 170.189 8.7998 171.256 8.71982 173.308H9.89286C9.94618 172.095 10.586 171.229 11.839 171.229C13.1454 171.229 13.6119 172.029 13.6119 173.095C13.6119 175.068 11.2125 176.987 8.67983 179.027V179.893ZM18.2534 174.988C17.1736 175.308 16.4672 176.188 16.4672 177.401C16.4672 179.147 17.8401 180.267 19.8663 180.267C21.9058 180.267 23.2921 179.147 23.2921 177.401C23.2921 176.201 22.5856 175.321 21.4926 174.988C22.439 174.615 23.0388 173.815 23.0388 172.775C23.0388 171.375 21.9591 170.216 19.8663 170.216C17.7735 170.216 16.7071 171.362 16.7071 172.775C16.7071 173.855 17.267 174.601 18.2534 174.988ZM19.8663 174.588C18.6933 174.588 17.8801 173.935 17.8801 172.935C17.8801 171.802 18.6799 171.229 19.8663 171.229C21.0793 171.229 21.8658 171.815 21.8658 172.922C21.8658 173.922 21.0527 174.588 19.8663 174.588ZM19.8663 175.521C21.1327 175.521 22.0924 176.121 22.0924 177.361C22.0924 178.48 21.2393 179.254 19.8663 179.254C18.4933 179.254 17.6269 178.494 17.6269 177.361C17.6269 176.081 18.6266 175.521 19.8663 175.521ZM29.542 180H30.7417V177.854H32.0747V176.801H30.7417V170.456H29.2887L24.6099 176.934V177.854H29.542V180ZM26.0096 176.801L29.5953 171.722V176.801H26.0096ZM34.2462 180H35.4726V170.362H32.9666V171.469H34.2462V180ZM44.048 172.655C43.888 171.309 42.9549 170.162 41.1154 170.162C38.676 170.162 37.7029 172.029 37.7029 175.055C37.7029 177.974 38.3827 180.027 41.2353 180.027C43.3415 180.027 44.3812 178.587 44.3812 176.827C44.3812 174.801 43.1682 173.615 41.3686 173.615C40.2223 173.615 39.1692 174.148 38.756 175.095C38.7426 172.229 39.5691 171.176 41.102 171.176C42.1951 171.176 42.7416 171.722 42.9282 172.655H44.048ZM41.1154 174.641C42.5017 174.641 43.2082 175.508 43.2082 176.867C43.2082 178.174 42.4217 179.014 41.1687 179.014C39.6491 179.014 38.9026 178.014 38.9026 176.734C38.9026 175.295 40.009 174.641 41.1154 174.641ZM46.3643 170.349V175.788H47.5106C47.8306 175.028 48.537 174.521 49.5101 174.521C50.9098 174.521 51.6163 175.321 51.6163 176.694C51.6163 178.014 50.9631 179 49.4968 179C48.3638 179 47.5773 178.4 47.3507 177.387H46.1643C46.4042 178.947 47.564 180.027 49.4835 180.027C51.7362 180.027 52.776 178.534 52.776 176.668C52.776 175.175 52.0295 173.482 49.6834 173.482C48.737 173.482 47.8839 173.908 47.484 174.455V171.415H52.1628V170.349H46.3643Z" fill="#5D6B7E"/>
<path d="M0 194H112V214C112 216.209 110.209 218 108 218H4C1.79086 218 0 216.209 0 214V194Z" fill="#EDEFF1"/>
<path d="M10.0998 205.834V203.312H11.4997C12.4884 203.312 12.9328 203.778 12.9328 204.578C12.9328 205.356 12.4884 205.834 11.4997 205.834H10.0998ZM14.2327 204.578C14.2327 203.323 13.3328 202.279 11.4997 202.279H8.83325V210H10.0998V206.867H11.4997C13.5106 206.867 14.2327 205.678 14.2327 204.578ZM20.6513 210H21.9845L19.2181 202.267H17.7515L14.9852 210H16.3072L16.8627 208.422H20.0958L20.6513 210ZM19.7402 207.389H17.2183L18.4848 203.801L19.7402 207.389ZM26.7092 202.179C24.5316 202.179 22.7651 203.812 22.7651 206.123C22.7651 208.445 24.5316 210.067 26.7092 210.067C28.7867 210.067 30.2977 208.545 30.531 206.756V205.767H26.2759V206.778H29.1756C28.9867 208.078 28.109 208.922 26.7092 208.922C25.176 208.922 24.065 207.822 24.065 206.123C24.065 204.423 25.176 203.334 26.7092 203.334C27.6313 203.334 28.3645 203.723 28.7756 204.501H30.2977C29.7089 202.99 28.3201 202.179 26.7092 202.179ZM36.0464 202.267H31.7802V210H36.0464V208.967H33.0467V206.6H35.7131V205.567H33.0467V203.301H36.0464V202.267ZM42.9614 203.778C42.8281 202.701 42.0393 201.701 40.4617 201.701C38.4397 201.701 37.5953 203.234 37.5953 205.767C37.5953 208.345 38.2064 210 40.5617 210C42.2948 210 43.217 208.833 43.217 207.3C43.217 205.612 42.1837 204.634 40.7283 204.634C39.884 204.634 39.084 204.989 38.6841 205.656C38.7174 203.534 39.3062 202.756 40.4506 202.756C41.2505 202.756 41.6393 203.123 41.7949 203.778H42.9614ZM40.4506 205.7C41.5171 205.7 42.006 206.389 42.006 207.356C42.006 208.311 41.4283 208.945 40.495 208.945C39.4173 208.945 38.8285 208.278 38.8285 207.278C38.8285 206.2 39.6173 205.7 40.4506 205.7ZM44.568 205.845C44.568 208.2 45.1901 209.978 47.4566 209.978C49.723 209.978 50.3452 208.2 50.3452 205.845C50.3452 203.534 49.723 201.756 47.4566 201.756C45.1901 201.756 44.568 203.534 44.568 205.845ZM49.1008 205.845C49.1008 207.434 48.9342 208.822 47.4566 208.822C45.9789 208.822 45.8123 207.434 45.8123 205.845C45.8123 204.334 45.9789 202.912 47.4566 202.912C48.9342 202.912 49.1008 204.334 49.1008 205.845ZM51.6853 205.845C51.6853 208.2 52.3075 209.978 54.5739 209.978C56.8403 209.978 57.4625 208.2 57.4625 205.845C57.4625 203.534 56.8403 201.756 54.5739 201.756C52.3075 201.756 51.6853 203.534 51.6853 205.845ZM56.2182 205.845C56.2182 207.434 56.0515 208.822 54.5739 208.822C53.0963 208.822 52.9296 207.434 52.9296 205.845C52.9296 204.334 53.0963 202.912 54.5739 202.912C56.0515 202.912 56.2182 204.334 56.2182 205.845Z" fill="#9AA3AF"/>
</svg>
