<svg width="112" height="218" viewBox="0 0 112 218" fill="none" xmlns="http://www.w3.org/2000/svg">
<rect y="100" width="112" height="94" fill="#F9FAFA"/>
<path d="M0 4C0 1.79086 1.79086 0 4 0H108C110.209 0 112 1.79086 112 4V100H0V4Z" fill="#B3C5DD"/>
<path d="M13.9105 109.267V115.022L10.0998 109.267H8.83325V117H10.0998V111.234L13.9105 117H15.1771V109.267H13.9105ZM22.0509 117H23.3841L20.6177 109.267H19.1511L16.3848 117H17.7068L18.2623 115.422H21.4954L22.0509 117ZM21.1398 114.389H18.6179L19.8844 110.801L21.1398 114.389ZM24.5869 117H25.8534V111.712L28.2199 117H29.0975L31.4529 111.712V117H32.7194V109.279H31.364L28.6643 115.333L25.9534 109.279H24.5869V117ZM38.6503 109.267H34.3841V117H38.6503V115.967H35.6506V113.6H38.317V112.567H35.6506V110.301H38.6503V109.267Z" fill="#C2C8CF"/>
<path d="M10.2394 132.121V128.709H12.0257C13.412 128.709 13.9985 129.349 13.9985 130.428C13.9985 131.468 13.412 132.121 12.0257 132.121H10.2394ZM15.2382 130.428C15.2382 128.909 14.2118 127.709 12.0257 127.709H9.02641V137H10.2394V133.121H12.0257C14.3318 133.121 15.2382 131.841 15.2382 130.428ZM16.7458 137H17.9589V129.695H16.7458V137ZM17.3723 128.509C17.8122 128.509 18.1721 128.149 18.1721 127.682C18.1721 127.216 17.8122 126.856 17.3723 126.856C16.9058 126.856 16.5459 127.216 16.5459 127.682C16.5459 128.149 16.9058 128.509 17.3723 128.509ZM19.573 133.321C19.573 135.587 21.0793 137.12 23.0388 137.12C24.3718 137.12 25.3183 136.413 25.7582 135.627V137.16C25.7582 138.72 24.7851 139.546 23.4921 139.546C22.2924 139.546 21.4259 138.946 21.1593 138.066H19.9596C20.1996 139.626 21.5725 140.599 23.4921 140.599C25.6382 140.599 26.9845 139.173 26.9845 137.16V129.695H25.7582V131.028C25.3316 130.242 24.3718 129.575 23.0388 129.575C21.0793 129.575 19.573 131.041 19.573 133.321ZM25.7582 133.334C25.7582 135.054 24.6118 136.054 23.2788 136.054C21.9458 136.054 20.8127 135.04 20.8127 133.321C20.8127 131.601 21.9458 130.628 23.2788 130.628C24.6118 130.628 25.7582 131.641 25.7582 133.334ZM32.1403 130.602C33.3933 130.602 34.4597 131.388 34.4464 132.814H29.8342C29.9675 131.388 30.9539 130.602 32.1403 130.602ZM35.5528 134.747H34.2465C33.9799 135.534 33.2867 136.094 32.1936 136.094C30.9539 136.094 29.9142 135.28 29.8209 133.801H35.6594C35.6861 133.548 35.6994 133.334 35.6994 133.068C35.6994 131.068 34.3131 129.575 32.1936 129.575C30.0608 129.575 28.5812 131.028 28.5812 133.334C28.5812 135.654 30.1142 137.12 32.1936 137.12C34.0065 137.12 35.1796 136.08 35.5528 134.747ZM44.2322 133.334C44.2322 131.028 42.6193 129.575 40.5398 129.575C38.4736 129.575 36.8474 131.028 36.8474 133.334C36.8474 135.654 38.4203 137.12 40.4865 137.12C42.5659 137.12 44.2322 135.654 44.2322 133.334ZM38.0871 133.334C38.0871 131.495 39.2468 130.628 40.5264 130.628C41.7795 130.628 42.9925 131.495 42.9925 133.334C42.9925 135.187 41.7528 136.054 40.4865 136.054C39.2201 136.054 38.0871 135.187 38.0871 133.334ZM51.1724 137H52.3721V132.694C52.3721 130.602 51.0791 129.562 49.3862 129.562C48.3998 129.562 47.52 129.975 47.0401 130.735V129.695H45.8271V137H47.0401V132.961C47.0401 131.388 47.8933 130.615 49.1329 130.615C50.3593 130.615 51.1724 131.375 51.1724 132.868V137ZM59.1204 132.121V128.709H60.9067C62.293 128.709 62.8795 129.349 62.8795 130.428C62.8795 131.468 62.293 132.121 60.9067 132.121H59.1204ZM64.1192 130.428C64.1192 128.909 63.0928 127.709 60.9067 127.709H57.9074V137H59.1204V133.121H60.9067C63.2128 133.121 64.1192 131.841 64.1192 130.428ZM72.5584 133.334C72.5584 131.028 70.9455 129.575 68.866 129.575C66.7999 129.575 65.1736 131.028 65.1736 133.334C65.1736 135.654 66.7466 137.12 68.8127 137.12C70.8922 137.12 72.5584 135.654 72.5584 133.334ZM66.4133 133.334C66.4133 131.495 67.573 130.628 68.8527 130.628C70.1057 130.628 71.3187 131.495 71.3187 133.334C71.3187 135.187 70.0791 136.054 68.8127 136.054C67.5464 136.054 66.4133 135.187 66.4133 133.334ZM79.4054 135.014C79.3521 132.401 75.1131 133.348 75.1131 131.615C75.1131 131.028 75.6463 130.602 76.5394 130.602C77.5125 130.602 78.0724 131.135 78.1257 131.868H79.3387C79.2587 130.442 78.1923 129.575 76.5794 129.575C74.9532 129.575 73.9001 130.495 73.9001 131.615C73.9001 134.334 78.219 133.388 78.219 135.014C78.219 135.614 77.6858 136.094 76.726 136.094C75.6996 136.094 75.0731 135.56 75.0065 134.854H73.7535C73.8334 136.187 75.0331 137.12 76.7394 137.12C78.3523 137.12 79.4054 136.214 79.4054 135.014ZM81.3844 135C81.3844 136.467 82.1175 137 83.4105 137H84.5036V135.974H83.6105C82.864 135.974 82.5974 135.72 82.5974 135V130.695H84.5036V129.695H82.5974V127.856H81.3844V129.695H80.4379V130.695H81.3844V135Z" fill="#5D6B7E"/>
<path d="M13.7328 160H14.9993V152.279H13.7328V155.589H10.0998V152.279H8.83325V160H10.0998V156.623H13.7328V160ZM20.9329 152.267H16.6667V160H20.9329V158.967H17.9332V156.6H20.5996V155.567H17.9332V153.301H20.9329V152.267ZM27.0147 160H28.4368L26.037 156.145L28.4479 152.279H27.0369L25.3926 155.1L23.6372 152.279H22.2152L24.626 156.145L22.2263 160H23.6372L25.2704 157.2L27.0147 160Z" fill="#C2C8CF"/>
<path d="M14.3051 177.387C14.3051 178.4 13.5853 179 12.3856 179H10.2394V175.721H12.3456C13.532 175.721 14.3051 176.361 14.3051 177.387ZM14.0652 173.215C14.0652 174.161 13.412 174.721 12.2789 174.721H10.2394V171.709H12.2523C13.4386 171.709 14.0652 172.295 14.0652 173.215ZM15.5181 177.507C15.5181 176.361 14.6917 175.388 13.6786 175.215C14.5717 174.921 15.3048 174.241 15.3048 173.068C15.3048 171.775 14.3184 170.709 12.3589 170.709H9.02641V180H12.4922C14.4117 180 15.5181 178.907 15.5181 177.507ZM16.9748 172.788H18.1612C18.2812 171.855 18.961 171.216 20.0941 171.216C21.2538 171.216 21.8669 171.855 21.8669 172.775C21.8669 173.895 21.0005 174.388 19.3876 174.401H19.0676V175.414H19.3742C21.1071 175.414 22.0536 175.934 22.0536 177.294C22.0536 178.28 21.4404 179.04 20.1474 179.04C18.8677 179.04 18.1212 178.254 18.0012 177.227H16.8282C16.9748 179.094 18.3345 180.067 20.1607 180.067C22.1735 180.067 23.2133 178.894 23.2133 177.401C23.2133 176.014 22.4535 175.188 21.3337 174.921V174.855C22.3468 174.628 23.04 173.762 23.04 172.655C23.04 171.269 22.0136 170.176 20.134 170.176C18.3478 170.176 17.0948 171.136 16.9748 172.788ZM24.5978 175.348C24.5978 178.134 26.6373 180.08 29.2367 180.08C31.2495 180.08 32.8491 179.08 33.5423 177.294H32.0893C31.5827 178.4 30.5963 179.027 29.2367 179.027C27.2905 179.027 25.8375 177.614 25.8375 175.348C25.8375 173.068 27.2905 171.655 29.2367 171.655C30.5963 171.655 31.5827 172.282 32.0893 173.402H33.5423C32.8491 171.602 31.2495 170.589 29.2367 170.589C26.6373 170.589 24.5978 172.562 24.5978 175.348ZM35.4946 170.349V175.788H36.641C36.9609 175.028 37.6674 174.521 38.6405 174.521C40.0401 174.521 40.7466 175.321 40.7466 176.694C40.7466 178.014 40.0934 179 38.6271 179C37.4941 179 36.7076 178.4 36.481 177.387H35.2946C35.5346 178.947 36.6943 180.027 38.6138 180.027C40.8666 180.027 41.9063 178.534 41.9063 176.668C41.9063 175.175 41.1598 173.482 38.8138 173.482C37.8673 173.482 37.0142 173.908 36.6143 174.455V171.415H41.2931V170.349H35.4946ZM46.6109 170.709H43.7183V180H46.6109C49.6634 180 51.543 178.254 51.543 175.374C51.543 172.495 49.6634 170.709 46.6109 170.709ZM44.9313 179V171.695H46.6109C49.0369 171.695 50.3033 173.108 50.3033 175.374C50.3033 177.641 49.0369 179 46.6109 179H44.9313ZM56.0356 170.709H53.143V180H56.0356C59.0882 180 60.9677 178.254 60.9677 175.374C60.9677 172.495 59.0882 170.709 56.0356 170.709ZM54.356 179V171.695H56.0356C58.4617 171.695 59.728 173.108 59.728 175.374C59.728 177.641 58.4617 179 56.0356 179H54.356Z" fill="#5D6B7E"/>
<path d="M0 194H112V214C112 216.209 110.209 218 108 218H4C1.79086 218 0 216.209 0 214V194Z" fill="#EDEFF1"/>
<path d="M10.0998 205.834V203.312H11.4997C12.4884 203.312 12.9328 203.778 12.9328 204.578C12.9328 205.356 12.4884 205.834 11.4997 205.834H10.0998ZM14.2327 204.578C14.2327 203.323 13.3328 202.279 11.4997 202.279H8.83325V210H10.0998V206.867H11.4997C13.5106 206.867 14.2327 205.678 14.2327 204.578ZM20.6513 210H21.9845L19.2181 202.267H17.7515L14.9852 210H16.3072L16.8627 208.422H20.0958L20.6513 210ZM19.7402 207.389H17.2183L18.4848 203.801L19.7402 207.389ZM26.7092 202.179C24.5316 202.179 22.7651 203.812 22.7651 206.123C22.7651 208.445 24.5316 210.067 26.7092 210.067C28.7867 210.067 30.2977 208.545 30.531 206.756V205.767H26.2759V206.778H29.1756C28.9867 208.078 28.109 208.922 26.7092 208.922C25.176 208.922 24.065 207.822 24.065 206.123C24.065 204.423 25.176 203.334 26.7092 203.334C27.6313 203.334 28.3645 203.723 28.7756 204.501H30.2977C29.7089 202.99 28.3201 202.179 26.7092 202.179ZM36.0464 202.267H31.7802V210H36.0464V208.967H33.0467V206.6H35.7131V205.567H33.0467V203.301H36.0464V202.267ZM38.3063 210H39.584V201.901H37.2731V203.056H38.3063V210ZM41.3239 205.845C41.3239 208.2 41.9461 209.978 44.2125 209.978C46.479 209.978 47.1011 208.2 47.1011 205.845C47.1011 203.534 46.479 201.756 44.2125 201.756C41.9461 201.756 41.3239 203.534 41.3239 205.845ZM45.8568 205.845C45.8568 207.434 45.6902 208.822 44.2125 208.822C42.7349 208.822 42.5682 207.434 42.5682 205.845C42.5682 204.334 42.7349 202.912 44.2125 202.912C45.6902 202.912 45.8568 204.334 45.8568 205.845ZM48.4413 205.845C48.4413 208.2 49.0634 209.978 51.3299 209.978C53.5963 209.978 54.2185 208.2 54.2185 205.845C54.2185 203.534 53.5963 201.756 51.3299 201.756C49.0634 201.756 48.4413 203.534 48.4413 205.845ZM52.9741 205.845C52.9741 207.434 52.8075 208.822 51.3299 208.822C49.8522 208.822 49.6856 207.434 49.6856 205.845C49.6856 204.334 49.8522 202.912 51.3299 202.912C52.8075 202.912 52.9741 204.334 52.9741 205.845Z" fill="#9AA3AF"/>
</svg>
