<svg width="112" height="218" viewBox="0 0 112 218" fill="none" xmlns="http://www.w3.org/2000/svg">
<rect y="100" width="112" height="94" fill="#F9FAFA"/>
<path d="M0 4C0 1.79086 1.79086 0 4 0H108C110.209 0 112 1.79086 112 4V100H0V4Z" fill="#8EA7CB"/>
<path d="M13.9105 109.267V115.022L10.0998 109.267H8.83325V117H10.0998V111.234L13.9105 117H15.1771V109.267H13.9105ZM22.0509 117H23.3841L20.6177 109.267H19.1511L16.3848 117H17.7068L18.2623 115.422H21.4954L22.0509 117ZM21.1398 114.389H18.6179L19.8844 110.801L21.1398 114.389ZM24.5869 117H25.8534V111.712L28.2199 117H29.0975L31.4529 111.712V117H32.7194V109.279H31.364L28.6643 115.333L25.9534 109.279H24.5869V117ZM38.6503 109.267H34.3841V117H38.6503V115.967H35.6506V113.6H38.317V112.567H35.6506V110.301H38.6503V109.267Z" fill="#C2C8CF"/>
<path d="M8.57319 132.348C8.57319 135.134 10.6127 137.08 13.212 137.08C15.2249 137.08 16.8245 136.08 17.5176 134.294H16.0647C15.5581 135.4 14.5717 136.027 13.212 136.027C11.2659 136.027 9.81288 134.614 9.81288 132.348C9.81288 130.068 11.2659 128.655 13.212 128.655C14.5717 128.655 15.5581 129.282 16.0647 130.402H17.5176C16.8245 128.602 15.2249 127.589 13.212 127.589C10.6127 127.589 8.57319 129.562 8.57319 132.348ZM22.4292 130.602C23.6822 130.602 24.7486 131.388 24.7353 132.814H20.1231C20.2564 131.388 21.2428 130.602 22.4292 130.602ZM25.8417 134.747H24.5353C24.2687 135.534 23.5756 136.094 22.4825 136.094C21.2428 136.094 20.2031 135.28 20.1098 133.801H25.9483C25.975 133.548 25.9883 133.334 25.9883 133.068C25.9883 131.068 24.602 129.575 22.4825 129.575C20.3497 129.575 18.8701 131.028 18.8701 133.334C18.8701 135.654 20.403 137.12 22.4825 137.12C24.2954 137.12 25.4684 136.08 25.8417 134.747ZM27.5895 137H28.8025V129.695H27.5895V137ZM28.216 128.509C28.6559 128.509 29.0158 128.149 29.0158 127.682C29.0158 127.216 28.6559 126.856 28.216 126.856C27.7494 126.856 27.3895 127.216 27.3895 127.682C27.3895 128.149 27.7494 128.509 28.216 128.509ZM30.8699 137H32.0829V127.136H30.8699V137Z" fill="#5D6B7E"/>
<path d="M13.7328 160H14.9993V152.279H13.7328V155.589H10.0998V152.279H8.83325V160H10.0998V156.623H13.7328V160ZM20.9329 152.267H16.6667V160H20.9329V158.967H17.9332V156.6H20.5996V155.567H17.9332V153.301H20.9329V152.267ZM27.0147 160H28.4368L26.037 156.145L28.4479 152.279H27.0369L25.3926 155.1L23.6372 152.279H22.2152L24.626 156.145L22.2263 160H23.6372L25.2704 157.2L27.0147 160Z" fill="#C2C8CF"/>
<path d="M10.586 174.988C9.50629 175.308 8.7998 176.188 8.7998 177.401C8.7998 179.147 10.1728 180.267 12.199 180.267C14.2384 180.267 15.6248 179.147 15.6248 177.401C15.6248 176.201 14.9183 175.321 13.8252 174.988C14.7716 174.615 15.3715 173.815 15.3715 172.775C15.3715 171.375 14.2918 170.216 12.199 170.216C10.1061 170.216 9.03974 171.362 9.03974 172.775C9.03974 173.855 9.5996 174.601 10.586 174.988ZM12.199 174.588C11.0259 174.588 10.2128 173.935 10.2128 172.935C10.2128 171.802 11.0126 171.229 12.199 171.229C13.412 171.229 14.1985 171.815 14.1985 172.922C14.1985 173.922 13.3853 174.588 12.199 174.588ZM12.199 175.521C13.4653 175.521 14.4251 176.121 14.4251 177.361C14.4251 178.48 13.5719 179.254 12.199 179.254C10.826 179.254 9.95951 178.494 9.95951 177.361C9.95951 176.081 10.9593 175.521 12.199 175.521ZM22.4345 170.696H17.4358V180H22.4345V179H18.6488V175.801H22.0346V174.801H18.6488V171.695H22.4345V170.696ZM30.5084 180H31.7881L28.4423 170.762H27.0426L23.6835 180H24.9632L25.7096 177.934H29.762L30.5084 180ZM29.4154 176.947H26.0562L27.7358 172.255L29.4154 176.947ZM32.6656 170.389V171.429H37.811L34.0519 180H35.2783L38.984 171.309V170.389H32.6656ZM40.0757 175.348C40.0757 178.134 42.1152 180.08 44.7146 180.08C46.7274 180.08 48.327 179.08 49.0202 177.294H47.5672C47.0606 178.4 46.0742 179.027 44.7146 179.027C42.7684 179.027 41.3154 177.614 41.3154 175.348C41.3154 173.068 42.7684 171.655 44.7146 171.655C46.0742 171.655 47.0606 172.282 47.5672 173.402H49.0202C48.327 171.602 46.7274 170.589 44.7146 170.589C42.1152 170.589 40.0757 172.562 40.0757 175.348ZM56.1045 177.387C56.1045 178.4 55.3847 179 54.185 179H52.0389V175.721H54.145C55.3314 175.721 56.1045 176.361 56.1045 177.387ZM55.8646 173.215C55.8646 174.161 55.2114 174.721 54.0784 174.721H52.0389V171.709H54.0517C55.2381 171.709 55.8646 172.295 55.8646 173.215ZM57.3176 177.507C57.3176 176.361 56.4911 175.388 55.478 175.215C56.3711 174.921 57.1043 174.241 57.1043 173.068C57.1043 171.775 56.1179 170.709 54.1584 170.709H50.8259V180H54.2917C56.2112 180 57.3176 178.907 57.3176 177.507Z" fill="#5D6B7E"/>
<path d="M0 194H112V214C112 216.209 110.209 218 108 218H4C1.79086 218 0 216.209 0 214V194Z" fill="#EDEFF1"/>
<path d="M10.0998 205.834V203.312H11.4997C12.4884 203.312 12.9328 203.778 12.9328 204.578C12.9328 205.356 12.4884 205.834 11.4997 205.834H10.0998ZM14.2327 204.578C14.2327 203.323 13.3328 202.279 11.4997 202.279H8.83325V210H10.0998V206.867H11.4997C13.5106 206.867 14.2327 205.678 14.2327 204.578ZM20.6513 210H21.9845L19.2181 202.267H17.7515L14.9852 210H16.3072L16.8627 208.422H20.0958L20.6513 210ZM19.7402 207.389H17.2183L18.4848 203.801L19.7402 207.389ZM26.7092 202.179C24.5316 202.179 22.7651 203.812 22.7651 206.123C22.7651 208.445 24.5316 210.067 26.7092 210.067C28.7867 210.067 30.2977 208.545 30.531 206.756V205.767H26.2759V206.778H29.1756C28.9867 208.078 28.109 208.922 26.7092 208.922C25.176 208.922 24.065 207.822 24.065 206.123C24.065 204.423 25.176 203.334 26.7092 203.334C27.6313 203.334 28.3645 203.723 28.7756 204.501H30.2977C29.7089 202.99 28.3201 202.179 26.7092 202.179ZM36.0464 202.267H31.7802V210H36.0464V208.967H33.0467V206.6H35.7131V205.567H33.0467V203.301H36.0464V202.267ZM37.3398 209.889H42.7392V208.833H39.2174C40.5172 207.645 42.517 206.145 42.517 204.178C42.517 202.723 41.5838 201.734 39.9395 201.734C38.5063 201.734 37.3731 202.59 37.3287 204.345H38.5508C38.5841 203.434 39.0618 202.812 39.9506 202.812C40.895 202.812 41.2616 203.39 41.2616 204.234C41.2616 205.823 39.2507 207.289 37.3398 208.967V209.889ZM43.8519 205.845C43.8519 208.2 44.474 209.978 46.7405 209.978C49.0069 209.978 49.6291 208.2 49.6291 205.845C49.6291 203.534 49.0069 201.756 46.7405 201.756C44.474 201.756 43.8519 203.534 43.8519 205.845ZM48.3848 205.845C48.3848 207.434 48.2181 208.822 46.7405 208.822C45.2629 208.822 45.0962 207.434 45.0962 205.845C45.0962 204.334 45.2629 202.912 46.7405 202.912C48.2181 202.912 48.3848 204.334 48.3848 205.845ZM50.9692 205.845C50.9692 208.2 51.5914 209.978 53.8578 209.978C56.1243 209.978 56.7464 208.2 56.7464 205.845C56.7464 203.534 56.1243 201.756 53.8578 201.756C51.5914 201.756 50.9692 203.534 50.9692 205.845ZM55.5021 205.845C55.5021 207.434 55.3355 208.822 53.8578 208.822C52.3802 208.822 52.2135 207.434 52.2135 205.845C52.2135 204.334 52.3802 202.912 53.8578 202.912C55.3355 202.912 55.5021 204.334 55.5021 205.845Z" fill="#9AA3AF"/>
</svg>
