<svg width="176" height="218" viewBox="0 0 176 218" fill="none" xmlns="http://www.w3.org/2000/svg">
<rect y="100" width="176" height="94" fill="#F9FAFA"/>
<path d="M0 194H176V214C176 216.209 174.209 218 172 218H4C1.79086 218 0 216.209 0 214V194Z" fill="#EDEFF1"/>
<path d="M0 4C0 1.79086 1.79086 0 4 0H172C174.209 0 176 1.79086 176 4V100H0V4Z" fill="#A57FB2"/>
<path d="M13.9105 109.267V115.022L10.0998 109.267H8.83325V117H10.0998V111.234L13.9105 117H15.1771V109.267H13.9105ZM22.0509 117H23.3841L20.6177 109.267H19.1511L16.3848 117H17.7068L18.2623 115.422H21.4954L22.0509 117ZM21.1398 114.389H18.6179L19.8844 110.801L21.1398 114.389ZM24.5869 117H25.8534V111.712L28.2199 117H29.0975L31.4529 111.712V117H32.7194V109.279H31.364L28.6643 115.333L25.9534 109.279H24.5869V117ZM38.6503 109.267H34.3841V117H38.6503V115.967H35.6506V113.6H38.317V112.567H35.6506V110.301H38.6503V109.267Z" fill="#C2C8CF"/>
<path d="M9.02641 127.709V137H13.492V136.014H10.2394V127.709H9.02641ZM14.327 133.321C14.327 135.587 15.8332 137.12 17.7794 137.12C19.1258 137.12 20.0722 136.427 20.5121 135.64V137H21.7384V129.695H20.5121V131.028C20.0855 130.268 19.1524 129.575 17.7928 129.575C15.8332 129.575 14.327 131.041 14.327 133.321ZM20.5121 133.334C20.5121 135.054 19.3657 136.054 18.0327 136.054C16.6997 136.054 15.5666 135.04 15.5666 133.321C15.5666 131.601 16.6997 130.628 18.0327 130.628C19.3657 130.628 20.5121 131.641 20.5121 133.334ZM22.9219 129.695L25.7878 137H27.2008L30.0668 129.695H28.7738L26.5077 135.88L24.2282 129.695H22.9219ZM34.3663 130.602C35.6193 130.602 36.6857 131.388 36.6724 132.814H32.0602C32.1935 131.388 33.18 130.602 34.3663 130.602ZM37.7788 134.747H36.4725C36.2059 135.534 35.5127 136.094 34.4196 136.094C33.18 136.094 32.1402 135.28 32.0469 133.801H37.8854C37.9121 133.548 37.9254 133.334 37.9254 133.068C37.9254 131.068 36.5391 129.575 34.4196 129.575C32.2868 129.575 30.8072 131.028 30.8072 133.334C30.8072 135.654 32.3402 137.12 34.4196 137.12C36.2325 137.12 37.4056 136.08 37.7788 134.747ZM44.8719 137H46.0716V132.694C46.0716 130.602 44.7786 129.562 43.0857 129.562C42.0993 129.562 41.2195 129.975 40.7396 130.735V129.695H39.5266V137H40.7396V132.961C40.7396 131.388 41.5927 130.615 42.8324 130.615C44.0588 130.615 44.8719 131.375 44.8719 132.868V137ZM47.5999 133.321C47.5999 135.587 49.1062 137.12 51.0657 137.12C52.3987 137.12 53.3451 136.44 53.785 135.627V137H55.0114V127.136H53.785V131.001C53.2785 130.162 52.2254 129.575 51.079 129.575C49.1062 129.575 47.5999 131.041 47.5999 133.321ZM53.785 133.334C53.785 135.054 52.6386 136.054 51.3056 136.054C49.9726 136.054 48.8396 135.04 48.8396 133.321C48.8396 131.601 49.9726 130.628 51.3056 130.628C52.6386 130.628 53.785 131.641 53.785 133.334ZM56.6081 133.321C56.6081 135.587 58.1143 137.12 60.0605 137.12C61.4069 137.12 62.3533 136.427 62.7932 135.64V137H64.0195V129.695H62.7932V131.028C62.3666 130.268 61.4335 129.575 60.0739 129.575C58.1143 129.575 56.6081 131.041 56.6081 133.321ZM62.7932 133.334C62.7932 135.054 61.6468 136.054 60.3138 136.054C58.9808 136.054 57.8477 135.04 57.8477 133.321C57.8477 131.601 58.9808 130.628 60.3138 130.628C61.6468 130.628 62.7932 131.641 62.7932 133.334ZM67.2825 133.028C67.2825 131.335 68.1622 130.815 69.322 130.815H69.6419V129.562C68.4822 129.562 67.6957 130.068 67.2825 130.882V129.695H66.0694V137H67.2825V133.028ZM75.809 132.121V128.709H77.5952C78.9815 128.709 79.568 129.349 79.568 130.428C79.568 131.468 78.9815 132.121 77.5952 132.121H75.809ZM80.8077 130.428C80.8077 128.909 79.7813 127.709 77.5952 127.709H74.596V137H75.809V133.121H77.5952C79.9013 133.121 80.8077 131.841 80.8077 130.428ZM88.7938 129.695H87.5807V133.707C87.5807 135.28 86.7409 136.054 85.4879 136.054C84.2616 136.054 83.4484 135.294 83.4484 133.814V129.695H82.2487V133.974C82.2487 136.067 83.5684 137.107 85.248 137.107C86.2211 137.107 87.1142 136.68 87.5807 135.92V137H88.7938V129.695ZM92.0549 133.028C92.0549 131.335 92.9347 130.815 94.0944 130.815H94.4143V129.562C93.2546 129.562 92.4682 130.068 92.0549 130.882V129.695H90.8419V137H92.0549V133.028ZM97.0276 131.041V129.695H95.8146V140.466H97.0276V135.654C97.4809 136.4 98.4273 137.12 99.7603 137.12C101.72 137.12 103.226 135.587 103.226 133.321C103.226 131.041 101.72 129.575 99.7603 129.575C98.4273 129.575 97.4675 130.268 97.0276 131.041ZM101.986 133.321C101.986 135.04 100.853 136.054 99.507 136.054C98.1873 136.054 97.0276 135.054 97.0276 133.334C97.0276 131.641 98.1873 130.628 99.507 130.628C100.853 130.628 101.986 131.601 101.986 133.321ZM104.823 137H106.036V127.136H104.823V137ZM111.209 130.602C112.462 130.602 113.529 131.388 113.515 132.814H108.903C109.036 131.388 110.023 130.602 111.209 130.602ZM114.622 134.747H113.315C113.049 135.534 112.355 136.094 111.262 136.094C110.023 136.094 108.983 135.28 108.89 133.801H114.728C114.755 133.548 114.768 133.334 114.768 133.068C114.768 131.068 113.382 129.575 111.262 129.575C109.13 129.575 107.65 131.028 107.65 133.334C107.65 135.654 109.183 137.12 111.262 137.12C113.075 137.12 114.248 136.08 114.622 134.747Z" fill="#5D6B7E"/>
<path d="M10.0998 205.834V203.312H11.4997C12.4884 203.312 12.9328 203.778 12.9328 204.578C12.9328 205.356 12.4884 205.834 11.4997 205.834H10.0998ZM14.2327 204.578C14.2327 203.323 13.3328 202.279 11.4997 202.279H8.83325V210H10.0998V206.867H11.4997C13.5106 206.867 14.2327 205.678 14.2327 204.578ZM20.6513 210H21.9845L19.2181 202.267H17.7515L14.9852 210H16.3072L16.8627 208.422H20.0958L20.6513 210ZM19.7402 207.389H17.2183L18.4848 203.801L19.7402 207.389ZM25.0871 207.2V210H26.3536V207.2L28.9089 202.279H27.5091L25.7204 206.067L23.9317 202.279H22.5207L25.0871 207.2ZM33.6137 210H34.858V208.311H35.8912V207.211H34.858V202.001H33.3248L29.5918 207.356V208.311H33.6137V210ZM31.0473 207.211L33.6692 203.29V207.211H31.0473ZM36.9407 205.845C36.9407 208.2 37.5628 209.978 39.8293 209.978C42.0957 209.978 42.7179 208.2 42.7179 205.845C42.7179 203.534 42.0957 201.756 39.8293 201.756C37.5628 201.756 36.9407 203.534 36.9407 205.845ZM41.4736 205.845C41.4736 207.434 41.3069 208.822 39.8293 208.822C38.3517 208.822 38.185 207.434 38.185 205.845C38.185 204.334 38.3517 202.912 39.8293 202.912C41.3069 202.912 41.4736 204.334 41.4736 205.845ZM44.058 205.845C44.058 208.2 44.6802 209.978 46.9466 209.978C49.2131 209.978 49.8352 208.2 49.8352 205.845C49.8352 203.534 49.2131 201.756 46.9466 201.756C44.6802 201.756 44.058 203.534 44.058 205.845ZM48.5909 205.845C48.5909 207.434 48.4243 208.822 46.9466 208.822C45.469 208.822 45.3023 207.434 45.3023 205.845C45.3023 204.334 45.469 202.912 46.9466 202.912C48.4243 202.912 48.5909 204.334 48.5909 205.845Z" fill="#9AA3AF"/>
<path d="M117.733 160H118.999V152.279H117.733V155.589H114.1V152.279H112.833V160H114.1V156.623H117.733V160ZM124.933 152.267H120.667V160H124.933V158.967H121.933V156.6H124.6V155.567H121.933V153.301H124.933V152.267ZM131.015 160H132.437L130.037 156.145L132.448 152.279H131.037L129.393 155.1L127.637 152.279H126.215L128.626 156.145L126.226 160H127.637L129.27 157.2L131.015 160Z" fill="#C2C8CF"/>
<path d="M119.265 180H120.545L117.199 170.762H115.799L112.44 180H113.72L114.466 177.934H118.518L119.265 180ZM118.172 176.947H114.813L116.492 172.255L118.172 176.947ZM122.155 170.349V175.788H123.302C123.621 175.028 124.328 174.521 125.301 174.521C126.701 174.521 127.407 175.321 127.407 176.694C127.407 178.014 126.754 179 125.288 179C124.155 179 123.368 178.4 123.142 177.387H121.955C122.195 178.947 123.355 180.027 125.274 180.027C127.527 180.027 128.567 178.534 128.567 176.668C128.567 175.175 127.82 173.482 125.474 173.482C124.528 173.482 123.675 173.908 123.275 174.455V171.415H127.954V170.349H122.155ZM129.792 170.389V171.429H134.938L131.179 180H132.405L136.111 171.309V170.389H129.792ZM137.656 180H138.869V175.814H142.148V174.828H138.869V171.695H142.908V170.709H137.656V180ZM149.651 177.387C149.651 178.4 148.932 179 147.732 179H145.586V175.721H147.692C148.878 175.721 149.651 176.361 149.651 177.387ZM149.411 173.215C149.411 174.161 148.758 174.721 147.625 174.721H145.586V171.709H147.599C148.785 171.709 149.411 172.295 149.411 173.215ZM150.864 177.507C150.864 176.361 150.038 175.388 149.025 175.215C149.918 174.921 150.651 174.241 150.651 173.068C150.651 171.775 149.665 170.709 147.705 170.709H144.373V180H147.839C149.758 180 150.864 178.907 150.864 177.507ZM152.201 179.893H158.613V178.88H154.027C155.747 177.481 158.333 175.441 158.333 173.042C158.333 171.256 157.16 170.189 155.347 170.189C153.614 170.189 152.321 171.256 152.241 173.308H153.414C153.468 172.095 154.107 171.229 155.36 171.229C156.667 171.229 157.133 172.029 157.133 173.095C157.133 175.068 154.734 176.987 152.201 179.027V179.893Z" fill="#5D6B7E"/>
<path d="M12.9328 154.589C12.9328 155.356 12.4884 155.9 11.4997 155.9H10.0998V153.312H11.4997C12.4884 153.312 12.9328 153.812 12.9328 154.589ZM8.83325 152.279V160H10.0998V156.911H11.0664L12.844 160H14.3549L12.444 156.8C13.7439 156.478 14.2327 155.5 14.2327 154.589C14.2327 153.334 13.3328 152.279 11.4997 152.279H8.83325ZM19.3748 152.179C17.1973 152.179 15.4308 153.812 15.4308 156.123C15.4308 158.445 17.1973 160.067 19.3748 160.067C21.4524 160.067 22.9633 158.545 23.1967 156.756V155.767H18.9415V156.778H21.8412C21.6524 158.078 20.7747 158.922 19.3748 158.922C17.8416 158.922 16.7306 157.822 16.7306 156.123C16.7306 154.423 17.8416 153.334 19.3748 153.334C20.2969 153.334 21.0302 153.723 21.4413 154.501H22.9633C22.3745 152.99 20.9858 152.179 19.3748 152.179ZM28.801 157.789C28.801 158.533 28.2788 158.967 27.4233 158.967H25.7124V156.556H27.3789C28.2232 156.556 28.801 157.023 28.801 157.789ZM28.601 154.423C28.601 155.134 28.101 155.523 27.2789 155.523H25.7124V153.312H27.2789C28.101 153.312 28.601 153.723 28.601 154.423ZM30.0675 157.922C30.0675 157 29.4009 156.178 28.5788 156.034C29.3231 155.767 29.8897 155.2 29.8897 154.267C29.8897 153.178 29.0232 152.279 27.39 152.279H24.4458V160H27.5344C29.112 160 30.0675 159.1 30.0675 157.922Z" fill="#C2C8CF"/>
<path d="M9.78622 180H11.0126V170.362H8.50654V171.469H9.78622V180ZM19.5879 172.655C19.428 171.309 18.4949 170.162 16.6553 170.162C14.2159 170.162 13.2429 172.029 13.2429 175.055C13.2429 177.974 13.9227 180.027 16.7753 180.027C18.8814 180.027 19.9212 178.587 19.9212 176.827C19.9212 174.801 18.7082 173.615 16.9086 173.615C15.7622 173.615 14.7092 174.148 14.2959 175.095C14.2826 172.229 15.1091 171.176 16.642 171.176C17.7351 171.176 18.2816 171.722 18.4682 172.655H19.5879ZM16.6553 174.641C18.0417 174.641 18.7481 175.508 18.7481 176.867C18.7481 178.174 17.9617 179.014 16.7087 179.014C15.189 179.014 14.4426 178.014 14.4426 176.734C14.4426 175.295 15.5489 174.641 16.6553 174.641ZM21.9042 170.349V175.788H23.0506C23.3705 175.028 24.077 174.521 25.0501 174.521C26.4498 174.521 27.1563 175.321 27.1563 176.694C27.1563 178.014 26.5031 179 25.0368 179C23.9037 179 23.1173 178.4 22.8907 177.387H21.7043C21.9442 178.947 23.1039 180.027 25.0235 180.027C27.2762 180.027 28.316 178.534 28.316 176.668C28.316 175.175 27.5695 173.482 25.2234 173.482C24.277 173.482 23.4239 173.908 23.024 174.455V171.415H27.7028V170.349H21.9042ZM29.0748 181.906H29.888L31.3809 178.32H30.0479L29.0748 181.906ZM37.0841 180H38.3104V170.362H35.8044V171.469H37.0841V180ZM40.2475 179.893H46.6592V178.88H42.0737C43.7932 177.481 46.3793 175.441 46.3793 173.042C46.3793 171.256 45.2062 170.189 43.3933 170.189C41.6604 170.189 40.3674 171.256 40.2874 173.308H41.4605C41.5138 172.095 42.1536 171.229 43.4067 171.229C44.713 171.229 45.1796 172.029 45.1796 173.095C45.1796 175.068 42.7802 176.987 40.2475 179.027V179.893ZM47.6749 170.389V171.429H52.8203L49.0612 180H50.2876L53.9933 171.309V170.389H47.6749ZM54.4851 181.906H55.2983L56.7912 178.32H55.4582L54.4851 181.906ZM62.4944 180H63.7208V170.362H61.2147V171.469H62.4944V180ZM65.4178 170.389V171.429H70.5632L66.8041 180H68.0305L71.7362 171.309V170.389H65.4178ZM74.8408 174.988C73.7611 175.308 73.0546 176.188 73.0546 177.401C73.0546 179.147 74.4276 180.267 76.4537 180.267C78.4932 180.267 79.8795 179.147 79.8795 177.401C79.8795 176.201 79.173 175.321 78.08 174.988C79.0264 174.615 79.6263 173.815 79.6263 172.775C79.6263 171.375 78.5465 170.216 76.4537 170.216C74.3609 170.216 73.2945 171.362 73.2945 172.775C73.2945 173.855 73.8544 174.601 74.8408 174.988ZM76.4537 174.588C75.2807 174.588 74.4675 173.935 74.4675 172.935C74.4675 171.802 75.2673 171.229 76.4537 171.229C77.6667 171.229 78.4532 171.815 78.4532 172.922C78.4532 173.922 77.6401 174.588 76.4537 174.588ZM76.4537 175.521C77.7201 175.521 78.6798 176.121 78.6798 177.361C78.6798 178.48 77.8267 179.254 76.4537 179.254C75.0807 179.254 74.2143 178.494 74.2143 177.361C74.2143 176.081 75.214 175.521 76.4537 175.521Z" fill="#5D6B7E"/>
</svg>
