<svg width="176" height="218" viewBox="0 0 176 218" fill="none" xmlns="http://www.w3.org/2000/svg">
<rect y="100" width="176" height="94" fill="#F9FAFA"/>
<path d="M0 194H176V214C176 216.209 174.209 218 172 218H4C1.79086 218 0 216.209 0 214V194Z" fill="#EDEFF1"/>
<path d="M0 4C0 1.79086 1.79086 0 4 0H172C174.209 0 176 1.79086 176 4V100H0V4Z" fill="#7D55C7"/>
<path d="M13.9105 109.267V115.022L10.0998 109.267H8.83325V117H10.0998V111.234L13.9105 117H15.1771V109.267H13.9105ZM22.0509 117H23.3841L20.6177 109.267H19.1511L16.3848 117H17.7068L18.2623 115.422H21.4954L22.0509 117ZM21.1398 114.389H18.6179L19.8844 110.801L21.1398 114.389ZM24.5869 117H25.8534V111.712L28.2199 117H29.0975L31.4529 111.712V117H32.7194V109.279H31.364L28.6643 115.333L25.9534 109.279H24.5869V117ZM38.6503 109.267H34.3841V117H38.6503V115.967H35.6506V113.6H38.317V112.567H35.6506V110.301H38.6503V109.267Z" fill="#C2C8CF"/>
<path d="M9.02641 137H10.2394V132.814H13.5186V131.828H10.2394V128.695H14.2784V127.709H9.02641V137ZM22.2219 129.695H21.0088V133.707C21.0088 135.28 20.169 136.054 18.916 136.054C17.6897 136.054 16.8765 135.294 16.8765 133.814V129.695H15.6768V133.974C15.6768 136.067 16.9965 137.107 18.6761 137.107C19.6492 137.107 20.5423 136.68 21.0088 135.92V137H22.2219V129.695ZM23.8168 133.334C23.8168 135.654 25.2964 137.12 27.3759 137.12C29.1888 137.12 30.3751 136.107 30.7484 134.654H29.442C29.1754 135.574 28.4556 136.094 27.3759 136.094C26.0429 136.094 25.0565 135.147 25.0565 133.334C25.0565 131.548 26.0429 130.602 27.3759 130.602C28.4556 130.602 29.1888 131.161 29.442 132.041H30.7484C30.3751 130.508 29.1888 129.575 27.3759 129.575C25.2964 129.575 23.8168 131.041 23.8168 133.334ZM32.3669 137H33.58V132.961C33.58 131.388 34.4331 130.615 35.6728 130.615C36.8991 130.615 37.7123 131.375 37.7123 132.868V137H38.912V132.694C38.912 130.602 37.6189 129.562 35.9927 129.562C34.9663 129.562 34.0598 129.975 33.58 130.748V127.136H32.3669V137ZM46.1455 135.014C46.0921 132.401 41.8532 133.348 41.8532 131.615C41.8532 131.028 42.3864 130.602 43.2795 130.602C44.2526 130.602 44.8125 131.135 44.8658 131.868H46.0788C45.9988 130.442 44.9324 129.575 43.3195 129.575C41.6932 129.575 40.6402 130.495 40.6402 131.615C40.6402 134.334 44.9591 133.388 44.9591 135.014C44.9591 135.614 44.4259 136.094 43.4661 136.094C42.4397 136.094 41.8132 135.56 41.7466 134.854H40.4935C40.5735 136.187 41.7732 137.12 43.4795 137.12C45.0924 137.12 46.1455 136.214 46.1455 135.014ZM47.8578 137H49.0709V129.695H47.8578V137ZM48.4844 128.509C48.9242 128.509 49.2842 128.149 49.2842 127.682C49.2842 127.216 48.9242 126.856 48.4844 126.856C48.0178 126.856 47.6579 127.216 47.6579 127.682C47.6579 128.149 48.0178 128.509 48.4844 128.509ZM50.6851 133.321C50.6851 135.587 52.1913 137.12 54.1375 137.12C55.4839 137.12 56.4303 136.427 56.8702 135.64V137H58.0965V129.695H56.8702V131.028C56.4436 130.268 55.5105 129.575 54.1509 129.575C52.1913 129.575 50.6851 131.041 50.6851 133.321ZM56.8702 133.334C56.8702 135.054 55.7238 136.054 54.3908 136.054C53.0578 136.054 51.9247 135.04 51.9247 133.321C51.9247 131.601 53.0578 130.628 54.3908 130.628C55.7238 130.628 56.8702 131.641 56.8702 133.334ZM68.9789 134.387C68.9789 135.4 68.2591 136 67.0594 136H64.9133V132.721H67.0194C68.2058 132.721 68.9789 133.361 68.9789 134.387ZM68.739 130.215C68.739 131.161 68.0858 131.721 66.9528 131.721H64.9133V128.709H66.9261C68.1125 128.709 68.739 129.295 68.739 130.215ZM70.1919 134.507C70.1919 133.361 69.3655 132.388 68.3524 132.215C69.2455 131.921 69.9787 131.241 69.9787 130.068C69.9787 128.775 68.9922 127.709 67.0327 127.709H63.7002V137H67.166C69.0856 137 70.1919 135.907 70.1919 134.507ZM71.8753 137H73.0883V127.136H71.8753V137ZM81.6341 129.695H80.4211V133.707C80.4211 135.28 79.5813 136.054 78.3282 136.054C77.1019 136.054 76.2888 135.294 76.2888 133.814V129.695H75.0891V133.974C75.0891 136.067 76.4087 137.107 78.0883 137.107C79.0614 137.107 79.9545 136.68 80.4211 135.92V137H81.6341V129.695ZM86.7881 130.602C88.0411 130.602 89.1075 131.388 89.0942 132.814H84.482C84.6153 131.388 85.6017 130.602 86.7881 130.602ZM90.2006 134.747H88.8943C88.6277 135.534 87.9345 136.094 86.8414 136.094C85.6017 136.094 84.562 135.28 84.4687 133.801H90.3072C90.3339 133.548 90.3472 133.334 90.3472 133.068C90.3472 131.068 88.9609 129.575 86.8414 129.575C84.7086 129.575 83.229 131.028 83.229 133.334C83.229 135.654 84.762 137.12 86.8414 137.12C88.6543 137.12 89.8274 136.08 90.2006 134.747Z" fill="#5D6B7E"/>
<path d="M10.0998 205.834V203.312H11.4997C12.4884 203.312 12.9328 203.778 12.9328 204.578C12.9328 205.356 12.4884 205.834 11.4997 205.834H10.0998ZM14.2327 204.578C14.2327 203.323 13.3328 202.279 11.4997 202.279H8.83325V210H10.0998V206.867H11.4997C13.5106 206.867 14.2327 205.678 14.2327 204.578ZM15.4407 202.279V210H19.3181V208.978H16.7072V202.279H15.4407ZM25.5878 210H26.921L24.1546 202.267H22.6881L19.9217 210H21.2438L21.7993 208.422H25.0323L25.5878 210ZM24.6768 207.389H22.1548L23.4214 203.801L24.6768 207.389ZM30.0237 207.2V210H31.2902V207.2L33.8455 202.279H32.4456L30.6569 206.067L28.8682 202.279H27.4573L30.0237 207.2ZM39.1169 202.267H34.8506V210H39.1169V208.967H36.1172V206.6H38.7836V205.567H36.1172V203.301H39.1169V202.267ZM44.7764 204.589C44.7764 205.356 44.332 205.9 43.3433 205.9H41.9434V203.312H43.3433C44.332 203.312 44.7764 203.812 44.7764 204.589ZM40.6769 202.279V210H41.9434V206.911H42.91L44.6876 210H46.1985L44.2876 206.8C45.5875 206.478 46.0763 205.5 46.0763 204.589C46.0763 203.334 45.1764 202.279 43.3433 202.279H40.6769ZM51.3962 210H52.6405V208.311H53.6737V207.211H52.6405V202.001H51.1073L47.3744 207.356V208.311H51.3962V210ZM48.8298 207.211L51.4517 203.29V207.211H48.8298ZM54.7232 205.845C54.7232 208.2 55.3454 209.978 57.6118 209.978C59.8782 209.978 60.5004 208.2 60.5004 205.845C60.5004 203.534 59.8782 201.756 57.6118 201.756C55.3454 201.756 54.7232 203.534 54.7232 205.845ZM59.2561 205.845C59.2561 207.434 59.0894 208.822 57.6118 208.822C56.1342 208.822 55.9675 207.434 55.9675 205.845C55.9675 204.334 56.1342 202.912 57.6118 202.912C59.0894 202.912 59.2561 204.334 59.2561 205.845ZM61.8405 205.845C61.8405 208.2 62.4627 209.978 64.7291 209.978C66.9956 209.978 67.6177 208.2 67.6177 205.845C67.6177 203.534 66.9956 201.756 64.7291 201.756C62.4627 201.756 61.8405 203.534 61.8405 205.845ZM66.3734 205.845C66.3734 207.434 66.2068 208.822 64.7291 208.822C63.2515 208.822 63.0849 207.434 63.0849 205.845C63.0849 204.334 63.2515 202.912 64.7291 202.912C66.2068 202.912 66.3734 204.334 66.3734 205.845Z" fill="#9AA3AF"/>
<path d="M117.733 160H118.999V152.279H117.733V155.589H114.1V152.279H112.833V160H114.1V156.623H117.733V160ZM124.933 152.267H120.667V160H124.933V158.967H121.933V156.6H124.6V155.567H121.933V153.301H124.933V152.267ZM131.015 160H132.437L130.037 156.145L132.448 152.279H131.037L129.393 155.1L127.637 152.279H126.215L128.626 156.145L126.226 160H127.637L129.27 157.2L131.015 160Z" fill="#C2C8CF"/>
<path d="M112.44 170.389V171.429H117.585L113.826 180H115.053L118.758 171.309V170.389H112.44ZM123.196 170.709H120.303V180H123.196C126.248 180 128.128 178.254 128.128 175.374C128.128 172.495 126.248 170.709 123.196 170.709ZM121.516 179V171.695H123.196C125.622 171.695 126.888 173.108 126.888 175.374C126.888 177.641 125.622 179 123.196 179H121.516ZM129.875 170.349V175.788H131.021C131.341 175.028 132.047 174.521 133.02 174.521C134.42 174.521 135.127 175.321 135.127 176.694C135.127 178.014 134.473 179 133.007 179C131.874 179 131.088 178.4 130.861 177.387H129.675C129.915 178.947 131.074 180.027 132.994 180.027C135.247 180.027 136.286 178.534 136.286 176.668C136.286 175.175 135.54 173.482 133.194 173.482C132.247 173.482 131.394 173.908 130.994 174.455V171.415H135.673V170.349H129.875ZM138.245 170.349V175.788H139.391C139.711 175.028 140.418 174.521 141.391 174.521C142.79 174.521 143.497 175.321 143.497 176.694C143.497 178.014 142.844 179 141.377 179C140.244 179 139.458 178.4 139.231 177.387H138.045C138.285 178.947 139.445 180.027 141.364 180.027C143.617 180.027 144.657 178.534 144.657 176.668C144.657 175.175 143.91 173.482 141.564 173.482C140.618 173.482 139.765 173.908 139.365 174.455V171.415H144.043V170.349H138.245ZM146.015 175.348C146.015 178.134 148.055 180.08 150.654 180.08C152.667 180.08 154.267 179.08 154.96 177.294H153.507C153 178.4 152.014 179.027 150.654 179.027C148.708 179.027 147.255 177.614 147.255 175.348C147.255 173.068 148.708 171.655 150.654 171.655C152.014 171.655 153 172.282 153.507 173.402H154.96C154.267 171.602 152.667 170.589 150.654 170.589C148.055 170.589 146.015 172.562 146.015 175.348ZM156.179 170.389V171.429H161.324L157.565 180H158.792L162.497 171.309V170.389H156.179Z" fill="#5D6B7E"/>
<path d="M12.9328 154.589C12.9328 155.356 12.4884 155.9 11.4997 155.9H10.0998V153.312H11.4997C12.4884 153.312 12.9328 153.812 12.9328 154.589ZM8.83325 152.279V160H10.0998V156.911H11.0664L12.844 160H14.3549L12.444 156.8C13.7439 156.478 14.2327 155.5 14.2327 154.589C14.2327 153.334 13.3328 152.279 11.4997 152.279H8.83325ZM19.3748 152.179C17.1973 152.179 15.4308 153.812 15.4308 156.123C15.4308 158.445 17.1973 160.067 19.3748 160.067C21.4524 160.067 22.9633 158.545 23.1967 156.756V155.767H18.9415V156.778H21.8412C21.6524 158.078 20.7747 158.922 19.3748 158.922C17.8416 158.922 16.7306 157.822 16.7306 156.123C16.7306 154.423 17.8416 153.334 19.3748 153.334C20.2969 153.334 21.0302 153.723 21.4413 154.501H22.9633C22.3745 152.99 20.9858 152.179 19.3748 152.179ZM28.801 157.789C28.801 158.533 28.2788 158.967 27.4233 158.967H25.7124V156.556H27.3789C28.2232 156.556 28.801 157.023 28.801 157.789ZM28.601 154.423C28.601 155.134 28.101 155.523 27.2789 155.523H25.7124V153.312H27.2789C28.101 153.312 28.601 153.723 28.601 154.423ZM30.0675 157.922C30.0675 157 29.4009 156.178 28.5788 156.034C29.3231 155.767 29.8897 155.2 29.8897 154.267C29.8897 153.178 29.0232 152.279 27.39 152.279H24.4458V160H27.5344C29.112 160 30.0675 159.1 30.0675 157.922Z" fill="#C2C8CF"/>
<path d="M9.78622 180H11.0126V170.362H8.50654V171.469H9.78622V180ZM12.9496 179.893H19.3613V178.88H14.7758C16.4954 177.481 19.0814 175.441 19.0814 173.042C19.0814 171.256 17.9084 170.189 16.0955 170.189C14.3626 170.189 13.0696 171.256 12.9896 173.308H14.1626C14.2159 172.095 14.8558 171.229 16.1088 171.229C17.4151 171.229 17.8817 172.029 17.8817 173.095C17.8817 175.068 15.4823 176.987 12.9496 179.027V179.893ZM21.1102 170.349V175.788H22.2565C22.5765 175.028 23.2829 174.521 24.256 174.521C25.6557 174.521 26.3622 175.321 26.3622 176.694C26.3622 178.014 25.709 179 24.2427 179C23.1097 179 22.3232 178.4 22.0966 177.387H20.9102C21.1501 178.947 22.3099 180.027 24.2294 180.027C26.4821 180.027 27.5219 178.534 27.5219 176.668C27.5219 175.175 26.7754 173.482 24.4293 173.482C23.4829 173.482 22.6298 173.908 22.2299 174.455V171.415H26.9087V170.349H21.1102ZM28.2808 181.906H29.0939L30.5869 178.32H29.2539L28.2808 181.906ZM37.0898 174.988C36.0101 175.308 35.3036 176.188 35.3036 177.401C35.3036 179.147 36.6766 180.267 38.7027 180.267C40.7422 180.267 42.1286 179.147 42.1286 177.401C42.1286 176.201 41.4221 175.321 40.329 174.988C41.2754 174.615 41.8753 173.815 41.8753 172.775C41.8753 171.375 40.7956 170.216 38.7027 170.216C36.6099 170.216 35.5435 171.362 35.5435 172.775C35.5435 173.855 36.1034 174.601 37.0898 174.988ZM38.7027 174.588C37.5297 174.588 36.7166 173.935 36.7166 172.935C36.7166 171.802 37.5164 171.229 38.7027 171.229C39.9158 171.229 40.7022 171.815 40.7022 172.922C40.7022 173.922 39.8891 174.588 38.7027 174.588ZM38.7027 175.521C39.9691 175.521 40.9289 176.121 40.9289 177.361C40.9289 178.48 40.0757 179.254 38.7027 179.254C37.3298 179.254 36.4633 178.494 36.4633 177.361C36.4633 176.081 37.4631 175.521 38.7027 175.521ZM44.0862 170.349V175.788H45.2326C45.5525 175.028 46.259 174.521 47.2321 174.521C48.6317 174.521 49.3382 175.321 49.3382 176.694C49.3382 178.014 48.685 179 47.2187 179C46.0857 179 45.2992 178.4 45.0726 177.387H43.8862C44.1262 178.947 45.2859 180.027 47.2054 180.027C49.4582 180.027 50.4979 178.534 50.4979 176.668C50.4979 175.175 49.7514 173.482 47.4054 173.482C46.4589 173.482 45.6058 173.908 45.2059 174.455V171.415H49.8847V170.349H44.0862ZM51.2568 181.906H52.0699L53.5629 178.32H52.2299L51.2568 181.906ZM59.266 180H60.4924V170.362H57.9864V171.469H59.266V180ZM63.0159 177.414C63.1492 178.827 64.0823 180.013 66.0019 180.013C68.5346 180.013 69.2677 178.214 69.2677 175.001C69.2677 172.015 68.5079 170.176 65.8952 170.176C63.8157 170.176 62.7227 171.509 62.7227 173.348C62.7227 175.388 64.0423 176.494 65.8152 176.494C66.855 176.494 67.8147 176.028 68.2013 175.215C68.2413 178.04 67.4815 179 66.0685 179C64.9488 179 64.3089 178.414 64.1357 177.414H63.0159ZM66.0152 175.468C64.5755 175.468 63.8824 174.561 63.8824 173.322C63.8824 172.042 64.6689 171.189 65.9219 171.189C67.3082 171.189 68.0547 172.109 68.0547 173.415C68.0547 174.708 67.1749 175.468 66.0152 175.468ZM71.4123 177.414C71.5456 178.827 72.4787 180.013 74.3982 180.013C76.9309 180.013 77.664 178.214 77.664 175.001C77.664 172.015 76.9042 170.176 74.2916 170.176C72.2121 170.176 71.119 171.509 71.119 173.348C71.119 175.388 72.4387 176.494 74.2116 176.494C75.2513 176.494 76.2111 176.028 76.5976 175.215C76.6376 178.04 75.8778 179 74.4648 179C73.3451 179 72.7053 178.414 72.532 177.414H71.4123ZM74.4115 175.468C72.9719 175.468 72.2787 174.561 72.2787 173.322C72.2787 172.042 73.0652 171.189 74.3182 171.189C75.7045 171.189 76.451 172.109 76.451 173.415C76.451 174.708 75.5712 175.468 74.4115 175.468Z" fill="#5D6B7E"/>
</svg>
