<svg width="112" height="218" viewBox="0 0 112 218" fill="none" xmlns="http://www.w3.org/2000/svg">
<rect y="100" width="112" height="94" fill="#F9FAFA"/>
<path d="M0 4C0 1.79086 1.79086 0 4 0H108C110.209 0 112 1.79086 112 4V100H0V4Z" fill="#64449F"/>
<path d="M13.9105 109.267V115.022L10.0998 109.267H8.83325V117H10.0998V111.234L13.9105 117H15.1771V109.267H13.9105ZM22.0509 117H23.3841L20.6177 109.267H19.1511L16.3848 117H17.7068L18.2623 115.422H21.4954L22.0509 117ZM21.1398 114.389H18.6179L19.8844 110.801L21.1398 114.389ZM24.5869 117H25.8534V111.712L28.2199 117H29.0975L31.4529 111.712V117H32.7194V109.279H31.364L28.6643 115.333L25.9534 109.279H24.5869V117ZM38.6503 109.267H34.3841V117H38.6503V115.967H35.6506V113.6H38.317V112.567H35.6506V110.301H38.6503V109.267Z" fill="#C2C8CF"/>
<path d="M13.9985 130.442C13.9985 131.481 13.3987 132.228 12.0257 132.228H10.2394V128.709H12.0257C13.412 128.709 13.9985 129.389 13.9985 130.442ZM9.02641 127.709V137H10.2394V133.201H11.7057L13.9185 137H15.3715L13.0387 133.108C14.5984 132.761 15.2515 131.628 15.2515 130.442C15.2515 128.922 14.2118 127.709 12.0257 127.709H9.02641ZM24.068 133.334C24.068 131.028 22.455 129.575 20.3756 129.575C18.3094 129.575 16.6831 131.028 16.6831 133.334C16.6831 135.654 18.2561 137.12 20.3222 137.12C22.4017 137.12 24.068 135.654 24.068 133.334ZM17.9228 133.334C17.9228 131.495 19.0825 130.628 20.3622 130.628C21.6152 130.628 22.8283 131.495 22.8283 133.334C22.8283 135.187 21.5886 136.054 20.3222 136.054C19.0559 136.054 17.9228 135.187 17.9228 133.334ZM28.4355 135.614L26.1428 129.695H24.7964L27.7424 136.92L26.3027 140.439H27.5557L31.9546 129.695H30.7016L28.4355 135.614ZM32.7208 133.321C32.7208 135.587 34.2271 137.12 36.1733 137.12C37.5196 137.12 38.466 136.427 38.9059 135.64V137H40.1323V129.695H38.9059V131.028C38.4794 130.268 37.5463 129.575 36.1866 129.575C34.2271 129.575 32.7208 131.041 32.7208 133.321ZM38.9059 133.334C38.9059 135.054 37.7595 136.054 36.4265 136.054C35.0935 136.054 33.9605 135.04 33.9605 133.321C33.9605 131.601 35.0935 130.628 36.4265 130.628C37.7595 130.628 38.9059 131.641 38.9059 133.334ZM42.1822 137H43.3952V127.136H42.1822V137ZM50.2294 132.121V128.709H52.0157C53.402 128.709 53.9885 129.349 53.9885 130.428C53.9885 131.468 53.402 132.121 52.0157 132.121H50.2294ZM55.2282 130.428C55.2282 128.909 54.2018 127.709 52.0157 127.709H49.0164V137H50.2294V133.121H52.0157C54.3218 133.121 55.2282 131.841 55.2282 130.428ZM63.2142 129.695H62.0012V133.707C62.0012 135.28 61.1614 136.054 59.9084 136.054C58.682 136.054 57.8689 135.294 57.8689 133.814V129.695H56.6692V133.974C56.6692 136.067 57.9889 137.107 59.6684 137.107C60.6415 137.107 61.5346 136.68 62.0012 135.92V137H63.2142V129.695ZM66.4754 133.028C66.4754 131.335 67.3552 130.815 68.5149 130.815H68.8348V129.562C67.6751 129.562 66.8886 130.068 66.4754 130.882V129.695H65.2623V137H66.4754V133.028ZM71.4481 131.041V129.695H70.2351V140.466H71.4481V135.654C71.9013 136.4 72.8477 137.12 74.1807 137.12C76.1403 137.12 77.6465 135.587 77.6465 133.321C77.6465 131.041 76.1403 129.575 74.1807 129.575C72.8477 129.575 71.888 130.268 71.4481 131.041ZM76.4069 133.321C76.4069 135.04 75.2738 136.054 73.9275 136.054C72.6078 136.054 71.4481 135.054 71.4481 133.334C71.4481 131.641 72.6078 130.628 73.9275 130.628C75.2738 130.628 76.4069 131.601 76.4069 133.321ZM79.2432 137H80.4563V127.136H79.2432V137ZM85.6295 130.602C86.8826 130.602 87.949 131.388 87.9356 132.814H83.3235C83.4568 131.388 84.4432 130.602 85.6295 130.602ZM89.042 134.747H87.7357C87.4691 135.534 86.7759 136.094 85.6829 136.094C84.4432 136.094 83.4034 135.28 83.3101 133.801H89.1487C89.1753 133.548 89.1887 133.334 89.1887 133.068C89.1887 131.068 87.8023 129.575 85.6829 129.575C83.5501 129.575 82.0704 131.028 82.0704 133.334C82.0704 135.654 83.6034 137.12 85.6829 137.12C87.4957 137.12 88.6688 136.08 89.042 134.747Z" fill="#5D6B7E"/>
<path d="M13.7328 160H14.9993V152.279H13.7328V155.589H10.0998V152.279H8.83325V160H10.0998V156.623H13.7328V160ZM20.9329 152.267H16.6667V160H20.9329V158.967H17.9332V156.6H20.5996V155.567H17.9332V153.301H20.9329V152.267ZM27.0147 160H28.4368L26.037 156.145L28.4479 152.279H27.0369L25.3926 155.1L23.6372 152.279H22.2152L24.626 156.145L22.2263 160H23.6372L25.2704 157.2L27.0147 160Z" fill="#C2C8CF"/>
<path d="M15.3182 172.655C15.1582 171.309 14.2251 170.162 12.3856 170.162C9.94618 170.162 8.97309 172.029 8.97309 175.055C8.97309 177.974 9.65292 180.027 12.5055 180.027C14.6117 180.027 15.6514 178.587 15.6514 176.827C15.6514 174.801 14.4384 173.615 12.6388 173.615C11.4925 173.615 10.4394 174.148 10.0262 175.095C10.0128 172.229 10.8393 171.176 12.3722 171.176C13.4653 171.176 14.0118 171.722 14.1985 172.655H15.3182ZM12.3856 174.641C13.7719 174.641 14.4784 175.508 14.4784 176.867C14.4784 178.174 13.6919 179.014 12.4389 179.014C10.9193 179.014 10.1728 178.014 10.1728 176.734C10.1728 175.295 11.2792 174.641 12.3856 174.641ZM21.9267 180H23.1264V177.854H24.4594V176.801H23.1264V170.456H21.6735L16.9946 176.934V177.854H21.9267V180ZM18.3943 176.801L21.98 171.722V176.801H18.3943ZM30.31 180H31.5097V177.854H32.8427V176.801H31.5097V170.456H30.0568L25.3779 176.934V177.854H30.31V180ZM26.7776 176.801L30.3634 171.722V176.801H26.7776ZM38.6934 180H39.8931V177.854H41.2261V176.801H39.8931V170.456H38.4401L33.7613 176.934V177.854H38.6934V180ZM35.1609 176.801L38.7467 171.722V176.801H35.1609ZM42.8777 177.414C43.011 178.827 43.9441 180.013 45.8637 180.013C48.3964 180.013 49.1295 178.214 49.1295 175.001C49.1295 172.015 48.3697 170.176 45.757 170.176C43.6775 170.176 42.5845 171.509 42.5845 173.348C42.5845 175.388 43.9041 176.494 45.677 176.494C46.7168 176.494 47.6765 176.028 48.0631 175.215C48.1031 178.04 47.3433 179 45.9303 179C44.8106 179 44.1707 178.414 43.9975 177.414H42.8777ZM45.877 175.468C44.4373 175.468 43.7442 174.561 43.7442 173.322C43.7442 172.042 44.5307 171.189 45.7837 171.189C47.17 171.189 47.9165 172.109 47.9165 173.415C47.9165 174.708 47.0367 175.468 45.877 175.468ZM51.0341 180H52.2472V175.814H55.5263V174.828H52.2472V171.695H56.2862V170.709H51.0341V180Z" fill="#5D6B7E"/>
<path d="M0 194H112V214C112 216.209 110.209 218 108 218H4C1.79086 218 0 216.209 0 214V194Z" fill="#EDEFF1"/>
<path d="M10.0998 205.834V203.312H11.4997C12.4884 203.312 12.9328 203.778 12.9328 204.578C12.9328 205.356 12.4884 205.834 11.4997 205.834H10.0998ZM14.2327 204.578C14.2327 203.323 13.3328 202.279 11.4997 202.279H8.83325V210H10.0998V206.867H11.4997C13.5106 206.867 14.2327 205.678 14.2327 204.578ZM15.4407 202.279V210H19.3181V208.978H16.7072V202.279H15.4407ZM25.5878 210H26.921L24.1546 202.267H22.6881L19.9217 210H21.2438L21.7993 208.422H25.0323L25.5878 210ZM24.6768 207.389H22.1548L23.4214 203.801L24.6768 207.389ZM30.0237 207.2V210H31.2902V207.2L33.8455 202.279H32.4456L30.6569 206.067L28.8682 202.279H27.4573L30.0237 207.2ZM39.1169 202.267H34.8506V210H39.1169V208.967H36.1172V206.6H38.7836V205.567H36.1172V203.301H39.1169V202.267ZM44.7764 204.589C44.7764 205.356 44.332 205.9 43.3433 205.9H41.9434V203.312H43.3433C44.332 203.312 44.7764 203.812 44.7764 204.589ZM40.6769 202.279V210H41.9434V206.911H42.91L44.6876 210H46.1985L44.2876 206.8C45.5875 206.478 46.0763 205.5 46.0763 204.589C46.0763 203.334 45.1764 202.279 43.3433 202.279H40.6769ZM47.8632 201.879V206.556H49.0631C49.2742 205.956 49.7741 205.545 50.5185 205.545C51.5739 205.545 52.0961 206.145 52.0961 207.2C52.0961 208.2 51.6073 208.945 50.5185 208.945C49.663 208.945 49.0853 208.5 48.9187 207.811H47.6854C47.8743 209.078 48.8409 210 50.5074 210C52.385 210 53.3071 208.778 53.3071 207.167C53.3071 205.945 52.6961 204.467 50.7074 204.467C49.9852 204.467 49.3297 204.801 49.0298 205.2V202.99H52.7516V201.879H47.8632ZM54.6255 205.845C54.6255 208.2 55.2477 209.978 57.5141 209.978C59.7806 209.978 60.4027 208.2 60.4027 205.845C60.4027 203.534 59.7806 201.756 57.5141 201.756C55.2477 201.756 54.6255 203.534 54.6255 205.845ZM59.1584 205.845C59.1584 207.434 58.9918 208.822 57.5141 208.822C56.0365 208.822 55.8699 207.434 55.8699 205.845C55.8699 204.334 56.0365 202.912 57.5141 202.912C58.9918 202.912 59.1584 204.334 59.1584 205.845ZM61.7429 205.845C61.7429 208.2 62.365 209.978 64.6315 209.978C66.8979 209.978 67.5201 208.2 67.5201 205.845C67.5201 203.534 66.8979 201.756 64.6315 201.756C62.365 201.756 61.7429 203.534 61.7429 205.845ZM66.2758 205.845C66.2758 207.434 66.1091 208.822 64.6315 208.822C63.1539 208.822 62.9872 207.434 62.9872 205.845C62.9872 204.334 63.1539 202.912 64.6315 202.912C66.1091 202.912 66.2758 204.334 66.2758 205.845Z" fill="#9AA3AF"/>
</svg>
