<svg width="112" height="218" viewBox="0 0 112 218" fill="none" xmlns="http://www.w3.org/2000/svg">
<rect y="100" width="112" height="94" fill="#F9FAFA"/>
<path d="M0 4C0 1.79086 1.79086 0 4 0H108C110.209 0 112 1.79086 112 4V100H0V4Z" fill="#9777D2"/>
<path d="M13.9105 109.267V115.022L10.0998 109.267H8.83325V117H10.0998V111.234L13.9105 117H15.1771V109.267H13.9105ZM22.0509 117H23.3841L20.6177 109.267H19.1511L16.3848 117H17.7068L18.2623 115.422H21.4954L22.0509 117ZM21.1398 114.389H18.6179L19.8844 110.801L21.1398 114.389ZM24.5869 117H25.8534V111.712L28.2199 117H29.0975L31.4529 111.712V117H32.7194V109.279H31.364L28.6643 115.333L25.9534 109.279H24.5869V117ZM38.6503 109.267H34.3841V117H38.6503V115.967H35.6506V113.6H38.317V112.567H35.6506V110.301H38.6503V109.267Z" fill="#C2C8CF"/>
<path d="M9.02641 127.709V137H13.492V136.014H10.2394V127.709H9.02641ZM14.7802 137H15.9932V129.695H14.7802V137ZM15.4067 128.509C15.8466 128.509 16.2065 128.149 16.2065 127.682C16.2065 127.216 15.8466 126.856 15.4067 126.856C14.9401 126.856 14.5802 127.216 14.5802 127.682C14.5802 128.149 14.9401 128.509 15.4067 128.509ZM18.0606 137H19.2736V127.136H18.0606V137ZM20.8878 133.321C20.8878 135.587 22.3941 137.12 24.3403 137.12C25.6866 137.12 26.633 136.427 27.0729 135.64V137H28.2993V129.695H27.0729V131.028C26.6464 130.268 25.7133 129.575 24.3536 129.575C22.3941 129.575 20.8878 131.041 20.8878 133.321ZM27.0729 133.334C27.0729 135.054 25.9266 136.054 24.5936 136.054C23.2606 136.054 22.1275 135.04 22.1275 133.321C22.1275 131.601 23.2606 130.628 24.5936 130.628C25.9266 130.628 27.0729 131.641 27.0729 133.334ZM29.896 133.334C29.896 135.654 31.3756 137.12 33.4551 137.12C35.268 137.12 36.4543 136.107 36.8276 134.654H35.5212C35.2546 135.574 34.5348 136.094 33.4551 136.094C32.1221 136.094 31.1357 135.147 31.1357 133.334C31.1357 131.548 32.1221 130.602 33.4551 130.602C34.5348 130.602 35.268 131.161 35.5212 132.041H36.8276C36.4543 130.508 35.268 129.575 33.4551 129.575C31.3756 129.575 29.896 131.041 29.896 133.334ZM47.2786 134.387C47.2786 135.4 46.5588 136 45.3591 136H43.213V132.721H45.3191C46.5055 132.721 47.2786 133.361 47.2786 134.387ZM47.0387 130.215C47.0387 131.161 46.3855 131.721 45.2525 131.721H43.213V128.709H45.2258C46.4122 128.709 47.0387 129.295 47.0387 130.215ZM48.4916 134.507C48.4916 133.361 47.6652 132.388 46.6521 132.215C47.5452 131.921 48.2784 131.241 48.2784 130.068C48.2784 128.775 47.2919 127.709 45.3324 127.709H41.9999V137H45.4657C47.3853 137 48.4916 135.907 48.4916 134.507ZM56.6534 129.695H55.4403V133.707C55.4403 135.28 54.6005 136.054 53.3475 136.054C52.1212 136.054 51.308 135.294 51.308 133.814V129.695H50.1083V133.974C50.1083 136.067 51.428 137.107 53.1076 137.107C54.0807 137.107 54.9738 136.68 55.4403 135.92V137H56.6534V129.695ZM63.9535 135.014C63.9002 132.401 59.6612 133.348 59.6612 131.615C59.6612 131.028 60.1944 130.602 61.0876 130.602C62.0606 130.602 62.6205 131.135 62.6738 131.868H63.8869C63.8069 130.442 62.7405 129.575 61.1275 129.575C59.5013 129.575 58.4482 130.495 58.4482 131.615C58.4482 134.334 62.7671 133.388 62.7671 135.014C62.7671 135.614 62.2339 136.094 61.2742 136.094C60.2478 136.094 59.6213 135.56 59.5546 134.854H58.3016C58.3816 136.187 59.5813 137.12 61.2875 137.12C62.9004 137.12 63.9535 136.214 63.9535 135.014ZM65.6659 137H66.8789V132.961C66.8789 131.388 67.732 130.615 68.9717 130.615C70.1981 130.615 71.0112 131.375 71.0112 132.868V137H72.2109V132.694C72.2109 130.602 70.9179 129.562 69.2917 129.562C68.2652 129.562 67.3588 129.975 66.8789 130.748V127.136H65.6659V137Z" fill="#5D6B7E"/>
<path d="M13.7328 160H14.9993V152.279H13.7328V155.589H10.0998V152.279H8.83325V160H10.0998V156.623H13.7328V160ZM20.9329 152.267H16.6667V160H20.9329V158.967H17.9332V156.6H20.5996V155.567H17.9332V153.301H20.9329V152.267ZM27.0147 160H28.4368L26.037 156.145L28.4479 152.279H27.0369L25.3926 155.1L23.6372 152.279H22.2152L24.626 156.145L22.2263 160H23.6372L25.2704 157.2L27.0147 160Z" fill="#C2C8CF"/>
<path d="M9.26635 177.414C9.39965 178.827 10.3328 180.013 12.2523 180.013C14.785 180.013 15.5181 178.214 15.5181 175.001C15.5181 172.015 14.7583 170.176 12.1456 170.176C10.0662 170.176 8.97309 171.509 8.97309 173.348C8.97309 175.388 10.2928 176.494 12.0657 176.494C13.1054 176.494 14.0652 176.028 14.4517 175.215C14.4917 178.04 13.7319 179 12.3189 179C11.1992 179 10.5594 178.414 10.3861 177.414H9.26635ZM12.2656 175.468C10.826 175.468 10.1328 174.561 10.1328 173.322C10.1328 172.042 10.9193 171.189 12.1723 171.189C13.5586 171.189 14.3051 172.109 14.3051 173.415C14.3051 174.708 13.4253 175.468 12.2656 175.468ZM16.8362 170.389V171.429H21.9816L18.2225 180H19.4489L23.1546 171.309V170.389H16.8362ZM24.1131 170.389V171.429H29.2584L25.4994 180H26.7257L30.4315 171.309V170.389H24.1131ZM31.3899 170.389V171.429H36.5353L32.7762 180H34.0026L37.7083 171.309V170.389H31.3899ZM42.1458 170.709H39.2532V180H42.1458C45.1984 180 47.0779 178.254 47.0779 175.374C47.0779 172.495 45.1984 170.709 42.1458 170.709ZM40.4663 179V171.695H42.1458C44.5719 171.695 45.8382 173.108 45.8382 175.374C45.8382 177.641 44.5719 179 42.1458 179H40.4663ZM48.3314 179.893H54.7431V178.88H50.1576C51.8772 177.481 54.4632 175.441 54.4632 173.042C54.4632 171.256 53.2901 170.189 51.4773 170.189C49.7444 170.189 48.4513 171.256 48.3714 173.308H49.5444C49.5977 172.095 50.2376 171.229 51.4906 171.229C52.7969 171.229 53.2635 172.029 53.2635 173.095C53.2635 175.068 50.8641 176.987 48.3314 179.027V179.893Z" fill="#5D6B7E"/>
<path d="M0 194H112V214C112 216.209 110.209 218 108 218H4C1.79086 218 0 216.209 0 214V194Z" fill="#EDEFF1"/>
<path d="M10.0998 205.834V203.312H11.4997C12.4884 203.312 12.9328 203.778 12.9328 204.578C12.9328 205.356 12.4884 205.834 11.4997 205.834H10.0998ZM14.2327 204.578C14.2327 203.323 13.3328 202.279 11.4997 202.279H8.83325V210H10.0998V206.867H11.4997C13.5106 206.867 14.2327 205.678 14.2327 204.578ZM15.4407 202.279V210H19.3181V208.978H16.7072V202.279H15.4407ZM25.5878 210H26.921L24.1546 202.267H22.6881L19.9217 210H21.2438L21.7993 208.422H25.0323L25.5878 210ZM24.6768 207.389H22.1548L23.4214 203.801L24.6768 207.389ZM30.0237 207.2V210H31.2902V207.2L33.8455 202.279H32.4456L30.6569 206.067L28.8682 202.279H27.4573L30.0237 207.2ZM39.1169 202.267H34.8506V210H39.1169V208.967H36.1172V206.6H38.7836V205.567H36.1172V203.301H39.1169V202.267ZM44.7764 204.589C44.7764 205.356 44.332 205.9 43.3433 205.9H41.9434V203.312H43.3433C44.332 203.312 44.7764 203.812 44.7764 204.589ZM40.6769 202.279V210H41.9434V206.911H42.91L44.6876 210H46.1985L44.2876 206.8C45.5875 206.478 46.0763 205.5 46.0763 204.589C46.0763 203.334 45.1764 202.279 43.3433 202.279H40.6769ZM47.5077 203.901H48.7409C48.8187 203.334 49.2297 202.801 50.1185 202.801C50.9851 202.801 51.4406 203.267 51.4406 203.967C51.4406 204.834 50.7407 205.167 49.5964 205.178H49.2964V206.223H49.5853C50.9073 206.223 51.5962 206.589 51.5962 207.656C51.5962 208.411 51.1295 208.989 50.1852 208.989C49.2297 208.989 48.6742 208.411 48.6187 207.656H47.3966C47.4744 209.245 48.6631 210.044 50.1963 210.044C51.885 210.044 52.796 209.067 52.796 207.778C52.796 206.656 52.2517 205.956 51.4073 205.7V205.656C52.0406 205.445 52.6516 204.789 52.6516 203.823C52.6516 202.645 51.7739 201.712 50.163 201.712C48.6853 201.712 47.5966 202.501 47.5077 203.901ZM54.1265 205.845C54.1265 208.2 54.7486 209.978 57.0151 209.978C59.2815 209.978 59.9037 208.2 59.9037 205.845C59.9037 203.534 59.2815 201.756 57.0151 201.756C54.7486 201.756 54.1265 203.534 54.1265 205.845ZM58.6593 205.845C58.6593 207.434 58.4927 208.822 57.0151 208.822C55.5374 208.822 55.3708 207.434 55.3708 205.845C55.3708 204.334 55.5374 202.912 57.0151 202.912C58.4927 202.912 58.6593 204.334 58.6593 205.845ZM61.2438 205.845C61.2438 208.2 61.866 209.978 64.1324 209.978C66.3988 209.978 67.021 208.2 67.021 205.845C67.021 203.534 66.3988 201.756 64.1324 201.756C61.866 201.756 61.2438 203.534 61.2438 205.845ZM65.7767 205.845C65.7767 207.434 65.61 208.822 64.1324 208.822C62.6548 208.822 62.4881 207.434 62.4881 205.845C62.4881 204.334 62.6548 202.912 64.1324 202.912C65.61 202.912 65.7767 204.334 65.7767 205.845Z" fill="#9AA3AF"/>
</svg>
