<svg width="112" height="218" viewBox="0 0 112 218" fill="none" xmlns="http://www.w3.org/2000/svg">
<rect y="100" width="112" height="94" fill="#F9FAFA"/>
<path d="M0 4C0 1.79086 1.79086 0 4 0H108C110.209 0 112 1.79086 112 4V100H0V4Z" fill="#7D55C7"/>
<path d="M13.9105 109.267V115.022L10.0998 109.267H8.83325V117H10.0998V111.234L13.9105 117H15.1771V109.267H13.9105ZM22.0509 117H23.3841L20.6177 109.267H19.1511L16.3848 117H17.7068L18.2623 115.422H21.4954L22.0509 117ZM21.1398 114.389H18.6179L19.8844 110.801L21.1398 114.389ZM24.5869 117H25.8534V111.712L28.2199 117H29.0975L31.4529 111.712V117H32.7194V109.279H31.364L28.6643 115.333L25.9534 109.279H24.5869V117ZM38.6503 109.267H34.3841V117H38.6503V115.967H35.6506V113.6H38.317V112.567H35.6506V110.301H38.6503V109.267Z" fill="#C2C8CF"/>
<path d="M9.02641 137H10.2394V132.814H13.5186V131.828H10.2394V128.695H14.2784V127.709H9.02641V137ZM22.2219 129.695H21.0088V133.707C21.0088 135.28 20.169 136.054 18.916 136.054C17.6897 136.054 16.8765 135.294 16.8765 133.814V129.695H15.6768V133.974C15.6768 136.067 16.9965 137.107 18.6761 137.107C19.6492 137.107 20.5423 136.68 21.0088 135.92V137H22.2219V129.695ZM23.8168 133.334C23.8168 135.654 25.2964 137.12 27.3759 137.12C29.1888 137.12 30.3751 136.107 30.7484 134.654H29.442C29.1754 135.574 28.4556 136.094 27.3759 136.094C26.0429 136.094 25.0565 135.147 25.0565 133.334C25.0565 131.548 26.0429 130.602 27.3759 130.602C28.4556 130.602 29.1888 131.161 29.442 132.041H30.7484C30.3751 130.508 29.1888 129.575 27.3759 129.575C25.2964 129.575 23.8168 131.041 23.8168 133.334ZM32.3669 137H33.58V132.961C33.58 131.388 34.4331 130.615 35.6728 130.615C36.8991 130.615 37.7123 131.375 37.7123 132.868V137H38.912V132.694C38.912 130.602 37.6189 129.562 35.9927 129.562C34.9663 129.562 34.0598 129.975 33.58 130.748V127.136H32.3669V137ZM46.1455 135.014C46.0921 132.401 41.8532 133.348 41.8532 131.615C41.8532 131.028 42.3864 130.602 43.2795 130.602C44.2526 130.602 44.8125 131.135 44.8658 131.868H46.0788C45.9988 130.442 44.9324 129.575 43.3195 129.575C41.6932 129.575 40.6402 130.495 40.6402 131.615C40.6402 134.334 44.9591 133.388 44.9591 135.014C44.9591 135.614 44.4259 136.094 43.4661 136.094C42.4397 136.094 41.8132 135.56 41.7466 134.854H40.4935C40.5735 136.187 41.7732 137.12 43.4795 137.12C45.0924 137.12 46.1455 136.214 46.1455 135.014ZM47.8578 137H49.0709V129.695H47.8578V137ZM48.4844 128.509C48.9242 128.509 49.2842 128.149 49.2842 127.682C49.2842 127.216 48.9242 126.856 48.4844 126.856C48.0178 126.856 47.6579 127.216 47.6579 127.682C47.6579 128.149 48.0178 128.509 48.4844 128.509ZM50.6851 133.321C50.6851 135.587 52.1913 137.12 54.1375 137.12C55.4839 137.12 56.4303 136.427 56.8702 135.64V137H58.0965V129.695H56.8702V131.028C56.4436 130.268 55.5105 129.575 54.1509 129.575C52.1913 129.575 50.6851 131.041 50.6851 133.321ZM56.8702 133.334C56.8702 135.054 55.7238 136.054 54.3908 136.054C53.0578 136.054 51.9247 135.04 51.9247 133.321C51.9247 131.601 53.0578 130.628 54.3908 130.628C55.7238 130.628 56.8702 131.641 56.8702 133.334ZM68.9789 134.387C68.9789 135.4 68.2591 136 67.0594 136H64.9133V132.721H67.0194C68.2058 132.721 68.9789 133.361 68.9789 134.387ZM68.739 130.215C68.739 131.161 68.0858 131.721 66.9528 131.721H64.9133V128.709H66.9261C68.1125 128.709 68.739 129.295 68.739 130.215ZM70.1919 134.507C70.1919 133.361 69.3655 132.388 68.3524 132.215C69.2455 131.921 69.9787 131.241 69.9787 130.068C69.9787 128.775 68.9922 127.709 67.0327 127.709H63.7002V137H67.166C69.0856 137 70.1919 135.907 70.1919 134.507ZM71.8753 137H73.0883V127.136H71.8753V137ZM81.6341 129.695H80.4211V133.707C80.4211 135.28 79.5813 136.054 78.3282 136.054C77.1019 136.054 76.2888 135.294 76.2888 133.814V129.695H75.0891V133.974C75.0891 136.067 76.4087 137.107 78.0883 137.107C79.0614 137.107 79.9545 136.68 80.4211 135.92V137H81.6341V129.695ZM86.7881 130.602C88.0411 130.602 89.1075 131.388 89.0942 132.814H84.482C84.6153 131.388 85.6017 130.602 86.7881 130.602ZM90.2006 134.747H88.8943C88.6277 135.534 87.9345 136.094 86.8414 136.094C85.6017 136.094 84.562 135.28 84.4687 133.801H90.3072C90.3339 133.548 90.3472 133.334 90.3472 133.068C90.3472 131.068 88.9609 129.575 86.8414 129.575C84.7086 129.575 83.229 131.028 83.229 133.334C83.229 135.654 84.762 137.12 86.8414 137.12C88.6543 137.12 89.8274 136.08 90.2006 134.747Z" fill="#5D6B7E"/>
<path d="M13.7328 160H14.9993V152.279H13.7328V155.589H10.0998V152.279H8.83325V160H10.0998V156.623H13.7328V160ZM20.9329 152.267H16.6667V160H20.9329V158.967H17.9332V156.6H20.5996V155.567H17.9332V153.301H20.9329V152.267ZM27.0147 160H28.4368L26.037 156.145L28.4479 152.279H27.0369L25.3926 155.1L23.6372 152.279H22.2152L24.626 156.145L22.2263 160H23.6372L25.2704 157.2L27.0147 160Z" fill="#C2C8CF"/>
<path d="M8.43989 170.389V171.429H13.5853L9.82621 180H11.0526L14.7583 171.309V170.389H8.43989ZM19.1958 170.709H16.3032V180H19.1958C22.2484 180 24.1279 178.254 24.1279 175.374C24.1279 172.495 22.2484 170.709 19.1958 170.709ZM17.5163 179V171.695H19.1958C21.6219 171.695 22.8883 173.108 22.8883 175.374C22.8883 177.641 21.6219 179 19.1958 179H17.5163ZM25.8746 170.349V175.788H27.021C27.3409 175.028 28.0474 174.521 29.0205 174.521C30.4201 174.521 31.1266 175.321 31.1266 176.694C31.1266 178.014 30.4734 179 29.0071 179C27.8741 179 27.0876 178.4 26.861 177.387H25.6746C25.9146 178.947 27.0743 180.027 28.9938 180.027C31.2466 180.027 32.2863 178.534 32.2863 176.668C32.2863 175.175 31.5398 173.482 29.1938 173.482C28.2473 173.482 27.3942 173.908 26.9943 174.455V171.415H31.6731V170.349H25.8746ZM34.2449 170.349V175.788H35.3913C35.7112 175.028 36.4177 174.521 37.3908 174.521C38.7904 174.521 39.4969 175.321 39.4969 176.694C39.4969 178.014 38.8437 179 37.3774 179C36.2444 179 35.4579 178.4 35.2313 177.387H34.0449C34.2849 178.947 35.4446 180.027 37.3641 180.027C39.6169 180.027 40.6566 178.534 40.6566 176.668C40.6566 175.175 39.9101 173.482 37.5641 173.482C36.6176 173.482 35.7645 173.908 35.3646 174.455V171.415H40.0434V170.349H34.2449ZM42.0153 175.348C42.0153 178.134 44.0548 180.08 46.6542 180.08C48.667 180.08 50.2666 179.08 50.9598 177.294H49.5068C49.0003 178.4 48.0138 179.027 46.6542 179.027C44.708 179.027 43.255 177.614 43.255 175.348C43.255 173.068 44.708 171.655 46.6542 171.655C48.0138 171.655 49.0003 172.282 49.5068 173.402H50.9598C50.2666 171.602 48.667 170.589 46.6542 170.589C44.0548 170.589 42.0153 172.562 42.0153 175.348ZM52.179 170.389V171.429H57.3243L53.5653 180H54.7916L58.4974 171.309V170.389H52.179Z" fill="#5D6B7E"/>
<path d="M0 194H112V214C112 216.209 110.209 218 108 218H4C1.79086 218 0 216.209 0 214V194Z" fill="#EDEFF1"/>
<path d="M10.0998 205.834V203.312H11.4997C12.4884 203.312 12.9328 203.778 12.9328 204.578C12.9328 205.356 12.4884 205.834 11.4997 205.834H10.0998ZM14.2327 204.578C14.2327 203.323 13.3328 202.279 11.4997 202.279H8.83325V210H10.0998V206.867H11.4997C13.5106 206.867 14.2327 205.678 14.2327 204.578ZM15.4407 202.279V210H19.3181V208.978H16.7072V202.279H15.4407ZM25.5878 210H26.921L24.1546 202.267H22.6881L19.9217 210H21.2438L21.7993 208.422H25.0323L25.5878 210ZM24.6768 207.389H22.1548L23.4214 203.801L24.6768 207.389ZM30.0237 207.2V210H31.2902V207.2L33.8455 202.279H32.4456L30.6569 206.067L28.8682 202.279H27.4573L30.0237 207.2ZM39.1169 202.267H34.8506V210H39.1169V208.967H36.1172V206.6H38.7836V205.567H36.1172V203.301H39.1169V202.267ZM44.7764 204.589C44.7764 205.356 44.332 205.9 43.3433 205.9H41.9434V203.312H43.3433C44.332 203.312 44.7764 203.812 44.7764 204.589ZM40.6769 202.279V210H41.9434V206.911H42.91L44.6876 210H46.1985L44.2876 206.8C45.5875 206.478 46.0763 205.5 46.0763 204.589C46.0763 203.334 45.1764 202.279 43.3433 202.279H40.6769ZM51.3962 210H52.6405V208.311H53.6737V207.211H52.6405V202.001H51.1073L47.3744 207.356V208.311H51.3962V210ZM48.8298 207.211L51.4517 203.29V207.211H48.8298ZM54.7232 205.845C54.7232 208.2 55.3454 209.978 57.6118 209.978C59.8782 209.978 60.5004 208.2 60.5004 205.845C60.5004 203.534 59.8782 201.756 57.6118 201.756C55.3454 201.756 54.7232 203.534 54.7232 205.845ZM59.2561 205.845C59.2561 207.434 59.0894 208.822 57.6118 208.822C56.1342 208.822 55.9675 207.434 55.9675 205.845C55.9675 204.334 56.1342 202.912 57.6118 202.912C59.0894 202.912 59.2561 204.334 59.2561 205.845ZM61.8405 205.845C61.8405 208.2 62.4627 209.978 64.7291 209.978C66.9956 209.978 67.6177 208.2 67.6177 205.845C67.6177 203.534 66.9956 201.756 64.7291 201.756C62.4627 201.756 61.8405 203.534 61.8405 205.845ZM66.3734 205.845C66.3734 207.434 66.2068 208.822 64.7291 208.822C63.2515 208.822 63.0849 207.434 63.0849 205.845C63.0849 204.334 63.2515 202.912 64.7291 202.912C66.2068 202.912 66.3734 204.334 66.3734 205.845Z" fill="#9AA3AF"/>
</svg>
