<svg width="112" height="218" viewBox="0 0 112 218" fill="none" xmlns="http://www.w3.org/2000/svg">
<rect y="100" width="112" height="94" fill="#F9FAFA"/>
<path d="M0 4C0 1.79086 1.79086 0 4 0H108C110.209 0 112 1.79086 112 4V100H0V4Z" fill="#CBBBE9"/>
<path d="M13.9105 109.267V115.022L10.0998 109.267H8.83325V117H10.0998V111.234L13.9105 117H15.1771V109.267H13.9105ZM22.0509 117H23.3841L20.6177 109.267H19.1511L16.3848 117H17.7068L18.2623 115.422H21.4954L22.0509 117ZM21.1398 114.389H18.6179L19.8844 110.801L21.1398 114.389ZM24.5869 117H25.8534V111.712L28.2199 117H29.0975L31.4529 111.712V117H32.7194V109.279H31.364L28.6643 115.333L25.9534 109.279H24.5869V117ZM38.6503 109.267H34.3841V117H38.6503V115.967H35.6506V113.6H38.317V112.567H35.6506V110.301H38.6503V109.267Z" fill="#C2C8CF"/>
<path d="M10.2394 132.121V128.709H12.0257C13.412 128.709 13.9985 129.349 13.9985 130.428C13.9985 131.468 13.412 132.121 12.0257 132.121H10.2394ZM15.2382 130.428C15.2382 128.909 14.2118 127.709 12.0257 127.709H9.02641V137H10.2394V133.121H12.0257C14.3318 133.121 15.2382 131.841 15.2382 130.428ZM17.9589 133.028C17.9589 131.335 18.8386 130.815 19.9984 130.815H20.3183V129.562C19.1586 129.562 18.3721 130.068 17.9589 130.882V129.695H16.7458V137H17.9589V133.028ZM24.8244 130.602C26.0775 130.602 27.1439 131.388 27.1305 132.814H22.5183C22.6516 131.388 23.6381 130.602 24.8244 130.602ZM28.2369 134.747H26.9306C26.664 135.534 25.9708 136.094 24.8778 136.094C23.6381 136.094 22.5983 135.28 22.505 133.801H28.3436C28.3702 133.548 28.3835 133.334 28.3835 133.068C28.3835 131.068 26.9972 129.575 24.8778 129.575C22.745 129.575 21.2653 131.028 21.2653 133.334C21.2653 135.654 22.7983 137.12 24.8778 137.12C26.6906 137.12 27.8637 136.08 28.2369 134.747ZM29.9847 137H31.1977V127.136H29.9847V137ZM39.7435 129.695H38.5305V133.707C38.5305 135.28 37.6907 136.054 36.4377 136.054C35.2113 136.054 34.3982 135.294 34.3982 133.814V129.695H33.1985V133.974C33.1985 136.067 34.5182 137.107 36.1977 137.107C37.1708 137.107 38.0639 136.68 38.5305 135.92V137H39.7435V129.695ZM41.3384 133.321C41.3384 135.587 42.8447 137.12 44.8042 137.12C46.1372 137.12 47.0837 136.44 47.5236 135.627V137H48.7499V127.136H47.5236V131.001C47.017 130.162 45.9639 129.575 44.8176 129.575C42.8447 129.575 41.3384 131.041 41.3384 133.321ZM47.5236 133.334C47.5236 135.054 46.3772 136.054 45.0442 136.054C43.7112 136.054 42.5781 135.04 42.5781 133.321C42.5781 131.601 43.7112 130.628 45.0442 130.628C46.3772 130.628 47.5236 131.641 47.5236 133.334ZM53.9057 130.602C55.1587 130.602 56.2251 131.388 56.2118 132.814H51.5996C51.7329 131.388 52.7193 130.602 53.9057 130.602ZM57.3182 134.747H56.0118C55.7452 135.534 55.0521 136.094 53.959 136.094C52.7193 136.094 51.6796 135.28 51.5863 133.801H57.4248C57.4515 133.548 57.4648 133.334 57.4648 133.068C57.4648 131.068 56.0785 129.575 53.959 129.575C51.8262 129.575 50.3466 131.028 50.3466 133.334C50.3466 135.654 51.8795 137.12 53.959 137.12C55.7719 137.12 56.9449 136.08 57.3182 134.747Z" fill="#5D6B7E"/>
<path d="M13.7328 160H14.9993V152.279H13.7328V155.589H10.0998V152.279H8.83325V160H10.0998V156.623H13.7328V160ZM20.9329 152.267H16.6667V160H20.9329V158.967H17.9332V156.6H20.5996V155.567H17.9332V153.301H20.9329V152.267ZM27.0147 160H28.4368L26.037 156.145L28.4479 152.279H27.0369L25.3926 155.1L23.6372 152.279H22.2152L24.626 156.145L22.2263 160H23.6372L25.2704 157.2L27.0147 160Z" fill="#C2C8CF"/>
<path d="M8.57319 175.348C8.57319 178.134 10.6127 180.08 13.212 180.08C15.2249 180.08 16.8245 179.08 17.5176 177.294H16.0647C15.5581 178.4 14.5717 179.027 13.212 179.027C11.2659 179.027 9.81288 177.614 9.81288 175.348C9.81288 173.068 11.2659 171.655 13.212 171.655C14.5717 171.655 15.5581 172.282 16.0647 173.402H17.5176C16.8245 171.602 15.2249 170.589 13.212 170.589C10.6127 170.589 8.57319 172.562 8.57319 175.348ZM24.602 177.387C24.602 178.4 23.8822 179 22.6825 179H20.5363V175.721H22.6425C23.8289 175.721 24.602 176.361 24.602 177.387ZM24.3621 173.215C24.3621 174.161 23.7089 174.721 22.5758 174.721H20.5363V171.709H22.5492C23.7355 171.709 24.3621 172.295 24.3621 173.215ZM25.815 177.507C25.815 176.361 24.9886 175.388 23.9755 175.215C24.8686 174.921 25.6017 174.241 25.6017 173.068C25.6017 171.775 24.6153 170.709 22.6558 170.709H19.3233V180H22.7891C24.7086 180 25.815 178.907 25.815 177.507ZM32.777 177.387C32.777 178.4 32.0572 179 30.8575 179H28.7114V175.721H30.8175C32.0039 175.721 32.777 176.361 32.777 177.387ZM32.5371 173.215C32.5371 174.161 31.8839 174.721 30.7509 174.721H28.7114V171.709H30.7242C31.9106 171.709 32.5371 172.295 32.5371 173.215ZM33.9901 177.507C33.9901 176.361 33.1636 175.388 32.1505 175.215C33.0436 174.921 33.7768 174.241 33.7768 173.068C33.7768 171.775 32.7904 170.709 30.8309 170.709H27.4984V180H30.9642C32.8837 180 33.9901 178.907 33.9901 177.507ZM40.9521 177.387C40.9521 178.4 40.2323 179 39.0326 179H36.8864V175.721H38.9926C40.1789 175.721 40.9521 176.361 40.9521 177.387ZM40.7121 173.215C40.7121 174.161 40.059 174.721 38.9259 174.721H36.8864V171.709H38.8993C40.0856 171.709 40.7121 172.295 40.7121 173.215ZM42.1651 177.507C42.1651 176.361 41.3386 175.388 40.3256 175.215C41.2187 174.921 41.9518 174.241 41.9518 173.068C41.9518 171.775 40.9654 170.709 39.0059 170.709H35.6734V180H39.1392C41.0587 180 42.1651 178.907 42.1651 177.507ZM48.8472 170.696H43.8484V180H48.8472V179H45.0615V175.801H48.4473V174.801H45.0615V171.695H48.8472V170.696ZM50.9226 177.414C51.0559 178.827 51.989 180.013 53.9085 180.013C56.4412 180.013 57.1744 178.214 57.1744 175.001C57.1744 172.015 56.4146 170.176 53.8019 170.176C51.7224 170.176 50.6293 171.509 50.6293 173.348C50.6293 175.388 51.949 176.494 53.7219 176.494C54.7616 176.494 55.7214 176.028 56.108 175.215C56.148 178.04 55.3882 179 53.9752 179C52.8555 179 52.2156 178.414 52.0423 177.414H50.9226ZM53.9219 175.468C52.4822 175.468 51.7891 174.561 51.7891 173.322C51.7891 172.042 52.5755 171.189 53.8285 171.189C55.2149 171.189 55.9613 172.109 55.9613 173.415C55.9613 174.708 55.0816 175.468 53.9219 175.468Z" fill="#5D6B7E"/>
<path d="M0 194H112V214C112 216.209 110.209 218 108 218H4C1.79086 218 0 216.209 0 214V194Z" fill="#EDEFF1"/>
<path d="M10.0998 205.834V203.312H11.4997C12.4884 203.312 12.9328 203.778 12.9328 204.578C12.9328 205.356 12.4884 205.834 11.4997 205.834H10.0998ZM14.2327 204.578C14.2327 203.323 13.3328 202.279 11.4997 202.279H8.83325V210H10.0998V206.867H11.4997C13.5106 206.867 14.2327 205.678 14.2327 204.578ZM15.4407 202.279V210H19.3181V208.978H16.7072V202.279H15.4407ZM25.5878 210H26.921L24.1546 202.267H22.6881L19.9217 210H21.2438L21.7993 208.422H25.0323L25.5878 210ZM24.6768 207.389H22.1548L23.4214 203.801L24.6768 207.389ZM30.0237 207.2V210H31.2902V207.2L33.8455 202.279H32.4456L30.6569 206.067L28.8682 202.279H27.4573L30.0237 207.2ZM39.1169 202.267H34.8506V210H39.1169V208.967H36.1172V206.6H38.7836V205.567H36.1172V203.301H39.1169V202.267ZM44.7764 204.589C44.7764 205.356 44.332 205.9 43.3433 205.9H41.9434V203.312H43.3433C44.332 203.312 44.7764 203.812 44.7764 204.589ZM40.6769 202.279V210H41.9434V206.911H42.91L44.6876 210H46.1985L44.2876 206.8C45.5875 206.478 46.0763 205.5 46.0763 204.589C46.0763 203.334 45.1764 202.279 43.3433 202.279H40.6769ZM48.3965 210H49.6741V201.901H47.3633V203.056H48.3965V210ZM51.4141 205.845C51.4141 208.2 52.0362 209.978 54.3027 209.978C56.5691 209.978 57.1913 208.2 57.1913 205.845C57.1913 203.534 56.5691 201.756 54.3027 201.756C52.0362 201.756 51.4141 203.534 51.4141 205.845ZM55.9469 205.845C55.9469 207.434 55.7803 208.822 54.3027 208.822C52.825 208.822 52.6584 207.434 52.6584 205.845C52.6584 204.334 52.825 202.912 54.3027 202.912C55.7803 202.912 55.9469 204.334 55.9469 205.845ZM58.5314 205.845C58.5314 208.2 59.1536 209.978 61.42 209.978C63.6864 209.978 64.3086 208.2 64.3086 205.845C64.3086 203.534 63.6864 201.756 61.42 201.756C59.1536 201.756 58.5314 203.534 58.5314 205.845ZM63.0643 205.845C63.0643 207.434 62.8976 208.822 61.42 208.822C59.9424 208.822 59.7757 207.434 59.7757 205.845C59.7757 204.334 59.9424 202.912 61.42 202.912C62.8976 202.912 63.0643 204.334 63.0643 205.845Z" fill="#9AA3AF"/>
</svg>
