<svg width="112" height="218" viewBox="0 0 112 218" fill="none" xmlns="http://www.w3.org/2000/svg">
<rect y="100" width="112" height="94" fill="#F9FAFA"/>
<path d="M0 4C0 1.79086 1.79086 0 4 0H108C110.209 0 112 1.79086 112 4V100H0V4Z" fill="#B199DD"/>
<path d="M13.9105 109.267V115.022L10.0998 109.267H8.83325V117H10.0998V111.234L13.9105 117H15.1771V109.267H13.9105ZM22.0509 117H23.3841L20.6177 109.267H19.1511L16.3848 117H17.7068L18.2623 115.422H21.4954L22.0509 117ZM21.1398 114.389H18.6179L19.8844 110.801L21.1398 114.389ZM24.5869 117H25.8534V111.712L28.2199 117H29.0975L31.4529 111.712V117H32.7194V109.279H31.364L28.6643 115.333L25.9534 109.279H24.5869V117ZM38.6503 109.267H34.3841V117H38.6503V115.967H35.6506V113.6H38.317V112.567H35.6506V110.301H38.6503V109.267Z" fill="#C2C8CF"/>
<path d="M8.57319 132.348C8.57319 135.134 10.6127 137.08 13.212 137.08C15.2249 137.08 16.8245 136.08 17.5176 134.294H16.0647C15.5581 135.4 14.5717 136.027 13.212 136.027C11.2659 136.027 9.81288 134.614 9.81288 132.348C9.81288 130.068 11.2659 128.655 13.212 128.655C14.5717 128.655 15.5581 129.282 16.0647 130.402H17.5176C16.8245 128.602 15.2249 127.589 13.212 127.589C10.6127 127.589 8.57319 129.562 8.57319 132.348ZM26.2549 133.334C26.2549 131.028 24.642 129.575 22.5625 129.575C20.4964 129.575 18.8701 131.028 18.8701 133.334C18.8701 135.654 20.443 137.12 22.5092 137.12C24.5887 137.12 26.2549 135.654 26.2549 133.334ZM20.1098 133.334C20.1098 131.495 21.2695 130.628 22.5492 130.628C23.8022 130.628 25.0152 131.495 25.0152 133.334C25.0152 135.187 23.7755 136.054 22.5092 136.054C21.2428 136.054 20.1098 135.187 20.1098 133.334ZM27.8498 137H29.0629V127.136H27.8498V137ZM30.677 133.321C30.677 135.587 32.1833 137.12 34.1428 137.12C35.4758 137.12 36.4223 136.44 36.8622 135.627V137H38.0885V127.136H36.8622V131.001C36.3556 130.162 35.3025 129.575 34.1562 129.575C32.1833 129.575 30.677 131.041 30.677 133.321ZM36.8622 133.334C36.8622 135.054 35.7158 136.054 34.3828 136.054C33.0498 136.054 31.9167 135.04 31.9167 133.321C31.9167 131.601 33.0498 130.628 34.3828 130.628C35.7158 130.628 36.8622 131.641 36.8622 133.334ZM44.9052 132.121V128.709H46.6915C48.0778 128.709 48.6643 129.349 48.6643 130.428C48.6643 131.468 48.0778 132.121 46.6915 132.121H44.9052ZM49.904 130.428C49.904 128.909 48.8776 127.709 46.6915 127.709H43.6922V137H44.9052V133.121H46.6915C48.9976 133.121 49.904 131.841 49.904 130.428ZM57.89 129.695H56.677V133.707C56.677 135.28 55.8372 136.054 54.5842 136.054C53.3578 136.054 52.5447 135.294 52.5447 133.814V129.695H51.345V133.974C51.345 136.067 52.6647 137.107 54.3442 137.107C55.3173 137.107 56.2104 136.68 56.677 135.92V137H57.89V129.695ZM61.1512 133.028C61.1512 131.335 62.031 130.815 63.1907 130.815H63.5106V129.562C62.3509 129.562 61.5644 130.068 61.1512 130.882V129.695H59.9382V137H61.1512V133.028ZM66.1239 131.041V129.695H64.9109V140.466H66.1239V135.654C66.5771 136.4 67.5236 137.12 68.8566 137.12C70.8161 137.12 72.3224 135.587 72.3224 133.321C72.3224 131.041 70.8161 129.575 68.8566 129.575C67.5236 129.575 66.5638 130.268 66.1239 131.041ZM71.0827 133.321C71.0827 135.04 69.9496 136.054 68.6033 136.054C67.2836 136.054 66.1239 135.054 66.1239 133.334C66.1239 131.641 67.2836 130.628 68.6033 130.628C69.9496 130.628 71.0827 131.601 71.0827 133.321ZM73.919 137H75.1321V127.136H73.919V137ZM80.3054 130.602C81.5584 130.602 82.6248 131.388 82.6114 132.814H77.9993C78.1326 131.388 79.119 130.602 80.3054 130.602ZM83.7178 134.747H82.4115C82.1449 135.534 81.4517 136.094 80.3587 136.094C79.119 136.094 78.0792 135.28 77.9859 133.801H83.8245C83.8511 133.548 83.8645 133.334 83.8645 133.068C83.8645 131.068 82.4781 129.575 80.3587 129.575C78.2259 129.575 76.7462 131.028 76.7462 133.334C76.7462 135.654 78.2792 137.12 80.3587 137.12C82.1716 137.12 83.3446 136.08 83.7178 134.747Z" fill="#5D6B7E"/>
<path d="M13.7328 160H14.9993V152.279H13.7328V155.589H10.0998V152.279H8.83325V160H10.0998V156.623H13.7328V160ZM20.9329 152.267H16.6667V160H20.9329V158.967H17.9332V156.6H20.5996V155.567H17.9332V153.301H20.9329V152.267ZM27.0147 160H28.4368L26.037 156.145L28.4479 152.279H27.0369L25.3926 155.1L23.6372 152.279H22.2152L24.626 156.145L22.2263 160H23.6372L25.2704 157.2L27.0147 160Z" fill="#C2C8CF"/>
<path d="M14.3051 177.387C14.3051 178.4 13.5853 179 12.3856 179H10.2394V175.721H12.3456C13.532 175.721 14.3051 176.361 14.3051 177.387ZM14.0652 173.215C14.0652 174.161 13.412 174.721 12.2789 174.721H10.2394V171.709H12.2523C13.4386 171.709 14.0652 172.295 14.0652 173.215ZM15.5181 177.507C15.5181 176.361 14.6917 175.388 13.6786 175.215C14.5717 174.921 15.3048 174.241 15.3048 173.068C15.3048 171.775 14.3184 170.709 12.3589 170.709H9.02641V180H12.4922C14.4117 180 15.5181 178.907 15.5181 177.507ZM17.9613 180H19.1876V170.362H16.6816V171.469H17.9613V180ZM21.7112 177.414C21.8445 178.827 22.7776 180.013 24.6971 180.013C27.2298 180.013 27.9629 178.214 27.9629 175.001C27.9629 172.015 27.2031 170.176 24.5904 170.176C22.511 170.176 21.4179 171.509 21.4179 173.348C21.4179 175.388 22.7376 176.494 24.5105 176.494C25.5502 176.494 26.51 176.028 26.8965 175.215C26.9365 178.04 26.1767 179 24.7637 179C23.644 179 23.0042 178.414 22.8309 177.414H21.7112ZM24.7104 175.468C23.2708 175.468 22.5776 174.561 22.5776 173.322C22.5776 172.042 23.3641 171.189 24.6171 171.189C26.0034 171.189 26.7499 172.109 26.7499 173.415C26.7499 174.708 25.8701 175.468 24.7104 175.468ZM30.1075 177.414C30.2408 178.827 31.1739 180.013 33.0934 180.013C35.6261 180.013 36.3593 178.214 36.3593 175.001C36.3593 172.015 35.5995 170.176 32.9868 170.176C30.9073 170.176 29.8142 171.509 29.8142 173.348C29.8142 175.388 31.1339 176.494 32.9068 176.494C33.9465 176.494 34.9063 176.028 35.2929 175.215C35.3329 178.04 34.573 179 33.1601 179C32.0403 179 31.4005 178.414 31.2272 177.414H30.1075ZM33.1067 175.468C31.6671 175.468 30.9739 174.561 30.9739 173.322C30.9739 172.042 31.7604 171.189 33.0134 171.189C34.3998 171.189 35.1462 172.109 35.1462 173.415C35.1462 174.708 34.2665 175.468 33.1067 175.468ZM41.1565 170.709H38.2639V180H41.1565C44.2091 180 46.0886 178.254 46.0886 175.374C46.0886 172.495 44.2091 170.709 41.1565 170.709ZM39.4769 179V171.695H41.1565C43.5826 171.695 44.8489 173.108 44.8489 175.374C44.8489 177.641 43.5826 179 41.1565 179H39.4769ZM50.5812 170.709H47.6886V180H50.5812C53.6338 180 55.5133 178.254 55.5133 175.374C55.5133 172.495 53.6338 170.709 50.5812 170.709ZM48.9016 179V171.695H50.5812C53.0073 171.695 54.2736 173.108 54.2736 175.374C54.2736 177.641 53.0073 179 50.5812 179H48.9016Z" fill="#5D6B7E"/>
<path d="M0 194H112V214C112 216.209 110.209 218 108 218H4C1.79086 218 0 216.209 0 214V194Z" fill="#EDEFF1"/>
<path d="M10.0998 205.834V203.312H11.4997C12.4884 203.312 12.9328 203.778 12.9328 204.578C12.9328 205.356 12.4884 205.834 11.4997 205.834H10.0998ZM14.2327 204.578C14.2327 203.323 13.3328 202.279 11.4997 202.279H8.83325V210H10.0998V206.867H11.4997C13.5106 206.867 14.2327 205.678 14.2327 204.578ZM15.4407 202.279V210H19.3181V208.978H16.7072V202.279H15.4407ZM25.5878 210H26.921L24.1546 202.267H22.6881L19.9217 210H21.2438L21.7993 208.422H25.0323L25.5878 210ZM24.6768 207.389H22.1548L23.4214 203.801L24.6768 207.389ZM30.0237 207.2V210H31.2902V207.2L33.8455 202.279H32.4456L30.6569 206.067L28.8682 202.279H27.4573L30.0237 207.2ZM39.1169 202.267H34.8506V210H39.1169V208.967H36.1172V206.6H38.7836V205.567H36.1172V203.301H39.1169V202.267ZM44.7764 204.589C44.7764 205.356 44.332 205.9 43.3433 205.9H41.9434V203.312H43.3433C44.332 203.312 44.7764 203.812 44.7764 204.589ZM40.6769 202.279V210H41.9434V206.911H42.91L44.6876 210H46.1985L44.2876 206.8C45.5875 206.478 46.0763 205.5 46.0763 204.589C46.0763 203.334 45.1764 202.279 43.3433 202.279H40.6769ZM47.4299 209.889H52.8294V208.833H49.3075C50.6074 207.645 52.6072 206.145 52.6072 204.178C52.6072 202.723 51.6739 201.734 50.0297 201.734C48.5965 201.734 47.4632 202.59 47.4188 204.345H48.6409C48.6742 203.434 49.152 202.812 50.0408 202.812C50.9851 202.812 51.3517 203.39 51.3517 204.234C51.3517 205.823 49.3408 207.289 47.4299 208.967V209.889ZM53.942 205.845C53.942 208.2 54.5642 209.978 56.8306 209.978C59.0971 209.978 59.7192 208.2 59.7192 205.845C59.7192 203.534 59.0971 201.756 56.8306 201.756C54.5642 201.756 53.942 203.534 53.942 205.845ZM58.4749 205.845C58.4749 207.434 58.3082 208.822 56.8306 208.822C55.353 208.822 55.1863 207.434 55.1863 205.845C55.1863 204.334 55.353 202.912 56.8306 202.912C58.3082 202.912 58.4749 204.334 58.4749 205.845ZM61.0594 205.845C61.0594 208.2 61.6815 209.978 63.948 209.978C66.2144 209.978 66.8366 208.2 66.8366 205.845C66.8366 203.534 66.2144 201.756 63.948 201.756C61.6815 201.756 61.0594 203.534 61.0594 205.845ZM65.5922 205.845C65.5922 207.434 65.4256 208.822 63.948 208.822C62.4703 208.822 62.3037 207.434 62.3037 205.845C62.3037 204.334 62.4703 202.912 63.948 202.912C65.4256 202.912 65.5922 204.334 65.5922 205.845Z" fill="#9AA3AF"/>
</svg>
