<svg width="112" height="218" viewBox="0 0 112 218" fill="none" xmlns="http://www.w3.org/2000/svg">
<rect y="100" width="112" height="94" fill="#F9FAFA"/>
<path d="M0 4C0 1.79086 1.79086 0 4 0H108C110.209 0 112 1.79086 112 4V100H0V4Z" fill="#4B3377"/>
<path d="M13.9105 109.267V115.022L10.0998 109.267H8.83325V117H10.0998V111.234L13.9105 117H15.1771V109.267H13.9105ZM22.0509 117H23.3841L20.6177 109.267H19.1511L16.3848 117H17.7068L18.2623 115.422H21.4954L22.0509 117ZM21.1398 114.389H18.6179L19.8844 110.801L21.1398 114.389ZM24.5869 117H25.8534V111.712L28.2199 117H29.0975L31.4529 111.712V117H32.7194V109.279H31.364L28.6643 115.333L25.9534 109.279H24.5869V117ZM38.6503 109.267H34.3841V117H38.6503V115.967H35.6506V113.6H38.317V112.567H35.6506V110.301H38.6503V109.267Z" fill="#C2C8CF"/>
<path d="M9.02641 137H10.2394V130.108L13.3187 137H14.1718L17.2377 130.122V137H18.4507V127.776H17.1577L13.7452 135.4L10.3328 127.776H9.02641V137ZM20.5079 137H21.7209V129.695H20.5079V137ZM21.1344 128.509C21.5743 128.509 21.9342 128.149 21.9342 127.682C21.9342 127.216 21.5743 126.856 21.1344 126.856C20.6679 126.856 20.308 127.216 20.308 127.682C20.308 128.149 20.6679 128.509 21.1344 128.509ZM29.1337 137H30.3334V132.694C30.3334 130.602 29.0404 129.562 27.3475 129.562C26.361 129.562 25.4813 129.975 25.0014 130.735V129.695H23.7883V137H25.0014V132.961C25.0014 131.388 25.8545 130.615 27.0942 130.615C28.3205 130.615 29.1337 131.375 29.1337 132.868V137ZM37.5669 135.014C37.5136 132.401 33.2746 133.348 33.2746 131.615C33.2746 131.028 33.8078 130.602 34.7009 130.602C35.674 130.602 36.2339 131.135 36.2872 131.868H37.5002C37.4202 130.442 36.3538 129.575 34.7409 129.575C33.1147 129.575 32.0616 130.495 32.0616 131.615C32.0616 134.334 36.3805 133.388 36.3805 135.014C36.3805 135.614 35.8473 136.094 34.8875 136.094C33.8611 136.094 33.2346 135.56 33.168 134.854H31.915C31.9949 136.187 33.1946 137.12 34.9009 137.12C36.5138 137.12 37.5669 136.214 37.5669 135.014ZM39.2793 137H40.4923V133.774L43.3582 137H45.0112L41.5587 133.334L44.9978 129.695H43.3049L40.4923 132.934V127.136H39.2793V137Z" fill="#5D6B7E"/>
<path d="M13.7328 160H14.9993V152.279H13.7328V155.589H10.0998V152.279H8.83325V160H10.0998V156.623H13.7328V160ZM20.9329 152.267H16.6667V160H20.9329V158.967H17.9332V156.6H20.5996V155.567H17.9332V153.301H20.9329V152.267ZM27.0147 160H28.4368L26.037 156.145L28.4479 152.279H27.0369L25.3926 155.1L23.6372 152.279H22.2152L24.626 156.145L22.2263 160H23.6372L25.2704 157.2L27.0147 160Z" fill="#C2C8CF"/>
<path d="M13.4653 180H14.665V177.854H15.998V176.801H14.665V170.456H13.212L8.5332 176.934V177.854H13.4653V180ZM9.93285 176.801L13.5186 171.722V176.801H9.93285ZM22.6884 177.387C22.6884 178.4 21.9686 179 20.7689 179H18.6228V175.721H20.7289C21.9153 175.721 22.6884 176.361 22.6884 177.387ZM22.4485 173.215C22.4485 174.161 21.7953 174.721 20.6622 174.721H18.6228V171.709H20.6356C21.822 171.709 22.4485 172.295 22.4485 173.215ZM23.9014 177.507C23.9014 176.361 23.075 175.388 22.0619 175.215C22.955 174.921 23.6882 174.241 23.6882 173.068C23.6882 171.775 22.7017 170.709 20.7422 170.709H17.4097V180H20.8755C22.7951 180 23.9014 178.907 23.9014 177.507ZM25.3582 172.788H26.5445C26.6645 171.855 27.3443 171.216 28.4774 171.216C29.6371 171.216 30.2503 171.855 30.2503 172.775C30.2503 173.895 29.3838 174.388 27.7709 174.401H27.451V175.414H27.7576C29.4905 175.414 30.4369 175.934 30.4369 177.294C30.4369 178.28 29.8237 179.04 28.5307 179.04C27.251 179.04 26.5045 178.254 26.3846 177.227H25.2115C25.3582 179.094 26.7178 180.067 28.544 180.067C30.5569 180.067 31.5966 178.894 31.5966 177.401C31.5966 176.014 30.8368 175.188 29.7171 174.921V174.855C30.7301 174.628 31.4233 173.762 31.4233 172.655C31.4233 171.269 30.3969 170.176 28.5174 170.176C26.7311 170.176 25.4781 171.136 25.3582 172.788ZM33.2078 172.788H34.3941C34.5141 171.855 35.1939 171.216 36.327 171.216C37.4867 171.216 38.0999 171.855 38.0999 172.775C38.0999 173.895 37.2334 174.388 35.6205 174.401H35.3006V175.414H35.6072C37.3401 175.414 38.2865 175.934 38.2865 177.294C38.2865 178.28 37.6733 179.04 36.3803 179.04C35.1006 179.04 34.3541 178.254 34.2342 177.227H33.0611C33.2078 179.094 34.5674 180.067 36.3936 180.067C38.4065 180.067 39.4462 178.894 39.4462 177.401C39.4462 176.014 38.6864 175.188 37.5667 174.921V174.855C38.5797 174.628 39.2729 173.762 39.2729 172.655C39.2729 171.269 38.2465 170.176 36.367 170.176C34.5807 170.176 33.3277 171.136 33.2078 172.788ZM40.6974 170.389V171.429H45.8428L42.0838 180H43.3101L47.0159 171.309V170.389H40.6974ZM47.9743 170.389V171.429H53.1197L49.3606 180H50.587L54.2927 171.309V170.389H47.9743Z" fill="#5D6B7E"/>
<path d="M0 194H112V214C112 216.209 110.209 218 108 218H4C1.79086 218 0 216.209 0 214V194Z" fill="#EDEFF1"/>
<path d="M10.0998 205.834V203.312H11.4997C12.4884 203.312 12.9328 203.778 12.9328 204.578C12.9328 205.356 12.4884 205.834 11.4997 205.834H10.0998ZM14.2327 204.578C14.2327 203.323 13.3328 202.279 11.4997 202.279H8.83325V210H10.0998V206.867H11.4997C13.5106 206.867 14.2327 205.678 14.2327 204.578ZM15.4407 202.279V210H19.3181V208.978H16.7072V202.279H15.4407ZM25.5878 210H26.921L24.1546 202.267H22.6881L19.9217 210H21.2438L21.7993 208.422H25.0323L25.5878 210ZM24.6768 207.389H22.1548L23.4214 203.801L24.6768 207.389ZM30.0237 207.2V210H31.2902V207.2L33.8455 202.279H32.4456L30.6569 206.067L28.8682 202.279H27.4573L30.0237 207.2ZM39.1169 202.267H34.8506V210H39.1169V208.967H36.1172V206.6H38.7836V205.567H36.1172V203.301H39.1169V202.267ZM44.7764 204.589C44.7764 205.356 44.332 205.9 43.3433 205.9H41.9434V203.312H43.3433C44.332 203.312 44.7764 203.812 44.7764 204.589ZM40.6769 202.279V210H41.9434V206.911H42.91L44.6876 210H46.1985L44.2876 206.8C45.5875 206.478 46.0763 205.5 46.0763 204.589C46.0763 203.334 45.1764 202.279 43.3433 202.279H40.6769ZM53.0516 203.778C52.9183 202.701 52.1294 201.701 50.5518 201.701C48.5298 201.701 47.6854 203.234 47.6854 205.767C47.6854 208.345 48.2965 210 50.6518 210C52.385 210 53.3071 208.833 53.3071 207.3C53.3071 205.612 52.2739 204.634 50.8185 204.634C49.9741 204.634 49.1742 204.989 48.7742 205.656C48.8076 203.534 49.3964 202.756 50.5407 202.756C51.3406 202.756 51.7295 203.123 51.885 203.778H53.0516ZM50.5407 205.7C51.6073 205.7 52.0961 206.389 52.0961 207.356C52.0961 208.311 51.5184 208.945 50.5852 208.945C49.5075 208.945 48.9187 208.278 48.9187 207.278C48.9187 206.2 49.7075 205.7 50.5407 205.7ZM54.6581 205.845C54.6581 208.2 55.2803 209.978 57.5467 209.978C59.8131 209.978 60.4353 208.2 60.4353 205.845C60.4353 203.534 59.8131 201.756 57.5467 201.756C55.2803 201.756 54.6581 203.534 54.6581 205.845ZM59.191 205.845C59.191 207.434 59.0243 208.822 57.5467 208.822C56.0691 208.822 55.9024 207.434 55.9024 205.845C55.9024 204.334 56.0691 202.912 57.5467 202.912C59.0243 202.912 59.191 204.334 59.191 205.845ZM61.7754 205.845C61.7754 208.2 62.3976 209.978 64.664 209.978C66.9305 209.978 67.5526 208.2 67.5526 205.845C67.5526 203.534 66.9305 201.756 64.664 201.756C62.3976 201.756 61.7754 203.534 61.7754 205.845ZM66.3083 205.845C66.3083 207.434 66.1417 208.822 64.664 208.822C63.1864 208.822 63.0198 207.434 63.0198 205.845C63.0198 204.334 63.1864 202.912 64.664 202.912C66.1417 202.912 66.3083 204.334 66.3083 205.845Z" fill="#9AA3AF"/>
</svg>
