<svg width="112" height="218" viewBox="0 0 112 218" fill="none" xmlns="http://www.w3.org/2000/svg">
<rect y="100" width="112" height="94" fill="#F9FAFA"/>
<path d="M0 4C0 1.79086 1.79086 0 4 0H108C110.209 0 112 1.79086 112 4V100H0V4Z" fill="#F3B2BA"/>
<path d="M13.9105 109.267V115.022L10.0998 109.267H8.83325V117H10.0998V111.234L13.9105 117H15.1771V109.267H13.9105ZM22.0509 117H23.3841L20.6177 109.267H19.1511L16.3848 117H17.7068L18.2623 115.422H21.4954L22.0509 117ZM21.1398 114.389H18.6179L19.8844 110.801L21.1398 114.389ZM24.5869 117H25.8534V111.712L28.2199 117H29.0975L31.4529 111.712V117H32.7194V109.279H31.364L28.6643 115.333L25.9534 109.279H24.5869V117ZM38.6503 109.267H34.3841V117H38.6503V115.967H35.6506V113.6H38.317V112.567H35.6506V110.301H38.6503V109.267Z" fill="#C2C8CF"/>
<path d="M15.1182 127.696V135.08L10.2394 127.696H9.02641V137H10.2394V129.602L15.1182 137H16.3312V127.696H15.1182ZM17.9458 133.321C17.9458 135.587 19.4521 137.12 21.3983 137.12C22.7446 137.12 23.6911 136.427 24.131 135.64V137H25.3573V129.695H24.131V131.028C23.7044 130.268 22.7713 129.575 21.4116 129.575C19.4521 129.575 17.9458 131.041 17.9458 133.321ZM24.131 133.334C24.131 135.054 22.9846 136.054 21.6516 136.054C20.3186 136.054 19.1855 135.04 19.1855 133.321C19.1855 131.601 20.3186 130.628 21.6516 130.628C22.9846 130.628 24.131 131.641 24.131 133.334ZM26.954 133.321C26.954 135.587 28.4603 137.12 30.4198 137.12C31.7528 137.12 32.6992 136.44 33.1391 135.627V137H34.3655V127.136H33.1391V131.001C32.6326 130.162 31.5795 129.575 30.4331 129.575C28.4603 129.575 26.954 131.041 26.954 133.321ZM33.1391 133.334C33.1391 135.054 31.9928 136.054 30.6598 136.054C29.3268 136.054 28.1937 135.04 28.1937 133.321C28.1937 131.601 29.3268 130.628 30.6598 130.628C31.9928 130.628 33.1391 131.641 33.1391 133.334ZM39.5213 130.602C40.7743 130.602 41.8407 131.388 41.8274 132.814H37.2152C37.3485 131.388 38.3349 130.602 39.5213 130.602ZM42.9338 134.747H41.6274C41.3608 135.534 40.6677 136.094 39.5746 136.094C38.3349 136.094 37.2952 135.28 37.2019 133.801H43.0404C43.0671 133.548 43.0804 133.334 43.0804 133.068C43.0804 131.068 41.6941 129.575 39.5746 129.575C37.4418 129.575 35.9622 131.028 35.9622 133.334C35.9622 135.654 37.4951 137.12 39.5746 137.12C41.3875 137.12 42.5605 136.08 42.9338 134.747ZM49.9336 135.014C49.8803 132.401 45.6413 133.348 45.6413 131.615C45.6413 131.028 46.1745 130.602 47.0676 130.602C48.0407 130.602 48.6006 131.135 48.6539 131.868H49.8669C49.7869 130.442 48.7205 129.575 47.1076 129.575C45.4814 129.575 44.4283 130.495 44.4283 131.615C44.4283 134.334 48.7472 133.388 48.7472 135.014C48.7472 135.614 48.214 136.094 47.2542 136.094C46.2278 136.094 45.6013 135.56 45.5347 134.854H44.2817C44.3616 136.187 45.5613 137.12 47.2676 137.12C48.8805 137.12 49.9336 136.214 49.9336 135.014ZM51.646 137H52.859V132.961C52.859 131.388 53.7121 130.615 54.9518 130.615C56.1782 130.615 56.9913 131.375 56.9913 132.868V137H58.191V132.694C58.191 130.602 56.898 129.562 55.2717 129.562C54.2453 129.562 53.3389 129.975 52.859 130.748V127.136H51.646V137ZM60.1725 137H61.3855V129.695H60.1725V137ZM60.799 128.509C61.2389 128.509 61.5988 128.149 61.5988 127.682C61.5988 127.216 61.2389 126.856 60.799 126.856C60.3324 126.856 59.9725 127.216 59.9725 127.682C59.9725 128.149 60.3324 128.509 60.799 128.509ZM63.4529 137H64.6659V133.774L67.5319 137H69.1848L65.7323 133.334L69.1715 129.695H67.4786L64.6659 132.934V127.136H63.4529V137ZM77.2448 133.334C77.2448 131.028 75.6318 129.575 73.5524 129.575C71.4862 129.575 69.8599 131.028 69.8599 133.334C69.8599 135.654 71.4329 137.12 73.499 137.12C75.5785 137.12 77.2448 135.654 77.2448 133.334ZM71.0996 133.334C71.0996 131.495 72.2593 130.628 73.539 130.628C74.792 130.628 76.0051 131.495 76.0051 133.334C76.0051 135.187 74.7654 136.054 73.499 136.054C72.2327 136.054 71.0996 135.187 71.0996 133.334ZM10.2394 153.121V149.709H12.0257C13.412 149.709 13.9985 150.349 13.9985 151.428C13.9985 152.468 13.412 153.121 12.0257 153.121H10.2394ZM15.2382 151.428C15.2382 149.909 14.2118 148.709 12.0257 148.709H9.02641V158H10.2394V154.121H12.0257C14.3318 154.121 15.2382 152.841 15.2382 151.428ZM16.7458 158H17.9589V150.695H16.7458V158ZM17.3723 149.509C17.8122 149.509 18.1721 149.149 18.1721 148.682C18.1721 148.216 17.8122 147.856 17.3723 147.856C16.9058 147.856 16.5459 148.216 16.5459 148.682C16.5459 149.149 16.9058 149.509 17.3723 149.509ZM25.3716 158H26.5713V153.694C26.5713 151.602 25.2783 150.562 23.5854 150.562C22.599 150.562 21.7192 150.975 21.2393 151.735V150.695H20.0263V158H21.2393V153.961C21.2393 152.388 22.0924 151.615 23.3321 151.615C24.5585 151.615 25.3716 152.375 25.3716 153.868V158ZM28.5528 158H29.7658V154.774L32.6318 158H34.2847L30.8322 154.334L34.2713 150.695H32.5784L29.7658 153.934V148.136H28.5528V158Z" fill="#5D6B7E"/>
<path d="M13.7328 160H14.9993V152.279H13.7328V155.589H10.0998V152.279H8.83325V160H10.0998V156.623H13.7328V160ZM20.9329 152.267H16.6667V160H20.9329V158.967H17.9332V156.6H20.5996V155.567H17.9332V153.301H20.9329V152.267ZM27.0147 160H28.4368L26.037 156.145L28.4479 152.279H27.0369L25.3926 155.1L23.6372 152.279H22.2152L24.626 156.145L22.2263 160H23.6372L25.2704 157.2L27.0147 160Z" fill="#C2C8CF"/>
<path d="M9.02641 180H10.2394V175.814H13.5186V174.828H10.2394V171.695H14.2784V170.709H9.02641V180ZM15.5169 172.788H16.7032C16.8232 171.855 17.503 171.216 18.6361 171.216C19.7958 171.216 20.409 171.855 20.409 172.775C20.409 173.895 19.5425 174.388 17.9296 174.401H17.6097V175.414H17.9163C19.6492 175.414 20.5956 175.934 20.5956 177.294C20.5956 178.28 19.9824 179.04 18.6894 179.04C17.4097 179.04 16.6633 178.254 16.5433 177.227H15.3702C15.5169 179.094 16.8765 180.067 18.7027 180.067C20.7156 180.067 21.7553 178.894 21.7553 177.401C21.7553 176.014 20.9955 175.188 19.8758 174.921V174.855C20.8889 174.628 21.582 173.762 21.582 172.655C21.582 171.269 20.5556 170.176 18.6761 170.176C16.8899 170.176 15.6368 171.136 15.5169 172.788ZM28.8718 177.387C28.8718 178.4 28.1519 179 26.9522 179H24.8061V175.721H26.9122C28.0986 175.721 28.8718 176.361 28.8718 177.387ZM28.6318 173.215C28.6318 174.161 27.9786 174.721 26.8456 174.721H24.8061V171.709H26.8189C28.0053 171.709 28.6318 172.295 28.6318 173.215ZM30.0848 177.507C30.0848 176.361 29.2583 175.388 28.2452 175.215C29.1384 174.921 29.8715 174.241 29.8715 173.068C29.8715 171.775 28.8851 170.709 26.9256 170.709H23.5931V180H27.0589C28.9784 180 30.0848 178.907 30.0848 177.507ZM31.4215 179.893H37.8333V178.88H33.2477C34.9673 177.481 37.5533 175.441 37.5533 173.042C37.5533 171.256 36.3803 170.189 34.5674 170.189C32.8345 170.189 31.5415 171.256 31.4615 173.308H32.6346C32.6879 172.095 33.3277 171.229 34.5807 171.229C35.8871 171.229 36.3536 172.029 36.3536 173.095C36.3536 175.068 33.9542 176.987 31.4215 179.027V179.893ZM44.7142 177.387C44.7142 178.4 43.9943 179 42.7946 179H40.6485V175.721H42.7546C43.941 175.721 44.7142 176.361 44.7142 177.387ZM44.4742 173.215C44.4742 174.161 43.821 174.721 42.688 174.721H40.6485V171.709H42.6613C43.8477 171.709 44.4742 172.295 44.4742 173.215ZM45.9272 177.507C45.9272 176.361 45.1007 175.388 44.0876 175.215C44.9808 174.921 45.7139 174.241 45.7139 173.068C45.7139 171.775 44.7275 170.709 42.768 170.709H39.4355V180H42.9013C44.8208 180 45.9272 178.907 45.9272 177.507ZM53.849 180H55.1286L51.7828 170.762H50.3832L47.024 180H48.3037L49.0502 177.934H53.1025L53.849 180ZM52.7559 176.947H49.3967L51.0763 172.255L52.7559 176.947Z" fill="#5D6B7E"/>
<path d="M0 194H112V214C112 216.209 110.209 218 108 218H4C1.79086 218 0 216.209 0 214V194Z" fill="#EDEFF1"/>
<path d="M12.9328 204.589C12.9328 205.356 12.4884 205.9 11.4997 205.9H10.0998V203.312H11.4997C12.4884 203.312 12.9328 203.812 12.9328 204.589ZM8.83325 202.279V210H10.0998V206.911H11.0664L12.844 210H14.3549L12.444 206.8C13.7439 206.478 14.2327 205.5 14.2327 204.589C14.2327 203.334 13.3328 202.279 11.4997 202.279H8.83325ZM20.1192 202.267H15.8529V210H20.1192V208.967H17.1195V206.6H19.7859V205.567H17.1195V203.301H20.1192V202.267ZM24.2012 202.279H21.6792V210H24.2012C26.6787 210 28.3007 208.545 28.3007 206.167C28.3007 203.778 26.6787 202.279 24.2012 202.279ZM22.9457 208.967V203.312H24.2012C26.0232 203.312 27.0009 204.401 27.0009 206.167C27.0009 207.922 26.0232 208.967 24.2012 208.967H22.9457ZM30.2559 210H31.5336V201.901H29.2227V203.056H30.2559V210ZM33.2735 205.845C33.2735 208.2 33.8957 209.978 36.1621 209.978C38.4286 209.978 39.0507 208.2 39.0507 205.845C39.0507 203.534 38.4286 201.756 36.1621 201.756C33.8957 201.756 33.2735 203.534 33.2735 205.845ZM37.8064 205.845C37.8064 207.434 37.6397 208.822 36.1621 208.822C34.6845 208.822 34.5178 207.434 34.5178 205.845C34.5178 204.334 34.6845 202.912 36.1621 202.912C37.6397 202.912 37.8064 204.334 37.8064 205.845ZM40.3909 205.845C40.3909 208.2 41.013 209.978 43.2795 209.978C45.5459 209.978 46.1681 208.2 46.1681 205.845C46.1681 203.534 45.5459 201.756 43.2795 201.756C41.013 201.756 40.3909 203.534 40.3909 205.845ZM44.9237 205.845C44.9237 207.434 44.7571 208.822 43.2795 208.822C41.8018 208.822 41.6352 207.434 41.6352 205.845C41.6352 204.334 41.8018 202.912 43.2795 202.912C44.7571 202.912 44.9237 204.334 44.9237 205.845Z" fill="#9AA3AF"/>
</svg>
