<svg width="112" height="218" viewBox="0 0 112 218" fill="none" xmlns="http://www.w3.org/2000/svg">
<rect y="100" width="112" height="94" fill="#F9FAFA"/>
<path d="M0 4C0 1.79086 1.79086 0 4 0H108C110.209 0 112 1.79086 112 4V100H0V4Z" fill="#EC8B97"/>
<path d="M13.9105 109.267V115.022L10.0998 109.267H8.83325V117H10.0998V111.234L13.9105 117H15.1771V109.267H13.9105ZM22.0509 117H23.3841L20.6177 109.267H19.1511L16.3848 117H17.7068L18.2623 115.422H21.4954L22.0509 117ZM21.1398 114.389H18.6179L19.8844 110.801L21.1398 114.389ZM24.5869 117H25.8534V111.712L28.2199 117H29.0975L31.4529 111.712V117H32.7194V109.279H31.364L28.6643 115.333L25.9534 109.279H24.5869V117ZM38.6503 109.267H34.3841V117H38.6503V115.967H35.6506V113.6H38.317V112.567H35.6506V110.301H38.6503V109.267Z" fill="#C2C8CF"/>
<path d="M15.0649 134.467C15.0649 131.028 10.0528 132.521 10.0528 130.122C10.0528 129.122 10.8393 128.602 11.839 128.629C12.9721 128.642 13.5586 129.349 13.6386 129.975H14.9716C14.825 128.562 13.6653 127.589 11.8924 127.589C10.0528 127.589 8.81313 128.629 8.81313 130.162C8.81313 133.614 13.8385 132.015 13.8385 134.521C13.8385 135.4 13.1454 136.067 11.9723 136.067C10.6793 136.067 10.1328 135.294 10.0528 134.521H8.75981C8.78647 136.054 10.1061 137.093 11.9723 137.093C13.9852 137.093 15.0649 135.787 15.0649 134.467ZM19.9559 130.602C21.2089 130.602 22.2753 131.388 22.262 132.814H17.6498C17.7831 131.388 18.7695 130.602 19.9559 130.602ZM23.3683 134.747H22.062C21.7954 135.534 21.1022 136.094 20.0092 136.094C18.7695 136.094 17.7298 135.28 17.6364 133.801H23.475C23.5016 133.548 23.515 133.334 23.515 133.068C23.515 131.068 22.1287 129.575 20.0092 129.575C17.8764 129.575 16.3968 131.028 16.3968 133.334C16.3968 135.654 17.9297 137.12 20.0092 137.12C21.8221 137.12 22.9951 136.08 23.3683 134.747ZM24.6629 133.321C24.6629 135.587 26.1692 137.12 28.1154 137.12C29.4617 137.12 30.4081 136.427 30.848 135.64V137H32.0744V129.695H30.848V131.028C30.4215 130.268 29.4884 129.575 28.1287 129.575C26.1692 129.575 24.6629 131.041 24.6629 133.321ZM30.848 133.334C30.848 135.054 29.7017 136.054 28.3687 136.054C27.0357 136.054 25.9026 135.04 25.9026 133.321C25.9026 131.601 27.0357 130.628 28.3687 130.628C29.7017 130.628 30.848 131.641 30.848 133.334ZM38.8911 132.121V128.709H40.6773C42.0637 128.709 42.6502 129.349 42.6502 130.428C42.6502 131.468 42.0637 132.121 40.6773 132.121H38.8911ZM43.8899 130.428C43.8899 128.909 42.8635 127.709 40.6773 127.709H37.6781V137H38.8911V133.121H40.6773C42.9834 133.121 43.8899 131.841 43.8899 130.428ZM45.3975 137H46.6106V129.695H45.3975V137ZM46.024 128.509C46.4639 128.509 46.8238 128.149 46.8238 127.682C46.8238 127.216 46.4639 126.856 46.024 126.856C45.5575 126.856 45.1976 127.216 45.1976 127.682C45.1976 128.149 45.5575 128.509 46.024 128.509ZM54.0233 137H55.223V132.694C55.223 130.602 53.93 129.562 52.2371 129.562C51.2506 129.562 50.3709 129.975 49.891 130.735V129.695H48.678V137H49.891V132.961C49.891 131.388 50.7441 130.615 51.9838 130.615C53.2102 130.615 54.0233 131.375 54.0233 132.868V137ZM57.2045 137H58.4175V133.774L61.2834 137H62.9364L59.4839 133.334L62.923 129.695H61.2301L58.4175 132.934V127.136H57.2045V137Z" fill="#5D6B7E"/>
<path d="M13.7328 160H14.9993V152.279H13.7328V155.589H10.0998V152.279H8.83325V160H10.0998V156.623H13.7328V160ZM20.9329 152.267H16.6667V160H20.9329V158.967H17.9332V156.6H20.5996V155.567H17.9332V153.301H20.9329V152.267ZM27.0147 160H28.4368L26.037 156.145L28.4479 152.279H27.0369L25.3926 155.1L23.6372 152.279H22.2152L24.626 156.145L22.2263 160H23.6372L25.2704 157.2L27.0147 160Z" fill="#C2C8CF"/>
<path d="M14.0252 170.696H9.02641V180H14.0252V179H10.2394V175.801H13.6253V174.801H10.2394V171.695H14.0252V170.696ZM15.4074 175.348C15.4074 178.134 17.4469 180.08 20.0463 180.08C22.0591 180.08 23.6587 179.08 24.3518 177.294H22.8989C22.3923 178.4 21.4059 179.027 20.0463 179.027C18.1001 179.027 16.6471 177.614 16.6471 175.348C16.6471 173.068 18.1001 171.655 20.0463 171.655C21.4059 171.655 22.3923 172.282 22.8989 173.402H24.3518C23.6587 171.602 22.0591 170.589 20.0463 170.589C17.4469 170.589 15.4074 172.562 15.4074 175.348ZM27.7172 174.988C26.6374 175.308 25.9309 176.188 25.9309 177.401C25.9309 179.147 27.3039 180.267 29.3301 180.267C31.3696 180.267 32.7559 179.147 32.7559 177.401C32.7559 176.201 32.0494 175.321 30.9563 174.988C31.9028 174.615 32.5026 173.815 32.5026 172.775C32.5026 171.375 31.4229 170.216 29.3301 170.216C27.2373 170.216 26.1709 171.362 26.1709 172.775C26.1709 173.855 26.7307 174.601 27.7172 174.988ZM29.3301 174.588C28.157 174.588 27.3439 173.935 27.3439 172.935C27.3439 171.802 28.1437 171.229 29.3301 171.229C30.5431 171.229 31.3296 171.815 31.3296 172.922C31.3296 173.922 30.5165 174.588 29.3301 174.588ZM29.3301 175.521C30.5964 175.521 31.5562 176.121 31.5562 177.361C31.5562 178.48 30.7031 179.254 29.3301 179.254C27.9571 179.254 27.0906 178.494 27.0906 177.361C27.0906 176.081 28.0904 175.521 29.3301 175.521ZM39.8456 177.387C39.8456 178.4 39.1258 179 37.9261 179H35.7799V175.721H37.8861C39.0724 175.721 39.8456 176.361 39.8456 177.387ZM39.6056 173.215C39.6056 174.161 38.9525 174.721 37.8194 174.721H35.7799V171.709H37.7928C38.9791 171.709 39.6056 172.295 39.6056 173.215ZM41.0586 177.507C41.0586 176.361 40.2321 175.388 39.2191 175.215C40.1122 174.921 40.8453 174.241 40.8453 173.068C40.8453 171.775 39.8589 170.709 37.8994 170.709H34.5669V180H38.0327C39.9522 180 41.0586 178.907 41.0586 177.507ZM42.9819 177.414C43.1152 178.827 44.0483 180.013 45.9678 180.013C48.5005 180.013 49.2336 178.214 49.2336 175.001C49.2336 172.015 48.4738 170.176 45.8612 170.176C43.7817 170.176 42.6886 171.509 42.6886 173.348C42.6886 175.388 44.0083 176.494 45.7812 176.494C46.8209 176.494 47.7807 176.028 48.1672 175.215C48.2072 178.04 47.4474 179 46.0344 179C44.9147 179 44.2749 178.414 44.1016 177.414H42.9819ZM45.9811 175.468C44.5415 175.468 43.8483 174.561 43.8483 173.322C43.8483 172.042 44.6348 171.189 45.8878 171.189C47.2741 171.189 48.0206 172.109 48.0206 173.415C48.0206 174.708 47.1408 175.468 45.9811 175.468ZM50.5518 170.389V171.429H55.6971L51.9381 180H53.1644L56.8702 171.309V170.389H50.5518Z" fill="#5D6B7E"/>
<path d="M0 194H112V214C112 216.209 110.209 218 108 218H4C1.79086 218 0 216.209 0 214V194Z" fill="#EDEFF1"/>
<path d="M12.9328 204.589C12.9328 205.356 12.4884 205.9 11.4997 205.9H10.0998V203.312H11.4997C12.4884 203.312 12.9328 203.812 12.9328 204.589ZM8.83325 202.279V210H10.0998V206.911H11.0664L12.844 210H14.3549L12.444 206.8C13.7439 206.478 14.2327 205.5 14.2327 204.589C14.2327 203.334 13.3328 202.279 11.4997 202.279H8.83325ZM20.1192 202.267H15.8529V210H20.1192V208.967H17.1195V206.6H19.7859V205.567H17.1195V203.301H20.1192V202.267ZM24.2012 202.279H21.6792V210H24.2012C26.6787 210 28.3007 208.545 28.3007 206.167C28.3007 203.778 26.6787 202.279 24.2012 202.279ZM22.9457 208.967V203.312H24.2012C26.0232 203.312 27.0009 204.401 27.0009 206.167C27.0009 207.922 26.0232 208.967 24.2012 208.967H22.9457ZM29.2894 209.889H34.6888V208.833H31.167C32.4668 207.645 34.4666 206.145 34.4666 204.178C34.4666 202.723 33.5334 201.734 31.8891 201.734C30.4559 201.734 29.3227 202.59 29.2783 204.345H30.5004C30.5337 203.434 31.0114 202.812 31.9002 202.812C32.8446 202.812 33.2112 203.39 33.2112 204.234C33.2112 205.823 31.2003 207.289 29.2894 208.967V209.889ZM35.8015 205.845C35.8015 208.2 36.4236 209.978 38.6901 209.978C40.9565 209.978 41.5787 208.2 41.5787 205.845C41.5787 203.534 40.9565 201.756 38.6901 201.756C36.4236 201.756 35.8015 203.534 35.8015 205.845ZM40.3344 205.845C40.3344 207.434 40.1677 208.822 38.6901 208.822C37.2124 208.822 37.0458 207.434 37.0458 205.845C37.0458 204.334 37.2124 202.912 38.6901 202.912C40.1677 202.912 40.3344 204.334 40.3344 205.845ZM42.9188 205.845C42.9188 208.2 43.541 209.978 45.8074 209.978C48.0739 209.978 48.696 208.2 48.696 205.845C48.696 203.534 48.0739 201.756 45.8074 201.756C43.541 201.756 42.9188 203.534 42.9188 205.845ZM47.4517 205.845C47.4517 207.434 47.285 208.822 45.8074 208.822C44.3298 208.822 44.1631 207.434 44.1631 205.845C44.1631 204.334 44.3298 202.912 45.8074 202.912C47.285 202.912 47.4517 204.334 47.4517 205.845Z" fill="#9AA3AF"/>
</svg>
