<svg width="112" height="218" viewBox="0 0 112 218" fill="none" xmlns="http://www.w3.org/2000/svg">
<rect y="100" width="112" height="94" fill="#F9FAFA"/>
<path d="M0 4C0 1.79086 1.79086 0 4 0H108C110.209 0 112 1.79086 112 4V100H0V4Z" fill="#E66575"/>
<path d="M13.9105 109.267V115.022L10.0998 109.267H8.83325V117H10.0998V111.234L13.9105 117H15.1771V109.267H13.9105ZM22.0509 117H23.3841L20.6177 109.267H19.1511L16.3848 117H17.7068L18.2623 115.422H21.4954L22.0509 117ZM21.1398 114.389H18.6179L19.8844 110.801L21.1398 114.389ZM24.5869 117H25.8534V111.712L28.2199 117H29.0975L31.4529 111.712V117H32.7194V109.279H31.364L28.6643 115.333L25.9534 109.279H24.5869V117ZM38.6503 109.267H34.3841V117H38.6503V115.967H35.6506V113.6H38.317V112.567H35.6506V110.301H38.6503V109.267Z" fill="#C2C8CF"/>
<path d="M15.0649 134.467C15.0649 131.028 10.0528 132.521 10.0528 130.122C10.0528 129.122 10.8393 128.602 11.839 128.629C12.9721 128.642 13.5586 129.349 13.6386 129.975H14.9716C14.825 128.562 13.6653 127.589 11.8924 127.589C10.0528 127.589 8.81313 128.629 8.81313 130.162C8.81313 133.614 13.8385 132.015 13.8385 134.521C13.8385 135.4 13.1454 136.067 11.9723 136.067C10.6793 136.067 10.1328 135.294 10.0528 134.521H8.75981C8.78647 136.054 10.1061 137.093 11.9723 137.093C13.9852 137.093 15.0649 135.787 15.0649 134.467ZM23.3284 129.695H22.1153V133.707C22.1153 135.28 21.2755 136.054 20.0225 136.054C18.7962 136.054 17.983 135.294 17.983 133.814V129.695H16.7833V133.974C16.7833 136.067 18.103 137.107 19.7826 137.107C20.7557 137.107 21.6488 136.68 22.1153 135.92V137H23.3284V129.695ZM30.7218 137H31.9215V132.694C31.9215 130.602 30.6285 129.562 28.9356 129.562C27.9492 129.562 27.0694 129.975 26.5895 130.735V129.695H25.3765V137H26.5895V132.961C26.5895 131.388 27.4426 130.615 28.6823 130.615C29.9087 130.615 30.7218 131.375 30.7218 132.868V137ZM33.4498 133.321C33.4498 135.587 34.9561 137.12 36.9156 137.12C38.2486 137.12 39.195 136.413 39.6349 135.627V137.16C39.6349 138.72 38.6618 139.546 37.3688 139.546C36.1691 139.546 35.3027 138.946 35.0361 138.066H33.8364C34.0763 139.626 35.4493 140.599 37.3688 140.599C39.5149 140.599 40.8613 139.173 40.8613 137.16V129.695H39.6349V131.028C39.2083 130.242 38.2486 129.575 36.9156 129.575C34.9561 129.575 33.4498 131.041 33.4498 133.321ZM39.6349 133.334C39.6349 135.054 38.4885 136.054 37.1555 136.054C35.8225 136.054 34.6895 135.04 34.6895 133.321C34.6895 131.601 35.8225 130.628 37.1555 130.628C38.4885 130.628 39.6349 131.641 39.6349 133.334ZM42.9112 137H44.1242V127.136H42.9112V137ZM53.1232 133.334C53.1232 131.028 51.5103 129.575 49.4308 129.575C47.3646 129.575 45.7384 131.028 45.7384 133.334C45.7384 135.654 47.3113 137.12 49.3775 137.12C51.4569 137.12 53.1232 135.654 53.1232 133.334ZM46.9781 133.334C46.9781 131.495 48.1378 130.628 49.4175 130.628C50.6705 130.628 51.8835 131.495 51.8835 133.334C51.8835 135.187 50.6438 136.054 49.3775 136.054C48.1111 136.054 46.9781 135.187 46.9781 133.334Z" fill="#5D6B7E"/>
<path d="M13.7328 160H14.9993V152.279H13.7328V155.589H10.0998V152.279H8.83325V160H10.0998V156.623H13.7328V160ZM20.9329 152.267H16.6667V160H20.9329V158.967H17.9332V156.6H20.5996V155.567H17.9332V153.301H20.9329V152.267ZM27.0147 160H28.4368L26.037 156.145L28.4479 152.279H27.0369L25.3926 155.1L23.6372 152.279H22.2152L24.626 156.145L22.2263 160H23.6372L25.2704 157.2L27.0147 160Z" fill="#C2C8CF"/>
<path d="M14.0252 170.696H9.02641V180H14.0252V179H10.2394V175.801H13.6253V174.801H10.2394V171.695H14.0252V170.696ZM22.1524 172.655C21.9924 171.309 21.0593 170.162 19.2198 170.162C16.7804 170.162 15.8073 172.029 15.8073 175.055C15.8073 177.974 16.4871 180.027 19.3398 180.027C21.4459 180.027 22.4856 178.587 22.4856 176.827C22.4856 174.801 21.2726 173.615 19.4731 173.615C18.3267 173.615 17.2736 174.148 16.8604 175.095C16.8471 172.229 17.6735 171.176 19.2065 171.176C20.2995 171.176 20.8461 171.722 21.0327 172.655H22.1524ZM19.2198 174.641C20.6061 174.641 21.3126 175.508 21.3126 176.867C21.3126 178.174 20.5261 179.014 19.2731 179.014C17.7535 179.014 17.007 178.014 17.007 176.734C17.007 175.295 18.1134 174.641 19.2198 174.641ZM30.6138 172.655C30.4539 171.309 29.5208 170.162 27.6812 170.162C25.2418 170.162 24.2687 172.029 24.2687 175.055C24.2687 177.974 24.9486 180.027 27.8012 180.027C29.9073 180.027 30.9471 178.587 30.9471 176.827C30.9471 174.801 29.734 173.615 27.9345 173.615C26.7881 173.615 25.735 174.148 25.3218 175.095C25.3085 172.229 26.1349 171.176 27.6679 171.176C28.761 171.176 29.3075 171.722 29.4941 172.655H30.6138ZM27.6812 174.641C29.0675 174.641 29.774 175.508 29.774 176.867C29.774 178.174 28.9876 179.014 27.7345 179.014C26.2149 179.014 25.4684 178.014 25.4684 176.734C25.4684 175.295 26.5748 174.641 27.6812 174.641ZM32.9301 170.349V175.788H34.0765C34.3964 175.028 35.1029 174.521 36.076 174.521C37.4757 174.521 38.1821 175.321 38.1821 176.694C38.1821 178.014 37.529 179 36.0627 179C34.9296 179 34.1432 178.4 33.9165 177.387H32.7302C32.9701 178.947 34.1298 180.027 36.0493 180.027C38.3021 180.027 39.3419 178.534 39.3419 176.668C39.3419 175.175 38.5954 173.482 36.2493 173.482C35.3029 173.482 34.4497 173.908 34.0498 174.455V171.415H38.7287V170.349H32.9301ZM40.5673 170.389V171.429H45.7127L41.9536 180H43.18L46.8857 171.309V170.389H40.5673ZM48.5772 170.349V175.788H49.7236C50.0435 175.028 50.75 174.521 51.7231 174.521C53.1228 174.521 53.8293 175.321 53.8293 176.694C53.8293 178.014 53.1761 179 51.7098 179C50.5767 179 49.7903 178.4 49.5637 177.387H48.3773C48.6172 178.947 49.7769 180.027 51.6965 180.027C53.9492 180.027 54.989 178.534 54.989 176.668C54.989 175.175 54.2425 173.482 51.8964 173.482C50.95 173.482 50.0969 173.908 49.697 174.455V171.415H54.3758V170.349H48.5772Z" fill="#5D6B7E"/>
<path d="M0 194H112V214C112 216.209 110.209 218 108 218H4C1.79086 218 0 216.209 0 214V194Z" fill="#EDEFF1"/>
<path d="M12.9328 204.589C12.9328 205.356 12.4884 205.9 11.4997 205.9H10.0998V203.312H11.4997C12.4884 203.312 12.9328 203.812 12.9328 204.589ZM8.83325 202.279V210H10.0998V206.911H11.0664L12.844 210H14.3549L12.444 206.8C13.7439 206.478 14.2327 205.5 14.2327 204.589C14.2327 203.334 13.3328 202.279 11.4997 202.279H8.83325ZM20.1192 202.267H15.8529V210H20.1192V208.967H17.1195V206.6H19.7859V205.567H17.1195V203.301H20.1192V202.267ZM24.2012 202.279H21.6792V210H24.2012C26.6787 210 28.3007 208.545 28.3007 206.167C28.3007 203.778 26.6787 202.279 24.2012 202.279ZM22.9457 208.967V203.312H24.2012C26.0232 203.312 27.0009 204.401 27.0009 206.167C27.0009 207.922 26.0232 208.967 24.2012 208.967H22.9457ZM29.3671 203.901H30.6003C30.6781 203.334 31.0892 202.801 31.978 202.801C32.8446 202.801 33.3001 203.267 33.3001 203.967C33.3001 204.834 32.6001 205.167 31.4558 205.178H31.1558V206.223H31.4447C32.7668 206.223 33.4556 206.589 33.4556 207.656C33.4556 208.411 32.989 208.989 32.0446 208.989C31.0892 208.989 30.5337 208.411 30.4781 207.656H29.256C29.3338 209.245 30.5226 210.044 32.0558 210.044C33.7445 210.044 34.6555 209.067 34.6555 207.778C34.6555 206.656 34.1111 205.956 33.2667 205.7V205.656C33.9 205.445 34.5111 204.789 34.5111 203.823C34.5111 202.645 33.6334 201.712 32.0224 201.712C30.5448 201.712 29.456 202.501 29.3671 203.901ZM35.9859 205.845C35.9859 208.2 36.6081 209.978 38.8745 209.978C41.141 209.978 41.7631 208.2 41.7631 205.845C41.7631 203.534 41.141 201.756 38.8745 201.756C36.6081 201.756 35.9859 203.534 35.9859 205.845ZM40.5188 205.845C40.5188 207.434 40.3521 208.822 38.8745 208.822C37.3969 208.822 37.2302 207.434 37.2302 205.845C37.2302 204.334 37.3969 202.912 38.8745 202.912C40.3521 202.912 40.5188 204.334 40.5188 205.845ZM43.1033 205.845C43.1033 208.2 43.7254 209.978 45.9919 209.978C48.2583 209.978 48.8805 208.2 48.8805 205.845C48.8805 203.534 48.2583 201.756 45.9919 201.756C43.7254 201.756 43.1033 203.534 43.1033 205.845ZM47.6361 205.845C47.6361 207.434 47.4695 208.822 45.9919 208.822C44.5142 208.822 44.3476 207.434 44.3476 205.845C44.3476 204.334 44.5142 202.912 45.9919 202.912C47.4695 202.912 47.6361 204.334 47.6361 205.845Z" fill="#9AA3AF"/>
</svg>
