<svg width="112" height="218" viewBox="0 0 112 218" fill="none" xmlns="http://www.w3.org/2000/svg">
<rect y="100" width="112" height="94" fill="#F9FAFA"/>
<path d="M0 4C0 1.79086 1.79086 0 4 0H108C110.209 0 112 1.79086 112 4V100H0V4Z" fill="#E03E52"/>
<path d="M13.9105 109.267V115.022L10.0998 109.267H8.83325V117H10.0998V111.234L13.9105 117H15.1771V109.267H13.9105ZM22.0509 117H23.3841L20.6177 109.267H19.1511L16.3848 117H17.7068L18.2623 115.422H21.4954L22.0509 117ZM21.1398 114.389H18.6179L19.8844 110.801L21.1398 114.389ZM24.5869 117H25.8534V111.712L28.2199 117H29.0975L31.4529 111.712V117H32.7194V109.279H31.364L28.6643 115.333L25.9534 109.279H24.5869V117ZM38.6503 109.267H34.3841V117H38.6503V115.967H35.6506V113.6H38.317V112.567H35.6506V110.301H38.6503V109.267Z" fill="#C2C8CF"/>
<path d="M8.57319 132.348C8.57319 135.134 10.6127 137.08 13.212 137.08C15.2249 137.08 16.8245 136.08 17.5176 134.294H16.0647C15.5581 135.4 14.5717 136.027 13.212 136.027C11.2659 136.027 9.81288 134.614 9.81288 132.348C9.81288 130.068 11.2659 128.655 13.212 128.655C14.5717 128.655 15.5581 129.282 16.0647 130.402H17.5176C16.8245 128.602 15.2249 127.589 13.212 127.589C10.6127 127.589 8.57319 129.562 8.57319 132.348ZM22.4292 130.602C23.6822 130.602 24.7486 131.388 24.7353 132.814H20.1231C20.2564 131.388 21.2428 130.602 22.4292 130.602ZM25.8417 134.747H24.5353C24.2687 135.534 23.5756 136.094 22.4825 136.094C21.2428 136.094 20.2031 135.28 20.1098 133.801H25.9483C25.975 133.548 25.9883 133.334 25.9883 133.068C25.9883 131.068 24.602 129.575 22.4825 129.575C20.3497 129.575 18.8701 131.028 18.8701 133.334C18.8701 135.654 20.403 137.12 22.4825 137.12C24.2954 137.12 25.4684 136.08 25.8417 134.747ZM28.8025 133.028C28.8025 131.335 29.6823 130.815 30.842 130.815H31.1619V129.562C30.0022 129.562 29.2157 130.068 28.8025 130.882V129.695H27.5895V137H28.8025V133.028ZM32.5622 137H33.7752V129.695H32.5622V137ZM33.1887 128.509C33.6286 128.509 33.9885 128.149 33.9885 127.682C33.9885 127.216 33.6286 126.856 33.1887 126.856C32.7222 126.856 32.3622 127.216 32.3622 127.682C32.3622 128.149 32.7222 128.509 33.1887 128.509ZM41.0946 135.014C41.0413 132.401 36.8024 133.348 36.8024 131.615C36.8024 131.028 37.3356 130.602 38.2287 130.602C39.2018 130.602 39.7616 131.135 39.815 131.868H41.028C40.948 130.442 39.8816 129.575 38.2687 129.575C36.6424 129.575 35.5894 130.495 35.5894 131.615C35.5894 134.334 39.9083 133.388 39.9083 135.014C39.9083 135.614 39.3751 136.094 38.4153 136.094C37.3889 136.094 36.7624 135.56 36.6957 134.854H35.4427C35.5227 136.187 36.7224 137.12 38.4286 137.12C40.0416 137.12 41.0946 136.214 41.0946 135.014ZM45.9129 130.602C47.1659 130.602 48.2323 131.388 48.219 132.814H43.6068C43.7401 131.388 44.7265 130.602 45.9129 130.602ZM49.3254 134.747H48.0191C47.7525 135.534 47.0593 136.094 45.9662 136.094C44.7265 136.094 43.6868 135.28 43.5935 133.801H49.432C49.4587 133.548 49.472 133.334 49.472 133.068C49.472 131.068 48.0857 129.575 45.9662 129.575C43.8334 129.575 42.3538 131.028 42.3538 133.334C42.3538 135.654 43.8868 137.12 45.9662 137.12C47.7791 137.12 48.9522 136.08 49.3254 134.747ZM59.5991 130.442C59.5991 131.481 58.9992 132.228 57.6262 132.228H55.84V128.709H57.6262C59.0126 128.709 59.5991 129.389 59.5991 130.442ZM54.627 127.709V137H55.84V133.201H57.3063L59.5191 137H60.9721L58.6393 133.108C60.1989 132.761 60.8521 131.628 60.8521 130.442C60.8521 128.922 59.8124 127.709 57.6262 127.709H54.627ZM65.8428 130.602C67.0958 130.602 68.1622 131.388 68.1489 132.814H63.5367C63.67 131.388 64.6565 130.602 65.8428 130.602ZM69.2553 134.747H67.949C67.6824 135.534 66.9892 136.094 65.8961 136.094C64.6565 136.094 63.6167 135.28 63.5234 133.801H69.3619C69.3886 133.548 69.4019 133.334 69.4019 133.068C69.4019 131.068 68.0156 129.575 65.8961 129.575C63.7633 129.575 62.2837 131.028 62.2837 133.334C62.2837 135.654 63.8167 137.12 65.8961 137.12C67.709 137.12 68.8821 136.08 69.2553 134.747ZM70.5499 133.321C70.5499 135.587 72.0562 137.12 74.0157 137.12C75.3487 137.12 76.2951 136.44 76.735 135.627V137H77.9614V127.136H76.735V131.001C76.2285 130.162 75.1754 129.575 74.029 129.575C72.0562 129.575 70.5499 131.041 70.5499 133.321ZM76.735 133.334C76.735 135.054 75.5886 136.054 74.2556 136.054C72.9226 136.054 71.7896 135.04 71.7896 133.321C71.7896 131.601 72.9226 130.628 74.2556 130.628C75.5886 130.628 76.735 131.641 76.735 133.334Z" fill="#5D6B7E"/>
<path d="M13.7328 160H14.9993V152.279H13.7328V155.589H10.0998V152.279H8.83325V160H10.0998V156.623H13.7328V160ZM20.9329 152.267H16.6667V160H20.9329V158.967H17.9332V156.6H20.5996V155.567H17.9332V153.301H20.9329V152.267ZM27.0147 160H28.4368L26.037 156.145L28.4479 152.279H27.0369L25.3926 155.1L23.6372 152.279H22.2152L24.626 156.145L22.2263 160H23.6372L25.2704 157.2L27.0147 160Z" fill="#C2C8CF"/>
<path d="M14.0252 170.696H9.02641V180H14.0252V179H10.2394V175.801H13.6253V174.801H10.2394V171.695H14.0252V170.696ZM15.6607 175.081C15.6607 177.881 16.3538 180 19.0198 180C21.6725 180 22.3657 177.881 22.3657 175.081C22.3657 172.322 21.6725 170.216 19.0198 170.216C16.3538 170.216 15.6607 172.322 15.6607 175.081ZM21.166 175.081C21.166 177.161 20.9127 178.894 19.0198 178.894C17.1137 178.894 16.8604 177.161 16.8604 175.081C16.8604 173.082 17.1137 171.322 19.0198 171.322C20.9127 171.322 21.166 173.082 21.166 175.081ZM24.0043 172.788H25.1907C25.3107 171.855 25.9905 171.216 27.1236 171.216C28.2833 171.216 28.8964 171.855 28.8964 172.775C28.8964 173.895 28.03 174.388 26.4171 174.401H26.0971V175.414H26.4037C28.1366 175.414 29.0831 175.934 29.0831 177.294C29.0831 178.28 28.4699 179.04 27.1769 179.04C25.8972 179.04 25.1507 178.254 25.0307 177.227H23.8577C24.0043 179.094 25.364 180.067 27.1902 180.067C29.203 180.067 30.2428 178.894 30.2428 177.401C30.2428 176.014 29.483 175.188 28.3632 174.921V174.855C29.3763 174.628 30.0695 173.762 30.0695 172.655C30.0695 171.269 29.0431 170.176 27.1635 170.176C25.3773 170.176 24.1243 171.136 24.0043 172.788ZM37.0793 170.696H32.0805V180H37.0793V179H33.2936V175.801H36.6794V174.801H33.2936V171.695H37.0793V170.696ZM39.0614 170.349V175.788H40.2078C40.5277 175.028 41.2342 174.521 42.2073 174.521C43.6069 174.521 44.3134 175.321 44.3134 176.694C44.3134 178.014 43.6602 179 42.1939 179C41.0609 179 40.2744 178.4 40.0478 177.387H38.8614C39.1014 178.947 40.2611 180.027 42.1806 180.027C44.4334 180.027 45.4731 178.534 45.4731 176.668C45.4731 175.175 44.7266 173.482 42.3806 173.482C41.4341 173.482 40.581 173.908 40.1811 174.455V171.415H44.8599V170.349H39.0614ZM46.9385 179.893H53.3502V178.88H48.7647C50.4843 177.481 53.0703 175.441 53.0703 173.042C53.0703 171.256 51.8973 170.189 50.0844 170.189C48.3515 170.189 47.0585 171.256 46.9785 173.308H48.1515C48.2048 172.095 48.8447 171.229 50.0977 171.229C51.404 171.229 51.8706 172.029 51.8706 173.095C51.8706 175.068 49.4712 176.987 46.9385 179.027V179.893Z" fill="#5D6B7E"/>
<path d="M0 194H112V214C112 216.209 110.209 218 108 218H4C1.79086 218 0 216.209 0 214V194Z" fill="#EDEFF1"/>
<path d="M12.9328 204.589C12.9328 205.356 12.4884 205.9 11.4997 205.9H10.0998V203.312H11.4997C12.4884 203.312 12.9328 203.812 12.9328 204.589ZM8.83325 202.279V210H10.0998V206.911H11.0664L12.844 210H14.3549L12.444 206.8C13.7439 206.478 14.2327 205.5 14.2327 204.589C14.2327 203.334 13.3328 202.279 11.4997 202.279H8.83325ZM20.1192 202.267H15.8529V210H20.1192V208.967H17.1195V206.6H19.7859V205.567H17.1195V203.301H20.1192V202.267ZM24.2012 202.279H21.6792V210H24.2012C26.6787 210 28.3007 208.545 28.3007 206.167C28.3007 203.778 26.6787 202.279 24.2012 202.279ZM22.9457 208.967V203.312H24.2012C26.0232 203.312 27.0009 204.401 27.0009 206.167C27.0009 207.922 26.0232 208.967 24.2012 208.967H22.9457ZM33.2556 210H34.5V208.311H35.5332V207.211H34.5V202.001H32.9668L29.2338 207.356V208.311H33.2556V210ZM30.6892 207.211L33.3112 203.29V207.211H30.6892ZM36.5826 205.845C36.5826 208.2 37.2048 209.978 39.4712 209.978C41.7377 209.978 42.3598 208.2 42.3598 205.845C42.3598 203.534 41.7377 201.756 39.4712 201.756C37.2048 201.756 36.5826 203.534 36.5826 205.845ZM41.1155 205.845C41.1155 207.434 40.9489 208.822 39.4712 208.822C37.9936 208.822 37.827 207.434 37.827 205.845C37.827 204.334 37.9936 202.912 39.4712 202.912C40.9489 202.912 41.1155 204.334 41.1155 205.845ZM43.7 205.845C43.7 208.2 44.3221 209.978 46.5886 209.978C48.855 209.978 49.4772 208.2 49.4772 205.845C49.4772 203.534 48.855 201.756 46.5886 201.756C44.3221 201.756 43.7 203.534 43.7 205.845ZM48.2329 205.845C48.2329 207.434 48.0662 208.822 46.5886 208.822C45.111 208.822 44.9443 207.434 44.9443 205.845C44.9443 204.334 45.111 202.912 46.5886 202.912C48.0662 202.912 48.2329 204.334 48.2329 205.845Z" fill="#9AA3AF"/>
</svg>
