<svg width="176" height="218" viewBox="0 0 176 218" fill="none" xmlns="http://www.w3.org/2000/svg">
<rect y="100" width="176" height="94" fill="#F9FAFA"/>
<path d="M0 194H176V214C176 216.209 174.209 218 172 218H4C1.79086 218 0 216.209 0 214V194Z" fill="#EDEFF1"/>
<path d="M0 4C0 1.79086 1.79086 0 4 0H172C174.209 0 176 1.79086 176 4V100H0V4Z" fill="#E03E52"/>
<path d="M13.9105 109.267V115.022L10.0998 109.267H8.83325V117H10.0998V111.234L13.9105 117H15.1771V109.267H13.9105ZM22.0509 117H23.3841L20.6177 109.267H19.1511L16.3848 117H17.7068L18.2623 115.422H21.4954L22.0509 117ZM21.1398 114.389H18.6179L19.8844 110.801L21.1398 114.389ZM24.5869 117H25.8534V111.712L28.2199 117H29.0975L31.4529 111.712V117H32.7194V109.279H31.364L28.6643 115.333L25.9534 109.279H24.5869V117ZM38.6503 109.267H34.3841V117H38.6503V115.967H35.6506V113.6H38.317V112.567H35.6506V110.301H38.6503V109.267Z" fill="#C2C8CF"/>
<path d="M11.919 127.709H9.02641V137H11.919C14.9716 137 16.8511 135.254 16.8511 132.374C16.8511 129.495 14.9716 127.709 11.919 127.709ZM10.2394 136V128.695H11.919C14.3451 128.695 15.6114 130.108 15.6114 132.374C15.6114 134.641 14.3451 136 11.919 136H10.2394ZM21.557 130.602C22.81 130.602 23.8764 131.388 23.8631 132.814H19.2509C19.3842 131.388 20.3707 130.602 21.557 130.602ZM24.9695 134.747H23.6632C23.3966 135.534 22.7034 136.094 21.6103 136.094C20.3707 136.094 19.3309 135.28 19.2376 133.801H25.0761C25.1028 133.548 25.1161 133.334 25.1161 133.068C25.1161 131.068 23.7298 129.575 21.6103 129.575C19.4775 129.575 17.9979 131.028 17.9979 133.334C17.9979 135.654 19.5309 137.12 21.6103 137.12C23.4232 137.12 24.5963 136.08 24.9695 134.747ZM31.9693 135.014C31.916 132.401 27.6771 133.348 27.6771 131.615C27.6771 131.028 28.2103 130.602 29.1034 130.602C30.0765 130.602 30.6363 131.135 30.6896 131.868H31.9027C31.8227 130.442 30.7563 129.575 29.1434 129.575C27.5171 129.575 26.464 130.495 26.464 131.615C26.464 134.334 30.7829 133.388 30.7829 135.014C30.7829 135.614 30.2497 136.094 29.29 136.094C28.2636 136.094 27.6371 135.56 27.5704 134.854H26.3174C26.3974 136.187 27.5971 137.12 29.3033 137.12C30.9162 137.12 31.9693 136.214 31.9693 135.014ZM33.6817 137H34.8947V129.695H33.6817V137ZM34.3082 128.509C34.7481 128.509 35.108 128.149 35.108 127.682C35.108 127.216 34.7481 126.856 34.3082 126.856C33.8417 126.856 33.4818 127.216 33.4818 127.682C33.4818 128.149 33.8417 128.509 34.3082 128.509ZM38.1752 133.028C38.1752 131.335 39.0549 130.815 40.2147 130.815H40.5346V129.562C39.3749 129.562 38.5884 130.068 38.1752 130.882V129.695H36.9621V137H38.1752V133.028ZM45.0407 130.602C46.2938 130.602 47.3602 131.388 47.3468 132.814H42.7346C42.8679 131.388 43.8544 130.602 45.0407 130.602ZM48.4532 134.747H47.1469C46.8803 135.534 46.1871 136.094 45.0941 136.094C43.8544 136.094 42.8146 135.28 42.7213 133.801H48.5599C48.5865 133.548 48.5998 133.334 48.5998 133.068C48.5998 131.068 47.2135 129.575 45.0941 129.575C42.9613 129.575 41.4816 131.028 41.4816 133.334C41.4816 135.654 43.0146 137.12 45.0941 137.12C46.9069 137.12 48.08 136.08 48.4532 134.747Z" fill="#5D6B7E"/>
<path d="M12.9328 204.589C12.9328 205.356 12.4884 205.9 11.4997 205.9H10.0998V203.312H11.4997C12.4884 203.312 12.9328 203.812 12.9328 204.589ZM8.83325 202.279V210H10.0998V206.911H11.0664L12.844 210H14.3549L12.444 206.8C13.7439 206.478 14.2327 205.5 14.2327 204.589C14.2327 203.334 13.3328 202.279 11.4997 202.279H8.83325ZM20.1192 202.267H15.8529V210H20.1192V208.967H17.1195V206.6H19.7859V205.567H17.1195V203.301H20.1192V202.267ZM24.2012 202.279H21.6792V210H24.2012C26.6787 210 28.3007 208.545 28.3007 206.167C28.3007 203.778 26.6787 202.279 24.2012 202.279ZM22.9457 208.967V203.312H24.2012C26.0232 203.312 27.0009 204.401 27.0009 206.167C27.0009 207.922 26.0232 208.967 24.2012 208.967H22.9457ZM33.2556 210H34.5V208.311H35.5332V207.211H34.5V202.001H32.9668L29.2338 207.356V208.311H33.2556V210ZM30.6892 207.211L33.3112 203.29V207.211H30.6892ZM36.5826 205.845C36.5826 208.2 37.2048 209.978 39.4712 209.978C41.7377 209.978 42.3598 208.2 42.3598 205.845C42.3598 203.534 41.7377 201.756 39.4712 201.756C37.2048 201.756 36.5826 203.534 36.5826 205.845ZM41.1155 205.845C41.1155 207.434 40.9489 208.822 39.4712 208.822C37.9936 208.822 37.827 207.434 37.827 205.845C37.827 204.334 37.9936 202.912 39.4712 202.912C40.9489 202.912 41.1155 204.334 41.1155 205.845ZM43.7 205.845C43.7 208.2 44.3221 209.978 46.5886 209.978C48.855 209.978 49.4772 208.2 49.4772 205.845C49.4772 203.534 48.855 201.756 46.5886 201.756C44.3221 201.756 43.7 203.534 43.7 205.845ZM48.2329 205.845C48.2329 207.434 48.0662 208.822 46.5886 208.822C45.111 208.822 44.9443 207.434 44.9443 205.845C44.9443 204.334 45.111 202.912 46.5886 202.912C48.0662 202.912 48.2329 204.334 48.2329 205.845Z" fill="#9AA3AF"/>
<path d="M117.733 160H118.999V152.279H117.733V155.589H114.1V152.279H112.833V160H114.1V156.623H117.733V160ZM124.933 152.267H120.667V160H124.933V158.967H121.933V156.6H124.6V155.567H121.933V153.301H124.933V152.267ZM131.015 160H132.437L130.037 156.145L132.448 152.279H131.037L129.393 155.1L127.637 152.279H126.215L128.626 156.145L126.226 160H127.637L129.27 157.2L131.015 160Z" fill="#C2C8CF"/>
<path d="M118.025 170.696H113.026V180H118.025V179H114.239V175.801H117.625V174.801H114.239V171.695H118.025V170.696ZM119.661 175.081C119.661 177.881 120.354 180 123.02 180C125.673 180 126.366 177.881 126.366 175.081C126.366 172.322 125.673 170.216 123.02 170.216C120.354 170.216 119.661 172.322 119.661 175.081ZM125.166 175.081C125.166 177.161 124.913 178.894 123.02 178.894C121.114 178.894 120.86 177.161 120.86 175.081C120.86 173.082 121.114 171.322 123.02 171.322C124.913 171.322 125.166 173.082 125.166 175.081ZM128.004 172.788H129.191C129.311 171.855 129.991 171.216 131.124 171.216C132.283 171.216 132.896 171.855 132.896 172.775C132.896 173.895 132.03 174.388 130.417 174.401H130.097V175.414H130.404C132.137 175.414 133.083 175.934 133.083 177.294C133.083 178.28 132.47 179.04 131.177 179.04C129.897 179.04 129.151 178.254 129.031 177.227H127.858C128.004 179.094 129.364 180.067 131.19 180.067C133.203 180.067 134.243 178.894 134.243 177.401C134.243 176.014 133.483 175.188 132.363 174.921V174.855C133.376 174.628 134.069 173.762 134.069 172.655C134.069 171.269 133.043 170.176 131.164 170.176C129.377 170.176 128.124 171.136 128.004 172.788ZM141.079 170.696H136.081V180H141.079V179H137.294V175.801H140.679V174.801H137.294V171.695H141.079V170.696ZM143.061 170.349V175.788H144.208C144.528 175.028 145.234 174.521 146.207 174.521C147.607 174.521 148.313 175.321 148.313 176.694C148.313 178.014 147.66 179 146.194 179C145.061 179 144.274 178.4 144.048 177.387H142.861C143.101 178.947 144.261 180.027 146.181 180.027C148.433 180.027 149.473 178.534 149.473 176.668C149.473 175.175 148.727 173.482 146.381 173.482C145.434 173.482 144.581 173.908 144.181 174.455V171.415H148.86V170.349H143.061ZM150.938 179.893H157.35V178.88H152.765C154.484 177.481 157.07 175.441 157.07 173.042C157.07 171.256 155.897 170.189 154.084 170.189C152.351 170.189 151.058 171.256 150.978 173.308H152.152C152.205 172.095 152.845 171.229 154.098 171.229C155.404 171.229 155.871 172.029 155.871 173.095C155.871 175.068 153.471 176.987 150.938 179.027V179.893Z" fill="#5D6B7E"/>
<path d="M12.9328 154.589C12.9328 155.356 12.4884 155.9 11.4997 155.9H10.0998V153.312H11.4997C12.4884 153.312 12.9328 153.812 12.9328 154.589ZM8.83325 152.279V160H10.0998V156.911H11.0664L12.844 160H14.3549L12.444 156.8C13.7439 156.478 14.2327 155.5 14.2327 154.589C14.2327 153.334 13.3328 152.279 11.4997 152.279H8.83325ZM19.3748 152.179C17.1973 152.179 15.4308 153.812 15.4308 156.123C15.4308 158.445 17.1973 160.067 19.3748 160.067C21.4524 160.067 22.9633 158.545 23.1967 156.756V155.767H18.9415V156.778H21.8412C21.6524 158.078 20.7747 158.922 19.3748 158.922C17.8416 158.922 16.7306 157.822 16.7306 156.123C16.7306 154.423 17.8416 153.334 19.3748 153.334C20.2969 153.334 21.0302 153.723 21.4413 154.501H22.9633C22.3745 152.99 20.9858 152.179 19.3748 152.179ZM28.801 157.789C28.801 158.533 28.2788 158.967 27.4233 158.967H25.7124V156.556H27.3789C28.2232 156.556 28.801 157.023 28.801 157.789ZM28.601 154.423C28.601 155.134 28.101 155.523 27.2789 155.523H25.7124V153.312H27.2789C28.101 153.312 28.601 153.723 28.601 154.423ZM30.0675 157.922C30.0675 157 29.4009 156.178 28.5788 156.034C29.3231 155.767 29.8897 155.2 29.8897 154.267C29.8897 153.178 29.0232 152.279 27.39 152.279H24.4458V160H27.5344C29.112 160 30.0675 159.1 30.0675 157.922Z" fill="#C2C8CF"/>
<path d="M8.67983 179.893H15.0916V178.88H10.506C12.2256 177.481 14.8116 175.441 14.8116 173.042C14.8116 171.256 13.6386 170.189 11.8257 170.189C10.0928 170.189 8.7998 171.256 8.71982 173.308H9.89286C9.94618 172.095 10.586 171.229 11.839 171.229C13.1454 171.229 13.6119 172.029 13.6119 173.095C13.6119 175.068 11.2125 176.987 8.67983 179.027V179.893ZM16.3472 179.893H22.7589V178.88H18.1734C19.893 177.481 22.479 175.441 22.479 173.042C22.479 171.256 21.3059 170.189 19.4931 170.189C17.7602 170.189 16.4672 171.256 16.3872 173.308H17.5602C17.6135 172.095 18.2534 171.229 19.5064 171.229C20.8127 171.229 21.2793 172.029 21.2793 173.095C21.2793 175.068 18.8799 176.987 16.3472 179.027V179.893ZM28.8 180H29.9997V177.854H31.3327V176.801H29.9997V170.456H28.5467L23.8679 176.934V177.854H28.8V180ZM25.2676 176.801L28.8533 171.722V176.801H25.2676ZM31.6914 181.906H32.5045L33.9975 178.32H32.6645L31.6914 181.906ZM45.2326 172.655C45.0726 171.309 44.1395 170.162 42.3 170.162C39.8606 170.162 38.8875 172.029 38.8875 175.055C38.8875 177.974 39.5673 180.027 42.4199 180.027C44.5261 180.027 45.5658 178.587 45.5658 176.827C45.5658 174.801 44.3528 173.615 42.5532 173.615C41.4069 173.615 40.3538 174.148 39.9406 175.095C39.9272 172.229 40.7537 171.176 42.2866 171.176C43.3797 171.176 43.9262 171.722 44.1128 172.655H45.2326ZM42.3 174.641C43.6863 174.641 44.3928 175.508 44.3928 176.867C44.3928 178.174 43.6063 179.014 42.3533 179.014C40.8337 179.014 40.0872 178.014 40.0872 176.734C40.0872 175.295 41.1936 174.641 42.3 174.641ZM47.0557 179.893H53.4674V178.88H48.8819C50.6014 177.481 53.1875 175.441 53.1875 173.042C53.1875 171.256 52.0144 170.189 50.2015 170.189C48.4686 170.189 47.1756 171.256 47.0956 173.308H48.2687C48.322 172.095 48.9618 171.229 50.2149 171.229C51.5212 171.229 51.9878 172.029 51.9878 173.095C51.9878 175.068 49.5884 176.987 47.0557 179.027V179.893ZM54.0165 181.906H54.8296L56.3226 178.32H54.9896L54.0165 181.906ZM62.8256 174.988C61.7458 175.308 61.0393 176.188 61.0393 177.401C61.0393 179.147 62.4123 180.267 64.4385 180.267C66.478 180.267 67.8643 179.147 67.8643 177.401C67.8643 176.201 67.1578 175.321 66.0648 174.988C67.0112 174.615 67.611 173.815 67.611 172.775C67.611 171.375 66.5313 170.216 64.4385 170.216C62.3457 170.216 61.2793 171.362 61.2793 172.775C61.2793 173.855 61.8391 174.601 62.8256 174.988ZM64.4385 174.588C63.2655 174.588 62.4523 173.935 62.4523 172.935C62.4523 171.802 63.2521 171.229 64.4385 171.229C65.6515 171.229 66.438 171.815 66.438 172.922C66.438 173.922 65.6249 174.588 64.4385 174.588ZM64.4385 175.521C65.7048 175.521 66.6646 176.121 66.6646 177.361C66.6646 178.48 65.8115 179.254 64.4385 179.254C63.0655 179.254 62.1991 178.494 62.1991 177.361C62.1991 176.081 63.1988 175.521 64.4385 175.521ZM69.3287 179.893H75.7405V178.88H71.1549C72.8745 177.481 75.4605 175.441 75.4605 173.042C75.4605 171.256 74.2875 170.189 72.4746 170.189C70.7417 170.189 69.4487 171.256 69.3687 173.308H70.5418C70.5951 172.095 71.2349 171.229 72.4879 171.229C73.7943 171.229 74.2608 172.029 74.2608 173.095C74.2608 175.068 71.8614 176.987 69.3287 179.027V179.893Z" fill="#5D6B7E"/>
</svg>
