<svg width="112" height="218" viewBox="0 0 112 218" fill="none" xmlns="http://www.w3.org/2000/svg">
<rect y="100" width="112" height="94" fill="#F9FAFA"/>
<path d="M0 4C0 1.79086 1.79086 0 4 0H108C110.209 0 112 1.79086 112 4V100H0V4Z" fill="#B33242"/>
<path d="M13.9105 109.267V115.022L10.0998 109.267H8.83325V117H10.0998V111.234L13.9105 117H15.1771V109.267H13.9105ZM22.0509 117H23.3841L20.6177 109.267H19.1511L16.3848 117H17.7068L18.2623 115.422H21.4954L22.0509 117ZM21.1398 114.389H18.6179L19.8844 110.801L21.1398 114.389ZM24.5869 117H25.8534V111.712L28.2199 117H29.0975L31.4529 111.712V117H32.7194V109.279H31.364L28.6643 115.333L25.9534 109.279H24.5869V117ZM38.6503 109.267H34.3841V117H38.6503V115.967H35.6506V113.6H38.317V112.567H35.6506V110.301H38.6503V109.267Z" fill="#C2C8CF"/>
<path d="M10.9059 137.013L12.2523 137L14.4917 129.522L16.6512 137H18.0108L20.7035 127.709H19.3972L17.3577 135.56L15.2249 127.709H13.8652L11.6258 135.587L9.5996 127.709H8.30659L10.9059 137.013ZM25.1369 130.602C26.3899 130.602 27.4563 131.388 27.443 132.814H22.8308C22.9641 131.388 23.9505 130.602 25.1369 130.602ZM28.5493 134.747H27.243C26.9764 135.534 26.2832 136.094 25.1902 136.094C23.9505 136.094 22.9108 135.28 22.8174 133.801H28.656C28.6826 133.548 28.696 133.334 28.696 133.068C28.696 131.068 27.3097 129.575 25.1902 129.575C23.0574 129.575 21.5778 131.028 21.5778 133.334C21.5778 135.654 23.1107 137.12 25.1902 137.12C27.0031 137.12 28.1761 136.08 28.5493 134.747ZM30.2971 137H31.5102V127.136H30.2971V137ZM33.5776 137H34.7906V127.136H33.5776V137ZM45.3839 130.442C45.3839 131.481 44.784 132.228 43.411 132.228H41.6248V128.709H43.411C44.7974 128.709 45.3839 129.389 45.3839 130.442ZM40.4118 127.709V137H41.6248V133.201H43.0911L45.3039 137H46.7569L44.4241 133.108C45.9837 132.761 46.6369 131.628 46.6369 130.442C46.6369 128.922 45.5972 127.709 43.411 127.709H40.4118ZM51.6276 130.602C52.8807 130.602 53.9471 131.388 53.9337 132.814H49.3215C49.4548 131.388 50.4413 130.602 51.6276 130.602ZM55.0401 134.747H53.7338C53.4672 135.534 52.774 136.094 51.681 136.094C50.4413 136.094 49.4015 135.28 49.3082 133.801H55.1468C55.1734 133.548 55.1867 133.334 55.1867 133.068C55.1867 131.068 53.8004 129.575 51.681 129.575C49.5482 129.575 48.0685 131.028 48.0685 133.334C48.0685 135.654 49.6015 137.12 51.681 137.12C53.4938 137.12 54.6669 136.08 55.0401 134.747ZM56.3347 133.321C56.3347 135.587 57.841 137.12 59.7872 137.12C61.1335 137.12 62.0799 136.427 62.5198 135.64V137H63.7462V129.695H62.5198V131.028C62.0932 130.268 61.1601 129.575 59.8005 129.575C57.841 129.575 56.3347 131.041 56.3347 133.321ZM62.5198 133.334C62.5198 135.054 61.3734 136.054 60.0404 136.054C58.7074 136.054 57.5744 135.04 57.5744 133.321C57.5744 131.601 58.7074 130.628 60.0404 130.628C61.3734 130.628 62.5198 131.641 62.5198 133.334ZM65.3428 133.321C65.3428 135.587 66.8491 137.12 68.8086 137.12C70.1416 137.12 71.0881 136.44 71.528 135.627V137H72.7543V127.136H71.528V131.001C71.0214 130.162 69.9684 129.575 68.822 129.575C66.8491 129.575 65.3428 131.041 65.3428 133.321ZM71.528 133.334C71.528 135.054 70.3816 136.054 69.0486 136.054C67.7156 136.054 66.5825 135.04 66.5825 133.321C66.5825 131.601 67.7156 130.628 69.0486 130.628C70.3816 130.628 71.528 131.641 71.528 133.334Z" fill="#5D6B7E"/>
<path d="M13.7328 160H14.9993V152.279H13.7328V155.589H10.0998V152.279H8.83325V160H10.0998V156.623H13.7328V160ZM20.9329 152.267H16.6667V160H20.9329V158.967H17.9332V156.6H20.5996V155.567H17.9332V153.301H20.9329V152.267ZM27.0147 160H28.4368L26.037 156.145L28.4479 152.279H27.0369L25.3926 155.1L23.6372 152.279H22.2152L24.626 156.145L22.2263 160H23.6372L25.2704 157.2L27.0147 160Z" fill="#C2C8CF"/>
<path d="M14.3051 177.387C14.3051 178.4 13.5853 179 12.3856 179H10.2394V175.721H12.3456C13.532 175.721 14.3051 176.361 14.3051 177.387ZM14.0652 173.215C14.0652 174.161 13.412 174.721 12.2789 174.721H10.2394V171.709H12.2523C13.4386 171.709 14.0652 172.295 14.0652 173.215ZM15.5181 177.507C15.5181 176.361 14.6917 175.388 13.6786 175.215C14.5717 174.921 15.3048 174.241 15.3048 173.068C15.3048 171.775 14.3184 170.709 12.3589 170.709H9.02641V180H12.4922C14.4117 180 15.5181 178.907 15.5181 177.507ZM16.9748 172.788H18.1612C18.2812 171.855 18.961 171.216 20.0941 171.216C21.2538 171.216 21.8669 171.855 21.8669 172.775C21.8669 173.895 21.0005 174.388 19.3876 174.401H19.0676V175.414H19.3742C21.1071 175.414 22.0536 175.934 22.0536 177.294C22.0536 178.28 21.4404 179.04 20.1474 179.04C18.8677 179.04 18.1212 178.254 18.0012 177.227H16.8282C16.9748 179.094 18.3345 180.067 20.1607 180.067C22.1735 180.067 23.2133 178.894 23.2133 177.401C23.2133 176.014 22.4535 175.188 21.3337 174.921V174.855C22.3468 174.628 23.04 173.762 23.04 172.655C23.04 171.269 22.0136 170.176 20.134 170.176C18.3478 170.176 17.0948 171.136 16.9748 172.788ZM24.8244 172.788H26.0108C26.1308 171.855 26.8106 171.216 27.9437 171.216C29.1034 171.216 29.7165 171.855 29.7165 172.775C29.7165 173.895 28.8501 174.388 27.2372 174.401H26.9172V175.414H27.2238C28.9567 175.414 29.9032 175.934 29.9032 177.294C29.9032 178.28 29.29 179.04 27.997 179.04C26.7173 179.04 25.9708 178.254 25.8508 177.227H24.6778C24.8244 179.094 26.1841 180.067 28.0103 180.067C30.0231 180.067 31.0629 178.894 31.0629 177.401C31.0629 176.014 30.3031 175.188 29.1833 174.921V174.855C30.1964 174.628 30.8896 173.762 30.8896 172.655C30.8896 171.269 29.8632 170.176 27.9836 170.176C26.1974 170.176 24.9444 171.136 24.8244 172.788ZM32.5541 179.893H38.9658V178.88H34.3803C36.0998 177.481 38.6859 175.441 38.6859 173.042C38.6859 171.256 37.5128 170.189 35.6999 170.189C33.967 170.189 32.674 171.256 32.5941 173.308H33.7671C33.8204 172.095 34.4603 171.229 35.7133 171.229C37.0196 171.229 37.4862 172.029 37.4862 173.095C37.4862 175.068 35.0868 176.987 32.5541 179.027V179.893ZM45.0069 180H46.2066V177.854H47.5396V176.801H46.2066V170.456H44.7536L40.0748 176.934V177.854H45.0069V180ZM41.4744 176.801L45.0602 171.722V176.801H41.4744ZM48.6047 179.893H55.0165V178.88H50.431C52.1505 177.481 54.7365 175.441 54.7365 173.042C54.7365 171.256 53.5635 170.189 51.7506 170.189C50.0177 170.189 48.7247 171.256 48.6447 173.308H49.8178C49.8711 172.095 50.5109 171.229 51.764 171.229C53.0703 171.229 53.5368 172.029 53.5368 173.095C53.5368 175.068 51.1374 176.987 48.6047 179.027V179.893Z" fill="#5D6B7E"/>
<path d="M0 194H112V214C112 216.209 110.209 218 108 218H4C1.79086 218 0 216.209 0 214V194Z" fill="#EDEFF1"/>
<path d="M12.9328 204.589C12.9328 205.356 12.4884 205.9 11.4997 205.9H10.0998V203.312H11.4997C12.4884 203.312 12.9328 203.812 12.9328 204.589ZM8.83325 202.279V210H10.0998V206.911H11.0664L12.844 210H14.3549L12.444 206.8C13.7439 206.478 14.2327 205.5 14.2327 204.589C14.2327 203.334 13.3328 202.279 11.4997 202.279H8.83325ZM20.1192 202.267H15.8529V210H20.1192V208.967H17.1195V206.6H19.7859V205.567H17.1195V203.301H20.1192V202.267ZM24.2012 202.279H21.6792V210H24.2012C26.6787 210 28.3007 208.545 28.3007 206.167C28.3007 203.778 26.6787 202.279 24.2012 202.279ZM22.9457 208.967V203.312H24.2012C26.0232 203.312 27.0009 204.401 27.0009 206.167C27.0009 207.922 26.0232 208.967 24.2012 208.967H22.9457ZM29.7227 201.879V206.556H30.9225C31.1336 205.956 31.6336 205.545 32.3779 205.545C33.4334 205.545 33.9556 206.145 33.9556 207.2C33.9556 208.2 33.4667 208.945 32.3779 208.945C31.5225 208.945 30.9448 208.5 30.7781 207.811H29.5449C29.7338 209.078 30.7003 210 32.3668 210C34.2444 210 35.1666 208.778 35.1666 207.167C35.1666 205.945 34.5555 204.467 32.5668 204.467C31.8447 204.467 31.1892 204.801 30.8892 205.2V202.99H34.6111V201.879H29.7227ZM36.485 205.845C36.485 208.2 37.1072 209.978 39.3736 209.978C41.64 209.978 42.2622 208.2 42.2622 205.845C42.2622 203.534 41.64 201.756 39.3736 201.756C37.1072 201.756 36.485 203.534 36.485 205.845ZM41.0179 205.845C41.0179 207.434 40.8512 208.822 39.3736 208.822C37.896 208.822 37.7293 207.434 37.7293 205.845C37.7293 204.334 37.896 202.912 39.3736 202.912C40.8512 202.912 41.0179 204.334 41.0179 205.845ZM43.6023 205.845C43.6023 208.2 44.2245 209.978 46.4909 209.978C48.7574 209.978 49.3795 208.2 49.3795 205.845C49.3795 203.534 48.7574 201.756 46.4909 201.756C44.2245 201.756 43.6023 203.534 43.6023 205.845ZM48.1352 205.845C48.1352 207.434 47.9686 208.822 46.4909 208.822C45.0133 208.822 44.8467 207.434 44.8467 205.845C44.8467 204.334 45.0133 202.912 46.4909 202.912C47.9686 202.912 48.1352 204.334 48.1352 205.845Z" fill="#9AA3AF"/>
</svg>
