<svg width="112" height="218" viewBox="0 0 112 218" fill="none" xmlns="http://www.w3.org/2000/svg">
<rect y="100" width="112" height="94" fill="#F9FAFA"/>
<path d="M0 4C0 1.79086 1.79086 0 4 0H108C110.209 0 112 1.79086 112 4V100H0V4Z" fill="#862531"/>
<path d="M13.9105 109.267V115.022L10.0998 109.267H8.83325V117H10.0998V111.234L13.9105 117H15.1771V109.267H13.9105ZM22.0509 117H23.3841L20.6177 109.267H19.1511L16.3848 117H17.7068L18.2623 115.422H21.4954L22.0509 117ZM21.1398 114.389H18.6179L19.8844 110.801L21.1398 114.389ZM24.5869 117H25.8534V111.712L28.2199 117H29.0975L31.4529 111.712V117H32.7194V109.279H31.364L28.6643 115.333L25.9534 109.279H24.5869V117ZM38.6503 109.267H34.3841V117H38.6503V115.967H35.6506V113.6H38.317V112.567H35.6506V110.301H38.6503V109.267Z" fill="#C2C8CF"/>
<path d="M14.3051 134.387C14.3051 135.4 13.5853 136 12.3856 136H10.2394V132.721H12.3456C13.532 132.721 14.3051 133.361 14.3051 134.387ZM14.0652 130.215C14.0652 131.161 13.412 131.721 12.2789 131.721H10.2394V128.709H12.2523C13.4386 128.709 14.0652 129.295 14.0652 130.215ZM15.5181 134.507C15.5181 133.361 14.6917 132.388 13.6786 132.215C14.5717 131.921 15.3048 131.241 15.3048 130.068C15.3048 128.775 14.3184 127.709 12.3589 127.709H9.02641V137H12.4922C14.4117 137 15.5181 135.907 15.5181 134.507ZM23.6798 129.695H22.4668V133.707C22.4668 135.28 21.627 136.054 20.374 136.054C19.1476 136.054 18.3345 135.294 18.3345 133.814V129.695H17.1348V133.974C17.1348 136.067 18.4545 137.107 20.134 137.107C21.1071 137.107 22.0002 136.68 22.4668 135.92V137H23.6798V129.695ZM26.941 133.028C26.941 131.335 27.8208 130.815 28.9805 130.815H29.3004V129.562C28.1407 129.562 27.3542 130.068 26.941 130.882V129.695H25.728V137H26.941V133.028ZM36.046 137H37.2457V132.694C37.2457 130.602 35.9527 129.562 34.2598 129.562C33.2734 129.562 32.3936 129.975 31.9137 130.735V129.695H30.7007V137H31.9137V132.961C31.9137 131.388 32.7668 130.615 34.0065 130.615C35.2329 130.615 36.046 131.375 36.046 132.868V137ZM39.4938 135C39.4938 136.467 40.2269 137 41.52 137H42.613V135.974H41.7199C40.9734 135.974 40.7068 135.72 40.7068 135V130.695H42.613V129.695H40.7068V127.856H39.4938V129.695H38.5474V130.695H39.4938V135ZM47.6099 133.574C47.6099 135.987 49.1828 137.093 51.1023 137.093C53.0219 137.093 54.6081 135.987 54.6081 133.574V127.709H53.3951V133.588C53.3951 135.294 52.4887 136.027 51.1157 136.027C49.7427 136.027 48.8229 135.294 48.8229 133.588V127.709H47.6099V133.574ZM67.1757 137H68.3754V132.694C68.3754 130.602 67.0824 129.562 65.4162 129.562C64.2964 129.562 63.2567 130.135 62.8301 131.188C62.3503 130.095 61.3505 129.562 60.1508 129.562C59.1911 129.562 58.3246 129.975 57.8447 130.748V129.695H56.6317V137H57.8447V132.974C57.8447 131.401 58.6845 130.615 59.9109 130.615C61.1106 130.615 61.9104 131.375 61.9104 132.868V137H63.1101V132.974C63.1101 131.401 63.9499 130.615 65.1762 130.615C66.3759 130.615 67.1757 131.375 67.1757 132.868V137ZM71.5783 131.055V127.136H70.3652V137H71.5783V135.654C72.0315 136.453 72.9779 137.12 74.3109 137.12C76.2704 137.12 77.7767 135.587 77.7767 133.321C77.7767 131.041 76.2838 129.575 74.3109 129.575C73.0179 129.575 72.0448 130.242 71.5783 131.055ZM76.537 133.321C76.537 135.04 75.404 136.054 74.0576 136.054C72.738 136.054 71.5783 135.054 71.5783 133.334C71.5783 131.641 72.738 130.628 74.0576 130.628C75.404 130.628 76.537 131.601 76.537 133.321ZM82.4793 130.602C83.7323 130.602 84.7987 131.388 84.7854 132.814H80.1732C80.3065 131.388 81.2929 130.602 82.4793 130.602ZM85.8918 134.747H84.5854C84.3188 135.534 83.6257 136.094 82.5326 136.094C81.2929 136.094 80.2532 135.28 80.1599 133.801H85.9984C86.0251 133.548 86.0384 133.334 86.0384 133.068C86.0384 131.068 84.6521 129.575 82.5326 129.575C80.3998 129.575 78.9202 131.028 78.9202 133.334C78.9202 135.654 80.4531 137.12 82.5326 137.12C84.3455 137.12 85.5185 136.08 85.8918 134.747ZM88.8526 133.028C88.8526 131.335 89.7324 130.815 90.8921 130.815H91.212V129.562C90.0523 129.562 89.2658 130.068 88.8526 130.882V129.695H87.6396V137H88.8526V133.028Z" fill="#5D6B7E"/>
<path d="M13.7328 160H14.9993V152.279H13.7328V155.589H10.0998V152.279H8.83325V160H10.0998V156.623H13.7328V160ZM20.9329 152.267H16.6667V160H20.9329V158.967H17.9332V156.6H20.5996V155.567H17.9332V153.301H20.9329V152.267ZM27.0147 160H28.4368L26.037 156.145L28.4479 152.279H27.0369L25.3926 155.1L23.6372 152.279H22.2152L24.626 156.145L22.2263 160H23.6372L25.2704 157.2L27.0147 160Z" fill="#C2C8CF"/>
<path d="M10.586 174.988C9.50629 175.308 8.7998 176.188 8.7998 177.401C8.7998 179.147 10.1728 180.267 12.199 180.267C14.2384 180.267 15.6248 179.147 15.6248 177.401C15.6248 176.201 14.9183 175.321 13.8252 174.988C14.7716 174.615 15.3715 173.815 15.3715 172.775C15.3715 171.375 14.2918 170.216 12.199 170.216C10.1061 170.216 9.03974 171.362 9.03974 172.775C9.03974 173.855 9.5996 174.601 10.586 174.988ZM12.199 174.588C11.0259 174.588 10.2128 173.935 10.2128 172.935C10.2128 171.802 11.0126 171.229 12.199 171.229C13.412 171.229 14.1985 171.815 14.1985 172.922C14.1985 173.922 13.3853 174.588 12.199 174.588ZM12.199 175.521C13.4653 175.521 14.4251 176.121 14.4251 177.361C14.4251 178.48 13.5719 179.254 12.199 179.254C10.826 179.254 9.95951 178.494 9.95951 177.361C9.95951 176.081 10.9593 175.521 12.199 175.521ZM23.7275 172.655C23.5676 171.309 22.6345 170.162 20.7949 170.162C18.3555 170.162 17.3824 172.029 17.3824 175.055C17.3824 177.974 18.0623 180.027 20.9149 180.027C23.021 180.027 24.0608 178.587 24.0608 176.827C24.0608 174.801 22.8477 173.615 21.0482 173.615C19.9018 173.615 18.8487 174.148 18.4355 175.095C18.4222 172.229 19.2486 171.176 20.7816 171.176C21.8747 171.176 22.4212 171.722 22.6078 172.655H23.7275ZM20.7949 174.641C22.1812 174.641 22.8877 175.508 22.8877 176.867C22.8877 178.174 22.1013 179.014 20.8482 179.014C19.3286 179.014 18.5821 178.014 18.5821 176.734C18.5821 175.295 19.6885 174.641 20.7949 174.641ZM25.5506 179.893H31.9623V178.88H27.3768C29.0964 177.481 31.6824 175.441 31.6824 173.042C31.6824 171.256 30.5094 170.189 28.6965 170.189C26.9636 170.189 25.6706 171.256 25.5906 173.308H26.7636C26.817 172.095 27.4568 171.229 28.7098 171.229C30.0162 171.229 30.4827 172.029 30.4827 173.095C30.4827 175.068 28.0833 176.987 25.5506 179.027V179.893ZM33.7112 170.349V175.788H34.8576C35.1775 175.028 35.884 174.521 36.8571 174.521C38.2567 174.521 38.9632 175.321 38.9632 176.694C38.9632 178.014 38.31 179 36.8437 179C35.7107 179 34.9242 178.4 34.6976 177.387H33.5112C33.7512 178.947 34.9109 180.027 36.8304 180.027C39.0832 180.027 40.1229 178.534 40.1229 176.668C40.1229 175.175 39.3764 173.482 37.0303 173.482C36.0839 173.482 35.2308 173.908 34.8309 174.455V171.415H39.5097V170.349H33.7112ZM41.7082 172.788H42.8946C43.0146 171.855 43.6944 171.216 44.8275 171.216C45.9872 171.216 46.6003 171.855 46.6003 172.775C46.6003 173.895 45.7339 174.388 44.121 174.401H43.801V175.414H44.1076C45.8405 175.414 46.787 175.934 46.787 177.294C46.787 178.28 46.1738 179.04 44.8808 179.04C43.6011 179.04 42.8546 178.254 42.7346 177.227H41.5616C41.7082 179.094 43.0679 180.067 44.8941 180.067C46.9069 180.067 47.9467 178.894 47.9467 177.401C47.9467 176.014 47.1869 175.188 46.0671 174.921V174.855C47.0802 174.628 47.7734 173.762 47.7734 172.655C47.7734 171.269 46.747 170.176 44.8674 170.176C43.0812 170.176 41.8282 171.136 41.7082 172.788ZM50.5443 180H51.7706V170.362H49.2646V171.469H50.5443V180Z" fill="#5D6B7E"/>
<path d="M0 194H112V214C112 216.209 110.209 218 108 218H4C1.79086 218 0 216.209 0 214V194Z" fill="#EDEFF1"/>
<path d="M12.9328 204.589C12.9328 205.356 12.4884 205.9 11.4997 205.9H10.0998V203.312H11.4997C12.4884 203.312 12.9328 203.812 12.9328 204.589ZM8.83325 202.279V210H10.0998V206.911H11.0664L12.844 210H14.3549L12.444 206.8C13.7439 206.478 14.2327 205.5 14.2327 204.589C14.2327 203.334 13.3328 202.279 11.4997 202.279H8.83325ZM20.1192 202.267H15.8529V210H20.1192V208.967H17.1195V206.6H19.7859V205.567H17.1195V203.301H20.1192V202.267ZM24.2012 202.279H21.6792V210H24.2012C26.6787 210 28.3007 208.545 28.3007 206.167C28.3007 203.778 26.6787 202.279 24.2012 202.279ZM22.9457 208.967V203.312H24.2012C26.0232 203.312 27.0009 204.401 27.0009 206.167C27.0009 207.922 26.0232 208.967 24.2012 208.967H22.9457ZM34.911 203.778C34.7777 202.701 33.9889 201.701 32.4113 201.701C30.3893 201.701 29.5449 203.234 29.5449 205.767C29.5449 208.345 30.1559 210 32.5113 210C34.2444 210 35.1666 208.833 35.1666 207.3C35.1666 205.612 34.1333 204.634 32.6779 204.634C31.8336 204.634 31.0336 204.989 30.6337 205.656C30.667 203.534 31.2558 202.756 32.4002 202.756C33.2001 202.756 33.5889 203.123 33.7445 203.778H34.911ZM32.4002 205.7C33.4667 205.7 33.9556 206.389 33.9556 207.356C33.9556 208.311 33.3778 208.945 32.4446 208.945C31.3669 208.945 30.7781 208.278 30.7781 207.278C30.7781 206.2 31.5669 205.7 32.4002 205.7ZM36.5175 205.845C36.5175 208.2 37.1397 209.978 39.4061 209.978C41.6726 209.978 42.2947 208.2 42.2947 205.845C42.2947 203.534 41.6726 201.756 39.4061 201.756C37.1397 201.756 36.5175 203.534 36.5175 205.845ZM41.0504 205.845C41.0504 207.434 40.8838 208.822 39.4061 208.822C37.9285 208.822 37.7619 207.434 37.7619 205.845C37.7619 204.334 37.9285 202.912 39.4061 202.912C40.8838 202.912 41.0504 204.334 41.0504 205.845ZM43.6349 205.845C43.6349 208.2 44.257 209.978 46.5235 209.978C48.7899 209.978 49.4121 208.2 49.4121 205.845C49.4121 203.534 48.7899 201.756 46.5235 201.756C44.257 201.756 43.6349 203.534 43.6349 205.845ZM48.1678 205.845C48.1678 207.434 48.0011 208.822 46.5235 208.822C45.0459 208.822 44.8792 207.434 44.8792 205.845C44.8792 204.334 45.0459 202.912 46.5235 202.912C48.0011 202.912 48.1678 204.334 48.1678 205.845Z" fill="#9AA3AF"/>
</svg>
