<svg width="176" height="218" viewBox="0 0 176 218" fill="none" xmlns="http://www.w3.org/2000/svg">
<rect y="100" width="176" height="94" fill="#F9FAFA"/>
<path d="M0 194H176V214C176 216.209 174.209 218 172 218H4C1.79086 218 0 216.209 0 214V194Z" fill="#EDEFF1"/>
<path d="M0 4C0 1.79086 1.79086 0 4 0H172C174.209 0 176 1.79086 176 4V100H0V4Z" fill="#6490E8"/>
<path d="M13.9105 109.267V115.022L10.0998 109.267H8.83325V117H10.0998V111.234L13.9105 117H15.1771V109.267H13.9105ZM22.0509 117H23.3841L20.6177 109.267H19.1511L16.3848 117H17.7068L18.2623 115.422H21.4954L22.0509 117ZM21.1398 114.389H18.6179L19.8844 110.801L21.1398 114.389ZM24.5869 117H25.8534V111.712L28.2199 117H29.0975L31.4529 111.712V117H32.7194V109.279H31.364L28.6643 115.333L25.9534 109.279H24.5869V117ZM38.6503 109.267H34.3841V117H38.6503V115.967H35.6506V113.6H38.317V112.567H35.6506V110.301H38.6503V109.267Z" fill="#C2C8CF"/>
<path d="M8.57319 132.348C8.57319 135.134 10.6127 137.08 13.212 137.08C15.2249 137.08 16.8245 136.08 17.5176 134.294H16.0647C15.5581 135.4 14.5717 136.027 13.212 136.027C11.2659 136.027 9.81288 134.614 9.81288 132.348C9.81288 130.068 11.2659 128.655 13.212 128.655C14.5717 128.655 15.5581 129.282 16.0647 130.402H17.5176C16.8245 128.602 15.2249 127.589 13.212 127.589C10.6127 127.589 8.57319 129.562 8.57319 132.348ZM26.2549 133.334C26.2549 131.028 24.642 129.575 22.5625 129.575C20.4964 129.575 18.8701 131.028 18.8701 133.334C18.8701 135.654 20.443 137.12 22.5092 137.12C24.5887 137.12 26.2549 135.654 26.2549 133.334ZM20.1098 133.334C20.1098 131.495 21.2695 130.628 22.5492 130.628C23.8022 130.628 25.0152 131.495 25.0152 133.334C25.0152 135.187 23.7755 136.054 22.5092 136.054C21.2428 136.054 20.1098 135.187 20.1098 133.334ZM29.0629 133.028C29.0629 131.335 29.9426 130.815 31.1023 130.815H31.4223V129.562C30.2626 129.562 29.4761 130.068 29.0629 130.882V129.695H27.8498V137H29.0629V133.028ZM38.1679 137H39.3676V132.694C39.3676 130.602 38.0746 129.562 36.3817 129.562C35.3952 129.562 34.5155 129.975 34.0356 130.735V129.695H32.8225V137H34.0356V132.961C34.0356 131.388 34.8887 130.615 36.1284 130.615C37.3547 130.615 38.1679 131.375 38.1679 132.868V137ZM41.5757 137H42.7887V130.695H44.3216V129.695H42.7887V129.175C42.7887 128.229 43.1486 127.829 44.2417 127.829V126.816C42.3755 126.816 41.5757 127.549 41.5757 129.175V129.695H40.6292V130.695H41.5757V137ZM45.736 137H46.949V127.136H45.736V137ZM55.948 133.334C55.948 131.028 54.3351 129.575 52.2556 129.575C50.1895 129.575 48.5632 131.028 48.5632 133.334C48.5632 135.654 50.1361 137.12 52.2023 137.12C54.2818 137.12 55.948 135.654 55.948 133.334ZM49.8029 133.334C49.8029 131.495 50.9626 130.628 52.2423 130.628C53.4953 130.628 54.7083 131.495 54.7083 133.334C54.7083 135.187 53.4686 136.054 52.2023 136.054C50.9359 136.054 49.8029 135.187 49.8029 133.334ZM58.9692 137H60.2223L61.9818 131.201L63.7414 137H64.9944L67.2738 129.695H66.0741L64.4212 135.84L62.6483 129.695H61.4086L59.5957 135.827L57.9162 129.695H56.6765L58.9692 137ZM71.5836 130.602C72.8366 130.602 73.903 131.388 73.8897 132.814H69.2775C69.4108 131.388 70.3972 130.602 71.5836 130.602ZM74.9961 134.747H73.6897C73.4231 135.534 72.73 136.094 71.6369 136.094C70.3972 136.094 69.3575 135.28 69.2642 133.801H75.1027C75.1294 133.548 75.1427 133.334 75.1427 133.068C75.1427 131.068 73.7564 129.575 71.6369 129.575C69.5041 129.575 68.0245 131.028 68.0245 133.334C68.0245 135.654 69.5574 137.12 71.6369 137.12C73.4498 137.12 74.6228 136.08 74.9961 134.747ZM77.9569 133.028C77.9569 131.335 78.8367 130.815 79.9964 130.815H80.3163V129.562C79.1566 129.562 78.3701 130.068 77.9569 130.882V129.695H76.7439V137H77.9569V133.028ZM90.549 134.387C90.549 135.4 89.8292 136 88.6295 136H86.4834V132.721H88.5895C89.7759 132.721 90.549 133.361 90.549 134.387ZM90.3091 130.215C90.3091 131.161 89.6559 131.721 88.5229 131.721H86.4834V128.709H88.4962C89.6826 128.709 90.3091 129.295 90.3091 130.215ZM91.7621 134.507C91.7621 133.361 90.9356 132.388 89.9225 132.215C90.8156 131.921 91.5488 131.241 91.5488 130.068C91.5488 128.775 90.5624 127.709 88.6029 127.709H85.2704V137H88.7362C90.6557 137 91.7621 135.907 91.7621 134.507ZM93.4454 137H94.6584V127.136H93.4454V137ZM103.204 129.695H101.991V133.707C101.991 135.28 101.151 136.054 99.8984 136.054C98.672 136.054 97.8589 135.294 97.8589 133.814V129.695H96.6592V133.974C96.6592 136.067 97.9789 137.107 99.6584 137.107C100.632 137.107 101.525 136.68 101.991 135.92V137H103.204V129.695ZM108.358 130.602C109.611 130.602 110.678 131.388 110.664 132.814H106.052C106.185 131.388 107.172 130.602 108.358 130.602ZM111.771 134.747H110.464C110.198 135.534 109.505 136.094 108.412 136.094C107.172 136.094 106.132 135.28 106.039 133.801H111.877C111.904 133.548 111.917 133.334 111.917 133.068C111.917 131.068 110.531 129.575 108.412 129.575C106.279 129.575 104.799 131.028 104.799 133.334C104.799 135.654 106.332 137.12 108.412 137.12C110.224 137.12 111.397 136.08 111.771 134.747Z" fill="#5D6B7E"/>
<path d="M14.0438 207.811C14.0438 204.989 9.95536 206.078 9.95536 204.334C9.95536 203.59 10.522 203.234 11.2552 203.256C12.0551 203.278 12.5107 203.756 12.5551 204.278H13.955C13.8439 202.956 12.7995 202.179 11.3219 202.179C9.74427 202.179 8.6666 203.023 8.6666 204.378C8.6666 207.223 12.7662 206.012 12.7662 207.878C12.7662 208.533 12.2662 209.011 11.3774 209.011C10.4998 209.011 10.0553 208.5 9.9998 207.867H8.64438C8.64438 209.233 9.83315 210.078 11.3774 210.078C13.0995 210.078 14.0438 208.967 14.0438 207.811ZM20.4378 210H21.7044V202.279H20.4378V205.589H16.8048V202.279H15.5383V210H16.8048V206.623H20.4378V210ZM30.8376 206.123C30.8376 203.812 29.0934 202.179 26.8936 202.179C24.716 202.179 22.9495 203.812 22.9495 206.123C22.9495 208.445 24.716 210.078 26.8936 210.078C29.0934 210.078 30.8376 208.445 30.8376 206.123ZM24.2494 206.123C24.2494 204.378 25.3604 203.29 26.8936 203.29C28.4268 203.29 29.5378 204.378 29.5378 206.123C29.5378 207.867 28.4268 208.978 26.8936 208.978C25.3604 208.978 24.2494 207.867 24.2494 206.123ZM33.3505 205.834V203.312H34.7504C35.7392 203.312 36.1836 203.778 36.1836 204.578C36.1836 205.356 35.7392 205.834 34.7504 205.834H33.3505ZM37.4834 204.578C37.4834 203.323 36.5835 202.279 34.7504 202.279H32.084V210H33.3505V206.867H34.7504C36.7613 206.867 37.4834 205.678 37.4834 204.578ZM42.391 210H43.6353V208.311H44.6686V207.211H43.6353V202.001H42.1021L38.3692 207.356V208.311H42.391V210ZM39.8246 207.211L42.4466 203.29V207.211H39.8246ZM45.718 205.845C45.718 208.2 46.3402 209.978 48.6066 209.978C50.8731 209.978 51.4952 208.2 51.4952 205.845C51.4952 203.534 50.8731 201.756 48.6066 201.756C46.3402 201.756 45.718 203.534 45.718 205.845ZM50.2509 205.845C50.2509 207.434 50.0842 208.822 48.6066 208.822C47.129 208.822 46.9623 207.434 46.9623 205.845C46.9623 204.334 47.129 202.912 48.6066 202.912C50.0842 202.912 50.2509 204.334 50.2509 205.845ZM52.8354 205.845C52.8354 208.2 53.4575 209.978 55.724 209.978C57.9904 209.978 58.6126 208.2 58.6126 205.845C58.6126 203.534 57.9904 201.756 55.724 201.756C53.4575 201.756 52.8354 203.534 52.8354 205.845ZM57.3682 205.845C57.3682 207.434 57.2016 208.822 55.724 208.822C54.2463 208.822 54.0797 207.434 54.0797 205.845C54.0797 204.334 54.2463 202.912 55.724 202.912C57.2016 202.912 57.3682 204.334 57.3682 205.845Z" fill="#9AA3AF"/>
<path d="M117.733 160H118.999V152.279H117.733V155.589H114.1V152.279H112.833V160H114.1V156.623H117.733V160ZM124.933 152.267H120.667V160H124.933V158.967H121.933V156.6H124.6V155.567H121.933V153.301H124.933V152.267ZM131.015 160H132.437L130.037 156.145L132.448 152.279H131.037L129.393 155.1L127.637 152.279H126.215L128.626 156.145L126.226 160H127.637L129.27 157.2L131.015 160Z" fill="#C2C8CF"/>
<path d="M119.318 172.655C119.158 171.309 118.225 170.162 116.386 170.162C113.946 170.162 112.973 172.029 112.973 175.055C112.973 177.974 113.653 180.027 116.506 180.027C118.612 180.027 119.651 178.587 119.651 176.827C119.651 174.801 118.438 173.615 116.639 173.615C115.492 173.615 114.439 174.148 114.026 175.095C114.013 172.229 114.839 171.176 116.372 171.176C117.465 171.176 118.012 171.722 118.198 172.655H119.318ZM116.386 174.641C117.772 174.641 118.478 175.508 118.478 176.867C118.478 178.174 117.692 179.014 116.439 179.014C114.919 179.014 114.173 178.014 114.173 176.734C114.173 175.295 115.279 174.641 116.386 174.641ZM125.927 180H127.126V177.854H128.459V176.801H127.126V170.456H125.673L120.995 176.934V177.854H125.927V180ZM122.394 176.801L125.98 171.722V176.801H122.394ZM130.111 177.414C130.244 178.827 131.177 180.013 133.097 180.013C135.63 180.013 136.363 178.214 136.363 175.001C136.363 172.015 135.603 170.176 132.99 170.176C130.911 170.176 129.818 171.509 129.818 173.348C129.818 175.388 131.138 176.494 132.91 176.494C133.95 176.494 134.91 176.028 135.296 175.215C135.336 178.04 134.577 179 133.164 179C132.044 179 131.404 178.414 131.231 177.414H130.111ZM133.11 175.468C131.671 175.468 130.978 174.561 130.978 173.322C130.978 172.042 131.764 171.189 133.017 171.189C134.403 171.189 135.15 172.109 135.15 173.415C135.15 174.708 134.27 175.468 133.11 175.468ZM138.068 175.081C138.068 177.881 138.761 180 141.427 180C144.079 180 144.773 177.881 144.773 175.081C144.773 172.322 144.079 170.216 141.427 170.216C138.761 170.216 138.068 172.322 138.068 175.081ZM143.573 175.081C143.573 177.161 143.32 178.894 141.427 178.894C139.521 178.894 139.267 177.161 139.267 175.081C139.267 173.082 139.521 171.322 141.427 171.322C143.32 171.322 143.573 173.082 143.573 175.081ZM151.637 170.696H146.638V180H151.637V179H147.851V175.801H151.237V174.801H147.851V171.695H151.637V170.696ZM155.032 174.988C153.952 175.308 153.245 176.188 153.245 177.401C153.245 179.147 154.618 180.267 156.645 180.267C158.684 180.267 160.07 179.147 160.07 177.401C160.07 176.201 159.364 175.321 158.271 174.988C159.217 174.615 159.817 173.815 159.817 172.775C159.817 171.375 158.737 170.216 156.645 170.216C154.552 170.216 153.485 171.362 153.485 172.775C153.485 173.855 154.045 174.601 155.032 174.988ZM156.645 174.588C155.472 174.588 154.658 173.935 154.658 172.935C154.658 171.802 155.458 171.229 156.645 171.229C157.858 171.229 158.644 171.815 158.644 172.922C158.644 173.922 157.831 174.588 156.645 174.588ZM156.645 175.521C157.911 175.521 158.871 176.121 158.871 177.361C158.871 178.48 158.018 179.254 156.645 179.254C155.272 179.254 154.405 178.494 154.405 177.361C154.405 176.081 155.405 175.521 156.645 175.521Z" fill="#5D6B7E"/>
<path d="M12.9328 154.589C12.9328 155.356 12.4884 155.9 11.4997 155.9H10.0998V153.312H11.4997C12.4884 153.312 12.9328 153.812 12.9328 154.589ZM8.83325 152.279V160H10.0998V156.911H11.0664L12.844 160H14.3549L12.444 156.8C13.7439 156.478 14.2327 155.5 14.2327 154.589C14.2327 153.334 13.3328 152.279 11.4997 152.279H8.83325ZM19.3748 152.179C17.1973 152.179 15.4308 153.812 15.4308 156.123C15.4308 158.445 17.1973 160.067 19.3748 160.067C21.4524 160.067 22.9633 158.545 23.1967 156.756V155.767H18.9415V156.778H21.8412C21.6524 158.078 20.7747 158.922 19.3748 158.922C17.8416 158.922 16.7306 157.822 16.7306 156.123C16.7306 154.423 17.8416 153.334 19.3748 153.334C20.2969 153.334 21.0302 153.723 21.4413 154.501H22.9633C22.3745 152.99 20.9858 152.179 19.3748 152.179ZM28.801 157.789C28.801 158.533 28.2788 158.967 27.4233 158.967H25.7124V156.556H27.3789C28.2232 156.556 28.801 157.023 28.801 157.789ZM28.601 154.423C28.601 155.134 28.101 155.523 27.2789 155.523H25.7124V153.312H27.2789C28.101 153.312 28.601 153.723 28.601 154.423ZM30.0675 157.922C30.0675 157 29.4009 156.178 28.5788 156.034C29.3231 155.767 29.8897 155.2 29.8897 154.267C29.8897 153.178 29.0232 152.279 27.39 152.279H24.4458V160H27.5344C29.112 160 30.0675 159.1 30.0675 157.922Z" fill="#C2C8CF"/>
<path d="M9.78622 180H11.0126V170.362H8.50654V171.469H9.78622V180ZM13.0962 175.081C13.0962 177.881 13.7894 180 16.4554 180C19.1081 180 19.8012 177.881 19.8012 175.081C19.8012 172.322 19.1081 170.216 16.4554 170.216C13.7894 170.216 13.0962 172.322 13.0962 175.081ZM18.6015 175.081C18.6015 177.161 18.3482 178.894 16.4554 178.894C14.5492 178.894 14.2959 177.161 14.2959 175.081C14.2959 173.082 14.5492 171.322 16.4554 171.322C18.3482 171.322 18.6015 173.082 18.6015 175.081ZM21.4665 175.081C21.4665 177.881 22.1597 180 24.8257 180C27.4784 180 28.1715 177.881 28.1715 175.081C28.1715 172.322 27.4784 170.216 24.8257 170.216C22.1597 170.216 21.4665 172.322 21.4665 175.081ZM26.9718 175.081C26.9718 177.161 26.7185 178.894 24.8257 178.894C22.9195 178.894 22.6662 177.161 22.6662 175.081C22.6662 173.082 22.9195 171.322 24.8257 171.322C26.7185 171.322 26.9718 173.082 26.9718 175.081ZM28.9837 181.906H29.7968L31.2898 178.32H29.9568L28.9837 181.906ZM36.993 180H38.2193V170.362H35.7133V171.469H36.993V180ZM44.9418 180H46.1415V177.854H47.4745V176.801H46.1415V170.456H44.6885L40.0097 176.934V177.854H44.9418V180ZM41.4094 176.801L44.9951 171.722V176.801H41.4094ZM53.3251 180H54.5248V177.854H55.8578V176.801H54.5248V170.456H53.0719L48.393 176.934V177.854H53.3251V180ZM49.7927 176.801L53.3784 171.722V176.801H49.7927ZM56.2165 181.906H57.0296L58.5226 178.32H57.1896L56.2165 181.906ZM63.1193 179.893H69.5311V178.88H64.9456C66.6651 177.481 69.2511 175.441 69.2511 173.042C69.2511 171.256 68.0781 170.189 66.2652 170.189C64.5323 170.189 63.2393 171.256 63.1593 173.308H64.3324C64.3857 172.095 65.0255 171.229 66.2786 171.229C67.5849 171.229 68.0514 172.029 68.0514 173.095C68.0514 175.068 65.652 176.987 63.1193 179.027V179.893ZM70.9067 172.788H72.093C72.213 171.855 72.8928 171.216 74.0259 171.216C75.1856 171.216 75.7988 171.855 75.7988 172.775C75.7988 173.895 74.9323 174.388 73.3194 174.401H72.9995V175.414H73.3061C75.039 175.414 75.9854 175.934 75.9854 177.294C75.9854 178.28 75.3722 179.04 74.0792 179.04C72.7995 179.04 72.053 178.254 71.9331 177.227H70.76C70.9067 179.094 72.2663 180.067 74.0925 180.067C76.1054 180.067 77.1451 178.894 77.1451 177.401C77.1451 176.014 76.3853 175.188 75.2656 174.921V174.855C76.2787 174.628 76.9718 173.762 76.9718 172.655C76.9718 171.269 75.9454 170.176 74.0659 170.176C72.2797 170.176 71.0266 171.136 70.9067 172.788ZM78.6363 179.893H85.048V178.88H80.4625C82.1821 177.481 84.7681 175.441 84.7681 173.042C84.7681 171.256 83.5951 170.189 81.7822 170.189C80.0493 170.189 78.7563 171.256 78.6763 173.308H79.8493C79.9026 172.095 80.5425 171.229 81.7955 171.229C83.1018 171.229 83.5684 172.029 83.5684 173.095C83.5684 175.068 81.169 176.987 78.6363 179.027V179.893Z" fill="#5D6B7E"/>
</svg>
