<svg width="112" height="218" viewBox="0 0 112 218" fill="none" xmlns="http://www.w3.org/2000/svg">
<rect y="100" width="112" height="94" fill="#F9FAFA"/>
<path d="M0 4C0 1.79086 1.79086 0 4 0H108C110.209 0 112 1.79086 112 4V100H0V4Z" fill="#9E467B"/>
<path d="M13.9105 109.267V115.022L10.0998 109.267H8.83325V117H10.0998V111.234L13.9105 117H15.1771V109.267H13.9105ZM22.0509 117H23.3841L20.6177 109.267H19.1511L16.3848 117H17.7068L18.2623 115.422H21.4954L22.0509 117ZM21.1398 114.389H18.6179L19.8844 110.801L21.1398 114.389ZM24.5869 117H25.8534V111.712L28.2199 117H29.0975L31.4529 111.712V117H32.7194V109.279H31.364L28.6643 115.333L25.9534 109.279H24.5869V117ZM38.6503 109.267H34.3841V117H38.6503V115.967H35.6506V113.6H38.317V112.567H35.6506V110.301H38.6503V109.267Z" fill="#C2C8CF"/>
<path d="M13.9985 130.442C13.9985 131.481 13.3987 132.228 12.0257 132.228H10.2394V128.709H12.0257C13.412 128.709 13.9985 129.389 13.9985 130.442ZM9.02641 127.709V137H10.2394V133.201H11.7057L13.9185 137H15.3715L13.0387 133.108C14.5984 132.761 15.2515 131.628 15.2515 130.442C15.2515 128.922 14.2118 127.709 12.0257 127.709H9.02641ZM24.068 133.334C24.068 131.028 22.455 129.575 20.3756 129.575C18.3094 129.575 16.6831 131.028 16.6831 133.334C16.6831 135.654 18.2561 137.12 20.3222 137.12C22.4017 137.12 24.068 135.654 24.068 133.334ZM17.9228 133.334C17.9228 131.495 19.0825 130.628 20.3622 130.628C21.6152 130.628 22.8283 131.495 22.8283 133.334C22.8283 135.187 21.5886 136.054 20.3222 136.054C19.0559 136.054 17.9228 135.187 17.9228 133.334ZM32.1413 129.695H30.9282V133.707C30.9282 135.28 30.0884 136.054 28.8354 136.054C27.6091 136.054 26.7959 135.294 26.7959 133.814V129.695H25.5962V133.974C25.5962 136.067 26.9159 137.107 28.5955 137.107C29.5686 137.107 30.4617 136.68 30.9282 135.92V137H32.1413V129.695ZM33.7362 133.321C33.7362 135.587 35.2425 137.12 37.202 137.12C38.535 137.12 39.4814 136.413 39.9213 135.627V137.16C39.9213 138.72 38.9482 139.546 37.6552 139.546C36.4555 139.546 35.589 138.946 35.3224 138.066H34.1227C34.3627 139.626 35.7357 140.599 37.6552 140.599C39.8013 140.599 41.1476 139.173 41.1476 137.16V129.695H39.9213V131.028C39.4947 130.242 38.535 129.575 37.202 129.575C35.2425 129.575 33.7362 131.041 33.7362 133.321ZM39.9213 133.334C39.9213 135.054 38.7749 136.054 37.4419 136.054C36.1089 136.054 34.9759 135.04 34.9759 133.321C34.9759 131.601 36.1089 130.628 37.4419 130.628C38.7749 130.628 39.9213 131.641 39.9213 133.334ZM46.3034 130.602C47.5565 130.602 48.6229 131.388 48.6095 132.814H43.9974C44.1307 131.388 45.1171 130.602 46.3034 130.602ZM49.7159 134.747H48.4096C48.143 135.534 47.4498 136.094 46.3568 136.094C45.1171 136.094 44.0773 135.28 43.984 133.801H49.8226C49.8492 133.548 49.8626 133.334 49.8626 133.068C49.8626 131.068 48.4762 129.575 46.3568 129.575C44.224 129.575 42.7443 131.028 42.7443 133.334C42.7443 135.654 44.2773 137.12 46.3568 137.12C48.1696 137.12 49.3427 136.08 49.7159 134.747Z" fill="#5D6B7E"/>
<path d="M13.7328 160H14.9993V152.279H13.7328V155.589H10.0998V152.279H8.83325V160H10.0998V156.623H13.7328V160ZM20.9329 152.267H16.6667V160H20.9329V158.967H17.9332V156.6H20.5996V155.567H17.9332V153.301H20.9329V152.267ZM27.0147 160H28.4368L26.037 156.145L28.4479 152.279H27.0369L25.3926 155.1L23.6372 152.279H22.2152L24.626 156.145L22.2263 160H23.6372L25.2704 157.2L27.0147 160Z" fill="#C2C8CF"/>
<path d="M9.26635 177.414C9.39965 178.827 10.3328 180.013 12.2523 180.013C14.785 180.013 15.5181 178.214 15.5181 175.001C15.5181 172.015 14.7583 170.176 12.1456 170.176C10.0662 170.176 8.97309 171.509 8.97309 173.348C8.97309 175.388 10.2928 176.494 12.0657 176.494C13.1054 176.494 14.0652 176.028 14.4517 175.215C14.4917 178.04 13.7319 179 12.3189 179C11.1992 179 10.5594 178.414 10.3861 177.414H9.26635ZM12.2656 175.468C10.826 175.468 10.1328 174.561 10.1328 173.322C10.1328 172.042 10.9193 171.189 12.1723 171.189C13.5586 171.189 14.3051 172.109 14.3051 173.415C14.3051 174.708 13.4253 175.468 12.2656 175.468ZM22.4215 170.696H17.4227V180H22.4215V179H18.6358V175.801H22.0216V174.801H18.6358V171.695H22.4215V170.696ZM28.6959 180H29.8956V177.854H31.2286V176.801H29.8956V170.456H28.4426L23.7638 176.934V177.854H28.6959V180ZM25.1634 176.801L28.7492 171.722V176.801H25.1634ZM38.9321 172.655C38.7721 171.309 37.839 170.162 35.9995 170.162C33.5601 170.162 32.587 172.029 32.587 175.055C32.587 177.974 33.2668 180.027 36.1194 180.027C38.2256 180.027 39.2653 178.587 39.2653 176.827C39.2653 174.801 38.0523 173.615 36.2527 173.615C35.1063 173.615 34.0533 174.148 33.64 175.095C33.6267 172.229 34.4532 171.176 35.9861 171.176C37.0792 171.176 37.6257 171.722 37.8123 172.655H38.9321ZM35.9995 174.641C37.3858 174.641 38.0923 175.508 38.0923 176.867C38.0923 178.174 37.3058 179.014 36.0528 179.014C34.5332 179.014 33.7867 178.014 33.7867 176.734C33.7867 175.295 34.8931 174.641 35.9995 174.641ZM40.5152 170.389V171.429H45.6606L41.9015 180H43.1279L46.8336 171.309V170.389H40.5152ZM53.6572 177.387C53.6572 178.4 52.9374 179 51.7377 179H49.5916V175.721H51.6977C52.8841 175.721 53.6572 176.361 53.6572 177.387ZM53.4173 173.215C53.4173 174.161 52.7641 174.721 51.6311 174.721H49.5916V171.709H51.6044C52.7908 171.709 53.4173 172.295 53.4173 173.215ZM54.8703 177.507C54.8703 176.361 54.0438 175.388 53.0307 175.215C53.9238 174.921 54.657 174.241 54.657 173.068C54.657 171.775 53.6706 170.709 51.711 170.709H48.3785V180H51.8443C53.7639 180 54.8703 178.907 54.8703 177.507Z" fill="#5D6B7E"/>
<path d="M0 194H112V214C112 216.209 110.209 218 108 218H4C1.79086 218 0 216.209 0 214V194Z" fill="#EDEFF1"/>
<path d="M10.3998 210.011L11.8218 210L13.5439 204.156L15.166 210H16.5991L18.8878 202.279H17.5324L15.9214 208.533L14.3105 202.279H12.8884L11.1552 208.567L9.5554 202.279H8.21109L10.3998 210.011ZM24.1986 202.267H19.9324V210H24.1986V208.967H21.1989V206.6H23.8653V205.567H21.1989V203.301H24.1986V202.267ZM30.1138 207.789C30.1138 208.533 29.5916 208.967 28.7361 208.967H27.0252V206.556H28.6917C29.536 206.556 30.1138 207.023 30.1138 207.789ZM29.9138 204.423C29.9138 205.134 29.4138 205.523 28.5917 205.523H27.0252V203.312H28.5917C29.4138 203.312 29.9138 203.723 29.9138 204.423ZM31.3803 207.922C31.3803 207 30.7137 206.178 29.8916 206.034C30.6359 205.767 31.2025 205.2 31.2025 204.267C31.2025 203.178 30.336 202.279 28.7028 202.279H25.7586V210H28.8472C30.4248 210 31.3803 209.1 31.3803 207.922ZM32.7566 210H34.0232V202.279H32.7566V210ZM40.7633 202.267V208.022L36.9526 202.267H35.686V210H36.9526V204.234L40.7633 210H42.0298V202.267H40.7633ZM48.9036 210H50.2368L47.4704 202.267H46.0039L43.2375 210H44.5596L45.1151 208.422H48.3481L48.9036 210ZM47.9926 207.389H45.4706L46.7372 203.801L47.9926 207.389ZM55.5393 204.589C55.5393 205.356 55.0949 205.9 54.1061 205.9H52.7062V203.312H54.1061C55.0949 203.312 55.5393 203.812 55.5393 204.589ZM51.4397 202.279V210H52.7062V206.911H53.6728L55.4504 210H56.9613L55.0504 206.8C56.3503 206.478 56.8391 205.5 56.8391 204.589C56.8391 203.334 55.9392 202.279 54.1061 202.279H51.4397ZM58.626 201.879V206.556H59.8259C60.037 205.956 60.5369 205.545 61.2813 205.545C62.3368 205.545 62.8589 206.145 62.8589 207.2C62.8589 208.2 62.3701 208.945 61.2813 208.945C60.4258 208.945 59.8481 208.5 59.6815 207.811H58.4483C58.6371 209.078 59.6037 210 61.2702 210C63.1478 210 64.0699 208.778 64.0699 207.167C64.0699 205.945 63.4589 204.467 61.4702 204.467C60.748 204.467 60.0925 204.801 59.7926 205.2V202.99H63.5144V201.879H58.626ZM65.3884 205.845C65.3884 208.2 66.0105 209.978 68.277 209.978C70.5434 209.978 71.1656 208.2 71.1656 205.845C71.1656 203.534 70.5434 201.756 68.277 201.756C66.0105 201.756 65.3884 203.534 65.3884 205.845ZM69.9212 205.845C69.9212 207.434 69.7546 208.822 68.277 208.822C66.7993 208.822 66.6327 207.434 66.6327 205.845C66.6327 204.334 66.7993 202.912 68.277 202.912C69.7546 202.912 69.9212 204.334 69.9212 205.845ZM72.5057 205.845C72.5057 208.2 73.1279 209.978 75.3943 209.978C77.6607 209.978 78.2829 208.2 78.2829 205.845C78.2829 203.534 77.6607 201.756 75.3943 201.756C73.1279 201.756 72.5057 203.534 72.5057 205.845ZM77.0386 205.845C77.0386 207.434 76.8719 208.822 75.3943 208.822C73.9167 208.822 73.75 207.434 73.75 205.845C73.75 204.334 73.9167 202.912 75.3943 202.912C76.8719 202.912 77.0386 204.334 77.0386 205.845Z" fill="#9AA3AF"/>
</svg>
