<svg width="112" height="218" viewBox="0 0 112 218" fill="none" xmlns="http://www.w3.org/2000/svg">
<rect y="100" width="112" height="94" fill="#F9FAFA"/>
<path d="M0 4C0 1.79086 1.79086 0 4 0H108C110.209 0 112 1.79086 112 4V100H0V4Z" fill="#C6579A"/>
<path d="M13.9105 109.267V115.022L10.0998 109.267H8.83325V117H10.0998V111.234L13.9105 117H15.1771V109.267H13.9105ZM22.0509 117H23.3841L20.6177 109.267H19.1511L16.3848 117H17.7068L18.2623 115.422H21.4954L22.0509 117ZM21.1398 114.389H18.6179L19.8844 110.801L21.1398 114.389ZM24.5869 117H25.8534V111.712L28.2199 117H29.0975L31.4529 111.712V117H32.7194V109.279H31.364L28.6643 115.333L25.9534 109.279H24.5869V117ZM38.6503 109.267H34.3841V117H38.6503V115.967H35.6506V113.6H38.317V112.567H35.6506V110.301H38.6503V109.267Z" fill="#C2C8CF"/>
<path d="M9.02641 137H10.2394V130.108L13.3187 137H14.1718L17.2377 130.122V137H18.4507V127.776H17.1577L13.7452 135.4L10.3328 127.776H9.02641V137ZM26.9863 129.695H25.7733V133.707C25.7733 135.28 24.9335 136.054 23.6805 136.054C22.4541 136.054 21.641 135.294 21.641 133.814V129.695H20.4413V133.974C20.4413 136.067 21.7609 137.107 23.4405 137.107C24.4136 137.107 25.3067 136.68 25.7733 135.92V137H26.9863V129.695ZM29.0344 137H30.2475V127.136H29.0344V137ZM33.5279 131.055V127.136H32.3149V137H33.5279V135.654C33.9811 136.453 34.9275 137.12 36.2605 137.12C38.22 137.12 39.7263 135.587 39.7263 133.321C39.7263 131.041 38.2334 129.575 36.2605 129.575C34.9675 129.575 33.9944 130.242 33.5279 131.055ZM38.4866 133.321C38.4866 135.04 37.3536 136.054 36.0073 136.054C34.6876 136.054 33.5279 135.054 33.5279 133.334C33.5279 131.641 34.6876 130.628 36.0073 130.628C37.3536 130.628 38.4866 131.601 38.4866 133.321ZM44.4289 130.602C45.6819 130.602 46.7483 131.388 46.735 132.814H42.1228C42.2561 131.388 43.2425 130.602 44.4289 130.602ZM47.8414 134.747H46.5351C46.2685 135.534 45.5753 136.094 44.4822 136.094C43.2425 136.094 42.2028 135.28 42.1095 133.801H47.948C47.9747 133.548 47.988 133.334 47.988 133.068C47.988 131.068 46.6017 129.575 44.4822 129.575C42.3494 129.575 40.8698 131.028 40.8698 133.334C40.8698 135.654 42.4028 137.12 44.4822 137.12C46.2951 137.12 47.4682 136.08 47.8414 134.747ZM50.8022 133.028C50.8022 131.335 51.682 130.815 52.8417 130.815H53.1616V129.562C52.0019 129.562 51.2154 130.068 50.8022 130.882V129.695H49.5892V137H50.8022V133.028ZM55.7749 133.028C55.7749 131.335 56.6547 130.815 57.8144 130.815H58.1343V129.562C56.9746 129.562 56.1882 130.068 55.7749 130.882V129.695H54.5619V137H55.7749V133.028ZM62.3073 135.614L60.0145 129.695H58.6682L61.6141 136.92L60.1745 140.439H61.4275L65.8264 129.695H64.5734L62.3073 135.614Z" fill="#5D6B7E"/>
<path d="M13.7328 160H14.9993V152.279H13.7328V155.589H10.0998V152.279H8.83325V160H10.0998V156.623H13.7328V160ZM20.9329 152.267H16.6667V160H20.9329V158.967H17.9332V156.6H20.5996V155.567H17.9332V153.301H20.9329V152.267ZM27.0147 160H28.4368L26.037 156.145L28.4479 152.279H27.0369L25.3926 155.1L23.6372 152.279H22.2152L24.626 156.145L22.2263 160H23.6372L25.2704 157.2L27.0147 160Z" fill="#C2C8CF"/>
<path d="M8.57319 175.348C8.57319 178.134 10.6127 180.08 13.212 180.08C15.2249 180.08 16.8245 179.08 17.5176 177.294H16.0647C15.5581 178.4 14.5717 179.027 13.212 179.027C11.2659 179.027 9.81288 177.614 9.81288 175.348C9.81288 173.068 11.2659 171.655 13.212 171.655C14.5717 171.655 15.5581 172.282 16.0647 173.402H17.5176C16.8245 171.602 15.2249 170.589 13.212 170.589C10.6127 170.589 8.57319 172.562 8.57319 175.348ZM25.6151 172.655C25.4551 171.309 24.522 170.162 22.6825 170.162C20.2431 170.162 19.27 172.029 19.27 175.055C19.27 177.974 19.9498 180.027 22.8024 180.027C24.9086 180.027 25.9483 178.587 25.9483 176.827C25.9483 174.801 24.7353 173.615 22.9357 173.615C21.7894 173.615 20.7363 174.148 20.3231 175.095C20.3097 172.229 21.1362 171.176 22.6691 171.176C23.7622 171.176 24.3087 171.722 24.4954 172.655H25.6151ZM22.6825 174.641C24.0688 174.641 24.7753 175.508 24.7753 176.867C24.7753 178.174 23.9888 179.014 22.7358 179.014C21.2162 179.014 20.4697 178.014 20.4697 176.734C20.4697 175.295 21.5761 174.641 22.6825 174.641ZM27.9314 170.349V175.788H29.0778C29.3977 175.028 30.1042 174.521 31.0773 174.521C32.4769 174.521 33.1834 175.321 33.1834 176.694C33.1834 178.014 32.5302 179 31.0639 179C29.9309 179 29.1444 178.4 28.9178 177.387H27.7314C27.9714 178.947 29.1311 180.027 31.0506 180.027C33.3034 180.027 34.3431 178.534 34.3431 176.668C34.3431 175.175 33.5966 173.482 31.2505 173.482C30.3041 173.482 29.451 173.908 29.0511 174.455V171.415H33.7299V170.349H27.9314ZM35.5685 170.389V171.429H40.7139L36.9548 180H38.1812L41.8869 171.309V170.389H35.5685ZM43.6718 177.414C43.8051 178.827 44.7382 180.013 46.6577 180.013C49.1904 180.013 49.9236 178.214 49.9236 175.001C49.9236 172.015 49.1638 170.176 46.5511 170.176C44.4716 170.176 43.3786 171.509 43.3786 173.348C43.3786 175.388 44.6982 176.494 46.4711 176.494C47.5109 176.494 48.4706 176.028 48.8572 175.215C48.8972 178.04 48.1374 179 46.7244 179C45.6047 179 44.9648 178.414 44.7915 177.414H43.6718ZM46.6711 175.468C45.2314 175.468 44.5383 174.561 44.5383 173.322C44.5383 172.042 45.3247 171.189 46.5778 171.189C47.9641 171.189 48.7106 172.109 48.7106 173.415C48.7106 174.708 47.8308 175.468 46.6711 175.468ZM58.0666 180H59.3463L56.0005 170.762H54.6008L51.2417 180H52.5214L53.2678 177.934H57.3202L58.0666 180ZM56.9736 176.947H53.6144L55.294 172.255L56.9736 176.947Z" fill="#5D6B7E"/>
<path d="M0 194H112V214C112 216.209 110.209 218 108 218H4C1.79086 218 0 216.209 0 214V194Z" fill="#EDEFF1"/>
<path d="M10.3998 210.011L11.8218 210L13.5439 204.156L15.166 210H16.5991L18.8878 202.279H17.5324L15.9214 208.533L14.3105 202.279H12.8884L11.1552 208.567L9.5554 202.279H8.21109L10.3998 210.011ZM24.1986 202.267H19.9324V210H24.1986V208.967H21.1989V206.6H23.8653V205.567H21.1989V203.301H24.1986V202.267ZM30.1138 207.789C30.1138 208.533 29.5916 208.967 28.7361 208.967H27.0252V206.556H28.6917C29.536 206.556 30.1138 207.023 30.1138 207.789ZM29.9138 204.423C29.9138 205.134 29.4138 205.523 28.5917 205.523H27.0252V203.312H28.5917C29.4138 203.312 29.9138 203.723 29.9138 204.423ZM31.3803 207.922C31.3803 207 30.7137 206.178 29.8916 206.034C30.6359 205.767 31.2025 205.2 31.2025 204.267C31.2025 203.178 30.336 202.279 28.7028 202.279H25.7586V210H28.8472C30.4248 210 31.3803 209.1 31.3803 207.922ZM32.7566 210H34.0232V202.279H32.7566V210ZM40.7633 202.267V208.022L36.9526 202.267H35.686V210H36.9526V204.234L40.7633 210H42.0298V202.267H40.7633ZM48.9036 210H50.2368L47.4704 202.267H46.0039L43.2375 210H44.5596L45.1151 208.422H48.3481L48.9036 210ZM47.9926 207.389H45.4706L46.7372 203.801L47.9926 207.389ZM55.5393 204.589C55.5393 205.356 55.0949 205.9 54.1061 205.9H52.7062V203.312H54.1061C55.0949 203.312 55.5393 203.812 55.5393 204.589ZM51.4397 202.279V210H52.7062V206.911H53.6728L55.4504 210H56.9613L55.0504 206.8C56.3503 206.478 56.8391 205.5 56.8391 204.589C56.8391 203.334 55.9392 202.279 54.1061 202.279H51.4397ZM62.159 210H63.4033V208.311H64.4365V207.211H63.4033V202.001H61.8701L58.1372 207.356V208.311H62.159V210ZM59.5926 207.211L62.2145 203.29V207.211H59.5926ZM65.486 205.845C65.486 208.2 66.1082 209.978 68.3746 209.978C70.641 209.978 71.2632 208.2 71.2632 205.845C71.2632 203.534 70.641 201.756 68.3746 201.756C66.1082 201.756 65.486 203.534 65.486 205.845ZM70.0189 205.845C70.0189 207.434 69.8522 208.822 68.3746 208.822C66.897 208.822 66.7303 207.434 66.7303 205.845C66.7303 204.334 66.897 202.912 68.3746 202.912C69.8522 202.912 70.0189 204.334 70.0189 205.845ZM72.6033 205.845C72.6033 208.2 73.2255 209.978 75.4919 209.978C77.7584 209.978 78.3805 208.2 78.3805 205.845C78.3805 203.534 77.7584 201.756 75.4919 201.756C73.2255 201.756 72.6033 203.534 72.6033 205.845ZM77.1362 205.845C77.1362 207.434 76.9696 208.822 75.4919 208.822C74.0143 208.822 73.8477 207.434 73.8477 205.845C73.8477 204.334 74.0143 202.912 75.4919 202.912C76.9696 202.912 77.1362 204.334 77.1362 205.845Z" fill="#9AA3AF"/>
</svg>
