<svg width="112" height="218" viewBox="0 0 112 218" fill="none" xmlns="http://www.w3.org/2000/svg">
<rect y="100" width="112" height="94" fill="#F9FAFA"/>
<path d="M0 4C0 1.79086 1.79086 0 4 0H108C110.209 0 112 1.79086 112 4V100H0V4Z" fill="#D179AE"/>
<path d="M13.9105 109.267V115.022L10.0998 109.267H8.83325V117H10.0998V111.234L13.9105 117H15.1771V109.267H13.9105ZM22.0509 117H23.3841L20.6177 109.267H19.1511L16.3848 117H17.7068L18.2623 115.422H21.4954L22.0509 117ZM21.1398 114.389H18.6179L19.8844 110.801L21.1398 114.389ZM24.5869 117H25.8534V111.712L28.2199 117H29.0975L31.4529 111.712V117H32.7194V109.279H31.364L28.6643 115.333L25.9534 109.279H24.5869V117ZM38.6503 109.267H34.3841V117H38.6503V115.967H35.6506V113.6H38.317V112.567H35.6506V110.301H38.6503V109.267Z" fill="#C2C8CF"/>
<path d="M14.9716 137H16.1846V127.709H14.9716V131.788H10.2394V127.709H9.02641V137H10.2394V132.788H14.9716V137ZM25.1745 133.334C25.1745 131.028 23.5615 129.575 21.482 129.575C19.4159 129.575 17.7896 131.028 17.7896 133.334C17.7896 135.654 19.3626 137.12 21.4287 137.12C23.5082 137.12 25.1745 135.654 25.1745 133.334ZM19.0293 133.334C19.0293 131.495 20.189 130.628 21.4687 130.628C22.7217 130.628 23.9348 131.495 23.9348 133.334C23.9348 135.187 22.6951 136.054 21.4287 136.054C20.1624 136.054 19.0293 135.187 19.0293 133.334ZM27.9824 131.041V129.695H26.7694V140.466H27.9824V135.654C28.4356 136.4 29.382 137.12 30.715 137.12C32.6746 137.12 34.1808 135.587 34.1808 133.321C34.1808 131.041 32.6746 129.575 30.715 129.575C29.382 129.575 28.4223 130.268 27.9824 131.041ZM32.9412 133.321C32.9412 135.04 31.8081 136.054 30.4618 136.054C29.1421 136.054 27.9824 135.054 27.9824 133.334C27.9824 131.641 29.1421 130.628 30.4618 130.628C31.8081 130.628 32.9412 131.601 32.9412 133.321ZM36.9906 131.055V127.136H35.7775V137H36.9906V135.654C37.4438 136.453 38.3902 137.12 39.7232 137.12C41.6827 137.12 43.189 135.587 43.189 133.321C43.189 131.041 41.6961 129.575 39.7232 129.575C38.4302 129.575 37.4571 130.242 36.9906 131.055ZM41.9493 133.321C41.9493 135.04 40.8163 136.054 39.4699 136.054C38.1503 136.054 36.9906 135.054 36.9906 133.334C36.9906 131.641 38.1503 130.628 39.4699 130.628C40.8163 130.628 41.9493 131.601 41.9493 133.321ZM51.2641 129.695H50.051V133.707C50.051 135.28 49.2113 136.054 47.9582 136.054C46.7319 136.054 45.9187 135.294 45.9187 133.814V129.695H44.719V133.974C44.719 136.067 46.0387 137.107 47.7183 137.107C48.6914 137.107 49.5845 136.68 50.051 135.92V137H51.2641V129.695ZM58.5642 135.014C58.5109 132.401 54.272 133.348 54.272 131.615C54.272 131.028 54.8052 130.602 55.6983 130.602C56.6714 130.602 57.2312 131.135 57.2846 131.868H58.4976C58.4176 130.442 57.3512 129.575 55.7383 129.575C54.112 129.575 53.0589 130.495 53.0589 131.615C53.0589 134.334 57.3779 133.388 57.3779 135.014C57.3779 135.614 56.8447 136.094 55.8849 136.094C54.8585 136.094 54.232 135.56 54.1653 134.854H52.9123C52.9923 136.187 54.192 137.12 55.8982 137.12C57.5112 137.12 58.5642 136.214 58.5642 135.014ZM60.2766 137H61.4896V132.961C61.4896 131.388 62.3428 130.615 63.5825 130.615C64.8088 130.615 65.6219 131.375 65.6219 132.868V137H66.8216V132.694C66.8216 130.602 65.5286 129.562 63.9024 129.562C62.876 129.562 61.9695 129.975 61.4896 130.748V127.136H60.2766V137Z" fill="#5D6B7E"/>
<path d="M13.7328 160H14.9993V152.279H13.7328V155.589H10.0998V152.279H8.83325V160H10.0998V156.623H13.7328V160ZM20.9329 152.267H16.6667V160H20.9329V158.967H17.9332V156.6H20.5996V155.567H17.9332V153.301H20.9329V152.267ZM27.0147 160H28.4368L26.037 156.145L28.4479 152.279H27.0369L25.3926 155.1L23.6372 152.279H22.2152L24.626 156.145L22.2263 160H23.6372L25.2704 157.2L27.0147 160Z" fill="#C2C8CF"/>
<path d="M11.919 170.709H9.02641V180H11.919C14.9716 180 16.8511 178.254 16.8511 175.374C16.8511 172.495 14.9716 170.709 11.919 170.709ZM10.2394 179V171.695H11.919C14.3451 171.695 15.6114 173.108 15.6114 175.374C15.6114 177.641 14.3451 179 11.919 179H10.2394ZM19.2109 180H20.4373V170.362H17.9313V171.469H19.2109V180ZM22.1344 170.389V171.429H27.2798L23.5207 180H24.7471L28.4528 171.309V170.389H22.1344ZM30.2377 177.414C30.371 178.827 31.3041 180.013 33.2236 180.013C35.7563 180.013 36.4894 178.214 36.4894 175.001C36.4894 172.015 35.7296 170.176 33.1169 170.176C31.0375 170.176 29.9444 171.509 29.9444 173.348C29.9444 175.388 31.2641 176.494 33.037 176.494C34.0767 176.494 35.0365 176.028 35.423 175.215C35.463 178.04 34.7032 179 33.2902 179C32.1705 179 31.5307 178.414 31.3574 177.414H30.2377ZM33.2369 175.468C31.7973 175.468 31.1041 174.561 31.1041 173.322C31.1041 172.042 31.8906 171.189 33.1436 171.189C34.5299 171.189 35.2764 172.109 35.2764 173.415C35.2764 174.708 34.3966 175.468 33.2369 175.468ZM44.6325 180H45.9122L42.5664 170.762H41.1667L37.8075 180H39.0872L39.8337 177.934H43.886L44.6325 180ZM43.5394 176.947H40.1803L41.8599 172.255L43.5394 176.947ZM52.3749 170.696H47.3762V180H52.3749V179H48.5892V175.801H51.975V174.801H48.5892V171.695H52.3749V170.696Z" fill="#5D6B7E"/>
<path d="M0 194H112V214C112 216.209 110.209 218 108 218H4C1.79086 218 0 216.209 0 214V194Z" fill="#EDEFF1"/>
<path d="M10.3998 210.011L11.8218 210L13.5439 204.156L15.166 210H16.5991L18.8878 202.279H17.5324L15.9214 208.533L14.3105 202.279H12.8884L11.1552 208.567L9.5554 202.279H8.21109L10.3998 210.011ZM24.1986 202.267H19.9324V210H24.1986V208.967H21.1989V206.6H23.8653V205.567H21.1989V203.301H24.1986V202.267ZM30.1138 207.789C30.1138 208.533 29.5916 208.967 28.7361 208.967H27.0252V206.556H28.6917C29.536 206.556 30.1138 207.023 30.1138 207.789ZM29.9138 204.423C29.9138 205.134 29.4138 205.523 28.5917 205.523H27.0252V203.312H28.5917C29.4138 203.312 29.9138 203.723 29.9138 204.423ZM31.3803 207.922C31.3803 207 30.7137 206.178 29.8916 206.034C30.6359 205.767 31.2025 205.2 31.2025 204.267C31.2025 203.178 30.336 202.279 28.7028 202.279H25.7586V210H28.8472C30.4248 210 31.3803 209.1 31.3803 207.922ZM32.7566 210H34.0232V202.279H32.7566V210ZM40.7633 202.267V208.022L36.9526 202.267H35.686V210H36.9526V204.234L40.7633 210H42.0298V202.267H40.7633ZM48.9036 210H50.2368L47.4704 202.267H46.0039L43.2375 210H44.5596L45.1151 208.422H48.3481L48.9036 210ZM47.9926 207.389H45.4706L46.7372 203.801L47.9926 207.389ZM55.5393 204.589C55.5393 205.356 55.0949 205.9 54.1061 205.9H52.7062V203.312H54.1061C55.0949 203.312 55.5393 203.812 55.5393 204.589ZM51.4397 202.279V210H52.7062V206.911H53.6728L55.4504 210H56.9613L55.0504 206.8C56.3503 206.478 56.8391 205.5 56.8391 204.589C56.8391 203.334 55.9392 202.279 54.1061 202.279H51.4397ZM58.2705 203.901H59.5037C59.5815 203.334 59.9925 202.801 60.8813 202.801C61.7479 202.801 62.2034 203.267 62.2034 203.967C62.2034 204.834 61.5035 205.167 60.3592 205.178H60.0592V206.223H60.3481C61.6702 206.223 62.359 206.589 62.359 207.656C62.359 208.411 61.8923 208.989 60.948 208.989C59.9925 208.989 59.437 208.411 59.3815 207.656H58.1594C58.2372 209.245 59.4259 210.044 60.9591 210.044C62.6478 210.044 63.5589 209.067 63.5589 207.778C63.5589 206.656 63.0145 205.956 62.1701 205.7V205.656C62.8034 205.445 63.4144 204.789 63.4144 203.823C63.4144 202.645 62.5367 201.712 60.9258 201.712C59.4482 201.712 58.3594 202.501 58.2705 203.901ZM64.8893 205.845C64.8893 208.2 65.5114 209.978 67.7779 209.978C70.0443 209.978 70.6665 208.2 70.6665 205.845C70.6665 203.534 70.0443 201.756 67.7779 201.756C65.5114 201.756 64.8893 203.534 64.8893 205.845ZM69.4222 205.845C69.4222 207.434 69.2555 208.822 67.7779 208.822C66.3002 208.822 66.1336 207.434 66.1336 205.845C66.1336 204.334 66.3002 202.912 67.7779 202.912C69.2555 202.912 69.4222 204.334 69.4222 205.845ZM72.0066 205.845C72.0066 208.2 72.6288 209.978 74.8952 209.978C77.1617 209.978 77.7838 208.2 77.7838 205.845C77.7838 203.534 77.1617 201.756 74.8952 201.756C72.6288 201.756 72.0066 203.534 72.0066 205.845ZM76.5395 205.845C76.5395 207.434 76.3728 208.822 74.8952 208.822C73.4176 208.822 73.2509 207.434 73.2509 205.845C73.2509 204.334 73.4176 202.912 74.8952 202.912C76.3728 202.912 76.5395 204.334 76.5395 205.845Z" fill="#9AA3AF"/>
</svg>
