<svg width="176" height="218" viewBox="0 0 176 218" fill="none" xmlns="http://www.w3.org/2000/svg">
<rect y="100" width="176" height="94" fill="#F9FAFA"/>
<path d="M0 194H176V214C176 216.209 174.209 218 172 218H4C1.79086 218 0 216.209 0 214V194Z" fill="#EDEFF1"/>
<path d="M0 4C0 1.79086 1.79086 0 4 0H172C174.209 0 176 1.79086 176 4V100H0V4Z" fill="#C6579A"/>
<path d="M13.9105 109.267V115.022L10.0998 109.267H8.83325V117H10.0998V111.234L13.9105 117H15.1771V109.267H13.9105ZM22.0509 117H23.3841L20.6177 109.267H19.1511L16.3848 117H17.7068L18.2623 115.422H21.4954L22.0509 117ZM21.1398 114.389H18.6179L19.8844 110.801L21.1398 114.389ZM24.5869 117H25.8534V111.712L28.2199 117H29.0975L31.4529 111.712V117H32.7194V109.279H31.364L28.6643 115.333L25.9534 109.279H24.5869V117ZM38.6503 109.267H34.3841V117H38.6503V115.967H35.6506V113.6H38.317V112.567H35.6506V110.301H38.6503V109.267Z" fill="#C2C8CF"/>
<path d="M9.02641 137H10.2394V130.108L13.3187 137H14.1718L17.2377 130.122V137H18.4507V127.776H17.1577L13.7452 135.4L10.3328 127.776H9.02641V137ZM26.9863 129.695H25.7733V133.707C25.7733 135.28 24.9335 136.054 23.6805 136.054C22.4541 136.054 21.641 135.294 21.641 133.814V129.695H20.4413V133.974C20.4413 136.067 21.7609 137.107 23.4405 137.107C24.4136 137.107 25.3067 136.68 25.7733 135.92V137H26.9863V129.695ZM29.0344 137H30.2475V127.136H29.0344V137ZM33.5279 131.055V127.136H32.3149V137H33.5279V135.654C33.9811 136.453 34.9275 137.12 36.2605 137.12C38.22 137.12 39.7263 135.587 39.7263 133.321C39.7263 131.041 38.2334 129.575 36.2605 129.575C34.9675 129.575 33.9944 130.242 33.5279 131.055ZM38.4866 133.321C38.4866 135.04 37.3536 136.054 36.0073 136.054C34.6876 136.054 33.5279 135.054 33.5279 133.334C33.5279 131.641 34.6876 130.628 36.0073 130.628C37.3536 130.628 38.4866 131.601 38.4866 133.321ZM44.4289 130.602C45.6819 130.602 46.7483 131.388 46.735 132.814H42.1228C42.2561 131.388 43.2425 130.602 44.4289 130.602ZM47.8414 134.747H46.5351C46.2685 135.534 45.5753 136.094 44.4822 136.094C43.2425 136.094 42.2028 135.28 42.1095 133.801H47.948C47.9747 133.548 47.988 133.334 47.988 133.068C47.988 131.068 46.6017 129.575 44.4822 129.575C42.3494 129.575 40.8698 131.028 40.8698 133.334C40.8698 135.654 42.4028 137.12 44.4822 137.12C46.2951 137.12 47.4682 136.08 47.8414 134.747ZM50.8022 133.028C50.8022 131.335 51.682 130.815 52.8417 130.815H53.1616V129.562C52.0019 129.562 51.2154 130.068 50.8022 130.882V129.695H49.5892V137H50.8022V133.028ZM55.7749 133.028C55.7749 131.335 56.6547 130.815 57.8144 130.815H58.1343V129.562C56.9746 129.562 56.1882 130.068 55.7749 130.882V129.695H54.5619V137H55.7749V133.028ZM62.3073 135.614L60.0145 129.695H58.6682L61.6141 136.92L60.1745 140.439H61.4275L65.8264 129.695H64.5734L62.3073 135.614Z" fill="#5D6B7E"/>
<path d="M10.3998 210.011L11.8218 210L13.5439 204.156L15.166 210H16.5991L18.8878 202.279H17.5324L15.9214 208.533L14.3105 202.279H12.8884L11.1552 208.567L9.5554 202.279H8.21109L10.3998 210.011ZM24.1986 202.267H19.9324V210H24.1986V208.967H21.1989V206.6H23.8653V205.567H21.1989V203.301H24.1986V202.267ZM30.1138 207.789C30.1138 208.533 29.5916 208.967 28.7361 208.967H27.0252V206.556H28.6917C29.536 206.556 30.1138 207.023 30.1138 207.789ZM29.9138 204.423C29.9138 205.134 29.4138 205.523 28.5917 205.523H27.0252V203.312H28.5917C29.4138 203.312 29.9138 203.723 29.9138 204.423ZM31.3803 207.922C31.3803 207 30.7137 206.178 29.8916 206.034C30.6359 205.767 31.2025 205.2 31.2025 204.267C31.2025 203.178 30.336 202.279 28.7028 202.279H25.7586V210H28.8472C30.4248 210 31.3803 209.1 31.3803 207.922ZM32.7566 210H34.0232V202.279H32.7566V210ZM40.7633 202.267V208.022L36.9526 202.267H35.686V210H36.9526V204.234L40.7633 210H42.0298V202.267H40.7633ZM48.9036 210H50.2368L47.4704 202.267H46.0039L43.2375 210H44.5596L45.1151 208.422H48.3481L48.9036 210ZM47.9926 207.389H45.4706L46.7372 203.801L47.9926 207.389ZM55.5393 204.589C55.5393 205.356 55.0949 205.9 54.1061 205.9H52.7062V203.312H54.1061C55.0949 203.312 55.5393 203.812 55.5393 204.589ZM51.4397 202.279V210H52.7062V206.911H53.6728L55.4504 210H56.9613L55.0504 206.8C56.3503 206.478 56.8391 205.5 56.8391 204.589C56.8391 203.334 55.9392 202.279 54.1061 202.279H51.4397ZM62.159 210H63.4033V208.311H64.4365V207.211H63.4033V202.001H61.8701L58.1372 207.356V208.311H62.159V210ZM59.5926 207.211L62.2145 203.29V207.211H59.5926ZM65.486 205.845C65.486 208.2 66.1082 209.978 68.3746 209.978C70.641 209.978 71.2632 208.2 71.2632 205.845C71.2632 203.534 70.641 201.756 68.3746 201.756C66.1082 201.756 65.486 203.534 65.486 205.845ZM70.0189 205.845C70.0189 207.434 69.8522 208.822 68.3746 208.822C66.897 208.822 66.7303 207.434 66.7303 205.845C66.7303 204.334 66.897 202.912 68.3746 202.912C69.8522 202.912 70.0189 204.334 70.0189 205.845ZM72.6033 205.845C72.6033 208.2 73.2255 209.978 75.4919 209.978C77.7584 209.978 78.3805 208.2 78.3805 205.845C78.3805 203.534 77.7584 201.756 75.4919 201.756C73.2255 201.756 72.6033 203.534 72.6033 205.845ZM77.1362 205.845C77.1362 207.434 76.9696 208.822 75.4919 208.822C74.0143 208.822 73.8477 207.434 73.8477 205.845C73.8477 204.334 74.0143 202.912 75.4919 202.912C76.9696 202.912 77.1362 204.334 77.1362 205.845Z" fill="#9AA3AF"/>
<path d="M117.733 160H118.999V152.279H117.733V155.589H114.1V152.279H112.833V160H114.1V156.623H117.733V160ZM124.933 152.267H120.667V160H124.933V158.967H121.933V156.6H124.6V155.567H121.933V153.301H124.933V152.267ZM131.015 160H132.437L130.037 156.145L132.448 152.279H131.037L129.393 155.1L127.637 152.279H126.215L128.626 156.145L126.226 160H127.637L129.27 157.2L131.015 160Z" fill="#C2C8CF"/>
<path d="M112.573 175.348C112.573 178.134 114.613 180.08 117.212 180.08C119.225 180.08 120.824 179.08 121.518 177.294H120.065C119.558 178.4 118.572 179.027 117.212 179.027C115.266 179.027 113.813 177.614 113.813 175.348C113.813 173.068 115.266 171.655 117.212 171.655C118.572 171.655 119.558 172.282 120.065 173.402H121.518C120.824 171.602 119.225 170.589 117.212 170.589C114.613 170.589 112.573 172.562 112.573 175.348ZM129.615 172.655C129.455 171.309 128.522 170.162 126.682 170.162C124.243 170.162 123.27 172.029 123.27 175.055C123.27 177.974 123.95 180.027 126.802 180.027C128.909 180.027 129.948 178.587 129.948 176.827C129.948 174.801 128.735 173.615 126.936 173.615C125.789 173.615 124.736 174.148 124.323 175.095C124.31 172.229 125.136 171.176 126.669 171.176C127.762 171.176 128.309 171.722 128.495 172.655H129.615ZM126.682 174.641C128.069 174.641 128.775 175.508 128.775 176.867C128.775 178.174 127.989 179.014 126.736 179.014C125.216 179.014 124.47 178.014 124.47 176.734C124.47 175.295 125.576 174.641 126.682 174.641ZM131.931 170.349V175.788H133.078C133.398 175.028 134.104 174.521 135.077 174.521C136.477 174.521 137.183 175.321 137.183 176.694C137.183 178.014 136.53 179 135.064 179C133.931 179 133.144 178.4 132.918 177.387H131.731C131.971 178.947 133.131 180.027 135.051 180.027C137.303 180.027 138.343 178.534 138.343 176.668C138.343 175.175 137.597 173.482 135.251 173.482C134.304 173.482 133.451 173.908 133.051 174.455V171.415H137.73V170.349H131.931ZM139.569 170.389V171.429H144.714L140.955 180H142.181L145.887 171.309V170.389H139.569ZM147.672 177.414C147.805 178.827 148.738 180.013 150.658 180.013C153.19 180.013 153.924 178.214 153.924 175.001C153.924 172.015 153.164 170.176 150.551 170.176C148.472 170.176 147.379 171.509 147.379 173.348C147.379 175.388 148.698 176.494 150.471 176.494C151.511 176.494 152.471 176.028 152.857 175.215C152.897 178.04 152.137 179 150.724 179C149.605 179 148.965 178.414 148.792 177.414H147.672ZM150.671 175.468C149.231 175.468 148.538 174.561 148.538 173.322C148.538 172.042 149.325 171.189 150.578 171.189C151.964 171.189 152.711 172.109 152.711 173.415C152.711 174.708 151.831 175.468 150.671 175.468ZM162.067 180H163.346L160 170.762H158.601L155.242 180H156.521L157.268 177.934H161.32L162.067 180ZM160.974 176.947H157.614L159.294 172.255L160.974 176.947Z" fill="#5D6B7E"/>
<path d="M12.9328 154.589C12.9328 155.356 12.4884 155.9 11.4997 155.9H10.0998V153.312H11.4997C12.4884 153.312 12.9328 153.812 12.9328 154.589ZM8.83325 152.279V160H10.0998V156.911H11.0664L12.844 160H14.3549L12.444 156.8C13.7439 156.478 14.2327 155.5 14.2327 154.589C14.2327 153.334 13.3328 152.279 11.4997 152.279H8.83325ZM19.3748 152.179C17.1973 152.179 15.4308 153.812 15.4308 156.123C15.4308 158.445 17.1973 160.067 19.3748 160.067C21.4524 160.067 22.9633 158.545 23.1967 156.756V155.767H18.9415V156.778H21.8412C21.6524 158.078 20.7747 158.922 19.3748 158.922C17.8416 158.922 16.7306 157.822 16.7306 156.123C16.7306 154.423 17.8416 153.334 19.3748 153.334C20.2969 153.334 21.0302 153.723 21.4413 154.501H22.9633C22.3745 152.99 20.9858 152.179 19.3748 152.179ZM28.801 157.789C28.801 158.533 28.2788 158.967 27.4233 158.967H25.7124V156.556H27.3789C28.2232 156.556 28.801 157.023 28.801 157.789ZM28.601 154.423C28.601 155.134 28.101 155.523 27.2789 155.523H25.7124V153.312H27.2789C28.101 153.312 28.601 153.723 28.601 154.423ZM30.0675 157.922C30.0675 157 29.4009 156.178 28.5788 156.034C29.3231 155.767 29.8897 155.2 29.8897 154.267C29.8897 153.178 29.0232 152.279 27.39 152.279H24.4458V160H27.5344C29.112 160 30.0675 159.1 30.0675 157.922Z" fill="#C2C8CF"/>
<path d="M9.78622 180H11.0126V170.362H8.50654V171.469H9.78622V180ZM13.5361 177.414C13.6694 178.827 14.6025 180.013 16.522 180.013C19.0547 180.013 19.7879 178.214 19.7879 175.001C19.7879 172.015 19.0281 170.176 16.4154 170.176C14.3359 170.176 13.2429 171.509 13.2429 173.348C13.2429 175.388 14.5625 176.494 16.3354 176.494C17.3752 176.494 18.3349 176.028 18.7215 175.215C18.7615 178.04 18.0017 179 16.5887 179C15.469 179 14.8291 178.414 14.6558 177.414H13.5361ZM16.5354 175.468C15.0957 175.468 14.4026 174.561 14.4026 173.322C14.4026 172.042 15.189 171.189 16.4421 171.189C17.8284 171.189 18.5749 172.109 18.5749 173.415C18.5749 174.708 17.6951 175.468 16.5354 175.468ZM23.2521 174.988C22.1724 175.308 21.4659 176.188 21.4659 177.401C21.4659 179.147 22.8389 180.267 24.8651 180.267C26.9045 180.267 28.2909 179.147 28.2909 177.401C28.2909 176.201 27.5844 175.321 26.4913 174.988C27.4377 174.615 28.0376 173.815 28.0376 172.775C28.0376 171.375 26.9579 170.216 24.8651 170.216C22.7722 170.216 21.7058 171.362 21.7058 172.775C21.7058 173.855 22.2657 174.601 23.2521 174.988ZM24.8651 174.588C23.692 174.588 22.8789 173.935 22.8789 172.935C22.8789 171.802 23.6787 171.229 24.8651 171.229C26.0781 171.229 26.8646 171.815 26.8646 172.922C26.8646 173.922 26.0514 174.588 24.8651 174.588ZM24.8651 175.521C26.1314 175.521 27.0912 176.121 27.0912 177.361C27.0912 178.48 26.238 179.254 24.8651 179.254C23.4921 179.254 22.6256 178.494 22.6256 177.361C22.6256 176.081 23.6254 175.521 24.8651 175.521ZM29.0488 181.906H29.8619L31.3549 178.32H30.0219L29.0488 181.906ZM37.8578 174.988C36.7781 175.308 36.0716 176.188 36.0716 177.401C36.0716 179.147 37.4446 180.267 39.4708 180.267C41.5103 180.267 42.8966 179.147 42.8966 177.401C42.8966 176.201 42.1901 175.321 41.097 174.988C42.0435 174.615 42.6433 173.815 42.6433 172.775C42.6433 171.375 41.5636 170.216 39.4708 170.216C37.378 170.216 36.3116 171.362 36.3116 172.775C36.3116 173.855 36.8714 174.601 37.8578 174.988ZM39.4708 174.588C38.2977 174.588 37.4846 173.935 37.4846 172.935C37.4846 171.802 38.2844 171.229 39.4708 171.229C40.6838 171.229 41.4703 171.815 41.4703 172.922C41.4703 173.922 40.6571 174.588 39.4708 174.588ZM39.4708 175.521C40.7371 175.521 41.6969 176.121 41.6969 177.361C41.6969 178.48 40.8438 179.254 39.4708 179.254C38.0978 179.254 37.2313 178.494 37.2313 177.361C37.2313 176.081 38.2311 175.521 39.4708 175.521ZM44.1211 170.389V171.429H49.2664L45.5074 180H46.7337L50.4395 171.309V170.389H44.1211ZM50.9313 181.906H51.7445L53.2374 178.32H51.9044L50.9313 181.906ZM58.9406 180H60.167V170.362H57.6609V171.469H58.9406V180ZM62.5972 170.349V175.788H63.7436C64.0635 175.028 64.77 174.521 65.7431 174.521C67.1427 174.521 67.8492 175.321 67.8492 176.694C67.8492 178.014 67.196 179 65.7297 179C64.5967 179 63.8102 178.4 63.5836 177.387H62.3972C62.6372 178.947 63.7969 180.027 65.7164 180.027C67.9692 180.027 69.0089 178.534 69.0089 176.668C69.0089 175.175 68.2624 173.482 65.9164 173.482C64.9699 173.482 64.1168 173.908 63.7169 174.455V171.415H68.3957V170.349H62.5972ZM75.2597 180H76.4594V177.854H77.7924V176.801H76.4594V170.456H75.0065L70.3276 176.934V177.854H75.2597V180ZM71.7273 176.801L75.3131 171.722V176.801H71.7273Z" fill="#5D6B7E"/>
</svg>
