<svg width="112" height="218" viewBox="0 0 112 218" fill="none" xmlns="http://www.w3.org/2000/svg">
<rect y="100" width="112" height="94" fill="#F9FAFA"/>
<path d="M0 4C0 1.79086 1.79086 0 4 0H108C110.209 0 112 1.79086 112 4V100H0V4Z" fill="#DD9AC2"/>
<path d="M13.9105 109.267V115.022L10.0998 109.267H8.83325V117H10.0998V111.234L13.9105 117H15.1771V109.267H13.9105ZM22.0509 117H23.3841L20.6177 109.267H19.1511L16.3848 117H17.7068L18.2623 115.422H21.4954L22.0509 117ZM21.1398 114.389H18.6179L19.8844 110.801L21.1398 114.389ZM24.5869 117H25.8534V111.712L28.2199 117H29.0975L31.4529 111.712V117H32.7194V109.279H31.364L28.6643 115.333L25.9534 109.279H24.5869V117ZM38.6503 109.267H34.3841V117H38.6503V115.967H35.6506V113.6H38.317V112.567H35.6506V110.301H38.6503V109.267Z" fill="#C2C8CF"/>
<path d="M9.02641 127.709V137H13.492V136.014H10.2394V127.709H9.02641ZM14.7802 137H15.9932V129.695H14.7802V137ZM15.4067 128.509C15.8466 128.509 16.2065 128.149 16.2065 127.682C16.2065 127.216 15.8466 126.856 15.4067 126.856C14.9401 126.856 14.5802 127.216 14.5802 127.682C14.5802 128.149 14.9401 128.509 15.4067 128.509ZM17.6074 133.321C17.6074 135.587 19.1137 137.12 21.0732 137.12C22.4062 137.12 23.3526 136.413 23.7925 135.627V137.16C23.7925 138.72 22.8194 139.546 21.5264 139.546C20.3267 139.546 19.4603 138.946 19.1937 138.066H17.994C18.2339 139.626 19.6069 140.599 21.5264 140.599C23.6725 140.599 25.0189 139.173 25.0189 137.16V129.695H23.7925V131.028C23.3659 130.242 22.4062 129.575 21.0732 129.575C19.1137 129.575 17.6074 131.041 17.6074 133.321ZM23.7925 133.334C23.7925 135.054 22.6461 136.054 21.3131 136.054C19.9801 136.054 18.8471 135.04 18.8471 133.321C18.8471 131.601 19.9801 130.628 21.3131 130.628C22.6461 130.628 23.7925 131.641 23.7925 133.334ZM27.0688 137H28.2818V132.961C28.2818 131.388 29.1349 130.615 30.3746 130.615C31.601 130.615 32.4141 131.375 32.4141 132.868V137H33.6138V132.694C33.6138 130.602 32.3208 129.562 30.6945 129.562C29.6681 129.562 28.7617 129.975 28.2818 130.748V127.136H27.0688V137ZM35.8619 135C35.8619 136.467 36.595 137 37.888 137H38.9811V135.974H38.088C37.3415 135.974 37.0749 135.72 37.0749 135V130.695H38.9811V129.695H37.0749V127.856H35.8619V129.695H34.9155V130.695H35.8619V135ZM52.8824 132.348C52.8824 129.562 50.8429 127.602 48.2169 127.602C45.6042 127.602 43.5514 129.562 43.5514 132.348C43.5514 135.134 45.6042 137.093 48.2169 137.093C50.8429 137.093 52.8824 135.134 52.8824 132.348ZM44.7911 132.348C44.7911 130.068 46.2574 128.655 48.2169 128.655C50.1764 128.655 51.6427 130.068 51.6427 132.348C51.6427 134.614 50.1764 136.04 48.2169 136.04C46.2574 136.04 44.7911 134.614 44.7911 132.348ZM55.6968 133.028C55.6968 131.335 56.5766 130.815 57.7363 130.815H58.0562V129.562C56.8965 129.562 56.1101 130.068 55.6968 130.882V129.695H54.4838V137H55.6968V133.028ZM59.0033 133.334C59.0033 135.654 60.4829 137.12 62.5624 137.12C64.3753 137.12 65.5616 136.107 65.9349 134.654H64.6285C64.3619 135.574 63.6421 136.094 62.5624 136.094C61.2294 136.094 60.243 135.147 60.243 133.334C60.243 131.548 61.2294 130.602 62.5624 130.602C63.6421 130.602 64.3753 131.161 64.6285 132.041H65.9349C65.5616 130.508 64.3753 129.575 62.5624 129.575C60.4829 129.575 59.0033 131.041 59.0033 133.334ZM67.5534 137H68.7665V132.961C68.7665 131.388 69.6196 130.615 70.8593 130.615C72.0856 130.615 72.8988 131.375 72.8988 132.868V137H74.0985V132.694C74.0985 130.602 72.8055 129.562 71.1792 129.562C70.1528 129.562 69.2464 129.975 68.7665 130.748V127.136H67.5534V137ZM76.08 137H77.293V129.695H76.08V137ZM76.7065 128.509C77.1464 128.509 77.5063 128.149 77.5063 127.682C77.5063 127.216 77.1464 126.856 76.7065 126.856C76.2399 126.856 75.88 127.216 75.88 127.682C75.88 128.149 76.2399 128.509 76.7065 128.509ZM78.9072 133.321C78.9072 135.587 80.4135 137.12 82.373 137.12C83.706 137.12 84.6524 136.44 85.0923 135.627V137H86.3186V127.136H85.0923V131.001C84.5857 130.162 83.5327 129.575 82.3863 129.575C80.4135 129.575 78.9072 131.041 78.9072 133.321ZM85.0923 133.334C85.0923 135.054 83.9459 136.054 82.6129 136.054C81.2799 136.054 80.1469 135.04 80.1469 133.321C80.1469 131.601 81.2799 130.628 82.6129 130.628C83.9459 130.628 85.0923 131.641 85.0923 133.334Z" fill="#5D6B7E"/>
<path d="M13.7328 160H14.9993V152.279H13.7328V155.589H10.0998V152.279H8.83325V160H10.0998V156.623H13.7328V160ZM20.9329 152.267H16.6667V160H20.9329V158.967H17.9332V156.6H20.5996V155.567H17.9332V153.301H20.9329V152.267ZM27.0147 160H28.4368L26.037 156.145L28.4479 152.279H27.0369L25.3926 155.1L23.6372 152.279H22.2152L24.626 156.145L22.2263 160H23.6372L25.2704 157.2L27.0147 160Z" fill="#C2C8CF"/>
<path d="M11.919 170.709H9.02641V180H11.919C14.9716 180 16.8511 178.254 16.8511 175.374C16.8511 172.495 14.9716 170.709 11.919 170.709ZM10.2394 179V171.695H11.919C14.3451 171.695 15.6114 173.108 15.6114 175.374C15.6114 177.641 14.3451 179 11.919 179H10.2394ZM21.3437 170.709H18.4511V180H21.3437C24.3963 180 26.2758 178.254 26.2758 175.374C26.2758 172.495 24.3963 170.709 21.3437 170.709ZM19.6642 179V171.695H21.3437C23.7698 171.695 25.0362 173.108 25.0362 175.374C25.0362 177.641 23.7698 179 21.3437 179H19.6642ZM28.1158 177.414C28.2491 178.827 29.1822 180.013 31.1017 180.013C33.6344 180.013 34.3676 178.214 34.3676 175.001C34.3676 172.015 33.6078 170.176 30.9951 170.176C28.9156 170.176 27.8225 171.509 27.8225 173.348C27.8225 175.388 29.1422 176.494 30.9151 176.494C31.9548 176.494 32.9146 176.028 33.3012 175.215C33.3412 178.04 32.5814 179 31.1684 179C30.0487 179 29.4088 178.414 29.2355 177.414H28.1158ZM31.1151 175.468C29.6754 175.468 28.9823 174.561 28.9823 173.322C28.9823 172.042 29.7687 171.189 31.0217 171.189C32.4081 171.189 33.1545 172.109 33.1545 173.415C33.1545 174.708 32.2748 175.468 31.1151 175.468ZM42.5106 180H43.7903L40.4445 170.762H39.0448L35.6857 180H36.9654L37.7118 177.934H41.7642L42.5106 180ZM41.4176 176.947H38.0584L39.738 172.255L41.4176 176.947ZM44.8011 175.348C44.8011 178.134 46.8406 180.08 49.44 180.08C51.4528 180.08 53.0524 179.08 53.7455 177.294H52.2926C51.786 178.4 50.7996 179.027 49.44 179.027C47.4938 179.027 46.0408 177.614 46.0408 175.348C46.0408 173.068 47.4938 171.655 49.44 171.655C50.7996 171.655 51.786 172.282 52.2926 173.402H53.7455C53.0524 171.602 51.4528 170.589 49.44 170.589C46.8406 170.589 44.8011 172.562 44.8011 175.348ZM55.2047 179.893H61.6164V178.88H57.0309C58.7504 177.481 61.3365 175.441 61.3365 173.042C61.3365 171.256 60.1634 170.189 58.3505 170.189C56.6176 170.189 55.3246 171.256 55.2446 173.308H56.4177C56.471 172.095 57.1108 171.229 58.3639 171.229C59.6702 171.229 60.1368 172.029 60.1368 173.095C60.1368 175.068 57.7374 176.987 55.2047 179.027V179.893Z" fill="#5D6B7E"/>
<path d="M0 194H112V214C112 216.209 110.209 218 108 218H4C1.79086 218 0 216.209 0 214V194Z" fill="#EDEFF1"/>
<path d="M10.3998 210.011L11.8218 210L13.5439 204.156L15.166 210H16.5991L18.8878 202.279H17.5324L15.9214 208.533L14.3105 202.279H12.8884L11.1552 208.567L9.5554 202.279H8.21109L10.3998 210.011ZM24.1986 202.267H19.9324V210H24.1986V208.967H21.1989V206.6H23.8653V205.567H21.1989V203.301H24.1986V202.267ZM30.1138 207.789C30.1138 208.533 29.5916 208.967 28.7361 208.967H27.0252V206.556H28.6917C29.536 206.556 30.1138 207.023 30.1138 207.789ZM29.9138 204.423C29.9138 205.134 29.4138 205.523 28.5917 205.523H27.0252V203.312H28.5917C29.4138 203.312 29.9138 203.723 29.9138 204.423ZM31.3803 207.922C31.3803 207 30.7137 206.178 29.8916 206.034C30.6359 205.767 31.2025 205.2 31.2025 204.267C31.2025 203.178 30.336 202.279 28.7028 202.279H25.7586V210H28.8472C30.4248 210 31.3803 209.1 31.3803 207.922ZM32.7566 210H34.0232V202.279H32.7566V210ZM40.7633 202.267V208.022L36.9526 202.267H35.686V210H36.9526V204.234L40.7633 210H42.0298V202.267H40.7633ZM48.9036 210H50.2368L47.4704 202.267H46.0039L43.2375 210H44.5596L45.1151 208.422H48.3481L48.9036 210ZM47.9926 207.389H45.4706L46.7372 203.801L47.9926 207.389ZM55.5393 204.589C55.5393 205.356 55.0949 205.9 54.1061 205.9H52.7062V203.312H54.1061C55.0949 203.312 55.5393 203.812 55.5393 204.589ZM51.4397 202.279V210H52.7062V206.911H53.6728L55.4504 210H56.9613L55.0504 206.8C56.3503 206.478 56.8391 205.5 56.8391 204.589C56.8391 203.334 55.9392 202.279 54.1061 202.279H51.4397ZM58.1927 209.889H63.5922V208.833H60.0703C61.3702 207.645 63.37 206.145 63.37 204.178C63.37 202.723 62.4367 201.734 60.7925 201.734C59.3593 201.734 58.2261 202.59 58.1816 204.345H59.4037C59.437 203.434 59.9148 202.812 60.8036 202.812C61.7479 202.812 62.1146 203.39 62.1146 204.234C62.1146 205.823 60.1036 207.289 58.1927 208.967V209.889ZM64.7048 205.845C64.7048 208.2 65.327 209.978 67.5934 209.978C69.8599 209.978 70.482 208.2 70.482 205.845C70.482 203.534 69.8599 201.756 67.5934 201.756C65.327 201.756 64.7048 203.534 64.7048 205.845ZM69.2377 205.845C69.2377 207.434 69.0711 208.822 67.5934 208.822C66.1158 208.822 65.9492 207.434 65.9492 205.845C65.9492 204.334 66.1158 202.912 67.5934 202.912C69.0711 202.912 69.2377 204.334 69.2377 205.845ZM71.8222 205.845C71.8222 208.2 72.4443 209.978 74.7108 209.978C76.9772 209.978 77.5994 208.2 77.5994 205.845C77.5994 203.534 76.9772 201.756 74.7108 201.756C72.4443 201.756 71.8222 203.534 71.8222 205.845ZM76.3551 205.845C76.3551 207.434 76.1884 208.822 74.7108 208.822C73.2331 208.822 73.0665 207.434 73.0665 205.845C73.0665 204.334 73.2331 202.912 74.7108 202.912C76.1884 202.912 76.3551 204.334 76.3551 205.845Z" fill="#9AA3AF"/>
</svg>
