<svg width="112" height="218" viewBox="0 0 112 218" fill="none" xmlns="http://www.w3.org/2000/svg">
<rect y="100" width="112" height="94" fill="#F9FAFA"/>
<path d="M0 4C0 1.79086 1.79086 0 4 0H108C110.209 0 112 1.79086 112 4V100H0V4Z" fill="#E8BCD7"/>
<path d="M13.9105 109.267V115.022L10.0998 109.267H8.83325V117H10.0998V111.234L13.9105 117H15.1771V109.267H13.9105ZM22.0509 117H23.3841L20.6177 109.267H19.1511L16.3848 117H17.7068L18.2623 115.422H21.4954L22.0509 117ZM21.1398 114.389H18.6179L19.8844 110.801L21.1398 114.389ZM24.5869 117H25.8534V111.712L28.2199 117H29.0975L31.4529 111.712V117H32.7194V109.279H31.364L28.6643 115.333L25.9534 109.279H24.5869V117ZM38.6503 109.267H34.3841V117H38.6503V115.967H35.6506V113.6H38.317V112.567H35.6506V110.301H38.6503V109.267Z" fill="#C2C8CF"/>
<path d="M9.02641 137H10.2394V130.108L13.3187 137H14.1718L17.2377 130.122V137H18.4507V127.776H17.1577L13.7452 135.4L10.3328 127.776H9.02641V137ZM23.6138 130.602C24.8668 130.602 25.9332 131.388 25.9199 132.814H21.3077C21.441 131.388 22.4274 130.602 23.6138 130.602ZM27.0263 134.747H25.7199C25.4533 135.534 24.7602 136.094 23.6671 136.094C22.4274 136.094 21.3877 135.28 21.2944 133.801H27.1329C27.1596 133.548 27.1729 133.334 27.1729 133.068C27.1729 131.068 25.7866 129.575 23.6671 129.575C21.5343 129.575 20.0547 131.028 20.0547 133.334C20.0547 135.654 21.5876 137.12 23.6671 137.12C25.48 137.12 26.653 136.08 27.0263 134.747ZM28.7741 137H29.9871V127.136H28.7741V137ZM31.6013 133.321C31.6013 135.587 33.1076 137.12 35.0538 137.12C36.4001 137.12 37.3465 136.427 37.7864 135.64V137H39.0128V129.695H37.7864V131.028C37.3598 130.268 36.4267 129.575 35.0671 129.575C33.1076 129.575 31.6013 131.041 31.6013 133.321ZM37.7864 133.334C37.7864 135.054 36.64 136.054 35.307 136.054C33.974 136.054 32.841 135.04 32.841 133.321C32.841 131.601 33.974 130.628 35.307 130.628C36.64 130.628 37.7864 131.641 37.7864 133.334ZM46.408 137H47.6077V132.694C47.6077 130.602 46.3147 129.562 44.6218 129.562C43.6354 129.562 42.7556 129.975 42.2757 130.735V129.695H41.0627V137H42.2757V132.961C42.2757 131.388 43.1288 130.615 44.3685 130.615C45.5949 130.615 46.408 131.375 46.408 132.868V137ZM49.5892 137H50.8022V129.695H49.5892V137ZM50.2157 128.509C50.6556 128.509 51.0155 128.149 51.0155 127.682C51.0155 127.216 50.6556 126.856 50.2157 126.856C49.7491 126.856 49.3892 127.216 49.3892 127.682C49.3892 128.149 49.7491 128.509 50.2157 128.509ZM55.9755 130.602C57.2285 130.602 58.2949 131.388 58.2816 132.814H53.6694C53.8027 131.388 54.7891 130.602 55.9755 130.602ZM59.388 134.747H58.0816C57.815 135.534 57.1219 136.094 56.0288 136.094C54.7891 136.094 53.7494 135.28 53.6561 133.801H59.4946C59.5213 133.548 59.5346 133.334 59.5346 133.068C59.5346 131.068 58.1483 129.575 56.0288 129.575C53.896 129.575 52.4164 131.028 52.4164 133.334C52.4164 135.654 53.9493 137.12 56.0288 137.12C57.8417 137.12 59.0147 136.08 59.388 134.747Z" fill="#5D6B7E"/>
<path d="M13.7328 160H14.9993V152.279H13.7328V155.589H10.0998V152.279H8.83325V160H10.0998V156.623H13.7328V160ZM20.9329 152.267H16.6667V160H20.9329V158.967H17.9332V156.6H20.5996V155.567H17.9332V153.301H20.9329V152.267ZM27.0147 160H28.4368L26.037 156.145L28.4479 152.279H27.0369L25.3926 155.1L23.6372 152.279H22.2152L24.626 156.145L22.2263 160H23.6372L25.2704 157.2L27.0147 160Z" fill="#C2C8CF"/>
<path d="M14.0252 170.696H9.02641V180H14.0252V179H10.2394V175.801H13.6253V174.801H10.2394V171.695H14.0252V170.696ZM17.4202 174.988C16.3405 175.308 15.634 176.188 15.634 177.401C15.634 179.147 17.007 180.267 19.0332 180.267C21.0727 180.267 22.459 179.147 22.459 177.401C22.459 176.201 21.7525 175.321 20.6594 174.988C21.6059 174.615 22.2057 173.815 22.2057 172.775C22.2057 171.375 21.126 170.216 19.0332 170.216C16.9404 170.216 15.874 171.362 15.874 172.775C15.874 173.855 16.4338 174.601 17.4202 174.988ZM19.0332 174.588C17.8601 174.588 17.047 173.935 17.047 172.935C17.047 171.802 17.8468 171.229 19.0332 171.229C20.2462 171.229 21.0327 171.815 21.0327 172.922C21.0327 173.922 20.2195 174.588 19.0332 174.588ZM19.0332 175.521C20.2995 175.521 21.2593 176.121 21.2593 177.361C21.2593 178.48 20.4062 179.254 19.0332 179.254C17.6602 179.254 16.7937 178.494 16.7937 177.361C16.7937 176.081 17.7935 175.521 19.0332 175.521ZM29.5487 177.387C29.5487 178.4 28.8289 179 27.6292 179H25.483V175.721H27.5892C28.7755 175.721 29.5487 176.361 29.5487 177.387ZM29.3087 173.215C29.3087 174.161 28.6556 174.721 27.5225 174.721H25.483V171.709H27.4959C28.6822 171.709 29.3087 172.295 29.3087 173.215ZM30.7617 177.507C30.7617 176.361 29.9352 175.388 28.9222 175.215C29.8153 174.921 30.5484 174.241 30.5484 173.068C30.5484 171.775 29.562 170.709 27.6025 170.709H24.27V180H27.7358C29.6553 180 30.7617 178.907 30.7617 177.507ZM31.9918 175.348C31.9918 178.134 34.0313 180.08 36.6307 180.08C38.6435 180.08 40.2431 179.08 40.9362 177.294H39.4833C38.9767 178.4 37.9903 179.027 36.6307 179.027C34.6845 179.027 33.2315 177.614 33.2315 175.348C33.2315 173.068 34.6845 171.655 36.6307 171.655C37.9903 171.655 38.9767 172.282 39.4833 173.402H40.9362C40.2431 171.602 38.6435 170.589 36.6307 170.589C34.0313 170.589 31.9918 172.562 31.9918 175.348ZM45.6345 170.709H42.7419V180H45.6345C48.6871 180 50.5666 178.254 50.5666 175.374C50.5666 172.495 48.6871 170.709 45.6345 170.709ZM43.955 179V171.695H45.6345C48.0606 171.695 49.327 173.108 49.327 175.374C49.327 177.641 48.0606 179 45.6345 179H43.955ZM51.5801 170.389V171.429H56.7255L52.9665 180H54.1928L57.8986 171.309V170.389H51.5801Z" fill="#5D6B7E"/>
<path d="M0 194H112V214C112 216.209 110.209 218 108 218H4C1.79086 218 0 216.209 0 214V194Z" fill="#EDEFF1"/>
<path d="M10.3998 210.011L11.8218 210L13.5439 204.156L15.166 210H16.5991L18.8878 202.279H17.5324L15.9214 208.533L14.3105 202.279H12.8884L11.1552 208.567L9.5554 202.279H8.21109L10.3998 210.011ZM24.1986 202.267H19.9324V210H24.1986V208.967H21.1989V206.6H23.8653V205.567H21.1989V203.301H24.1986V202.267ZM30.1138 207.789C30.1138 208.533 29.5916 208.967 28.7361 208.967H27.0252V206.556H28.6917C29.536 206.556 30.1138 207.023 30.1138 207.789ZM29.9138 204.423C29.9138 205.134 29.4138 205.523 28.5917 205.523H27.0252V203.312H28.5917C29.4138 203.312 29.9138 203.723 29.9138 204.423ZM31.3803 207.922C31.3803 207 30.7137 206.178 29.8916 206.034C30.6359 205.767 31.2025 205.2 31.2025 204.267C31.2025 203.178 30.336 202.279 28.7028 202.279H25.7586V210H28.8472C30.4248 210 31.3803 209.1 31.3803 207.922ZM32.7566 210H34.0232V202.279H32.7566V210ZM40.7633 202.267V208.022L36.9526 202.267H35.686V210H36.9526V204.234L40.7633 210H42.0298V202.267H40.7633ZM48.9036 210H50.2368L47.4704 202.267H46.0039L43.2375 210H44.5596L45.1151 208.422H48.3481L48.9036 210ZM47.9926 207.389H45.4706L46.7372 203.801L47.9926 207.389ZM55.5393 204.589C55.5393 205.356 55.0949 205.9 54.1061 205.9H52.7062V203.312H54.1061C55.0949 203.312 55.5393 203.812 55.5393 204.589ZM51.4397 202.279V210H52.7062V206.911H53.6728L55.4504 210H56.9613L55.0504 206.8C56.3503 206.478 56.8391 205.5 56.8391 204.589C56.8391 203.334 55.9392 202.279 54.1061 202.279H51.4397ZM59.1593 210H60.4369V201.901H58.1261V203.056H59.1593V210ZM62.1769 205.845C62.1769 208.2 62.799 209.978 65.0655 209.978C67.3319 209.978 67.9541 208.2 67.9541 205.845C67.9541 203.534 67.3319 201.756 65.0655 201.756C62.799 201.756 62.1769 203.534 62.1769 205.845ZM66.7098 205.845C66.7098 207.434 66.5431 208.822 65.0655 208.822C63.5878 208.822 63.4212 207.434 63.4212 205.845C63.4212 204.334 63.5878 202.912 65.0655 202.912C66.5431 202.912 66.7098 204.334 66.7098 205.845ZM69.2942 205.845C69.2942 208.2 69.9164 209.978 72.1828 209.978C74.4493 209.978 75.0714 208.2 75.0714 205.845C75.0714 203.534 74.4493 201.756 72.1828 201.756C69.9164 201.756 69.2942 203.534 69.2942 205.845ZM73.8271 205.845C73.8271 207.434 73.6604 208.822 72.1828 208.822C70.7052 208.822 70.5385 207.434 70.5385 205.845C70.5385 204.334 70.7052 202.912 72.1828 202.912C73.6604 202.912 73.8271 204.334 73.8271 205.845Z" fill="#9AA3AF"/>
</svg>
