<svg width="112" height="218" viewBox="0 0 112 218" fill="none" xmlns="http://www.w3.org/2000/svg">
<rect y="100" width="112" height="94" fill="#F9FAFA"/>
<path d="M0 4C0 1.79086 1.79086 0 4 0H108C110.209 0 112 1.79086 112 4V100H0V4Z" fill="#77345C"/>
<path d="M13.9105 109.267V115.022L10.0998 109.267H8.83325V117H10.0998V111.234L13.9105 117H15.1771V109.267H13.9105ZM22.0509 117H23.3841L20.6177 109.267H19.1511L16.3848 117H17.7068L18.2623 115.422H21.4954L22.0509 117ZM21.1398 114.389H18.6179L19.8844 110.801L21.1398 114.389ZM24.5869 117H25.8534V111.712L28.2199 117H29.0975L31.4529 111.712V117H32.7194V109.279H31.364L28.6643 115.333L25.9534 109.279H24.5869V117ZM38.6503 109.267H34.3841V117H38.6503V115.967H35.6506V113.6H38.317V112.567H35.6506V110.301H38.6503V109.267Z" fill="#C2C8CF"/>
<path d="M8.57319 132.348C8.57319 135.134 10.6127 137.08 13.212 137.08C15.2249 137.08 16.8245 136.08 17.5176 134.294H16.0647C15.5581 135.4 14.5717 136.027 13.212 136.027C11.2659 136.027 9.81288 134.614 9.81288 132.348C9.81288 130.068 11.2659 128.655 13.212 128.655C14.5717 128.655 15.5581 129.282 16.0647 130.402H17.5176C16.8245 128.602 15.2249 127.589 13.212 127.589C10.6127 127.589 8.57319 129.562 8.57319 132.348ZM26.2549 133.334C26.2549 131.028 24.642 129.575 22.5625 129.575C20.4964 129.575 18.8701 131.028 18.8701 133.334C18.8701 135.654 20.443 137.12 22.5092 137.12C24.5887 137.12 26.2549 135.654 26.2549 133.334ZM20.1098 133.334C20.1098 131.495 21.2695 130.628 22.5492 130.628C23.8022 130.628 25.0152 131.495 25.0152 133.334C25.0152 135.187 23.7755 136.054 22.5092 136.054C21.2428 136.054 20.1098 135.187 20.1098 133.334ZM33.1018 135.014C33.0485 132.401 28.8096 133.348 28.8096 131.615C28.8096 131.028 29.3428 130.602 30.2359 130.602C31.209 130.602 31.7688 131.135 31.8222 131.868H33.0352C32.9552 130.442 31.8888 129.575 30.2759 129.575C28.6496 129.575 27.5966 130.495 27.5966 131.615C27.5966 134.334 31.9155 133.388 31.9155 135.014C31.9155 135.614 31.3823 136.094 30.4225 136.094C29.3961 136.094 28.7696 135.56 28.7029 134.854H27.4499C27.5299 136.187 28.7296 137.12 30.4358 137.12C32.0488 137.12 33.1018 136.214 33.1018 135.014ZM45.3583 137H46.558V132.694C46.558 130.602 45.265 129.562 43.5987 129.562C42.479 129.562 41.4392 130.135 41.0127 131.188C40.5328 130.095 39.5331 129.562 38.3334 129.562C37.3736 129.562 36.5071 129.975 36.0273 130.748V129.695H34.8142V137H36.0273V132.974C36.0273 131.401 36.8671 130.615 38.0934 130.615C39.2931 130.615 40.0929 131.375 40.0929 132.868V137H41.2926V132.974C41.2926 131.401 42.1324 130.615 43.3588 130.615C44.5585 130.615 45.3583 131.375 45.3583 132.868V137ZM48.5478 137H49.7608V129.695H48.5478V137ZM49.1743 128.509C49.6142 128.509 49.9741 128.149 49.9741 127.682C49.9741 127.216 49.6142 126.856 49.1743 126.856C48.7077 126.856 48.3478 127.216 48.3478 127.682C48.3478 128.149 48.7077 128.509 49.1743 128.509ZM51.375 133.334C51.375 135.654 52.8546 137.12 54.9341 137.12C56.747 137.12 57.9333 136.107 58.3066 134.654H57.0002C56.7336 135.574 56.0138 136.094 54.9341 136.094C53.6011 136.094 52.6147 135.147 52.6147 133.334C52.6147 131.548 53.6011 130.602 54.9341 130.602C56.0138 130.602 56.747 131.161 57.0002 132.041H58.3066C57.9333 130.508 56.747 129.575 54.9341 129.575C52.8546 129.575 51.375 131.041 51.375 133.334Z" fill="#5D6B7E"/>
<path d="M13.7328 160H14.9993V152.279H13.7328V155.589H10.0998V152.279H8.83325V160H10.0998V156.623H13.7328V160ZM20.9329 152.267H16.6667V160H20.9329V158.967H17.9332V156.6H20.5996V155.567H17.9332V153.301H20.9329V152.267ZM27.0147 160H28.4368L26.037 156.145L28.4479 152.279H27.0369L25.3926 155.1L23.6372 152.279H22.2152L24.626 156.145L22.2263 160H23.6372L25.2704 157.2L27.0147 160Z" fill="#C2C8CF"/>
<path d="M8.43989 170.389V171.429H13.5853L9.82621 180H11.0526L14.7583 171.309V170.389H8.43989ZM15.7167 170.389V171.429H20.8621L17.103 180H18.3294L22.0351 171.309V170.389H15.7167ZM23.3535 172.788H24.5398C24.6598 171.855 25.3396 171.216 26.4727 171.216C27.6324 171.216 28.2456 171.855 28.2456 172.775C28.2456 173.895 27.3791 174.388 25.7662 174.401H25.4463V175.414H25.7529C27.4858 175.414 28.4322 175.934 28.4322 177.294C28.4322 178.28 27.819 179.04 26.526 179.04C25.2463 179.04 24.4998 178.254 24.3799 177.227H23.2068C23.3535 179.094 24.7131 180.067 26.5393 180.067C28.5522 180.067 29.5919 178.894 29.5919 177.401C29.5919 176.014 28.8321 175.188 27.7124 174.921V174.855C28.7254 174.628 29.4186 173.762 29.4186 172.655C29.4186 171.269 28.3922 170.176 26.5127 170.176C24.7264 170.176 23.4734 171.136 23.3535 172.788ZM35.8686 180H37.0683V177.854H38.4013V176.801H37.0683V170.456H35.6153L30.9365 176.934V177.854H35.8686V180ZM32.3361 176.801L35.9219 171.722V176.801H32.3361ZM39.9596 170.349V175.788H41.106C41.4259 175.028 42.1324 174.521 43.1055 174.521C44.5051 174.521 45.2116 175.321 45.2116 176.694C45.2116 178.014 44.5585 179 43.0922 179C41.9591 179 41.1726 178.4 40.946 177.387H39.7597C39.9996 178.947 41.1593 180.027 43.0788 180.027C45.3316 180.027 46.3713 178.534 46.3713 176.668C46.3713 175.175 45.6249 173.482 43.2788 173.482C42.3324 173.482 41.4792 173.908 41.0793 174.455V171.415H45.7582V170.349H39.9596ZM47.7301 175.348C47.7301 178.134 49.7696 180.08 52.3689 180.08C54.3817 180.08 55.9813 179.08 56.6745 177.294H55.2215C54.715 178.4 53.7286 179.027 52.3689 179.027C50.4227 179.027 48.9698 177.614 48.9698 175.348C48.9698 173.068 50.4227 171.655 52.3689 171.655C53.7286 171.655 54.715 172.282 55.2215 173.402H56.6745C55.9813 171.602 54.3817 170.589 52.3689 170.589C49.7696 170.589 47.7301 172.562 47.7301 175.348Z" fill="#5D6B7E"/>
<path d="M0 194H112V214C112 216.209 110.209 218 108 218H4C1.79086 218 0 216.209 0 214V194Z" fill="#EDEFF1"/>
<path d="M10.3998 210.011L11.8218 210L13.5439 204.156L15.166 210H16.5991L18.8878 202.279H17.5324L15.9214 208.533L14.3105 202.279H12.8884L11.1552 208.567L9.5554 202.279H8.21109L10.3998 210.011ZM24.1986 202.267H19.9324V210H24.1986V208.967H21.1989V206.6H23.8653V205.567H21.1989V203.301H24.1986V202.267ZM30.1138 207.789C30.1138 208.533 29.5916 208.967 28.7361 208.967H27.0252V206.556H28.6917C29.536 206.556 30.1138 207.023 30.1138 207.789ZM29.9138 204.423C29.9138 205.134 29.4138 205.523 28.5917 205.523H27.0252V203.312H28.5917C29.4138 203.312 29.9138 203.723 29.9138 204.423ZM31.3803 207.922C31.3803 207 30.7137 206.178 29.8916 206.034C30.6359 205.767 31.2025 205.2 31.2025 204.267C31.2025 203.178 30.336 202.279 28.7028 202.279H25.7586V210H28.8472C30.4248 210 31.3803 209.1 31.3803 207.922ZM32.7566 210H34.0232V202.279H32.7566V210ZM40.7633 202.267V208.022L36.9526 202.267H35.686V210H36.9526V204.234L40.7633 210H42.0298V202.267H40.7633ZM48.9036 210H50.2368L47.4704 202.267H46.0039L43.2375 210H44.5596L45.1151 208.422H48.3481L48.9036 210ZM47.9926 207.389H45.4706L46.7372 203.801L47.9926 207.389ZM55.5393 204.589C55.5393 205.356 55.0949 205.9 54.1061 205.9H52.7062V203.312H54.1061C55.0949 203.312 55.5393 203.812 55.5393 204.589ZM51.4397 202.279V210H52.7062V206.911H53.6728L55.4504 210H56.9613L55.0504 206.8C56.3503 206.478 56.8391 205.5 56.8391 204.589C56.8391 203.334 55.9392 202.279 54.1061 202.279H51.4397ZM63.8144 203.778C63.6811 202.701 62.8923 201.701 61.3146 201.701C59.2926 201.701 58.4483 203.234 58.4483 205.767C58.4483 208.345 59.0593 210 61.4146 210C63.1478 210 64.0699 208.833 64.0699 207.3C64.0699 205.612 63.0367 204.634 61.5813 204.634C60.7369 204.634 59.937 204.989 59.537 205.656C59.5704 203.534 60.1592 202.756 61.3035 202.756C62.1034 202.756 62.4923 203.123 62.6478 203.778H63.8144ZM61.3035 205.7C62.3701 205.7 62.8589 206.389 62.8589 207.356C62.8589 208.311 62.2812 208.945 61.348 208.945C60.2703 208.945 59.6815 208.278 59.6815 207.278C59.6815 206.2 60.4703 205.7 61.3035 205.7ZM65.4209 205.845C65.4209 208.2 66.0431 209.978 68.3095 209.978C70.5759 209.978 71.1981 208.2 71.1981 205.845C71.1981 203.534 70.5759 201.756 68.3095 201.756C66.0431 201.756 65.4209 203.534 65.4209 205.845ZM69.9538 205.845C69.9538 207.434 69.7871 208.822 68.3095 208.822C66.8319 208.822 66.6652 207.434 66.6652 205.845C66.6652 204.334 66.8319 202.912 68.3095 202.912C69.7871 202.912 69.9538 204.334 69.9538 205.845ZM72.5382 205.845C72.5382 208.2 73.1604 209.978 75.4268 209.978C77.6933 209.978 78.3154 208.2 78.3154 205.845C78.3154 203.534 77.6933 201.756 75.4268 201.756C73.1604 201.756 72.5382 203.534 72.5382 205.845ZM77.0711 205.845C77.0711 207.434 76.9045 208.822 75.4268 208.822C73.9492 208.822 73.7826 207.434 73.7826 205.845C73.7826 204.334 73.9492 202.912 75.4268 202.912C76.9045 202.912 77.0711 204.334 77.0711 205.845Z" fill="#9AA3AF"/>
</svg>
