<svg width="176" height="218" viewBox="0 0 176 218" fill="none" xmlns="http://www.w3.org/2000/svg">
<rect y="100" width="176" height="94" fill="#F9FAFA"/>
<path d="M0 194H176V214C176 216.209 174.209 218 172 218H4C1.79086 218 0 216.209 0 214V194Z" fill="#EDEFF1"/>
<path d="M0 4C0 1.79086 1.79086 0 4 0H172C174.209 0 176 1.79086 176 4V100H0V4Z" fill="#FFC72C"/>
<path d="M13.9105 109.267V115.022L10.0998 109.267H8.83325V117H10.0998V111.234L13.9105 117H15.1771V109.267H13.9105ZM22.0509 117H23.3841L20.6177 109.267H19.1511L16.3848 117H17.7068L18.2623 115.422H21.4954L22.0509 117ZM21.1398 114.389H18.6179L19.8844 110.801L21.1398 114.389ZM24.5869 117H25.8534V111.712L28.2199 117H29.0975L31.4529 111.712V117H32.7194V109.279H31.364L28.6643 115.333L25.9534 109.279H24.5869V117ZM38.6503 109.267H34.3841V117H38.6503V115.967H35.6506V113.6H38.317V112.567H35.6506V110.301H38.6503V109.267Z" fill="#C2C8CF"/>
<path d="M15.0649 134.467C15.0649 131.028 10.0528 132.521 10.0528 130.122C10.0528 129.122 10.8393 128.602 11.839 128.629C12.9721 128.642 13.5586 129.349 13.6386 129.975H14.9716C14.825 128.562 13.6653 127.589 11.8924 127.589C10.0528 127.589 8.81313 128.629 8.81313 130.162C8.81313 133.614 13.8385 132.015 13.8385 134.521C13.8385 135.4 13.1454 136.067 11.9723 136.067C10.6793 136.067 10.1328 135.294 10.0528 134.521H8.75981C8.78647 136.054 10.1061 137.093 11.9723 137.093C13.9852 137.093 15.0649 135.787 15.0649 134.467ZM23.3284 129.695H22.1153V133.707C22.1153 135.28 21.2755 136.054 20.0225 136.054C18.7962 136.054 17.983 135.294 17.983 133.814V129.695H16.7833V133.974C16.7833 136.067 18.103 137.107 19.7826 137.107C20.7557 137.107 21.6488 136.68 22.1153 135.92V137H23.3284V129.695ZM30.7218 137H31.9215V132.694C31.9215 130.602 30.6285 129.562 28.9356 129.562C27.9492 129.562 27.0694 129.975 26.5895 130.735V129.695H25.3765V137H26.5895V132.961C26.5895 131.388 27.4426 130.615 28.6823 130.615C29.9087 130.615 30.7218 131.375 30.7218 132.868V137ZM33.4498 133.321C33.4498 135.587 34.9561 137.12 36.9156 137.12C38.2486 137.12 39.195 136.413 39.6349 135.627V137.16C39.6349 138.72 38.6618 139.546 37.3688 139.546C36.1691 139.546 35.3027 138.946 35.0361 138.066H33.8364C34.0763 139.626 35.4493 140.599 37.3688 140.599C39.5149 140.599 40.8613 139.173 40.8613 137.16V129.695H39.6349V131.028C39.2083 130.242 38.2486 129.575 36.9156 129.575C34.9561 129.575 33.4498 131.041 33.4498 133.321ZM39.6349 133.334C39.6349 135.054 38.4885 136.054 37.1555 136.054C35.8225 136.054 34.6895 135.04 34.6895 133.321C34.6895 131.601 35.8225 130.628 37.1555 130.628C38.4885 130.628 39.6349 131.641 39.6349 133.334ZM42.9112 137H44.1242V127.136H42.9112V137ZM53.1232 133.334C53.1232 131.028 51.5103 129.575 49.4308 129.575C47.3646 129.575 45.7384 131.028 45.7384 133.334C45.7384 135.654 47.3113 137.12 49.3775 137.12C51.4569 137.12 53.1232 135.654 53.1232 133.334ZM46.9781 133.334C46.9781 131.495 48.1378 130.628 49.4175 130.628C50.6705 130.628 51.8835 131.495 51.8835 133.334C51.8835 135.187 50.6438 136.054 49.3775 136.054C48.1111 136.054 46.9781 135.187 46.9781 133.334ZM56.1444 137H57.3974L59.157 131.201L60.9166 137H62.1696L64.449 129.695H63.2493L61.5964 135.84L59.8235 129.695H58.5838L56.7709 135.827L55.0914 129.695H53.8517L56.1444 137Z" fill="#5D6B7E"/>
<path d="M10.7331 207.2V210H11.9996V207.2L14.5549 202.279H13.155L11.3663 206.067L9.57762 202.279H8.16665L10.7331 207.2ZM19.8262 202.267H15.56V210H19.8262V208.967H16.8265V206.6H19.4929V205.567H16.8265V203.301H19.8262V202.267ZM21.3862 202.279V210H25.2636V208.978H22.6528V202.279H21.3862ZM26.3228 202.279V210H30.2002V208.978H27.5894V202.279H26.3228ZM38.7253 206.123C38.7253 203.812 36.981 202.179 34.7813 202.179C32.6037 202.179 30.8372 203.812 30.8372 206.123C30.8372 208.445 32.6037 210.078 34.7813 210.078C36.981 210.078 38.7253 208.445 38.7253 206.123ZM32.1371 206.123C32.1371 204.378 33.2481 203.29 34.7813 203.29C36.3144 203.29 37.4254 204.378 37.4254 206.123C37.4254 207.867 36.3144 208.978 34.7813 208.978C33.2481 208.978 32.1371 207.867 32.1371 206.123ZM41.5381 210.011L42.9602 210L44.6823 204.156L46.3043 210H47.7375L50.0262 202.279H48.6708L47.0598 208.533L45.4489 202.279H44.0268L42.2936 208.567L40.6938 202.279H39.3495L41.5381 210.011ZM54.7704 210H56.0147V208.311H57.048V207.211H56.0147V202.001H54.4815L50.7486 207.356V208.311H54.7704V210ZM52.204 207.211L54.826 203.29V207.211H52.204ZM58.0974 205.845C58.0974 208.2 58.7196 209.978 60.986 209.978C63.2525 209.978 63.8746 208.2 63.8746 205.845C63.8746 203.534 63.2525 201.756 60.986 201.756C58.7196 201.756 58.0974 203.534 58.0974 205.845ZM62.6303 205.845C62.6303 207.434 62.4636 208.822 60.986 208.822C59.5084 208.822 59.3417 207.434 59.3417 205.845C59.3417 204.334 59.5084 202.912 60.986 202.912C62.4636 202.912 62.6303 204.334 62.6303 205.845ZM65.2148 205.845C65.2148 208.2 65.8369 209.978 68.1034 209.978C70.3698 209.978 70.992 208.2 70.992 205.845C70.992 203.534 70.3698 201.756 68.1034 201.756C65.8369 201.756 65.2148 203.534 65.2148 205.845ZM69.7476 205.845C69.7476 207.434 69.581 208.822 68.1034 208.822C66.6257 208.822 66.4591 207.434 66.4591 205.845C66.4591 204.334 66.6257 202.912 68.1034 202.912C69.581 202.912 69.7476 204.334 69.7476 205.845Z" fill="#9AA3AF"/>
<path d="M117.733 160H118.999V152.279H117.733V155.589H114.1V152.279H112.833V160H114.1V156.623H117.733V160ZM124.933 152.267H120.667V160H124.933V158.967H121.933V156.6H124.6V155.567H121.933V153.301H124.933V152.267ZM131.015 160H132.437L130.037 156.145L132.448 152.279H131.037L129.393 155.1L127.637 152.279H126.215L128.626 156.145L126.226 160H127.637L129.27 157.2L131.015 160Z" fill="#C2C8CF"/>
<path d="M113.026 180H114.239V175.814H117.519V174.828H114.239V171.695H118.278V170.709H113.026V180ZM119.743 180H120.957V175.814H124.236V174.828H120.957V171.695H124.996V170.709H119.743V180ZM126.007 175.348C126.007 178.134 128.047 180.08 130.646 180.08C132.659 180.08 134.259 179.08 134.952 177.294H133.499C132.992 178.4 132.006 179.027 130.646 179.027C128.7 179.027 127.247 177.614 127.247 175.348C127.247 173.068 128.7 171.655 130.646 171.655C132.006 171.655 132.992 172.282 133.499 173.402H134.952C134.259 171.602 132.659 170.589 130.646 170.589C128.047 170.589 126.007 172.562 126.007 175.348ZM136.171 170.389V171.429H141.316L137.557 180H138.784L142.489 171.309V170.389H136.171ZM143.688 179.893H150.099V178.88H145.514C147.233 177.481 149.82 175.441 149.82 173.042C149.82 171.256 148.646 170.189 146.834 170.189C145.101 170.189 143.808 171.256 143.728 173.308H144.901C144.954 172.095 145.594 171.229 146.847 171.229C148.153 171.229 148.62 172.029 148.62 173.095C148.62 175.068 146.22 176.987 143.688 179.027V179.893ZM151.248 175.348C151.248 178.134 153.288 180.08 155.887 180.08C157.9 180.08 159.5 179.08 160.193 177.294H158.74C158.233 178.4 157.247 179.027 155.887 179.027C153.941 179.027 152.488 177.614 152.488 175.348C152.488 173.068 153.941 171.655 155.887 171.655C157.247 171.655 158.233 172.282 158.74 173.402H160.193C159.5 171.602 157.9 170.589 155.887 170.589C153.288 170.589 151.248 172.562 151.248 175.348Z" fill="#5D6B7E"/>
<path d="M12.9328 154.589C12.9328 155.356 12.4884 155.9 11.4997 155.9H10.0998V153.312H11.4997C12.4884 153.312 12.9328 153.812 12.9328 154.589ZM8.83325 152.279V160H10.0998V156.911H11.0664L12.844 160H14.3549L12.444 156.8C13.7439 156.478 14.2327 155.5 14.2327 154.589C14.2327 153.334 13.3328 152.279 11.4997 152.279H8.83325ZM19.3748 152.179C17.1973 152.179 15.4308 153.812 15.4308 156.123C15.4308 158.445 17.1973 160.067 19.3748 160.067C21.4524 160.067 22.9633 158.545 23.1967 156.756V155.767H18.9415V156.778H21.8412C21.6524 158.078 20.7747 158.922 19.3748 158.922C17.8416 158.922 16.7306 157.822 16.7306 156.123C16.7306 154.423 17.8416 153.334 19.3748 153.334C20.2969 153.334 21.0302 153.723 21.4413 154.501H22.9633C22.3745 152.99 20.9858 152.179 19.3748 152.179ZM28.801 157.789C28.801 158.533 28.2788 158.967 27.4233 158.967H25.7124V156.556H27.3789C28.2232 156.556 28.801 157.023 28.801 157.789ZM28.601 154.423C28.601 155.134 28.101 155.523 27.2789 155.523H25.7124V153.312H27.2789C28.101 153.312 28.601 153.723 28.601 154.423ZM30.0675 157.922C30.0675 157 29.4009 156.178 28.5788 156.034C29.3231 155.767 29.8897 155.2 29.8897 154.267C29.8897 153.178 29.0232 152.279 27.39 152.279H24.4458V160H27.5344C29.112 160 30.0675 159.1 30.0675 157.922Z" fill="#C2C8CF"/>
<path d="M8.67983 179.893H15.0916V178.88H10.506C12.2256 177.481 14.8116 175.441 14.8116 173.042C14.8116 171.256 13.6386 170.189 11.8257 170.189C10.0928 170.189 8.7998 171.256 8.71982 173.308H9.89286C9.94618 172.095 10.586 171.229 11.839 171.229C13.1454 171.229 13.6119 172.029 13.6119 173.095C13.6119 175.068 11.2125 176.987 8.67983 179.027V179.893ZM16.8404 170.349V175.788H17.9868C18.3067 175.028 19.0132 174.521 19.9863 174.521C21.3859 174.521 22.0924 175.321 22.0924 176.694C22.0924 178.014 21.4392 179 19.9729 179C18.8399 179 18.0534 178.4 17.8268 177.387H16.6404C16.8804 178.947 18.0401 180.027 19.9596 180.027C22.2124 180.027 23.2521 178.534 23.2521 176.668C23.2521 175.175 22.5056 173.482 20.1596 173.482C19.2131 173.482 18.36 173.908 17.9601 174.455V171.415H22.6389V170.349H16.8404ZM25.2107 170.349V175.788H26.3571C26.677 175.028 27.3835 174.521 28.3566 174.521C29.7562 174.521 30.4627 175.321 30.4627 176.694C30.4627 178.014 29.8095 179 28.3432 179C27.2102 179 26.4237 178.4 26.1971 177.387H25.0107C25.2507 178.947 26.4104 180.027 28.3299 180.027C30.5827 180.027 31.6224 178.534 31.6224 176.668C31.6224 175.175 30.8759 173.482 28.5299 173.482C27.5834 173.482 26.7303 173.908 26.3304 174.455V171.415H31.0092V170.349H25.2107ZM32.3813 181.906H33.1944L34.6874 178.32H33.3544L32.3813 181.906ZM40.3905 180H41.6169V170.362H39.1109V171.469H40.3905V180ZM44.1404 177.414C44.2737 178.827 45.2068 180.013 47.1264 180.013C49.6591 180.013 50.3922 178.214 50.3922 175.001C50.3922 172.015 49.6324 170.176 47.0197 170.176C44.9402 170.176 43.8472 171.509 43.8472 173.348C43.8472 175.388 45.1669 176.494 46.9397 176.494C47.9795 176.494 48.9392 176.028 49.3258 175.215C49.3658 178.04 48.606 179 47.193 179C46.0733 179 45.4335 178.414 45.2602 177.414H44.1404ZM47.1397 175.468C45.7001 175.468 45.0069 174.561 45.0069 173.322C45.0069 172.042 45.7934 171.189 47.0464 171.189C48.4327 171.189 49.1792 172.109 49.1792 173.415C49.1792 174.708 48.2994 175.468 47.1397 175.468ZM52.5368 177.414C52.6701 178.827 53.6032 180.013 55.5227 180.013C58.0554 180.013 58.7886 178.214 58.7886 175.001C58.7886 172.015 58.0287 170.176 55.4161 170.176C53.3366 170.176 52.2435 171.509 52.2435 173.348C52.2435 175.388 53.5632 176.494 55.3361 176.494C56.3758 176.494 57.3356 176.028 57.7222 175.215C57.7621 178.04 57.0023 179 55.5894 179C54.4696 179 53.8298 178.414 53.6565 177.414H52.5368ZM55.536 175.468C54.0964 175.468 53.4032 174.561 53.4032 173.322C53.4032 172.042 54.1897 171.189 55.4427 171.189C56.829 171.189 57.5755 172.109 57.5755 173.415C57.5755 174.708 56.6957 175.468 55.536 175.468ZM59.6401 181.906H60.4532L61.9462 178.32H60.6132L59.6401 181.906ZM71.3284 180H72.5281V177.854H73.8611V176.801H72.5281V170.456H71.0752L66.3963 176.934V177.854H71.3284V180ZM67.796 176.801L71.3818 171.722V176.801H67.796ZM79.7118 180H80.9115V177.854H82.2445V176.801H80.9115V170.456H79.4585L74.7797 176.934V177.854H79.7118V180ZM76.1793 176.801L79.7651 171.722V176.801H76.1793Z" fill="#5D6B7E"/>
</svg>
