<svg width="112" height="218" viewBox="0 0 112 218" fill="none" xmlns="http://www.w3.org/2000/svg">
<rect y="100" width="112" height="94" fill="#F9FAFA"/>
<path d="M0 4C0 1.79086 1.79086 0 4 0H108C110.209 0 112 1.79086 112 4V100H0V4Z" fill="#FFE9AB"/>
<path d="M13.9105 109.267V115.022L10.0998 109.267H8.83325V117H10.0998V111.234L13.9105 117H15.1771V109.267H13.9105ZM22.0509 117H23.3841L20.6177 109.267H19.1511L16.3848 117H17.7068L18.2623 115.422H21.4954L22.0509 117ZM21.1398 114.389H18.6179L19.8844 110.801L21.1398 114.389ZM24.5869 117H25.8534V111.712L28.2199 117H29.0975L31.4529 111.712V117H32.7194V109.279H31.364L28.6643 115.333L25.9534 109.279H24.5869V117ZM38.6503 109.267H34.3841V117H38.6503V115.967H35.6506V113.6H38.317V112.567H35.6506V110.301H38.6503V109.267Z" fill="#C2C8CF"/>
<path d="M8.57319 132.348C8.57319 135.134 10.6127 137.08 13.212 137.08C15.2249 137.08 16.8245 136.08 17.5176 134.294H16.0647C15.5581 135.4 14.5717 136.027 13.212 136.027C11.2659 136.027 9.81288 134.614 9.81288 132.348C9.81288 130.068 11.2659 128.655 13.212 128.655C14.5717 128.655 15.5581 129.282 16.0647 130.402H17.5176C16.8245 128.602 15.2249 127.589 13.212 127.589C10.6127 127.589 8.57319 129.562 8.57319 132.348ZM18.8701 133.321C18.8701 135.587 20.3764 137.12 22.3226 137.12C23.6689 137.12 24.6153 136.427 25.0552 135.64V137H26.2816V129.695H25.0552V131.028C24.6287 130.268 23.6956 129.575 22.3359 129.575C20.3764 129.575 18.8701 131.041 18.8701 133.321ZM25.0552 133.334C25.0552 135.054 23.9088 136.054 22.5758 136.054C21.2428 136.054 20.1098 135.04 20.1098 133.321C20.1098 131.601 21.2428 130.628 22.5758 130.628C23.9088 130.628 25.0552 131.641 25.0552 133.334ZM29.5445 131.041V129.695H28.3315V140.466H29.5445V135.654C29.9977 136.4 30.9442 137.12 32.2772 137.12C34.2367 137.12 35.743 135.587 35.743 133.321C35.743 131.041 34.2367 129.575 32.2772 129.575C30.9442 129.575 29.9844 130.268 29.5445 131.041ZM34.5033 133.321C34.5033 135.04 33.3702 136.054 32.0239 136.054C30.7042 136.054 29.5445 135.054 29.5445 133.334C29.5445 131.641 30.7042 130.628 32.0239 130.628C33.3702 130.628 34.5033 131.601 34.5033 133.321ZM40.4455 130.602C41.6986 130.602 42.765 131.388 42.7516 132.814H38.1394C38.2727 131.388 39.2592 130.602 40.4455 130.602ZM43.858 134.747H42.5517C42.2851 135.534 41.5919 136.094 40.4989 136.094C39.2592 136.094 38.2194 135.28 38.1261 133.801H43.9647C43.9913 133.548 44.0046 133.334 44.0046 133.068C44.0046 131.068 42.6183 129.575 40.4989 129.575C38.3661 129.575 36.8864 131.028 36.8864 133.334C36.8864 135.654 38.4194 137.12 40.4989 137.12C42.3117 137.12 43.4848 136.08 43.858 134.747ZM55.1048 137H56.3178V127.709H55.1048V131.788H50.3726V127.709H49.1596V137H50.3726V132.788H55.1048V137ZM65.3076 133.334C65.3076 131.028 63.6947 129.575 61.6152 129.575C59.5491 129.575 57.9228 131.028 57.9228 133.334C57.9228 135.654 59.4958 137.12 61.5619 137.12C63.6414 137.12 65.3076 135.654 65.3076 133.334ZM59.1625 133.334C59.1625 131.495 60.3222 130.628 61.6019 130.628C62.8549 130.628 64.068 131.495 64.068 133.334C64.068 135.187 62.8283 136.054 61.5619 136.054C60.2956 136.054 59.1625 135.187 59.1625 133.334ZM72.2479 137H73.4476V132.694C73.4476 130.602 72.1546 129.562 70.4617 129.562C69.4753 129.562 68.5955 129.975 68.1156 130.735V129.695H66.9026V137H68.1156V132.961C68.1156 131.388 68.9687 130.615 70.2084 130.615C71.4348 130.615 72.2479 131.375 72.2479 132.868V137ZM78.535 130.602C79.788 130.602 80.8544 131.388 80.8411 132.814H76.2289C76.3622 131.388 77.3486 130.602 78.535 130.602ZM81.9474 134.747H80.6411C80.3745 135.534 79.6813 136.094 78.5883 136.094C77.3486 136.094 76.3089 135.28 76.2155 133.801H82.0541C82.0807 133.548 82.0941 133.334 82.0941 133.068C82.0941 131.068 80.7078 129.575 78.5883 129.575C76.4555 129.575 74.9759 131.028 74.9759 133.334C74.9759 135.654 76.5088 137.12 78.5883 137.12C80.4012 137.12 81.5742 136.08 81.9474 134.747ZM86.4679 135.614L84.1751 129.695H82.8288L85.7747 136.92L84.3351 140.439H85.5881L89.987 129.695H88.734L86.4679 135.614Z" fill="#5D6B7E"/>
<path d="M13.7328 160H14.9993V152.279H13.7328V155.589H10.0998V152.279H8.83325V160H10.0998V156.623H13.7328V160ZM20.9329 152.267H16.6667V160H20.9329V158.967H17.9332V156.6H20.5996V155.567H17.9332V153.301H20.9329V152.267ZM27.0147 160H28.4368L26.037 156.145L28.4479 152.279H27.0369L25.3926 155.1L23.6372 152.279H22.2152L24.626 156.145L22.2263 160H23.6372L25.2704 157.2L27.0147 160Z" fill="#C2C8CF"/>
<path d="M9.02641 180H10.2394V175.814H13.5186V174.828H10.2394V171.695H14.2784V170.709H9.02641V180ZM15.7435 180H16.9565V175.814H20.2357V174.828H16.9565V171.695H20.9955V170.709H15.7435V180ZM27.4593 170.696H22.4606V180H27.4593V179H23.6736V175.801H27.0594V174.801H23.6736V171.695H27.4593V170.696ZM29.5347 177.414C29.668 178.827 30.6011 180.013 32.5206 180.013C35.0533 180.013 35.7865 178.214 35.7865 175.001C35.7865 172.015 35.0267 170.176 32.414 170.176C30.3345 170.176 29.2415 171.509 29.2415 173.348C29.2415 175.388 30.5611 176.494 32.334 176.494C33.3738 176.494 34.3335 176.028 34.7201 175.215C34.7601 178.04 34.0003 179 32.5873 179C31.4676 179 30.8277 178.414 30.6544 177.414H29.5347ZM32.534 175.468C31.0943 175.468 30.4012 174.561 30.4012 173.322C30.4012 172.042 31.1876 171.189 32.4407 171.189C33.827 171.189 34.5735 172.109 34.5735 173.415C34.5735 174.708 33.6937 175.468 32.534 175.468ZM43.9296 180H45.2092L41.8634 170.762H40.4638L37.1046 180H38.3843L39.1308 177.934H43.1831L43.9296 180ZM42.8365 176.947H39.4773L41.1569 172.255L42.8365 176.947ZM51.9519 177.387C51.9519 178.4 51.2321 179 50.0324 179H47.8863V175.721H49.9924C51.1788 175.721 51.9519 176.361 51.9519 177.387ZM51.712 173.215C51.712 174.161 51.0588 174.721 49.9258 174.721H47.8863V171.709H49.8991C51.0855 171.709 51.712 172.295 51.712 173.215ZM53.165 177.507C53.165 176.361 52.3385 175.388 51.3254 175.215C52.2185 174.921 52.9517 174.241 52.9517 173.068C52.9517 171.775 51.9653 170.709 50.0057 170.709H46.6732V180H50.139C52.0586 180 53.165 178.907 53.165 177.507Z" fill="#5D6B7E"/>
<path d="M0 194H112V214C112 216.209 110.209 218 108 218H4C1.79086 218 0 216.209 0 214V194Z" fill="#EDEFF1"/>
<path d="M10.7331 207.2V210H11.9996V207.2L14.5549 202.279H13.155L11.3663 206.067L9.57762 202.279H8.16665L10.7331 207.2ZM19.8262 202.267H15.56V210H19.8262V208.967H16.8265V206.6H19.4929V205.567H16.8265V203.301H19.8262V202.267ZM21.3862 202.279V210H25.2636V208.978H22.6528V202.279H21.3862ZM26.3228 202.279V210H30.2002V208.978H27.5894V202.279H26.3228ZM38.7253 206.123C38.7253 203.812 36.981 202.179 34.7813 202.179C32.6037 202.179 30.8372 203.812 30.8372 206.123C30.8372 208.445 32.6037 210.078 34.7813 210.078C36.981 210.078 38.7253 208.445 38.7253 206.123ZM32.1371 206.123C32.1371 204.378 33.2481 203.29 34.7813 203.29C36.3144 203.29 37.4254 204.378 37.4254 206.123C37.4254 207.867 36.3144 208.978 34.7813 208.978C33.2481 208.978 32.1371 207.867 32.1371 206.123ZM41.5381 210.011L42.9602 210L44.6823 204.156L46.3043 210H47.7375L50.0262 202.279H48.6708L47.0598 208.533L45.4489 202.279H44.0268L42.2936 208.567L40.6938 202.279H39.3495L41.5381 210.011ZM51.7707 210H53.0484V201.901H50.7375V203.056H51.7707V210ZM54.7883 205.845C54.7883 208.2 55.4104 209.978 57.6769 209.978C59.9433 209.978 60.5655 208.2 60.5655 205.845C60.5655 203.534 59.9433 201.756 57.6769 201.756C55.4104 201.756 54.7883 203.534 54.7883 205.845ZM59.3212 205.845C59.3212 207.434 59.1545 208.822 57.6769 208.822C56.1993 208.822 56.0326 207.434 56.0326 205.845C56.0326 204.334 56.1993 202.912 57.6769 202.912C59.1545 202.912 59.3212 204.334 59.3212 205.845ZM61.9056 205.845C61.9056 208.2 62.5278 209.978 64.7942 209.978C67.0607 209.978 67.6828 208.2 67.6828 205.845C67.6828 203.534 67.0607 201.756 64.7942 201.756C62.5278 201.756 61.9056 203.534 61.9056 205.845ZM66.4385 205.845C66.4385 207.434 66.2719 208.822 64.7942 208.822C63.3166 208.822 63.15 207.434 63.15 205.845C63.15 204.334 63.3166 202.912 64.7942 202.912C66.2719 202.912 66.4385 204.334 66.4385 205.845Z" fill="#9AA3AF"/>
</svg>
