<svg width="112" height="218" viewBox="0 0 112 218" fill="none" xmlns="http://www.w3.org/2000/svg">
<rect y="100" width="112" height="94" fill="#F9FAFA"/>
<path d="M0 4C0 1.79086 1.79086 0 4 0H108C110.209 0 112 1.79086 112 4V100H0V4Z" fill="#E68714"/>
<path d="M13.9105 109.267V115.022L10.0998 109.267H8.83325V117H10.0998V111.234L13.9105 117H15.1771V109.267H13.9105ZM22.0509 117H23.3841L20.6177 109.267H19.1511L16.3848 117H17.7068L18.2623 115.422H21.4954L22.0509 117ZM21.1398 114.389H18.6179L19.8844 110.801L21.1398 114.389ZM24.5869 117H25.8534V111.712L28.2199 117H29.0975L31.4529 111.712V117H32.7194V109.279H31.364L28.6643 115.333L25.9534 109.279H24.5869V117ZM38.6503 109.267H34.3841V117H38.6503V115.967H35.6506V113.6H38.317V112.567H35.6506V110.301H38.6503V109.267Z" fill="#C2C8CF"/>
<path d="M14.9716 137H16.1846V127.709H14.9716V131.788H10.2394V127.709H9.02641V137H10.2394V132.788H14.9716V137ZM17.7896 133.321C17.7896 135.587 19.2959 137.12 21.2421 137.12C22.5884 137.12 23.5349 136.427 23.9748 135.64V137H25.2011V129.695H23.9748V131.028C23.5482 130.268 22.6151 129.575 21.2554 129.575C19.2959 129.575 17.7896 131.041 17.7896 133.321ZM23.9748 133.334C23.9748 135.054 22.8284 136.054 21.4954 136.054C20.1624 136.054 19.0293 135.04 19.0293 133.321C19.0293 131.601 20.1624 130.628 21.4954 130.628C22.8284 130.628 23.9748 131.641 23.9748 133.334ZM26.7978 133.334C26.7978 135.654 28.2774 137.12 30.3569 137.12C32.1698 137.12 33.3562 136.107 33.7294 134.654H32.4231C32.1565 135.574 31.4366 136.094 30.3569 136.094C29.0239 136.094 28.0375 135.147 28.0375 133.334C28.0375 131.548 29.0239 130.602 30.3569 130.602C31.4366 130.602 32.1698 131.161 32.4231 132.041H33.7294C33.3562 130.508 32.1698 129.575 30.3569 129.575C28.2774 129.575 26.7978 131.041 26.7978 133.334ZM35.348 137H36.561V129.695H35.348V137ZM35.9745 128.509C36.4144 128.509 36.7743 128.149 36.7743 127.682C36.7743 127.216 36.4144 126.856 35.9745 126.856C35.5079 126.856 35.148 127.216 35.148 127.682C35.148 128.149 35.5079 128.509 35.9745 128.509ZM41.7343 130.602C42.9873 130.602 44.0537 131.388 44.0404 132.814H39.4282C39.5615 131.388 40.5479 130.602 41.7343 130.602ZM45.1468 134.747H43.8404C43.5738 135.534 42.8807 136.094 41.7876 136.094C40.5479 136.094 39.5082 135.28 39.4149 133.801H45.2534C45.2801 133.548 45.2934 133.334 45.2934 133.068C45.2934 131.068 43.9071 129.575 41.7876 129.575C39.6548 129.575 38.1752 131.028 38.1752 133.334C38.1752 135.654 39.7081 137.12 41.7876 137.12C43.6005 137.12 44.7735 136.08 45.1468 134.747ZM52.2399 137H53.4396V132.694C53.4396 130.602 52.1466 129.562 50.4537 129.562C49.4672 129.562 48.5875 129.975 48.1076 130.735V129.695H46.8945V137H48.1076V132.961C48.1076 131.388 48.9607 130.615 50.2004 130.615C51.4267 130.615 52.2399 131.375 52.2399 132.868V137ZM54.9678 133.321C54.9678 135.587 56.4741 137.12 58.4336 137.12C59.7666 137.12 60.7131 136.44 61.153 135.627V137H62.3793V127.136H61.153V131.001C60.6464 130.162 59.5933 129.575 58.447 129.575C56.4741 129.575 54.9678 131.041 54.9678 133.321ZM61.153 133.334C61.153 135.054 60.0066 136.054 58.6736 136.054C57.3406 136.054 56.2075 135.04 56.2075 133.321C56.2075 131.601 57.3406 130.628 58.6736 130.628C60.0066 130.628 61.153 131.641 61.153 133.334ZM63.976 133.321C63.976 135.587 65.4823 137.12 67.4285 137.12C68.7748 137.12 69.7212 136.427 70.1611 135.64V137H71.3875V129.695H70.1611V131.028C69.7346 130.268 68.8015 129.575 67.4418 129.575C65.4823 129.575 63.976 131.041 63.976 133.321ZM70.1611 133.334C70.1611 135.054 69.0147 136.054 67.6817 136.054C66.3487 136.054 65.2157 135.04 65.2157 133.321C65.2157 131.601 66.3487 130.628 67.6817 130.628C69.0147 130.628 70.1611 131.641 70.1611 133.334Z" fill="#5D6B7E"/>
<path d="M13.7328 160H14.9993V152.279H13.7328V155.589H10.0998V152.279H8.83325V160H10.0998V156.623H13.7328V160ZM20.9329 152.267H16.6667V160H20.9329V158.967H17.9332V156.6H20.5996V155.567H17.9332V153.301H20.9329V152.267ZM27.0147 160H28.4368L26.037 156.145L28.4479 152.279H27.0369L25.3926 155.1L23.6372 152.279H22.2152L24.626 156.145L22.2263 160H23.6372L25.2704 157.2L27.0147 160Z" fill="#C2C8CF"/>
<path d="M14.0252 170.696H9.02641V180H14.0252V179H10.2394V175.801H13.6253V174.801H10.2394V171.695H14.0252V170.696ZM22.1524 172.655C21.9924 171.309 21.0593 170.162 19.2198 170.162C16.7804 170.162 15.8073 172.029 15.8073 175.055C15.8073 177.974 16.4871 180.027 19.3398 180.027C21.4459 180.027 22.4856 178.587 22.4856 176.827C22.4856 174.801 21.2726 173.615 19.4731 173.615C18.3267 173.615 17.2736 174.148 16.8604 175.095C16.8471 172.229 17.6735 171.176 19.2065 171.176C20.2995 171.176 20.8461 171.722 21.0327 172.655H22.1524ZM19.2198 174.641C20.6061 174.641 21.3126 175.508 21.3126 176.867C21.3126 178.174 20.5261 179.014 19.2731 179.014C17.7535 179.014 17.007 178.014 17.007 176.734C17.007 175.295 18.1134 174.641 19.2198 174.641ZM25.8817 174.988C24.8019 175.308 24.0955 176.188 24.0955 177.401C24.0955 179.147 25.4684 180.267 27.4946 180.267C29.5341 180.267 30.9204 179.147 30.9204 177.401C30.9204 176.201 30.2139 175.321 29.1209 174.988C30.0673 174.615 30.6671 173.815 30.6671 172.775C30.6671 171.375 29.5874 170.216 27.4946 170.216C25.4018 170.216 24.3354 171.362 24.3354 172.775C24.3354 173.855 24.8953 174.601 25.8817 174.988ZM27.4946 174.588C26.3216 174.588 25.5084 173.935 25.5084 172.935C25.5084 171.802 26.3082 171.229 27.4946 171.229C28.7076 171.229 29.4941 171.815 29.4941 172.922C29.4941 173.922 28.681 174.588 27.4946 174.588ZM27.4946 175.521C28.761 175.521 29.7207 176.121 29.7207 177.361C29.7207 178.48 28.8676 179.254 27.4946 179.254C26.1216 179.254 25.2552 178.494 25.2552 177.361C25.2552 176.081 26.2549 175.521 27.4946 175.521ZM32.1449 170.389V171.429H37.2903L33.5312 180H34.7576L38.4633 171.309V170.389H32.1449ZM40.7681 180H41.9944V170.362H39.4884V171.469H40.7681V180ZM48.7169 180H49.9166V177.854H51.2496V176.801H49.9166V170.456H48.4636L43.7848 176.934V177.854H48.7169V180ZM45.1845 176.801L48.7702 171.722V176.801H45.1845Z" fill="#5D6B7E"/>
<path d="M0 194H112V214C112 216.209 110.209 218 108 218H4C1.79086 218 0 216.209 0 214V194Z" fill="#EDEFF1"/>
<path d="M10.7331 207.2V210H11.9996V207.2L14.5549 202.279H13.155L11.3663 206.067L9.57762 202.279H8.16665L10.7331 207.2ZM19.8262 202.267H15.56V210H19.8262V208.967H16.8265V206.6H19.4929V205.567H16.8265V203.301H19.8262V202.267ZM21.3862 202.279V210H25.2636V208.978H22.6528V202.279H21.3862ZM26.3228 202.279V210H30.2002V208.978H27.5894V202.279H26.3228ZM38.7253 206.123C38.7253 203.812 36.981 202.179 34.7813 202.179C32.6037 202.179 30.8372 203.812 30.8372 206.123C30.8372 208.445 32.6037 210.078 34.7813 210.078C36.981 210.078 38.7253 208.445 38.7253 206.123ZM32.1371 206.123C32.1371 204.378 33.2481 203.29 34.7813 203.29C36.3144 203.29 37.4254 204.378 37.4254 206.123C37.4254 207.867 36.3144 208.978 34.7813 208.978C33.2481 208.978 32.1371 207.867 32.1371 206.123ZM41.5381 210.011L42.9602 210L44.6823 204.156L46.3043 210H47.7375L50.0262 202.279H48.6708L47.0598 208.533L45.4489 202.279H44.0268L42.2936 208.567L40.6938 202.279H39.3495L41.5381 210.011ZM56.4258 203.778C56.2925 202.701 55.5037 201.701 53.926 201.701C51.904 201.701 51.0597 203.234 51.0597 205.767C51.0597 208.345 51.6707 210 54.026 210C55.7592 210 56.6813 208.833 56.6813 207.3C56.6813 205.612 55.6481 204.634 54.1927 204.634C53.3483 204.634 52.5484 204.989 52.1484 205.656C52.1818 203.534 52.7706 202.756 53.9149 202.756C54.7149 202.756 55.1037 203.123 55.2592 203.778H56.4258ZM53.9149 205.7C54.9815 205.7 55.4703 206.389 55.4703 207.356C55.4703 208.311 54.8926 208.945 53.9594 208.945C52.8817 208.945 52.2929 208.278 52.2929 207.278C52.2929 206.2 53.0817 205.7 53.9149 205.7ZM58.0323 205.845C58.0323 208.2 58.6545 209.978 60.9209 209.978C63.1874 209.978 63.8095 208.2 63.8095 205.845C63.8095 203.534 63.1874 201.756 60.9209 201.756C58.6545 201.756 58.0323 203.534 58.0323 205.845ZM62.5652 205.845C62.5652 207.434 62.3986 208.822 60.9209 208.822C59.4433 208.822 59.2766 207.434 59.2766 205.845C59.2766 204.334 59.4433 202.912 60.9209 202.912C62.3986 202.912 62.5652 204.334 62.5652 205.845ZM65.1497 205.845C65.1497 208.2 65.7718 209.978 68.0383 209.978C70.3047 209.978 70.9269 208.2 70.9269 205.845C70.9269 203.534 70.3047 201.756 68.0383 201.756C65.7718 201.756 65.1497 203.534 65.1497 205.845ZM69.6825 205.845C69.6825 207.434 69.5159 208.822 68.0383 208.822C66.5606 208.822 66.394 207.434 66.394 205.845C66.394 204.334 66.5606 202.912 68.0383 202.912C69.5159 202.912 69.6825 204.334 69.6825 205.845Z" fill="#9AA3AF"/>
</svg>
