<svg width="112" height="218" viewBox="0 0 112 218" fill="none" xmlns="http://www.w3.org/2000/svg">
<rect y="100" width="112" height="94" fill="#F9FAFA"/>
<path d="M0 4C0 1.79086 1.79086 0 4 0H108C110.209 0 112 1.79086 112 4V100H0V4Z" fill="#FFD256"/>
<path d="M13.9105 109.267V115.022L10.0998 109.267H8.83325V117H10.0998V111.234L13.9105 117H15.1771V109.267H13.9105ZM22.0509 117H23.3841L20.6177 109.267H19.1511L16.3848 117H17.7068L18.2623 115.422H21.4954L22.0509 117ZM21.1398 114.389H18.6179L19.8844 110.801L21.1398 114.389ZM24.5869 117H25.8534V111.712L28.2199 117H29.0975L31.4529 111.712V117H32.7194V109.279H31.364L28.6643 115.333L25.9534 109.279H24.5869V117ZM38.6503 109.267H34.3841V117H38.6503V115.967H35.6506V113.6H38.317V112.567H35.6506V110.301H38.6503V109.267Z" fill="#C2C8CF"/>
<path d="M9.02641 137H10.2394V130.108L13.3187 137H14.1718L17.2377 130.122V137H18.4507V127.776H17.1577L13.7452 135.4L10.3328 127.776H9.02641V137ZM26.9863 129.695H25.7733V133.707C25.7733 135.28 24.9335 136.054 23.6805 136.054C22.4541 136.054 21.641 135.294 21.641 133.814V129.695H20.4413V133.974C20.4413 136.067 21.7609 137.107 23.4405 137.107C24.4136 137.107 25.3067 136.68 25.7733 135.92V137H26.9863V129.695ZM34.2864 135.014C34.2331 132.401 29.9942 133.348 29.9942 131.615C29.9942 131.028 30.5274 130.602 31.4205 130.602C32.3936 130.602 32.9534 131.135 33.0068 131.868H34.2198C34.1398 130.442 33.0734 129.575 31.4605 129.575C29.8342 129.575 28.7812 130.495 28.7812 131.615C28.7812 134.334 33.1001 133.388 33.1001 135.014C33.1001 135.614 32.5669 136.094 31.6071 136.094C30.5807 136.094 29.9542 135.56 29.8875 134.854H28.6345C28.7145 136.187 29.9142 137.12 31.6204 137.12C33.2334 137.12 34.2864 136.214 34.2864 135.014ZM36.2654 135C36.2654 136.467 36.9986 137 38.2916 137H39.3847V135.974H38.4915C37.7451 135.974 37.4785 135.72 37.4785 135V130.695H39.3847V129.695H37.4785V127.856H36.2654V129.695H35.319V130.695H36.2654V135ZM40.4012 133.321C40.4012 135.587 41.9075 137.12 43.8536 137.12C45.2 137.12 46.1464 136.427 46.5863 135.64V137H47.8126V129.695H46.5863V131.028C46.1597 130.268 45.2266 129.575 43.867 129.575C41.9075 129.575 40.4012 131.041 40.4012 133.321ZM46.5863 133.334C46.5863 135.054 45.4399 136.054 44.1069 136.054C42.7739 136.054 41.6409 135.04 41.6409 133.321C41.6409 131.601 42.7739 130.628 44.1069 130.628C45.4399 130.628 46.5863 131.641 46.5863 133.334ZM51.0756 133.028C51.0756 131.335 51.9554 130.815 53.1151 130.815H53.435V129.562C52.2753 129.562 51.4888 130.068 51.0756 130.882V129.695H49.8626V137H51.0756V133.028ZM54.382 133.321C54.382 135.587 55.8883 137.12 57.8478 137.12C59.1808 137.12 60.1273 136.44 60.5672 135.627V137H61.7935V127.136H60.5672V131.001C60.0606 130.162 59.0076 129.575 57.8612 129.575C55.8883 129.575 54.382 131.041 54.382 133.321ZM60.5672 133.334C60.5672 135.054 59.4208 136.054 58.0878 136.054C56.7548 136.054 55.6217 135.04 55.6217 133.321C55.6217 131.601 56.7548 130.628 58.0878 130.628C59.4208 130.628 60.5672 131.641 60.5672 133.334Z" fill="#5D6B7E"/>
<path d="M13.7328 160H14.9993V152.279H13.7328V155.589H10.0998V152.279H8.83325V160H10.0998V156.623H13.7328V160ZM20.9329 152.267H16.6667V160H20.9329V158.967H17.9332V156.6H20.5996V155.567H17.9332V153.301H20.9329V152.267ZM27.0147 160H28.4368L26.037 156.145L28.4479 152.279H27.0369L25.3926 155.1L23.6372 152.279H22.2152L24.626 156.145L22.2263 160H23.6372L25.2704 157.2L27.0147 160Z" fill="#C2C8CF"/>
<path d="M9.02641 180H10.2394V175.814H13.5186V174.828H10.2394V171.695H14.2784V170.709H9.02641V180ZM15.7435 180H16.9565V175.814H20.2357V174.828H16.9565V171.695H20.9955V170.709H15.7435V180ZM25.3532 170.709H22.4606V180H25.3532C28.4057 180 30.2853 178.254 30.2853 175.374C30.2853 172.495 28.4057 170.709 25.3532 170.709ZM23.6736 179V171.695H25.3532C27.7792 171.695 29.0456 173.108 29.0456 175.374C29.0456 177.641 27.7792 179 25.3532 179H23.6736ZM31.5387 179.893H37.9504V178.88H33.3649C35.0845 177.481 37.6705 175.441 37.6705 173.042C37.6705 171.256 36.4975 170.189 34.6846 170.189C32.9517 170.189 31.6587 171.256 31.5787 173.308H32.7517C32.805 172.095 33.4449 171.229 34.6979 171.229C36.0042 171.229 36.4708 172.029 36.4708 173.095C36.4708 175.068 34.0714 176.987 31.5387 179.027V179.893ZM39.6993 170.349V175.788H40.8456C41.1656 175.028 41.8721 174.521 42.8451 174.521C44.2448 174.521 44.9513 175.321 44.9513 176.694C44.9513 178.014 44.2981 179 42.8318 179C41.6988 179 40.9123 178.4 40.6857 177.387H39.4993C39.7393 178.947 40.899 180.027 42.8185 180.027C45.0713 180.027 46.111 178.534 46.111 176.668C46.111 175.175 45.3645 173.482 43.0184 173.482C42.072 173.482 41.2189 173.908 40.819 174.455V171.415H45.4978V170.349H39.6993ZM54.2147 172.655C54.0547 171.309 53.1216 170.162 51.2821 170.162C48.8427 170.162 47.8696 172.029 47.8696 175.055C47.8696 177.974 48.5494 180.027 51.4021 180.027C53.5082 180.027 54.5479 178.587 54.5479 176.827C54.5479 174.801 53.3349 173.615 51.5354 173.615C50.389 173.615 49.3359 174.148 48.9227 175.095C48.9094 172.229 49.7358 171.176 51.2688 171.176C52.3618 171.176 52.9084 171.722 53.095 172.655H54.2147ZM51.2821 174.641C52.6684 174.641 53.3749 175.508 53.3749 176.867C53.3749 178.174 52.5884 179.014 51.3354 179.014C49.8158 179.014 49.0693 178.014 49.0693 176.734C49.0693 175.295 50.1757 174.641 51.2821 174.641Z" fill="#5D6B7E"/>
<path d="M0 194H112V214C112 216.209 110.209 218 108 218H4C1.79086 218 0 216.209 0 214V194Z" fill="#EDEFF1"/>
<path d="M10.7331 207.2V210H11.9996V207.2L14.5549 202.279H13.155L11.3663 206.067L9.57762 202.279H8.16665L10.7331 207.2ZM19.8262 202.267H15.56V210H19.8262V208.967H16.8265V206.6H19.4929V205.567H16.8265V203.301H19.8262V202.267ZM21.3862 202.279V210H25.2636V208.978H22.6528V202.279H21.3862ZM26.3228 202.279V210H30.2002V208.978H27.5894V202.279H26.3228ZM38.7253 206.123C38.7253 203.812 36.981 202.179 34.7813 202.179C32.6037 202.179 30.8372 203.812 30.8372 206.123C30.8372 208.445 32.6037 210.078 34.7813 210.078C36.981 210.078 38.7253 208.445 38.7253 206.123ZM32.1371 206.123C32.1371 204.378 33.2481 203.29 34.7813 203.29C36.3144 203.29 37.4254 204.378 37.4254 206.123C37.4254 207.867 36.3144 208.978 34.7813 208.978C33.2481 208.978 32.1371 207.867 32.1371 206.123ZM41.5381 210.011L42.9602 210L44.6823 204.156L46.3043 210H47.7375L50.0262 202.279H48.6708L47.0598 208.533L45.4489 202.279H44.0268L42.2936 208.567L40.6938 202.279H39.3495L41.5381 210.011ZM50.8819 203.901H52.1151C52.1929 203.334 52.604 202.801 53.4928 202.801C54.3593 202.801 54.8148 203.267 54.8148 203.967C54.8148 204.834 54.1149 205.167 52.9706 205.178H52.6706V206.223H52.9595C54.2816 206.223 54.9704 206.589 54.9704 207.656C54.9704 208.411 54.5038 208.989 53.5594 208.989C52.604 208.989 52.0485 208.411 51.9929 207.656H50.7708C50.8486 209.245 52.0373 210.044 53.5705 210.044C55.2592 210.044 56.1703 209.067 56.1703 207.778C56.1703 206.656 55.6259 205.956 54.7815 205.7V205.656C55.4148 205.445 56.0258 204.789 56.0258 203.823C56.0258 202.645 55.1481 201.712 53.5372 201.712C52.0596 201.712 50.9708 202.501 50.8819 203.901ZM57.5007 205.845C57.5007 208.2 58.1229 209.978 60.3893 209.978C62.6557 209.978 63.2779 208.2 63.2779 205.845C63.2779 203.534 62.6557 201.756 60.3893 201.756C58.1229 201.756 57.5007 203.534 57.5007 205.845ZM62.0336 205.845C62.0336 207.434 61.8669 208.822 60.3893 208.822C58.9117 208.822 58.745 207.434 58.745 205.845C58.745 204.334 58.9117 202.912 60.3893 202.912C61.8669 202.912 62.0336 204.334 62.0336 205.845ZM64.618 205.845C64.618 208.2 65.2402 209.978 67.5066 209.978C69.7731 209.978 70.3952 208.2 70.3952 205.845C70.3952 203.534 69.7731 201.756 67.5066 201.756C65.2402 201.756 64.618 203.534 64.618 205.845ZM69.1509 205.845C69.1509 207.434 68.9843 208.822 67.5066 208.822C66.029 208.822 65.8624 207.434 65.8624 205.845C65.8624 204.334 66.029 202.912 67.5066 202.912C68.9843 202.912 69.1509 204.334 69.1509 205.845Z" fill="#9AA3AF"/>
</svg>
