<svg width="112" height="218" viewBox="0 0 112 218" fill="none" xmlns="http://www.w3.org/2000/svg">
<rect y="100" width="112" height="94" fill="#F9FAFA"/>
<path d="M0 4C0 1.79086 1.79086 0 4 0H108C110.209 0 112 1.79086 112 4V100H0V4Z" fill="#FFDD80"/>
<path d="M13.9105 109.267V115.022L10.0998 109.267H8.83325V117H10.0998V111.234L13.9105 117H15.1771V109.267H13.9105ZM22.0509 117H23.3841L20.6177 109.267H19.1511L16.3848 117H17.7068L18.2623 115.422H21.4954L22.0509 117ZM21.1398 114.389H18.6179L19.8844 110.801L21.1398 114.389ZM24.5869 117H25.8534V111.712L28.2199 117H29.0975L31.4529 111.712V117H32.7194V109.279H31.364L28.6643 115.333L25.9534 109.279H24.5869V117ZM38.6503 109.267H34.3841V117H38.6503V115.967H35.6506V113.6H38.317V112.567H35.6506V110.301H38.6503V109.267Z" fill="#C2C8CF"/>
<path d="M15.0649 134.467C15.0649 131.028 10.0528 132.521 10.0528 130.122C10.0528 129.122 10.8393 128.602 11.839 128.629C12.9721 128.642 13.5586 129.349 13.6386 129.975H14.9716C14.825 128.562 13.6653 127.589 11.8924 127.589C10.0528 127.589 8.81313 128.629 8.81313 130.162C8.81313 133.614 13.8385 132.015 13.8385 134.521C13.8385 135.4 13.1454 136.067 11.9723 136.067C10.6793 136.067 10.1328 135.294 10.0528 134.521H8.75981C8.78647 136.054 10.1061 137.093 11.9723 137.093C13.9852 137.093 15.0649 135.787 15.0649 134.467ZM16.3968 133.321C16.3968 135.587 17.903 137.12 19.8492 137.12C21.1956 137.12 22.142 136.427 22.5819 135.64V137H23.8082V129.695H22.5819V131.028C22.1553 130.268 21.2222 129.575 19.8626 129.575C17.903 129.575 16.3968 131.041 16.3968 133.321ZM22.5819 133.334C22.5819 135.054 21.4355 136.054 20.1025 136.054C18.7695 136.054 17.6364 135.04 17.6364 133.321C17.6364 131.601 18.7695 130.628 20.1025 130.628C21.4355 130.628 22.5819 131.641 22.5819 133.334ZM25.8581 137H27.0712V127.136H25.8581V137ZM36.0702 133.334C36.0702 131.028 34.4572 129.575 32.3778 129.575C30.3116 129.575 28.6853 131.028 28.6853 133.334C28.6853 135.654 30.2583 137.12 32.3244 137.12C34.4039 137.12 36.0702 135.654 36.0702 133.334ZM29.925 133.334C29.925 131.495 31.0847 130.628 32.3644 130.628C33.6174 130.628 34.8305 131.495 34.8305 133.334C34.8305 135.187 33.5908 136.054 32.3244 136.054C31.0581 136.054 29.925 135.187 29.925 133.334ZM48.2091 137H49.4088V132.694C49.4088 130.602 48.1158 129.562 46.4496 129.562C45.3298 129.562 44.2901 130.135 43.8635 131.188C43.3837 130.095 42.3839 129.562 41.1842 129.562C40.2244 129.562 39.358 129.975 38.8781 130.748V129.695H37.6651V137H38.8781V132.974C38.8781 131.401 39.7179 130.615 40.9443 130.615C42.144 130.615 42.9438 131.375 42.9438 132.868V137H44.1435V132.974C44.1435 131.401 44.9833 130.615 46.2096 130.615C47.4093 130.615 48.2091 131.375 48.2091 132.868V137ZM51.3986 137H52.6117V129.695H51.3986V137ZM52.0251 128.509C52.465 128.509 52.8249 128.149 52.8249 127.682C52.8249 127.216 52.465 126.856 52.0251 126.856C51.5586 126.856 51.1987 127.216 51.1987 127.682C51.1987 128.149 51.5586 128.509 52.0251 128.509ZM57.7849 130.602C59.038 130.602 60.1044 131.388 60.091 132.814H55.4789C55.6122 131.388 56.5986 130.602 57.7849 130.602ZM61.1974 134.747H59.8911C59.6245 135.534 58.9313 136.094 57.8383 136.094C56.5986 136.094 55.5588 135.28 55.4655 133.801H61.3041C61.3307 133.548 61.3441 133.334 61.3441 133.068C61.3441 131.068 59.9577 129.575 57.8383 129.575C55.7055 129.575 54.2258 131.028 54.2258 133.334C54.2258 135.654 55.7588 137.12 57.8383 137.12C59.6511 137.12 60.8242 136.08 61.1974 134.747Z" fill="#5D6B7E"/>
<path d="M13.7328 160H14.9993V152.279H13.7328V155.589H10.0998V152.279H8.83325V160H10.0998V156.623H13.7328V160ZM20.9329 152.267H16.6667V160H20.9329V158.967H17.9332V156.6H20.5996V155.567H17.9332V153.301H20.9329V152.267ZM27.0147 160H28.4368L26.037 156.145L28.4479 152.279H27.0369L25.3926 155.1L23.6372 152.279H22.2152L24.626 156.145L22.2263 160H23.6372L25.2704 157.2L27.0147 160Z" fill="#C2C8CF"/>
<path d="M9.02641 180H10.2394V175.814H13.5186V174.828H10.2394V171.695H14.2784V170.709H9.02641V180ZM15.7435 180H16.9565V175.814H20.2357V174.828H16.9565V171.695H20.9955V170.709H15.7435V180ZM25.3532 170.709H22.4606V180H25.3532C28.4057 180 30.2853 178.254 30.2853 175.374C30.2853 172.495 28.4057 170.709 25.3532 170.709ZM23.6736 179V171.695H25.3532C27.7792 171.695 29.0456 173.108 29.0456 175.374C29.0456 177.641 27.7792 179 25.3532 179H23.6736ZM34.7779 170.709H31.8853V180H34.7779C37.8305 180 39.71 178.254 39.71 175.374C39.71 172.495 37.8305 170.709 34.7779 170.709ZM33.0983 179V171.695H34.7779C37.2039 171.695 38.4703 173.108 38.4703 175.374C38.4703 177.641 37.2039 179 34.7779 179H33.0983ZM42.8696 174.988C41.7899 175.308 41.0834 176.188 41.0834 177.401C41.0834 179.147 42.4564 180.267 44.4825 180.267C46.522 180.267 47.9084 179.147 47.9084 177.401C47.9084 176.201 47.2019 175.321 46.1088 174.988C47.0552 174.615 47.6551 173.815 47.6551 172.775C47.6551 171.375 46.5754 170.216 44.4825 170.216C42.3897 170.216 41.3233 171.362 41.3233 172.775C41.3233 173.855 41.8832 174.601 42.8696 174.988ZM44.4825 174.588C43.3095 174.588 42.4964 173.935 42.4964 172.935C42.4964 171.802 43.2962 171.229 44.4825 171.229C45.6956 171.229 46.482 171.815 46.482 172.922C46.482 173.922 45.6689 174.588 44.4825 174.588ZM44.4825 175.521C45.7489 175.521 46.7087 176.121 46.7087 177.361C46.7087 178.48 45.8555 179.254 44.4825 179.254C43.1096 179.254 42.2431 178.494 42.2431 177.361C42.2431 176.081 43.2429 175.521 44.4825 175.521ZM49.5194 175.081C49.5194 177.881 50.2126 180 52.8786 180C55.5312 180 56.2244 177.881 56.2244 175.081C56.2244 172.322 55.5312 170.216 52.8786 170.216C50.2126 170.216 49.5194 172.322 49.5194 175.081ZM55.0247 175.081C55.0247 177.161 54.7714 178.894 52.8786 178.894C50.9724 178.894 50.7191 177.161 50.7191 175.081C50.7191 173.082 50.9724 171.322 52.8786 171.322C54.7714 171.322 55.0247 173.082 55.0247 175.081Z" fill="#5D6B7E"/>
<path d="M0 194H112V214C112 216.209 110.209 218 108 218H4C1.79086 218 0 216.209 0 214V194Z" fill="#EDEFF1"/>
<path d="M10.7331 207.2V210H11.9996V207.2L14.5549 202.279H13.155L11.3663 206.067L9.57762 202.279H8.16665L10.7331 207.2ZM19.8262 202.267H15.56V210H19.8262V208.967H16.8265V206.6H19.4929V205.567H16.8265V203.301H19.8262V202.267ZM21.3862 202.279V210H25.2636V208.978H22.6528V202.279H21.3862ZM26.3228 202.279V210H30.2002V208.978H27.5894V202.279H26.3228ZM38.7253 206.123C38.7253 203.812 36.981 202.179 34.7813 202.179C32.6037 202.179 30.8372 203.812 30.8372 206.123C30.8372 208.445 32.6037 210.078 34.7813 210.078C36.981 210.078 38.7253 208.445 38.7253 206.123ZM32.1371 206.123C32.1371 204.378 33.2481 203.29 34.7813 203.29C36.3144 203.29 37.4254 204.378 37.4254 206.123C37.4254 207.867 36.3144 208.978 34.7813 208.978C33.2481 208.978 32.1371 207.867 32.1371 206.123ZM41.5381 210.011L42.9602 210L44.6823 204.156L46.3043 210H47.7375L50.0262 202.279H48.6708L47.0598 208.533L45.4489 202.279H44.0268L42.2936 208.567L40.6938 202.279H39.3495L41.5381 210.011ZM50.8041 209.889H56.2036V208.833H52.6817C53.9816 207.645 55.9814 206.145 55.9814 204.178C55.9814 202.723 55.0482 201.734 53.4039 201.734C51.9707 201.734 50.8375 202.59 50.793 204.345H52.0151C52.0485 203.434 52.5262 202.812 53.415 202.812C54.3593 202.812 54.726 203.39 54.726 204.234C54.726 205.823 52.7151 207.289 50.8041 208.967V209.889ZM57.3162 205.845C57.3162 208.2 57.9384 209.978 60.2048 209.978C62.4713 209.978 63.0934 208.2 63.0934 205.845C63.0934 203.534 62.4713 201.756 60.2048 201.756C57.9384 201.756 57.3162 203.534 57.3162 205.845ZM61.8491 205.845C61.8491 207.434 61.6825 208.822 60.2048 208.822C58.7272 208.822 58.5606 207.434 58.5606 205.845C58.5606 204.334 58.7272 202.912 60.2048 202.912C61.6825 202.912 61.8491 204.334 61.8491 205.845ZM64.4336 205.845C64.4336 208.2 65.0558 209.978 67.3222 209.978C69.5886 209.978 70.2108 208.2 70.2108 205.845C70.2108 203.534 69.5886 201.756 67.3222 201.756C65.0558 201.756 64.4336 203.534 64.4336 205.845ZM68.9665 205.845C68.9665 207.434 68.7998 208.822 67.3222 208.822C65.8446 208.822 65.6779 207.434 65.6779 205.845C65.6779 204.334 65.8446 202.912 67.3222 202.912C68.7998 202.912 68.9665 204.334 68.9665 205.845Z" fill="#9AA3AF"/>
</svg>
