<svg width="112" height="218" viewBox="0 0 112 218" fill="none" xmlns="http://www.w3.org/2000/svg">
<rect y="100" width="112" height="94" fill="#F9FAFA"/>
<path d="M0 4C0 1.79086 1.79086 0 4 0H108C110.209 0 112 1.79086 112 4V100H0V4Z" fill="#FFC72C"/>
<path d="M13.9105 109.267V115.022L10.0998 109.267H8.83325V117H10.0998V111.234L13.9105 117H15.1771V109.267H13.9105ZM22.0509 117H23.3841L20.6177 109.267H19.1511L16.3848 117H17.7068L18.2623 115.422H21.4954L22.0509 117ZM21.1398 114.389H18.6179L19.8844 110.801L21.1398 114.389ZM24.5869 117H25.8534V111.712L28.2199 117H29.0975L31.4529 111.712V117H32.7194V109.279H31.364L28.6643 115.333L25.9534 109.279H24.5869V117ZM38.6503 109.267H34.3841V117H38.6503V115.967H35.6506V113.6H38.317V112.567H35.6506V110.301H38.6503V109.267Z" fill="#C2C8CF"/>
<path d="M15.0649 134.467C15.0649 131.028 10.0528 132.521 10.0528 130.122C10.0528 129.122 10.8393 128.602 11.839 128.629C12.9721 128.642 13.5586 129.349 13.6386 129.975H14.9716C14.825 128.562 13.6653 127.589 11.8924 127.589C10.0528 127.589 8.81313 128.629 8.81313 130.162C8.81313 133.614 13.8385 132.015 13.8385 134.521C13.8385 135.4 13.1454 136.067 11.9723 136.067C10.6793 136.067 10.1328 135.294 10.0528 134.521H8.75981C8.78647 136.054 10.1061 137.093 11.9723 137.093C13.9852 137.093 15.0649 135.787 15.0649 134.467ZM23.3284 129.695H22.1153V133.707C22.1153 135.28 21.2755 136.054 20.0225 136.054C18.7962 136.054 17.983 135.294 17.983 133.814V129.695H16.7833V133.974C16.7833 136.067 18.103 137.107 19.7826 137.107C20.7557 137.107 21.6488 136.68 22.1153 135.92V137H23.3284V129.695ZM30.7218 137H31.9215V132.694C31.9215 130.602 30.6285 129.562 28.9356 129.562C27.9492 129.562 27.0694 129.975 26.5895 130.735V129.695H25.3765V137H26.5895V132.961C26.5895 131.388 27.4426 130.615 28.6823 130.615C29.9087 130.615 30.7218 131.375 30.7218 132.868V137ZM33.4498 133.321C33.4498 135.587 34.9561 137.12 36.9156 137.12C38.2486 137.12 39.195 136.413 39.6349 135.627V137.16C39.6349 138.72 38.6618 139.546 37.3688 139.546C36.1691 139.546 35.3027 138.946 35.0361 138.066H33.8364C34.0763 139.626 35.4493 140.599 37.3688 140.599C39.5149 140.599 40.8613 139.173 40.8613 137.16V129.695H39.6349V131.028C39.2083 130.242 38.2486 129.575 36.9156 129.575C34.9561 129.575 33.4498 131.041 33.4498 133.321ZM39.6349 133.334C39.6349 135.054 38.4885 136.054 37.1555 136.054C35.8225 136.054 34.6895 135.04 34.6895 133.321C34.6895 131.601 35.8225 130.628 37.1555 130.628C38.4885 130.628 39.6349 131.641 39.6349 133.334ZM42.9112 137H44.1242V127.136H42.9112V137ZM53.1232 133.334C53.1232 131.028 51.5103 129.575 49.4308 129.575C47.3646 129.575 45.7384 131.028 45.7384 133.334C45.7384 135.654 47.3113 137.12 49.3775 137.12C51.4569 137.12 53.1232 135.654 53.1232 133.334ZM46.9781 133.334C46.9781 131.495 48.1378 130.628 49.4175 130.628C50.6705 130.628 51.8835 131.495 51.8835 133.334C51.8835 135.187 50.6438 136.054 49.3775 136.054C48.1111 136.054 46.9781 135.187 46.9781 133.334ZM56.1444 137H57.3974L59.157 131.201L60.9166 137H62.1696L64.449 129.695H63.2493L61.5964 135.84L59.8235 129.695H58.5838L56.7709 135.827L55.0914 129.695H53.8517L56.1444 137Z" fill="#5D6B7E"/>
<path d="M13.7328 160H14.9993V152.279H13.7328V155.589H10.0998V152.279H8.83325V160H10.0998V156.623H13.7328V160ZM20.9329 152.267H16.6667V160H20.9329V158.967H17.9332V156.6H20.5996V155.567H17.9332V153.301H20.9329V152.267ZM27.0147 160H28.4368L26.037 156.145L28.4479 152.279H27.0369L25.3926 155.1L23.6372 152.279H22.2152L24.626 156.145L22.2263 160H23.6372L25.2704 157.2L27.0147 160Z" fill="#C2C8CF"/>
<path d="M9.02641 180H10.2394V175.814H13.5186V174.828H10.2394V171.695H14.2784V170.709H9.02641V180ZM15.7435 180H16.9565V175.814H20.2357V174.828H16.9565V171.695H20.9955V170.709H15.7435V180ZM22.0073 175.348C22.0073 178.134 24.0468 180.08 26.6462 180.08C28.659 180.08 30.2586 179.08 30.9518 177.294H29.4988C28.9923 178.4 28.0058 179.027 26.6462 179.027C24.7 179.027 23.247 177.614 23.247 175.348C23.247 173.068 24.7 171.655 26.6462 171.655C28.0058 171.655 28.9923 172.282 29.4988 173.402H30.9518C30.2586 171.602 28.659 170.589 26.6462 170.589C24.0468 170.589 22.0073 172.562 22.0073 175.348ZM32.1709 170.389V171.429H37.3163L33.5573 180H34.7836L38.4894 171.309V170.389H32.1709ZM39.6877 179.893H46.0994V178.88H41.5139C43.2335 177.481 45.8195 175.441 45.8195 173.042C45.8195 171.256 44.6465 170.189 42.8336 170.189C41.1007 170.189 39.8077 171.256 39.7277 173.308H40.9007C40.954 172.095 41.5939 171.229 42.8469 171.229C44.1532 171.229 44.6198 172.029 44.6198 173.095C44.6198 175.068 42.2204 176.987 39.6877 179.027V179.893ZM47.2484 175.348C47.2484 178.134 49.2879 180.08 51.8873 180.08C53.9001 180.08 55.4997 179.08 56.1928 177.294H54.7399C54.2333 178.4 53.2469 179.027 51.8873 179.027C49.9411 179.027 48.4881 177.614 48.4881 175.348C48.4881 173.068 49.9411 171.655 51.8873 171.655C53.2469 171.655 54.2333 172.282 54.7399 173.402H56.1928C55.4997 171.602 53.9001 170.589 51.8873 170.589C49.2879 170.589 47.2484 172.562 47.2484 175.348Z" fill="#5D6B7E"/>
<path d="M0 194H112V214C112 216.209 110.209 218 108 218H4C1.79086 218 0 216.209 0 214V194Z" fill="#EDEFF1"/>
<path d="M10.7331 207.2V210H11.9996V207.2L14.5549 202.279H13.155L11.3663 206.067L9.57762 202.279H8.16665L10.7331 207.2ZM19.8262 202.267H15.56V210H19.8262V208.967H16.8265V206.6H19.4929V205.567H16.8265V203.301H19.8262V202.267ZM21.3862 202.279V210H25.2636V208.978H22.6528V202.279H21.3862ZM26.3228 202.279V210H30.2002V208.978H27.5894V202.279H26.3228ZM38.7253 206.123C38.7253 203.812 36.981 202.179 34.7813 202.179C32.6037 202.179 30.8372 203.812 30.8372 206.123C30.8372 208.445 32.6037 210.078 34.7813 210.078C36.981 210.078 38.7253 208.445 38.7253 206.123ZM32.1371 206.123C32.1371 204.378 33.2481 203.29 34.7813 203.29C36.3144 203.29 37.4254 204.378 37.4254 206.123C37.4254 207.867 36.3144 208.978 34.7813 208.978C33.2481 208.978 32.1371 207.867 32.1371 206.123ZM41.5381 210.011L42.9602 210L44.6823 204.156L46.3043 210H47.7375L50.0262 202.279H48.6708L47.0598 208.533L45.4489 202.279H44.0268L42.2936 208.567L40.6938 202.279H39.3495L41.5381 210.011ZM54.7704 210H56.0147V208.311H57.048V207.211H56.0147V202.001H54.4815L50.7486 207.356V208.311H54.7704V210ZM52.204 207.211L54.826 203.29V207.211H52.204ZM58.0974 205.845C58.0974 208.2 58.7196 209.978 60.986 209.978C63.2525 209.978 63.8746 208.2 63.8746 205.845C63.8746 203.534 63.2525 201.756 60.986 201.756C58.7196 201.756 58.0974 203.534 58.0974 205.845ZM62.6303 205.845C62.6303 207.434 62.4636 208.822 60.986 208.822C59.5084 208.822 59.3417 207.434 59.3417 205.845C59.3417 204.334 59.5084 202.912 60.986 202.912C62.4636 202.912 62.6303 204.334 62.6303 205.845ZM65.2148 205.845C65.2148 208.2 65.8369 209.978 68.1034 209.978C70.3698 209.978 70.992 208.2 70.992 205.845C70.992 203.534 70.3698 201.756 68.1034 201.756C65.8369 201.756 65.2148 203.534 65.2148 205.845ZM69.7476 205.845C69.7476 207.434 69.581 208.822 68.1034 208.822C66.6257 208.822 66.4591 207.434 66.4591 205.845C66.4591 204.334 66.6257 202.912 68.1034 202.912C69.581 202.912 69.7476 204.334 69.7476 205.845Z" fill="#9AA3AF"/>
</svg>
