<svg width="112" height="218" viewBox="0 0 112 218" fill="none" xmlns="http://www.w3.org/2000/svg">
<rect y="100" width="112" height="94" fill="#F9FAFA"/>
<path d="M0 4C0 1.79086 1.79086 0 4 0H108C110.209 0 112 1.79086 112 4V100H0V4Z" fill="#F2A21D"/>
<path d="M13.9105 109.267V115.022L10.0998 109.267H8.83325V117H10.0998V111.234L13.9105 117H15.1771V109.267H13.9105ZM22.0509 117H23.3841L20.6177 109.267H19.1511L16.3848 117H17.7068L18.2623 115.422H21.4954L22.0509 117ZM21.1398 114.389H18.6179L19.8844 110.801L21.1398 114.389ZM24.5869 117H25.8534V111.712L28.2199 117H29.0975L31.4529 111.712V117H32.7194V109.279H31.364L28.6643 115.333L25.9534 109.279H24.5869V117ZM38.6503 109.267H34.3841V117H38.6503V115.967H35.6506V113.6H38.317V112.567H35.6506V110.301H38.6503V109.267Z" fill="#C2C8CF"/>
<path d="M15.1182 127.696V135.08L10.2394 127.696H9.02641V137H10.2394V129.602L15.1182 137H16.3312V127.696H15.1182ZM24.8774 129.695H23.6644V133.707C23.6644 135.28 22.8246 136.054 21.5716 136.054C20.3452 136.054 19.5321 135.294 19.5321 133.814V129.695H18.3324V133.974C18.3324 136.067 19.6521 137.107 21.3317 137.107C22.3048 137.107 23.1979 136.68 23.6644 135.92V137H24.8774V129.695ZM26.4724 133.321C26.4724 135.587 27.9786 137.12 29.9382 137.12C31.2712 137.12 32.2176 136.413 32.6575 135.627V137.16C32.6575 138.72 31.6844 139.546 30.3914 139.546C29.1917 139.546 28.3252 138.946 28.0586 138.066H26.8589C27.0989 139.626 28.4719 140.599 30.3914 140.599C32.5375 140.599 33.8838 139.173 33.8838 137.16V129.695H32.6575V131.028C32.2309 130.242 31.2712 129.575 29.9382 129.575C27.9786 129.575 26.4724 131.041 26.4724 133.321ZM32.6575 133.334C32.6575 135.054 31.5111 136.054 30.1781 136.054C28.8451 136.054 27.7121 135.04 27.7121 133.321C27.7121 131.601 28.8451 130.628 30.1781 130.628C31.5111 130.628 32.6575 131.641 32.6575 133.334ZM35.4805 133.321C35.4805 135.587 36.9868 137.12 38.9463 137.12C40.2793 137.12 41.2258 136.413 41.6656 135.627V137.16C41.6656 138.72 40.6926 139.546 39.3995 139.546C38.1998 139.546 37.3334 138.946 37.0668 138.066H35.8671C36.107 139.626 37.48 140.599 39.3995 140.599C41.5457 140.599 42.892 139.173 42.892 137.16V129.695H41.6656V131.028C41.2391 130.242 40.2793 129.575 38.9463 129.575C36.9868 129.575 35.4805 131.041 35.4805 133.321ZM41.6656 133.334C41.6656 135.054 40.5193 136.054 39.1863 136.054C37.8533 136.054 36.7202 135.04 36.7202 133.321C36.7202 131.601 37.8533 130.628 39.1863 130.628C40.5193 130.628 41.6656 131.641 41.6656 133.334ZM48.0478 130.602C49.3008 130.602 50.3672 131.388 50.3539 132.814H45.7417C45.875 131.388 46.8614 130.602 48.0478 130.602ZM51.4603 134.747H50.1539C49.8873 135.534 49.1942 136.094 48.1011 136.094C46.8614 136.094 45.8217 135.28 45.7284 133.801H51.5669C51.5936 133.548 51.6069 133.334 51.6069 133.068C51.6069 131.068 50.2206 129.575 48.1011 129.575C45.9683 129.575 44.4887 131.028 44.4887 133.334C44.4887 135.654 46.0216 137.12 48.1011 137.12C49.914 137.12 51.087 136.08 51.4603 134.747ZM53.4747 135C53.4747 136.467 54.2078 137 55.5008 137H56.5939V135.974H55.7008C54.9543 135.974 54.6877 135.72 54.6877 135V130.695H56.5939V129.695H54.6877V127.856H53.4747V129.695H52.5282V130.695H53.4747V135Z" fill="#5D6B7E"/>
<path d="M13.7328 160H14.9993V152.279H13.7328V155.589H10.0998V152.279H8.83325V160H10.0998V156.623H13.7328V160ZM20.9329 152.267H16.6667V160H20.9329V158.967H17.9332V156.6H20.5996V155.567H17.9332V153.301H20.9329V152.267ZM27.0147 160H28.4368L26.037 156.145L28.4479 152.279H27.0369L25.3926 155.1L23.6372 152.279H22.2152L24.626 156.145L22.2263 160H23.6372L25.2704 157.2L27.0147 160Z" fill="#C2C8CF"/>
<path d="M9.02641 180H10.2394V175.814H13.5186V174.828H10.2394V171.695H14.2784V170.709H9.02641V180ZM15.3969 179.893H21.8086V178.88H17.2231C18.9427 177.481 21.5287 175.441 21.5287 173.042C21.5287 171.256 20.3557 170.189 18.5428 170.189C16.8099 170.189 15.5169 171.256 15.4369 173.308H16.6099C16.6633 172.095 17.3031 171.229 18.5561 171.229C19.8625 171.229 20.329 172.029 20.329 173.095C20.329 175.068 17.9296 176.987 15.3969 179.027V179.893ZM29.6493 180H30.929L27.5831 170.762H26.1835L22.8243 180H24.104L24.8505 177.934H28.9028L29.6493 180ZM28.5562 176.947H25.1971L26.8766 172.255L28.5562 176.947ZM32.0464 179.893H38.4581V178.88H33.8726C35.5922 177.481 38.1782 175.441 38.1782 173.042C38.1782 171.256 37.0051 170.189 35.1923 170.189C33.4594 170.189 32.1664 171.256 32.0864 173.308H33.2594C33.3127 172.095 33.9526 171.229 35.2056 171.229C36.5119 171.229 36.9785 172.029 36.9785 173.095C36.9785 175.068 34.5791 176.987 32.0464 179.027V179.893ZM40.8201 180H42.0465V170.362H39.5404V171.469H40.8201V180ZM47.2227 170.709H44.3301V180H47.2227C50.2753 180 52.1548 178.254 52.1548 175.374C52.1548 172.495 50.2753 170.709 47.2227 170.709ZM45.5431 179V171.695H47.2227C49.6488 171.695 50.9151 173.108 50.9151 175.374C50.9151 177.641 49.6488 179 47.2227 179H45.5431Z" fill="#5D6B7E"/>
<path d="M0 194H112V214C112 216.209 110.209 218 108 218H4C1.79086 218 0 216.209 0 214V194Z" fill="#EDEFF1"/>
<path d="M10.7331 207.2V210H11.9996V207.2L14.5549 202.279H13.155L11.3663 206.067L9.57762 202.279H8.16665L10.7331 207.2ZM19.8262 202.267H15.56V210H19.8262V208.967H16.8265V206.6H19.4929V205.567H16.8265V203.301H19.8262V202.267ZM21.3862 202.279V210H25.2636V208.978H22.6528V202.279H21.3862ZM26.3228 202.279V210H30.2002V208.978H27.5894V202.279H26.3228ZM38.7253 206.123C38.7253 203.812 36.981 202.179 34.7813 202.179C32.6037 202.179 30.8372 203.812 30.8372 206.123C30.8372 208.445 32.6037 210.078 34.7813 210.078C36.981 210.078 38.7253 208.445 38.7253 206.123ZM32.1371 206.123C32.1371 204.378 33.2481 203.29 34.7813 203.29C36.3144 203.29 37.4254 204.378 37.4254 206.123C37.4254 207.867 36.3144 208.978 34.7813 208.978C33.2481 208.978 32.1371 207.867 32.1371 206.123ZM41.5381 210.011L42.9602 210L44.6823 204.156L46.3043 210H47.7375L50.0262 202.279H48.6708L47.0598 208.533L45.4489 202.279H44.0268L42.2936 208.567L40.6938 202.279H39.3495L41.5381 210.011ZM51.2374 201.879V206.556H52.4373C52.6484 205.956 53.1483 205.545 53.8927 205.545C54.9482 205.545 55.4703 206.145 55.4703 207.2C55.4703 208.2 54.9815 208.945 53.8927 208.945C53.0372 208.945 52.4595 208.5 52.2929 207.811H51.0597C51.2485 209.078 52.2151 210 53.8816 210C55.7592 210 56.6813 208.778 56.6813 207.167C56.6813 205.945 56.0703 204.467 54.0816 204.467C53.3594 204.467 52.7039 204.801 52.404 205.2V202.99H56.1258V201.879H51.2374ZM57.9998 205.845C57.9998 208.2 58.6219 209.978 60.8884 209.978C63.1548 209.978 63.777 208.2 63.777 205.845C63.777 203.534 63.1548 201.756 60.8884 201.756C58.6219 201.756 57.9998 203.534 57.9998 205.845ZM62.5327 205.845C62.5327 207.434 62.366 208.822 60.8884 208.822C59.4107 208.822 59.2441 207.434 59.2441 205.845C59.2441 204.334 59.4107 202.912 60.8884 202.912C62.366 202.912 62.5327 204.334 62.5327 205.845ZM65.1171 205.845C65.1171 208.2 65.7393 209.978 68.0057 209.978C70.2722 209.978 70.8943 208.2 70.8943 205.845C70.8943 203.534 70.2722 201.756 68.0057 201.756C65.7393 201.756 65.1171 203.534 65.1171 205.845ZM69.65 205.845C69.65 207.434 69.4833 208.822 68.0057 208.822C66.5281 208.822 66.3614 207.434 66.3614 205.845C66.3614 204.334 66.5281 202.912 68.0057 202.912C69.4833 202.912 69.65 204.334 69.65 205.845Z" fill="#9AA3AF"/>
</svg>
